<svg xmlns="http://www.w3.org/2000/svg" viewBox="0 0 32 32" shape-rendering="crispEdges"><path fill="#4f4f4f" d="M7 5h1v1H7zM24 5h1v1H24zM6 13h1v1H6zM25 13h1v1H25zM6 25h1v1H6zM25 25h1v1H25z"/><path fill="#7a7a7a" d="M8 5h1v1H8zM9 5h1v1H9zM10 5h1v1H10zM11 5h1v1H11zM12 5h1v1H12zM13 5h1v1H13zM14 5h1v1H14zM15 5h1v1H15zM16 5h1v1H16zM17 5h1v1H17zM18 5h1v1H18zM19 5h1v1H19zM20 5h1v1H20zM21 5h1v1H21zM22 5h1v1H22zM23 5h1v1H23zM6 6h1v1H6zM25 6h1v1H25zM6 7h1v1H6zM25 7h1v1H25zM6 8h1v1H6zM25 8h1v1H25zM6 9h1v1H6zM25 9h1v1H25zM6 10h1v1H6zM25 10h1v1H25zM7 13h1v1H7zM8 13h1v1H8zM10 13h1v1H10zM11 13h1v1H11zM20 13h1v1H20zM21 13h1v1H21zM24 13h1v1H24z"/><path fill="#232323" d="M7 6h1v1H7zM8 6h1v1H8zM9 6h1v1H9zM15 6h1v1H15zM16 6h1v1H16zM22 6h1v1H22zM23 6h1v1H23zM24 6h1v1H24zM7 7h1v1H7zM8 7h1v1H8zM9 7h1v1H9zM14 7h1v1H14zM17 7h1v1H17zM22 7h1v1H22zM23 7h1v1H23zM24 7h1v1H24zM13 8h1v1H13zM18 8h1v1H18zM7 9h1v1H7zM8 9h1v1H8zM13 9h1v1H13zM18 9h1v1H18zM23 9h1v1H23zM24 9h1v1H24zM7 10h1v1H7zM8 10h1v1H8zM9 10h1v1H9zM14 10h1v1H14zM17 10h1v1H17zM22 10h1v1H22zM23 10h1v1H23zM24 10h1v1H24zM7 11h1v1H7zM8 11h1v1H8zM9 11h1v1H9zM15 11h1v1H15zM16 11h1v1H16zM22 11h1v1H22zM23 11h1v1H23zM24 11h1v1H24zM9 12h1v1H9zM10 12h1v1H10zM11 12h1v1H11zM20 12h1v1H20zM21 12h1v1H21zM22 12h1v1H22zM12 16h1v1H12zM13 16h1v1H13zM18 16h1v1H18zM19 16h1v1H19zM10 19h1v1H10zM15 19h1v1H15zM16 19h1v1H16zM21 19h1v1H21zM10 20h1v1H10zM14 20h1v1H14zM17 20h1v1H17zM21 20h1v1H21zM9 21h1v1H9zM10 21h1v1H10zM11 21h1v1H11zM13 21h1v1H13zM18 21h1v1H18zM20 21h1v1H20zM21 21h1v1H21zM22 21h1v1H22zM9 22h1v1H9zM10 22h1v1H10zM11 22h1v1H11zM13 22h1v1H13zM18 22h1v1H18zM20 22h1v1H20zM21 22h1v1H21zM22 22h1v1H22zM9 23h1v1H9zM10 23h1v1H10zM11 23h1v1H11zM14 23h1v1H14zM17 23h1v1H17zM20 23h1v1H20zM21 23h1v1H21zM22 23h1v1H22zM10 24h1v1H10zM11 24h1v1H11zM15 24h1v1H15zM16 24h1v1H16zM20 24h1v1H20zM21 24h1v1H21zM10 25h1v1H10zM11 25h1v1H11zM12 25h1v1H12zM19 25h1v1H19zM20 25h1v1H20zM21 25h1v1H21z"/><path fill="#0c0c0c" d="M10 6h1v1H10zM11 6h1v1H11zM12 6h1v1H12zM19 6h1v1H19zM20 6h1v1H20zM21 6h1v1H21zM10 7h1v1H10zM11 7h1v1H11zM20 7h1v1H20zM21 7h1v1H21zM7 8h1v1H7zM8 8h1v1H8zM9 8h1v1H9zM22 8h1v1H22zM23 8h1v1H23zM24 8h1v1H24zM10 10h1v1H10zM11 10h1v1H11zM20 10h1v1H20zM21 10h1v1H21zM10 11h1v1H10zM11 11h1v1H11zM12 11h1v1H12zM19 11h1v1H19zM20 11h1v1H20zM21 11h1v1H21zM7 12h1v1H7zM8 12h1v1H8zM12 12h1v1H12zM13 12h1v1H13zM18 12h1v1H18zM19 12h1v1H19zM23 12h1v1H23zM24 12h1v1H24zM9 15h1v1H9zM10 15h1v1H10zM11 15h1v1H11zM12 15h1v1H12zM13 15h1v1H13zM18 15h1v1H18zM19 15h1v1H19zM20 15h1v1H20zM21 15h1v1H21zM22 15h1v1H22zM8 16h1v1H8zM9 16h1v1H9zM10 16h1v1H10zM11 16h1v1H11zM20 16h1v1H20zM21 16h1v1H21zM22 16h1v1H22zM23 16h1v1H23zM8 17h1v1H8zM9 17h1v1H9zM10 17h1v1H10zM11 17h1v1H11zM20 17h1v1H20zM21 17h1v1H21zM22 17h1v1H22zM23 17h1v1H23zM8 18h1v1H8zM9 18h1v1H9zM10 18h1v1H10zM21 18h1v1H21zM22 18h1v1H22zM23 18h1v1H23zM8 19h1v1H8zM9 19h1v1H9zM22 19h1v1H22zM23 19h1v1H23zM8 20h1v1H8zM9 20h1v1H9zM22 20h1v1H22zM23 20h1v1H23zM8 21h1v1H8zM23 21h1v1H23zM8 22h1v1H8zM23 22h1v1H23zM8 23h1v1H8zM23 23h1v1H23zM8 24h1v1H8zM9 24h1v1H9zM22 24h1v1H22zM23 24h1v1H23zM9 25h1v1H9zM22 25h1v1H22z"/><path fill="#000000" d="M13 6h1v1H13zM18 6h1v1H18zM12 7h1v1H12zM19 7h1v1H19zM10 8h1v1H10zM11 8h1v1H11zM20 8h1v1H20zM21 8h1v1H21zM10 9h1v1H10zM21 9h1v1H21zM12 10h1v1H12zM19 10h1v1H19zM13 11h1v1H13zM18 11h1v1H18zM14 12h1v1H14zM17 12h1v1H17z"/><path fill="#585858" d="M14 6h1v1H14zM17 6h1v1H17zM13 7h1v1H13zM15 7h1v1H15zM16 7h1v1H16zM18 7h1v1H18zM12 8h1v1H12zM14 8h1v1H14zM17 8h1v1H17zM19 8h1v1H19zM9 9h1v1H9zM11 9h1v1H11zM12 9h1v1H12zM15 9h1v1H15zM17 9h1v1H17zM19 9h1v1H19zM20 9h1v1H20zM22 9h1v1H22zM13 10h1v1H13zM18 10h1v1H18zM14 11h1v1H14zM17 11h1v1H17zM15 12h1v1H15zM16 12h1v1H16zM15 15h1v1H15zM16 15h1v1H16zM14 16h1v1H14zM15 16h1v1H15zM16 16h1v1H16zM17 16h1v1H17zM14 17h1v1H14zM15 17h1v1H15zM16 17h1v1H16zM17 17h1v1H17zM14 18h1v1H14zM15 18h1v1H15zM16 18h1v1H16zM17 18h1v1H17zM14 19h1v1H14zM17 19h1v1H17zM15 20h1v1H15zM16 20h1v1H16zM12 21h1v1H12zM14 21h1v1H14zM17 21h1v1H17zM19 21h1v1H19zM12 22h1v1H12zM15 22h1v1H15zM17 22h1v1H17zM19 22h1v1H19zM12 23h1v1H12zM13 23h1v1H13zM18 23h1v1H18zM19 23h1v1H19zM13 24h1v1H13zM14 24h1v1H14zM17 24h1v1H17zM18 24h1v1H18zM13 25h1v1H13zM14 25h1v1H14zM15 25h1v1H15zM16 25h1v1H16zM17 25h1v1H17zM18 25h1v1H18z"/><path fill="#ffffff" d="M15 8h1v1H15zM16 8h1v1H16zM16 9h1v1H16zM12 17h1v1H12zM18 17h1v1H18zM11 18h1v1H11zM13 18h1v1H13zM19 18h1v1H19zM20 18h1v1H20zM11 19h1v1H11zM20 19h1v1H20zM11 20h1v1H11zM20 20h1v1H20zM15 21h1v1H15zM16 21h1v1H16zM16 22h1v1H16z"/><path fill="#303030" d="M14 9h1v1H14zM15 10h1v1H15zM16 10h1v1H16zM15 14h1v1H15zM16 14h1v1H16zM14 15h1v1H14zM17 15h1v1H17zM14 22h1v1H14zM15 23h1v1H15zM16 23h1v1H16zM12 24h1v1H12zM19 24h1v1H19z"/><path fill="#8b8b8b" d="M6 11h1v1H6zM25 11h1v1H25z"/><path fill="#8c8c8c" d="M6 12h1v1H6zM25 12h1v1H25zM9 13h1v1H9zM12 13h1v1H12zM13 13h1v1H13zM14 13h1v1H14zM15 13h1v1H15zM16 13h1v1H16zM17 13h1v1H17zM18 13h1v1H18zM19 13h1v1H19zM22 13h1v1H22zM23 13h1v1H23zM8 14h1v1H8zM9 14h1v1H9zM10 14h1v1H10zM11 14h1v1H11zM12 14h1v1H12zM13 14h1v1H13zM14 14h1v1H14zM17 14h1v1H17zM18 14h1v1H18zM19 14h1v1H19zM20 14h1v1H20zM21 14h1v1H21zM22 14h1v1H22zM23 14h1v1H23zM7 15h1v1H7zM8 15h1v1H8zM23 15h1v1H23zM24 15h1v1H24zM7 16h1v1H7zM24 16h1v1H24zM7 17h1v1H7zM24 17h1v1H24zM7 18h1v1H7zM24 18h1v1H24zM7 19h1v1H7zM24 19h1v1H24zM7 20h1v1H7zM24 20h1v1H24zM7 21h1v1H7zM24 21h1v1H24zM7 22h1v1H7zM24 22h1v1H24zM7 23h1v1H7zM24 23h1v1H24zM7 24h1v1H7zM24 24h1v1H24zM7 25h1v1H7zM8 25h1v1H8zM23 25h1v1H23zM24 25h1v1H24z"/><path fill="#616161" d="M6 14h1v1H6zM25 14h1v1H25zM6 15h1v1H6zM25 15h1v1H25zM6 24h1v1H6zM25 24h1v1H25z"/><path fill="#434343" d="M7 14h1v1H7zM24 14h1v1H24z"/><path fill="#6d6d6d" d="M6 16h1v1H6zM25 16h1v1H25zM6 17h1v1H6zM25 17h1v1H25zM6 18h1v1H6zM25 18h1v1H25zM6 19h1v1H6zM25 19h1v1H25zM6 20h1v1H6zM25 20h1v1H25zM6 21h1v1H6zM25 21h1v1H25zM6 22h1v1H6zM25 22h1v1H25zM6 23h1v1H6zM25 23h1v1H25zM7 26h1v1H7zM8 26h1v1H8zM9 26h1v1H9zM10 26h1v1H10zM11 26h1v1H11zM12 26h1v1H12zM13 26h1v1H13zM14 26h1v1H14zM15 26h1v1H15zM16 26h1v1H16zM17 26h1v1H17zM18 26h1v1H18zM19 26h1v1H19zM20 26h1v1H20zM21 26h1v1H21zM22 26h1v1H22zM23 26h1v1H23zM24 26h1v1H24z"/><path fill="#0e0e14" d="M13 17h1v1H13zM19 17h1v1H19zM12 18h1v1H12zM18 18h1v1H18zM12 19h1v1H12zM13 19h1v1H13zM18 19h1v1H18zM19 19h1v1H19zM12 20h1v1H12zM13 20h1v1H13zM18 20h1v1H18zM19 20h1v1H19z"/></svg>
