<svg xmlns="http://www.w3.org/2000/svg" viewBox="0 0 32 32" shape-rendering="crispEdges"><path fill="#12347e" d="M7 2h1v1H7zM24 2h1v1H24zM6 3h1v1H6zM7 3h1v1H7zM24 3h1v1H24zM25 3h1v1H25zM5 4h1v1H5zM6 4h1v1H6zM7 4h1v1H7zM8 4h1v1H8zM23 4h1v1H23zM24 4h1v1H24zM25 4h1v1H25zM26 4h1v1H26zM5 5h1v1H5zM6 5h1v1H6zM25 5h1v1H25zM26 5h1v1H26zM5 6h1v1H5zM26 6h1v1H26zM5 7h1v1H5zM26 7h1v1H26z"/><path fill="#1b4abd" d="M3 4h1v1H3zM28 4h1v1H28zM3 5h1v1H3zM4 5h1v1H4zM27 5h1v1H27zM28 5h1v1H28zM4 6h1v1H4zM27 6h1v1H27zM4 7h1v1H4zM27 7h1v1H27zM3 8h1v1H3zM4 8h1v1H4zM5 8h1v1H5zM26 8h1v1H26zM27 8h1v1H27zM28 8h1v1H28zM5 9h1v1H5zM26 9h1v1H26zM5 10h1v1H5zM26 10h1v1H26zM5 11h1v1H5zM26 11h1v1H26zM5 12h1v1H5zM26 12h1v1H26zM4 13h1v1H4zM5 13h1v1H5zM26 13h1v1H26zM27 13h1v1H27zM4 14h1v1H4zM5 14h1v1H5zM26 14h1v1H26zM27 14h1v1H27zM4 15h1v1H4zM5 15h1v1H5zM26 15h1v1H26zM27 15h1v1H27zM5 16h1v1H5zM26 16h1v1H26zM5 17h1v1H5zM26 17h1v1H26z"/><path fill="#16389b" d="M7 5h1v1H7zM24 5h1v1H24z"/><path fill="#2b74ff" d="M8 5h1v1H8zM9 5h1v1H9zM10 5h1v1H10zM11 5h1v1H11zM12 5h1v1H12zM13 5h1v1H13zM19 5h1v1H19zM20 5h1v1H20zM21 5h1v1H21zM22 5h1v1H22zM23 5h1v1H23zM6 6h1v1H6z"/><path fill="#225bee" d="M14 5h1v1H14zM15 5h1v1H15zM16 5h1v1H16zM17 5h1v1H17zM25 6h1v1H25zM6 7h1v1H6zM25 7h1v1H25zM6 8h1v1H6zM25 8h1v1H25zM25 9h1v1H25z"/><path fill="#78f1ff" d="M18 5h1v1H18zM14 6h1v1H14zM10 7h1v1H10zM13 7h1v1H13zM15 7h1v1H15zM21 7h1v1H21zM14 8h1v1H14zM20 8h1v1H20zM22 8h1v1H22zM21 9h1v1H21zM8 10h1v1H8zM16 11h1v1H16z"/><path fill="#ffffff" d="M3 6h1v1H3zM28 6h1v1H28zM3 7h1v1H3zM14 7h1v1H14zM28 7h1v1H28zM21 8h1v1H21zM3 9h1v1H3zM4 9h1v1H4zM27 9h1v1H27zM28 9h1v1H28zM3 10h1v1H3zM4 10h1v1H4zM27 10h1v1H27zM28 10h1v1H28zM3 11h1v1H3zM4 11h1v1H4zM11 11h1v1H11zM27 11h1v1H27zM28 11h1v1H28zM3 12h1v1H3zM4 12h1v1H4zM6 12h1v1H6zM10 12h1v1H10zM11 12h1v1H11zM12 12h1v1H12zM25 12h1v1H25zM27 12h1v1H27zM28 12h1v1H28zM8 13h1v1H8zM9 13h1v1H9zM11 13h1v1H11zM12 13h1v1H12zM13 13h1v1H13zM14 13h1v1H14zM15 13h1v1H15zM16 13h1v1H16zM17 13h1v1H17zM18 13h1v1H18zM19 13h1v1H19zM22 13h1v1H22zM23 13h1v1H23zM12 17h1v1H12zM18 17h1v1H18zM11 18h1v1H11zM13 18h1v1H13zM19 18h1v1H19zM20 18h1v1H20zM11 19h1v1H11zM20 19h1v1H20zM11 20h1v1H11zM20 20h1v1H20zM10 23h1v1H10zM13 25h1v1H13zM18 25h1v1H18zM7 27h1v1H7zM24 27h1v1H24zM7 28h1v1H7zM24 28h1v1H24zM25 28h1v1H25z"/><path fill="#4790ff" d="M7 6h1v1H7zM9 6h1v1H9zM10 6h1v1H10zM11 6h1v1H11zM12 6h1v1H12zM13 6h1v1H13zM18 6h1v1H18zM19 6h1v1H19zM20 6h1v1H20zM22 6h1v1H22zM23 6h1v1H23zM7 7h1v1H7zM7 8h1v1H7zM24 10h1v1H24zM24 11h1v1H24zM24 12h1v1H24z"/><path fill="#3872ff" d="M8 6h1v1H8zM15 6h1v1H15zM16 6h1v1H16zM17 6h1v1H17zM24 7h1v1H24zM24 8h1v1H24zM7 10h1v1H7zM7 11h1v1H7zM7 12h1v1H7zM14 12h1v1H14zM15 12h1v1H15zM16 12h1v1H16zM17 12h1v1H17z"/><path fill="#3185ff" d="M21 6h1v1H21zM19 8h1v1H19zM23 8h1v1H23zM21 10h1v1H21zM10 21h1v1H10zM8 23h1v1H8zM12 23h1v1H12z"/><path fill="#3d7bff" d="M24 6h1v1H24zM7 9h1v1H7zM24 9h1v1H24z"/><path fill="#41afff" d="M8 7h1v1H8zM9 15h1v1H9zM22 15h1v1H22zM7 20h1v1H7zM22 20h1v1H22zM10 22h1v1H10zM9 23h1v1H9zM11 23h1v1H11zM10 24h1v1H10zM21 24h1v1H21z"/><path fill="#1e52da" d="M9 7h1v1H9zM16 7h1v1H16zM23 7h1v1H23zM10 8h1v1H10zM15 8h1v1H15zM16 8h1v1H16zM6 9h1v1H6zM9 9h1v1H9zM10 9h1v1H10zM11 9h1v1H11zM15 9h1v1H15zM16 9h1v1H16zM22 9h1v1H22zM6 10h1v1H6zM9 10h1v1H9zM10 10h1v1H10zM14 10h1v1H14zM15 10h1v1H15zM16 10h1v1H16zM20 10h1v1H20zM25 10h1v1H25zM8 11h1v1H8zM9 11h1v1H9zM14 11h1v1H14zM15 11h1v1H15zM21 11h1v1H21zM22 11h1v1H22zM13 12h1v1H13zM18 12h1v1H18zM23 12h1v1H23z"/><path fill="#2668ff" d="M11 7h1v1H11zM12 7h1v1H12zM18 7h1v1H18zM19 7h1v1H19zM20 7h1v1H20zM8 8h1v1H8zM9 8h1v1H9zM12 8h1v1H12zM13 8h1v1H13zM17 8h1v1H17zM18 8h1v1H18zM8 9h1v1H8zM12 9h1v1H12zM13 9h1v1H13zM17 9h1v1H17zM18 9h1v1H18zM19 9h1v1H19zM23 9h1v1H23zM11 10h1v1H11zM12 10h1v1H12zM13 10h1v1H13zM17 10h1v1H17zM18 10h1v1H18zM19 10h1v1H19zM22 10h1v1H22zM23 10h1v1H23zM12 11h1v1H12zM18 11h1v1H18zM19 11h1v1H19zM23 11h1v1H23z"/><path fill="#2159ed" d="M17 7h1v1H17zM22 7h1v1H22zM11 8h1v1H11zM14 9h1v1H14zM20 9h1v1H20zM13 11h1v1H13zM17 11h1v1H17z"/><path fill="#3083ff" d="M6 11h1v1H6z"/><path fill="#beeaff" d="M10 11h1v1H10zM20 11h1v1H20zM8 12h1v1H8zM9 12h1v1H9zM19 12h1v1H19zM20 12h1v1H20zM21 12h1v1H21zM22 12h1v1H22zM10 13h1v1H10zM20 13h1v1H20zM21 13h1v1H21z"/><path fill="#2159f1" d="M25 11h1v1H25z"/><path fill="#11307b" d="M3 13h1v1H3zM28 13h1v1H28z"/><path fill="#112c75" d="M6 13h1v1H6zM25 13h1v1H25z"/><path fill="#82beff" d="M7 13h1v1H7zM24 13h1v1H24z"/><path fill="#386ef9" d="M6 14h1v1H6zM25 14h1v1H25zM6 15h1v1H6zM25 15h1v1H25zM6 24h1v1H6zM25 24h1v1H25z"/><path fill="#1d4fd1" d="M7 14h1v1H7zM8 14h1v1H8zM9 14h1v1H9zM10 14h1v1H10zM11 14h1v1H11zM12 14h1v1H12zM13 14h1v1H13zM14 14h1v1H14zM15 14h1v1H15zM16 14h1v1H16zM17 14h1v1H17zM18 14h1v1H18zM19 14h1v1H19zM20 14h1v1H20zM22 14h1v1H22zM23 14h1v1H23zM24 14h1v1H24zM7 15h1v1H7zM8 15h1v1H8zM11 15h1v1H11zM12 15h1v1H12zM14 15h1v1H14zM15 15h1v1H15zM16 15h1v1H16zM18 15h1v1H18zM19 15h1v1H19zM21 15h1v1H21zM24 15h1v1H24zM7 16h1v1H7zM16 16h1v1H16zM22 16h1v1H22zM24 16h1v1H24zM7 17h1v1H7zM8 17h1v1H8zM7 18h1v1H7zM24 18h1v1H24zM24 19h1v1H24zM8 22h1v1H8zM23 22h1v1H23zM22 24h1v1H22z"/><path fill="#2055e9" d="M21 14h1v1H21z"/><path fill="#2059ea" d="M10 15h1v1H10zM13 15h1v1H13zM17 15h1v1H17zM20 15h1v1H20zM23 15h1v1H23zM8 16h1v1H8zM9 16h1v1H9zM10 16h1v1H10zM11 16h1v1H11zM12 16h1v1H12zM13 16h1v1H13zM14 16h1v1H14zM15 16h1v1H15zM17 16h1v1H17zM18 16h1v1H18zM19 16h1v1H19zM20 16h1v1H20zM21 16h1v1H21zM23 16h1v1H23zM9 17h1v1H9zM10 17h1v1H10zM11 17h1v1H11zM14 17h1v1H14zM15 17h1v1H15zM16 17h1v1H16zM17 17h1v1H17zM20 17h1v1H20zM21 17h1v1H21zM22 17h1v1H22zM23 17h1v1H23zM24 17h1v1H24zM8 18h1v1H8zM9 18h1v1H9zM10 18h1v1H10zM14 18h1v1H14zM15 18h1v1H15zM16 18h1v1H16zM17 18h1v1H17zM21 18h1v1H21zM22 18h1v1H22zM23 18h1v1H23zM7 19h1v1H7zM8 19h1v1H8zM9 19h1v1H9zM10 19h1v1H10zM14 19h1v1H14zM15 19h1v1H15zM16 19h1v1H16zM17 19h1v1H17zM21 19h1v1H21zM22 19h1v1H22zM23 19h1v1H23zM8 20h1v1H8zM9 20h1v1H9zM10 20h1v1H10zM14 20h1v1H14zM15 20h1v1H15zM16 20h1v1H16zM17 20h1v1H17zM21 20h1v1H21zM23 20h1v1H23zM24 20h1v1H24zM8 21h1v1H8zM9 21h1v1H9zM11 21h1v1H11zM12 21h1v1H12zM13 21h1v1H13zM14 21h1v1H14zM15 21h1v1H15zM16 21h1v1H16zM17 21h1v1H17zM18 21h1v1H18zM19 21h1v1H19zM20 21h1v1H20zM21 21h1v1H21zM22 21h1v1H22zM23 21h1v1H23zM7 22h1v1H7zM9 22h1v1H9zM11 22h1v1H11zM12 22h1v1H12zM13 22h1v1H13zM14 22h1v1H14zM15 22h1v1H15zM16 22h1v1H16zM17 22h1v1H17zM18 22h1v1H18zM19 22h1v1H19zM20 22h1v1H20zM21 22h1v1H21zM22 22h1v1H22zM24 22h1v1H24zM7 23h1v1H7zM13 23h1v1H13zM14 23h1v1H14zM15 23h1v1H15zM16 23h1v1H16zM17 23h1v1H17zM18 23h1v1H18zM19 23h1v1H19zM20 23h1v1H20zM21 23h1v1H21zM22 23h1v1H22zM23 23h1v1H23zM24 23h1v1H24zM8 24h1v1H8zM9 24h1v1H9zM11 24h1v1H11zM12 24h1v1H12zM13 24h1v1H13zM14 24h1v1H14zM15 24h1v1H15zM16 24h1v1H16zM17 24h1v1H17zM18 24h1v1H18zM19 24h1v1H19zM20 24h1v1H20zM23 24h1v1H23z"/><path fill="#163993" d="M4 16h1v1H4zM27 16h1v1H27zM5 18h1v1H5zM26 18h1v1H26zM8 27h1v1H8zM19 27h1v1H19zM20 27h1v1H20zM23 27h1v1H23zM8 28h1v1H8zM20 28h1v1H20zM23 28h1v1H23z"/><path fill="#7198ff" d="M6 16h1v1H6zM25 16h1v1H25zM6 17h1v1H6zM25 17h1v1H25zM25 18h1v1H25zM6 20h1v1H6zM25 20h1v1H25zM6 22h1v1H6zM6 23h1v1H6zM25 23h1v1H25z"/><path fill="#0e0e14" d="M13 17h1v1H13zM19 17h1v1H19zM12 18h1v1H12zM18 18h1v1H18zM12 19h1v1H12zM13 19h1v1H13zM18 19h1v1H18zM19 19h1v1H19zM12 20h1v1H12zM13 20h1v1H13zM18 20h1v1H18zM19 20h1v1H19z"/><path fill="#91b2ff" d="M6 18h1v1H6zM6 19h1v1H6zM25 19h1v1H25zM6 21h1v1H6zM25 21h1v1H25zM25 22h1v1H25zM7 24h1v1H7zM24 24h1v1H24zM7 25h1v1H7zM8 25h1v1H8zM11 25h1v1H11zM12 25h1v1H12zM14 25h1v1H14zM15 25h1v1H15zM19 25h1v1H19zM20 25h1v1H20zM23 25h1v1H23zM24 25h1v1H24z"/><path fill="#4c80fd" d="M7 21h1v1H7zM24 21h1v1H24z"/><path fill="#3a71f9" d="M6 25h1v1H6zM25 25h1v1H25zM6 26h1v1H6zM7 26h1v1H7zM24 26h1v1H24zM25 26h1v1H25zM6 27h1v1H6zM25 27h1v1H25zM7 29h1v1H7zM24 29h1v1H24z"/><path fill="#a1c7ff" d="M9 25h1v1H9zM16 25h1v1H16zM17 25h1v1H17zM21 25h1v1H21zM22 25h1v1H22z"/><path fill="#f2ffff" d="M10 25h1v1H10z"/><path fill="#1d54d4" d="M8 26h1v1H8zM9 26h1v1H9zM10 26h1v1H10zM11 26h1v1H11zM12 26h1v1H12zM13 26h1v1H13zM14 26h1v1H14zM15 26h1v1H15zM16 26h1v1H16zM17 26h1v1H17zM18 26h1v1H18zM19 26h1v1H19zM20 26h1v1H20zM21 26h1v1H21zM22 26h1v1H22zM23 26h1v1H23z"/></svg>
