<svg xmlns="http://www.w3.org/2000/svg" viewBox="0 0 32 32" shape-rendering="crispEdges"><path fill="#ffffff" d="M15 1h1v1H15zM16 1h1v1H16zM15 2h1v1H15zM16 2h1v1H16zM10 4h1v1H10zM21 4h1v1H21zM14 5h1v1H14zM17 5h1v1H17zM13 6h1v1H13zM14 6h1v1H14zM15 6h1v1H15zM16 6h1v1H16zM17 6h1v1H17zM18 6h1v1H18zM6 7h1v1H6zM7 7h1v1H7zM14 7h1v1H14zM17 7h1v1H17zM24 7h1v1H24zM25 7h1v1H25zM6 8h1v1H6zM7 8h1v1H7zM15 8h1v1H15zM16 8h1v1H16zM24 8h1v1H24zM25 8h1v1H25zM4 13h1v1H4zM5 13h1v1H5zM13 13h1v1H13zM18 13h1v1H18zM26 13h1v1H26zM27 13h1v1H27zM4 14h1v1H4zM5 14h1v1H5zM15 14h1v1H15zM16 14h1v1H16zM26 14h1v1H26zM27 14h1v1H27zM7 15h1v1H7zM24 15h1v1H24zM11 16h1v1H11zM12 16h1v1H12zM15 16h1v1H15zM16 16h1v1H16zM19 16h1v1H19zM20 16h1v1H20zM11 17h1v1H11zM13 17h1v1H13zM18 17h1v1H18zM20 17h1v1H20zM11 18h1v1H11zM20 18h1v1H20zM3 19h1v1H3zM4 19h1v1H4zM10 19h1v1H10zM11 19h1v1H11zM20 19h1v1H20zM21 19h1v1H21zM27 19h1v1H27zM28 19h1v1H28zM3 20h1v1H3zM4 20h1v1H4zM10 20h1v1H10zM11 20h1v1H11zM20 20h1v1H20zM21 20h1v1H21zM27 20h1v1H27zM28 20h1v1H28zM6 21h1v1H6zM11 21h1v1H11zM12 21h1v1H12zM19 21h1v1H19zM20 21h1v1H20zM25 21h1v1H25zM12 22h1v1H12zM13 22h1v1H13zM18 22h1v1H18zM19 22h1v1H19zM15 23h1v1H15zM16 23h1v1H16zM14 24h1v1H14zM17 24h1v1H17zM13 25h1v1H13zM15 25h1v1H15zM18 25h1v1H18zM4 26h1v1H4zM27 26h1v1H27zM6 27h1v1H6zM7 27h1v1H7zM24 27h1v1H24zM25 27h1v1H25zM6 28h1v1H6zM7 28h1v1H7zM24 28h1v1H24zM25 28h1v1H25z"/><path fill="#f61101" d="M14 2h1v1H14zM17 2h1v1H17zM9 3h1v1H9zM10 3h1v1H10zM21 3h1v1H21zM22 3h1v1H22zM5 4h1v1H5zM6 4h1v1H6zM9 4h1v1H9zM22 4h1v1H22zM25 4h1v1H25zM26 4h1v1H26zM15 7h1v1H15zM16 7h1v1H16zM14 8h1v1H14zM17 8h1v1H17zM13 9h1v1H13zM18 9h1v1H18zM2 10h1v1H2zM3 10h1v1H3zM13 10h1v1H13zM18 10h1v1H18zM28 10h1v1H28zM29 10h1v1H29zM2 11h1v1H2zM29 11h1v1H29zM2 16h1v1H2zM3 16h1v1H3zM4 16h1v1H4zM27 16h1v1H27zM28 16h1v1H28zM29 16h1v1H29zM10 21h1v1H10zM14 21h1v1H14zM17 21h1v1H17zM21 21h1v1H21zM1 22h1v1H1zM2 22h1v1H2zM14 22h1v1H14zM17 22h1v1H17zM29 22h1v1H29zM30 22h1v1H30zM9 23h1v1H9zM22 23h1v1H22zM4 28h1v1H4zM27 28h1v1H27z"/><path fill="#bf0101" d="M14 3h1v1H14zM17 3h1v1H17zM11 4h1v1H11zM13 4h1v1H13zM18 4h1v1H18zM20 4h1v1H20zM5 5h1v1H5zM9 5h1v1H9zM22 5h1v1H22zM26 5h1v1H26zM5 6h1v1H5zM26 6h1v1H26zM12 9h1v1H12zM19 9h1v1H19zM13 11h1v1H13zM18 11h1v1H18zM2 12h1v1H2zM11 12h1v1H11zM14 12h1v1H14zM17 12h1v1H17zM20 12h1v1H20zM29 12h1v1H29zM2 13h1v1H2zM29 13h1v1H29zM2 14h1v1H2zM29 14h1v1H29zM3 15h1v1H3zM28 15h1v1H28zM2 17h1v1H2zM29 17h1v1H29zM2 18h1v1H2zM29 18h1v1H29zM11 22h1v1H11zM20 22h1v1H20zM1 23h1v1H1zM12 23h1v1H12zM19 23h1v1H19zM30 23h1v1H30zM1 24h1v1H1zM30 24h1v1H30z"/><path fill="#fed409" d="M15 3h1v1H15zM16 3h1v1H16zM15 4h1v1H15zM16 4h1v1H16zM11 5h1v1H11zM15 5h1v1H15zM16 5h1v1H16zM20 5h1v1H20zM6 6h1v1H6zM12 6h1v1H12zM19 6h1v1H19zM25 6h1v1H25zM13 7h1v1H13zM18 7h1v1H18zM7 9h1v1H7zM8 9h1v1H8zM14 9h1v1H14zM17 9h1v1H17zM23 9h1v1H23zM24 9h1v1H24zM8 10h1v1H8zM11 10h1v1H11zM20 10h1v1H20zM23 10h1v1H23zM3 11h1v1H3zM12 11h1v1H12zM19 11h1v1H19zM28 11h1v1H28zM12 13h1v1H12zM19 13h1v1H19zM12 14h1v1H12zM13 14h1v1H13zM18 14h1v1H18zM19 14h1v1H19zM5 15h1v1H5zM9 15h1v1H9zM22 15h1v1H22zM26 15h1v1H26zM7 16h1v1H7zM8 16h1v1H8zM23 16h1v1H23zM24 16h1v1H24zM7 17h1v1H7zM8 17h1v1H8zM15 17h1v1H15zM16 17h1v1H16zM23 17h1v1H23zM24 17h1v1H24zM10 18h1v1H10zM15 18h1v1H15zM16 18h1v1H16zM21 18h1v1H21zM9 20h1v1H9zM22 20h1v1H22zM7 21h1v1H7zM13 21h1v1H13zM15 21h1v1H15zM16 21h1v1H16zM18 21h1v1H18zM24 21h1v1H24zM3 22h1v1H3zM6 22h1v1H6zM7 22h1v1H7zM24 22h1v1H24zM25 22h1v1H25zM28 22h1v1H28zM4 23h1v1H4zM27 23h1v1H27zM2 24h1v1H2zM5 24h1v1H5zM9 24h1v1H9zM15 24h1v1H15zM16 24h1v1H16zM22 24h1v1H22zM26 24h1v1H26zM29 24h1v1H29zM6 25h1v1H6zM12 25h1v1H12zM14 25h1v1H14zM17 25h1v1H17zM19 25h1v1H19zM25 25h1v1H25zM5 26h1v1H5zM7 26h1v1H7zM12 26h1v1H12zM13 26h1v1H13zM18 26h1v1H18zM19 26h1v1H19zM24 26h1v1H24zM26 26h1v1H26zM4 27h1v1H4zM5 27h1v1H5zM8 27h1v1H8zM14 27h1v1H14zM17 27h1v1H17zM23 27h1v1H23zM26 27h1v1H26zM27 27h1v1H27zM5 28h1v1H5zM26 28h1v1H26zM6 29h1v1H6zM7 29h1v1H7zM24 29h1v1H24zM25 29h1v1H25z"/><path fill="#e93901" d="M14 4h1v1H14zM17 4h1v1H17zM7 5h1v1H7zM10 5h1v1H10zM21 5h1v1H21zM24 5h1v1H24zM7 6h1v1H7zM24 6h1v1H24zM8 7h1v1H8zM11 7h1v1H11zM20 7h1v1H20zM23 7h1v1H23zM5 8h1v1H5zM8 8h1v1H8zM12 8h1v1H12zM19 8h1v1H19zM23 8h1v1H23zM26 8h1v1H26zM5 9h1v1H5zM6 9h1v1H6zM10 9h1v1H10zM21 9h1v1H21zM25 9h1v1H25zM26 9h1v1H26zM6 10h1v1H6zM10 10h1v1H10zM21 10h1v1H21zM25 10h1v1H25zM4 11h1v1H4zM6 11h1v1H6zM8 11h1v1H8zM9 11h1v1H9zM11 11h1v1H11zM20 11h1v1H20zM22 11h1v1H22zM23 11h1v1H23zM25 11h1v1H25zM27 11h1v1H27zM3 12h1v1H3zM8 12h1v1H8zM15 12h1v1H15zM23 12h1v1H23zM28 12h1v1H28zM3 13h1v1H3zM10 13h1v1H10zM21 13h1v1H21zM28 13h1v1H28zM11 14h1v1H11zM20 14h1v1H20zM8 15h1v1H8zM23 15h1v1H23zM5 16h1v1H5zM9 16h1v1H9zM10 16h1v1H10zM21 16h1v1H21zM22 16h1v1H22zM26 16h1v1H26zM5 17h1v1H5zM6 17h1v1H6zM25 17h1v1H25zM26 17h1v1H26zM6 18h1v1H6zM7 18h1v1H7zM24 18h1v1H24zM25 18h1v1H25zM7 19h1v1H7zM12 19h1v1H12zM15 19h1v1H15zM16 19h1v1H16zM19 19h1v1H19zM24 19h1v1H24zM10 22h1v1H10zM21 22h1v1H21zM3 23h1v1H3zM7 23h1v1H7zM10 23h1v1H10zM11 23h1v1H11zM20 23h1v1H20zM21 23h1v1H21zM24 23h1v1H24zM28 23h1v1H28zM3 24h1v1H3zM4 24h1v1H4zM27 24h1v1H27zM28 24h1v1H28zM4 25h1v1H4zM5 25h1v1H5zM8 25h1v1H8zM23 25h1v1H23zM26 25h1v1H26zM27 25h1v1H27zM6 26h1v1H6zM25 26h1v1H25zM13 27h1v1H13zM18 27h1v1H18zM9 28h1v1H9zM11 28h1v1H11zM14 28h1v1H14zM17 28h1v1H17zM20 28h1v1H20zM22 28h1v1H22zM8 29h1v1H8zM15 29h1v1H15zM16 29h1v1H16zM23 29h1v1H23z"/><path fill="#fdf041" d="M6 5h1v1H6zM25 5h1v1H25zM15 22h1v1H15zM16 22h1v1H16zM14 23h1v1H14zM17 23h1v1H17zM13 24h1v1H13zM18 24h1v1H18zM10 25h1v1H10zM21 25h1v1H21z"/><path fill="#aa1808" d="M12 5h1v1H12zM13 5h1v1H13zM18 5h1v1H18zM19 5h1v1H19zM10 6h1v1H10zM21 6h1v1H21zM11 8h1v1H11zM20 8h1v1H20zM9 9h1v1H9zM22 9h1v1H22zM4 10h1v1H4zM27 10h1v1H27zM5 11h1v1H5zM14 11h1v1H14zM17 11h1v1H17zM26 11h1v1H26zM6 12h1v1H6zM7 12h1v1H7zM10 12h1v1H10zM12 12h1v1H12zM16 12h1v1H16zM19 12h1v1H19zM21 12h1v1H21zM24 12h1v1H24zM25 12h1v1H25zM7 13h1v1H7zM8 13h1v1H8zM9 13h1v1H9zM22 13h1v1H22zM23 13h1v1H23zM24 13h1v1H24zM3 14h1v1H3zM8 14h1v1H8zM23 14h1v1H23zM28 14h1v1H28zM4 15h1v1H4zM27 15h1v1H27zM9 17h1v1H9zM22 17h1v1H22zM9 18h1v1H9zM22 18h1v1H22zM2 19h1v1H2zM9 19h1v1H9zM22 19h1v1H22zM29 19h1v1H29zM2 21h1v1H2zM3 21h1v1H3zM4 21h1v1H4zM27 21h1v1H27zM28 21h1v1H28zM29 21h1v1H29zM4 22h1v1H4zM5 22h1v1H5zM26 22h1v1H26zM27 22h1v1H27zM5 23h1v1H5zM6 23h1v1H6zM13 23h1v1H13zM18 23h1v1H18zM25 23h1v1H25zM26 23h1v1H26zM6 24h1v1H6zM7 24h1v1H7zM10 24h1v1H10zM12 24h1v1H12zM19 24h1v1H19zM21 24h1v1H21zM24 24h1v1H24zM25 24h1v1H25zM1 25h1v1H1zM7 25h1v1H7zM11 25h1v1H11zM20 25h1v1H20zM24 25h1v1H24zM30 25h1v1H30zM2 26h1v1H2zM8 26h1v1H8zM11 26h1v1H11zM14 26h1v1H14zM17 26h1v1H17zM20 26h1v1H20zM23 26h1v1H23zM29 26h1v1H29zM3 27h1v1H3zM9 27h1v1H9zM12 27h1v1H12zM15 27h1v1H15zM16 27h1v1H16zM19 27h1v1H19zM22 27h1v1H22zM28 27h1v1H28zM10 28h1v1H10zM13 28h1v1H13zM15 28h1v1H15zM16 28h1v1H16zM18 28h1v1H18zM21 28h1v1H21zM5 29h1v1H5zM9 29h1v1H9zM10 29h1v1H10zM21 29h1v1H21zM22 29h1v1H22zM26 29h1v1H26zM6 30h1v1H6zM7 30h1v1H7zM24 30h1v1H24zM25 30h1v1H25z"/><path fill="#fe7a04" d="M9 6h1v1H9zM11 6h1v1H11zM20 6h1v1H20zM22 6h1v1H22zM5 7h1v1H5zM10 7h1v1H10zM12 7h1v1H12zM19 7h1v1H19zM21 7h1v1H21zM26 7h1v1H26zM13 8h1v1H13zM18 8h1v1H18zM7 10h1v1H7zM9 10h1v1H9zM22 10h1v1H22zM24 10h1v1H24zM7 11h1v1H7zM10 11h1v1H10zM21 11h1v1H21zM24 11h1v1H24zM4 12h1v1H4zM5 12h1v1H5zM9 12h1v1H9zM13 12h1v1H13zM18 12h1v1H18zM22 12h1v1H22zM26 12h1v1H26zM27 12h1v1H27zM6 13h1v1H6zM11 13h1v1H11zM14 13h1v1H14zM15 13h1v1H15zM16 13h1v1H16zM17 13h1v1H17zM20 13h1v1H20zM25 13h1v1H25zM6 14h1v1H6zM7 14h1v1H7zM9 14h1v1H9zM10 14h1v1H10zM14 14h1v1H14zM17 14h1v1H17zM21 14h1v1H21zM22 14h1v1H22zM24 14h1v1H24zM25 14h1v1H25zM6 15h1v1H6zM10 15h1v1H10zM12 15h1v1H12zM15 15h1v1H15zM16 15h1v1H16zM19 15h1v1H19zM21 15h1v1H21zM25 15h1v1H25zM6 16h1v1H6zM25 16h1v1H25zM3 17h1v1H3zM10 17h1v1H10zM21 17h1v1H21zM28 17h1v1H28zM3 18h1v1H3zM4 18h1v1H4zM8 18h1v1H8zM23 18h1v1H23zM27 18h1v1H27zM28 18h1v1H28zM5 19h1v1H5zM8 19h1v1H8zM23 19h1v1H23zM26 19h1v1H26zM2 20h1v1H2zM5 20h1v1H5zM6 20h1v1H6zM8 20h1v1H8zM12 20h1v1H12zM15 20h1v1H15zM16 20h1v1H16zM19 20h1v1H19zM23 20h1v1H23zM25 20h1v1H25zM26 20h1v1H26zM29 20h1v1H29zM5 21h1v1H5zM8 21h1v1H8zM9 21h1v1H9zM22 21h1v1H22zM23 21h1v1H23zM26 21h1v1H26zM8 22h1v1H8zM9 22h1v1H9zM22 22h1v1H22zM23 22h1v1H23zM2 23h1v1H2zM8 23h1v1H8zM23 23h1v1H23zM29 23h1v1H29zM8 24h1v1H8zM11 24h1v1H11zM20 24h1v1H20zM23 24h1v1H23zM2 25h1v1H2zM3 25h1v1H3zM9 25h1v1H9zM22 25h1v1H22zM28 25h1v1H28zM29 25h1v1H29zM3 26h1v1H3zM9 26h1v1H9zM10 26h1v1H10zM21 26h1v1H21zM22 26h1v1H22zM28 26h1v1H28zM10 27h1v1H10zM11 27h1v1H11zM20 27h1v1H20zM21 27h1v1H21zM12 28h1v1H12zM19 28h1v1H19zM8 30h1v1H8zM23 30h1v1H23z"/><path fill="#fefdb3" d="M9 7h1v1H9zM22 7h1v1H22zM10 8h1v1H10zM21 8h1v1H21zM12 10h1v1H12zM19 10h1v1H19z"/><path fill="#f99501" d="M9 8h1v1H9zM22 8h1v1H22zM13 20h1v1H13zM18 20h1v1H18zM8 28h1v1H8zM23 28h1v1H23z"/><path fill="#fcf89e" d="M11 9h1v1H11zM20 9h1v1H20z"/><path fill="#fdfefe" d="M15 9h1v1H15z"/><path fill="#fc6981" d="M16 9h1v1H16zM14 10h1v1H14zM15 10h1v1H15z"/><path fill="#f50243" d="M16 10h1v1H16z"/><path fill="#d10224" d="M17 10h1v1H17zM16 11h1v1H16z"/><path fill="#f80346" d="M15 11h1v1H15z"/><path fill="#bb0012" d="M11 15h1v1H11zM13 15h1v1H13zM14 15h1v1H14zM17 15h1v1H17zM18 15h1v1H18zM20 15h1v1H20zM14 16h1v1H14zM17 16h1v1H17zM4 17h1v1H4zM14 17h1v1H14zM17 17h1v1H17zM27 17h1v1H27zM5 18h1v1H5zM26 18h1v1H26zM6 19h1v1H6zM25 19h1v1H25zM7 20h1v1H7zM24 20h1v1H24z"/><path fill="#000000" d="M13 16h1v1H13zM18 16h1v1H18zM12 17h1v1H12zM19 17h1v1H19zM12 18h1v1H12zM13 18h1v1H13zM18 18h1v1H18zM19 18h1v1H19zM13 19h1v1H13zM18 19h1v1H18z"/><path fill="#620005" d="M14 18h1v1H14zM17 18h1v1H17zM14 19h1v1H14zM17 19h1v1H17zM14 20h1v1H14zM17 20h1v1H17zM11 29h1v1H11zM20 29h1v1H20zM9 30h1v1H9zM22 30h1v1H22z"/><path fill="#fd4501" d="M16 25h1v1H16z"/><path fill="#fd3e00" d="M15 26h1v1H15z"/><path fill="#e40403" d="M16 26h1v1H16z"/><path fill="#430107" d="M12 29h1v1H12zM19 29h1v1H19zM10 30h1v1H10zM21 30h1v1H21z"/></svg>
