<svg xmlns="http://www.w3.org/2000/svg" viewBox="0 0 32 32" shape-rendering="crispEdges"><path fill="#b95703" d="M6 1h1v1H6zM7 1h1v1H7zM24 1h1v1H24zM25 1h1v1H25zM5 2h1v1H5zM6 2h1v1H6zM7 2h1v1H7zM8 2h1v1H8zM23 2h1v1H23zM24 2h1v1H24zM25 2h1v1H25zM26 2h1v1H26zM5 3h1v1H5zM6 3h1v1H6zM7 3h1v1H7zM8 3h1v1H8zM13 3h1v1H13zM14 3h1v1H14zM15 3h1v1H15zM16 3h1v1H16zM17 3h1v1H17zM18 3h1v1H18zM23 3h1v1H23zM24 3h1v1H24zM25 3h1v1H25zM26 3h1v1H26zM6 4h1v1H6zM7 4h1v1H7zM9 4h1v1H9zM10 4h1v1H10zM11 4h1v1H11zM12 4h1v1H12zM13 4h1v1H13zM14 4h1v1H14zM17 4h1v1H17zM18 4h1v1H18zM19 4h1v1H19zM20 4h1v1H20zM21 4h1v1H21zM22 4h1v1H22zM24 4h1v1H24zM25 4h1v1H25zM6 5h1v1H6zM7 5h1v1H7zM8 5h1v1H8zM9 5h1v1H9zM10 5h1v1H10zM11 5h1v1H11zM12 5h1v1H12zM13 5h1v1H13zM18 5h1v1H18zM19 5h1v1H19zM20 5h1v1H20zM21 5h1v1H21zM22 5h1v1H22zM23 5h1v1H23zM24 5h1v1H24zM25 5h1v1H25zM6 6h1v1H6zM7 6h1v1H7zM8 6h1v1H8zM9 6h1v1H9zM22 6h1v1H22zM23 6h1v1H23zM24 6h1v1H24zM25 6h1v1H25zM6 7h1v1H6zM7 7h1v1H7zM24 7h1v1H24zM25 7h1v1H25z"/><path fill="#ffefb5" d="M3 4h1v1H3zM4 4h1v1H4zM15 4h1v1H15zM16 4h1v1H16zM27 4h1v1H27zM28 4h1v1H28zM2 5h1v1H2zM3 5h1v1H3zM4 5h1v1H4zM5 5h1v1H5zM14 5h1v1H14zM15 5h1v1H15zM26 5h1v1H26zM27 5h1v1H27zM28 5h1v1H28zM29 5h1v1H29zM2 6h1v1H2zM3 6h1v1H3zM4 6h1v1H4zM14 6h1v1H14zM15 6h1v1H15zM27 6h1v1H27zM28 6h1v1H28zM29 6h1v1H29z"/><path fill="#ffcc48" d="M16 5h1v1H16zM17 5h1v1H17zM17 6h1v1H17zM4 8h1v1H4zM5 8h1v1H5zM6 8h1v1H6zM25 8h1v1H25zM26 8h1v1H26zM27 8h1v1H27zM4 9h1v1H4zM5 9h1v1H5zM6 9h1v1H6zM7 9h1v1H7zM13 9h1v1H13zM18 9h1v1H18zM24 9h1v1H24zM25 9h1v1H25zM26 9h1v1H26zM27 9h1v1H27zM4 10h1v1H4zM7 10h1v1H7zM8 10h1v1H8zM12 10h1v1H12zM19 10h1v1H19zM23 10h1v1H23zM24 10h1v1H24zM27 10h1v1H27zM7 11h1v1H7zM8 11h1v1H8zM12 11h1v1H12zM19 11h1v1H19zM23 11h1v1H23zM24 11h1v1H24zM12 12h1v1H12zM19 12h1v1H19z"/><path fill="#f0910f" d="M5 6h1v1H5zM16 6h1v1H16zM26 6h1v1H26zM3 7h1v1H3zM4 7h1v1H4zM5 7h1v1H5zM15 7h1v1H15zM16 7h1v1H16zM26 7h1v1H26zM27 7h1v1H27zM28 7h1v1H28z"/><path fill="#e06200" d="M10 6h1v1H10zM11 6h1v1H11zM12 6h1v1H12zM13 6h1v1H13zM18 6h1v1H18zM19 6h1v1H19zM20 6h1v1H20zM21 6h1v1H21zM8 7h1v1H8zM9 7h1v1H9zM10 7h1v1H10zM11 7h1v1H11zM12 7h1v1H12zM13 7h1v1H13zM14 7h1v1H14zM17 7h1v1H17zM18 7h1v1H18zM19 7h1v1H19zM20 7h1v1H20zM21 7h1v1H21zM22 7h1v1H22zM23 7h1v1H23zM7 8h1v1H7zM8 8h1v1H8zM9 8h1v1H9zM10 8h1v1H10zM11 8h1v1H11zM12 8h1v1H12zM13 8h1v1H13zM18 8h1v1H18zM19 8h1v1H19zM20 8h1v1H20zM21 8h1v1H21zM22 8h1v1H22zM23 8h1v1H23zM24 8h1v1H24zM8 9h1v1H8zM9 9h1v1H9zM10 9h1v1H10zM11 9h1v1H11zM12 9h1v1H12zM19 9h1v1H19zM20 9h1v1H20zM21 9h1v1H21zM22 9h1v1H22zM23 9h1v1H23zM9 10h1v1H9zM10 10h1v1H10zM11 10h1v1H11zM20 10h1v1H20zM21 10h1v1H21zM22 10h1v1H22zM6 15h1v1H6zM25 15h1v1H25zM6 24h1v1H6zM25 24h1v1H25z"/><path fill="#fff1b8" d="M14 8h1v1H14zM15 8h1v1H15zM16 8h1v1H16zM17 8h1v1H17zM14 9h1v1H14zM15 9h1v1H15zM16 9h1v1H16zM17 9h1v1H17zM13 10h1v1H13zM14 10h1v1H14zM15 10h1v1H15zM16 10h1v1H16zM17 10h1v1H17zM18 10h1v1H18zM9 11h1v1H9zM10 11h1v1H10zM11 11h1v1H11zM13 11h1v1H13zM18 11h1v1H18zM20 11h1v1H20zM21 11h1v1H21zM22 11h1v1H22zM11 12h1v1H11zM20 12h1v1H20z"/><path fill="#be5cff" d="M5 10h1v1H5zM6 10h1v1H6zM25 10h1v1H25zM26 10h1v1H26zM14 11h1v1H14zM15 11h1v1H15zM16 11h1v1H16zM17 11h1v1H17z"/><path fill="#ffffff" d="M3 11h1v1H3zM4 11h1v1H4zM27 11h1v1H27zM28 11h1v1H28zM3 12h1v1H3zM5 12h1v1H5zM6 12h1v1H6zM7 12h1v1H7zM8 12h1v1H8zM9 12h1v1H9zM10 12h1v1H10zM21 12h1v1H21zM22 12h1v1H22zM23 12h1v1H23zM24 12h1v1H24zM25 12h1v1H25zM26 12h1v1H26zM28 12h1v1H28zM3 13h1v1H3zM6 13h1v1H6zM7 13h1v1H7zM10 13h1v1H10zM11 13h1v1H11zM12 13h1v1H12zM13 13h1v1H13zM18 13h1v1H18zM19 13h1v1H19zM20 13h1v1H20zM21 13h1v1H21zM24 13h1v1H24zM25 13h1v1H25zM28 13h1v1H28zM3 14h1v1H3zM4 14h1v1H4zM5 14h1v1H5zM6 14h1v1H6zM7 14h1v1H7zM10 14h1v1H10zM11 14h1v1H11zM13 14h1v1H13zM14 14h1v1H14zM15 14h1v1H15zM16 14h1v1H16zM17 14h1v1H17zM18 14h1v1H18zM20 14h1v1H20zM21 14h1v1H21zM24 14h1v1H24zM25 14h1v1H25zM26 14h1v1H26zM27 14h1v1H27zM28 14h1v1H28zM7 15h1v1H7zM8 15h1v1H8zM9 15h1v1H9zM10 15h1v1H10zM11 15h1v1H11zM12 15h1v1H12zM13 15h1v1H13zM14 15h1v1H14zM15 15h1v1H15zM16 15h1v1H16zM17 15h1v1H17zM18 15h1v1H18zM19 15h1v1H19zM20 15h1v1H20zM21 15h1v1H21zM22 15h1v1H22zM23 15h1v1H23zM24 15h1v1H24zM23 16h1v1H23zM12 17h1v1H12zM18 17h1v1H18zM11 18h1v1H11zM13 18h1v1H13zM19 18h1v1H19zM20 18h1v1H20zM11 19h1v1H11zM20 19h1v1H20zM11 20h1v1H11zM20 20h1v1H20zM8 24h1v1H8zM8 25h1v1H8zM9 25h1v1H9z"/><path fill="#9629ff" d="M5 11h1v1H5zM26 11h1v1H26zM15 12h1v1H15zM16 12h1v1H16z"/><path fill="#590797" d="M6 11h1v1H6zM25 11h1v1H25zM13 12h1v1H13zM14 12h1v1H14zM17 12h1v1H17zM18 12h1v1H18zM14 13h1v1H14zM15 13h1v1H15zM16 13h1v1H16zM17 13h1v1H17z"/><path fill="#ebc1eb" d="M4 12h1v1H4zM27 12h1v1H27zM4 13h1v1H4zM5 13h1v1H5zM8 13h1v1H8zM9 13h1v1H9zM22 13h1v1H22zM23 13h1v1H23zM26 13h1v1H26zM27 13h1v1H27zM8 14h1v1H8zM9 14h1v1H9zM12 14h1v1H12zM19 14h1v1H19zM22 14h1v1H22zM23 14h1v1H23z"/><path fill="#ffa006" d="M6 16h1v1H6zM9 16h1v1H9zM10 16h1v1H10zM24 16h1v1H24zM25 16h1v1H25zM6 17h1v1H6zM8 17h1v1H8zM9 17h1v1H9zM24 17h1v1H24zM25 17h1v1H25zM6 18h1v1H6zM8 18h1v1H8zM9 18h1v1H9zM23 18h1v1H23zM24 18h1v1H24zM25 18h1v1H25zM6 19h1v1H6zM7 19h1v1H7zM8 19h1v1H8zM23 19h1v1H23zM24 19h1v1H24zM25 19h1v1H25zM6 20h1v1H6zM7 20h1v1H7zM8 20h1v1H8zM22 20h1v1H22zM23 20h1v1H23zM25 20h1v1H25zM6 21h1v1H6zM7 21h1v1H7zM22 21h1v1H22zM23 21h1v1H23zM25 21h1v1H25zM6 22h1v1H6zM7 22h1v1H7zM21 22h1v1H21zM22 22h1v1H22zM25 22h1v1H25zM6 23h1v1H6zM7 23h1v1H7zM21 23h1v1H21zM22 23h1v1H22zM25 23h1v1H25zM7 24h1v1H7zM20 24h1v1H20zM21 24h1v1H21zM24 24h1v1H24zM7 25h1v1H7zM20 25h1v1H20zM21 25h1v1H21zM24 25h1v1H24zM7 26h1v1H7zM8 26h1v1H8zM9 26h1v1H9zM10 26h1v1H10zM11 26h1v1H11zM12 26h1v1H12zM13 26h1v1H13zM14 26h1v1H14zM15 26h1v1H15zM16 26h1v1H16zM17 26h1v1H17zM18 26h1v1H18zM19 26h1v1H19zM20 26h1v1H20zM21 26h1v1H21zM22 26h1v1H22zM23 26h1v1H23zM24 26h1v1H24z"/><path fill="#fee02f" d="M7 16h1v1H7zM11 16h1v1H11zM12 16h1v1H12zM13 16h1v1H13zM14 16h1v1H14zM15 16h1v1H15zM16 16h1v1H16zM17 16h1v1H17zM18 16h1v1H18zM19 16h1v1H19zM20 16h1v1H20zM21 16h1v1H21zM22 16h1v1H22zM7 17h1v1H7zM11 17h1v1H11zM14 17h1v1H14zM15 17h1v1H15zM16 17h1v1H16zM17 17h1v1H17zM20 17h1v1H20zM21 17h1v1H21zM22 17h1v1H22zM23 17h1v1H23zM10 18h1v1H10zM14 18h1v1H14zM15 18h1v1H15zM16 18h1v1H16zM17 18h1v1H17zM21 18h1v1H21zM22 18h1v1H22zM10 19h1v1H10zM14 19h1v1H14zM15 19h1v1H15zM16 19h1v1H16zM17 19h1v1H17zM21 19h1v1H21zM9 20h1v1H9zM10 20h1v1H10zM14 20h1v1H14zM15 20h1v1H15zM16 20h1v1H16zM17 20h1v1H17zM21 20h1v1H21zM9 21h1v1H9zM10 21h1v1H10zM11 21h1v1H11zM12 21h1v1H12zM13 21h1v1H13zM14 21h1v1H14zM15 21h1v1H15zM16 21h1v1H16zM17 21h1v1H17zM18 21h1v1H18zM19 21h1v1H19zM20 21h1v1H20zM24 21h1v1H24zM8 22h1v1H8zM9 22h1v1H9zM10 22h1v1H10zM11 22h1v1H11zM12 22h1v1H12zM13 22h1v1H13zM14 22h1v1H14zM15 22h1v1H15zM16 22h1v1H16zM17 22h1v1H17zM18 22h1v1H18zM19 22h1v1H19zM20 22h1v1H20zM24 22h1v1H24zM8 23h1v1H8zM9 23h1v1H9zM10 23h1v1H10zM11 23h1v1H11zM12 23h1v1H12zM13 23h1v1H13zM14 23h1v1H14zM15 23h1v1H15zM16 23h1v1H16zM17 23h1v1H17zM18 23h1v1H18zM19 23h1v1H19zM23 23h1v1H23zM24 23h1v1H24zM9 24h1v1H9zM10 24h1v1H10zM11 24h1v1H11zM12 24h1v1H12zM13 24h1v1H13zM14 24h1v1H14zM15 24h1v1H15zM16 24h1v1H16zM17 24h1v1H17zM18 24h1v1H18zM19 24h1v1H19zM23 24h1v1H23zM10 25h1v1H10zM11 25h1v1H11zM12 25h1v1H12zM13 25h1v1H13zM14 25h1v1H14zM15 25h1v1H15zM16 25h1v1H16zM17 25h1v1H17zM18 25h1v1H18zM19 25h1v1H19zM22 25h1v1H22zM23 25h1v1H23z"/><path fill="#febc18" d="M8 16h1v1H8zM10 17h1v1H10zM7 18h1v1H7zM9 19h1v1H9zM22 19h1v1H22zM24 20h1v1H24zM8 21h1v1H8zM21 21h1v1H21zM23 22h1v1H23zM20 23h1v1H20zM22 24h1v1H22z"/><path fill="#0e0e14" d="M13 17h1v1H13zM19 17h1v1H19zM12 18h1v1H12zM18 18h1v1H18zM12 19h1v1H12zM13 19h1v1H13zM18 19h1v1H18zM19 19h1v1H19zM12 20h1v1H12zM13 20h1v1H13zM18 20h1v1H18zM19 20h1v1H19z"/><path fill="#e04b00" d="M6 25h1v1H6zM25 25h1v1H25z"/></svg>
