<svg xmlns="http://www.w3.org/2000/svg" viewBox="0 0 32 32" shape-rendering="crispEdges"><path fill="#7e6d90" d="M14 4h1v1H14zM14 5h1v1H14zM13 6h1v1H13z"/><path fill="#98876b" d="M15 4h1v1H15zM16 4h1v1H16zM17 4h1v1H17zM17 5h1v1H17zM18 6h1v1H18z"/><path fill="#7d17eb" d="M7 5h1v1H7zM4 16h1v1H4zM8 16h1v1H8zM7 18h1v1H7zM8 18h1v1H8zM7 19h1v1H7zM8 19h1v1H8zM9 19h1v1H9zM4 20h1v1H4zM7 20h1v1H7zM8 20h1v1H8zM9 20h1v1H9zM7 21h1v1H7zM8 21h1v1H8zM9 21h1v1H9zM8 22h1v1H8zM9 22h1v1H9zM9 25h1v1H9zM2 26h1v1H2zM10 26h1v1H10zM3 27h1v1H3zM4 27h1v1H4zM16 27h1v1H16zM17 28h1v1H17z"/><path fill="#ecb7ff" d="M8 5h1v1H8zM6 7h1v1H6zM6 8h1v1H6zM6 9h1v1H6zM6 11h1v1H6zM7 13h1v1H7zM11 13h1v1H11zM14 24h1v1H14z"/><path fill="#f9e6ff" d="M9 5h1v1H9zM10 5h1v1H10zM11 5h1v1H11zM6 12h1v1H6zM8 13h1v1H8zM12 13h1v1H12z"/><path fill="#ffcde6" d="M12 5h1v1H12zM6 6h1v1H6zM9 13h1v1H9zM13 13h1v1H13zM14 13h1v1H14zM15 13h1v1H15z"/><path fill="#4a426d" d="M13 5h1v1H13zM13 7h1v1H13zM13 8h1v1H13zM14 8h1v1H14zM14 9h1v1H14zM15 9h1v1H15z"/><path fill="#b88cab" d="M15 5h1v1H15zM14 6h1v1H14zM14 7h1v1H14zM15 7h1v1H15z"/><path fill="#a9c18a" d="M16 5h1v1H16zM15 6h1v1H15zM16 6h1v1H16zM17 6h1v1H17zM16 7h1v1H16zM17 7h1v1H17z"/><path fill="#76503d" d="M18 5h1v1H18zM18 7h1v1H18zM15 8h1v1H15zM16 8h1v1H16zM17 8h1v1H17zM18 8h1v1H18zM16 9h1v1H16zM17 9h1v1H17z"/><path fill="#e5ffd7" d="M19 5h1v1H19zM25 6h1v1H25zM16 13h1v1H16zM17 13h1v1H17zM18 13h1v1H18zM22 13h1v1H22z"/><path fill="#fffef0" d="M20 5h1v1H20zM21 5h1v1H21zM22 5h1v1H22zM25 12h1v1H25zM19 13h1v1H19zM23 13h1v1H23z"/><path fill="#fff6bf" d="M23 5h1v1H23zM25 7h1v1H25zM25 8h1v1H25zM25 9h1v1H25zM25 11h1v1H25zM20 13h1v1H20zM24 13h1v1H24zM25 18h1v1H25zM25 19h1v1H25zM25 20h1v1H25zM15 24h1v1H15zM16 24h1v1H16zM17 24h1v1H17z"/><path fill="#ff9f09" d="M24 5h1v1H24zM23 16h1v1H23zM23 18h1v1H23zM24 18h1v1H24zM22 19h1v1H22zM23 19h1v1H23zM24 19h1v1H24zM22 20h1v1H22zM23 20h1v1H23zM24 20h1v1H24zM22 21h1v1H22zM23 21h1v1H23zM24 21h1v1H24zM22 22h1v1H22zM23 22h1v1H23zM21 25h1v1H21zM22 25h1v1H22zM21 26h1v1H21z"/><path fill="#c577ff" d="M7 6h1v1H7zM8 6h1v1H8zM7 7h1v1H7zM6 10h1v1H6zM12 14h1v1H12zM13 14h1v1H13zM4 15h1v1H4zM5 15h1v1H5zM6 15h1v1H6zM7 15h1v1H7zM8 15h1v1H8zM9 16h1v1H9zM10 16h1v1H10zM10 17h1v1H10zM11 17h1v1H11zM14 17h1v1H14zM15 17h1v1H15zM14 18h1v1H14zM3 19h1v1H3zM3 20h1v1H3zM4 21h1v1H4zM13 21h1v1H13zM4 22h1v1H4zM12 22h1v1H12zM13 22h1v1H13zM4 23h1v1H4zM11 23h1v1H11zM12 23h1v1H12zM13 23h1v1H13zM14 23h1v1H14zM5 27h1v1H5zM13 27h1v1H13zM14 27h1v1H14zM15 27h1v1H15zM12 28h1v1H12zM15 29h1v1H15zM16 29h1v1H16z"/><path fill="#b96dff" d="M9 6h1v1H9zM12 6h1v1H12zM7 8h1v1H7zM10 8h1v1H10zM9 10h1v1H9z"/><path fill="#881aff" d="M10 6h1v1H10zM11 6h1v1H11zM8 7h1v1H8zM9 7h1v1H9zM10 7h1v1H10zM8 8h1v1H8zM9 8h1v1H9zM7 9h1v1H7zM8 9h1v1H8zM9 9h1v1H9zM7 10h1v1H7zM8 10h1v1H8zM7 11h1v1H7zM8 11h1v1H8zM7 12h1v1H7zM8 12h1v1H8z"/><path fill="#ffcf75" d="M19 6h1v1H19zM22 6h1v1H22zM21 8h1v1H21zM24 8h1v1H24zM22 10h1v1H22z"/><path fill="#ffa920" d="M20 6h1v1H20zM21 6h1v1H21zM21 7h1v1H21zM22 7h1v1H22zM23 7h1v1H23zM22 8h1v1H22zM23 8h1v1H23zM22 9h1v1H22zM23 9h1v1H23zM24 9h1v1H24zM23 10h1v1H23zM24 10h1v1H24zM23 11h1v1H23zM24 11h1v1H24zM23 12h1v1H23zM24 12h1v1H24z"/><path fill="#ffd97f" d="M23 6h1v1H23zM24 6h1v1H24zM24 7h1v1H24zM25 10h1v1H25zM18 14h1v1H18zM19 14h1v1H19zM22 14h1v1H22zM25 14h1v1H25zM22 15h1v1H22zM23 15h1v1H23zM24 15h1v1H24zM15 16h1v1H15zM16 16h1v1H16zM21 16h1v1H21zM22 16h1v1H22zM16 17h1v1H16zM17 17h1v1H17zM20 17h1v1H20zM21 17h1v1H21zM25 17h1v1H25zM15 18h1v1H15zM16 18h1v1H16zM17 18h1v1H17zM18 21h1v1H18zM25 21h1v1H25zM18 22h1v1H18zM19 22h1v1H19zM17 23h1v1H17zM18 23h1v1H18zM19 23h1v1H19zM20 23h1v1H20zM25 23h1v1H25zM24 24h1v1H24zM24 25h1v1H24zM23 26h1v1H23z"/><path fill="#d296ff" d="M11 7h1v1H11zM11 8h1v1H11zM10 9h1v1H10zM11 9h1v1H11zM12 9h1v1H12zM10 10h1v1H10zM11 10h1v1H11zM12 10h1v1H12zM13 10h1v1H13zM14 10h1v1H14zM9 11h1v1H9zM10 11h1v1H10zM11 11h1v1H11zM12 11h1v1H12zM13 11h1v1H13zM14 11h1v1H14zM15 11h1v1H15zM9 12h1v1H9zM10 12h1v1H10zM11 12h1v1H11zM12 12h1v1H12zM13 12h1v1H13zM14 12h1v1H14zM10 13h1v1H10z"/><path fill="#67528c" d="M12 7h1v1H12z"/><path fill="#98714b" d="M19 7h1v1H19z"/><path fill="#ffe39e" d="M20 7h1v1H20zM20 8h1v1H20zM19 9h1v1H19zM20 9h1v1H20zM21 9h1v1H21zM15 10h1v1H15zM16 10h1v1H16zM17 10h1v1H17zM18 10h1v1H18zM19 10h1v1H19zM20 10h1v1H20zM21 10h1v1H21zM16 11h1v1H16zM17 11h1v1H17zM18 11h1v1H18zM19 11h1v1H19zM20 11h1v1H20zM21 11h1v1H21zM22 11h1v1H22zM15 12h1v1H15zM16 12h1v1H16zM17 12h1v1H17zM18 12h1v1H18zM19 12h1v1H19zM20 12h1v1H20zM21 12h1v1H21zM22 12h1v1H22zM21 13h1v1H21z"/><path fill="#8d69b6" d="M12 8h1v1H12zM13 9h1v1H13z"/><path fill="#c39c62" d="M19 8h1v1H19zM18 9h1v1H18z"/><path fill="#570da6" d="M6 13h1v1H6zM6 25h1v1H6z"/><path fill="#b67100" d="M25 13h1v1H25zM25 25h1v1H25z"/><path fill="#582ba0" d="M4 14h1v1H4zM5 14h1v1H5zM6 14h1v1H6zM7 14h1v1H7zM8 14h1v1H8zM3 15h1v1H3zM9 15h1v1H9zM2 16h1v1H2zM5 16h1v1H5zM6 16h1v1H6zM11 16h1v1H11zM2 17h1v1H2zM4 17h1v1H4zM7 17h1v1H7zM8 17h1v1H8zM2 18h1v1H2zM4 18h1v1H4zM9 18h1v1H9zM10 18h1v1H10zM2 19h1v1H2zM4 19h1v1H4zM14 19h1v1H14zM15 19h1v1H15zM2 20h1v1H2zM5 20h1v1H5zM2 21h1v1H2zM3 21h1v1H3zM5 21h1v1H5zM3 22h1v1H3zM5 22h1v1H5zM6 22h1v1H6zM3 23h1v1H3zM5 23h1v1H5zM7 23h1v1H7zM8 23h1v1H8zM2 24h1v1H2zM3 24h1v1H3zM5 24h1v1H5zM9 24h1v1H9zM10 24h1v1H10zM11 24h1v1H11zM12 24h1v1H12zM13 24h1v1H13zM1 25h1v1H1zM5 25h1v1H5zM1 26h1v1H1zM3 26h1v1H3zM4 26h1v1H4zM5 26h1v1H5zM12 26h1v1H12zM13 26h1v1H13zM14 26h1v1H14zM15 26h1v1H15zM16 26h1v1H16zM17 26h1v1H17zM2 27h1v1H2zM6 27h1v1H6zM7 27h1v1H7zM8 27h1v1H8zM9 27h1v1H9zM10 27h1v1H10zM11 27h1v1H11zM12 27h1v1H12zM17 27h1v1H17zM18 27h1v1H18zM3 28h1v1H3zM4 28h1v1H4zM5 28h1v1H5zM13 28h1v1H13zM14 28h1v1H14zM15 28h1v1H15zM16 28h1v1H16zM18 28h1v1H18zM6 29h1v1H6zM7 29h1v1H7zM8 29h1v1H8zM9 29h1v1H9zM10 29h1v1H10zM11 29h1v1H11zM12 29h1v1H12zM13 29h1v1H13zM14 29h1v1H14zM17 29h1v1H17zM18 29h1v1H18zM14 30h1v1H14zM15 30h1v1H15zM16 30h1v1H16zM17 30h1v1H17z"/><path fill="#ec93ff" d="M9 14h1v1H9zM10 14h1v1H10zM11 14h1v1H11zM14 14h1v1H14zM10 15h1v1H10zM11 15h1v1H11zM12 15h1v1H12zM13 15h1v1H13zM14 15h1v1H14zM15 15h1v1H15zM12 16h1v1H12zM13 16h1v1H13zM14 16h1v1H14zM10 19h1v1H10zM10 20h1v1H10zM14 20h1v1H14zM10 21h1v1H10zM11 21h1v1H11zM12 21h1v1H12zM14 21h1v1H14zM15 21h1v1H15zM10 22h1v1H10zM11 22h1v1H11zM14 22h1v1H14zM15 23h1v1H15zM2 25h1v1H2zM8 28h1v1H8zM9 28h1v1H9zM10 28h1v1H10zM11 28h1v1H11z"/><path fill="#fffb9b" d="M15 14h1v1H15zM16 14h1v1H16zM17 14h1v1H17zM20 14h1v1H20zM21 14h1v1H21zM16 15h1v1H16zM17 15h1v1H17zM18 15h1v1H18zM19 15h1v1H19zM20 15h1v1H20zM21 15h1v1H21zM17 16h1v1H17zM18 16h1v1H18zM19 16h1v1H19zM20 16h1v1H20zM21 19h1v1H21zM15 20h1v1H15zM16 20h1v1H16zM17 20h1v1H17zM21 20h1v1H21zM16 21h1v1H16zM17 21h1v1H17zM19 21h1v1H19zM20 21h1v1H20zM21 21h1v1H21zM15 22h1v1H15zM16 22h1v1H16zM17 22h1v1H17zM20 22h1v1H20zM21 22h1v1H21zM16 23h1v1H16z"/><path fill="#ffd462" d="M23 14h1v1H23zM24 16h1v1H24zM22 17h1v1H22zM24 22h1v1H24zM21 23h1v1H21zM22 23h1v1H22zM16 25h1v1H16zM17 25h1v1H17zM18 25h1v1H18zM19 25h1v1H19zM20 25h1v1H20zM18 26h1v1H18zM19 26h1v1H19zM20 26h1v1H20z"/><path fill="#e58c00" d="M24 14h1v1H24zM25 15h1v1H25zM25 24h1v1H25z"/><path fill="#bc5cff" d="M3 16h1v1H3zM7 16h1v1H7zM3 17h1v1H3zM9 17h1v1H9zM3 18h1v1H3zM7 22h1v1H7zM9 23h1v1H9zM10 23h1v1H10zM4 24h1v1H4zM3 25h1v1H3zM4 25h1v1H4zM10 25h1v1H10zM11 25h1v1H11zM12 25h1v1H12zM13 25h1v1H13zM14 25h1v1H14zM15 25h1v1H15zM11 26h1v1H11zM6 28h1v1H6zM7 28h1v1H7z"/><path fill="#b56a1a" d="M25 16h1v1H25zM23 17h1v1H23zM24 17h1v1H24zM21 18h1v1H21zM22 18h1v1H22zM16 19h1v1H16zM17 19h1v1H17zM25 22h1v1H25zM23 23h1v1H23zM24 23h1v1H24zM18 24h1v1H18zM19 24h1v1H19zM20 24h1v1H20zM21 24h1v1H21zM22 24h1v1H22z"/><path fill="#2f63dc" d="M6 17h1v1H6zM6 21h1v1H6zM6 23h1v1H6zM7 24h1v1H7zM7 25h1v1H7zM8 26h1v1H8z"/><path fill="#ffffff" d="M12 17h1v1H12zM18 17h1v1H18zM11 18h1v1H11zM13 18h1v1H13zM19 18h1v1H19zM20 18h1v1H20zM11 19h1v1H11zM20 19h1v1H20zM11 20h1v1H11zM20 20h1v1H20z"/><path fill="#0e0e14" d="M13 17h1v1H13zM19 17h1v1H19zM12 18h1v1H12zM18 18h1v1H18zM12 19h1v1H12zM13 19h1v1H13zM18 19h1v1H18zM19 19h1v1H19zM12 20h1v1H12zM13 20h1v1H13zM18 20h1v1H18zM19 20h1v1H19z"/><path fill="#516efc" d="M6 18h1v1H6zM6 19h1v1H6zM6 20h1v1H6z"/><path fill="#6c13ce" d="M6 24h1v1H6z"/><path fill="#7c5ac3" d="M8 24h1v1H8zM8 25h1v1H8zM7 26h1v1H7zM9 26h1v1H9z"/><path fill="#d48c4f" d="M23 24h1v1H23zM23 25h1v1H23zM22 26h1v1H22zM24 26h1v1H24z"/></svg>
