<svg xmlns="http://www.w3.org/2000/svg" viewBox="0 0 32 32" shape-rendering="crispEdges"><path fill="#7f021c" d="M15 1h1v1H15zM16 1h1v1H16zM11 4h1v1H11zM13 4h1v1H13zM18 4h1v1H18zM20 4h1v1H20zM8 5h1v1H8zM12 5h1v1H12zM19 5h1v1H19zM23 5h1v1H23zM9 6h1v1H9zM22 6h1v1H22zM5 10h1v1H5zM26 10h1v1H26zM14 12h1v1H14zM17 12h1v1H17zM9 14h1v1H9zM22 14h1v1H22zM8 18h1v1H8zM23 18h1v1H23zM15 19h1v1H15zM16 19h1v1H16zM9 23h1v1H9zM22 23h1v1H22zM8 29h1v1H8zM23 29h1v1H23z"/><path fill="#fd7770" d="M2 2h1v1H2zM6 2h1v1H6zM25 2h1v1H25zM29 2h1v1H29zM3 4h1v1H3zM28 4h1v1H28zM4 6h1v1H4zM27 6h1v1H27zM4 24h1v1H4zM6 24h1v1H6zM25 24h1v1H25zM27 24h1v1H27zM3 25h1v1H3zM4 25h1v1H4zM6 25h1v1H6zM7 25h1v1H7zM24 25h1v1H24zM25 25h1v1H25zM27 25h1v1H27zM28 25h1v1H28zM6 26h1v1H6zM25 26h1v1H25zM4 28h1v1H4zM5 28h1v1H5zM8 28h1v1H8zM23 28h1v1H23zM26 28h1v1H26zM27 28h1v1H27z"/><path fill="#e7463c" d="M5 2h1v1H5zM26 2h1v1H26zM2 3h1v1H2zM14 3h1v1H14zM17 3h1v1H17zM29 3h1v1H29zM4 4h1v1H4zM14 4h1v1H14zM17 4h1v1H17zM27 4h1v1H27zM3 5h1v1H3zM6 5h1v1H6zM15 5h1v1H15zM16 5h1v1H16zM25 5h1v1H25zM28 5h1v1H28zM6 6h1v1H6zM25 6h1v1H25zM4 7h1v1H4zM5 7h1v1H5zM26 7h1v1H26zM27 7h1v1H27zM5 8h1v1H5zM26 8h1v1H26zM7 9h1v1H7zM12 9h1v1H12zM19 9h1v1H19zM24 9h1v1H24zM7 11h1v1H7zM10 11h1v1H10zM21 11h1v1H21zM24 11h1v1H24zM9 12h1v1H9zM22 12h1v1H22zM12 13h1v1H12zM19 13h1v1H19zM2 15h1v1H2zM29 15h1v1H29zM3 16h1v1H3zM28 16h1v1H28zM4 17h1v1H4zM27 17h1v1H27zM5 18h1v1H5zM6 18h1v1H6zM25 18h1v1H25zM26 18h1v1H26zM6 19h1v1H6zM25 19h1v1H25zM9 22h1v1H9zM22 22h1v1H22zM3 26h1v1H3zM4 26h1v1H4zM9 26h1v1H9zM22 26h1v1H22zM27 26h1v1H27zM28 26h1v1H28zM5 27h1v1H5zM18 27h1v1H18zM26 27h1v1H26zM6 28h1v1H6zM25 28h1v1H25zM6 29h1v1H6zM25 29h1v1H25z"/><path fill="#d53733" d="M10 2h1v1H10zM21 2h1v1H21zM9 3h1v1H9zM22 3h1v1H22zM8 4h1v1H8zM23 4h1v1H23zM15 9h1v1H15zM16 9h1v1H16zM8 10h1v1H8zM23 10h1v1H23zM7 12h1v1H7zM24 12h1v1H24zM14 13h1v1H14zM17 13h1v1H17zM10 14h1v1H10zM11 14h1v1H11zM20 14h1v1H20zM21 14h1v1H21zM7 18h1v1H7zM24 18h1v1H24zM7 19h1v1H7zM24 19h1v1H24zM15 20h1v1H15zM16 20h1v1H16zM7 22h1v1H7zM24 22h1v1H24zM10 27h1v1H10zM21 27h1v1H21zM7 30h1v1H7zM24 30h1v1H24z"/><path fill="#9c021a" d="M14 2h1v1H14zM17 2h1v1H17zM5 3h1v1H5zM26 3h1v1H26zM2 4h1v1H2zM29 4h1v1H29zM11 5h1v1H11zM20 5h1v1H20zM3 6h1v1H3zM5 6h1v1H5zM26 6h1v1H26zM28 6h1v1H28zM10 7h1v1H10zM21 7h1v1H21zM10 13h1v1H10zM11 13h1v1H11zM20 13h1v1H20zM21 13h1v1H21zM8 21h1v1H8zM23 21h1v1H23zM4 27h1v1H4zM7 27h1v1H7zM24 27h1v1H24zM27 27h1v1H27zM7 28h1v1H7zM24 28h1v1H24zM5 29h1v1H5zM26 29h1v1H26z"/><path fill="#ffffff" d="M15 2h1v1H15zM16 2h1v1H16zM10 3h1v1H10zM15 3h1v1H15zM16 3h1v1H16zM21 3h1v1H21zM10 5h1v1H10zM21 5h1v1H21zM11 6h1v1H11zM15 6h1v1H15zM16 6h1v1H16zM20 6h1v1H20zM8 7h1v1H8zM12 7h1v1H12zM15 7h1v1H15zM16 7h1v1H16zM19 7h1v1H19zM23 7h1v1H23zM9 8h1v1H9zM22 8h1v1H22zM10 9h1v1H10zM14 9h1v1H14zM17 9h1v1H17zM21 9h1v1H21zM10 10h1v1H10zM13 10h1v1H13zM18 10h1v1H18zM21 10h1v1H21zM9 11h1v1H9zM11 11h1v1H11zM12 11h1v1H12zM15 11h1v1H15zM19 11h1v1H19zM20 11h1v1H20zM22 11h1v1H22zM8 12h1v1H8zM12 12h1v1H12zM19 12h1v1H19zM23 12h1v1H23zM7 13h1v1H7zM24 13h1v1H24zM7 14h1v1H7zM24 14h1v1H24zM7 15h1v1H7zM24 15h1v1H24zM7 16h1v1H7zM24 16h1v1H24zM5 17h1v1H5zM26 17h1v1H26zM4 19h1v1H4zM27 19h1v1H27zM4 20h1v1H4zM5 20h1v1H5zM26 20h1v1H26zM27 20h1v1H27zM4 21h1v1H4zM5 21h1v1H5zM26 21h1v1H26zM27 21h1v1H27zM7 23h1v1H7zM14 23h1v1H14zM15 23h1v1H15zM24 23h1v1H24zM3 24h1v1H3zM8 24h1v1H8zM9 24h1v1H9zM13 24h1v1H13zM14 24h1v1H14zM22 24h1v1H22zM23 24h1v1H23zM28 24h1v1H28zM10 25h1v1H10zM13 25h1v1H13zM14 25h1v1H14zM18 25h1v1H18zM21 25h1v1H21zM11 26h1v1H11zM13 26h1v1H13zM14 26h1v1H14zM15 26h1v1H15zM17 26h1v1H17zM20 26h1v1H20zM8 27h1v1H8zM12 27h1v1H12zM14 27h1v1H14zM15 27h1v1H15zM16 27h1v1H16zM19 27h1v1H19zM23 27h1v1H23zM10 28h1v1H10zM12 28h1v1H12zM19 28h1v1H19zM21 28h1v1H21z"/><path fill="#f25b6a" d="M4 3h1v1H4zM27 3h1v1H27zM15 4h1v1H15zM16 4h1v1H16zM4 5h1v1H4zM13 5h1v1H13zM18 5h1v1H18zM27 5h1v1H27zM14 7h1v1H14zM17 7h1v1H17zM11 8h1v1H11zM20 8h1v1H20zM5 9h1v1H5zM8 9h1v1H8zM23 9h1v1H23zM26 9h1v1H26zM6 10h1v1H6zM25 10h1v1H25zM10 12h1v1H10zM11 12h1v1H11zM20 12h1v1H20zM21 12h1v1H21zM8 13h1v1H8zM23 13h1v1H23zM2 14h1v1H2zM3 14h1v1H3zM13 14h1v1H13zM18 14h1v1H18zM28 14h1v1H28zM29 14h1v1H29zM9 15h1v1H9zM14 15h1v1H14zM17 15h1v1H17zM22 15h1v1H22zM5 16h1v1H5zM26 16h1v1H26zM6 17h1v1H6zM25 17h1v1H25zM15 21h1v1H15zM16 21h1v1H16zM10 23h1v1H10zM21 23h1v1H21zM11 24h1v1H11zM20 24h1v1H20zM8 25h1v1H8zM23 25h1v1H23zM5 26h1v1H5zM7 26h1v1H7zM24 26h1v1H24zM26 26h1v1H26zM6 27h1v1H6zM25 27h1v1H25zM7 29h1v1H7zM24 29h1v1H24zM6 30h1v1H6zM25 30h1v1H25z"/><path fill="#55041b" d="M13 3h1v1H13zM18 3h1v1H18zM12 4h1v1H12zM19 4h1v1H19zM12 6h1v1H12zM19 6h1v1H19zM13 7h1v1H13zM18 7h1v1H18zM13 8h1v1H13zM18 8h1v1H18zM4 9h1v1H4zM27 9h1v1H27zM6 11h1v1H6zM14 11h1v1H14zM17 11h1v1H17zM25 11h1v1H25zM9 13h1v1H9zM22 13h1v1H22zM8 14h1v1H8zM12 14h1v1H12zM19 14h1v1H19zM23 14h1v1H23zM4 15h1v1H4zM8 15h1v1H8zM13 15h1v1H13zM18 15h1v1H18zM23 15h1v1H23zM27 15h1v1H27zM8 16h1v1H8zM23 16h1v1H23zM8 17h1v1H8zM23 17h1v1H23zM15 18h1v1H15zM16 18h1v1H16zM8 22h1v1H8zM23 22h1v1H23zM8 23h1v1H8zM23 23h1v1H23zM10 24h1v1H10zM21 24h1v1H21z"/><path fill="#fd9d8d" d="M9 4h1v1H9zM22 4h1v1H22zM9 5h1v1H9zM22 5h1v1H22zM7 8h1v1H7zM12 8h1v1H12zM19 8h1v1H19zM24 8h1v1H24zM14 10h1v1H14zM17 10h1v1H17zM13 11h1v1H13zM18 11h1v1H18zM13 12h1v1H13zM18 12h1v1H18zM4 16h1v1H4zM27 16h1v1H27z"/><path fill="#fd907b" d="M10 4h1v1H10zM21 4h1v1H21zM13 6h1v1H13zM18 6h1v1H18zM6 7h1v1H6zM25 7h1v1H25zM6 8h1v1H6zM25 8h1v1H25zM7 10h1v1H7zM24 10h1v1H24z"/><path fill="#9f0e22" d="M14 5h1v1H14zM17 5h1v1H17zM7 7h1v1H7zM24 7h1v1H24zM15 15h1v1H15zM16 15h1v1H16zM15 17h1v1H15zM16 17h1v1H16z"/><path fill="#00202f" d="M7 6h1v1H7zM8 6h1v1H8zM23 6h1v1H23zM24 6h1v1H24zM9 7h1v1H9zM22 7h1v1H22zM8 8h1v1H8zM10 8h1v1H10zM21 8h1v1H21zM23 8h1v1H23zM11 9h1v1H11zM13 9h1v1H13zM18 9h1v1H18zM20 9h1v1H20zM12 10h1v1H12zM19 10h1v1H19zM2 12h1v1H2zM29 12h1v1H29zM3 13h1v1H3zM28 13h1v1H28zM5 19h1v1H5zM26 19h1v1H26zM2 21h1v1H2zM29 21h1v1H29zM2 22h1v1H2zM14 22h1v1H14zM15 22h1v1H15zM16 22h1v1H16zM17 22h1v1H17zM29 22h1v1H29zM3 23h1v1H3zM13 23h1v1H13zM18 23h1v1H18zM28 23h1v1H28zM12 24h1v1H12zM19 24h1v1H19zM11 25h1v1H11zM12 25h1v1H12zM19 25h1v1H19zM20 25h1v1H20z"/><path fill="#fdc6ad" d="M10 6h1v1H10zM21 6h1v1H21zM11 7h1v1H11zM20 7h1v1H20zM15 8h1v1H15zM16 8h1v1H16zM15 10h1v1H15zM16 10h1v1H16zM13 13h1v1H13zM18 13h1v1H18zM14 14h1v1H14zM15 14h1v1H15zM16 14h1v1H16zM17 14h1v1H17zM3 15h1v1H3zM28 15h1v1H28zM9 25h1v1H9zM22 25h1v1H22zM10 26h1v1H10zM21 26h1v1H21z"/><path fill="#fd625c" d="M14 6h1v1H14zM17 6h1v1H17zM15 16h1v1H15zM16 16h1v1H16zM5 30h1v1H5zM26 30h1v1H26z"/><path fill="#97051c" d="M4 8h1v1H4zM27 8h1v1H27zM2 16h1v1H2zM29 16h1v1H29zM3 17h1v1H3zM28 17h1v1H28zM8 19h1v1H8zM23 19h1v1H23zM8 20h1v1H8zM23 20h1v1H23z"/><path fill="#01414a" d="M14 8h1v1H14zM17 8h1v1H17zM9 10h1v1H9zM22 10h1v1H22zM4 18h1v1H4zM27 18h1v1H27zM6 22h1v1H6zM25 22h1v1H25zM4 23h1v1H4zM5 23h1v1H5zM6 23h1v1H6zM17 23h1v1H17zM25 23h1v1H25zM26 23h1v1H26zM27 23h1v1H27zM12 26h1v1H12zM19 26h1v1H19zM2 27h1v1H2zM29 27h1v1H29zM10 30h1v1H10zM21 30h1v1H21z"/><path fill="#0fb6b3" d="M2 9h1v1H2zM3 9h1v1H3zM28 9h1v1H28zM29 9h1v1H29zM11 10h1v1H11zM20 10h1v1H20zM6 12h1v1H6zM16 12h1v1H16zM25 12h1v1H25zM15 13h1v1H15zM5 14h1v1H5zM26 14h1v1H26zM6 15h1v1H6zM25 15h1v1H25zM2 18h1v1H2zM3 18h1v1H3zM10 18h1v1H10zM21 18h1v1H21zM28 18h1v1H28zM29 18h1v1H29zM3 21h1v1H3zM6 21h1v1H6zM25 21h1v1H25zM28 21h1v1H28zM5 22h1v1H5zM26 22h1v1H26zM16 23h1v1H16zM18 24h1v1H18zM11 28h1v1H11zM20 28h1v1H20zM10 29h1v1H10zM21 29h1v1H21z"/><path fill="#e6f2dd" d="M6 9h1v1H6zM25 9h1v1H25zM4 11h1v1H4zM27 11h1v1H27zM4 12h1v1H4zM5 12h1v1H5zM15 12h1v1H15zM26 12h1v1H26zM27 12h1v1H27zM4 13h1v1H4zM5 13h1v1H5zM26 13h1v1H26zM27 13h1v1H27z"/><path fill="#00434b" d="M9 9h1v1H9zM22 9h1v1H22zM2 11h1v1H2zM29 11h1v1H29zM2 20h1v1H2zM7 20h1v1H7zM24 20h1v1H24zM29 20h1v1H29zM7 21h1v1H7zM24 21h1v1H24zM2 25h1v1H2zM29 25h1v1H29zM2 26h1v1H2zM29 26h1v1H29zM15 30h1v1H15zM16 30h1v1H16z"/><path fill="#156869" d="M2 10h1v1H2zM29 10h1v1H29zM5 11h1v1H5zM26 11h1v1H26zM3 12h1v1H3zM28 12h1v1H28zM16 13h1v1H16zM5 15h1v1H5zM26 15h1v1H26zM6 16h1v1H6zM25 16h1v1H25zM10 17h1v1H10zM21 17h1v1H21zM2 19h1v1H2zM12 19h1v1H12zM19 19h1v1H19zM29 19h1v1H29zM3 22h1v1H3zM4 22h1v1H4zM27 22h1v1H27zM28 22h1v1H28zM7 24h1v1H7zM16 24h1v1H16zM17 24h1v1H17zM24 24h1v1H24zM17 25h1v1H17zM3 27h1v1H3zM9 27h1v1H9zM22 27h1v1H22zM28 27h1v1H28zM17 28h1v1H17zM11 29h1v1H11zM14 29h1v1H14zM17 29h1v1H17zM20 29h1v1H20z"/><path fill="#75e8d2" d="M3 10h1v1H3zM28 10h1v1H28zM3 11h1v1H3zM16 11h1v1H16zM28 11h1v1H28zM6 13h1v1H6zM25 13h1v1H25zM6 14h1v1H6zM25 14h1v1H25zM3 19h1v1H3zM28 19h1v1H28zM3 20h1v1H3zM28 20h1v1H28zM13 21h1v1H13zM18 21h1v1H18zM5 24h1v1H5zM26 24h1v1H26zM11 27h1v1H11zM20 27h1v1H20zM12 29h1v1H12zM19 29h1v1H19z"/><path fill="#012534" d="M4 10h1v1H4zM27 10h1v1H27zM8 11h1v1H8zM23 11h1v1H23zM4 14h1v1H4zM27 14h1v1H27zM10 16h1v1H10zM21 16h1v1H21zM7 17h1v1H7zM24 17h1v1H24zM6 20h1v1H6zM13 20h1v1H13zM18 20h1v1H18zM25 20h1v1H25zM15 24h1v1H15zM5 25h1v1H5zM15 25h1v1H15zM16 25h1v1H16zM26 25h1v1H26zM8 26h1v1H8zM16 26h1v1H16zM23 26h1v1H23zM3 28h1v1H3zM9 28h1v1H9zM13 28h1v1H13zM18 28h1v1H18zM22 28h1v1H22zM28 28h1v1H28zM4 29h1v1H4zM9 29h1v1H9zM13 29h1v1H13zM15 29h1v1H15zM16 29h1v1H16zM18 29h1v1H18zM22 29h1v1H22zM27 29h1v1H27zM11 30h1v1H11zM12 30h1v1H12zM14 30h1v1H14zM17 30h1v1H17zM19 30h1v1H19zM20 30h1v1H20z"/><path fill="#1d041a" d="M10 15h1v1H10zM11 15h1v1H11zM12 15h1v1H12zM19 15h1v1H19zM20 15h1v1H20zM21 15h1v1H21zM9 16h1v1H9zM14 16h1v1H14zM17 16h1v1H17zM22 16h1v1H22zM9 17h1v1H9zM14 17h1v1H14zM17 17h1v1H17zM22 17h1v1H22zM9 18h1v1H9zM14 18h1v1H14zM17 18h1v1H17zM22 18h1v1H22zM9 19h1v1H9zM14 19h1v1H14zM17 19h1v1H17zM22 19h1v1H22zM9 20h1v1H9zM14 20h1v1H14zM17 20h1v1H17zM22 20h1v1H22zM9 21h1v1H9zM10 21h1v1H10zM14 21h1v1H14zM17 21h1v1H17zM21 21h1v1H21zM22 21h1v1H22zM10 22h1v1H10zM11 22h1v1H11zM20 22h1v1H20zM21 22h1v1H21zM11 23h1v1H11zM12 23h1v1H12zM19 23h1v1H19zM20 23h1v1H20z"/><path fill="#fafafa" d="M11 16h1v1H11zM12 16h1v1H12zM19 16h1v1H19zM20 16h1v1H20zM11 17h1v1H11zM13 17h1v1H13zM18 17h1v1H18zM20 17h1v1H20zM11 18h1v1H11zM20 18h1v1H20zM10 19h1v1H10zM11 19h1v1H11zM20 19h1v1H20zM21 19h1v1H21zM10 20h1v1H10zM11 20h1v1H11zM20 20h1v1H20zM21 20h1v1H21zM11 21h1v1H11zM12 21h1v1H12zM19 21h1v1H19zM20 21h1v1H20zM12 22h1v1H12zM13 22h1v1H13zM18 22h1v1H18zM19 22h1v1H19z"/><path fill="#000004" d="M13 16h1v1H13zM18 16h1v1H18zM12 17h1v1H12zM19 17h1v1H19zM12 18h1v1H12zM13 18h1v1H13zM18 18h1v1H18zM19 18h1v1H19zM13 19h1v1H13zM18 19h1v1H18z"/><path fill="#1b9b9c" d="M12 20h1v1H12zM19 20h1v1H19z"/><path fill="#fde0c7" d="M18 26h1v1H18zM13 27h1v1H13zM17 27h1v1H17zM14 28h1v1H14zM15 28h1v1H15zM16 28h1v1H16z"/></svg>
