<svg xmlns="http://www.w3.org/2000/svg" viewBox="0 0 32 32" shape-rendering="crispEdges"><path fill="#c12f4d" d="M19 1h1v1H19zM20 1h1v1H20zM21 1h1v1H21zM22 1h1v1H22zM17 2h1v1H17zM18 2h1v1H18zM21 2h1v1H21zM22 2h1v1H22zM23 2h1v1H23zM24 2h1v1H24zM16 3h1v1H16zM20 3h1v1H20zM21 3h1v1H21zM23 3h1v1H23zM9 4h1v1H9zM10 4h1v1H10zM11 4h1v1H11zM12 4h1v1H12zM13 4h1v1H13zM14 4h1v1H14zM15 4h1v1H15zM19 4h1v1H19zM20 4h1v1H20zM22 4h1v1H22zM14 5h1v1H14zM19 5h1v1H19zM13 6h1v1H13zM18 6h1v1H18zM10 7h1v1H10zM11 7h1v1H11zM12 7h1v1H12zM17 7h1v1H17zM22 7h1v1H22zM6 8h1v1H6zM11 8h1v1H11zM16 8h1v1H16zM25 8h1v1H25zM5 9h1v1H5zM6 9h1v1H6zM25 9h1v1H25zM26 9h1v1H26zM5 10h1v1H5zM7 10h1v1H7zM11 10h1v1H11zM24 10h1v1H24zM26 10h1v1H26zM7 11h1v1H7zM8 11h1v1H8zM9 11h1v1H9zM16 11h1v1H16zM22 11h1v1H22zM23 11h1v1H23zM24 11h1v1H24zM3 12h1v1H3zM15 12h1v1H15zM16 12h1v1H16zM28 12h1v1H28zM2 13h1v1H2zM11 13h1v1H11zM12 13h1v1H12zM16 13h1v1H16zM19 13h1v1H19zM20 13h1v1H20zM21 13h1v1H21zM29 13h1v1H29zM2 14h1v1H2zM8 14h1v1H8zM23 14h1v1H23zM29 14h1v1H29zM2 15h1v1H2zM4 15h1v1H4zM8 15h1v1H8zM23 15h1v1H23zM27 15h1v1H27zM29 15h1v1H29zM4 16h1v1H4zM8 16h1v1H8zM23 16h1v1H23zM27 16h1v1H27zM3 17h1v1H3zM8 17h1v1H8zM23 17h1v1H23zM28 17h1v1H28zM4 18h1v1H4zM8 18h1v1H8zM23 18h1v1H23zM27 18h1v1H27zM4 19h1v1H4zM6 19h1v1H6zM8 19h1v1H8zM23 19h1v1H23zM25 19h1v1H25zM27 19h1v1H27zM4 20h1v1H4zM27 20h1v1H27zM3 21h1v1H3zM4 21h1v1H4zM7 21h1v1H7zM24 21h1v1H24zM27 21h1v1H27zM28 21h1v1H28zM4 22h1v1H4zM7 22h1v1H7zM24 22h1v1H24zM27 22h1v1H27zM4 23h1v1H4zM7 23h1v1H7zM10 23h1v1H10zM11 23h1v1H11zM20 23h1v1H20zM21 23h1v1H21zM22 23h1v1H22zM24 23h1v1H24zM27 23h1v1H27zM4 24h1v1H4zM12 24h1v1H12zM13 24h1v1H13zM18 24h1v1H18zM19 24h1v1H19zM27 24h1v1H27zM16 26h1v1H16zM15 27h1v1H15zM16 27h1v1H16zM6 28h1v1H6zM10 28h1v1H10zM15 28h1v1H15zM16 28h1v1H16zM22 28h1v1H22zM25 28h1v1H25zM4 29h1v1H4zM6 29h1v1H6zM9 29h1v1H9zM21 29h1v1H21zM25 29h1v1H25zM27 29h1v1H27zM4 30h1v1H4zM27 30h1v1H27z"/><path fill="#950726" d="M23 1h1v1H23zM24 1h1v1H24zM25 2h1v1H25zM11 3h1v1H11zM12 3h1v1H12zM13 3h1v1H13zM14 3h1v1H14zM24 3h1v1H24zM8 5h1v1H8zM9 5h1v1H9zM10 5h1v1H10zM11 5h1v1H11zM22 5h1v1H22zM23 5h1v1H23zM9 6h1v1H9zM10 6h1v1H10zM9 7h1v1H9zM20 7h1v1H20zM9 8h1v1H9zM10 8h1v1H10zM22 8h1v1H22zM4 9h1v1H4zM8 9h1v1H8zM10 9h1v1H10zM23 9h1v1H23zM27 9h1v1H27zM6 10h1v1H6zM8 10h1v1H8zM20 10h1v1H20zM21 10h1v1H21zM23 10h1v1H23zM25 10h1v1H25zM4 11h1v1H4zM5 11h1v1H5zM6 11h1v1H6zM10 11h1v1H10zM21 11h1v1H21zM25 11h1v1H25zM26 11h1v1H26zM27 11h1v1H27zM5 12h1v1H5zM6 12h1v1H6zM7 12h1v1H7zM8 12h1v1H8zM9 12h1v1H9zM10 12h1v1H10zM21 12h1v1H21zM22 12h1v1H22zM23 12h1v1H23zM24 12h1v1H24zM25 12h1v1H25zM26 12h1v1H26zM10 13h1v1H10zM5 14h1v1H5zM26 14h1v1H26zM5 15h1v1H5zM6 15h1v1H6zM25 15h1v1H25zM26 15h1v1H26zM2 16h1v1H2zM3 16h1v1H3zM5 16h1v1H5zM6 16h1v1H6zM25 16h1v1H25zM26 16h1v1H26zM28 16h1v1H28zM29 16h1v1H29zM2 17h1v1H2zM6 17h1v1H6zM25 17h1v1H25zM29 17h1v1H29zM2 18h1v1H2zM3 18h1v1H3zM6 18h1v1H6zM25 18h1v1H25zM28 18h1v1H28zM29 18h1v1H29zM1 19h1v1H1zM10 19h1v1H10zM21 19h1v1H21zM30 19h1v1H30zM1 20h1v1H1zM8 20h1v1H8zM23 20h1v1H23zM30 20h1v1H30zM1 21h1v1H1zM2 21h1v1H2zM13 21h1v1H13zM18 21h1v1H18zM29 21h1v1H29zM30 21h1v1H30zM1 22h1v1H1zM2 22h1v1H2zM8 22h1v1H8zM9 22h1v1H9zM22 22h1v1H22zM23 22h1v1H23zM29 22h1v1H29zM30 22h1v1H30zM2 24h1v1H2zM7 24h1v1H7zM8 24h1v1H8zM9 24h1v1H9zM14 24h1v1H14zM17 24h1v1H17zM22 24h1v1H22zM23 24h1v1H23zM24 24h1v1H24zM29 24h1v1H29zM1 25h1v1H1zM7 25h1v1H7zM9 25h1v1H9zM11 25h1v1H11zM20 25h1v1H20zM22 25h1v1H22zM24 25h1v1H24zM30 25h1v1H30zM1 26h1v1H1zM7 26h1v1H7zM24 26h1v1H24zM30 26h1v1H30zM0 27h1v1H0zM1 27h1v1H1zM7 27h1v1H7zM24 27h1v1H24zM30 27h1v1H30zM31 27h1v1H31zM1 28h1v1H1zM2 28h1v1H2zM3 28h1v1H3zM14 28h1v1H14zM28 28h1v1H28zM29 28h1v1H29zM30 28h1v1H30zM1 29h1v1H1zM2 29h1v1H2zM7 29h1v1H7zM10 29h1v1H10zM22 29h1v1H22zM24 29h1v1H24zM29 29h1v1H29zM30 29h1v1H30zM5 30h1v1H5zM6 30h1v1H6zM25 30h1v1H25zM26 30h1v1H26z"/><path fill="#f08da0" d="M19 2h1v1H19zM22 3h1v1H22zM21 4h1v1H21zM17 5h1v1H17zM18 5h1v1H18zM20 5h1v1H20zM21 5h1v1H21zM15 6h1v1H15zM17 6h1v1H17zM19 6h1v1H19zM18 7h1v1H18zM17 8h1v1H17zM19 8h1v1H19zM7 9h1v1H7zM24 9h1v1H24zM13 10h1v1H13zM15 11h1v1H15zM14 13h1v1H14zM17 13h1v1H17zM3 14h1v1H3zM15 14h1v1H15zM16 14h1v1H16zM28 14h1v1H28zM3 15h1v1H3zM28 15h1v1H28zM4 17h1v1H4zM27 17h1v1H27zM5 18h1v1H5zM10 18h1v1H10zM21 18h1v1H21zM26 18h1v1H26zM2 19h1v1H2zM3 19h1v1H3zM5 19h1v1H5zM26 19h1v1H26zM28 19h1v1H28zM29 19h1v1H29zM2 20h1v1H2zM3 20h1v1H3zM5 20h1v1H5zM6 20h1v1H6zM25 20h1v1H25zM26 20h1v1H26zM28 20h1v1H28zM29 20h1v1H29zM5 21h1v1H5zM26 21h1v1H26zM5 22h1v1H5zM26 22h1v1H26zM6 24h1v1H6zM25 24h1v1H25zM6 25h1v1H6zM16 25h1v1H16zM25 25h1v1H25zM6 26h1v1H6zM15 26h1v1H15zM25 26h1v1H25zM4 27h1v1H4zM5 27h1v1H5zM6 27h1v1H6zM17 27h1v1H17zM25 27h1v1H25zM26 27h1v1H26zM27 27h1v1H27zM4 28h1v1H4zM21 28h1v1H21zM27 28h1v1H27zM5 29h1v1H5zM26 29h1v1H26z"/><path fill="#efb9b9" d="M20 2h1v1H20zM18 3h1v1H18zM17 4h1v1H17zM16 5h1v1H16zM16 6h1v1H16zM20 6h1v1H20zM16 7h1v1H16zM19 7h1v1H19zM18 8h1v1H18zM14 9h1v1H14zM17 9h1v1H17zM18 9h1v1H18zM11 11h1v1H11zM4 12h1v1H4zM27 12h1v1H27zM3 13h1v1H3zM5 13h1v1H5zM26 13h1v1H26zM28 13h1v1H28zM4 14h1v1H4zM27 14h1v1H27zM6 21h1v1H6zM25 21h1v1H25zM6 22h1v1H6zM25 22h1v1H25zM5 23h1v1H5zM6 23h1v1H6zM25 23h1v1H25zM26 23h1v1H26zM14 25h1v1H14zM15 25h1v1H15zM17 25h1v1H17zM3 26h1v1H3zM5 26h1v1H5zM26 26h1v1H26zM28 26h1v1H28zM2 27h1v1H2zM29 27h1v1H29zM9 28h1v1H9zM11 28h1v1H11zM20 28h1v1H20z"/><path fill="#550313" d="M10 3h1v1H10zM15 3h1v1H15zM12 5h1v1H12zM13 5h1v1H13zM8 6h1v1H8zM21 6h1v1H21zM22 6h1v1H22zM23 6h1v1H23zM7 7h1v1H7zM21 7h1v1H21zM24 7h1v1H24zM5 8h1v1H5zM8 8h1v1H8zM20 8h1v1H20zM21 8h1v1H21zM23 8h1v1H23zM26 8h1v1H26zM9 9h1v1H9zM21 9h1v1H21zM22 9h1v1H22zM4 10h1v1H4zM10 10h1v1H10zM16 10h1v1H16zM18 10h1v1H18zM19 10h1v1H19zM22 10h1v1H22zM27 10h1v1H27zM17 11h1v1H17zM19 11h1v1H19zM20 11h1v1H20zM14 12h1v1H14zM17 12h1v1H17zM8 13h1v1H8zM9 13h1v1H9zM13 13h1v1H13zM15 13h1v1H15zM18 13h1v1H18zM22 13h1v1H22zM23 13h1v1H23zM6 14h1v1H6zM25 14h1v1H25zM5 17h1v1H5zM26 17h1v1H26zM10 20h1v1H10zM21 20h1v1H21zM8 21h1v1H8zM23 21h1v1H23zM3 22h1v1H3zM28 22h1v1H28zM2 23h1v1H2zM29 23h1v1H29zM3 24h1v1H3zM28 24h1v1H28zM2 25h1v1H2zM8 25h1v1H8zM13 25h1v1H13zM18 25h1v1H18zM23 25h1v1H23zM29 25h1v1H29zM2 26h1v1H2zM8 26h1v1H8zM9 26h1v1H9zM12 26h1v1H12zM19 26h1v1H19zM22 26h1v1H22zM23 26h1v1H23zM29 26h1v1H29zM12 27h1v1H12zM19 27h1v1H19zM0 28h1v1H0zM12 28h1v1H12zM13 28h1v1H13zM18 28h1v1H18zM19 28h1v1H19zM31 28h1v1H31zM12 29h1v1H12zM19 29h1v1H19zM7 30h1v1H7zM8 30h1v1H8zM9 30h1v1H9zM10 30h1v1H10zM11 30h1v1H11zM20 30h1v1H20zM21 30h1v1H21zM22 30h1v1H22zM23 30h1v1H23zM24 30h1v1H24z"/><path fill="#3f030e" d="M17 3h1v1H17zM8 4h1v1H8zM16 4h1v1H16zM23 4h1v1H23zM7 5h1v1H7zM15 5h1v1H15zM24 5h1v1H24zM7 6h1v1H7zM11 6h1v1H11zM12 6h1v1H12zM14 6h1v1H14zM24 6h1v1H24zM6 7h1v1H6zM8 7h1v1H8zM13 7h1v1H13zM23 7h1v1H23zM25 7h1v1H25zM4 8h1v1H4zM12 8h1v1H12zM13 8h1v1H13zM27 8h1v1H27zM11 9h1v1H11zM12 9h1v1H12zM19 9h1v1H19zM20 9h1v1H20zM9 10h1v1H9zM11 12h1v1H11zM12 12h1v1H12zM19 12h1v1H19zM20 12h1v1H20zM6 13h1v1H6zM7 13h1v1H7zM24 13h1v1H24zM25 13h1v1H25zM7 14h1v1H7zM9 14h1v1H9zM14 14h1v1H14zM17 14h1v1H17zM22 14h1v1H22zM24 14h1v1H24zM7 15h1v1H7zM15 15h1v1H15zM16 15h1v1H16zM24 15h1v1H24zM7 16h1v1H7zM24 16h1v1H24zM7 17h1v1H7zM24 17h1v1H24zM7 18h1v1H7zM24 18h1v1H24zM7 19h1v1H7zM24 19h1v1H24zM7 20h1v1H7zM24 20h1v1H24zM10 22h1v1H10zM21 22h1v1H21zM3 23h1v1H3zM9 23h1v1H9zM12 23h1v1H12zM13 23h1v1H13zM14 23h1v1H14zM15 23h1v1H15zM16 23h1v1H16zM17 23h1v1H17zM18 23h1v1H18zM19 23h1v1H19zM28 23h1v1H28zM10 24h1v1H10zM11 24h1v1H11zM20 24h1v1H20zM21 24h1v1H21zM3 25h1v1H3zM10 25h1v1H10zM12 25h1v1H12zM19 25h1v1H19zM21 25h1v1H21zM28 25h1v1H28zM10 26h1v1H10zM11 26h1v1H11zM20 26h1v1H20zM21 26h1v1H21zM8 27h1v1H8zM11 27h1v1H11zM13 27h1v1H13zM18 27h1v1H18zM20 27h1v1H20zM23 27h1v1H23zM7 28h1v1H7zM17 28h1v1H17zM24 28h1v1H24zM13 29h1v1H13zM14 29h1v1H14zM15 29h1v1H15zM16 29h1v1H16zM17 29h1v1H17zM18 29h1v1H18zM12 30h1v1H12z"/><path fill="#f9e4e1" d="M19 3h1v1H19zM18 4h1v1H18zM14 7h1v1H14zM15 7h1v1H15zM7 8h1v1H7zM14 8h1v1H14zM24 8h1v1H24zM13 9h1v1H13zM12 10h1v1H12zM4 13h1v1H4zM27 13h1v1H27zM5 24h1v1H5zM15 24h1v1H15zM16 24h1v1H16zM26 24h1v1H26zM4 25h1v1H4zM5 25h1v1H5zM26 25h1v1H26zM27 25h1v1H27zM4 26h1v1H4zM27 26h1v1H27zM3 27h1v1H3zM28 27h1v1H28zM5 28h1v1H5zM26 28h1v1H26z"/><path fill="#c89176" d="M15 8h1v1H15zM15 9h1v1H15zM16 9h1v1H16zM14 10h1v1H14zM15 10h1v1H15zM17 10h1v1H17zM12 11h1v1H12zM13 11h1v1H13zM14 11h1v1H14zM18 11h1v1H18zM13 12h1v1H13zM18 12h1v1H18zM8 23h1v1H8zM23 23h1v1H23zM13 26h1v1H13zM14 26h1v1H14zM17 26h1v1H17zM18 26h1v1H18zM9 27h1v1H9zM10 27h1v1H10zM14 27h1v1H14zM21 27h1v1H21zM22 27h1v1H22zM8 28h1v1H8zM23 28h1v1H23zM8 29h1v1H8zM11 29h1v1H11zM20 29h1v1H20zM23 29h1v1H23z"/><path fill="#000000" d="M10 14h1v1H10zM11 14h1v1H11zM12 14h1v1H12zM13 14h1v1H13zM18 14h1v1H18zM19 14h1v1H19zM20 14h1v1H20zM21 14h1v1H21zM9 15h1v1H9zM10 15h1v1H10zM11 15h1v1H11zM12 15h1v1H12zM13 15h1v1H13zM14 15h1v1H14zM17 15h1v1H17zM18 15h1v1H18zM19 15h1v1H19zM20 15h1v1H20zM21 15h1v1H21zM22 15h1v1H22zM9 16h1v1H9zM10 16h1v1H10zM11 16h1v1H11zM12 16h1v1H12zM13 16h1v1H13zM14 16h1v1H14zM15 16h1v1H15zM16 16h1v1H16zM17 16h1v1H17zM18 16h1v1H18zM19 16h1v1H19zM20 16h1v1H20zM21 16h1v1H21zM22 16h1v1H22zM9 17h1v1H9zM10 17h1v1H10zM13 17h1v1H13zM14 17h1v1H14zM15 17h1v1H15zM16 17h1v1H16zM17 17h1v1H17zM18 17h1v1H18zM21 17h1v1H21zM22 17h1v1H22zM9 18h1v1H9zM14 18h1v1H14zM15 18h1v1H15zM16 18h1v1H16zM17 18h1v1H17zM22 18h1v1H22zM9 19h1v1H9zM13 19h1v1H13zM14 19h1v1H14zM15 19h1v1H15zM16 19h1v1H16zM17 19h1v1H17zM18 19h1v1H18zM22 19h1v1H22zM9 20h1v1H9zM13 20h1v1H13zM14 20h1v1H14zM15 20h1v1H15zM16 20h1v1H16zM17 20h1v1H17zM18 20h1v1H18zM22 20h1v1H22zM9 21h1v1H9zM10 21h1v1H10zM14 21h1v1H14zM15 21h1v1H15zM16 21h1v1H16zM17 21h1v1H17zM21 21h1v1H21zM22 21h1v1H22zM11 22h1v1H11zM14 22h1v1H14zM15 22h1v1H15zM16 22h1v1H16zM17 22h1v1H17zM20 22h1v1H20z"/><path fill="#ffffff" d="M11 17h1v1H11zM12 17h1v1H12zM19 17h1v1H19zM20 17h1v1H20zM11 18h1v1H11zM12 18h1v1H12zM13 18h1v1H13zM18 18h1v1H18zM19 18h1v1H19zM20 18h1v1H20zM11 19h1v1H11zM12 19h1v1H12zM19 19h1v1H19zM20 19h1v1H20zM11 20h1v1H11zM12 20h1v1H12zM19 20h1v1H19zM20 20h1v1H20zM11 21h1v1H11zM12 21h1v1H12zM19 21h1v1H19zM20 21h1v1H20zM12 22h1v1H12zM13 22h1v1H13zM18 22h1v1H18zM19 22h1v1H19z"/></svg>
