<svg xmlns="http://www.w3.org/2000/svg" viewBox="0 0 32 32" shape-rendering="crispEdges"><path fill="#2c4f4e" d="M12 0h1v1H12zM19 0h1v1H19zM12 1h1v1H12zM19 1h1v1H19zM9 2h1v1H9zM12 2h1v1H12zM19 2h1v1H19zM22 2h1v1H22zM9 3h1v1H9zM22 3h1v1H22zM9 4h1v1H9zM10 4h1v1H10zM11 4h1v1H11zM12 4h1v1H12zM19 4h1v1H19zM20 4h1v1H20zM21 4h1v1H21zM22 4h1v1H22zM8 5h1v1H8zM10 5h1v1H10zM11 5h1v1H11zM20 5h1v1H20zM21 5h1v1H21zM23 5h1v1H23zM7 6h1v1H7zM8 6h1v1H8zM10 6h1v1H10zM14 6h1v1H14zM21 6h1v1H21zM23 6h1v1H23zM24 6h1v1H24zM5 7h1v1H5zM6 7h1v1H6zM7 7h1v1H7zM14 7h1v1H14zM17 7h1v1H17zM24 7h1v1H24zM25 7h1v1H25zM26 7h1v1H26zM4 8h1v1H4zM5 8h1v1H5zM6 8h1v1H6zM17 8h1v1H17zM25 8h1v1H25zM26 8h1v1H26zM27 8h1v1H27zM4 9h1v1H4zM5 9h1v1H5zM6 9h1v1H6zM9 9h1v1H9zM22 9h1v1H22zM25 9h1v1H25zM26 9h1v1H26zM27 9h1v1H27zM3 10h1v1H3zM4 10h1v1H4zM9 10h1v1H9zM12 10h1v1H12zM13 10h1v1H13zM15 10h1v1H15zM16 10h1v1H16zM18 10h1v1H18zM19 10h1v1H19zM22 10h1v1H22zM27 10h1v1H27zM28 10h1v1H28zM3 11h1v1H3zM4 11h1v1H4zM5 11h1v1H5zM26 11h1v1H26zM27 11h1v1H27zM28 11h1v1H28zM7 12h1v1H7zM24 12h1v1H24zM3 13h1v1H3zM4 13h1v1H4zM5 13h1v1H5zM6 13h1v1H6zM7 13h1v1H7zM8 13h1v1H8zM23 13h1v1H23zM24 13h1v1H24zM25 13h1v1H25zM26 13h1v1H26zM27 13h1v1H27zM28 13h1v1H28zM3 14h1v1H3zM4 14h1v1H4zM5 14h1v1H5zM6 14h1v1H6zM25 14h1v1H25zM26 14h1v1H26zM27 14h1v1H27zM28 14h1v1H28zM1 15h1v1H1zM3 15h1v1H3zM4 15h1v1H4zM27 15h1v1H27zM28 15h1v1H28zM30 15h1v1H30zM7 16h1v1H7zM24 16h1v1H24zM5 17h1v1H5zM7 17h1v1H7zM24 17h1v1H24zM26 17h1v1H26zM10 19h1v1H10zM21 19h1v1H21zM13 21h1v1H13zM18 21h1v1H18zM8 23h1v1H8zM23 23h1v1H23zM7 24h1v1H7zM8 24h1v1H8zM9 24h1v1H9zM22 24h1v1H22zM23 24h1v1H23zM24 24h1v1H24zM8 25h1v1H8zM9 25h1v1H9zM22 25h1v1H22zM23 25h1v1H23zM3 30h1v1H3zM4 30h1v1H4zM6 30h1v1H6zM25 30h1v1H25zM27 30h1v1H27zM28 30h1v1H28z"/><path fill="#518480" d="M13 0h1v1H13zM14 0h1v1H14zM15 0h1v1H15zM16 0h1v1H16zM17 0h1v1H17zM18 0h1v1H18zM10 1h1v1H10zM11 1h1v1H11zM13 1h1v1H13zM14 1h1v1H14zM15 1h1v1H15zM16 1h1v1H16zM17 1h1v1H17zM18 1h1v1H18zM20 1h1v1H20zM21 1h1v1H21zM8 2h1v1H8zM10 2h1v1H10zM11 2h1v1H11zM13 2h1v1H13zM14 2h1v1H14zM15 2h1v1H15zM16 2h1v1H16zM17 2h1v1H17zM18 2h1v1H18zM20 2h1v1H20zM21 2h1v1H21zM23 2h1v1H23zM7 3h1v1H7zM8 3h1v1H8zM10 3h1v1H10zM11 3h1v1H11zM20 3h1v1H20zM21 3h1v1H21zM23 3h1v1H23zM24 3h1v1H24zM6 4h1v1H6zM7 4h1v1H7zM8 4h1v1H8zM23 4h1v1H23zM24 4h1v1H24zM25 4h1v1H25zM5 5h1v1H5zM6 5h1v1H6zM7 5h1v1H7zM24 5h1v1H24zM25 5h1v1H25zM26 5h1v1H26zM5 6h1v1H5zM6 6h1v1H6zM25 6h1v1H25zM26 6h1v1H26zM8 11h1v1H8zM23 11h1v1H23zM10 18h1v1H10zM21 18h1v1H21z"/><path fill="#1c352f" d="M12 3h1v1H12zM19 3h1v1H19zM8 7h1v1H8zM12 7h1v1H12zM19 7h1v1H19zM23 7h1v1H23zM7 8h1v1H7zM8 8h1v1H8zM12 8h1v1H12zM19 8h1v1H19zM23 8h1v1H23zM24 8h1v1H24zM12 9h1v1H12zM19 9h1v1H19zM8 14h1v1H8zM23 14h1v1H23zM7 18h1v1H7zM24 18h1v1H24zM9 23h1v1H9zM22 23h1v1H22zM10 24h1v1H10zM11 24h1v1H11zM12 24h1v1H12zM15 24h1v1H15zM16 24h1v1H16zM19 24h1v1H19zM20 24h1v1H20zM21 24h1v1H21zM10 27h1v1H10zM21 27h1v1H21z"/><path fill="#223f40" d="M13 3h1v1H13zM14 3h1v1H14zM15 3h1v1H15zM16 3h1v1H16zM17 3h1v1H17zM18 3h1v1H18zM13 4h1v1H13zM14 4h1v1H14zM15 4h1v1H15zM16 4h1v1H16zM17 4h1v1H17zM18 4h1v1H18zM4 6h1v1H4zM27 6h1v1H27zM4 7h1v1H4zM27 7h1v1H27zM14 10h1v1H14zM17 10h1v1H17zM3 12h1v1H3zM4 12h1v1H4zM5 12h1v1H5zM26 12h1v1H26zM27 12h1v1H27zM28 12h1v1H28zM3 16h1v1H3zM4 16h1v1H4zM27 16h1v1H27zM28 16h1v1H28zM10 20h1v1H10zM21 20h1v1H21zM10 26h1v1H10zM21 26h1v1H21z"/><path fill="#182e2c" d="M9 5h1v1H9zM22 5h1v1H22zM17 6h1v1H17zM14 8h1v1H14zM7 9h1v1H7zM24 9h1v1H24zM8 16h1v1H8zM23 16h1v1H23zM4 17h1v1H4zM8 17h1v1H8zM23 17h1v1H23zM27 17h1v1H27zM8 18h1v1H8zM23 18h1v1H23zM8 19h1v1H8zM23 19h1v1H23zM8 20h1v1H8zM23 20h1v1H23zM8 21h1v1H8zM23 21h1v1H23zM8 22h1v1H8zM23 22h1v1H23z"/><path fill="#132321" d="M12 5h1v1H12zM14 5h1v1H14zM17 5h1v1H17zM19 5h1v1H19zM11 6h1v1H11zM12 6h1v1H12zM19 6h1v1H19zM20 6h1v1H20zM11 7h1v1H11zM20 7h1v1H20zM11 8h1v1H11zM20 8h1v1H20zM11 9h1v1H11zM14 9h1v1H14zM17 9h1v1H17zM20 9h1v1H20zM11 10h1v1H11zM20 10h1v1H20zM1 18h1v1H1zM30 18h1v1H30zM1 19h1v1H1zM30 19h1v1H30zM13 24h1v1H13zM14 24h1v1H14zM17 24h1v1H17zM18 24h1v1H18zM1 27h1v1H1zM7 27h1v1H7zM24 27h1v1H24zM30 27h1v1H30z"/><path fill="#000000" d="M13 5h1v1H13zM15 5h1v1H15zM16 5h1v1H16zM18 5h1v1H18zM13 6h1v1H13zM15 6h1v1H15zM16 6h1v1H16zM18 6h1v1H18zM13 7h1v1H13zM15 7h1v1H15zM16 7h1v1H16zM18 7h1v1H18zM13 8h1v1H13zM15 8h1v1H15zM16 8h1v1H16zM18 8h1v1H18zM13 9h1v1H13zM15 9h1v1H15zM16 9h1v1H16zM18 9h1v1H18zM9 13h1v1H9zM10 13h1v1H10zM11 13h1v1H11zM12 13h1v1H12zM13 13h1v1H13zM15 13h1v1H15zM17 13h1v1H17zM18 13h1v1H18zM20 13h1v1H20zM21 13h1v1H21zM10 14h1v1H10zM11 14h1v1H11zM12 14h1v1H12zM13 14h1v1H13zM15 14h1v1H15zM17 14h1v1H17zM18 14h1v1H18zM19 14h1v1H19zM20 14h1v1H20zM21 14h1v1H21zM9 15h1v1H9zM10 15h1v1H10zM11 15h1v1H11zM12 15h1v1H12zM13 15h1v1H13zM14 15h1v1H14zM15 15h1v1H15zM17 15h1v1H17zM18 15h1v1H18zM19 15h1v1H19zM20 15h1v1H20zM21 15h1v1H21zM22 15h1v1H22zM9 16h1v1H9zM10 16h1v1H10zM11 16h1v1H11zM12 16h1v1H12zM13 16h1v1H13zM14 16h1v1H14zM15 16h1v1H15zM16 16h1v1H16zM17 16h1v1H17zM18 16h1v1H18zM19 16h1v1H19zM20 16h1v1H20zM21 16h1v1H21zM22 16h1v1H22zM9 17h1v1H9zM10 17h1v1H10zM13 17h1v1H13zM14 17h1v1H14zM15 17h1v1H15zM16 17h1v1H16zM17 17h1v1H17zM18 17h1v1H18zM21 17h1v1H21zM22 17h1v1H22zM9 18h1v1H9zM14 18h1v1H14zM15 18h1v1H15zM16 18h1v1H16zM17 18h1v1H17zM22 18h1v1H22zM9 19h1v1H9zM14 19h1v1H14zM15 19h1v1H15zM16 19h1v1H16zM17 19h1v1H17zM22 19h1v1H22zM9 20h1v1H9zM14 20h1v1H14zM15 20h1v1H15zM16 20h1v1H16zM17 20h1v1H17zM22 20h1v1H22zM9 21h1v1H9zM10 21h1v1H10zM14 21h1v1H14zM15 21h1v1H15zM16 21h1v1H16zM17 21h1v1H17zM21 21h1v1H21zM22 21h1v1H22zM9 22h1v1H9zM10 22h1v1H10zM11 22h1v1H11zM14 22h1v1H14zM15 22h1v1H15zM16 22h1v1H16zM17 22h1v1H17zM20 22h1v1H20zM21 22h1v1H21zM22 22h1v1H22zM10 23h1v1H10zM11 23h1v1H11zM12 23h1v1H12zM13 23h1v1H13zM14 23h1v1H14zM15 23h1v1H15zM16 23h1v1H16zM17 23h1v1H17zM18 23h1v1H18zM19 23h1v1H19zM20 23h1v1H20zM21 23h1v1H21zM13 26h1v1H13zM15 26h1v1H15zM16 26h1v1H16zM18 26h1v1H18zM13 27h1v1H13zM15 27h1v1H15zM16 27h1v1H16zM18 27h1v1H18z"/><path fill="#0e1e1f" d="M9 6h1v1H9zM22 6h1v1H22zM9 7h1v1H9zM10 7h1v1H10zM21 7h1v1H21zM22 7h1v1H22zM9 8h1v1H9zM10 8h1v1H10zM21 8h1v1H21zM22 8h1v1H22zM10 9h1v1H10zM21 9h1v1H21zM10 10h1v1H10zM21 10h1v1H21zM2 15h1v1H2zM29 15h1v1H29zM1 16h1v1H1zM2 16h1v1H2zM29 16h1v1H29zM30 16h1v1H30zM6 18h1v1H6zM25 18h1v1H25zM7 19h1v1H7zM24 19h1v1H24zM7 20h1v1H7zM24 20h1v1H24zM7 21h1v1H7zM24 21h1v1H24zM24 22h1v1H24zM7 23h1v1H7zM24 23h1v1H24zM7 25h1v1H7zM12 25h1v1H12zM19 25h1v1H19zM24 25h1v1H24zM11 26h1v1H11zM20 26h1v1H20zM7 28h1v1H7zM10 28h1v1H10zM21 28h1v1H21zM24 28h1v1H24zM7 29h1v1H7zM8 29h1v1H8zM10 29h1v1H10zM21 29h1v1H21zM23 29h1v1H23zM24 29h1v1H24z"/><path fill="#203727" d="M3 9h1v1H3zM28 9h1v1H28zM2 10h1v1H2zM29 10h1v1H29zM2 11h1v1H2zM29 11h1v1H29zM2 12h1v1H2zM29 12h1v1H29zM2 13h1v1H2zM29 13h1v1H29zM2 14h1v1H2zM29 14h1v1H29zM1 20h1v1H1zM30 20h1v1H30zM7 26h1v1H7zM8 26h1v1H8zM9 26h1v1H9zM22 26h1v1H22zM23 26h1v1H23zM24 26h1v1H24zM14 27h1v1H14zM17 27h1v1H17zM2 28h1v1H2zM29 28h1v1H29zM1 29h1v1H1zM2 29h1v1H2zM4 29h1v1H4zM5 29h1v1H5zM6 29h1v1H6zM9 29h1v1H9zM22 29h1v1H22zM25 29h1v1H25zM26 29h1v1H26zM27 29h1v1H27zM29 29h1v1H29zM30 29h1v1H30z"/><path fill="#102120" d="M8 9h1v1H8zM23 9h1v1H23zM7 22h1v1H7zM14 26h1v1H14zM17 26h1v1H17zM9 27h1v1H9zM22 27h1v1H22z"/><path fill="#4a6c3b" d="M5 10h1v1H5zM26 10h1v1H26zM6 11h1v1H6zM25 11h1v1H25zM13 12h1v1H13zM17 12h1v1H17zM20 12h1v1H20zM14 14h1v1H14zM16 15h1v1H16zM2 17h1v1H2zM3 17h1v1H3zM28 17h1v1H28zM29 17h1v1H29zM4 18h1v1H4zM5 18h1v1H5zM26 18h1v1H26zM27 18h1v1H27zM6 19h1v1H6zM25 19h1v1H25zM8 28h1v1H8zM9 28h1v1H9zM22 28h1v1H22zM23 28h1v1H23zM12 29h1v1H12zM19 29h1v1H19zM11 30h1v1H11zM20 30h1v1H20z"/><path fill="#779439" d="M6 10h1v1H6zM7 10h1v1H7zM24 10h1v1H24zM25 10h1v1H25zM2 20h1v1H2zM3 20h1v1H3zM4 20h1v1H4zM27 20h1v1H27zM28 20h1v1H28zM29 20h1v1H29zM1 21h1v1H1zM2 21h1v1H2zM3 21h1v1H3zM4 21h1v1H4zM5 21h1v1H5zM26 21h1v1H26zM27 21h1v1H27zM28 21h1v1H28zM29 21h1v1H29zM30 21h1v1H30zM1 22h1v1H1zM5 22h1v1H5zM26 22h1v1H26zM30 22h1v1H30zM2 23h1v1H2zM4 23h1v1H4zM27 23h1v1H27zM29 23h1v1H29zM14 28h1v1H14zM17 28h1v1H17zM9 30h1v1H9zM10 30h1v1H10zM12 30h1v1H12zM13 30h1v1H13zM18 30h1v1H18zM19 30h1v1H19zM21 30h1v1H21zM22 30h1v1H22z"/><path fill="#344b23" d="M8 10h1v1H8zM23 10h1v1H23zM7 11h1v1H7zM24 11h1v1H24zM6 12h1v1H6zM25 12h1v1H25zM1 17h1v1H1zM6 17h1v1H6zM25 17h1v1H25zM30 17h1v1H30zM2 18h1v1H2zM3 18h1v1H3zM28 18h1v1H28zM29 18h1v1H29zM2 19h1v1H2zM3 19h1v1H3zM4 19h1v1H4zM5 19h1v1H5zM26 19h1v1H26zM27 19h1v1H27zM28 19h1v1H28zM29 19h1v1H29zM5 20h1v1H5zM6 20h1v1H6zM25 20h1v1H25zM26 20h1v1H26zM6 21h1v1H6zM25 21h1v1H25zM2 22h1v1H2zM4 22h1v1H4zM6 22h1v1H6zM25 22h1v1H25zM27 22h1v1H27zM29 22h1v1H29zM6 23h1v1H6zM25 23h1v1H25zM1 24h1v1H1zM3 24h1v1H3zM5 24h1v1H5zM6 24h1v1H6zM25 24h1v1H25zM26 24h1v1H26zM28 24h1v1H28zM30 24h1v1H30zM1 25h1v1H1zM2 25h1v1H2zM3 25h1v1H3zM4 25h1v1H4zM5 25h1v1H5zM6 25h1v1H6zM25 25h1v1H25zM26 25h1v1H26zM27 25h1v1H27zM28 25h1v1H28zM29 25h1v1H29zM30 25h1v1H30zM8 27h1v1H8zM23 27h1v1H23zM12 28h1v1H12zM13 28h1v1H13zM15 28h1v1H15zM16 28h1v1H16zM18 28h1v1H18zM19 28h1v1H19z"/><path fill="#bdd742" d="M9 11h1v1H9zM12 11h1v1H12zM14 11h1v1H14zM15 11h1v1H15zM16 11h1v1H16zM17 11h1v1H17zM19 11h1v1H19zM22 11h1v1H22zM14 12h1v1H14zM16 12h1v1H16zM13 29h1v1H13zM14 29h1v1H14zM15 29h1v1H15zM16 29h1v1H16zM17 29h1v1H17zM18 29h1v1H18zM14 30h1v1H14zM15 30h1v1H15zM16 30h1v1H16zM17 30h1v1H17zM11 31h1v1H11zM12 31h1v1H12zM13 31h1v1H13zM14 31h1v1H14zM15 31h1v1H15zM16 31h1v1H16zM17 31h1v1H17zM18 31h1v1H18zM19 31h1v1H19zM20 31h1v1H20z"/><path fill="#a1bd3c" d="M10 11h1v1H10zM11 11h1v1H11zM13 11h1v1H13zM18 11h1v1H18zM20 11h1v1H20zM21 11h1v1H21zM9 12h1v1H9zM19 12h1v1H19zM22 12h1v1H22zM14 13h1v1H14zM16 13h1v1H16zM19 13h1v1H19zM22 13h1v1H22zM16 14h1v1H16z"/><path fill="#264447" d="M8 12h1v1H8zM10 12h1v1H10zM11 12h1v1H11zM15 12h1v1H15zM21 12h1v1H21zM23 12h1v1H23zM7 14h1v1H7zM24 14h1v1H24zM5 15h1v1H5zM6 15h1v1H6zM7 15h1v1H7zM24 15h1v1H24zM25 15h1v1H25zM26 15h1v1H26zM5 16h1v1H5zM26 16h1v1H26zM10 25h1v1H10zM11 25h1v1H11zM20 25h1v1H20zM21 25h1v1H21z"/><path fill="#355a36" d="M12 12h1v1H12zM18 12h1v1H18zM9 14h1v1H9zM12 26h1v1H12zM19 26h1v1H19zM11 27h1v1H11zM20 27h1v1H20zM11 28h1v1H11zM20 28h1v1H20zM11 29h1v1H11zM20 29h1v1H20z"/><path fill="#233d26" d="M22 14h1v1H22zM1 23h1v1H1zM5 23h1v1H5zM26 23h1v1H26zM30 23h1v1H30zM1 26h1v1H1zM2 26h1v1H2zM3 26h1v1H3zM4 26h1v1H4zM5 26h1v1H5zM6 26h1v1H6zM25 26h1v1H25zM26 26h1v1H26zM27 26h1v1H27zM28 26h1v1H28zM29 26h1v1H29zM30 26h1v1H30zM2 27h1v1H2zM3 27h1v1H3zM4 27h1v1H4zM5 27h1v1H5zM6 27h1v1H6zM25 27h1v1H25zM26 27h1v1H26zM27 27h1v1H27zM28 27h1v1H28zM29 27h1v1H29zM3 28h1v1H3zM4 28h1v1H4zM5 28h1v1H5zM6 28h1v1H6zM25 28h1v1H25zM26 28h1v1H26zM27 28h1v1H27zM28 28h1v1H28zM7 30h1v1H7zM24 30h1v1H24z"/><path fill="#182b29" d="M8 15h1v1H8zM23 15h1v1H23zM1 28h1v1H1zM30 28h1v1H30zM3 29h1v1H3zM28 29h1v1H28zM2 30h1v1H2zM5 30h1v1H5zM26 30h1v1H26zM29 30h1v1H29z"/><path fill="#618543" d="M6 16h1v1H6zM25 16h1v1H25zM3 22h1v1H3zM28 22h1v1H28zM2 24h1v1H2zM4 24h1v1H4zM27 24h1v1H27zM29 24h1v1H29z"/><path fill="#fdfcfc" d="M11 17h1v1H11zM12 17h1v1H12zM19 17h1v1H19zM20 17h1v1H20zM11 18h1v1H11zM12 18h1v1H12zM13 18h1v1H13zM18 18h1v1H18zM19 18h1v1H19zM20 18h1v1H20zM11 19h1v1H11zM12 19h1v1H12zM19 19h1v1H19zM20 19h1v1H20zM11 20h1v1H11zM12 20h1v1H12zM19 20h1v1H19zM20 20h1v1H20zM11 21h1v1H11zM12 21h1v1H12zM19 21h1v1H19zM20 21h1v1H20zM12 22h1v1H12zM13 22h1v1H13zM18 22h1v1H18zM19 22h1v1H19z"/><path fill="#040101" d="M13 19h1v1H13zM18 19h1v1H18zM13 20h1v1H13zM18 20h1v1H18z"/><path fill="#416137" d="M3 23h1v1H3zM28 23h1v1H28zM13 25h1v1H13zM14 25h1v1H14zM15 25h1v1H15zM16 25h1v1H16zM17 25h1v1H17zM18 25h1v1H18z"/><path fill="#294326" d="M12 27h1v1H12zM19 27h1v1H19z"/></svg>
