<svg xmlns="http://www.w3.org/2000/svg" viewBox="0 0 32 32" shape-rendering="crispEdges"><path fill="#154305" d="M9 1h1v1H9zM10 1h1v1H10zM11 1h1v1H11zM20 1h1v1H20zM21 1h1v1H21zM22 1h1v1H22zM11 2h1v1H11zM20 2h1v1H20zM3 3h1v1H3zM4 3h1v1H4zM5 3h1v1H5zM12 3h1v1H12zM19 3h1v1H19zM26 3h1v1H26zM27 3h1v1H27zM28 3h1v1H28zM5 4h1v1H5zM11 4h1v1H11zM20 4h1v1H20zM26 4h1v1H26zM6 5h1v1H6zM12 5h1v1H12zM19 5h1v1H19zM25 5h1v1H25zM5 6h1v1H5zM26 6h1v1H26zM6 7h1v1H6zM25 7h1v1H25zM0 9h1v1H0zM1 9h1v1H1zM30 9h1v1H30zM31 9h1v1H31zM1 11h1v1H1zM30 11h1v1H30zM1 15h1v1H1zM2 15h1v1H2zM29 15h1v1H29zM30 15h1v1H30z"/><path fill="#092d02" d="M8 2h1v1H8zM9 2h1v1H9zM12 2h1v1H12zM19 2h1v1H19zM22 2h1v1H22zM23 2h1v1H23zM8 3h1v1H8zM13 3h1v1H13zM18 3h1v1H18zM23 3h1v1H23zM3 4h1v1H3zM6 4h1v1H6zM13 4h1v1H13zM18 4h1v1H18zM25 4h1v1H25zM28 4h1v1H28zM3 5h1v1H3zM28 5h1v1H28zM2 9h1v1H2zM29 9h1v1H29zM0 10h1v1H0zM31 10h1v1H31zM0 11h1v1H0zM31 11h1v1H31zM1 12h1v1H1zM30 12h1v1H30zM1 16h1v1H1zM30 16h1v1H30zM1 17h1v1H1zM30 17h1v1H30z"/><path fill="#569816" d="M10 2h1v1H10zM21 2h1v1H21zM11 3h1v1H11zM20 3h1v1H20zM4 4h1v1H4zM12 4h1v1H12zM19 4h1v1H19zM27 4h1v1H27zM5 5h1v1H5zM26 5h1v1H26zM6 6h1v1H6zM25 6h1v1H25zM7 8h1v1H7zM24 8h1v1H24zM1 10h1v1H1zM2 10h1v1H2zM29 10h1v1H29zM30 10h1v1H30z"/><path fill="#ed1d04" d="M15 2h1v1H15zM16 2h1v1H16zM9 4h1v1H9zM22 4h1v1H22zM8 5h1v1H8zM10 5h1v1H10zM21 5h1v1H21zM23 5h1v1H23zM4 6h1v1H4zM10 6h1v1H10zM13 6h1v1H13zM18 6h1v1H18zM21 6h1v1H21zM27 6h1v1H27zM5 7h1v1H5zM11 7h1v1H11zM20 7h1v1H20zM26 7h1v1H26zM6 8h1v1H6zM12 8h1v1H12zM19 8h1v1H19zM25 8h1v1H25zM7 9h1v1H7zM12 9h1v1H12zM19 9h1v1H19zM24 9h1v1H24zM7 10h1v1H7zM24 10h1v1H24zM3 11h1v1H3zM9 11h1v1H9zM22 11h1v1H22zM28 11h1v1H28zM4 12h1v1H4zM27 12h1v1H27zM5 13h1v1H5zM26 13h1v1H26zM4 16h1v1H4zM10 16h1v1H10zM15 16h1v1H15zM16 16h1v1H16zM21 16h1v1H21zM27 16h1v1H27zM7 18h1v1H7zM24 18h1v1H24zM12 20h1v1H12zM19 20h1v1H19zM9 21h1v1H9zM22 21h1v1H22zM7 22h1v1H7zM10 22h1v1H10zM21 22h1v1H21zM24 22h1v1H24zM7 23h1v1H7zM11 23h1v1H11zM20 23h1v1H20zM24 23h1v1H24zM7 24h1v1H7zM12 24h1v1H12zM19 24h1v1H19zM24 24h1v1H24zM13 27h1v1H13zM18 27h1v1H18zM15 29h1v1H15zM16 29h1v1H16z"/><path fill="#5c1305" d="M9 3h1v1H9zM10 3h1v1H10zM21 3h1v1H21zM22 3h1v1H22zM8 4h1v1H8zM10 4h1v1H10zM21 4h1v1H21zM23 4h1v1H23zM4 5h1v1H4zM27 5h1v1H27zM3 6h1v1H3zM28 6h1v1H28zM3 7h1v1H3zM28 7h1v1H28zM13 9h1v1H13zM15 9h1v1H15zM16 9h1v1H16zM18 9h1v1H18zM14 10h1v1H14zM17 10h1v1H17zM7 12h1v1H7zM24 12h1v1H24zM6 13h1v1H6zM25 13h1v1H25zM12 19h1v1H12zM19 19h1v1H19zM15 20h1v1H15zM16 20h1v1H16zM15 21h1v1H15zM16 21h1v1H16z"/><path fill="#611605" d="M14 3h1v1H14zM17 3h1v1H17zM13 5h1v1H13zM18 5h1v1H18zM13 8h1v1H13zM18 8h1v1H18zM2 16h1v1H2zM3 16h1v1H3zM28 16h1v1H28zM29 16h1v1H29zM3 20h1v1H3zM28 20h1v1H28zM2 21h1v1H2zM29 21h1v1H29zM4 24h1v1H4zM5 24h1v1H5zM26 24h1v1H26zM27 24h1v1H27zM7 25h1v1H7zM24 25h1v1H24zM11 27h1v1H11zM12 27h1v1H12zM19 27h1v1H19zM20 27h1v1H20zM9 28h1v1H9zM11 28h1v1H11zM20 28h1v1H20zM22 28h1v1H22zM8 29h1v1H8zM23 29h1v1H23z"/><path fill="#ffffff" d="M15 3h1v1H15zM16 3h1v1H16zM15 5h1v1H15zM16 5h1v1H16zM9 6h1v1H9zM15 6h1v1H15zM16 6h1v1H16zM22 6h1v1H22zM4 7h1v1H4zM27 7h1v1H27zM11 8h1v1H11zM20 8h1v1H20zM6 9h1v1H6zM25 9h1v1H25zM15 10h1v1H15zM16 10h1v1H16zM14 11h1v1H14zM17 11h1v1H17zM3 12h1v1H3zM15 12h1v1H15zM16 12h1v1H16zM28 12h1v1H28zM5 14h1v1H5zM26 14h1v1H26zM15 24h1v1H15zM16 24h1v1H16zM14 25h1v1H14zM17 25h1v1H17z"/><path fill="#cb5100" d="M14 4h1v1H14zM17 4h1v1H17zM15 8h1v1H15zM16 8h1v1H16zM14 9h1v1H14zM17 9h1v1H17zM14 12h1v1H14zM17 12h1v1H17zM9 13h1v1H9zM22 13h1v1H22zM6 15h1v1H6zM25 15h1v1H25zM10 17h1v1H10zM21 17h1v1H21zM6 18h1v1H6zM25 18h1v1H25zM13 21h1v1H13zM18 21h1v1H18zM4 23h1v1H4zM27 23h1v1H27zM15 27h1v1H15zM16 27h1v1H16zM6 28h1v1H6zM14 28h1v1H14zM17 28h1v1H17zM25 28h1v1H25z"/><path fill="#feb009" d="M15 4h1v1H15zM16 4h1v1H16zM9 5h1v1H9zM14 5h1v1H14zM17 5h1v1H17zM22 5h1v1H22zM8 6h1v1H8zM23 6h1v1H23zM9 7h1v1H9zM15 7h1v1H15zM16 7h1v1H16zM22 7h1v1H22zM4 8h1v1H4zM10 8h1v1H10zM21 8h1v1H21zM27 8h1v1H27zM4 9h1v1H4zM5 9h1v1H5zM11 9h1v1H11zM20 9h1v1H20zM26 9h1v1H26zM27 9h1v1H27zM5 10h1v1H5zM6 10h1v1H6zM25 10h1v1H25zM26 10h1v1H26zM6 11h1v1H6zM7 11h1v1H7zM15 11h1v1H15zM16 11h1v1H16zM24 11h1v1H24zM25 11h1v1H25zM6 12h1v1H6zM9 12h1v1H9zM10 12h1v1H10zM11 12h1v1H11zM20 12h1v1H20zM21 12h1v1H21zM22 12h1v1H22zM25 12h1v1H25zM3 13h1v1H3zM8 13h1v1H8zM12 13h1v1H12zM15 13h1v1H15zM16 13h1v1H16zM19 13h1v1H19zM23 13h1v1H23zM28 13h1v1H28zM4 14h1v1H4zM7 14h1v1H7zM13 14h1v1H13zM18 14h1v1H18zM24 14h1v1H24zM27 14h1v1H27zM5 15h1v1H5zM7 15h1v1H7zM15 15h1v1H15zM16 15h1v1H16zM24 15h1v1H24zM26 15h1v1H26zM4 17h1v1H4zM27 17h1v1H27zM5 18h1v1H5zM10 18h1v1H10zM21 18h1v1H21zM26 18h1v1H26zM6 19h1v1H6zM25 19h1v1H25zM15 25h1v1H15zM16 25h1v1H16z"/><path fill="#530c04" d="M7 5h1v1H7zM11 5h1v1H11zM20 5h1v1H20zM24 5h1v1H24zM7 6h1v1H7zM11 6h1v1H11zM20 6h1v1H20zM24 6h1v1H24zM7 7h1v1H7zM24 7h1v1H24zM3 8h1v1H3zM28 8h1v1H28zM3 9h1v1H3zM28 9h1v1H28zM3 10h1v1H3zM28 10h1v1H28zM15 17h1v1H15zM16 17h1v1H16zM15 19h1v1H15zM16 19h1v1H16z"/><path fill="#2c0803" d="M12 6h1v1H12zM19 6h1v1H19zM12 7h1v1H12zM19 7h1v1H19zM2 13h1v1H2zM14 13h1v1H14zM17 13h1v1H17zM29 13h1v1H29zM2 14h1v1H2zM10 14h1v1H10zM11 14h1v1H11zM15 14h1v1H15zM16 14h1v1H16zM20 14h1v1H20zM21 14h1v1H21zM29 14h1v1H29zM3 15h1v1H3zM9 15h1v1H9zM10 15h1v1H10zM11 15h1v1H11zM12 15h1v1H12zM19 15h1v1H19zM20 15h1v1H20zM21 15h1v1H21zM22 15h1v1H22zM28 15h1v1H28zM9 16h1v1H9zM14 16h1v1H14zM17 16h1v1H17zM22 16h1v1H22zM9 17h1v1H9zM14 17h1v1H14zM17 17h1v1H17zM22 17h1v1H22zM9 18h1v1H9zM14 18h1v1H14zM17 18h1v1H17zM22 18h1v1H22zM2 19h1v1H2zM9 19h1v1H9zM14 19h1v1H14zM17 19h1v1H17zM22 19h1v1H22zM29 19h1v1H29zM9 20h1v1H9zM14 20h1v1H14zM17 20h1v1H17zM22 20h1v1H22zM10 21h1v1H10zM14 21h1v1H14zM17 21h1v1H17zM21 21h1v1H21zM11 22h1v1H11zM14 22h1v1H14zM17 22h1v1H17zM20 22h1v1H20zM12 23h1v1H12zM13 23h1v1H13zM18 23h1v1H18zM19 23h1v1H19z"/><path fill="#fd9802" d="M14 6h1v1H14zM17 6h1v1H17zM14 7h1v1H14zM17 7h1v1H17zM14 8h1v1H14zM17 8h1v1H17zM6 14h1v1H6zM8 14h1v1H8zM23 14h1v1H23zM25 14h1v1H25zM7 16h1v1H7zM24 16h1v1H24zM7 17h1v1H7zM24 17h1v1H24zM8 19h1v1H8zM23 19h1v1H23zM7 20h1v1H7zM8 20h1v1H8zM23 20h1v1H23zM24 20h1v1H24zM10 23h1v1H10zM21 23h1v1H21zM9 24h1v1H9zM10 24h1v1H10zM11 24h1v1H11zM20 24h1v1H20zM21 24h1v1H21zM22 24h1v1H22zM10 25h1v1H10zM12 25h1v1H12zM19 25h1v1H19zM21 25h1v1H21zM11 26h1v1H11zM12 26h1v1H12zM19 26h1v1H19zM20 26h1v1H20zM12 28h1v1H12zM19 28h1v1H19zM12 29h1v1H12zM13 29h1v1H13zM18 29h1v1H18zM19 29h1v1H19z"/><path fill="#b11707" d="M8 7h1v1H8zM13 7h1v1H13zM18 7h1v1H18zM23 7h1v1H23zM9 8h1v1H9zM22 8h1v1H22zM8 21h1v1H8zM23 21h1v1H23z"/><path fill="#fdf6a7" d="M10 7h1v1H10zM21 7h1v1H21zM5 8h1v1H5zM26 8h1v1H26zM13 10h1v1H13zM18 10h1v1H18zM11 11h1v1H11zM20 11h1v1H20zM8 12h1v1H8zM12 12h1v1H12zM19 12h1v1H19zM23 12h1v1H23zM4 13h1v1H4zM7 13h1v1H7zM13 13h1v1H13zM18 13h1v1H18zM24 13h1v1H24zM27 13h1v1H27zM3 17h1v1H3zM28 17h1v1H28zM5 19h1v1H5zM26 19h1v1H26z"/><path fill="#320903" d="M8 8h1v1H8zM23 8h1v1H23zM9 9h1v1H9zM10 9h1v1H10zM21 9h1v1H21zM22 9h1v1H22zM10 10h1v1H10zM21 10h1v1H21zM2 24h1v1H2zM29 24h1v1H29z"/><path fill="#770901" d="M8 9h1v1H8zM23 9h1v1H23zM8 10h1v1H8zM9 10h1v1H9zM22 10h1v1H22zM23 10h1v1H23zM4 11h1v1H4zM27 11h1v1H27zM5 12h1v1H5zM26 12h1v1H26zM10 13h1v1H10zM11 13h1v1H11zM20 13h1v1H20zM21 13h1v1H21zM9 14h1v1H9zM12 14h1v1H12zM19 14h1v1H19zM22 14h1v1H22zM8 15h1v1H8zM14 15h1v1H14zM17 15h1v1H17zM23 15h1v1H23zM8 16h1v1H8zM23 16h1v1H23zM8 17h1v1H8zM23 17h1v1H23zM8 18h1v1H8zM23 18h1v1H23zM3 19h1v1H3zM28 19h1v1H28zM6 20h1v1H6zM13 20h1v1H13zM18 20h1v1H18zM25 20h1v1H25zM7 21h1v1H7zM24 21h1v1H24zM8 24h1v1H8zM23 24h1v1H23z"/><path fill="#f16a1d" d="M4 10h1v1H4zM27 10h1v1H27zM5 11h1v1H5zM8 11h1v1H8zM23 11h1v1H23zM26 11h1v1H26zM3 14h1v1H3zM28 14h1v1H28zM4 15h1v1H4zM27 15h1v1H27zM5 16h1v1H5zM26 16h1v1H26zM3 18h1v1H3zM28 18h1v1H28zM4 19h1v1H4zM27 19h1v1H27zM3 22h1v1H3zM6 22h1v1H6zM25 22h1v1H25zM28 22h1v1H28z"/><path fill="#420903" d="M11 10h1v1H11zM12 10h1v1H12zM19 10h1v1H19zM20 10h1v1H20zM2 11h1v1H2zM12 11h1v1H12zM19 11h1v1H19zM29 11h1v1H29zM2 12h1v1H2zM13 12h1v1H13zM18 12h1v1H18zM29 12h1v1H29zM2 17h1v1H2zM29 17h1v1H29zM2 18h1v1H2zM29 18h1v1H29zM2 22h1v1H2zM29 22h1v1H29zM2 23h1v1H2zM29 23h1v1H29z"/><path fill="#fddd4d" d="M10 11h1v1H10zM13 11h1v1H13zM18 11h1v1H18zM21 11h1v1H21zM14 14h1v1H14zM17 14h1v1H17zM7 19h1v1H7zM24 19h1v1H24zM8 22h1v1H8zM9 22h1v1H9zM22 22h1v1H22zM23 22h1v1H23zM8 23h1v1H8zM9 23h1v1H9zM15 23h1v1H15zM16 23h1v1H16zM22 23h1v1H22zM23 23h1v1H23zM14 24h1v1H14zM17 24h1v1H17zM11 25h1v1H11zM13 25h1v1H13zM18 25h1v1H18zM20 25h1v1H20zM13 28h1v1H13zM18 28h1v1H18z"/><path fill="#260a05" d="M13 15h1v1H13zM18 15h1v1H18zM3 25h1v1H3zM6 25h1v1H6zM25 25h1v1H25zM28 25h1v1H28zM4 26h1v1H4zM5 26h1v1H5zM8 26h1v1H8zM23 26h1v1H23zM26 26h1v1H26zM27 26h1v1H27zM9 27h1v1H9zM14 27h1v1H14zM17 27h1v1H17zM22 27h1v1H22zM15 28h1v1H15zM16 28h1v1H16z"/><path fill="#761805" d="M6 16h1v1H6zM25 16h1v1H25zM6 17h1v1H6zM25 17h1v1H25zM15 22h1v1H15zM16 22h1v1H16zM14 23h1v1H14zM17 23h1v1H17zM13 24h1v1H13zM18 24h1v1H18zM13 26h1v1H13zM18 26h1v1H18z"/><path fill="#fafafa" d="M11 16h1v1H11zM12 16h1v1H12zM19 16h1v1H19zM20 16h1v1H20zM11 17h1v1H11zM13 17h1v1H13zM18 17h1v1H18zM20 17h1v1H20zM11 18h1v1H11zM20 18h1v1H20zM10 19h1v1H10zM11 19h1v1H11zM20 19h1v1H20zM21 19h1v1H21zM10 20h1v1H10zM11 20h1v1H11zM20 20h1v1H20zM21 20h1v1H21zM11 21h1v1H11zM12 21h1v1H12zM19 21h1v1H19zM20 21h1v1H20zM12 22h1v1H12zM13 22h1v1H13zM18 22h1v1H18zM19 22h1v1H19z"/><path fill="#000004" d="M13 16h1v1H13zM18 16h1v1H18zM12 17h1v1H12zM19 17h1v1H19zM12 18h1v1H12zM13 18h1v1H13zM18 18h1v1H18zM19 18h1v1H19zM13 19h1v1H13zM18 19h1v1H18z"/><path fill="#210804" d="M5 17h1v1H5zM26 17h1v1H26zM15 18h1v1H15zM16 18h1v1H16z"/><path fill="#fbe486" d="M4 18h1v1H4zM27 18h1v1H27z"/><path fill="#fc9f5c" d="M4 20h1v1H4zM5 20h1v1H5zM26 20h1v1H26zM27 20h1v1H27zM6 21h1v1H6zM25 21h1v1H25zM8 25h1v1H8zM23 25h1v1H23zM10 29h1v1H10zM21 29h1v1H21z"/><path fill="#fc6f31" d="M3 21h1v1H3zM5 21h1v1H5zM26 21h1v1H26zM28 21h1v1H28zM9 25h1v1H9zM22 25h1v1H22zM7 26h1v1H7zM10 26h1v1H10zM21 26h1v1H21zM24 26h1v1H24zM8 27h1v1H8zM23 27h1v1H23zM8 28h1v1H8zM10 28h1v1H10zM21 28h1v1H21zM23 28h1v1H23zM9 29h1v1H9zM22 29h1v1H22z"/><path fill="#ba4b21" d="M4 21h1v1H4zM27 21h1v1H27zM3 23h1v1H3zM6 23h1v1H6zM25 23h1v1H25zM28 23h1v1H28zM3 24h1v1H3zM6 24h1v1H6zM25 24h1v1H25zM28 24h1v1H28zM4 25h1v1H4zM5 25h1v1H5zM26 25h1v1H26zM27 25h1v1H27zM6 26h1v1H6zM9 26h1v1H9zM22 26h1v1H22zM25 26h1v1H25zM5 27h1v1H5zM10 27h1v1H10zM21 27h1v1H21zM26 27h1v1H26zM5 28h1v1H5zM26 28h1v1H26zM6 29h1v1H6zM7 29h1v1H7zM24 29h1v1H24zM25 29h1v1H25z"/><path fill="#fc9101" d="M4 22h1v1H4zM27 22h1v1H27zM5 23h1v1H5zM26 23h1v1H26zM14 26h1v1H14zM17 26h1v1H17zM6 27h1v1H6zM25 27h1v1H25zM7 28h1v1H7zM24 28h1v1H24z"/><path fill="#fde564" d="M5 22h1v1H5zM26 22h1v1H26zM7 27h1v1H7zM24 27h1v1H24z"/><path fill="#fe7802" d="M15 26h1v1H15zM16 26h1v1H16z"/><path fill="#401005" d="M11 29h1v1H11zM20 29h1v1H20z"/><path fill="#531305" d="M14 29h1v1H14zM17 29h1v1H17z"/></svg>
