<svg xmlns="http://www.w3.org/2000/svg" viewBox="0 0 32 32" shape-rendering="crispEdges"><path fill="#101010" d="M7 5h1v1H7zM24 5h1v1H24zM25 14h1v1H25zM6 15h1v1H6zM6 16h1v1H6zM25 16h1v1H25zM6 17h1v1H6zM25 17h1v1H25zM6 18h1v1H6zM6 19h1v1H6zM25 19h1v1H25zM6 20h1v1H6zM25 20h1v1H25zM6 21h1v1H6zM25 21h1v1H25zM6 22h1v1H6zM25 22h1v1H25zM6 23h1v1H6zM25 23h1v1H25zM6 24h1v1H6zM25 24h1v1H25zM6 25h1v1H6zM25 25h1v1H25z"/><path fill="#303030" d="M8 5h1v1H8zM9 5h1v1H9zM12 5h1v1H12zM13 5h1v1H13zM14 5h1v1H14zM17 5h1v1H17zM19 5h1v1H19zM21 5h1v1H21zM22 5h1v1H22zM23 5h1v1H23zM13 6h1v1H13zM16 6h1v1H16zM17 6h1v1H17zM19 6h1v1H19zM22 6h1v1H22zM24 6h1v1H24zM7 7h1v1H7zM8 7h1v1H8zM20 7h1v1H20zM14 8h1v1H14zM15 8h1v1H15zM18 8h1v1H18zM25 8h1v1H25zM9 9h1v1H9zM10 9h1v1H10zM17 9h1v1H17zM18 9h1v1H18zM19 9h1v1H19zM20 9h1v1H20zM24 9h1v1H24zM25 9h1v1H25zM8 10h1v1H8zM9 10h1v1H9zM10 10h1v1H10zM18 10h1v1H18zM21 10h1v1H21zM25 10h1v1H25zM15 11h1v1H15zM21 11h1v1H21zM25 11h1v1H25z"/><path fill="#474747" d="M10 5h1v1H10zM11 5h1v1H11zM20 5h1v1H20zM10 6h1v1H10zM11 6h1v1H11zM12 6h1v1H12zM14 6h1v1H14zM20 6h1v1H20zM21 6h1v1H21zM23 6h1v1H23zM11 7h1v1H11zM12 7h1v1H12zM13 7h1v1H13zM14 7h1v1H14zM15 7h1v1H15zM21 7h1v1H21zM22 7h1v1H22zM6 8h1v1H6zM7 8h1v1H7zM17 8h1v1H17zM6 9h1v1H6zM7 9h1v1H7zM11 9h1v1H11zM12 9h1v1H12zM16 9h1v1H16zM23 9h1v1H23zM11 10h1v1H11zM12 10h1v1H12zM13 10h1v1H13zM15 10h1v1H15zM16 10h1v1H16zM17 10h1v1H17zM19 10h1v1H19zM20 10h1v1H20zM23 10h1v1H23zM24 10h1v1H24zM8 11h1v1H8zM9 11h1v1H9zM10 11h1v1H10zM11 11h1v1H11zM12 11h1v1H12zM16 11h1v1H16zM17 11h1v1H17zM18 11h1v1H18zM19 11h1v1H19zM20 11h1v1H20zM23 11h1v1H23zM24 11h1v1H24zM13 12h1v1H13zM14 12h1v1H14zM15 12h1v1H15z"/><path fill="#8b2e2c" d="M15 5h1v1H15zM16 5h1v1H16zM15 6h1v1H15zM9 7h1v1H9zM16 7h1v1H16zM17 7h1v1H17zM19 7h1v1H19zM23 7h1v1H23zM8 8h1v1H8zM9 8h1v1H9zM10 8h1v1H10zM11 8h1v1H11zM16 8h1v1H16zM20 8h1v1H20zM21 8h1v1H21zM22 8h1v1H22zM23 8h1v1H23zM14 9h1v1H14zM15 9h1v1H15zM21 9h1v1H21zM22 9h1v1H22zM22 10h1v1H22zM7 11h1v1H7zM7 12h1v1H7zM8 12h1v1H8zM11 12h1v1H11zM12 12h1v1H12zM17 12h1v1H17zM18 12h1v1H18zM19 12h1v1H19z"/><path fill="#511723" d="M18 5h1v1H18zM7 6h1v1H7zM8 6h1v1H8zM9 6h1v1H9zM18 6h1v1H18zM25 6h1v1H25zM6 7h1v1H6zM10 7h1v1H10zM18 7h1v1H18zM24 7h1v1H24zM25 7h1v1H25zM12 8h1v1H12zM13 8h1v1H13zM19 8h1v1H19zM8 9h1v1H8zM13 9h1v1H13zM6 10h1v1H6zM7 10h1v1H7zM14 10h1v1H14zM13 11h1v1H13zM14 11h1v1H14zM22 11h1v1H22zM9 12h1v1H9zM10 12h1v1H10zM16 12h1v1H16zM20 12h1v1H20zM21 12h1v1H21zM22 12h1v1H22zM23 12h1v1H23zM24 12h1v1H24z"/><path fill="#531524" d="M6 6h1v1H6z"/><path fill="#403a37" d="M24 8h1v1H24z"/><path fill="#433c39" d="M6 11h1v1H6z"/><path fill="#070606" d="M6 12h1v1H6zM25 12h1v1H25z"/><path fill="#191414" d="M6 13h1v1H6zM7 13h1v1H7zM8 13h1v1H8zM9 13h1v1H9zM11 13h1v1H11zM12 13h1v1H12zM13 13h1v1H13zM14 13h1v1H14zM15 13h1v1H15zM16 13h1v1H16zM17 13h1v1H17zM18 13h1v1H18zM19 13h1v1H19zM23 13h1v1H23zM24 13h1v1H24zM25 13h1v1H25zM7 14h1v1H7zM8 14h1v1H8zM9 14h1v1H9zM21 14h1v1H21zM22 14h1v1H22zM24 14h1v1H24zM8 15h1v1H8zM9 15h1v1H9zM10 15h1v1H10zM12 15h1v1H12zM13 15h1v1H13zM19 15h1v1H19zM20 15h1v1H20zM21 15h1v1H21zM22 15h1v1H22zM23 15h1v1H23zM8 16h1v1H8zM9 16h1v1H9zM12 16h1v1H12zM13 16h1v1H13zM14 16h1v1H14zM18 16h1v1H18zM19 16h1v1H19zM20 16h1v1H20zM21 16h1v1H21zM24 16h1v1H24zM8 17h1v1H8zM11 17h1v1H11zM14 17h1v1H14zM15 17h1v1H15zM16 17h1v1H16zM20 17h1v1H20zM8 18h1v1H8zM10 18h1v1H10zM14 18h1v1H14zM15 18h1v1H15zM16 18h1v1H16zM7 19h1v1H7zM14 19h1v1H14zM15 19h1v1H15zM16 19h1v1H16zM21 19h1v1H21zM7 20h1v1H7zM8 20h1v1H8zM14 20h1v1H14zM15 20h1v1H15zM17 20h1v1H17zM7 21h1v1H7zM8 21h1v1H8zM9 21h1v1H9zM14 21h1v1H14zM17 21h1v1H17zM18 21h1v1H18zM19 21h1v1H19zM20 21h1v1H20zM21 21h1v1H21zM7 22h1v1H7zM9 22h1v1H9zM11 22h1v1H11zM16 22h1v1H16zM17 22h1v1H17zM16 23h1v1H16zM24 23h1v1H24zM10 24h1v1H10zM11 24h1v1H11zM12 24h1v1H12zM13 24h1v1H13zM14 24h1v1H14zM24 24h1v1H24zM9 25h1v1H9zM10 25h1v1H10zM14 25h1v1H14zM15 25h1v1H15zM21 25h1v1H21zM24 25h1v1H24zM9 26h1v1H9zM13 26h1v1H13zM14 26h1v1H14zM15 26h1v1H15zM16 26h1v1H16zM19 26h1v1H19zM20 26h1v1H20zM21 26h1v1H21zM23 26h1v1H23zM24 26h1v1H24z"/><path fill="#530911" d="M10 13h1v1H10zM22 13h1v1H22zM6 14h1v1H6zM10 14h1v1H10zM14 14h1v1H14zM19 14h1v1H19zM23 14h1v1H23zM7 15h1v1H7zM11 15h1v1H11zM18 15h1v1H18zM24 15h1v1H24zM25 15h1v1H25zM7 16h1v1H7zM11 16h1v1H11zM7 17h1v1H7zM7 18h1v1H7zM25 18h1v1H25zM8 19h1v1H8zM17 19h1v1H17zM24 19h1v1H24zM9 20h1v1H9zM16 20h1v1H16zM24 20h1v1H24zM10 21h1v1H10zM15 21h1v1H15zM16 21h1v1H16zM24 21h1v1H24zM10 22h1v1H10zM14 22h1v1H14zM15 22h1v1H15zM24 22h1v1H24zM10 23h1v1H10zM11 23h1v1H11zM12 23h1v1H12zM13 23h1v1H13zM14 23h1v1H14zM15 23h1v1H15zM23 23h1v1H23zM23 24h1v1H23zM8 25h1v1H8zM22 25h1v1H22zM23 25h1v1H23zM7 26h1v1H7zM8 26h1v1H8zM18 26h1v1H18zM22 26h1v1H22z"/><path fill="#994312" d="M20 13h1v1H20zM21 13h1v1H21zM11 14h1v1H11zM12 14h1v1H12zM13 14h1v1H13zM20 14h1v1H20zM14 15h1v1H14zM10 16h1v1H10zM15 16h1v1H15zM16 16h1v1H16zM17 16h1v1H17zM9 17h1v1H9zM10 17h1v1H10zM17 17h1v1H17zM9 18h1v1H9zM17 18h1v1H17zM9 19h1v1H9zM21 20h1v1H21zM22 20h1v1H22zM23 20h1v1H23zM9 23h1v1H9zM8 24h1v1H8zM9 24h1v1H9zM15 24h1v1H15zM16 24h1v1H16zM16 25h1v1H16zM17 25h1v1H17zM17 26h1v1H17z"/><path fill="#1f1f1f" d="M15 14h1v1H15zM16 14h1v1H16zM17 14h1v1H17zM18 14h1v1H18zM15 15h1v1H15zM16 15h1v1H16zM17 15h1v1H17zM22 16h1v1H22zM23 16h1v1H23zM21 17h1v1H21zM22 17h1v1H22zM23 17h1v1H23zM24 17h1v1H24zM21 18h1v1H21zM22 18h1v1H22zM23 18h1v1H23zM24 18h1v1H24zM22 19h1v1H22zM23 19h1v1H23zM22 21h1v1H22zM23 21h1v1H23zM18 22h1v1H18zM19 22h1v1H19zM20 22h1v1H20zM21 22h1v1H21zM22 22h1v1H22zM23 22h1v1H23zM17 23h1v1H17zM18 23h1v1H18zM19 23h1v1H19zM20 23h1v1H20zM17 24h1v1H17zM18 24h1v1H18zM7 25h1v1H7zM18 25h1v1H18z"/><path fill="#ffffff" d="M12 17h1v1H12zM18 17h1v1H18zM11 18h1v1H11zM13 18h1v1H13zM19 18h1v1H19zM20 18h1v1H20zM11 19h1v1H11zM20 19h1v1H20zM11 20h1v1H11zM20 20h1v1H20z"/><path fill="#0e0e14" d="M13 17h1v1H13zM19 17h1v1H19zM12 18h1v1H12zM18 18h1v1H18zM12 19h1v1H12zM13 19h1v1H13zM18 19h1v1H18zM19 19h1v1H19zM12 20h1v1H12zM13 20h1v1H13zM18 20h1v1H18zM19 20h1v1H19z"/><path fill="#2d2d2d" d="M10 19h1v1H10zM10 20h1v1H10zM11 21h1v1H11zM12 21h1v1H12zM13 21h1v1H13zM8 22h1v1H8zM12 22h1v1H12zM13 22h1v1H13zM7 23h1v1H7zM8 23h1v1H8zM21 23h1v1H21zM22 23h1v1H22zM7 24h1v1H7zM19 24h1v1H19zM20 24h1v1H20zM21 24h1v1H21zM22 24h1v1H22zM11 25h1v1H11zM12 25h1v1H12zM13 25h1v1H13zM19 25h1v1H19zM20 25h1v1H20zM10 26h1v1H10zM11 26h1v1H11zM12 26h1v1H12z"/></svg>
