<svg xmlns="http://www.w3.org/2000/svg" viewBox="0 0 32 32" shape-rendering="crispEdges"><path fill="#fbfcfd" d="M8 1h1v1H8zM23 1h1v1H23zM7 2h1v1H7zM8 2h1v1H8zM9 2h1v1H9zM22 2h1v1H22zM23 2h1v1H23zM24 2h1v1H24zM7 3h1v1H7zM8 3h1v1H8zM23 3h1v1H23zM24 3h1v1H24zM13 5h1v1H13zM14 5h1v1H14zM17 5h1v1H17zM18 5h1v1H18zM15 10h1v1H15zM16 10h1v1H16zM14 11h1v1H14zM17 11h1v1H17zM3 24h1v1H3zM28 24h1v1H28z"/><path fill="#fefefe" d="M9 1h1v1H9zM10 1h1v1H10zM11 1h1v1H11zM12 1h1v1H12zM13 1h1v1H13zM14 1h1v1H14zM15 1h1v1H15zM16 1h1v1H16zM17 1h1v1H17zM18 1h1v1H18zM19 1h1v1H19zM20 1h1v1H20zM21 1h1v1H21zM22 1h1v1H22zM8 9h1v1H8zM9 9h1v1H9zM10 9h1v1H10zM21 9h1v1H21zM22 9h1v1H22zM23 9h1v1H23zM7 10h1v1H7zM24 10h1v1H24zM7 13h1v1H7zM24 13h1v1H24zM7 16h1v1H7zM24 16h1v1H24zM7 22h1v1H7zM24 22h1v1H24zM7 23h1v1H7zM24 23h1v1H24zM7 24h1v1H7zM8 24h1v1H8zM23 24h1v1H23zM24 24h1v1H24zM8 26h1v1H8zM13 26h1v1H13zM18 26h1v1H18zM23 26h1v1H23zM13 27h1v1H13zM15 27h1v1H15zM16 27h1v1H16zM18 27h1v1H18zM14 28h1v1H14zM15 28h1v1H15zM16 28h1v1H16zM17 28h1v1H17z"/><path fill="#e2f4f9" d="M10 2h1v1H10zM11 2h1v1H11zM12 2h1v1H12zM13 2h1v1H13zM14 2h1v1H14zM15 2h1v1H15zM16 2h1v1H16zM17 2h1v1H17zM18 2h1v1H18zM19 2h1v1H19zM20 2h1v1H20zM21 2h1v1H21zM9 3h1v1H9zM22 3h1v1H22zM7 4h1v1H7zM8 4h1v1H8zM23 4h1v1H23zM24 4h1v1H24zM8 5h1v1H8zM9 5h1v1H9zM10 5h1v1H10zM11 5h1v1H11zM12 5h1v1H12zM19 5h1v1H19zM20 5h1v1H20zM21 5h1v1H21zM22 5h1v1H22zM23 5h1v1H23zM15 7h1v1H15zM16 7h1v1H16zM14 8h1v1H14zM17 8h1v1H17zM13 9h1v1H13zM15 9h1v1H15zM16 9h1v1H16zM18 9h1v1H18zM12 10h1v1H12zM19 10h1v1H19zM7 11h1v1H7zM24 11h1v1H24z"/><path fill="#95d7eb" d="M6 3h1v1H6zM25 3h1v1H25zM6 4h1v1H6zM25 4h1v1H25zM7 5h1v1H7zM24 5h1v1H24zM7 6h1v1H7zM8 6h1v1H8zM12 6h1v1H12zM13 6h1v1H13zM18 6h1v1H18zM19 6h1v1H19zM23 6h1v1H23zM24 6h1v1H24z"/><path fill="#5bbbdd" d="M10 3h1v1H10zM11 3h1v1H11zM12 3h1v1H12zM13 3h1v1H13zM14 3h1v1H14zM15 3h1v1H15zM16 3h1v1H16zM17 3h1v1H17zM18 3h1v1H18zM19 3h1v1H19zM20 3h1v1H20zM21 3h1v1H21zM9 4h1v1H9zM22 4h1v1H22zM9 8h1v1H9zM22 8h1v1H22zM1 11h1v1H1zM13 11h1v1H13zM18 11h1v1H18zM30 11h1v1H30zM1 12h1v1H1zM10 12h1v1H10zM12 12h1v1H12zM19 12h1v1H19zM21 12h1v1H21zM30 12h1v1H30zM1 13h1v1H1zM11 13h1v1H11zM13 13h1v1H13zM18 13h1v1H18zM20 13h1v1H20zM30 13h1v1H30zM2 14h1v1H2zM12 14h1v1H12zM14 14h1v1H14zM17 14h1v1H17zM19 14h1v1H19zM29 14h1v1H29zM3 15h1v1H3zM13 15h1v1H13zM15 15h1v1H15zM16 15h1v1H16zM18 15h1v1H18zM28 15h1v1H28zM1 16h1v1H1zM2 16h1v1H2zM4 16h1v1H4zM14 16h1v1H14zM17 16h1v1H17zM27 16h1v1H27zM29 16h1v1H29zM30 16h1v1H30zM1 17h1v1H1zM3 17h1v1H3zM15 17h1v1H15zM16 17h1v1H16zM28 17h1v1H28zM30 17h1v1H30zM1 18h1v1H1zM4 18h1v1H4zM27 18h1v1H27zM30 18h1v1H30zM1 19h1v1H1zM5 19h1v1H5zM10 19h1v1H10zM21 19h1v1H21zM26 19h1v1H26zM30 19h1v1H30zM2 20h1v1H2zM29 20h1v1H29zM3 21h1v1H3zM13 21h1v1H13zM18 21h1v1H18zM28 21h1v1H28zM4 22h1v1H4zM27 22h1v1H27zM3 23h1v1H3zM28 23h1v1H28zM8 27h1v1H8zM9 27h1v1H9zM22 27h1v1H22zM23 27h1v1H23z"/><path fill="#69bedd" d="M6 5h1v1H6zM25 5h1v1H25zM10 8h1v1H10zM21 8h1v1H21zM12 9h1v1H12zM19 9h1v1H19z"/><path fill="#71c9e7" d="M15 5h1v1H15zM16 5h1v1H16zM11 8h1v1H11zM20 8h1v1H20zM1 9h1v1H1zM2 9h1v1H2zM3 9h1v1H3zM28 9h1v1H28zM29 9h1v1H29zM30 9h1v1H30zM1 10h1v1H1zM4 10h1v1H4zM27 10h1v1H27zM30 10h1v1H30zM5 11h1v1H5zM26 11h1v1H26zM15 13h1v1H15zM16 13h1v1H16zM6 14h1v1H6zM25 14h1v1H25z"/><path fill="#cdecf6" d="M9 6h1v1H9zM10 6h1v1H10zM11 6h1v1H11zM20 6h1v1H20zM21 6h1v1H21zM22 6h1v1H22zM7 9h1v1H7zM24 9h1v1H24zM8 10h1v1H8zM9 10h1v1H9zM22 10h1v1H22zM23 10h1v1H23zM8 11h1v1H8zM9 11h1v1H9zM22 11h1v1H22zM23 11h1v1H23zM9 12h1v1H9zM11 12h1v1H11zM20 12h1v1H20zM22 12h1v1H22zM12 13h1v1H12zM19 13h1v1H19zM13 14h1v1H13zM18 14h1v1H18zM14 15h1v1H14zM17 15h1v1H17zM15 16h1v1H15zM16 16h1v1H16zM4 25h1v1H4zM27 25h1v1H27zM5 26h1v1H5zM7 26h1v1H7zM24 26h1v1H24zM26 26h1v1H26z"/><path fill="#349fce" d="M14 6h1v1H14zM17 6h1v1H17zM13 7h1v1H13zM18 7h1v1H18zM12 8h1v1H12zM19 8h1v1H19zM11 9h1v1H11zM20 9h1v1H20zM10 10h1v1H10zM21 10h1v1H21zM3 25h1v1H3zM28 25h1v1H28zM4 26h1v1H4zM27 26h1v1H27zM6 28h1v1H6zM25 28h1v1H25z"/><path fill="#fdfefe" d="M15 6h1v1H15zM16 6h1v1H16zM14 7h1v1H14zM17 7h1v1H17zM14 27h1v1H14zM17 27h1v1H17z"/><path fill="#bbe4f2" d="M7 8h1v1H7zM24 8h1v1H24zM6 9h1v1H6zM25 9h1v1H25zM6 10h1v1H6zM25 10h1v1H25zM6 11h1v1H6zM11 11h1v1H11zM20 11h1v1H20zM25 11h1v1H25zM6 12h1v1H6zM25 12h1v1H25zM6 13h1v1H6zM25 13h1v1H25zM6 15h1v1H6zM25 15h1v1H25zM6 16h1v1H6zM25 16h1v1H25zM6 17h1v1H6zM25 17h1v1H25zM6 18h1v1H6zM25 18h1v1H25zM6 19h1v1H6zM25 19h1v1H25zM6 20h1v1H6zM25 20h1v1H25zM6 21h1v1H6zM25 21h1v1H25zM6 22h1v1H6zM25 22h1v1H25zM6 23h1v1H6zM25 23h1v1H25zM6 24h1v1H6zM25 24h1v1H25zM6 25h1v1H6zM25 25h1v1H25zM6 26h1v1H6zM25 26h1v1H25z"/><path fill="#9ae9f5" d="M8 8h1v1H8zM23 8h1v1H23zM2 10h1v1H2zM3 10h1v1H3zM28 10h1v1H28zM29 10h1v1H29zM4 11h1v1H4zM27 11h1v1H27zM2 12h1v1H2zM5 12h1v1H5zM26 12h1v1H26zM29 12h1v1H29zM2 13h1v1H2zM3 13h1v1H3zM4 13h1v1H4zM5 13h1v1H5zM26 13h1v1H26zM27 13h1v1H27zM28 13h1v1H28zM29 13h1v1H29zM5 14h1v1H5zM26 14h1v1H26zM12 15h1v1H12zM19 15h1v1H19zM2 18h1v1H2zM29 18h1v1H29zM2 19h1v1H2zM3 19h1v1H3zM28 19h1v1H28zM29 19h1v1H29zM3 20h1v1H3zM4 20h1v1H4zM5 20h1v1H5zM26 20h1v1H26zM27 20h1v1H27zM28 20h1v1H28zM4 21h1v1H4zM5 21h1v1H5zM26 21h1v1H26zM27 21h1v1H27zM5 22h1v1H5zM26 22h1v1H26zM4 24h1v1H4zM27 24h1v1H27zM5 25h1v1H5zM26 25h1v1H26zM9 26h1v1H9zM10 26h1v1H10zM21 26h1v1H21zM22 26h1v1H22z"/><path fill="#84cce7" d="M13 8h1v1H13zM15 8h1v1H15zM16 8h1v1H16zM18 8h1v1H18zM14 9h1v1H14zM17 9h1v1H17zM13 10h1v1H13zM18 10h1v1H18zM13 28h1v1H13zM18 28h1v1H18z"/><path fill="#48afd8" d="M11 10h1v1H11zM20 10h1v1H20zM10 11h1v1H10zM21 11h1v1H21zM2 23h1v1H2zM29 23h1v1H29zM2 24h1v1H2zM29 24h1v1H29zM5 27h1v1H5zM6 27h1v1H6zM25 27h1v1H25zM26 27h1v1H26z"/><path fill="#d2f3f9" d="M14 10h1v1H14zM17 10h1v1H17zM15 11h1v1H15zM16 11h1v1H16zM15 12h1v1H15zM16 12h1v1H16zM7 14h1v1H7zM24 14h1v1H24zM7 15h1v1H7zM24 15h1v1H24z"/><path fill="#f0fafc" d="M2 11h1v1H2zM3 11h1v1H3zM28 11h1v1H28zM29 11h1v1H29zM3 12h1v1H3zM4 12h1v1H4zM7 12h1v1H7zM8 12h1v1H8zM23 12h1v1H23zM24 12h1v1H24zM27 12h1v1H27zM28 12h1v1H28zM8 13h1v1H8zM9 13h1v1H9zM10 13h1v1H10zM21 13h1v1H21zM22 13h1v1H22zM23 13h1v1H23zM8 14h1v1H8zM11 14h1v1H11zM20 14h1v1H20zM23 14h1v1H23zM9 15h1v1H9zM10 15h1v1H10zM11 15h1v1H11zM20 15h1v1H20zM21 15h1v1H21zM22 15h1v1H22zM8 16h1v1H8zM13 16h1v1H13zM18 16h1v1H18zM23 16h1v1H23zM2 17h1v1H2zM7 17h1v1H7zM9 17h1v1H9zM14 17h1v1H14zM17 17h1v1H17zM22 17h1v1H22zM24 17h1v1H24zM29 17h1v1H29zM3 18h1v1H3zM7 18h1v1H7zM15 18h1v1H15zM16 18h1v1H16zM24 18h1v1H24zM28 18h1v1H28zM4 19h1v1H4zM7 19h1v1H7zM24 19h1v1H24zM27 19h1v1H27zM7 20h1v1H7zM24 20h1v1H24zM7 21h1v1H7zM24 21h1v1H24zM7 25h1v1H7zM8 25h1v1H8zM23 25h1v1H23zM24 25h1v1H24z"/><path fill="#168bc6" d="M12 11h1v1H12zM19 11h1v1H19zM13 12h1v1H13zM14 12h1v1H14zM17 12h1v1H17zM18 12h1v1H18zM14 13h1v1H14zM17 13h1v1H17zM15 14h1v1H15zM16 14h1v1H16zM10 20h1v1H10zM21 20h1v1H21zM9 24h1v1H9zM15 24h1v1H15zM16 24h1v1H16zM22 24h1v1H22zM10 25h1v1H10zM13 25h1v1H13zM14 25h1v1H14zM15 25h1v1H15zM16 25h1v1H16zM17 25h1v1H17zM18 25h1v1H18zM21 25h1v1H21zM11 26h1v1H11zM12 26h1v1H12zM19 26h1v1H19zM20 26h1v1H20z"/><path fill="#b1eef7" d="M3 14h1v1H3zM4 14h1v1H4zM9 14h1v1H9zM10 14h1v1H10zM21 14h1v1H21zM22 14h1v1H22zM27 14h1v1H27zM28 14h1v1H28zM4 15h1v1H4zM5 15h1v1H5zM8 15h1v1H8zM23 15h1v1H23zM26 15h1v1H26zM27 15h1v1H27zM5 16h1v1H5zM9 16h1v1H9zM22 16h1v1H22zM26 16h1v1H26zM8 17h1v1H8zM23 17h1v1H23zM8 18h1v1H8zM10 18h1v1H10zM21 18h1v1H21zM23 18h1v1H23zM8 19h1v1H8zM23 19h1v1H23zM8 20h1v1H8zM23 20h1v1H23zM8 21h1v1H8zM23 21h1v1H23zM8 22h1v1H8zM23 22h1v1H23zM8 23h1v1H8zM23 23h1v1H23zM14 26h1v1H14zM15 26h1v1H15zM16 26h1v1H16zM17 26h1v1H17z"/><path fill="#0479bb" d="M3 16h1v1H3zM28 16h1v1H28zM4 17h1v1H4zM5 17h1v1H5zM26 17h1v1H26zM27 17h1v1H27zM5 18h1v1H5zM26 18h1v1H26zM3 22h1v1H3zM28 22h1v1H28zM4 23h1v1H4zM5 23h1v1H5zM26 23h1v1H26zM27 23h1v1H27zM5 24h1v1H5zM26 24h1v1H26zM7 28h1v1H7zM8 28h1v1H8zM9 28h1v1H9zM10 28h1v1H10zM11 28h1v1H11zM12 28h1v1H12zM19 28h1v1H19zM20 28h1v1H20zM21 28h1v1H21zM22 28h1v1H22zM23 28h1v1H23zM24 28h1v1H24z"/><path fill="#000000" d="M10 16h1v1H10zM11 16h1v1H11zM12 16h1v1H12zM19 16h1v1H19zM20 16h1v1H20zM21 16h1v1H21zM10 17h1v1H10zM13 17h1v1H13zM18 17h1v1H18zM21 17h1v1H21zM9 18h1v1H9zM14 18h1v1H14zM17 18h1v1H17zM22 18h1v1H22zM9 19h1v1H9zM14 19h1v1H14zM15 19h1v1H15zM16 19h1v1H16zM17 19h1v1H17zM22 19h1v1H22zM9 20h1v1H9zM14 20h1v1H14zM15 20h1v1H15zM16 20h1v1H16zM17 20h1v1H17zM22 20h1v1H22zM9 21h1v1H9zM10 21h1v1H10zM14 21h1v1H14zM15 21h1v1H15zM16 21h1v1H16zM17 21h1v1H17zM21 21h1v1H21zM22 21h1v1H22zM9 22h1v1H9zM10 22h1v1H10zM11 22h1v1H11zM14 22h1v1H14zM15 22h1v1H15zM16 22h1v1H16zM17 22h1v1H17zM20 22h1v1H20zM21 22h1v1H21zM22 22h1v1H22zM9 23h1v1H9zM10 23h1v1H10zM11 23h1v1H11zM12 23h1v1H12zM13 23h1v1H13zM14 23h1v1H14zM15 23h1v1H15zM16 23h1v1H16zM17 23h1v1H17zM18 23h1v1H18zM19 23h1v1H19zM20 23h1v1H20zM21 23h1v1H21zM22 23h1v1H22zM10 24h1v1H10zM11 24h1v1H11zM12 24h1v1H12zM13 24h1v1H13zM14 24h1v1H14zM17 24h1v1H17zM18 24h1v1H18zM19 24h1v1H19zM20 24h1v1H20zM21 24h1v1H21zM11 25h1v1H11zM12 25h1v1H12zM19 25h1v1H19zM20 25h1v1H20z"/><path fill="#fdfcfc" d="M11 17h1v1H11zM12 17h1v1H12zM19 17h1v1H19zM20 17h1v1H20zM11 18h1v1H11zM12 18h1v1H12zM13 18h1v1H13zM18 18h1v1H18zM19 18h1v1H19zM20 18h1v1H20zM11 19h1v1H11zM12 19h1v1H12zM19 19h1v1H19zM20 19h1v1H20zM11 20h1v1H11zM12 20h1v1H12zM19 20h1v1H19zM20 20h1v1H20zM11 21h1v1H11zM12 21h1v1H12zM19 21h1v1H19zM20 21h1v1H20zM12 22h1v1H12zM13 22h1v1H13zM18 22h1v1H18zM19 22h1v1H19z"/><path fill="#040101" d="M13 19h1v1H13zM18 19h1v1H18zM13 20h1v1H13zM18 20h1v1H18z"/><path fill="#6cd8ee" d="M9 25h1v1H9zM22 25h1v1H22zM7 27h1v1H7zM10 27h1v1H10zM11 27h1v1H11zM12 27h1v1H12zM19 27h1v1H19zM20 27h1v1H20zM21 27h1v1H21zM24 27h1v1H24z"/></svg>
