<svg xmlns="http://www.w3.org/2000/svg" viewBox="0 0 32 32" shape-rendering="crispEdges"><path fill="#57b2ee" d="M12 1h1v1H12zM13 1h1v1H13zM14 1h1v1H14zM15 1h1v1H15zM16 1h1v1H16zM17 1h1v1H17zM18 1h1v1H18zM19 1h1v1H19zM2 17h1v1H2zM3 17h1v1H3zM4 17h1v1H4zM27 17h1v1H27zM28 17h1v1H28zM29 17h1v1H29zM1 18h1v1H1zM30 18h1v1H30zM6 20h1v1H6zM25 20h1v1H25z"/><path fill="#46afec" d="M10 2h1v1H10zM11 2h1v1H11zM20 2h1v1H20zM21 2h1v1H21zM9 3h1v1H9zM22 3h1v1H22zM8 4h1v1H8zM23 4h1v1H23zM7 5h1v1H7zM24 5h1v1H24zM7 6h1v1H7zM24 6h1v1H24zM7 7h1v1H7zM24 7h1v1H24zM6 8h1v1H6zM7 8h1v1H7zM24 8h1v1H24zM25 8h1v1H25zM8 9h1v1H8zM23 9h1v1H23zM10 10h1v1H10zM11 10h1v1H11zM12 10h1v1H12zM19 10h1v1H19zM20 10h1v1H20zM21 10h1v1H21zM10 14h1v1H10zM11 14h1v1H11zM20 14h1v1H20zM21 14h1v1H21zM7 15h1v1H7zM10 15h1v1H10zM13 15h1v1H13zM18 15h1v1H18zM21 15h1v1H21zM24 15h1v1H24zM8 17h1v1H8zM23 17h1v1H23zM8 18h1v1H8zM23 18h1v1H23zM8 19h1v1H8zM10 19h1v1H10zM21 19h1v1H21zM23 19h1v1H23zM8 20h1v1H8zM23 20h1v1H23zM13 21h1v1H13zM18 21h1v1H18zM6 27h1v1H6zM25 27h1v1H25z"/><path fill="#8af0f5" d="M12 2h1v1H12zM13 2h1v1H13zM14 2h1v1H14zM15 2h1v1H15zM16 2h1v1H16zM17 2h1v1H17zM18 2h1v1H18zM19 2h1v1H19zM10 3h1v1H10zM11 3h1v1H11zM12 3h1v1H12zM14 3h1v1H14zM15 3h1v1H15zM16 3h1v1H16zM19 3h1v1H19zM20 3h1v1H20zM21 3h1v1H21zM9 4h1v1H9zM10 4h1v1H10zM11 4h1v1H11zM12 4h1v1H12zM13 4h1v1H13zM14 4h1v1H14zM15 4h1v1H15zM16 4h1v1H16zM19 4h1v1H19zM21 4h1v1H21zM22 4h1v1H22zM8 5h1v1H8zM9 5h1v1H9zM12 5h1v1H12zM13 5h1v1H13zM20 5h1v1H20zM21 5h1v1H21zM22 5h1v1H22zM23 5h1v1H23zM8 6h1v1H8zM9 6h1v1H9zM12 6h1v1H12zM13 6h1v1H13zM14 6h1v1H14zM15 6h1v1H15zM19 6h1v1H19zM20 6h1v1H20zM21 6h1v1H21zM22 6h1v1H22zM23 6h1v1H23zM8 7h1v1H8zM9 7h1v1H9zM10 7h1v1H10zM11 7h1v1H11zM12 7h1v1H12zM13 7h1v1H13zM14 7h1v1H14zM16 7h1v1H16zM17 7h1v1H17zM20 7h1v1H20zM21 7h1v1H21zM22 7h1v1H22zM23 7h1v1H23zM8 8h1v1H8zM9 8h1v1H9zM11 8h1v1H11zM12 8h1v1H12zM13 8h1v1H13zM17 8h1v1H17zM18 8h1v1H18zM20 8h1v1H20zM22 8h1v1H22zM23 8h1v1H23zM11 9h1v1H11zM12 9h1v1H12zM13 9h1v1H13zM18 9h1v1H18zM19 9h1v1H19zM20 9h1v1H20zM16 13h1v1H16zM6 14h1v1H6zM15 14h1v1H15zM16 14h1v1H16zM25 14h1v1H25zM7 17h1v1H7zM24 17h1v1H24zM2 18h1v1H2zM3 18h1v1H3zM4 18h1v1H4zM7 18h1v1H7zM10 18h1v1H10zM21 18h1v1H21zM24 18h1v1H24zM27 18h1v1H27zM28 18h1v1H28zM29 18h1v1H29zM3 19h1v1H3zM4 19h1v1H4zM7 19h1v1H7zM24 19h1v1H24zM29 19h1v1H29zM30 19h1v1H30zM3 20h1v1H3zM4 20h1v1H4zM7 20h1v1H7zM24 20h1v1H24zM29 20h1v1H29zM30 20h1v1H30zM1 21h1v1H1zM3 21h1v1H3zM4 21h1v1H4zM6 21h1v1H6zM7 21h1v1H7zM24 21h1v1H24zM25 21h1v1H25zM27 21h1v1H27zM28 21h1v1H28zM30 21h1v1H30zM2 22h1v1H2zM6 22h1v1H6zM7 22h1v1H7zM24 22h1v1H24zM25 22h1v1H25zM29 22h1v1H29zM6 23h1v1H6zM7 23h1v1H7zM24 23h1v1H24zM25 23h1v1H25zM9 24h1v1H9zM22 24h1v1H22zM8 25h1v1H8zM9 25h1v1H9zM22 25h1v1H22zM23 25h1v1H23z"/><path fill="#fefefe" d="M13 3h1v1H13zM10 5h1v1H10zM11 5h1v1H11zM10 6h1v1H10zM11 6h1v1H11zM14 26h1v1H14zM15 26h1v1H15zM16 26h1v1H16zM17 26h1v1H17z"/><path fill="#fdfdfe" d="M17 3h1v1H17zM18 3h1v1H18zM17 4h1v1H17zM18 4h1v1H18zM20 4h1v1H20zM14 5h1v1H14zM15 5h1v1H15zM16 5h1v1H16zM17 5h1v1H17zM18 5h1v1H18zM19 5h1v1H19zM16 6h1v1H16zM17 6h1v1H17zM18 6h1v1H18zM4 7h1v1H4zM15 7h1v1H15zM18 7h1v1H18zM19 7h1v1H19zM27 7h1v1H27zM4 8h1v1H4zM5 8h1v1H5zM10 8h1v1H10zM14 8h1v1H14zM19 8h1v1H19zM21 8h1v1H21zM26 8h1v1H26zM27 8h1v1H27zM5 9h1v1H5zM6 9h1v1H6zM9 9h1v1H9zM10 9h1v1H10zM15 9h1v1H15zM16 9h1v1H16zM21 9h1v1H21zM22 9h1v1H22zM25 9h1v1H25zM26 9h1v1H26zM5 10h1v1H5zM6 10h1v1H6zM8 10h1v1H8zM9 10h1v1H9zM14 10h1v1H14zM15 10h1v1H15zM16 10h1v1H16zM17 10h1v1H17zM22 10h1v1H22zM23 10h1v1H23zM25 10h1v1H25zM26 10h1v1H26zM6 11h1v1H6zM8 11h1v1H8zM9 11h1v1H9zM10 11h1v1H10zM13 11h1v1H13zM14 11h1v1H14zM15 11h1v1H15zM16 11h1v1H16zM17 11h1v1H17zM18 11h1v1H18zM21 11h1v1H21zM22 11h1v1H22zM23 11h1v1H23zM25 11h1v1H25zM5 12h1v1H5zM6 12h1v1H6zM7 12h1v1H7zM8 12h1v1H8zM9 12h1v1H9zM10 12h1v1H10zM11 12h1v1H11zM13 12h1v1H13zM14 12h1v1H14zM17 12h1v1H17zM18 12h1v1H18zM20 12h1v1H20zM21 12h1v1H21zM22 12h1v1H22zM23 12h1v1H23zM24 12h1v1H24zM25 12h1v1H25zM26 12h1v1H26zM4 13h1v1H4zM5 13h1v1H5zM6 13h1v1H6zM7 13h1v1H7zM8 13h1v1H8zM10 13h1v1H10zM11 13h1v1H11zM15 13h1v1H15zM20 13h1v1H20zM21 13h1v1H21zM23 13h1v1H23zM24 13h1v1H24zM25 13h1v1H25zM26 13h1v1H26zM27 13h1v1H27zM3 14h1v1H3zM4 14h1v1H4zM5 14h1v1H5zM7 14h1v1H7zM8 14h1v1H8zM23 14h1v1H23zM24 14h1v1H24zM26 14h1v1H26zM27 14h1v1H27zM28 14h1v1H28zM3 15h1v1H3zM4 15h1v1H4zM8 15h1v1H8zM9 15h1v1H9zM11 15h1v1H11zM20 15h1v1H20zM22 15h1v1H22zM23 15h1v1H23zM27 15h1v1H27zM28 15h1v1H28zM3 16h1v1H3zM8 16h1v1H8zM9 16h1v1H9zM22 16h1v1H22zM23 16h1v1H23zM28 16h1v1H28zM1 19h1v1H1zM2 19h1v1H2zM27 19h1v1H27zM28 19h1v1H28zM1 20h1v1H1zM2 20h1v1H2zM27 20h1v1H27zM28 20h1v1H28zM8 24h1v1H8zM23 24h1v1H23zM10 26h1v1H10zM13 26h1v1H13zM18 26h1v1H18zM21 26h1v1H21z"/><path fill="#2a91e6" d="M6 7h1v1H6zM25 7h1v1H25zM5 11h1v1H5zM26 11h1v1H26z"/><path fill="#319be8" d="M15 8h1v1H15zM16 8h1v1H16zM15 12h1v1H15zM16 12h1v1H16zM5 15h1v1H5zM26 15h1v1H26zM5 16h1v1H5zM26 16h1v1H26zM5 17h1v1H5zM26 17h1v1H26zM5 18h1v1H5zM26 18h1v1H26zM0 19h1v1H0zM5 19h1v1H5zM26 19h1v1H26zM31 19h1v1H31zM0 20h1v1H0zM31 20h1v1H31zM7 26h1v1H7zM24 26h1v1H24z"/><path fill="#0d73d8" d="M7 9h1v1H7zM14 9h1v1H14zM17 9h1v1H17zM24 9h1v1H24zM13 10h1v1H13zM18 10h1v1H18zM12 11h1v1H12zM19 11h1v1H19zM9 14h1v1H9zM12 14h1v1H12zM19 14h1v1H19zM22 14h1v1H22zM12 15h1v1H12zM14 15h1v1H14zM17 15h1v1H17zM19 15h1v1H19zM5 20h1v1H5zM10 20h1v1H10zM21 20h1v1H21zM26 20h1v1H26zM0 21h1v1H0zM5 21h1v1H5zM8 21h1v1H8zM23 21h1v1H23zM26 21h1v1H26zM31 21h1v1H31zM1 22h1v1H1zM5 22h1v1H5zM8 22h1v1H8zM23 22h1v1H23zM26 22h1v1H26zM30 22h1v1H30zM2 23h1v1H2zM3 23h1v1H3zM4 23h1v1H4zM5 23h1v1H5zM26 23h1v1H26zM27 23h1v1H27zM28 23h1v1H28zM29 23h1v1H29zM5 24h1v1H5zM26 24h1v1H26zM5 25h1v1H5zM11 25h1v1H11zM12 25h1v1H12zM13 25h1v1H13zM14 25h1v1H14zM15 25h1v1H15zM16 25h1v1H16zM17 25h1v1H17zM18 25h1v1H18zM19 25h1v1H19zM20 25h1v1H20zM26 25h1v1H26zM5 26h1v1H5zM26 26h1v1H26zM5 27h1v1H5zM7 27h1v1H7zM8 27h1v1H8zM9 27h1v1H9zM10 27h1v1H10zM13 27h1v1H13zM14 27h1v1H14zM15 27h1v1H15zM16 27h1v1H16zM17 27h1v1H17zM18 27h1v1H18zM21 27h1v1H21zM22 27h1v1H22zM23 27h1v1H23zM24 27h1v1H24zM26 27h1v1H26zM6 28h1v1H6zM25 28h1v1H25z"/><path fill="#b0d8f1" d="M7 10h1v1H7zM24 10h1v1H24zM7 11h1v1H7zM24 11h1v1H24zM12 12h1v1H12zM19 12h1v1H19zM9 13h1v1H9zM12 13h1v1H12zM19 13h1v1H19zM22 13h1v1H22zM13 14h1v1H13zM18 14h1v1H18z"/><path fill="#f4fcfd" d="M11 11h1v1H11zM20 11h1v1H20z"/><path fill="#eff7fb" d="M13 13h1v1H13zM18 13h1v1H18zM6 15h1v1H6zM25 15h1v1H25zM6 16h1v1H6zM25 16h1v1H25zM6 17h1v1H6zM25 17h1v1H25zM6 18h1v1H6zM25 18h1v1H25z"/><path fill="#5ecef4" d="M14 13h1v1H14zM17 13h1v1H17zM14 14h1v1H14zM17 14h1v1H17zM15 15h1v1H15zM16 15h1v1H16zM2 21h1v1H2zM29 21h1v1H29zM3 22h1v1H3zM4 22h1v1H4zM27 22h1v1H27zM28 22h1v1H28zM8 23h1v1H8zM9 23h1v1H9zM22 23h1v1H22zM23 23h1v1H23zM7 24h1v1H7zM10 24h1v1H10zM21 24h1v1H21zM24 24h1v1H24zM7 25h1v1H7zM10 25h1v1H10zM21 25h1v1H21zM24 25h1v1H24zM8 26h1v1H8zM9 26h1v1H9zM11 26h1v1H11zM12 26h1v1H12zM19 26h1v1H19zM20 26h1v1H20zM22 26h1v1H22zM23 26h1v1H23zM11 27h1v1H11zM12 27h1v1H12zM19 27h1v1H19zM20 27h1v1H20z"/><path fill="#84eef6" d="M7 16h1v1H7zM24 16h1v1H24z"/><path fill="#000000" d="M10 16h1v1H10zM11 16h1v1H11zM12 16h1v1H12zM13 16h1v1H13zM14 16h1v1H14zM17 16h1v1H17zM18 16h1v1H18zM19 16h1v1H19zM20 16h1v1H20zM21 16h1v1H21zM9 17h1v1H9zM10 17h1v1H10zM13 17h1v1H13zM14 17h1v1H14zM15 17h1v1H15zM16 17h1v1H16zM17 17h1v1H17zM18 17h1v1H18zM21 17h1v1H21zM22 17h1v1H22zM9 18h1v1H9zM14 18h1v1H14zM15 18h1v1H15zM16 18h1v1H16zM17 18h1v1H17zM22 18h1v1H22zM9 19h1v1H9zM14 19h1v1H14zM15 19h1v1H15zM16 19h1v1H16zM17 19h1v1H17zM22 19h1v1H22zM9 20h1v1H9zM14 20h1v1H14zM15 20h1v1H15zM16 20h1v1H16zM17 20h1v1H17zM22 20h1v1H22zM9 21h1v1H9zM10 21h1v1H10zM14 21h1v1H14zM15 21h1v1H15zM16 21h1v1H16zM17 21h1v1H17zM21 21h1v1H21zM22 21h1v1H22zM9 22h1v1H9zM10 22h1v1H10zM11 22h1v1H11zM14 22h1v1H14zM15 22h1v1H15zM16 22h1v1H16zM17 22h1v1H17zM20 22h1v1H20zM21 22h1v1H21zM22 22h1v1H22zM10 23h1v1H10zM11 23h1v1H11zM12 23h1v1H12zM13 23h1v1H13zM14 23h1v1H14zM15 23h1v1H15zM16 23h1v1H16zM17 23h1v1H17zM18 23h1v1H18zM19 23h1v1H19zM20 23h1v1H20zM21 23h1v1H21zM11 24h1v1H11zM12 24h1v1H12zM13 24h1v1H13zM14 24h1v1H14zM15 24h1v1H15zM16 24h1v1H16zM17 24h1v1H17zM18 24h1v1H18zM19 24h1v1H19zM20 24h1v1H20z"/><path fill="#2c81ce" d="M15 16h1v1H15zM16 16h1v1H16z"/><path fill="#fdfcfc" d="M11 17h1v1H11zM12 17h1v1H12zM19 17h1v1H19zM20 17h1v1H20zM11 18h1v1H11zM12 18h1v1H12zM13 18h1v1H13zM18 18h1v1H18zM19 18h1v1H19zM20 18h1v1H20zM11 19h1v1H11zM12 19h1v1H12zM19 19h1v1H19zM20 19h1v1H20zM11 20h1v1H11zM12 20h1v1H12zM19 20h1v1H19zM20 20h1v1H20zM11 21h1v1H11zM12 21h1v1H12zM19 21h1v1H19zM20 21h1v1H20zM12 22h1v1H12zM13 22h1v1H13zM18 22h1v1H18zM19 22h1v1H19z"/><path fill="#d8ebf9" d="M6 19h1v1H6zM25 19h1v1H25zM6 24h1v1H6zM25 24h1v1H25z"/><path fill="#040101" d="M13 19h1v1H13zM18 19h1v1H18zM13 20h1v1H13zM18 20h1v1H18z"/><path fill="#7bc0f1" d="M6 25h1v1H6zM25 25h1v1H25zM6 26h1v1H6zM25 26h1v1H25z"/><path fill="#105094" d="M7 28h1v1H7zM8 28h1v1H8zM9 28h1v1H9zM10 28h1v1H10zM11 28h1v1H11zM12 28h1v1H12zM13 28h1v1H13zM14 28h1v1H14zM15 28h1v1H15zM16 28h1v1H16zM17 28h1v1H17zM18 28h1v1H18zM19 28h1v1H19zM20 28h1v1H20zM21 28h1v1H21zM22 28h1v1H22zM23 28h1v1H23zM24 28h1v1H24z"/></svg>
