<svg xmlns="http://www.w3.org/2000/svg" viewBox="0 0 32 32" shape-rendering="crispEdges"><path fill="#e99111" d="M14 4h1v1H14zM15 4h1v1H15zM16 4h1v1H16zM17 4h1v1H17zM7 5h1v1H7zM13 5h1v1H13zM18 5h1v1H18zM24 5h1v1H24zM6 6h1v1H6zM14 6h1v1H14zM17 6h1v1H17zM25 6h1v1H25zM6 7h1v1H6zM14 7h1v1H14zM15 7h1v1H15zM16 7h1v1H16zM17 7h1v1H17zM25 7h1v1H25zM6 8h1v1H6zM25 8h1v1H25zM6 9h1v1H6zM25 9h1v1H25zM6 10h1v1H6zM25 10h1v1H25zM6 11h1v1H6zM7 11h1v1H7zM8 11h1v1H8zM9 11h1v1H9zM10 11h1v1H10zM11 11h1v1H11zM12 11h1v1H12zM13 11h1v1H13zM14 11h1v1H14zM15 11h1v1H15zM16 11h1v1H16zM17 11h1v1H17zM18 11h1v1H18zM19 11h1v1H19zM20 11h1v1H20zM21 11h1v1H21zM22 11h1v1H22zM23 11h1v1H23zM24 11h1v1H24zM25 11h1v1H25zM6 12h1v1H6zM25 12h1v1H25z"/><path fill="#fed500" d="M8 5h1v1H8zM9 5h1v1H9zM10 5h1v1H10zM11 5h1v1H11zM12 5h1v1H12zM19 5h1v1H19zM20 5h1v1H20zM21 5h1v1H21zM22 5h1v1H22zM23 5h1v1H23zM7 12h1v1H7zM8 12h1v1H8zM9 12h1v1H9zM10 12h1v1H10zM11 12h1v1H11zM12 12h1v1H12zM13 12h1v1H13zM14 12h1v1H14zM15 12h1v1H15zM16 12h1v1H16zM17 12h1v1H17zM18 12h1v1H18zM19 12h1v1H19zM20 12h1v1H20zM21 12h1v1H21zM22 12h1v1H22zM23 12h1v1H23zM24 12h1v1H24z"/><path fill="#fffefe" d="M14 5h1v1H14zM9 6h1v1H9zM10 6h1v1H10zM11 6h1v1H11zM20 6h1v1H20zM21 6h1v1H21zM22 6h1v1H22zM9 7h1v1H9zM10 7h1v1H10zM11 7h1v1H11zM20 7h1v1H20zM21 7h1v1H21zM22 7h1v1H22zM12 9h1v1H12zM13 9h1v1H13zM14 9h1v1H14zM15 9h1v1H15zM16 9h1v1H16zM17 9h1v1H17zM18 9h1v1H18zM19 9h1v1H19zM28 9h1v1H28zM29 9h1v1H29zM9 10h1v1H9zM10 10h1v1H10zM12 10h1v1H12zM13 10h1v1H13zM14 10h1v1H14zM15 10h1v1H15zM16 10h1v1H16zM17 10h1v1H17zM18 10h1v1H18zM19 10h1v1H19zM21 10h1v1H21zM22 10h1v1H22zM27 10h1v1H27zM28 10h1v1H28zM29 10h1v1H29zM26 11h1v1H26zM27 11h1v1H27zM29 11h1v1H29zM30 11h1v1H30zM26 12h1v1H26zM29 12h1v1H29zM30 12h1v1H30zM4 13h1v1H4zM5 13h1v1H5zM29 13h1v1H29zM30 13h1v1H30zM2 14h1v1H2zM4 14h1v1H4zM5 14h1v1H5zM29 14h1v1H29zM30 14h1v1H30zM4 15h1v1H4zM5 15h1v1H5zM8 15h1v1H8zM9 15h1v1H9zM10 15h1v1H10zM11 15h1v1H11zM12 15h1v1H12zM13 15h1v1H13zM14 15h1v1H14zM15 15h1v1H15zM16 15h1v1H16zM17 15h1v1H17zM18 15h1v1H18zM19 15h1v1H19zM20 15h1v1H20zM21 15h1v1H21zM22 15h1v1H22zM8 16h1v1H8zM9 16h1v1H9zM22 16h1v1H22zM23 16h1v1H23zM28 16h1v1H28zM29 16h1v1H29zM8 17h1v1H8zM9 17h1v1H9zM22 17h1v1H22zM23 17h1v1H23zM28 17h1v1H28zM29 17h1v1H29zM8 18h1v1H8zM9 18h1v1H9zM22 18h1v1H22zM23 18h1v1H23zM8 19h1v1H8zM9 19h1v1H9zM22 19h1v1H22zM23 19h1v1H23zM27 19h1v1H27zM28 19h1v1H28zM8 20h1v1H8zM9 20h1v1H9zM22 20h1v1H22zM23 20h1v1H23zM27 20h1v1H27zM28 20h1v1H28zM8 21h1v1H8zM9 21h1v1H9zM22 21h1v1H22zM23 21h1v1H23zM8 22h1v1H8zM9 22h1v1H9zM22 22h1v1H22zM23 22h1v1H23zM8 23h1v1H8zM9 23h1v1H9zM22 23h1v1H22zM23 23h1v1H23zM8 24h1v1H8zM9 24h1v1H9zM22 24h1v1H22zM23 24h1v1H23zM8 25h1v1H8zM9 25h1v1H9zM10 25h1v1H10zM11 25h1v1H11zM12 25h1v1H12zM13 25h1v1H13zM14 25h1v1H14zM15 25h1v1H15zM16 25h1v1H16zM17 25h1v1H17zM18 25h1v1H18zM19 25h1v1H19zM20 25h1v1H20zM21 25h1v1H21zM22 25h1v1H22zM23 25h1v1H23z"/><path fill="#fed303" d="M15 5h1v1H15zM16 5h1v1H16zM15 6h1v1H15zM16 6h1v1H16z"/><path fill="#feb800" d="M17 5h1v1H17zM7 6h1v1H7zM24 6h1v1H24zM4 12h1v1H4zM2 13h1v1H2zM3 13h1v1H3zM8 13h1v1H8zM9 13h1v1H9zM22 13h1v1H22zM23 13h1v1H23z"/><path fill="#ffe8ee" d="M8 6h1v1H8zM12 6h1v1H12zM13 6h1v1H13zM18 6h1v1H18zM19 6h1v1H19zM23 6h1v1H23zM7 7h1v1H7zM8 7h1v1H8zM12 7h1v1H12zM13 7h1v1H13zM18 7h1v1H18zM19 7h1v1H19zM23 7h1v1H23zM24 7h1v1H24zM7 8h1v1H7zM8 8h1v1H8zM9 8h1v1H9zM10 8h1v1H10zM11 8h1v1H11zM12 8h1v1H12zM13 8h1v1H13zM14 8h1v1H14zM15 8h1v1H15zM16 8h1v1H16zM17 8h1v1H17zM18 8h1v1H18zM19 8h1v1H19zM20 8h1v1H20zM21 8h1v1H21zM22 8h1v1H22zM23 8h1v1H23zM24 8h1v1H24zM7 9h1v1H7zM8 9h1v1H8zM9 9h1v1H9zM10 9h1v1H10zM11 9h1v1H11zM20 9h1v1H20zM21 9h1v1H21zM22 9h1v1H22zM23 9h1v1H23zM24 9h1v1H24zM7 10h1v1H7zM8 10h1v1H8zM11 10h1v1H11zM20 10h1v1H20zM23 10h1v1H23zM24 10h1v1H24zM3 14h1v1H3zM30 15h1v1H30zM4 16h1v1H4zM5 16h1v1H5zM3 17h1v1H3zM4 17h1v1H4zM5 17h1v1H5zM3 18h1v1H3zM4 18h1v1H4zM5 18h1v1H5zM29 18h1v1H29zM3 19h1v1H3zM4 19h1v1H4zM5 19h1v1H5zM4 20h1v1H4zM5 20h1v1H5zM28 21h1v1H28zM28 22h1v1H28zM29 22h1v1H29zM28 23h1v1H28zM29 23h1v1H29zM27 24h1v1H27zM28 24h1v1H28z"/><path fill="#fff9fa" d="M30 10h1v1H30z"/><path fill="#e58cae" d="M28 11h1v1H28zM27 12h1v1H27zM29 15h1v1H29zM28 18h1v1H28zM27 21h1v1H27zM26 22h1v1H26zM27 22h1v1H27zM26 23h1v1H26zM27 23h1v1H27z"/><path fill="#ffd30f" d="M2 12h1v1H2zM3 12h1v1H3zM1 13h1v1H1z"/><path fill="#eaa1bd" d="M6 13h1v1H6zM25 13h1v1H25zM6 25h1v1H6zM25 25h1v1H25z"/><path fill="#ffbfcf" d="M7 13h1v1H7zM24 13h1v1H24z"/><path fill="#fbfefe" d="M10 13h1v1H10zM12 13h1v1H12zM13 13h1v1H13zM14 13h1v1H14zM15 13h1v1H15zM16 13h1v1H16zM17 13h1v1H17zM18 13h1v1H18z"/><path fill="#fed405" d="M11 13h1v1H11zM19 13h1v1H19zM20 13h1v1H20zM21 13h1v1H21z"/><path fill="#feebf2" d="M26 13h1v1H26z"/><path fill="#ed8f14" d="M1 14h1v1H1zM1 15h1v1H1zM2 15h1v1H2z"/><path fill="#f6b8cf" d="M6 14h1v1H6zM7 14h1v1H7zM24 14h1v1H24zM25 14h1v1H25zM6 15h1v1H6zM25 15h1v1H25zM6 24h1v1H6zM25 24h1v1H25z"/><path fill="#fed6e5" d="M8 14h1v1H8zM9 14h1v1H9zM10 14h1v1H10zM11 14h1v1H11zM12 14h1v1H12zM13 14h1v1H13zM14 14h1v1H14zM15 14h1v1H15zM16 14h1v1H16zM17 14h1v1H17zM18 14h1v1H18zM19 14h1v1H19zM20 14h1v1H20zM21 14h1v1H21zM22 14h1v1H22zM23 14h1v1H23zM6 16h1v1H6zM25 16h1v1H25zM6 17h1v1H6zM25 17h1v1H25zM6 18h1v1H6zM25 18h1v1H25zM6 19h1v1H6zM25 19h1v1H25zM6 20h1v1H6zM25 20h1v1H25zM6 21h1v1H6zM25 21h1v1H25zM6 22h1v1H6zM25 22h1v1H25zM6 23h1v1H6zM25 23h1v1H25z"/><path fill="#fee4ee" d="M7 15h1v1H7zM24 15h1v1H24zM7 16h1v1H7zM24 16h1v1H24zM7 17h1v1H7zM24 17h1v1H24zM7 18h1v1H7zM24 18h1v1H24zM7 19h1v1H7zM24 19h1v1H24zM7 20h1v1H7zM24 20h1v1H24zM7 21h1v1H7zM24 21h1v1H24zM7 22h1v1H7zM24 22h1v1H24zM7 23h1v1H7zM24 23h1v1H24zM7 24h1v1H7zM24 24h1v1H24zM7 25h1v1H7zM24 25h1v1H24zM8 26h1v1H8zM9 26h1v1H9zM10 26h1v1H10zM11 26h1v1H11zM12 26h1v1H12zM13 26h1v1H13zM14 26h1v1H14zM15 26h1v1H15zM16 26h1v1H16zM17 26h1v1H17zM18 26h1v1H18zM19 26h1v1H19zM20 26h1v1H20zM21 26h1v1H21zM22 26h1v1H22zM23 26h1v1H23z"/><path fill="#f8317b" d="M23 15h1v1H23z"/><path fill="#87d75d" d="M10 16h1v1H10zM11 16h1v1H11zM20 16h1v1H20zM21 16h1v1H21zM10 17h1v1H10zM10 23h1v1H10zM21 23h1v1H21zM10 24h1v1H10zM11 24h1v1H11zM20 24h1v1H20zM21 24h1v1H21z"/><path fill="#fffcff" d="M12 16h1v1H12z"/><path fill="#fd8c93" d="M13 16h1v1H13zM14 16h1v1H14zM15 16h1v1H15zM16 16h1v1H16zM17 16h1v1H17zM18 16h1v1H18zM14 17h1v1H14zM17 17h1v1H17zM16 18h1v1H16zM16 19h1v1H16zM21 19h1v1H21zM16 20h1v1H16zM21 20h1v1H21zM11 21h1v1H11zM13 21h1v1H13zM18 21h1v1H18zM21 21h1v1H21zM11 22h1v1H11zM14 22h1v1H14zM17 22h1v1H17zM20 22h1v1H20zM12 23h1v1H12zM15 23h1v1H15zM17 23h1v1H17zM19 23h1v1H19zM13 24h1v1H13zM14 24h1v1H14zM15 24h1v1H15zM17 24h1v1H17zM18 24h1v1H18z"/><path fill="#f7fcfd" d="M19 16h1v1H19z"/><path fill="#4f982a" d="M11 17h1v1H11zM20 17h1v1H20zM11 23h1v1H11zM20 23h1v1H20z"/><path fill="#ffffff" d="M12 17h1v1H12zM18 17h1v1H18zM11 18h1v1H11zM13 18h1v1H13zM19 18h1v1H19zM20 18h1v1H20zM11 19h1v1H11zM20 19h1v1H20zM11 20h1v1H11zM20 20h1v1H20z"/><path fill="#0e0e14" d="M13 17h1v1H13zM19 17h1v1H19zM12 18h1v1H12zM18 18h1v1H18zM12 19h1v1H12zM13 19h1v1H13zM18 19h1v1H18zM19 19h1v1H19zM12 20h1v1H12zM13 20h1v1H13zM18 20h1v1H18zM19 20h1v1H19z"/><path fill="#fc5d5a" d="M15 17h1v1H15zM16 17h1v1H16zM14 18h1v1H14zM17 18h1v1H17zM14 19h1v1H14zM15 19h1v1H15zM17 19h1v1H17zM14 20h1v1H14zM17 20h1v1H17zM14 21h1v1H14zM16 21h1v1H16zM17 21h1v1H17zM15 22h1v1H15zM16 22h1v1H16zM16 23h1v1H16z"/><path fill="#88d65f" d="M21 17h1v1H21z"/><path fill="#fffcf2" d="M10 18h1v1H10z"/><path fill="#ffbab4" d="M15 18h1v1H15zM15 20h1v1H15zM12 21h1v1H12zM19 21h1v1H19zM20 21h1v1H20zM12 22h1v1H12zM13 22h1v1H13zM18 22h1v1H18zM19 22h1v1H19zM13 23h1v1H13zM14 23h1v1H14zM18 23h1v1H18z"/><path fill="#f8fff5" d="M21 18h1v1H21z"/><path fill="#fdfdfb" d="M10 19h1v1H10z"/><path fill="#fffefc" d="M10 20h1v1H10z"/><path fill="#fcfbfd" d="M10 21h1v1H10z"/><path fill="#ff8c90" d="M15 21h1v1H15z"/><path fill="#fff8fe" d="M10 22h1v1H10z"/><path fill="#fdfffa" d="M21 22h1v1H21z"/><path fill="#fff8f8" d="M12 24h1v1H12z"/><path fill="#f6efe9" d="M16 24h1v1H16z"/><path fill="#f9ffff" d="M19 24h1v1H19z"/><path fill="#fdd5e4" d="M7 26h1v1H7zM24 26h1v1H24z"/></svg>
