<svg xmlns="http://www.w3.org/2000/svg" viewBox="0 0 32 32" shape-rendering="crispEdges"><path fill="#896de8" d="M23 1h1v1H23zM24 1h1v1H24zM28 1h1v1H28zM29 1h1v1H29zM3 2h1v1H3zM4 2h1v1H4zM7 2h1v1H7zM8 2h1v1H8zM23 2h1v1H23zM24 2h1v1H24zM28 2h1v1H28zM29 2h1v1H29zM3 3h1v1H3zM4 3h1v1H4zM7 3h1v1H7zM8 3h1v1H8zM23 3h1v1H23zM24 3h1v1H24zM25 3h1v1H25zM6 4h1v1H6zM7 4h1v1H7zM8 4h1v1H8zM2 6h1v1H2zM3 6h1v1H3zM28 6h1v1H28zM29 6h1v1H29zM2 7h1v1H2zM3 7h1v1H3zM4 7h1v1H4zM28 7h1v1H28zM29 7h1v1H29zM2 11h1v1H2zM3 11h1v1H3zM2 12h1v1H2zM3 12h1v1H3zM6 15h1v1H6zM7 15h1v1H7zM8 15h1v1H8zM2 16h1v1H2zM3 16h1v1H3zM7 16h1v1H7zM8 16h1v1H8zM2 17h1v1H2zM3 17h1v1H3zM7 17h1v1H7zM8 17h1v1H8zM23 17h1v1H23zM24 17h1v1H24zM22 18h1v1H22zM23 18h1v1H23zM24 18h1v1H24zM9 19h1v1H9zM10 19h1v1H10zM22 19h1v1H22zM23 19h1v1H23zM9 20h1v1H9zM10 20h1v1H10zM10 21h1v1H10zM11 21h1v1H11zM5 23h1v1H5zM6 23h1v1H6zM26 23h1v1H26zM27 23h1v1H27zM5 24h1v1H5zM6 24h1v1H6zM26 24h1v1H26zM27 24h1v1H27zM9 27h1v1H9zM10 27h1v1H10zM11 27h1v1H11zM21 27h1v1H21zM22 27h1v1H22zM23 27h1v1H23zM5 28h1v1H5zM6 28h1v1H6zM10 28h1v1H10zM11 28h1v1H11zM21 28h1v1H21zM22 28h1v1H22zM26 28h1v1H26zM27 28h1v1H27zM5 29h1v1H5zM6 29h1v1H6zM10 29h1v1H10zM11 29h1v1H11zM21 29h1v1H21zM22 29h1v1H22zM26 29h1v1H26zM27 29h1v1H27z"/><path fill="#6a47c5" d="M27 1h1v1H27zM27 2h1v1H27zM26 3h1v1H26zM27 3h1v1H27zM28 3h1v1H28zM4 4h1v1H4zM5 4h1v1H5zM22 4h1v1H22zM23 4h1v1H23zM24 4h1v1H24zM7 5h1v1H7zM8 5h1v1H8zM21 5h1v1H21zM22 5h1v1H22zM23 5h1v1H23zM24 5h1v1H24zM27 5h1v1H27zM28 5h1v1H28zM29 5h1v1H29zM4 6h1v1H4zM7 6h1v1H7zM8 6h1v1H8zM18 6h1v1H18zM22 6h1v1H22zM27 6h1v1H27zM5 7h1v1H5zM6 7h1v1H6zM15 7h1v1H15zM16 7h1v1H16zM17 7h1v1H17zM18 7h1v1H18zM25 7h1v1H25zM26 7h1v1H26zM5 8h1v1H5zM6 8h1v1H6zM16 8h1v1H16zM17 8h1v1H17zM25 8h1v1H25zM26 8h1v1H26zM10 9h1v1H10zM11 9h1v1H11zM5 10h1v1H5zM6 10h1v1H6zM10 10h1v1H10zM11 10h1v1H11zM12 10h1v1H12zM17 10h1v1H17zM5 11h1v1H5zM6 11h1v1H6zM11 11h1v1H11zM12 11h1v1H12zM15 11h1v1H15zM16 11h1v1H16zM17 11h1v1H17zM18 11h1v1H18zM4 12h1v1H4zM15 12h1v1H15zM16 12h1v1H16zM2 13h1v1H2zM3 13h1v1H3zM4 13h1v1H4zM7 13h1v1H7zM25 13h1v1H25zM7 14h1v1H7zM8 14h1v1H8zM9 14h1v1H9zM11 14h1v1H11zM12 14h1v1H12zM13 14h1v1H13zM14 14h1v1H14zM15 14h1v1H15zM25 14h1v1H25zM26 14h1v1H26zM28 14h1v1H28zM3 15h1v1H3zM4 15h1v1H4zM5 15h1v1H5zM12 15h1v1H12zM13 15h1v1H13zM14 15h1v1H14zM19 15h1v1H19zM20 15h1v1H20zM27 15h1v1H27zM28 15h1v1H28zM4 16h1v1H4zM19 16h1v1H19zM20 16h1v1H20zM23 16h1v1H23zM24 16h1v1H24zM27 16h1v1H27zM28 16h1v1H28zM29 16h1v1H29zM30 16h1v1H30zM4 17h1v1H4zM11 17h1v1H11zM25 17h1v1H25zM10 18h1v1H10zM14 18h1v1H14zM8 22h1v1H8zM9 22h1v1H9zM23 22h1v1H23zM24 22h1v1H24zM13 23h1v1H13zM14 23h1v1H14zM23 23h1v1H23zM24 23h1v1H24zM7 24h1v1H7zM13 24h1v1H13zM14 24h1v1H14zM15 24h1v1H15zM16 24h1v1H16zM25 24h1v1H25zM5 25h1v1H5zM6 25h1v1H6zM7 25h1v1H7zM14 25h1v1H14zM15 25h1v1H15zM16 25h1v1H16zM17 25h1v1H17zM18 25h1v1H18zM20 25h1v1H20zM21 25h1v1H21zM22 25h1v1H22zM25 25h1v1H25zM26 25h1v1H26zM27 25h1v1H27zM10 26h1v1H10zM11 26h1v1H11zM12 26h1v1H12zM15 26h1v1H15zM16 26h1v1H16zM17 26h1v1H17zM20 26h1v1H20zM21 26h1v1H21zM22 26h1v1H22zM6 27h1v1H6zM7 27h1v1H7zM8 27h1v1H8zM24 27h1v1H24zM25 27h1v1H25zM26 27h1v1H26zM7 28h1v1H7zM25 28h1v1H25zM7 29h1v1H7zM25 29h1v1H25z"/><path fill="#3a8a5a" d="M2 2h1v1H2zM29 10h1v1H29z"/><path fill="#368a5d" d="M2 3h1v1H2zM30 3h1v1H30zM2 4h1v1H2zM30 4h1v1H30zM2 5h1v1H2zM30 5h1v1H30zM4 8h1v1H4zM27 8h1v1H27zM28 8h1v1H28zM4 9h1v1H4zM5 9h1v1H5zM26 11h1v1H26zM29 11h1v1H29zM29 12h1v1H29zM29 13h1v1H29zM4 20h1v1H4zM26 20h1v1H26zM1 21h1v1H1zM2 21h1v1H2zM26 21h1v1H26zM26 22h1v1H26zM27 22h1v1H27zM4 23h1v1H4zM3 24h1v1H3zM29 24h1v1H29zM30 24h1v1H30zM2 26h1v1H2zM2 27h1v1H2zM2 28h1v1H2z"/><path fill="#ccb8ff" d="M12 3h1v1H12zM13 3h1v1H13zM11 4h1v1H11zM12 4h1v1H12zM13 4h1v1H13zM10 5h1v1H10zM11 5h1v1H11zM12 5h1v1H12zM16 5h1v1H16zM17 5h1v1H17zM10 6h1v1H10zM11 6h1v1H11zM16 6h1v1H16zM17 6h1v1H17zM20 6h1v1H20zM21 6h1v1H21zM20 7h1v1H20zM21 7h1v1H21zM7 8h1v1H7zM8 8h1v1H8zM14 8h1v1H14zM15 8h1v1H15zM7 9h1v1H7zM8 9h1v1H8zM9 9h1v1H9zM14 9h1v1H14zM15 9h1v1H15zM18 9h1v1H18zM19 9h1v1H19zM21 9h1v1H21zM22 9h1v1H22zM8 10h1v1H8zM9 10h1v1H9zM18 10h1v1H18zM19 10h1v1H19zM21 10h1v1H21zM22 10h1v1H22zM23 10h1v1H23zM22 11h1v1H22zM23 11h1v1H23zM6 12h1v1H6zM25 12h1v1H25zM5 13h1v1H5zM6 13h1v1H6zM8 13h1v1H8zM9 13h1v1H9zM11 13h1v1H11zM12 13h1v1H12zM13 13h1v1H13zM14 13h1v1H14zM15 13h1v1H15zM16 13h1v1H16zM17 13h1v1H17zM18 13h1v1H18zM19 13h1v1H19zM20 13h1v1H20zM22 13h1v1H22zM23 13h1v1H23zM5 14h1v1H5zM6 14h1v1H6zM25 15h1v1H25zM26 15h1v1H26zM25 16h1v1H25zM26 16h1v1H26zM7 20h1v1H7zM8 20h1v1H8zM7 21h1v1H7zM8 21h1v1H8zM10 24h1v1H10zM11 24h1v1H11zM8 25h1v1H8zM9 25h1v1H9zM10 25h1v1H10zM11 25h1v1H11zM23 25h1v1H23zM24 25h1v1H24zM8 26h1v1H8zM9 26h1v1H9zM23 26h1v1H23zM24 26h1v1H24z"/><path fill="#381478" d="M25 4h1v1H25zM26 4h1v1H26zM5 5h1v1H5zM6 5h1v1H6zM25 5h1v1H25zM26 5h1v1H26zM5 6h1v1H5zM6 6h1v1H6zM24 6h1v1H24zM25 6h1v1H25zM26 6h1v1H26zM7 7h1v1H7zM24 7h1v1H24zM7 11h1v1H7zM5 12h1v1H5zM7 12h1v1H7zM4 14h1v1H4zM10 14h1v1H10zM16 14h1v1H16zM17 14h1v1H17zM18 14h1v1H18zM19 14h1v1H19zM20 14h1v1H20zM23 14h1v1H23zM24 14h1v1H24zM9 15h1v1H9zM10 15h1v1H10zM11 15h1v1H11zM15 15h1v1H15zM16 15h1v1H16zM17 15h1v1H17zM18 15h1v1H18zM21 15h1v1H21zM22 15h1v1H22zM23 15h1v1H23zM24 15h1v1H24zM5 16h1v1H5zM6 16h1v1H6zM9 16h1v1H9zM10 16h1v1H10zM11 16h1v1H11zM12 16h1v1H12zM13 16h1v1H13zM14 16h1v1H14zM15 16h1v1H15zM16 16h1v1H16zM17 16h1v1H17zM18 16h1v1H18zM21 16h1v1H21zM22 16h1v1H22zM6 17h1v1H6zM9 17h1v1H9zM10 17h1v1H10zM14 17h1v1H14zM15 17h1v1H15zM16 17h1v1H16zM17 17h1v1H17zM20 17h1v1H20zM21 17h1v1H21zM22 17h1v1H22zM6 18h1v1H6zM7 18h1v1H7zM8 18h1v1H8zM9 18h1v1H9zM15 18h1v1H15zM16 18h1v1H16zM17 18h1v1H17zM21 18h1v1H21zM25 18h1v1H25zM6 19h1v1H6zM7 19h1v1H7zM8 19h1v1H8zM14 19h1v1H14zM15 19h1v1H15zM16 19h1v1H16zM17 19h1v1H17zM21 19h1v1H21zM24 19h1v1H24zM25 19h1v1H25zM6 20h1v1H6zM14 20h1v1H14zM15 20h1v1H15zM16 20h1v1H16zM17 20h1v1H17zM21 20h1v1H21zM22 20h1v1H22zM23 20h1v1H23zM24 20h1v1H24zM25 20h1v1H25zM6 21h1v1H6zM9 21h1v1H9zM12 21h1v1H12zM13 21h1v1H13zM14 21h1v1H14zM15 21h1v1H15zM16 21h1v1H16zM17 21h1v1H17zM18 21h1v1H18zM19 21h1v1H19zM20 21h1v1H20zM21 21h1v1H21zM22 21h1v1H22zM23 21h1v1H23zM24 21h1v1H24zM25 21h1v1H25zM6 22h1v1H6zM7 22h1v1H7zM10 22h1v1H10zM11 22h1v1H11zM12 22h1v1H12zM13 22h1v1H13zM14 22h1v1H14zM15 22h1v1H15zM16 22h1v1H16zM17 22h1v1H17zM18 22h1v1H18zM19 22h1v1H19zM20 22h1v1H20zM21 22h1v1H21zM22 22h1v1H22zM25 22h1v1H25zM7 23h1v1H7zM8 23h1v1H8zM9 23h1v1H9zM10 23h1v1H10zM11 23h1v1H11zM12 23h1v1H12zM15 23h1v1H15zM16 23h1v1H16zM17 23h1v1H17zM18 23h1v1H18zM19 23h1v1H19zM20 23h1v1H20zM21 23h1v1H21zM22 23h1v1H22zM25 23h1v1H25zM8 24h1v1H8zM9 24h1v1H9zM12 24h1v1H12zM17 24h1v1H17zM18 24h1v1H18zM19 24h1v1H19zM20 24h1v1H20zM21 24h1v1H21zM22 24h1v1H22zM23 24h1v1H23zM24 24h1v1H24zM12 25h1v1H12zM13 25h1v1H13zM19 25h1v1H19zM7 26h1v1H7zM13 26h1v1H13zM14 26h1v1H14zM18 26h1v1H18zM19 26h1v1H19zM25 26h1v1H25zM26 26h1v1H26z"/><path fill="#12632f" d="M3 5h1v1H3zM30 6h1v1H30zM27 7h1v1H27zM3 8h1v1H3zM27 11h1v1H27zM28 13h1v1H28zM27 14h1v1H27zM5 17h1v1H5zM4 18h1v1H4zM5 18h1v1H5zM3 19h1v1H3zM4 19h1v1H4zM5 19h1v1H5zM2 20h1v1H2zM3 20h1v1H3zM5 20h1v1H5zM3 21h1v1H3zM27 21h1v1H27zM28 22h1v1H28zM28 23h1v1H28zM29 23h1v1H29zM4 24h1v1H4zM28 24h1v1H28zM2 25h1v1H2zM3 25h1v1H3zM4 25h1v1H4zM3 26h1v1H3z"/><path fill="#965cff" d="M9 5h1v1H9zM13 5h1v1H13zM14 5h1v1H14zM15 5h1v1H15zM18 5h1v1H18zM19 5h1v1H19zM20 5h1v1H20zM9 6h1v1H9zM12 6h1v1H12zM13 6h1v1H13zM14 6h1v1H14zM15 6h1v1H15zM19 6h1v1H19zM23 6h1v1H23zM8 7h1v1H8zM9 7h1v1H9zM10 7h1v1H10zM11 7h1v1H11zM12 7h1v1H12zM13 7h1v1H13zM14 7h1v1H14zM19 7h1v1H19zM22 7h1v1H22zM23 7h1v1H23zM9 8h1v1H9zM10 8h1v1H10zM11 8h1v1H11zM12 8h1v1H12zM13 8h1v1H13zM18 8h1v1H18zM19 8h1v1H19zM20 8h1v1H20zM21 8h1v1H21zM22 8h1v1H22zM23 8h1v1H23zM24 8h1v1H24zM6 9h1v1H6zM12 9h1v1H12zM13 9h1v1H13zM16 9h1v1H16zM17 9h1v1H17zM20 9h1v1H20zM23 9h1v1H23zM24 9h1v1H24zM25 9h1v1H25zM7 10h1v1H7zM13 10h1v1H13zM14 10h1v1H14zM15 10h1v1H15zM16 10h1v1H16zM20 10h1v1H20zM24 10h1v1H24zM25 10h1v1H25zM8 11h1v1H8zM9 11h1v1H9zM10 11h1v1H10zM13 11h1v1H13zM14 11h1v1H14zM19 11h1v1H19zM20 11h1v1H20zM21 11h1v1H21zM24 11h1v1H24zM8 12h1v1H8zM9 12h1v1H9zM10 12h1v1H10zM11 12h1v1H11zM12 12h1v1H12zM13 12h1v1H13zM14 12h1v1H14zM17 12h1v1H17zM18 12h1v1H18zM19 12h1v1H19zM20 12h1v1H20zM21 12h1v1H21zM22 12h1v1H22zM23 12h1v1H23zM24 12h1v1H24zM10 13h1v1H10zM24 13h1v1H24z"/><path fill="#4cad66" d="M26 9h1v1H26zM27 9h1v1H27zM26 10h1v1H26zM27 10h1v1H27zM5 21h1v1H5zM5 22h1v1H5z"/><path fill="#af87ff" d="M25 11h1v1H25z"/><path fill="#a87dff" d="M26 12h1v1H26zM27 12h1v1H27zM26 13h1v1H26zM27 13h1v1H27zM29 14h1v1H29zM30 14h1v1H30zM29 15h1v1H29zM30 15h1v1H30zM26 17h1v1H26zM27 17h1v1H27zM28 17h1v1H28zM26 18h1v1H26zM27 18h1v1H27zM28 18h1v1H28zM29 18h1v1H29zM27 19h1v1H27zM28 19h1v1H28zM29 19h1v1H29z"/><path fill="#876ae8" d="M21 13h1v1H21zM21 14h1v1H21zM22 14h1v1H22z"/><path fill="#ffffff" d="M12 17h1v1H12zM18 17h1v1H18zM11 18h1v1H11zM13 18h1v1H13zM19 18h1v1H19zM20 18h1v1H20zM11 19h1v1H11zM20 19h1v1H20zM11 20h1v1H11zM20 20h1v1H20z"/><path fill="#0e0e14" d="M13 17h1v1H13zM19 17h1v1H19zM12 18h1v1H12zM18 18h1v1H18zM12 19h1v1H12zM13 19h1v1H13zM18 19h1v1H18zM19 19h1v1H19zM12 20h1v1H12zM13 20h1v1H13zM18 20h1v1H18zM19 20h1v1H19z"/></svg>
