<svg xmlns="http://www.w3.org/2000/svg" viewBox="0 0 32 32" shape-rendering="crispEdges"><path fill="#8af4cb" d="M14 1h1v1H14zM15 1h1v1H15zM16 1h1v1H16zM17 1h1v1H17zM9 2h1v1H9zM10 2h1v1H10zM11 2h1v1H11zM13 2h1v1H13zM18 2h1v1H18zM20 2h1v1H20zM21 2h1v1H21zM22 2h1v1H22zM8 3h1v1H8zM23 3h1v1H23zM8 4h1v1H8zM23 4h1v1H23zM6 5h1v1H6zM7 5h1v1H7zM24 5h1v1H24zM25 5h1v1H25zM26 5h1v1H26zM26 6h1v1H26zM27 6h1v1H27zM4 7h1v1H4zM27 7h1v1H27z"/><path fill="#e49fed" d="M14 2h1v1H14zM15 2h1v1H15zM16 2h1v1H16zM17 2h1v1H17zM9 3h1v1H9zM10 3h1v1H10zM11 3h1v1H11zM13 3h1v1H13zM18 3h1v1H18zM20 3h1v1H20zM21 3h1v1H21zM22 3h1v1H22zM9 4h1v1H9zM22 4h1v1H22zM7 6h1v1H7zM24 6h1v1H24zM25 6h1v1H25zM6 7h1v1H6zM7 7h1v1H7zM24 7h1v1H24zM25 7h1v1H25zM26 7h1v1H26zM5 8h1v1H5zM6 8h1v1H6zM25 8h1v1H25zM26 8h1v1H26z"/><path fill="#f5d544" d="M28 2h1v1H28zM27 3h1v1H27zM29 3h1v1H29zM28 4h1v1H28zM5 5h1v1H5zM4 6h1v1H4zM6 6h1v1H6zM5 7h1v1H5zM10 12h1v1H10zM9 13h1v1H9zM11 13h1v1H11zM10 14h1v1H10zM24 16h1v1H24zM23 17h1v1H23zM25 17h1v1H25zM24 18h1v1H24zM5 21h1v1H5zM4 22h1v1H4zM6 22h1v1H6zM5 23h1v1H5z"/><path fill="#57e4bf" d="M12 3h1v1H12zM19 3h1v1H19zM12 4h1v1H12zM19 4h1v1H19zM8 5h1v1H8zM23 5h1v1H23zM8 6h1v1H8zM23 6h1v1H23zM8 7h1v1H8zM23 7h1v1H23zM4 8h1v1H4zM8 8h1v1H8zM23 8h1v1H23zM27 8h1v1H27zM5 9h1v1H5zM26 9h1v1H26zM6 10h1v1H6zM25 10h1v1H25z"/><path fill="#faf8fd" d="M14 3h1v1H14zM15 3h1v1H15zM16 3h1v1H16zM17 3h1v1H17zM13 4h1v1H13zM14 4h1v1H14zM15 4h1v1H15zM16 4h1v1H16zM17 4h1v1H17zM18 4h1v1H18zM12 5h1v1H12zM13 5h1v1H13zM14 5h1v1H14zM15 5h1v1H15zM16 5h1v1H16zM17 5h1v1H17zM18 5h1v1H18zM19 5h1v1H19zM11 6h1v1H11zM12 6h1v1H12zM13 6h1v1H13zM14 6h1v1H14zM15 6h1v1H15zM16 6h1v1H16zM17 6h1v1H17zM18 6h1v1H18zM19 6h1v1H19zM20 6h1v1H20zM11 7h1v1H11zM13 7h1v1H13zM14 7h1v1H14zM15 7h1v1H15zM16 7h1v1H16zM17 7h1v1H17zM18 7h1v1H18zM20 7h1v1H20zM11 8h1v1H11zM14 8h1v1H14zM15 8h1v1H15zM16 8h1v1H16zM17 8h1v1H17zM20 8h1v1H20zM11 9h1v1H11zM20 9h1v1H20z"/><path fill="#fffdd2" d="M28 3h1v1H28zM5 6h1v1H5zM10 13h1v1H10zM24 17h1v1H24zM5 22h1v1H5z"/><path fill="#f1b0dd" d="M10 4h1v1H10zM11 4h1v1H11zM20 4h1v1H20zM21 4h1v1H21zM9 5h1v1H9zM10 5h1v1H10zM11 5h1v1H11zM20 5h1v1H20zM21 5h1v1H21zM22 5h1v1H22zM7 8h1v1H7zM24 8h1v1H24zM6 9h1v1H6zM7 9h1v1H7zM24 9h1v1H24zM25 9h1v1H25z"/><path fill="#f7c0cd" d="M9 6h1v1H9zM10 6h1v1H10zM21 6h1v1H21zM22 6h1v1H22zM9 7h1v1H9zM10 7h1v1H10zM21 7h1v1H21zM22 7h1v1H22z"/><path fill="#f4def0" d="M12 7h1v1H12zM19 7h1v1H19zM13 8h1v1H13zM18 8h1v1H18zM14 9h1v1H14zM15 9h1v1H15zM16 9h1v1H16zM17 9h1v1H17zM12 10h1v1H12zM15 10h1v1H15zM16 10h1v1H16zM19 10h1v1H19zM13 11h1v1H13zM18 11h1v1H18zM14 12h1v1H14zM15 12h1v1H15zM16 12h1v1H16zM17 12h1v1H17z"/><path fill="#f196ca" d="M9 8h1v1H9zM10 8h1v1H10zM21 8h1v1H21zM22 8h1v1H22zM8 9h1v1H8zM23 9h1v1H23zM7 10h1v1H7zM24 10h1v1H24z"/><path fill="#eecdec" d="M12 8h1v1H12zM19 8h1v1H19zM12 9h1v1H12zM13 9h1v1H13zM18 9h1v1H18zM19 9h1v1H19zM13 10h1v1H13zM14 10h1v1H14zM17 10h1v1H17zM18 10h1v1H18zM14 11h1v1H14zM15 11h1v1H15zM16 11h1v1H16zM17 11h1v1H17z"/><path fill="#3005e5" d="M2 9h1v1H2zM4 9h1v1H4zM27 9h1v1H27zM29 9h1v1H29zM2 10h1v1H2zM4 10h1v1H4zM5 10h1v1H5zM26 10h1v1H26zM27 10h1v1H27zM29 10h1v1H29zM2 11h1v1H2zM4 11h1v1H4zM5 11h1v1H5zM26 11h1v1H26zM27 11h1v1H27zM29 11h1v1H29zM2 12h1v1H2zM3 12h1v1H3zM4 12h1v1H4zM5 12h1v1H5zM26 12h1v1H26zM27 12h1v1H27zM28 12h1v1H28zM29 12h1v1H29zM4 13h1v1H4zM5 13h1v1H5zM26 13h1v1H26zM27 13h1v1H27zM5 14h1v1H5zM26 14h1v1H26zM2 15h1v1H2zM5 15h1v1H5zM26 15h1v1H26zM29 15h1v1H29z"/><path fill="#f62c8a" d="M9 9h1v1H9zM10 9h1v1H10zM21 9h1v1H21zM22 9h1v1H22zM8 10h1v1H8zM9 10h1v1H9zM10 10h1v1H10zM11 10h1v1H11zM20 10h1v1H20zM21 10h1v1H21zM22 10h1v1H22zM23 10h1v1H23zM8 11h1v1H8zM9 11h1v1H9zM10 11h1v1H10zM11 11h1v1H11zM12 11h1v1H12zM19 11h1v1H19zM20 11h1v1H20zM21 11h1v1H21zM22 11h1v1H22zM23 11h1v1H23zM11 12h1v1H11zM12 12h1v1H12zM13 12h1v1H13zM18 12h1v1H18zM19 12h1v1H19zM20 12h1v1H20zM21 12h1v1H21zM12 13h1v1H12zM13 13h1v1H13zM14 13h1v1H14zM15 13h1v1H15zM16 13h1v1H16zM17 13h1v1H17zM18 13h1v1H18zM19 13h1v1H19z"/><path fill="#d7deeb" d="M6 11h1v1H6zM25 11h1v1H25zM6 14h1v1H6zM25 14h1v1H25zM6 15h1v1H6zM25 15h1v1H25z"/><path fill="#e5f6ff" d="M7 11h1v1H7zM24 11h1v1H24zM7 12h1v1H7zM8 12h1v1H8zM9 12h1v1H9zM22 12h1v1H22zM23 12h1v1H23zM24 12h1v1H24zM7 13h1v1H7zM20 13h1v1H20zM21 13h1v1H21zM24 13h1v1H24zM12 14h1v1H12zM13 14h1v1H13zM14 14h1v1H14zM15 14h1v1H15zM16 14h1v1H16zM17 14h1v1H17zM18 14h1v1H18zM19 14h1v1H19zM8 15h1v1H8zM9 15h1v1H9zM7 16h1v1H7zM9 16h1v1H9zM10 16h1v1H10zM20 16h1v1H20zM7 17h1v1H7zM8 17h1v1H8zM9 17h1v1H9zM10 17h1v1H10zM22 17h1v1H22zM8 18h1v1H8zM9 18h1v1H9zM23 21h1v1H23zM21 22h1v1H21z"/><path fill="#ffffff" d="M6 12h1v1H6zM25 12h1v1H25zM8 13h1v1H8zM22 13h1v1H22zM23 13h1v1H23zM22 14h1v1H22zM21 15h1v1H21zM22 15h1v1H22zM23 15h1v1H23zM2 16h1v1H2zM3 16h1v1H3zM6 16h1v1H6zM8 16h1v1H8zM22 16h1v1H22zM25 16h1v1H25zM28 16h1v1H28zM29 16h1v1H29zM2 17h1v1H2zM3 17h1v1H3zM12 17h1v1H12zM18 17h1v1H18zM28 17h1v1H28zM29 17h1v1H29zM3 18h1v1H3zM4 18h1v1H4zM11 18h1v1H11zM13 18h1v1H13zM19 18h1v1H19zM20 18h1v1H20zM27 18h1v1H27zM28 18h1v1H28zM3 19h1v1H3zM4 19h1v1H4zM11 19h1v1H11zM20 19h1v1H20zM27 19h1v1H27zM28 19h1v1H28zM11 20h1v1H11zM20 20h1v1H20zM6 23h1v1H6zM25 23h1v1H25zM26 23h1v1H26zM5 24h1v1H5zM6 24h1v1H6zM7 24h1v1H7zM24 24h1v1H24zM25 24h1v1H25zM26 24h1v1H26zM6 25h1v1H6zM7 25h1v1H7zM8 25h1v1H8zM9 25h1v1H9zM22 25h1v1H22zM23 25h1v1H23zM24 25h1v1H24zM25 25h1v1H25zM8 26h1v1H8zM9 26h1v1H9zM11 26h1v1H11zM12 26h1v1H12zM19 26h1v1H19zM20 26h1v1H20zM22 26h1v1H22zM23 26h1v1H23zM11 27h1v1H11zM12 27h1v1H12zM19 27h1v1H19zM20 27h1v1H20z"/><path fill="#9e0afd" d="M2 13h1v1H2zM29 13h1v1H29zM3 14h1v1H3zM28 14h1v1H28zM4 15h1v1H4zM27 15h1v1H27zM6 17h1v1H6zM6 18h1v1H6zM25 18h1v1H25zM14 19h1v1H14zM17 19h1v1H17zM5 20h1v1H5zM26 20h1v1H26zM15 21h1v1H15zM16 21h1v1H16zM26 21h1v1H26zM10 23h1v1H10zM21 23h1v1H21zM8 24h1v1H8zM23 24h1v1H23zM6 26h1v1H6zM25 26h1v1H25zM8 27h1v1H8zM13 27h1v1H13zM18 27h1v1H18zM23 27h1v1H23zM10 28h1v1H10zM21 28h1v1H21z"/><path fill="#f00fff" d="M3 13h1v1H3zM28 13h1v1H28zM2 14h1v1H2zM4 14h1v1H4zM27 14h1v1H27zM29 14h1v1H29zM3 15h1v1H3zM28 15h1v1H28zM4 16h1v1H4zM5 16h1v1H5zM26 16h1v1H26zM27 16h1v1H27zM4 17h1v1H4zM5 17h1v1H5zM26 17h1v1H26zM27 17h1v1H27zM5 18h1v1H5zM26 18h1v1H26zM5 19h1v1H5zM6 19h1v1H6zM25 19h1v1H25zM26 19h1v1H26zM4 20h1v1H4zM6 20h1v1H6zM14 20h1v1H14zM17 20h1v1H17zM25 20h1v1H25zM27 20h1v1H27zM4 21h1v1H4zM6 21h1v1H6zM7 21h1v1H7zM9 21h1v1H9zM14 21h1v1H14zM17 21h1v1H17zM22 21h1v1H22zM24 21h1v1H24zM25 21h1v1H25zM27 21h1v1H27zM7 22h1v1H7zM8 22h1v1H8zM9 22h1v1H9zM11 22h1v1H11zM13 22h1v1H13zM14 22h1v1H14zM15 22h1v1H15zM16 22h1v1H16zM17 22h1v1H17zM18 22h1v1H18zM20 22h1v1H20zM22 22h1v1H22zM23 22h1v1H23zM24 22h1v1H24zM25 22h1v1H25zM26 22h1v1H26zM27 22h1v1H27zM7 23h1v1H7zM8 23h1v1H8zM9 23h1v1H9zM11 23h1v1H11zM12 23h1v1H12zM13 23h1v1H13zM14 23h1v1H14zM15 23h1v1H15zM16 23h1v1H16zM17 23h1v1H17zM18 23h1v1H18zM19 23h1v1H19zM20 23h1v1H20zM22 23h1v1H22zM23 23h1v1H23zM24 23h1v1H24zM9 24h1v1H9zM10 24h1v1H10zM11 24h1v1H11zM12 24h1v1H12zM13 24h1v1H13zM14 24h1v1H14zM15 24h1v1H15zM16 24h1v1H16zM17 24h1v1H17zM18 24h1v1H18zM19 24h1v1H19zM20 24h1v1H20zM21 24h1v1H21zM22 24h1v1H22zM10 25h1v1H10zM11 25h1v1H11zM12 25h1v1H12zM13 25h1v1H13zM14 25h1v1H14zM15 25h1v1H15zM16 25h1v1H16zM17 25h1v1H17zM18 25h1v1H18zM19 25h1v1H19zM20 25h1v1H20zM21 25h1v1H21zM7 26h1v1H7zM10 26h1v1H10zM13 26h1v1H13zM14 26h1v1H14zM15 26h1v1H15zM16 26h1v1H16zM17 26h1v1H17zM18 26h1v1H18zM21 26h1v1H21zM24 26h1v1H24zM9 27h1v1H9zM10 27h1v1H10zM14 27h1v1H14zM17 27h1v1H17zM21 27h1v1H21zM22 27h1v1H22zM11 28h1v1H11zM12 28h1v1H12zM19 28h1v1H19zM20 28h1v1H20z"/><path fill="#9b9da5" d="M6 13h1v1H6zM25 13h1v1H25z"/><path fill="#9598ae" d="M7 14h1v1H7zM9 14h1v1H9zM7 15h1v1H7zM10 15h1v1H10zM11 15h1v1H11zM12 15h1v1H12zM13 15h1v1H13zM14 15h1v1H14zM17 15h1v1H17zM18 15h1v1H18zM19 15h1v1H19zM20 15h1v1H20zM11 16h1v1H11zM12 16h1v1H12zM13 16h1v1H13zM21 16h1v1H21zM23 16h1v1H23zM7 18h1v1H7zM23 18h1v1H23zM7 19h1v1H7zM8 19h1v1H8zM23 19h1v1H23zM24 19h1v1H24zM7 20h1v1H7zM22 20h1v1H22zM23 20h1v1H23zM24 20h1v1H24z"/><path fill="#55586e" d="M8 14h1v1H8zM11 14h1v1H11zM20 14h1v1H20zM21 14h1v1H21zM23 14h1v1H23zM24 14h1v1H24zM15 15h1v1H15zM16 15h1v1H16zM24 15h1v1H24zM14 16h1v1H14zM15 16h1v1H15zM16 16h1v1H16zM17 16h1v1H17zM18 16h1v1H18zM19 16h1v1H19zM11 17h1v1H11zM14 17h1v1H14zM15 17h1v1H15zM16 17h1v1H16zM17 17h1v1H17zM20 17h1v1H20zM21 17h1v1H21zM10 18h1v1H10zM14 18h1v1H14zM15 18h1v1H15zM16 18h1v1H16zM17 18h1v1H17zM21 18h1v1H21zM22 18h1v1H22zM9 19h1v1H9zM10 19h1v1H10zM15 19h1v1H15zM16 19h1v1H16zM21 19h1v1H21zM22 19h1v1H22zM8 20h1v1H8zM9 20h1v1H9zM10 20h1v1H10zM15 20h1v1H15zM16 20h1v1H16zM21 20h1v1H21zM8 21h1v1H8zM10 21h1v1H10zM11 21h1v1H11zM12 21h1v1H12zM13 21h1v1H13zM18 21h1v1H18zM19 21h1v1H19zM20 21h1v1H20zM21 21h1v1H21zM10 22h1v1H10zM12 22h1v1H12zM19 22h1v1H19z"/><path fill="#0e0e14" d="M13 17h1v1H13zM19 17h1v1H19zM12 18h1v1H12zM18 18h1v1H18zM12 19h1v1H12zM13 19h1v1H13zM18 19h1v1H18zM19 19h1v1H19zM12 20h1v1H12zM13 20h1v1H13zM18 20h1v1H18zM19 20h1v1H19z"/><path fill="#e900ff" d="M5 25h1v1H5zM26 25h1v1H26z"/></svg>
