<svg xmlns="http://www.w3.org/2000/svg" viewBox="0 0 32 32" shape-rendering="crispEdges"><path fill="#e60932" d="M10 4h1v1H10zM11 4h1v1H11zM20 4h1v1H20zM21 4h1v1H21zM9 5h1v1H9zM10 5h1v1H10zM21 5h1v1H21zM22 5h1v1H22zM7 6h1v1H7zM8 6h1v1H8zM9 6h1v1H9zM22 6h1v1H22zM23 6h1v1H23zM24 6h1v1H24zM6 7h1v1H6zM9 7h1v1H9zM22 7h1v1H22zM25 7h1v1H25zM5 8h1v1H5zM6 8h1v1H6zM10 8h1v1H10zM21 8h1v1H21zM25 8h1v1H25zM26 8h1v1H26zM4 9h1v1H4zM9 9h1v1H9zM10 9h1v1H10zM21 9h1v1H21zM22 9h1v1H22zM27 9h1v1H27zM3 10h1v1H3zM28 10h1v1H28zM3 11h1v1H3zM28 11h1v1H28zM2 12h1v1H2zM29 12h1v1H29zM2 13h1v1H2zM6 13h1v1H6zM12 13h1v1H12zM19 13h1v1H19zM25 13h1v1H25zM29 13h1v1H29zM2 14h1v1H2zM6 14h1v1H6zM13 14h1v1H13zM14 14h1v1H14zM15 14h1v1H15zM16 14h1v1H16zM17 14h1v1H17zM18 14h1v1H18zM25 14h1v1H25zM29 14h1v1H29zM2 15h1v1H2zM6 15h1v1H6zM25 15h1v1H25zM29 15h1v1H29zM2 16h1v1H2zM6 16h1v1H6zM25 16h1v1H25zM29 16h1v1H29zM6 17h1v1H6zM25 17h1v1H25zM6 18h1v1H6zM25 18h1v1H25z"/><path fill="#da283f" d="M12 4h1v1H12zM13 4h1v1H13zM14 4h1v1H14zM15 4h1v1H15zM16 4h1v1H16zM17 4h1v1H17zM18 4h1v1H18zM19 4h1v1H19z"/><path fill="#fd5f66" d="M11 5h1v1H11zM20 5h1v1H20zM11 6h1v1H11zM12 6h1v1H12zM13 6h1v1H13zM14 6h1v1H14zM15 6h1v1H15zM16 6h1v1H16zM17 6h1v1H17zM18 6h1v1H18zM19 6h1v1H19zM20 6h1v1H20zM10 7h1v1H10zM21 7h1v1H21zM11 8h1v1H11zM20 8h1v1H20zM11 9h1v1H11zM12 9h1v1H12zM13 9h1v1H13zM14 9h1v1H14zM15 9h1v1H15zM16 9h1v1H16zM17 9h1v1H17zM18 9h1v1H18zM19 9h1v1H19zM20 9h1v1H20zM10 10h1v1H10zM21 10h1v1H21zM9 11h1v1H9zM22 11h1v1H22zM8 12h1v1H8zM23 12h1v1H23zM8 13h1v1H8zM23 13h1v1H23zM8 14h1v1H8zM23 14h1v1H23zM8 15h1v1H8zM23 15h1v1H23zM9 16h1v1H9zM22 16h1v1H22z"/><path fill="#fed2d2" d="M12 5h1v1H12zM13 5h1v1H13zM14 5h1v1H14zM15 5h1v1H15zM16 5h1v1H16zM17 5h1v1H17zM18 5h1v1H18zM19 5h1v1H19zM10 6h1v1H10zM21 6h1v1H21zM12 8h1v1H12zM13 8h1v1H13zM14 8h1v1H14zM15 8h1v1H15zM16 8h1v1H16zM17 8h1v1H17zM18 8h1v1H18zM19 8h1v1H19zM9 10h1v1H9zM22 10h1v1H22zM8 11h1v1H8zM12 11h1v1H12zM19 11h1v1H19zM23 11h1v1H23zM3 12h1v1H3zM11 12h1v1H11zM12 12h1v1H12zM19 12h1v1H19zM20 12h1v1H20zM28 12h1v1H28zM3 13h1v1H3zM13 13h1v1H13zM14 13h1v1H14zM15 13h1v1H15zM16 13h1v1H16zM17 13h1v1H17zM18 13h1v1H18zM28 13h1v1H28zM3 14h1v1H3zM7 14h1v1H7zM24 14h1v1H24zM28 14h1v1H28zM7 15h1v1H7zM24 15h1v1H24zM7 16h1v1H7zM8 16h1v1H8zM23 16h1v1H23zM24 16h1v1H24zM9 17h1v1H9zM10 17h1v1H10zM21 17h1v1H21zM22 17h1v1H22zM4 21h1v1H4zM5 21h1v1H5zM26 21h1v1H26zM27 21h1v1H27zM4 22h1v1H4zM5 22h1v1H5zM26 22h1v1H26zM27 22h1v1H27z"/><path fill="#fd8788" d="M7 7h1v1H7zM24 7h1v1H24zM7 8h1v1H7zM24 8h1v1H24zM5 9h1v1H5zM26 9h1v1H26zM4 10h1v1H4zM5 10h1v1H5zM6 10h1v1H6zM25 10h1v1H25zM26 10h1v1H26zM27 10h1v1H27zM4 11h1v1H4zM5 11h1v1H5zM26 11h1v1H26zM27 11h1v1H27zM4 12h1v1H4zM27 12h1v1H27zM4 13h1v1H4zM27 13h1v1H27zM4 14h1v1H4zM27 14h1v1H27zM4 15h1v1H4zM27 15h1v1H27z"/><path fill="#fd6b6f" d="M8 7h1v1H8zM23 7h1v1H23zM6 9h1v1H6zM25 9h1v1H25zM4 16h1v1H4zM27 16h1v1H27z"/><path fill="#910110" d="M11 7h1v1H11zM12 7h1v1H12zM13 7h1v1H13zM14 7h1v1H14zM15 7h1v1H15zM16 7h1v1H16zM17 7h1v1H17zM18 7h1v1H18zM19 7h1v1H19zM20 7h1v1H20zM8 10h1v1H8zM23 10h1v1H23zM7 11h1v1H7zM11 11h1v1H11zM20 11h1v1H20zM24 11h1v1H24zM7 12h1v1H7zM13 12h1v1H13zM14 12h1v1H14zM15 12h1v1H15zM16 12h1v1H16zM17 12h1v1H17zM18 12h1v1H18zM24 12h1v1H24zM7 13h1v1H7zM10 13h1v1H10zM21 13h1v1H21zM24 13h1v1H24zM10 14h1v1H10zM11 14h1v1H11zM20 14h1v1H20zM21 14h1v1H21zM10 15h1v1H10zM11 15h1v1H11zM12 15h1v1H12zM19 15h1v1H19zM20 15h1v1H20zM21 15h1v1H21zM10 16h1v1H10zM11 16h1v1H11zM12 16h1v1H12zM13 16h1v1H13zM14 16h1v1H14zM15 16h1v1H15zM16 16h1v1H16zM17 16h1v1H17zM18 16h1v1H18zM19 16h1v1H19zM20 16h1v1H20zM21 16h1v1H21zM2 17h1v1H2zM11 17h1v1H11zM14 17h1v1H14zM15 17h1v1H15zM16 17h1v1H16zM17 17h1v1H17zM20 17h1v1H20zM29 17h1v1H29zM3 18h1v1H3zM14 18h1v1H14zM15 18h1v1H15zM16 18h1v1H16zM17 18h1v1H17zM28 18h1v1H28zM4 19h1v1H4zM5 19h1v1H5zM6 19h1v1H6zM7 19h1v1H7zM14 19h1v1H14zM17 19h1v1H17zM24 19h1v1H24zM25 19h1v1H25zM26 19h1v1H26zM27 19h1v1H27zM8 20h1v1H8zM23 20h1v1H23zM9 21h1v1H9zM10 21h1v1H10zM12 21h1v1H12zM13 21h1v1H13zM18 21h1v1H18zM19 21h1v1H19zM21 21h1v1H21zM22 21h1v1H22zM10 22h1v1H10zM21 22h1v1H21zM11 23h1v1H11zM20 23h1v1H20zM12 24h1v1H12zM13 24h1v1H13zM18 24h1v1H18zM19 24h1v1H19zM15 25h1v1H15zM16 25h1v1H16zM13 26h1v1H13zM14 26h1v1H14zM17 26h1v1H17zM18 26h1v1H18zM9 27h1v1H9zM10 27h1v1H10zM11 27h1v1H11zM12 27h1v1H12zM13 27h1v1H13zM18 27h1v1H18zM19 27h1v1H19zM20 27h1v1H20zM21 27h1v1H21zM22 27h1v1H22z"/><path fill="#f33646" d="M8 8h1v1H8zM9 8h1v1H9zM22 8h1v1H22zM23 8h1v1H23zM7 9h1v1H7zM8 9h1v1H8zM23 9h1v1H23zM24 9h1v1H24zM7 10h1v1H7zM11 10h1v1H11zM20 10h1v1H20zM24 10h1v1H24zM6 11h1v1H6zM10 11h1v1H10zM13 11h1v1H13zM14 11h1v1H14zM15 11h1v1H15zM16 11h1v1H16zM17 11h1v1H17zM18 11h1v1H18zM21 11h1v1H21zM25 11h1v1H25zM5 12h1v1H5zM6 12h1v1H6zM9 12h1v1H9zM10 12h1v1H10zM21 12h1v1H21zM22 12h1v1H22zM25 12h1v1H25zM26 12h1v1H26zM5 13h1v1H5zM9 13h1v1H9zM11 13h1v1H11zM20 13h1v1H20zM22 13h1v1H22zM26 13h1v1H26zM5 14h1v1H5zM9 14h1v1H9zM12 14h1v1H12zM19 14h1v1H19zM22 14h1v1H22zM26 14h1v1H26zM3 15h1v1H3zM5 15h1v1H5zM9 15h1v1H9zM13 15h1v1H13zM14 15h1v1H14zM15 15h1v1H15zM16 15h1v1H16zM17 15h1v1H17zM18 15h1v1H18zM22 15h1v1H22zM26 15h1v1H26zM28 15h1v1H28zM3 16h1v1H3zM5 16h1v1H5zM26 16h1v1H26zM28 16h1v1H28zM3 17h1v1H3zM4 17h1v1H4zM5 17h1v1H5zM7 17h1v1H7zM8 17h1v1H8zM23 17h1v1H23zM24 17h1v1H24zM26 17h1v1H26zM27 17h1v1H27zM28 17h1v1H28zM4 18h1v1H4zM5 18h1v1H5zM7 18h1v1H7zM8 18h1v1H8zM9 18h1v1H9zM22 18h1v1H22zM23 18h1v1H23zM24 18h1v1H24zM26 18h1v1H26zM27 18h1v1H27zM8 19h1v1H8zM9 19h1v1H9zM22 19h1v1H22zM23 19h1v1H23zM3 20h1v1H3zM4 20h1v1H4zM5 20h1v1H5zM6 20h1v1H6zM7 20h1v1H7zM9 20h1v1H9zM22 20h1v1H22zM24 20h1v1H24zM25 20h1v1H25zM26 20h1v1H26zM27 20h1v1H27zM28 20h1v1H28zM3 21h1v1H3zM8 21h1v1H8zM11 21h1v1H11zM20 21h1v1H20zM23 21h1v1H23zM28 21h1v1H28zM3 22h1v1H3zM9 22h1v1H9zM11 22h1v1H11zM12 22h1v1H12zM13 22h1v1H13zM14 22h1v1H14zM15 22h1v1H15zM16 22h1v1H16zM17 22h1v1H17zM18 22h1v1H18zM19 22h1v1H19zM20 22h1v1H20zM22 22h1v1H22zM28 22h1v1H28zM4 23h1v1H4zM10 23h1v1H10zM12 23h1v1H12zM13 23h1v1H13zM14 23h1v1H14zM15 23h1v1H15zM16 23h1v1H16zM17 23h1v1H17zM18 23h1v1H18zM19 23h1v1H19zM21 23h1v1H21zM27 23h1v1H27zM5 24h1v1H5zM11 24h1v1H11zM14 24h1v1H14zM15 24h1v1H15zM16 24h1v1H16zM17 24h1v1H17zM20 24h1v1H20zM26 24h1v1H26zM6 25h1v1H6zM13 25h1v1H13zM14 25h1v1H14zM17 25h1v1H17zM18 25h1v1H18zM25 25h1v1H25zM7 26h1v1H7zM8 26h1v1H8zM9 26h1v1H9zM10 26h1v1H10zM11 26h1v1H11zM12 26h1v1H12zM19 26h1v1H19zM20 26h1v1H20zM21 26h1v1H21zM22 26h1v1H22zM23 26h1v1H23zM24 26h1v1H24z"/><path fill="#cd122c" d="M12 10h1v1H12zM13 10h1v1H13zM14 10h1v1H14zM15 10h1v1H15zM16 10h1v1H16zM17 10h1v1H17zM18 10h1v1H18zM19 10h1v1H19zM15 19h1v1H15zM16 19h1v1H16zM14 20h1v1H14zM15 20h1v1H15zM16 20h1v1H16zM17 20h1v1H17zM14 21h1v1H14zM15 21h1v1H15zM16 21h1v1H16zM17 21h1v1H17z"/><path fill="#ffffff" d="M12 17h1v1H12zM18 17h1v1H18zM11 18h1v1H11zM13 18h1v1H13zM19 18h1v1H19zM20 18h1v1H20zM11 19h1v1H11zM20 19h1v1H20zM11 20h1v1H11zM20 20h1v1H20z"/><path fill="#0e0e14" d="M13 17h1v1H13zM19 17h1v1H19zM12 18h1v1H12zM18 18h1v1H18zM12 19h1v1H12zM13 19h1v1H13zM18 19h1v1H18zM19 19h1v1H19zM12 20h1v1H12zM13 20h1v1H13zM18 20h1v1H18zM19 20h1v1H19z"/><path fill="#fd898b" d="M10 18h1v1H10zM21 18h1v1H21zM10 19h1v1H10zM21 19h1v1H21zM10 20h1v1H10zM21 20h1v1H21z"/><path fill="#fd5e66" d="M6 21h1v1H6zM7 21h1v1H7zM24 21h1v1H24zM25 21h1v1H25zM6 22h1v1H6zM7 22h1v1H7zM8 22h1v1H8zM23 22h1v1H23zM24 22h1v1H24zM25 22h1v1H25zM5 23h1v1H5zM6 23h1v1H6zM7 23h1v1H7zM8 23h1v1H8zM9 23h1v1H9zM22 23h1v1H22zM23 23h1v1H23zM24 23h1v1H24zM25 23h1v1H25zM26 23h1v1H26zM6 24h1v1H6zM7 24h1v1H7zM8 24h1v1H8zM9 24h1v1H9zM10 24h1v1H10zM21 24h1v1H21zM22 24h1v1H22zM23 24h1v1H23zM24 24h1v1H24zM25 24h1v1H25zM7 25h1v1H7zM8 25h1v1H8zM9 25h1v1H9zM10 25h1v1H10zM11 25h1v1H11zM12 25h1v1H12zM19 25h1v1H19zM20 25h1v1H20zM21 25h1v1H21zM22 25h1v1H22zM23 25h1v1H23zM24 25h1v1H24z"/></svg>
