<svg xmlns="http://www.w3.org/2000/svg" viewBox="0 0 32 32" shape-rendering="crispEdges"><path fill="#f54c45" d="M9 5h1v1H9zM10 5h1v1H10zM11 5h1v1H11zM12 5h1v1H12zM13 5h1v1H13zM18 5h1v1H18zM19 5h1v1H19zM20 5h1v1H20zM21 5h1v1H21zM22 5h1v1H22zM9 6h1v1H9zM10 6h1v1H10zM11 6h1v1H11zM12 6h1v1H12zM13 6h1v1H13zM18 6h1v1H18zM19 6h1v1H19zM20 6h1v1H20zM21 6h1v1H21zM22 6h1v1H22zM8 7h1v1H8zM9 7h1v1H9zM10 7h1v1H10zM11 7h1v1H11zM12 7h1v1H12zM13 7h1v1H13zM14 7h1v1H14zM15 7h1v1H15zM16 7h1v1H16zM17 7h1v1H17zM18 7h1v1H18zM19 7h1v1H19zM20 7h1v1H20zM21 7h1v1H21zM22 7h1v1H22zM23 7h1v1H23zM6 8h1v1H6zM7 8h1v1H7zM8 8h1v1H8zM9 8h1v1H9zM10 8h1v1H10zM11 8h1v1H11zM12 8h1v1H12zM13 8h1v1H13zM14 8h1v1H14zM15 8h1v1H15zM16 8h1v1H16zM17 8h1v1H17zM18 8h1v1H18zM19 8h1v1H19zM20 8h1v1H20zM21 8h1v1H21zM22 8h1v1H22zM23 8h1v1H23zM24 8h1v1H24zM25 8h1v1H25zM6 9h1v1H6zM7 9h1v1H7zM10 9h1v1H10zM11 9h1v1H11zM12 9h1v1H12zM13 9h1v1H13zM14 9h1v1H14zM15 9h1v1H15zM16 9h1v1H16zM17 9h1v1H17zM18 9h1v1H18zM19 9h1v1H19zM20 9h1v1H20zM21 9h1v1H21zM24 9h1v1H24zM25 9h1v1H25zM6 10h1v1H6zM13 10h1v1H13zM14 10h1v1H14zM15 10h1v1H15zM16 10h1v1H16zM17 10h1v1H17zM18 10h1v1H18zM25 10h1v1H25zM6 11h1v1H6zM25 11h1v1H25z"/><path fill="#c21f2e" d="M8 6h1v1H8zM14 6h1v1H14zM17 6h1v1H17zM23 6h1v1H23zM12 11h1v1H12zM11 12h1v1H11zM12 12h1v1H12zM13 12h1v1H13zM21 12h1v1H21zM10 13h1v1H10zM11 13h1v1H11zM12 13h1v1H12zM14 13h1v1H14zM15 13h1v1H15zM16 13h1v1H16zM17 13h1v1H17zM18 13h1v1H18zM20 13h1v1H20zM21 13h1v1H21zM7 14h1v1H7zM9 14h1v1H9zM10 14h1v1H10zM11 14h1v1H11zM12 14h1v1H12zM13 14h1v1H13zM14 14h1v1H14zM15 14h1v1H15zM16 14h1v1H16zM17 14h1v1H17zM18 14h1v1H18zM19 14h1v1H19zM20 14h1v1H20zM21 14h1v1H21zM22 14h1v1H22zM7 15h1v1H7zM9 15h1v1H9zM10 15h1v1H10zM11 15h1v1H11zM12 15h1v1H12zM13 15h1v1H13zM14 15h1v1H14zM15 15h1v1H15zM16 15h1v1H16zM17 15h1v1H17zM18 15h1v1H18zM19 15h1v1H19zM20 15h1v1H20zM21 15h1v1H21zM22 15h1v1H22zM7 16h1v1H7zM9 16h1v1H9zM10 16h1v1H10zM11 16h1v1H11zM12 16h1v1H12zM13 16h1v1H13zM14 16h1v1H14zM15 16h1v1H15zM16 16h1v1H16zM17 16h1v1H17zM18 16h1v1H18zM19 16h1v1H19zM20 16h1v1H20zM21 16h1v1H21zM22 16h1v1H22zM9 17h1v1H9zM10 17h1v1H10zM11 17h1v1H11zM14 17h1v1H14zM15 17h1v1H15zM16 17h1v1H16zM17 17h1v1H17zM20 17h1v1H20zM21 17h1v1H21zM22 17h1v1H22zM9 18h1v1H9zM10 18h1v1H10zM14 18h1v1H14zM15 18h1v1H15zM16 18h1v1H16zM17 18h1v1H17zM21 18h1v1H21zM22 18h1v1H22zM10 19h1v1H10zM14 19h1v1H14zM15 19h1v1H15zM16 19h1v1H16zM17 19h1v1H17zM21 19h1v1H21zM14 20h1v1H14zM15 20h1v1H15zM16 20h1v1H16zM17 20h1v1H17zM12 21h1v1H12zM13 21h1v1H13zM14 21h1v1H14zM15 21h1v1H15zM16 21h1v1H16zM17 21h1v1H17zM18 21h1v1H18zM19 21h1v1H19zM15 22h1v1H15zM16 22h1v1H16zM17 23h1v1H17z"/><path fill="#e83730" d="M7 7h1v1H7zM24 7h1v1H24z"/><path fill="#ffaea4" d="M8 9h1v1H8zM9 9h1v1H9zM22 9h1v1H22zM23 9h1v1H23zM7 10h1v1H7zM11 10h1v1H11zM12 10h1v1H12zM19 10h1v1H19zM20 10h1v1H20zM24 10h1v1H24zM14 11h1v1H14zM15 11h1v1H15zM16 11h1v1H16zM17 11h1v1H17z"/><path fill="#c5202e" d="M8 10h1v1H8z"/><path fill="#c6212f" d="M9 10h1v1H9z"/><path fill="#c4212f" d="M10 10h1v1H10z"/><path fill="#c31f2f" d="M21 10h1v1H21zM22 13h1v1H22z"/><path fill="#c5202d" d="M22 10h1v1H22z"/><path fill="#c31f2d" d="M23 10h1v1H23zM22 11h1v1H22z"/><path fill="#b40c1a" d="M7 11h1v1H7zM24 11h1v1H24zM6 12h1v1H6zM25 12h1v1H25zM6 18h1v1H6zM25 18h1v1H25zM13 25h1v1H13zM18 25h1v1H18z"/><path fill="#c3202e" d="M8 11h1v1H8zM22 12h1v1H22z"/><path fill="#c5202f" d="M9 11h1v1H9z"/><path fill="#c4202e" d="M10 11h1v1H10z"/><path fill="#c41f2f" d="M11 11h1v1H11zM7 12h1v1H7z"/><path fill="#c11e2d" d="M13 11h1v1H13zM14 12h1v1H14zM23 12h1v1H23zM24 13h1v1H24zM25 13h1v1H25zM8 17h1v1H8zM23 17h1v1H23zM25 17h1v1H25zM8 18h1v1H8zM23 18h1v1H23zM24 18h1v1H24zM7 19h1v1H7zM9 19h1v1H9zM8 20h1v1H8zM11 21h1v1H11zM21 21h1v1H21zM12 22h1v1H12zM13 22h1v1H13zM11 23h1v1H11zM13 23h1v1H13zM14 23h1v1H14zM18 23h1v1H18zM13 24h1v1H13zM14 24h1v1H14zM16 24h1v1H16z"/><path fill="#c31f2e" d="M18 11h1v1H18zM19 11h1v1H19zM20 11h1v1H20zM21 11h1v1H21zM23 11h1v1H23zM8 12h1v1H8zM9 12h1v1H9zM10 12h1v1H10zM7 13h1v1H7zM9 13h1v1H9zM13 13h1v1H13z"/><path fill="#c11f2e" d="M15 12h1v1H15zM24 14h1v1H24zM24 15h1v1H24zM24 16h1v1H24zM7 17h1v1H7zM24 17h1v1H24z"/><path fill="#c11e2e" d="M16 12h1v1H16zM25 14h1v1H25zM25 15h1v1H25zM25 16h1v1H25zM20 21h1v1H20z"/><path fill="#c01f2e" d="M17 12h1v1H17zM8 19h1v1H8zM11 22h1v1H11z"/><path fill="#c21e2e" d="M18 12h1v1H18zM6 13h1v1H6zM23 14h1v1H23zM23 15h1v1H23zM23 16h1v1H23zM6 17h1v1H6zM9 20h1v1H9zM21 20h1v1H21zM10 21h1v1H10zM20 22h1v1H20z"/><path fill="#c21f2d" d="M19 12h1v1H19zM19 13h1v1H19z"/><path fill="#c21e2d" d="M20 12h1v1H20zM8 13h1v1H8zM6 14h1v1H6zM6 15h1v1H6zM6 16h1v1H6zM9 21h1v1H9zM12 23h1v1H12z"/><path fill="#c11f2d" d="M24 12h1v1H24zM23 13h1v1H23zM8 14h1v1H8zM8 15h1v1H8zM8 16h1v1H8zM22 19h1v1H22z"/><path fill="#ffffff" d="M12 17h1v1H12zM18 17h1v1H18zM11 18h1v1H11zM13 18h1v1H13zM19 18h1v1H19zM20 18h1v1H20zM11 19h1v1H11zM20 19h1v1H20zM11 20h1v1H11zM20 20h1v1H20z"/><path fill="#0e0e14" d="M13 17h1v1H13zM19 17h1v1H19zM12 18h1v1H12zM18 18h1v1H18zM12 19h1v1H12zM13 19h1v1H13zM18 19h1v1H18zM19 19h1v1H19zM12 20h1v1H12zM13 20h1v1H13zM18 20h1v1H18zM19 20h1v1H19z"/><path fill="#c21f2f" d="M7 18h1v1H7z"/><path fill="#9d0814" d="M6 19h1v1H6zM25 19h1v1H25zM12 25h1v1H12zM19 25h1v1H19zM14 26h1v1H14zM15 26h1v1H15zM16 26h1v1H16zM17 26h1v1H17z"/><path fill="#c01d2c" d="M23 19h1v1H23zM10 20h1v1H10zM17 24h1v1H17z"/><path fill="#bf1d2c" d="M24 19h1v1H24z"/><path fill="#c01e2e" d="M7 20h1v1H7zM24 20h1v1H24zM8 21h1v1H8zM23 21h1v1H23zM9 22h1v1H9zM17 22h1v1H17zM18 22h1v1H18zM19 22h1v1H19zM22 22h1v1H22zM10 23h1v1H10zM19 23h1v1H19zM21 23h1v1H21zM11 24h1v1H11zM20 24h1v1H20z"/><path fill="#c11d2c" d="M22 20h1v1H22zM10 22h1v1H10zM16 25h1v1H16z"/><path fill="#c01c2c" d="M23 20h1v1H23z"/><path fill="#c01d2d" d="M22 21h1v1H22zM14 22h1v1H14z"/><path fill="#c01e2c" d="M21 22h1v1H21zM15 24h1v1H15zM18 24h1v1H18zM15 25h1v1H15z"/><path fill="#c01e2d" d="M15 23h1v1H15zM20 23h1v1H20zM19 24h1v1H19zM14 25h1v1H14zM17 25h1v1H17z"/><path fill="#c11d2d" d="M16 23h1v1H16z"/><path fill="#c01c2d" d="M12 24h1v1H12z"/></svg>
