<svg xmlns="http://www.w3.org/2000/svg" viewBox="0 0 32 32" shape-rendering="crispEdges"><path fill="#000000" d="M15 0h1v1H15zM16 0h1v1H16zM17 1h1v1H17zM13 2h1v1H13zM18 2h1v1H18zM11 3h1v1H11zM13 3h1v1H13zM18 3h1v1H18zM20 3h1v1H20zM8 4h1v1H8zM12 4h1v1H12zM19 4h1v1H19zM23 4h1v1H23zM6 5h1v1H6zM8 5h1v1H8zM23 5h1v1H23zM25 5h1v1H25zM7 6h1v1H7zM14 6h1v1H14zM24 6h1v1H24zM13 7h1v1H13zM14 7h1v1H14zM17 7h1v1H17zM18 7h1v1H18zM13 8h1v1H13zM18 8h1v1H18zM12 9h1v1H12zM17 9h1v1H17zM19 9h1v1H19zM4 10h1v1H4zM13 10h1v1H13zM18 10h1v1H18zM27 10h1v1H27zM5 11h1v1H5zM7 11h1v1H7zM13 11h1v1H13zM18 11h1v1H18zM24 11h1v1H24zM26 11h1v1H26zM9 12h1v1H9zM10 12h1v1H10zM14 12h1v1H14zM17 12h1v1H17zM21 12h1v1H21zM22 12h1v1H22zM6 13h1v1H6zM9 13h1v1H9zM10 13h1v1H10zM11 13h1v1H11zM15 13h1v1H15zM20 13h1v1H20zM21 13h1v1H21zM22 13h1v1H22zM25 13h1v1H25zM9 14h1v1H9zM10 14h1v1H10zM11 14h1v1H11zM12 14h1v1H12zM19 14h1v1H19zM20 14h1v1H20zM21 14h1v1H21zM22 14h1v1H22zM5 15h1v1H5zM6 15h1v1H6zM9 15h1v1H9zM10 15h1v1H10zM11 15h1v1H11zM12 15h1v1H12zM13 15h1v1H13zM18 15h1v1H18zM19 15h1v1H19zM20 15h1v1H20zM21 15h1v1H21zM22 15h1v1H22zM25 15h1v1H25zM26 15h1v1H26zM9 16h1v1H9zM13 16h1v1H13zM14 16h1v1H14zM17 16h1v1H17zM18 16h1v1H18zM22 16h1v1H22zM6 17h1v1H6zM9 17h1v1H9zM12 17h1v1H12zM14 17h1v1H14zM16 17h1v1H16zM17 17h1v1H17zM19 17h1v1H19zM22 17h1v1H22zM25 17h1v1H25zM7 18h1v1H7zM9 18h1v1H9zM12 18h1v1H12zM13 18h1v1H13zM14 18h1v1H14zM16 18h1v1H16zM17 18h1v1H17zM18 18h1v1H18zM19 18h1v1H19zM22 18h1v1H22zM24 18h1v1H24zM7 19h1v1H7zM8 19h1v1H8zM9 19h1v1H9zM13 19h1v1H13zM14 19h1v1H14zM15 19h1v1H15zM17 19h1v1H17zM18 19h1v1H18zM22 19h1v1H22zM23 19h1v1H23zM24 19h1v1H24zM7 20h1v1H7zM9 20h1v1H9zM14 20h1v1H14zM15 20h1v1H15zM17 20h1v1H17zM22 20h1v1H22zM24 20h1v1H24zM7 21h1v1H7zM9 21h1v1H9zM10 21h1v1H10zM14 21h1v1H14zM15 21h1v1H15zM17 21h1v1H17zM21 21h1v1H21zM22 21h1v1H22zM24 21h1v1H24zM10 22h1v1H10zM11 22h1v1H11zM14 22h1v1H14zM17 22h1v1H17zM20 22h1v1H20zM21 22h1v1H21zM10 23h1v1H10zM11 23h1v1H11zM12 23h1v1H12zM13 23h1v1H13zM18 23h1v1H18zM19 23h1v1H19zM20 23h1v1H20zM21 23h1v1H21zM9 24h1v1H9zM11 24h1v1H11zM12 24h1v1H12zM14 24h1v1H14zM17 24h1v1H17zM19 24h1v1H19zM20 24h1v1H20zM22 24h1v1H22zM13 25h1v1H13zM18 25h1v1H18zM13 26h1v1H13zM18 26h1v1H18zM7 27h1v1H7zM12 27h1v1H12zM14 27h1v1H14zM17 27h1v1H17zM19 27h1v1H19zM24 27h1v1H24zM6 28h1v1H6zM9 28h1v1H9zM15 28h1v1H15zM16 28h1v1H16zM22 28h1v1H22zM25 28h1v1H25zM6 29h1v1H6zM10 29h1v1H10zM21 29h1v1H21zM25 29h1v1H25z"/><path fill="#7d000a" d="M14 1h1v1H14zM17 5h1v1H17zM9 7h1v1H9zM22 7h1v1H22zM14 9h1v1H14zM12 10h1v1H12zM14 10h1v1H14zM19 10h1v1H19zM8 13h1v1H8zM12 13h1v1H12zM19 13h1v1H19zM23 13h1v1H23zM13 14h1v1H13zM18 14h1v1H18zM14 15h1v1H14zM17 15h1v1H17zM5 16h1v1H5zM26 16h1v1H26zM6 18h1v1H6zM25 18h1v1H25zM7 23h1v1H7zM24 23h1v1H24zM8 24h1v1H8zM23 24h1v1H23zM16 25h1v1H16zM17 25h1v1H17zM3 26h1v1H3zM16 26h1v1H16zM28 26h1v1H28z"/><path fill="#c2b3b1" d="M15 1h1v1H15zM16 1h1v1H16zM13 4h1v1H13zM18 4h1v1H18zM12 6h1v1H12zM19 6h1v1H19zM15 7h1v1H15zM6 8h1v1H6zM14 8h1v1H14zM17 8h1v1H17zM25 8h1v1H25zM13 9h1v1H13zM18 9h1v1H18zM3 11h1v1H3zM28 11h1v1H28zM4 12h1v1H4zM7 12h1v1H7zM24 12h1v1H24zM27 12h1v1H27zM5 13h1v1H5zM26 13h1v1H26zM4 17h1v1H4zM5 17h1v1H5zM26 17h1v1H26zM27 17h1v1H27zM16 22h1v1H16zM6 23h1v1H6zM9 23h1v1H9zM14 23h1v1H14zM17 23h1v1H17zM22 23h1v1H22zM25 23h1v1H25zM3 24h1v1H3zM4 24h1v1H4zM7 24h1v1H7zM24 24h1v1H24zM27 24h1v1H27zM28 24h1v1H28zM3 25h1v1H3zM28 25h1v1H28z"/><path fill="#960004" d="M10 2h1v1H10zM21 2h1v1H21zM5 4h1v1H5zM26 4h1v1H26zM8 6h1v1H8zM23 6h1v1H23z"/><path fill="#cf1116" d="M14 2h1v1H14zM10 3h1v1H10zM15 3h1v1H15zM21 3h1v1H21zM16 4h1v1H16zM5 5h1v1H5zM26 5h1v1H26zM4 6h1v1H4zM27 6h1v1H27zM4 7h1v1H4zM8 7h1v1H8zM23 7h1v1H23zM27 7h1v1H27zM4 8h1v1H4zM8 8h1v1H8zM16 8h1v1H16zM23 8h1v1H23zM27 8h1v1H27zM15 9h1v1H15zM16 9h1v1H16zM5 10h1v1H5zM15 10h1v1H15zM16 10h1v1H16zM17 10h1v1H17zM26 10h1v1H26zM12 11h1v1H12zM16 11h1v1H16zM19 11h1v1H19zM11 12h1v1H11zM20 12h1v1H20zM8 15h1v1H8zM23 15h1v1H23zM8 16h1v1H8zM16 16h1v1H16zM23 16h1v1H23zM10 18h1v1H10zM15 18h1v1H15zM21 18h1v1H21zM6 19h1v1H6zM16 19h1v1H16zM25 19h1v1H25zM3 20h1v1H3zM8 20h1v1H8zM12 20h1v1H12zM16 20h1v1H16zM19 20h1v1H19zM23 20h1v1H23zM28 20h1v1H28zM4 22h1v1H4zM27 22h1v1H27zM3 23h1v1H3zM28 23h1v1H28zM6 24h1v1H6zM16 24h1v1H16zM25 24h1v1H25zM6 25h1v1H6zM15 25h1v1H15zM25 25h1v1H25zM15 26h1v1H15zM16 27h1v1H16zM14 28h1v1H14zM17 28h1v1H17z"/><path fill="#ad0103" d="M15 2h1v1H15zM15 4h1v1H15zM16 5h1v1H16zM17 6h1v1H17zM16 7h1v1H16zM10 8h1v1H10zM15 8h1v1H15zM21 8h1v1H21zM11 9h1v1H11zM20 9h1v1H20zM15 11h1v1H15zM16 12h1v1H16zM16 13h1v1H16zM8 14h1v1H8zM23 14h1v1H23zM15 16h1v1H15zM10 17h1v1H10zM15 17h1v1H15zM21 17h1v1H21zM3 19h1v1H3zM12 19h1v1H12zM19 19h1v1H19zM28 19h1v1H28zM4 20h1v1H4zM27 20h1v1H27zM5 21h1v1H5zM16 21h1v1H16zM26 21h1v1H26zM6 22h1v1H6zM15 22h1v1H15zM25 22h1v1H25zM5 23h1v1H5zM15 23h1v1H15zM26 23h1v1H26zM9 25h1v1H9zM14 25h1v1H14zM22 25h1v1H22zM5 26h1v1H5zM10 26h1v1H10zM21 26h1v1H21zM26 26h1v1H26zM13 27h1v1H13zM15 27h1v1H15zM18 27h1v1H18zM15 29h1v1H15zM16 29h1v1H16z"/><path fill="#2e2e2f" d="M16 2h1v1H16zM17 2h1v1H17zM14 3h1v1H14zM16 3h1v1H16zM17 3h1v1H17zM10 4h1v1H10zM14 4h1v1H14zM17 4h1v1H17zM21 4h1v1H21zM10 5h1v1H10zM11 5h1v1H11zM14 5h1v1H14zM15 5h1v1H15zM20 5h1v1H20zM21 5h1v1H21zM5 6h1v1H5zM10 6h1v1H10zM15 6h1v1H15zM16 6h1v1H16zM21 6h1v1H21zM26 6h1v1H26zM6 7h1v1H6zM11 7h1v1H11zM20 7h1v1H20zM25 7h1v1H25zM7 8h1v1H7zM12 8h1v1H12zM19 8h1v1H19zM24 8h1v1H24zM5 9h1v1H5zM9 9h1v1H9zM22 9h1v1H22zM26 9h1v1H26zM7 10h1v1H7zM10 10h1v1H10zM21 10h1v1H21zM24 10h1v1H24zM4 11h1v1H4zM9 11h1v1H9zM10 11h1v1H10zM21 11h1v1H21zM22 11h1v1H22zM27 11h1v1H27zM8 12h1v1H8zM23 12h1v1H23zM4 14h1v1H4zM27 14h1v1H27zM7 16h1v1H7zM24 16h1v1H24zM4 19h1v1H4zM5 19h1v1H5zM26 19h1v1H26zM27 19h1v1H27zM5 20h1v1H5zM26 20h1v1H26zM16 23h1v1H16zM5 24h1v1H5zM13 24h1v1H13zM18 24h1v1H18zM26 24h1v1H26zM4 25h1v1H4zM10 25h1v1H10zM21 25h1v1H21zM27 25h1v1H27zM4 26h1v1H4zM27 26h1v1H27zM7 28h1v1H7zM24 28h1v1H24zM8 29h1v1H8zM23 29h1v1H23z"/><path fill="#3a0002" d="M9 3h1v1H9zM22 3h1v1H22zM4 5h1v1H4zM27 5h1v1H27zM10 9h1v1H10zM21 9h1v1H21zM10 16h1v1H10zM21 16h1v1H21zM13 20h1v1H13zM18 20h1v1H18zM5 29h1v1H5zM26 29h1v1H26z"/><path fill="#494548" d="M9 4h1v1H9zM22 4h1v1H22zM9 5h1v1H9zM22 5h1v1H22zM11 6h1v1H11zM20 6h1v1H20zM5 7h1v1H5zM26 7h1v1H26zM5 8h1v1H5zM9 8h1v1H9zM22 8h1v1H22zM26 8h1v1H26zM6 9h1v1H6zM25 9h1v1H25zM6 10h1v1H6zM11 10h1v1H11zM20 10h1v1H20zM25 10h1v1H25zM8 11h1v1H8zM23 11h1v1H23zM13 12h1v1H13zM18 12h1v1H18zM3 13h1v1H3zM4 13h1v1H4zM14 13h1v1H14zM17 13h1v1H17zM27 13h1v1H27zM28 13h1v1H28zM5 14h1v1H5zM7 14h1v1H7zM24 14h1v1H24zM26 14h1v1H26zM7 15h1v1H7zM24 15h1v1H24zM3 17h1v1H3zM28 17h1v1H28zM3 18h1v1H3zM4 18h1v1H4zM27 18h1v1H27zM28 18h1v1H28zM8 21h1v1H8zM23 21h1v1H23zM9 22h1v1H9zM22 22h1v1H22zM4 23h1v1H4zM8 23h1v1H8zM23 23h1v1H23zM27 23h1v1H27zM5 25h1v1H5zM26 25h1v1H26zM11 26h1v1H11zM20 26h1v1H20z"/><path fill="#121114" d="M11 4h1v1H11zM20 4h1v1H20zM12 5h1v1H12zM19 5h1v1H19zM6 6h1v1H6zM9 6h1v1H9zM22 6h1v1H22zM25 6h1v1H25zM3 7h1v1H3zM7 7h1v1H7zM10 7h1v1H10zM21 7h1v1H21zM24 7h1v1H24zM28 7h1v1H28zM3 8h1v1H3zM11 8h1v1H11zM20 8h1v1H20zM28 8h1v1H28zM3 9h1v1H3zM28 9h1v1H28zM2 10h1v1H2zM3 10h1v1H3zM28 10h1v1H28zM29 10h1v1H29zM3 14h1v1H3zM28 14h1v1H28zM2 15h1v1H2zM3 15h1v1H3zM4 15h1v1H4zM27 15h1v1H27zM28 15h1v1H28zM29 15h1v1H29zM2 16h1v1H2zM29 16h1v1H29zM2 17h1v1H2zM29 17h1v1H29zM3 21h1v1H3zM28 21h1v1H28zM3 22h1v1H3zM28 22h1v1H28zM2 23h1v1H2zM29 23h1v1H29zM7 26h1v1H7zM24 26h1v1H24zM8 27h1v1H8zM23 27h1v1H23zM3 28h1v1H3zM10 28h1v1H10zM12 28h1v1H12zM19 28h1v1H19zM21 28h1v1H21zM28 28h1v1H28zM4 29h1v1H4zM11 29h1v1H11zM20 29h1v1H20zM27 29h1v1H27z"/><path fill="#7f7f7f" d="M13 5h1v1H13zM18 5h1v1H18zM12 7h1v1H12zM19 7h1v1H19zM7 9h1v1H7zM8 9h1v1H8zM23 9h1v1H23zM24 9h1v1H24zM8 10h1v1H8zM9 10h1v1H9zM22 10h1v1H22zM23 10h1v1H23zM3 12h1v1H3zM28 12h1v1H28zM7 13h1v1H7zM24 13h1v1H24zM15 14h1v1H15zM3 16h1v1H3zM4 16h1v1H4zM27 16h1v1H27zM28 16h1v1H28zM5 18h1v1H5zM26 18h1v1H26zM4 21h1v1H4zM27 21h1v1H27zM5 22h1v1H5zM8 22h1v1H8zM23 22h1v1H23zM26 22h1v1H26zM10 24h1v1H10zM21 24h1v1H21zM8 25h1v1H8zM11 25h1v1H11zM20 25h1v1H20zM23 25h1v1H23zM9 26h1v1H9zM22 26h1v1H22z"/><path fill="#1b1a1e" d="M13 6h1v1H13zM18 6h1v1H18zM15 15h1v1H15z"/><path fill="#480002" d="M4 9h1v1H4zM27 9h1v1H27zM6 11h1v1H6zM25 11h1v1H25zM6 12h1v1H6zM25 12h1v1H25zM5 28h1v1H5zM26 28h1v1H26z"/><path fill="#09090a" d="M2 11h1v1H2zM29 11h1v1H29zM2 12h1v1H2zM29 12h1v1H29zM2 13h1v1H2zM29 13h1v1H29zM2 18h1v1H2zM29 18h1v1H29zM2 19h1v1H2zM29 19h1v1H29zM2 20h1v1H2zM29 20h1v1H29zM2 24h1v1H2zM29 24h1v1H29zM2 25h1v1H2zM29 25h1v1H29zM2 26h1v1H2zM29 26h1v1H29z"/><path fill="#18181a" d="M11 11h1v1H11zM20 11h1v1H20zM12 12h1v1H12zM19 12h1v1H19zM13 13h1v1H13zM18 13h1v1H18zM6 14h1v1H6zM14 14h1v1H14zM17 14h1v1H17zM25 14h1v1H25zM6 21h1v1H6zM25 21h1v1H25z"/><path fill="#4e0d0d" d="M14 11h1v1H14zM17 11h1v1H17zM15 12h1v1H15zM16 14h1v1H16zM16 15h1v1H16zM15 24h1v1H15zM6 26h1v1H6zM14 26h1v1H14zM17 26h1v1H17zM25 26h1v1H25zM4 27h1v1H4zM11 27h1v1H11zM20 27h1v1H20zM27 27h1v1H27zM8 28h1v1H8zM11 28h1v1H11zM20 28h1v1H20zM23 28h1v1H23zM7 29h1v1H7zM9 29h1v1H9zM22 29h1v1H22zM24 29h1v1H24z"/><path fill="#271f1f" d="M5 12h1v1H5zM26 12h1v1H26zM10 27h1v1H10zM21 27h1v1H21z"/><path fill="#131215" d="M6 16h1v1H6zM25 16h1v1H25zM7 17h1v1H7zM24 17h1v1H24zM8 18h1v1H8zM23 18h1v1H23zM12 25h1v1H12zM19 25h1v1H19z"/><path fill="#ffffff" d="M11 16h1v1H11zM12 16h1v1H12zM19 16h1v1H19zM20 16h1v1H20zM11 17h1v1H11zM13 17h1v1H13zM18 17h1v1H18zM20 17h1v1H20zM11 18h1v1H11zM20 18h1v1H20zM10 19h1v1H10zM11 19h1v1H11zM20 19h1v1H20zM21 19h1v1H21zM10 20h1v1H10zM11 20h1v1H11zM20 20h1v1H20zM21 20h1v1H21zM11 21h1v1H11zM12 21h1v1H12zM19 21h1v1H19zM20 21h1v1H20zM12 22h1v1H12zM13 22h1v1H13zM18 22h1v1H18zM19 22h1v1H19z"/><path fill="#141416" d="M8 17h1v1H8zM23 17h1v1H23zM12 26h1v1H12zM19 26h1v1H19z"/><path fill="#2a0403" d="M6 20h1v1H6zM25 20h1v1H25zM7 22h1v1H7zM24 22h1v1H24z"/><path fill="#ed202f" d="M13 21h1v1H13zM18 21h1v1H18zM3 27h1v1H3zM5 27h1v1H5zM26 27h1v1H26zM28 27h1v1H28zM4 28h1v1H4zM27 28h1v1H27z"/><path fill="#3d0200" d="M7 25h1v1H7zM24 25h1v1H24zM13 28h1v1H13zM18 28h1v1H18zM14 29h1v1H14zM17 29h1v1H17z"/><path fill="#aa1e09" d="M8 26h1v1H8zM23 26h1v1H23zM9 27h1v1H9zM22 27h1v1H22z"/><path fill="#400001" d="M6 27h1v1H6zM25 27h1v1H25z"/></svg>
