<svg xmlns="http://www.w3.org/2000/svg" viewBox="0 0 32 32" shape-rendering="crispEdges"><path fill="#fa5001" d="M4 1h1v1H4zM5 1h1v1H5zM26 1h1v1H26zM27 1h1v1H27zM3 2h1v1H3zM28 2h1v1H28zM3 3h1v1H3zM4 3h1v1H4zM10 3h1v1H10zM15 3h1v1H15zM16 3h1v1H16zM21 3h1v1H21zM27 3h1v1H27zM28 3h1v1H28zM3 4h1v1H3zM6 4h1v1H6zM9 4h1v1H9zM10 4h1v1H10zM11 4h1v1H11zM14 4h1v1H14zM17 4h1v1H17zM20 4h1v1H20zM21 4h1v1H21zM22 4h1v1H22zM25 4h1v1H25zM28 4h1v1H28zM8 5h1v1H8zM9 5h1v1H9zM10 5h1v1H10zM11 5h1v1H11zM12 5h1v1H12zM13 5h1v1H13zM18 5h1v1H18zM19 5h1v1H19zM20 5h1v1H20zM21 5h1v1H21zM22 5h1v1H22zM23 5h1v1H23zM1 6h1v1H1zM9 6h1v1H9zM11 6h1v1H11zM15 6h1v1H15zM16 6h1v1H16zM20 6h1v1H20zM22 6h1v1H22zM30 6h1v1H30zM1 7h1v1H1zM4 7h1v1H4zM10 7h1v1H10zM21 7h1v1H21zM27 7h1v1H27zM30 7h1v1H30zM1 8h1v1H1zM5 8h1v1H5zM10 8h1v1H10zM11 8h1v1H11zM14 8h1v1H14zM17 8h1v1H17zM20 8h1v1H20zM21 8h1v1H21zM26 8h1v1H26zM30 8h1v1H30zM2 9h1v1H2zM4 9h1v1H4zM5 9h1v1H5zM10 9h1v1H10zM11 9h1v1H11zM12 9h1v1H12zM19 9h1v1H19zM20 9h1v1H20zM21 9h1v1H21zM26 9h1v1H26zM27 9h1v1H27zM29 9h1v1H29zM2 10h1v1H2zM3 10h1v1H3zM11 10h1v1H11zM12 10h1v1H12zM19 10h1v1H19zM20 10h1v1H20zM28 10h1v1H28zM29 10h1v1H29zM2 11h1v1H2zM12 11h1v1H12zM19 11h1v1H19zM29 11h1v1H29zM3 12h1v1H3zM8 12h1v1H8zM9 12h1v1H9zM13 12h1v1H13zM18 12h1v1H18zM22 12h1v1H22zM23 12h1v1H23zM28 12h1v1H28zM2 13h1v1H2zM4 13h1v1H4zM27 13h1v1H27zM29 13h1v1H29zM2 14h1v1H2zM3 14h1v1H3zM8 14h1v1H8zM23 14h1v1H23zM28 14h1v1H28zM29 14h1v1H29zM3 15h1v1H3zM28 15h1v1H28zM4 16h1v1H4zM27 16h1v1H27zM3 17h1v1H3zM28 17h1v1H28zM2 18h1v1H2zM3 18h1v1H3zM28 18h1v1H28zM29 18h1v1H29zM2 19h1v1H2zM4 19h1v1H4zM27 19h1v1H27zM29 19h1v1H29zM2 20h1v1H2zM4 20h1v1H4zM27 20h1v1H27zM29 20h1v1H29zM6 21h1v1H6zM25 21h1v1H25zM3 22h1v1H3zM6 22h1v1H6zM7 22h1v1H7zM24 22h1v1H24zM25 22h1v1H25zM28 22h1v1H28zM4 23h1v1H4zM6 23h1v1H6zM7 23h1v1H7zM24 23h1v1H24zM25 23h1v1H25zM27 23h1v1H27zM4 24h1v1H4zM5 24h1v1H5zM7 24h1v1H7zM24 24h1v1H24zM26 24h1v1H26zM27 24h1v1H27zM3 26h1v1H3zM28 26h1v1H28zM3 27h1v1H3zM4 27h1v1H4zM27 27h1v1H27zM28 27h1v1H28zM4 28h1v1H4zM5 28h1v1H5zM6 28h1v1H6zM8 28h1v1H8zM23 28h1v1H23zM25 28h1v1H25zM26 28h1v1H26zM27 28h1v1H27z"/><path fill="#fe7c02" d="M4 2h1v1H4zM27 2h1v1H27zM5 4h1v1H5zM15 4h1v1H15zM16 4h1v1H16zM26 4h1v1H26zM6 5h1v1H6zM7 5h1v1H7zM14 5h1v1H14zM15 5h1v1H15zM16 5h1v1H16zM17 5h1v1H17zM24 5h1v1H24zM25 5h1v1H25zM6 6h1v1H6zM7 6h1v1H7zM8 6h1v1H8zM10 6h1v1H10zM12 6h1v1H12zM13 6h1v1H13zM14 6h1v1H14zM17 6h1v1H17zM18 6h1v1H18zM19 6h1v1H19zM21 6h1v1H21zM23 6h1v1H23zM24 6h1v1H24zM25 6h1v1H25zM9 7h1v1H9zM11 7h1v1H11zM13 7h1v1H13zM18 7h1v1H18zM20 7h1v1H20zM22 7h1v1H22zM14 9h1v1H14zM17 9h1v1H17zM4 10h1v1H4zM27 10h1v1H27zM3 11h1v1H3zM8 11h1v1H8zM23 11h1v1H23zM28 11h1v1H28zM10 12h1v1H10zM14 12h1v1H14zM17 12h1v1H17zM21 12h1v1H21zM8 13h1v1H8zM14 13h1v1H14zM17 13h1v1H17zM23 13h1v1H23zM4 14h1v1H4zM15 14h1v1H15zM16 14h1v1H16zM27 14h1v1H27zM4 15h1v1H4zM27 15h1v1H27zM6 18h1v1H6zM7 18h1v1H7zM24 18h1v1H24zM25 18h1v1H25zM6 19h1v1H6zM7 19h1v1H7zM24 19h1v1H24zM25 19h1v1H25zM6 20h1v1H6zM7 20h1v1H7zM24 20h1v1H24zM25 20h1v1H25zM7 21h1v1H7zM24 21h1v1H24zM3 24h1v1H3zM8 24h1v1H8zM23 24h1v1H23zM28 24h1v1H28zM3 25h1v1H3zM8 25h1v1H8zM9 25h1v1H9zM22 25h1v1H22zM23 25h1v1H23zM28 25h1v1H28zM7 26h1v1H7zM9 26h1v1H9zM10 26h1v1H10zM11 26h1v1H11zM12 26h1v1H12zM13 26h1v1H13zM14 26h1v1H14zM15 26h1v1H15zM16 26h1v1H16zM17 26h1v1H17zM18 26h1v1H18zM19 26h1v1H19zM20 26h1v1H20zM21 26h1v1H21zM22 26h1v1H22zM24 26h1v1H24zM5 27h1v1H5zM6 27h1v1H6zM7 27h1v1H7zM8 27h1v1H8zM23 27h1v1H23zM24 27h1v1H24zM25 27h1v1H25zM26 27h1v1H26z"/><path fill="#ffdb07" d="M4 4h1v1H4zM27 4h1v1H27zM4 5h1v1H4zM5 5h1v1H5zM26 5h1v1H26zM27 5h1v1H27zM4 6h1v1H4zM5 6h1v1H5zM26 6h1v1H26zM27 6h1v1H27zM2 7h1v1H2zM5 7h1v1H5zM6 7h1v1H6zM8 7h1v1H8zM12 7h1v1H12zM19 7h1v1H19zM23 7h1v1H23zM25 7h1v1H25zM26 7h1v1H26zM29 7h1v1H29zM2 8h1v1H2zM3 8h1v1H3zM6 8h1v1H6zM9 8h1v1H9zM12 8h1v1H12zM13 8h1v1H13zM15 8h1v1H15zM16 8h1v1H16zM18 8h1v1H18zM19 8h1v1H19zM22 8h1v1H22zM25 8h1v1H25zM28 8h1v1H28zM29 8h1v1H29zM3 9h1v1H3zM6 9h1v1H6zM25 9h1v1H25zM28 9h1v1H28zM5 10h1v1H5zM7 10h1v1H7zM8 10h1v1H8zM9 10h1v1H9zM14 10h1v1H14zM17 10h1v1H17zM22 10h1v1H22zM23 10h1v1H23zM24 10h1v1H24zM26 10h1v1H26zM4 11h1v1H4zM5 11h1v1H5zM7 11h1v1H7zM9 11h1v1H9zM10 11h1v1H10zM21 11h1v1H21zM22 11h1v1H22zM24 11h1v1H24zM26 11h1v1H26zM27 11h1v1H27zM4 12h1v1H4zM5 12h1v1H5zM11 12h1v1H11zM20 12h1v1H20zM26 12h1v1H26zM27 12h1v1H27zM6 13h1v1H6zM9 13h1v1H9zM10 13h1v1H10zM11 13h1v1H11zM20 13h1v1H20zM21 13h1v1H21zM22 13h1v1H22zM25 13h1v1H25zM6 14h1v1H6zM7 14h1v1H7zM24 14h1v1H24zM25 14h1v1H25zM6 15h1v1H6zM7 15h1v1H7zM8 15h1v1H8zM23 15h1v1H23zM24 15h1v1H24zM25 15h1v1H25zM6 16h1v1H6zM7 16h1v1H7zM24 16h1v1H24zM25 16h1v1H25zM6 17h1v1H6zM7 17h1v1H7zM24 17h1v1H24zM25 17h1v1H25zM3 19h1v1H3zM28 19h1v1H28zM3 20h1v1H3zM28 20h1v1H28zM3 21h1v1H3zM4 21h1v1H4zM27 21h1v1H27zM28 21h1v1H28zM4 22h1v1H4zM27 22h1v1H27zM8 23h1v1H8zM23 23h1v1H23zM9 24h1v1H9zM22 24h1v1H22zM4 25h1v1H4zM5 25h1v1H5zM6 25h1v1H6zM10 25h1v1H10zM11 25h1v1H11zM12 25h1v1H12zM13 25h1v1H13zM14 25h1v1H14zM15 25h1v1H15zM16 25h1v1H16zM17 25h1v1H17zM18 25h1v1H18zM19 25h1v1H19zM20 25h1v1H20zM21 25h1v1H21zM25 25h1v1H25zM26 25h1v1H26zM27 25h1v1H27zM5 26h1v1H5zM6 26h1v1H6zM25 26h1v1H25zM26 26h1v1H26z"/><path fill="#d32a01" d="M8 4h1v1H8zM12 4h1v1H12zM13 4h1v1H13zM18 4h1v1H18zM19 4h1v1H19zM23 4h1v1H23zM14 7h1v1H14zM17 7h1v1H17zM8 8h1v1H8zM23 8h1v1H23zM9 9h1v1H9zM13 9h1v1H13zM18 9h1v1H18zM22 9h1v1H22zM6 10h1v1H6zM10 10h1v1H10zM13 10h1v1H13zM18 10h1v1H18zM21 10h1v1H21zM25 10h1v1H25zM6 11h1v1H6zM13 11h1v1H13zM18 11h1v1H18zM25 11h1v1H25zM7 12h1v1H7zM12 12h1v1H12zM19 12h1v1H19zM24 12h1v1H24zM13 13h1v1H13zM18 13h1v1H18zM5 14h1v1H5zM26 14h1v1H26zM5 15h1v1H5zM26 15h1v1H26zM5 16h1v1H5zM26 16h1v1H26zM5 19h1v1H5zM26 19h1v1H26zM5 20h1v1H5zM26 20h1v1H26zM5 21h1v1H5zM26 21h1v1H26zM5 22h1v1H5zM26 22h1v1H26zM10 27h1v1H10zM11 27h1v1H11zM12 27h1v1H12zM13 27h1v1H13zM14 27h1v1H14zM15 27h1v1H15zM16 27h1v1H16zM17 27h1v1H17zM18 27h1v1H18zM19 27h1v1H19zM20 27h1v1H20zM21 27h1v1H21z"/><path fill="#a01e02" d="M7 7h1v1H7zM24 7h1v1H24zM7 8h1v1H7zM24 8h1v1H24zM7 9h1v1H7zM24 9h1v1H24zM11 11h1v1H11zM20 11h1v1H20zM6 12h1v1H6zM25 12h1v1H25zM5 13h1v1H5zM7 13h1v1H7zM12 13h1v1H12zM19 13h1v1H19zM24 13h1v1H24zM26 13h1v1H26zM13 14h1v1H13zM14 14h1v1H14zM17 14h1v1H17zM18 14h1v1H18zM14 15h1v1H14zM15 15h1v1H15zM16 15h1v1H16zM17 15h1v1H17zM15 16h1v1H15zM16 16h1v1H16zM5 17h1v1H5zM26 17h1v1H26zM5 18h1v1H5zM26 18h1v1H26zM5 23h1v1H5zM26 23h1v1H26zM6 24h1v1H6zM25 24h1v1H25zM7 25h1v1H7zM24 25h1v1H24zM8 26h1v1H8zM23 26h1v1H23zM9 27h1v1H9zM22 27h1v1H22z"/><path fill="#fcfbf9" d="M15 7h1v1H15zM16 7h1v1H16zM16 9h1v1H16zM16 10h1v1H16zM15 11h1v1H15z"/><path fill="#fefefe" d="M8 9h1v1H8zM23 9h1v1H23zM16 11h1v1H16z"/><path fill="#fefaf7" d="M15 9h1v1H15zM15 10h1v1H15zM14 11h1v1H14zM15 12h1v1H15zM16 12h1v1H16z"/><path fill="#fdfdfd" d="M17 11h1v1H17z"/><path fill="#ee4101" d="M15 13h1v1H15zM16 13h1v1H16z"/><path fill="#fd8402" d="M9 14h1v1H9zM22 14h1v1H22z"/><path fill="#fd8702" d="M10 14h1v1H10zM21 14h1v1H21z"/><path fill="#fd8602" d="M11 14h1v1H11zM20 14h1v1H20z"/><path fill="#fc8102" d="M12 14h1v1H12zM19 14h1v1H19z"/><path fill="#000000" d="M9 15h1v1H9zM10 15h1v1H10zM11 15h1v1H11zM12 15h1v1H12zM19 15h1v1H19zM20 15h1v1H20zM21 15h1v1H21zM22 15h1v1H22zM8 16h1v1H8zM9 16h1v1H9zM10 16h1v1H10zM11 16h1v1H11zM12 16h1v1H12zM13 16h1v1H13zM18 16h1v1H18zM19 16h1v1H19zM20 16h1v1H20zM21 16h1v1H21zM22 16h1v1H22zM23 16h1v1H23zM8 17h1v1H8zM9 17h1v1H9zM10 17h1v1H10zM13 17h1v1H13zM14 17h1v1H14zM17 17h1v1H17zM18 17h1v1H18zM21 17h1v1H21zM22 17h1v1H22zM23 17h1v1H23zM8 18h1v1H8zM9 18h1v1H9zM14 18h1v1H14zM15 18h1v1H15zM16 18h1v1H16zM17 18h1v1H17zM22 18h1v1H22zM23 18h1v1H23zM8 19h1v1H8zM9 19h1v1H9zM13 19h1v1H13zM14 19h1v1H14zM15 19h1v1H15zM16 19h1v1H16zM17 19h1v1H17zM18 19h1v1H18zM22 19h1v1H22zM23 19h1v1H23zM8 20h1v1H8zM9 20h1v1H9zM13 20h1v1H13zM14 20h1v1H14zM15 20h1v1H15zM16 20h1v1H16zM17 20h1v1H17zM18 20h1v1H18zM22 20h1v1H22zM23 20h1v1H23zM8 21h1v1H8zM9 21h1v1H9zM10 21h1v1H10zM14 21h1v1H14zM15 21h1v1H15zM16 21h1v1H16zM17 21h1v1H17zM21 21h1v1H21zM22 21h1v1H22zM23 21h1v1H23zM8 22h1v1H8zM9 22h1v1H9zM10 22h1v1H10zM11 22h1v1H11zM14 22h1v1H14zM15 22h1v1H15zM16 22h1v1H16zM17 22h1v1H17zM20 22h1v1H20zM21 22h1v1H21zM22 22h1v1H22zM23 22h1v1H23zM9 23h1v1H9zM10 23h1v1H10zM11 23h1v1H11zM12 23h1v1H12zM13 23h1v1H13zM14 23h1v1H14zM15 23h1v1H15zM16 23h1v1H16zM17 23h1v1H17zM18 23h1v1H18zM19 23h1v1H19zM20 23h1v1H20zM21 23h1v1H21zM22 23h1v1H22zM10 24h1v1H10zM11 24h1v1H11zM12 24h1v1H12zM13 24h1v1H13zM14 24h1v1H14zM15 24h1v1H15zM16 24h1v1H16zM17 24h1v1H17zM18 24h1v1H18zM19 24h1v1H19zM20 24h1v1H20zM21 24h1v1H21z"/><path fill="#ffd103" d="M13 15h1v1H13zM18 15h1v1H18z"/><path fill="#fd8805" d="M14 16h1v1H14zM17 16h1v1H17z"/><path fill="#ffffff" d="M11 17h1v1H11zM12 17h1v1H12zM19 17h1v1H19zM20 17h1v1H20zM11 18h1v1H11zM12 18h1v1H12zM13 18h1v1H13zM18 18h1v1H18zM19 18h1v1H19zM20 18h1v1H20zM11 19h1v1H11zM12 19h1v1H12zM19 19h1v1H19zM20 19h1v1H20zM11 20h1v1H11zM12 20h1v1H12zM19 20h1v1H19zM20 20h1v1H20zM11 21h1v1H11zM12 21h1v1H12zM19 21h1v1H19zM20 21h1v1H20zM12 22h1v1H12zM13 22h1v1H13zM18 22h1v1H18zM19 22h1v1H19z"/><path fill="#f75e02" d="M15 17h1v1H15zM16 17h1v1H16z"/><path fill="#f9a705" d="M10 18h1v1H10zM21 18h1v1H21z"/><path fill="#f96b05" d="M10 19h1v1H10zM21 19h1v1H21z"/><path fill="#e93e01" d="M10 20h1v1H10zM21 20h1v1H21z"/><path fill="#f34903" d="M13 21h1v1H13zM18 21h1v1H18z"/><path fill="#fdf67c" d="M4 26h1v1H4zM27 26h1v1H27z"/><path fill="#ca2b00" d="M3 28h1v1H3zM7 28h1v1H7zM24 28h1v1H24zM28 28h1v1H28z"/></svg>
