<svg xmlns="http://www.w3.org/2000/svg" viewBox="0 0 32 32" shape-rendering="crispEdges"><path fill="#fe3500" d="M10 1h1v1H10zM15 1h1v1H15zM16 1h1v1H16zM21 1h1v1H21zM11 2h1v1H11zM14 2h1v1H14zM17 2h1v1H17zM20 2h1v1H20zM6 3h1v1H6zM25 3h1v1H25zM10 4h1v1H10zM13 4h1v1H13zM18 4h1v1H18zM21 4h1v1H21zM8 5h1v1H8zM11 5h1v1H11zM12 5h1v1H12zM14 5h1v1H14zM17 5h1v1H17zM19 5h1v1H19zM20 5h1v1H20zM23 5h1v1H23zM4 6h1v1H4zM14 6h1v1H14zM17 6h1v1H17zM27 6h1v1H27zM3 7h1v1H3zM28 7h1v1H28zM3 8h1v1H3zM13 8h1v1H13zM18 8h1v1H18zM28 8h1v1H28zM13 9h1v1H13zM18 9h1v1H18zM8 10h1v1H8zM12 10h1v1H12zM19 10h1v1H19zM23 10h1v1H23zM7 11h1v1H7zM11 11h1v1H11zM14 11h1v1H14zM17 11h1v1H17zM20 11h1v1H20zM24 11h1v1H24zM27 11h1v1H27zM28 11h1v1H28zM3 12h1v1H3zM13 12h1v1H13zM18 12h1v1H18zM5 13h1v1H5zM7 13h1v1H7zM24 13h1v1H24zM26 13h1v1H26zM6 14h1v1H6zM25 14h1v1H25zM6 15h1v1H6zM25 15h1v1H25zM5 16h1v1H5zM26 16h1v1H26zM3 19h1v1H3zM5 19h1v1H5zM26 19h1v1H26zM28 19h1v1H28zM7 22h1v1H7zM24 22h1v1H24zM7 23h1v1H7zM24 23h1v1H24zM8 24h1v1H8zM12 24h1v1H12zM14 24h1v1H14zM15 24h1v1H15zM16 24h1v1H16zM17 24h1v1H17zM19 24h1v1H19zM23 24h1v1H23zM9 25h1v1H9zM10 25h1v1H10zM21 25h1v1H21zM22 25h1v1H22zM13 27h1v1H13zM18 27h1v1H18z"/><path fill="#fddf22" d="M10 2h1v1H10zM15 2h1v1H15zM16 2h1v1H16zM21 2h1v1H21zM10 3h1v1H10zM21 3h1v1H21zM9 5h1v1H9zM13 5h1v1H13zM18 5h1v1H18zM22 5h1v1H22zM5 6h1v1H5zM26 6h1v1H26zM4 7h1v1H4zM14 7h1v1H14zM17 7h1v1H17zM27 7h1v1H27zM4 11h1v1H4zM26 12h1v1H26zM8 13h1v1H8zM23 13h1v1H23zM4 19h1v1H4zM27 19h1v1H27z"/><path fill="#69686c" d="M5 3h1v1H5zM26 3h1v1H26zM11 6h1v1H11zM20 6h1v1H20zM10 7h1v1H10zM11 7h1v1H11zM12 7h1v1H12zM19 7h1v1H19zM20 7h1v1H20zM21 7h1v1H21zM5 8h1v1H5zM6 8h1v1H6zM25 8h1v1H25zM26 8h1v1H26zM4 13h1v1H4zM15 13h1v1H15zM16 13h1v1H16zM27 13h1v1H27zM10 14h1v1H10zM21 14h1v1H21zM6 16h1v1H6zM8 16h1v1H8zM23 16h1v1H23zM25 16h1v1H25zM6 17h1v1H6zM25 17h1v1H25zM6 20h1v1H6zM25 20h1v1H25zM8 22h1v1H8zM23 22h1v1H23zM5 24h1v1H5zM6 24h1v1H6zM10 24h1v1H10zM21 24h1v1H21zM25 24h1v1H25zM26 24h1v1H26zM3 26h1v1H3zM10 26h1v1H10zM21 26h1v1H21zM28 26h1v1H28z"/><path fill="#ee2301" d="M9 3h1v1H9zM22 3h1v1H22z"/><path fill="#ff6b05" d="M11 3h1v1H11zM14 3h1v1H14zM17 3h1v1H17zM20 3h1v1H20zM9 4h1v1H9zM11 4h1v1H11zM12 4h1v1H12zM19 4h1v1H19zM20 4h1v1H20zM22 4h1v1H22zM7 5h1v1H7zM24 5h1v1H24zM6 6h1v1H6zM7 6h1v1H7zM24 6h1v1H24zM25 6h1v1H25zM15 7h1v1H15zM16 7h1v1H16zM11 9h1v1H11zM20 9h1v1H20zM12 11h1v1H12zM13 11h1v1H13zM18 11h1v1H18zM19 11h1v1H19zM4 12h1v1H4zM5 12h1v1H5zM11 12h1v1H11zM20 12h1v1H20zM27 12h1v1H27zM6 13h1v1H6zM9 13h1v1H9zM10 13h1v1H10zM21 13h1v1H21zM22 13h1v1H22zM25 13h1v1H25zM7 15h1v1H7zM24 15h1v1H24zM5 17h1v1H5zM26 17h1v1H26zM4 18h1v1H4zM27 18h1v1H27zM4 20h1v1H4zM27 20h1v1H27zM5 21h1v1H5zM26 21h1v1H26zM4 22h1v1H4zM27 22h1v1H27zM3 23h1v1H3zM28 23h1v1H28zM4 24h1v1H4zM13 24h1v1H13zM18 24h1v1H18zM27 24h1v1H27zM2 25h1v1H2zM11 25h1v1H11zM12 25h1v1H12zM15 25h1v1H15zM16 25h1v1H16zM19 25h1v1H19zM20 25h1v1H20zM29 25h1v1H29zM2 26h1v1H2zM8 26h1v1H8zM14 26h1v1H14zM17 26h1v1H17zM23 26h1v1H23zM29 26h1v1H29zM7 27h1v1H7zM9 27h1v1H9zM22 27h1v1H22zM24 27h1v1H24zM8 28h1v1H8zM23 28h1v1H23z"/><path fill="#d52301" d="M12 3h1v1H12zM19 3h1v1H19zM7 4h1v1H7zM24 4h1v1H24zM10 5h1v1H10zM21 5h1v1H21zM3 9h1v1H3zM28 9h1v1H28zM10 10h1v1H10zM21 10h1v1H21zM10 12h1v1H10zM21 12h1v1H21zM7 14h1v1H7zM24 14h1v1H24zM4 17h1v1H4zM27 17h1v1H27zM5 18h1v1H5zM26 18h1v1H26zM3 20h1v1H3zM28 20h1v1H28zM3 22h1v1H3zM28 22h1v1H28zM2 24h1v1H2zM29 24h1v1H29zM6 28h1v1H6zM10 28h1v1H10zM14 28h1v1H14zM17 28h1v1H17zM21 28h1v1H21zM25 28h1v1H25z"/><path fill="#fefc91" d="M15 3h1v1H15zM16 3h1v1H16zM14 4h1v1H14zM15 4h1v1H15zM16 4h1v1H16zM17 4h1v1H17zM15 5h1v1H15zM16 5h1v1H16z"/><path fill="#3c3b40" d="M4 4h1v1H4zM5 4h1v1H5zM26 4h1v1H26zM27 4h1v1H27zM4 5h1v1H4zM27 5h1v1H27z"/><path fill="#232226" d="M6 4h1v1H6zM25 4h1v1H25z"/><path fill="#171618" d="M5 5h1v1H5zM6 5h1v1H6zM25 5h1v1H25zM26 5h1v1H26zM9 6h1v1H9zM12 6h1v1H12zM19 6h1v1H19zM22 6h1v1H22zM6 7h1v1H6zM7 7h1v1H7zM13 7h1v1H13zM18 7h1v1H18zM24 7h1v1H24zM25 7h1v1H25zM7 8h1v1H7zM8 8h1v1H8zM14 8h1v1H14zM17 8h1v1H17zM23 8h1v1H23zM24 8h1v1H24zM8 9h1v1H8zM9 9h1v1H9zM14 9h1v1H14zM17 9h1v1H17zM22 9h1v1H22zM23 9h1v1H23zM11 10h1v1H11zM13 10h1v1H13zM18 10h1v1H18zM20 10h1v1H20zM5 11h1v1H5zM6 11h1v1H6zM10 11h1v1H10zM21 11h1v1H21zM25 11h1v1H25zM26 11h1v1H26zM6 12h1v1H6zM12 12h1v1H12zM19 12h1v1H19zM25 12h1v1H25zM11 13h1v1H11zM20 13h1v1H20zM5 14h1v1H5zM26 14h1v1H26zM4 15h1v1H4zM5 15h1v1H5zM26 15h1v1H26zM27 15h1v1H27zM5 20h1v1H5zM26 20h1v1H26zM5 22h1v1H5zM6 22h1v1H6zM25 22h1v1H25zM26 22h1v1H26zM5 23h1v1H5zM6 23h1v1H6zM25 23h1v1H25zM26 23h1v1H26zM7 24h1v1H7zM24 24h1v1H24zM7 25h1v1H7zM8 25h1v1H8zM23 25h1v1H23zM24 25h1v1H24zM6 26h1v1H6zM13 26h1v1H13zM18 26h1v1H18zM25 26h1v1H25zM3 27h1v1H3zM12 27h1v1H12zM19 27h1v1H19zM28 27h1v1H28zM3 28h1v1H3zM4 28h1v1H4zM5 28h1v1H5zM26 28h1v1H26zM27 28h1v1H27zM28 28h1v1H28z"/><path fill="#39383c" d="M8 6h1v1H8zM10 6h1v1H10zM21 6h1v1H21zM23 6h1v1H23zM5 7h1v1H5zM8 7h1v1H8zM9 7h1v1H9zM22 7h1v1H22zM23 7h1v1H23zM26 7h1v1H26zM9 8h1v1H9zM10 8h1v1H10zM11 8h1v1H11zM12 8h1v1H12zM19 8h1v1H19zM20 8h1v1H20zM21 8h1v1H21zM22 8h1v1H22zM6 9h1v1H6zM7 9h1v1H7zM10 9h1v1H10zM12 9h1v1H12zM19 9h1v1H19zM21 9h1v1H21zM24 9h1v1H24zM25 9h1v1H25zM5 10h1v1H5zM7 10h1v1H7zM14 10h1v1H14zM15 10h1v1H15zM16 10h1v1H16zM17 10h1v1H17zM24 10h1v1H24zM26 10h1v1H26zM7 12h1v1H7zM8 12h1v1H8zM9 12h1v1H9zM15 12h1v1H15zM16 12h1v1H16zM22 12h1v1H22zM23 12h1v1H23zM24 12h1v1H24zM3 13h1v1H3zM13 13h1v1H13zM14 13h1v1H14zM17 13h1v1H17zM18 13h1v1H18zM28 13h1v1H28zM3 14h1v1H3zM4 14h1v1H4zM15 14h1v1H15zM16 14h1v1H16zM27 14h1v1H27zM28 14h1v1H28zM9 15h1v1H9zM22 15h1v1H22zM4 16h1v1H4zM27 16h1v1H27zM6 18h1v1H6zM25 18h1v1H25zM6 19h1v1H6zM25 19h1v1H25zM9 23h1v1H9zM22 23h1v1H22zM6 25h1v1H6zM25 25h1v1H25zM4 26h1v1H4zM27 26h1v1H27z"/><path fill="#fe8000" d="M13 6h1v1H13zM18 6h1v1H18z"/><path fill="#a21703" d="M15 6h1v1H15zM16 6h1v1H16z"/><path fill="#e21401" d="M15 8h1v1H15zM16 8h1v1H16z"/><path fill="#29272c" d="M5 9h1v1H5zM26 9h1v1H26z"/><path fill="#394351" d="M15 9h1v1H15zM16 9h1v1H16z"/><path fill="#28272b" d="M6 10h1v1H6zM25 10h1v1H25z"/><path fill="#fb6704" d="M9 10h1v1H9zM22 10h1v1H22z"/><path fill="#6b696e" d="M8 11h1v1H8zM9 11h1v1H9zM22 11h1v1H22zM23 11h1v1H23z"/><path fill="#1b1b1d" d="M15 11h1v1H15zM16 11h1v1H16z"/><path fill="#28282b" d="M14 12h1v1H14zM17 12h1v1H17z"/><path fill="#27262a" d="M12 13h1v1H12zM19 13h1v1H19z"/><path fill="#151517" d="M8 14h1v1H8zM13 14h1v1H13zM14 14h1v1H14zM17 14h1v1H17zM18 14h1v1H18zM23 14h1v1H23zM7 16h1v1H7zM24 16h1v1H24zM7 17h1v1H7zM24 17h1v1H24zM7 18h1v1H7zM24 18h1v1H24zM7 19h1v1H7zM24 19h1v1H24zM7 20h1v1H7zM24 20h1v1H24zM7 21h1v1H7zM24 21h1v1H24z"/><path fill="#272629" d="M9 14h1v1H9zM22 14h1v1H22zM8 15h1v1H8zM23 15h1v1H23zM6 21h1v1H6zM25 21h1v1H25zM4 23h1v1H4zM8 23h1v1H8zM23 23h1v1H23zM27 23h1v1H27zM9 24h1v1H9zM11 24h1v1H11zM20 24h1v1H20zM22 24h1v1H22zM5 25h1v1H5zM13 25h1v1H13zM18 25h1v1H18zM26 25h1v1H26zM5 26h1v1H5zM7 26h1v1H7zM9 26h1v1H9zM11 26h1v1H11zM12 26h1v1H12zM15 26h1v1H15zM16 26h1v1H16zM19 26h1v1H19zM20 26h1v1H20zM22 26h1v1H22zM24 26h1v1H24zM26 26h1v1H26zM4 27h1v1H4zM5 27h1v1H5zM6 27h1v1H6zM14 27h1v1H14zM15 27h1v1H15zM16 27h1v1H16zM17 27h1v1H17zM25 27h1v1H25zM26 27h1v1H26zM27 27h1v1H27zM7 28h1v1H7zM9 28h1v1H9zM12 28h1v1H12zM13 28h1v1H13zM15 28h1v1H15zM16 28h1v1H16zM18 28h1v1H18zM19 28h1v1H19zM22 28h1v1H22zM24 28h1v1H24z"/><path fill="#000000" d="M11 14h1v1H11zM12 14h1v1H12zM19 14h1v1H19zM20 14h1v1H20zM10 15h1v1H10zM11 15h1v1H11zM12 15h1v1H12zM13 15h1v1H13zM14 15h1v1H14zM15 15h1v1H15zM16 15h1v1H16zM17 15h1v1H17zM18 15h1v1H18zM19 15h1v1H19zM20 15h1v1H20zM21 15h1v1H21zM9 16h1v1H9zM10 16h1v1H10zM11 16h1v1H11zM12 16h1v1H12zM13 16h1v1H13zM14 16h1v1H14zM15 16h1v1H15zM16 16h1v1H16zM17 16h1v1H17zM18 16h1v1H18zM19 16h1v1H19zM20 16h1v1H20zM21 16h1v1H21zM22 16h1v1H22zM8 17h1v1H8zM9 17h1v1H9zM10 17h1v1H10zM13 17h1v1H13zM14 17h1v1H14zM15 17h1v1H15zM16 17h1v1H16zM17 17h1v1H17zM18 17h1v1H18zM21 17h1v1H21zM22 17h1v1H22zM23 17h1v1H23zM8 18h1v1H8zM9 18h1v1H9zM14 18h1v1H14zM15 18h1v1H15zM16 18h1v1H16zM17 18h1v1H17zM22 18h1v1H22zM23 18h1v1H23zM8 19h1v1H8zM9 19h1v1H9zM13 19h1v1H13zM14 19h1v1H14zM15 19h1v1H15zM16 19h1v1H16zM17 19h1v1H17zM18 19h1v1H18zM22 19h1v1H22zM23 19h1v1H23zM8 20h1v1H8zM9 20h1v1H9zM13 20h1v1H13zM14 20h1v1H14zM15 20h1v1H15zM16 20h1v1H16zM17 20h1v1H17zM18 20h1v1H18zM22 20h1v1H22zM23 20h1v1H23zM8 21h1v1H8zM9 21h1v1H9zM10 21h1v1H10zM14 21h1v1H14zM15 21h1v1H15zM16 21h1v1H16zM17 21h1v1H17zM21 21h1v1H21zM22 21h1v1H22zM23 21h1v1H23zM9 22h1v1H9zM10 22h1v1H10zM11 22h1v1H11zM14 22h1v1H14zM15 22h1v1H15zM16 22h1v1H16zM17 22h1v1H17zM20 22h1v1H20zM21 22h1v1H21zM22 22h1v1H22zM10 23h1v1H10zM11 23h1v1H11zM12 23h1v1H12zM13 23h1v1H13zM14 23h1v1H14zM15 23h1v1H15zM16 23h1v1H16zM17 23h1v1H17zM18 23h1v1H18zM19 23h1v1H19zM20 23h1v1H20zM21 23h1v1H21z"/><path fill="#ffffff" d="M11 17h1v1H11zM12 17h1v1H12zM19 17h1v1H19zM20 17h1v1H20zM11 18h1v1H11zM12 18h1v1H12zM13 18h1v1H13zM18 18h1v1H18zM19 18h1v1H19zM20 18h1v1H20zM11 19h1v1H11zM12 19h1v1H12zM19 19h1v1H19zM20 19h1v1H20zM11 20h1v1H11zM12 20h1v1H12zM19 20h1v1H19zM20 20h1v1H20zM11 21h1v1H11zM12 21h1v1H12zM19 21h1v1H19zM20 21h1v1H20zM12 22h1v1H12zM13 22h1v1H13zM18 22h1v1H18zM19 22h1v1H19z"/><path fill="#f9a705" d="M10 18h1v1H10zM21 18h1v1H21z"/><path fill="#f96b05" d="M10 19h1v1H10zM21 19h1v1H21z"/><path fill="#e93e01" d="M10 20h1v1H10zM21 20h1v1H21z"/><path fill="#f34903" d="M13 21h1v1H13zM18 21h1v1H18z"/><path fill="#fedf23" d="M3 24h1v1H3zM28 24h1v1H28zM4 25h1v1H4zM14 25h1v1H14zM17 25h1v1H17zM27 25h1v1H27zM8 27h1v1H8zM23 27h1v1H23z"/><path fill="#fd9b02" d="M3 25h1v1H3zM28 25h1v1H28z"/></svg>
