<svg xmlns="http://www.w3.org/2000/svg" viewBox="0 0 32 32" shape-rendering="crispEdges"><path fill="#fd3b4f" d="M8 1h1v1H8zM23 1h1v1H23zM18 4h1v1H18zM17 5h1v1H17zM4 18h1v1H4zM27 18h1v1H27z"/><path fill="#f61d38" d="M7 2h1v1H7zM24 2h1v1H24zM6 3h1v1H6zM8 3h1v1H8zM23 3h1v1H23zM25 3h1v1H25zM9 12h1v1H9zM13 12h1v1H13zM18 12h1v1H18zM22 12h1v1H22zM10 18h1v1H10zM21 18h1v1H21zM4 20h1v1H4zM27 20h1v1H27zM13 21h1v1H13zM18 21h1v1H18zM15 28h1v1H15z"/><path fill="#fe718c" d="M15 2h1v1H15zM16 2h1v1H16zM14 3h1v1H14zM13 4h1v1H13zM14 5h1v1H14zM11 6h1v1H11zM12 6h1v1H12zM15 6h1v1H15zM16 6h1v1H16zM19 6h1v1H19zM20 6h1v1H20zM3 7h1v1H3zM4 7h1v1H4zM12 7h1v1H12zM19 7h1v1H19zM27 7h1v1H27zM28 7h1v1H28zM2 8h1v1H2zM5 8h1v1H5zM26 8h1v1H26zM29 8h1v1H29zM3 9h1v1H3zM28 9h1v1H28zM4 10h1v1H4zM27 10h1v1H27z"/><path fill="#b3031e" d="M7 3h1v1H7zM24 3h1v1H24zM7 4h1v1H7zM8 4h1v1H8zM24 4h1v1H24zM25 4h1v1H25zM10 5h1v1H10zM13 5h1v1H13zM21 5h1v1H21zM13 6h1v1H13zM14 6h1v1H14zM11 7h1v1H11zM13 7h1v1H13zM14 7h1v1H14zM20 7h1v1H20zM12 8h1v1H12zM13 8h1v1H13zM14 8h1v1H14zM19 8h1v1H19zM2 9h1v1H2zM29 9h1v1H29zM2 10h1v1H2zM3 10h1v1H3zM28 10h1v1H28zM29 10h1v1H29zM2 11h1v1H2zM3 11h1v1H3zM28 11h1v1H28zM29 11h1v1H29zM4 12h1v1H4zM27 12h1v1H27zM4 13h1v1H4zM27 13h1v1H27zM4 14h1v1H4zM15 14h1v1H15zM16 14h1v1H16zM27 14h1v1H27zM16 28h1v1H16z"/><path fill="#ffffff" d="M15 3h1v1H15zM16 3h1v1H16zM11 4h1v1H11zM12 4h1v1H12zM14 4h1v1H14zM15 4h1v1H15zM16 4h1v1H16zM19 4h1v1H19zM20 4h1v1H20zM11 5h1v1H11zM12 5h1v1H12zM15 5h1v1H15zM16 5h1v1H16zM19 5h1v1H19zM20 5h1v1H20zM3 8h1v1H3zM4 8h1v1H4zM27 8h1v1H27zM28 8h1v1H28zM4 9h1v1H4zM27 9h1v1H27zM11 10h1v1H11zM20 10h1v1H20zM10 11h1v1H10zM11 11h1v1H11zM19 11h1v1H19zM20 11h1v1H20zM15 12h1v1H15zM16 12h1v1H16zM11 17h1v1H11zM12 17h1v1H12zM19 17h1v1H19zM20 17h1v1H20zM11 18h1v1H11zM12 18h1v1H12zM13 18h1v1H13zM18 18h1v1H18zM19 18h1v1H19zM20 18h1v1H20zM4 19h1v1H4zM11 19h1v1H11zM12 19h1v1H12zM19 19h1v1H19zM20 19h1v1H20zM27 19h1v1H27zM11 20h1v1H11zM12 20h1v1H12zM19 20h1v1H19zM20 20h1v1H20zM11 21h1v1H11zM12 21h1v1H12zM19 21h1v1H19zM20 21h1v1H20zM7 22h1v1H7zM12 22h1v1H12zM13 22h1v1H13zM18 22h1v1H18zM19 22h1v1H19zM24 22h1v1H24zM7 23h1v1H7zM24 23h1v1H24zM5 25h1v1H5zM26 25h1v1H26zM4 26h1v1H4zM27 26h1v1H27zM10 27h1v1H10zM11 27h1v1H11zM15 27h1v1H15zM16 27h1v1H16zM20 27h1v1H20zM21 27h1v1H21z"/><path fill="#ee142c" d="M17 3h1v1H17zM17 4h1v1H17zM2 12h1v1H2zM29 12h1v1H29z"/><path fill="#18050c" d="M6 4h1v1H6zM23 4h1v1H23z"/><path fill="#fefefe" d="M6 5h1v1H6zM23 5h1v1H23z"/><path fill="#19070f" d="M7 5h1v1H7zM24 5h1v1H24z"/><path fill="#fefafa" d="M8 5h1v1H8zM25 5h1v1H25z"/><path fill="#4c0318" d="M18 5h1v1H18zM9 6h1v1H9zM17 6h1v1H17zM18 6h1v1H18zM22 6h1v1H22zM6 7h1v1H6zM8 7h1v1H8zM9 7h1v1H9zM17 7h1v1H17zM18 7h1v1H18zM22 7h1v1H22zM23 7h1v1H23zM25 7h1v1H25zM6 8h1v1H6zM8 8h1v1H8zM17 8h1v1H17zM18 8h1v1H18zM23 8h1v1H23zM25 8h1v1H25zM6 9h1v1H6zM7 9h1v1H7zM17 9h1v1H17zM24 9h1v1H24zM25 9h1v1H25zM6 10h1v1H6zM25 10h1v1H25z"/><path fill="#e51025" d="M6 6h1v1H6zM25 6h1v1H25zM7 7h1v1H7zM24 7h1v1H24zM7 8h1v1H7zM24 8h1v1H24z"/><path fill="#fc1e39" d="M7 6h1v1H7zM8 6h1v1H8zM10 6h1v1H10zM21 6h1v1H21zM23 6h1v1H23zM24 6h1v1H24zM10 7h1v1H10zM21 7h1v1H21zM10 8h1v1H10zM21 8h1v1H21zM12 11h1v1H12zM21 11h1v1H21zM10 12h1v1H10zM11 12h1v1H11zM12 12h1v1H12zM19 12h1v1H19zM20 12h1v1H20zM21 12h1v1H21zM3 19h1v1H3zM28 19h1v1H28z"/><path fill="#fc253f" d="M15 7h1v1H15zM16 7h1v1H16zM4 11h1v1H4zM27 11h1v1H27z"/><path fill="#fd253f" d="M9 8h1v1H9zM15 8h1v1H15zM16 8h1v1H16zM22 8h1v1H22zM8 9h1v1H8zM9 9h1v1H9zM22 9h1v1H22zM23 9h1v1H23zM7 10h1v1H7zM8 10h1v1H8zM23 10h1v1H23zM24 10h1v1H24zM6 11h1v1H6zM7 11h1v1H7zM24 11h1v1H24zM25 11h1v1H25z"/><path fill="#2c0a14" d="M11 8h1v1H11zM20 8h1v1H20zM10 9h1v1H10zM12 9h1v1H12zM19 9h1v1H19zM21 9h1v1H21zM9 10h1v1H9zM13 10h1v1H13zM18 10h1v1H18zM22 10h1v1H22zM8 11h1v1H8zM14 11h1v1H14zM17 11h1v1H17zM23 11h1v1H23zM5 12h1v1H5zM6 12h1v1H6zM7 12h1v1H7zM24 12h1v1H24zM25 12h1v1H25zM26 12h1v1H26zM5 13h1v1H5zM7 13h1v1H7zM8 13h1v1H8zM23 13h1v1H23zM24 13h1v1H24zM26 13h1v1H26zM5 14h1v1H5zM26 14h1v1H26zM5 15h1v1H5zM26 15h1v1H26zM5 16h1v1H5zM26 16h1v1H26zM5 17h1v1H5zM26 17h1v1H26zM3 18h1v1H3zM6 18h1v1H6zM25 18h1v1H25zM28 18h1v1H28zM2 19h1v1H2zM7 19h1v1H7zM24 19h1v1H24zM29 19h1v1H29zM6 20h1v1H6zM25 20h1v1H25zM2 21h1v1H2zM7 21h1v1H7zM24 21h1v1H24zM29 21h1v1H29zM3 22h1v1H3zM6 22h1v1H6zM25 22h1v1H25zM28 22h1v1H28zM3 23h1v1H3zM5 23h1v1H5zM26 23h1v1H26zM28 23h1v1H28zM4 24h1v1H4zM5 24h1v1H5zM26 24h1v1H26zM27 24h1v1H27zM6 25h1v1H6zM25 25h1v1H25zM7 26h1v1H7zM9 26h1v1H9zM10 26h1v1H10zM15 26h1v1H15zM16 26h1v1H16zM21 26h1v1H21zM22 26h1v1H22zM24 26h1v1H24zM6 27h1v1H6zM8 27h1v1H8zM14 27h1v1H14zM17 27h1v1H17zM23 27h1v1H23zM25 27h1v1H25zM8 28h1v1H8zM12 28h1v1H12zM19 28h1v1H19zM23 28h1v1H23z"/><path fill="#5a081c" d="M5 9h1v1H5zM26 9h1v1H26zM5 10h1v1H5zM26 10h1v1H26zM5 11h1v1H5zM26 11h1v1H26zM3 12h1v1H3zM28 12h1v1H28zM3 13h1v1H3zM28 13h1v1H28zM14 14h1v1H14zM17 14h1v1H17zM15 15h1v1H15zM16 15h1v1H16zM10 20h1v1H10zM21 20h1v1H21zM3 21h1v1H3zM5 21h1v1H5zM26 21h1v1H26zM28 21h1v1H28zM7 24h1v1H7zM24 24h1v1H24zM8 25h1v1H8zM23 25h1v1H23zM6 26h1v1H6zM11 26h1v1H11zM12 26h1v1H12zM13 26h1v1H13zM18 26h1v1H18zM19 26h1v1H19zM20 26h1v1H20zM25 26h1v1H25zM7 27h1v1H7zM13 27h1v1H13zM18 27h1v1H18zM24 27h1v1H24zM3 28h1v1H3zM6 28h1v1H6zM9 28h1v1H9zM10 28h1v1H10zM11 28h1v1H11zM14 28h1v1H14zM17 28h1v1H17zM20 28h1v1H20zM21 28h1v1H21zM22 28h1v1H22zM25 28h1v1H25zM28 28h1v1H28z"/><path fill="#fee992" d="M11 9h1v1H11zM20 9h1v1H20zM10 10h1v1H10zM12 10h1v1H12zM19 10h1v1H19zM21 10h1v1H21zM9 11h1v1H9zM13 11h1v1H13zM15 11h1v1H15zM16 11h1v1H16zM18 11h1v1H18zM22 11h1v1H22zM14 12h1v1H14zM17 12h1v1H17zM6 13h1v1H6zM9 13h1v1H9zM10 13h1v1H10zM11 13h1v1H11zM12 13h1v1H12zM15 13h1v1H15zM16 13h1v1H16zM19 13h1v1H19zM20 13h1v1H20zM21 13h1v1H21zM22 13h1v1H22zM25 13h1v1H25zM7 14h1v1H7zM8 14h1v1H8zM23 14h1v1H23zM24 14h1v1H24zM4 17h1v1H4zM27 17h1v1H27z"/><path fill="#b64b19" d="M13 9h1v1H13zM18 9h1v1H18zM9 15h1v1H9zM10 15h1v1H10zM11 15h1v1H11zM14 15h1v1H14zM17 15h1v1H17zM20 15h1v1H20zM21 15h1v1H21zM22 15h1v1H22zM8 16h1v1H8zM23 16h1v1H23zM8 21h1v1H8zM23 21h1v1H23zM8 22h1v1H8zM23 22h1v1H23zM4 23h1v1H4zM27 23h1v1H27z"/><path fill="#8b011c" d="M14 9h1v1H14z"/><path fill="#c70225" d="M15 9h1v1H15zM16 9h1v1H16z"/><path fill="#e38a43" d="M14 10h1v1H14zM17 10h1v1H17zM6 19h1v1H6zM25 19h1v1H25zM7 20h1v1H7zM24 20h1v1H24zM6 21h1v1H6zM25 21h1v1H25z"/><path fill="#fdffff" d="M15 10h1v1H15zM16 10h1v1H16z"/><path fill="#b60723" d="M8 12h1v1H8zM23 12h1v1H23zM10 19h1v1H10zM21 19h1v1H21zM4 21h1v1H4zM27 21h1v1H27zM4 22h1v1H4zM27 22h1v1H27z"/><path fill="#fec86f" d="M13 13h1v1H13zM18 13h1v1H18zM8 15h1v1H8zM23 15h1v1H23zM8 17h1v1H8zM23 17h1v1H23zM8 18h1v1H8zM23 18h1v1H23z"/><path fill="#9f0926" d="M14 13h1v1H14zM17 13h1v1H17zM3 20h1v1H3zM5 20h1v1H5zM26 20h1v1H26zM28 20h1v1H28z"/><path fill="#da6630" d="M6 14h1v1H6zM25 14h1v1H25zM7 15h1v1H7zM12 15h1v1H12zM13 15h1v1H13zM18 15h1v1H18zM19 15h1v1H19zM24 15h1v1H24zM5 18h1v1H5zM26 18h1v1H26zM8 19h1v1H8zM23 19h1v1H23zM8 20h1v1H8zM23 20h1v1H23zM5 22h1v1H5zM26 22h1v1H26z"/><path fill="#490516" d="M9 14h1v1H9zM22 14h1v1H22z"/><path fill="#460415" d="M10 14h1v1H10zM21 14h1v1H21z"/><path fill="#450515" d="M11 14h1v1H11zM20 14h1v1H20z"/><path fill="#450414" d="M12 14h1v1H12zM19 14h1v1H19z"/><path fill="#430514" d="M13 14h1v1H13zM18 14h1v1H18z"/><path fill="#aa0622" d="M6 15h1v1H6zM25 15h1v1H25zM6 16h1v1H6zM25 16h1v1H25zM6 17h1v1H6zM25 17h1v1H25z"/><path fill="#fb182a" d="M7 16h1v1H7zM24 16h1v1H24zM7 17h1v1H7zM24 17h1v1H24zM7 18h1v1H7zM24 18h1v1H24z"/><path fill="#010000" d="M9 16h1v1H9zM10 16h1v1H10zM11 16h1v1H11zM12 16h1v1H12zM13 16h1v1H13zM14 16h1v1H14zM15 16h1v1H15zM16 16h1v1H16zM17 16h1v1H17zM18 16h1v1H18zM19 16h1v1H19zM20 16h1v1H20zM21 16h1v1H21zM22 16h1v1H22zM9 17h1v1H9zM10 17h1v1H10zM13 17h1v1H13zM14 17h1v1H14zM15 17h1v1H15zM16 17h1v1H16zM17 17h1v1H17zM18 17h1v1H18zM21 17h1v1H21zM22 17h1v1H22zM9 18h1v1H9zM14 18h1v1H14zM15 18h1v1H15zM16 18h1v1H16zM17 18h1v1H17zM22 18h1v1H22zM9 19h1v1H9zM14 19h1v1H14zM15 19h1v1H15zM16 19h1v1H16zM17 19h1v1H17zM22 19h1v1H22zM9 20h1v1H9zM14 20h1v1H14zM15 20h1v1H15zM16 20h1v1H16zM17 20h1v1H17zM22 20h1v1H22zM9 21h1v1H9zM10 21h1v1H10zM14 21h1v1H14zM15 21h1v1H15zM16 21h1v1H16zM17 21h1v1H17zM21 21h1v1H21zM22 21h1v1H22zM9 22h1v1H9zM10 22h1v1H10zM11 22h1v1H11zM14 22h1v1H14zM15 22h1v1H15zM16 22h1v1H16zM17 22h1v1H17zM20 22h1v1H20zM21 22h1v1H21zM22 22h1v1H22zM9 23h1v1H9zM10 23h1v1H10zM11 23h1v1H11zM12 23h1v1H12zM13 23h1v1H13zM14 23h1v1H14zM15 23h1v1H15zM16 23h1v1H16zM17 23h1v1H17zM18 23h1v1H18zM19 23h1v1H19zM20 23h1v1H20zM21 23h1v1H21zM22 23h1v1H22zM10 24h1v1H10zM11 24h1v1H11zM12 24h1v1H12zM13 24h1v1H13zM14 24h1v1H14zM15 24h1v1H15zM16 24h1v1H16zM17 24h1v1H17zM18 24h1v1H18zM19 24h1v1H19zM20 24h1v1H20zM21 24h1v1H21z"/><path fill="#fd1c36" d="M5 19h1v1H5zM26 19h1v1H26z"/><path fill="#000000" d="M13 19h1v1H13zM18 19h1v1H18zM13 20h1v1H13zM18 20h1v1H18z"/><path fill="#460518" d="M2 20h1v1H2zM29 20h1v1H29z"/><path fill="#fc243c" d="M6 23h1v1H6zM8 23h1v1H8zM23 23h1v1H23zM25 23h1v1H25zM9 24h1v1H9zM22 24h1v1H22zM10 25h1v1H10zM11 25h1v1H11zM12 25h1v1H12zM13 25h1v1H13zM14 25h1v1H14zM15 25h1v1H15zM16 25h1v1H16zM17 25h1v1H17zM18 25h1v1H18zM19 25h1v1H19zM20 25h1v1H20zM21 25h1v1H21z"/><path fill="#990820" d="M6 24h1v1H6zM8 24h1v1H8zM23 24h1v1H23zM25 24h1v1H25zM7 25h1v1H7zM9 25h1v1H9zM22 25h1v1H22zM24 25h1v1H24zM8 26h1v1H8zM23 26h1v1H23z"/><path fill="#280b13" d="M4 25h1v1H4zM27 25h1v1H27z"/><path fill="#e50c25" d="M3 26h1v1H3zM5 26h1v1H5zM26 26h1v1H26zM28 26h1v1H28zM3 27h1v1H3zM4 27h1v1H4zM27 27h1v1H27zM28 27h1v1H28z"/><path fill="#69031c" d="M14 26h1v1H14zM17 26h1v1H17z"/><path fill="#6e081d" d="M5 27h1v1H5zM26 27h1v1H26z"/><path fill="#db0c26" d="M9 27h1v1H9zM12 27h1v1H12zM19 27h1v1H19zM22 27h1v1H22z"/><path fill="#330814" d="M4 28h1v1H4zM27 28h1v1H27z"/><path fill="#370815" d="M5 28h1v1H5zM26 28h1v1H26z"/></svg>
