<svg xmlns="http://www.w3.org/2000/svg" viewBox="0 0 32 32" shape-rendering="crispEdges"><path fill="#ffffff" d="M4 1h1v1H4zM5 1h1v1H5zM6 1h1v1H6zM25 1h1v1H25zM26 1h1v1H26zM27 1h1v1H27zM3 2h1v1H3zM4 2h1v1H4zM5 2h1v1H5zM6 2h1v1H6zM7 2h1v1H7zM24 2h1v1H24zM25 2h1v1H25zM26 2h1v1H26zM27 2h1v1H27zM28 2h1v1H28zM3 3h1v1H3zM4 3h1v1H4zM5 3h1v1H5zM6 3h1v1H6zM7 3h1v1H7zM24 3h1v1H24zM25 3h1v1H25zM26 3h1v1H26zM27 3h1v1H27zM28 3h1v1H28zM4 4h1v1H4zM5 4h1v1H5zM6 4h1v1H6zM7 4h1v1H7zM24 4h1v1H24zM25 4h1v1H25zM26 4h1v1H26zM27 4h1v1H27zM2 5h1v1H2zM3 5h1v1H3zM25 5h1v1H25zM26 5h1v1H26zM28 5h1v1H28zM29 5h1v1H29zM1 6h1v1H1zM2 6h1v1H2zM3 6h1v1H3zM4 6h1v1H4zM6 6h1v1H6zM25 6h1v1H25zM27 6h1v1H27zM28 6h1v1H28zM29 6h1v1H29zM30 6h1v1H30zM1 7h1v1H1zM2 7h1v1H2zM3 7h1v1H3zM4 7h1v1H4zM27 7h1v1H27zM28 7h1v1H28zM29 7h1v1H29zM30 7h1v1H30zM2 8h1v1H2zM3 8h1v1H3zM28 8h1v1H28zM29 8h1v1H29zM6 12h1v1H6zM7 12h1v1H7zM11 12h1v1H11zM12 12h1v1H12zM13 12h1v1H13zM14 12h1v1H14zM15 12h1v1H15zM16 12h1v1H16zM17 12h1v1H17zM18 12h1v1H18zM19 12h1v1H19zM20 12h1v1H20zM24 12h1v1H24zM25 12h1v1H25zM7 13h1v1H7zM8 13h1v1H8zM9 13h1v1H9zM10 13h1v1H10zM11 13h1v1H11zM12 13h1v1H12zM13 13h1v1H13zM14 13h1v1H14zM15 13h1v1H15zM16 13h1v1H16zM17 13h1v1H17zM18 13h1v1H18zM19 13h1v1H19zM20 13h1v1H20zM21 13h1v1H21zM22 13h1v1H22zM23 13h1v1H23zM24 13h1v1H24zM7 14h1v1H7zM24 14h1v1H24zM8 15h1v1H8zM9 15h1v1H9zM10 15h1v1H10zM11 15h1v1H11zM12 15h1v1H12zM13 15h1v1H13zM14 15h1v1H14zM15 15h1v1H15zM16 15h1v1H16zM17 15h1v1H17zM18 15h1v1H18zM19 15h1v1H19zM20 15h1v1H20zM21 15h1v1H21zM22 15h1v1H22zM23 15h1v1H23zM7 16h1v1H7zM24 16h1v1H24zM7 17h1v1H7zM8 17h1v1H8zM9 17h1v1H9zM10 17h1v1H10zM11 17h1v1H11zM12 17h1v1H12zM18 17h1v1H18zM20 17h1v1H20zM21 17h1v1H21zM22 17h1v1H22zM23 17h1v1H23zM24 17h1v1H24zM11 18h1v1H11zM13 18h1v1H13zM19 18h1v1H19zM20 18h1v1H20zM7 19h1v1H7zM8 19h1v1H8zM9 19h1v1H9zM10 19h1v1H10zM11 19h1v1H11zM20 19h1v1H20zM21 19h1v1H21zM22 19h1v1H22zM23 19h1v1H23zM24 19h1v1H24zM8 20h1v1H8zM9 20h1v1H9zM10 20h1v1H10zM11 20h1v1H11zM20 20h1v1H20zM21 20h1v1H21zM22 20h1v1H22zM23 20h1v1H23zM2 21h1v1H2zM3 21h1v1H3zM28 21h1v1H28zM29 21h1v1H29zM1 22h1v1H1zM2 22h1v1H2zM3 22h1v1H3zM4 22h1v1H4zM7 22h1v1H7zM8 22h1v1H8zM9 22h1v1H9zM10 22h1v1H10zM11 22h1v1H11zM12 22h1v1H12zM19 22h1v1H19zM20 22h1v1H20zM21 22h1v1H21zM22 22h1v1H22zM23 22h1v1H23zM24 22h1v1H24zM27 22h1v1H27zM28 22h1v1H28zM29 22h1v1H29zM30 22h1v1H30zM1 23h1v1H1zM2 23h1v1H2zM3 23h1v1H3zM4 23h1v1H4zM8 23h1v1H8zM9 23h1v1H9zM10 23h1v1H10zM11 23h1v1H11zM12 23h1v1H12zM13 23h1v1H13zM14 23h1v1H14zM15 23h1v1H15zM16 23h1v1H16zM17 23h1v1H17zM18 23h1v1H18zM19 23h1v1H19zM20 23h1v1H20zM21 23h1v1H21zM22 23h1v1H22zM23 23h1v1H23zM27 23h1v1H27zM28 23h1v1H28zM29 23h1v1H29zM30 23h1v1H30zM2 24h1v1H2zM3 24h1v1H3zM28 24h1v1H28zM29 24h1v1H29zM7 25h1v1H7zM11 25h1v1H11zM12 25h1v1H12zM13 25h1v1H13zM14 25h1v1H14zM15 25h1v1H15zM16 25h1v1H16zM17 25h1v1H17zM18 25h1v1H18zM19 25h1v1H19zM20 25h1v1H20zM24 25h1v1H24zM7 26h1v1H7zM8 26h1v1H8zM12 26h1v1H12zM13 26h1v1H13zM14 26h1v1H14zM15 26h1v1H15zM16 26h1v1H16zM17 26h1v1H17zM18 26h1v1H18zM19 26h1v1H19zM23 26h1v1H23zM24 26h1v1H24zM4 27h1v1H4zM5 27h1v1H5zM26 27h1v1H26zM27 27h1v1H27zM3 28h1v1H3zM4 28h1v1H4zM5 28h1v1H5zM6 28h1v1H6zM25 28h1v1H25zM26 28h1v1H26zM27 28h1v1H27zM28 28h1v1H28zM3 29h1v1H3zM4 29h1v1H4zM5 29h1v1H5zM6 29h1v1H6zM25 29h1v1H25zM26 29h1v1H26zM27 29h1v1H27zM28 29h1v1H28zM4 30h1v1H4zM5 30h1v1H5zM26 30h1v1H26zM27 30h1v1H27z"/><path fill="#e5e5e5" d="M4 5h1v1H4zM5 5h1v1H5zM6 5h1v1H6zM27 5h1v1H27zM5 6h1v1H5zM26 6h1v1H26zM5 7h1v1H5zM26 7h1v1H26zM4 8h1v1H4zM5 8h1v1H5zM26 8h1v1H26zM27 8h1v1H27zM3 9h1v1H3zM4 9h1v1H4zM27 9h1v1H27zM28 9h1v1H28zM8 10h1v1H8zM9 10h1v1H9zM10 10h1v1H10zM11 10h1v1H11zM12 10h1v1H12zM13 10h1v1H13zM14 10h1v1H14zM17 10h1v1H17zM18 10h1v1H18zM19 10h1v1H19zM20 10h1v1H20zM21 10h1v1H21zM22 10h1v1H22zM23 10h1v1H23zM9 11h1v1H9zM10 11h1v1H10zM11 11h1v1H11zM12 11h1v1H12zM13 11h1v1H13zM18 11h1v1H18zM19 11h1v1H19zM20 11h1v1H20zM21 11h1v1H21zM22 11h1v1H22zM10 12h1v1H10zM21 12h1v1H21zM7 18h1v1H7zM24 18h1v1H24zM4 21h1v1H4zM7 21h1v1H7zM24 21h1v1H24zM27 21h1v1H27zM5 22h1v1H5zM26 22h1v1H26zM5 23h1v1H5zM26 23h1v1H26zM1 24h1v1H1zM4 24h1v1H4zM5 24h1v1H5zM7 24h1v1H7zM24 24h1v1H24zM26 24h1v1H26zM27 24h1v1H27zM30 24h1v1H30zM2 25h1v1H2zM3 25h1v1H3zM4 25h1v1H4zM5 25h1v1H5zM8 25h1v1H8zM9 25h1v1H9zM10 25h1v1H10zM21 25h1v1H21zM22 25h1v1H22zM23 25h1v1H23zM26 25h1v1H26zM27 25h1v1H27zM28 25h1v1H28zM29 25h1v1H29zM4 26h1v1H4zM5 26h1v1H5zM6 26h1v1H6zM9 26h1v1H9zM10 26h1v1H10zM11 26h1v1H11zM20 26h1v1H20zM21 26h1v1H21zM22 26h1v1H22zM25 26h1v1H25zM26 26h1v1H26zM27 26h1v1H27zM6 27h1v1H6zM25 27h1v1H25z"/><path fill="#fbfbfb" d="M7 5h1v1H7zM8 5h1v1H8zM9 5h1v1H9zM22 5h1v1H22zM23 5h1v1H23zM24 5h1v1H24zM7 6h1v1H7zM13 6h1v1H13zM14 6h1v1H14zM15 6h1v1H15zM16 6h1v1H16zM17 6h1v1H17zM18 6h1v1H18zM24 6h1v1H24zM14 7h1v1H14zM15 7h1v1H15zM16 7h1v1H16zM17 7h1v1H17zM8 8h1v1H8zM15 8h1v1H15zM16 8h1v1H16zM23 8h1v1H23zM8 9h1v1H8zM15 9h1v1H15zM16 9h1v1H16zM23 9h1v1H23zM6 15h1v1H6zM25 15h1v1H25zM6 16h1v1H6zM25 16h1v1H25zM6 17h1v1H6zM25 17h1v1H25zM6 18h1v1H6zM25 18h1v1H25zM6 19h1v1H6zM25 19h1v1H25zM6 20h1v1H6zM25 20h1v1H25zM6 21h1v1H6zM25 21h1v1H25zM6 22h1v1H6zM25 22h1v1H25zM6 23h1v1H6zM25 23h1v1H25z"/><path fill="#c2c2c2" d="M10 5h1v1H10zM11 5h1v1H11zM12 5h1v1H12zM13 5h1v1H13zM14 5h1v1H14zM15 5h1v1H15zM16 5h1v1H16zM17 5h1v1H17zM18 5h1v1H18zM19 5h1v1H19zM20 5h1v1H20zM21 5h1v1H21zM7 8h1v1H7zM24 8h1v1H24zM7 9h1v1H7zM24 9h1v1H24zM7 10h1v1H7zM24 10h1v1H24zM7 11h1v1H7zM8 11h1v1H8zM23 11h1v1H23zM24 11h1v1H24zM8 12h1v1H8zM9 12h1v1H9zM22 12h1v1H22zM23 12h1v1H23zM10 16h1v1H10zM11 16h1v1H11zM12 16h1v1H12zM13 16h1v1H13zM14 16h1v1H14zM15 16h1v1H15zM16 16h1v1H16zM17 16h1v1H17zM18 16h1v1H18zM19 16h1v1H19zM20 16h1v1H20zM21 16h1v1H21zM11 21h1v1H11zM12 21h1v1H12zM19 21h1v1H19zM20 21h1v1H20zM13 22h1v1H13zM14 22h1v1H14zM15 22h1v1H15zM16 22h1v1H16zM17 22h1v1H17zM18 22h1v1H18zM12 24h1v1H12zM13 24h1v1H13zM14 24h1v1H14zM15 24h1v1H15zM16 24h1v1H16zM17 24h1v1H17zM18 24h1v1H18zM19 24h1v1H19zM25 24h1v1H25z"/><path fill="#9f9f9f" d="M8 6h1v1H8zM9 6h1v1H9zM22 6h1v1H22zM23 6h1v1H23zM7 7h1v1H7zM8 7h1v1H8zM23 7h1v1H23zM24 7h1v1H24zM7 15h1v1H7zM24 15h1v1H24zM8 16h1v1H8zM9 16h1v1H9zM22 16h1v1H22zM23 16h1v1H23zM8 18h1v1H8zM9 18h1v1H9zM10 18h1v1H10zM21 18h1v1H21zM22 18h1v1H22zM23 18h1v1H23zM14 19h1v1H14zM15 19h1v1H15zM16 19h1v1H16zM17 19h1v1H17zM7 20h1v1H7zM14 20h1v1H14zM15 20h1v1H15zM16 20h1v1H16zM17 20h1v1H17zM24 20h1v1H24zM8 21h1v1H8zM9 21h1v1H9zM10 21h1v1H10zM13 21h1v1H13zM14 21h1v1H14zM15 21h1v1H15zM16 21h1v1H16zM17 21h1v1H17zM18 21h1v1H18zM21 21h1v1H21zM22 21h1v1H22zM23 21h1v1H23zM7 23h1v1H7zM24 23h1v1H24zM8 24h1v1H8zM9 24h1v1H9zM10 24h1v1H10zM11 24h1v1H11zM20 24h1v1H20zM21 24h1v1H21zM22 24h1v1H22zM23 24h1v1H23z"/><path fill="#242424" d="M10 6h1v1H10zM11 6h1v1H11zM12 6h1v1H12zM19 6h1v1H19zM20 6h1v1H20zM21 6h1v1H21zM9 7h1v1H9zM10 7h1v1H10zM11 7h1v1H11zM12 7h1v1H12zM13 7h1v1H13zM18 7h1v1H18zM19 7h1v1H19zM20 7h1v1H20zM21 7h1v1H21zM22 7h1v1H22zM9 8h1v1H9zM10 8h1v1H10zM11 8h1v1H11zM12 8h1v1H12zM13 8h1v1H13zM14 8h1v1H14zM17 8h1v1H17zM18 8h1v1H18zM19 8h1v1H19zM20 8h1v1H20zM21 8h1v1H21zM22 8h1v1H22zM10 9h1v1H10zM11 9h1v1H11zM12 9h1v1H12zM13 9h1v1H13zM18 9h1v1H18zM19 9h1v1H19zM20 9h1v1H20zM21 9h1v1H21zM15 10h1v1H15zM16 10h1v1H16zM14 11h1v1H14zM15 11h1v1H15zM16 11h1v1H16zM17 11h1v1H17z"/><path fill="#c8c8c8" d="M6 7h1v1H6zM25 7h1v1H25zM6 8h1v1H6zM25 8h1v1H25zM6 9h1v1H6zM25 9h1v1H25zM6 10h1v1H6zM25 10h1v1H25z"/><path fill="#a0a0a0" d="M9 9h1v1H9zM14 9h1v1H14zM17 9h1v1H17zM22 9h1v1H22zM6 14h1v1H6zM25 14h1v1H25zM6 24h1v1H6z"/><path fill="#f0f0f0" d="M6 11h1v1H6zM25 11h1v1H25z"/><path fill="#7f7f7f" d="M6 13h1v1H6zM25 13h1v1H25zM8 14h1v1H8zM9 14h1v1H9zM10 14h1v1H10zM11 14h1v1H11zM12 14h1v1H12zM13 14h1v1H13zM14 14h1v1H14zM15 14h1v1H15zM16 14h1v1H16zM17 14h1v1H17zM18 14h1v1H18zM19 14h1v1H19zM20 14h1v1H20zM21 14h1v1H21zM22 14h1v1H22zM23 14h1v1H23zM14 17h1v1H14zM15 17h1v1H15zM16 17h1v1H16zM17 17h1v1H17zM14 18h1v1H14zM15 18h1v1H15zM16 18h1v1H16zM17 18h1v1H17zM6 25h1v1H6zM25 25h1v1H25z"/><path fill="#0e0e14" d="M13 17h1v1H13zM19 17h1v1H19zM12 18h1v1H12zM18 18h1v1H18zM12 19h1v1H12zM13 19h1v1H13zM18 19h1v1H18zM19 19h1v1H19zM12 20h1v1H12zM13 20h1v1H13zM18 20h1v1H18zM19 20h1v1H19z"/></svg>
