<svg xmlns="http://www.w3.org/2000/svg" viewBox="0 0 32 32" shape-rendering="crispEdges"><path fill="#f5f5f5" d="M3 1h1v1H3zM4 1h1v1H4zM5 1h1v1H5zM26 1h1v1H26zM27 1h1v1H27zM28 1h1v1H28zM2 2h1v1H2zM3 2h1v1H3zM4 2h1v1H4zM5 2h1v1H5zM6 2h1v1H6zM14 2h1v1H14zM17 2h1v1H17zM25 2h1v1H25zM26 2h1v1H26zM27 2h1v1H27zM28 2h1v1H28zM29 2h1v1H29zM2 3h1v1H2zM3 3h1v1H3zM4 3h1v1H4zM5 3h1v1H5zM6 3h1v1H6zM7 3h1v1H7zM9 3h1v1H9zM10 3h1v1H10zM11 3h1v1H11zM12 3h1v1H12zM19 3h1v1H19zM20 3h1v1H20zM21 3h1v1H21zM22 3h1v1H22zM24 3h1v1H24zM25 3h1v1H25zM26 3h1v1H26zM27 3h1v1H27zM28 3h1v1H28zM29 3h1v1H29zM4 4h1v1H4zM5 4h1v1H5zM6 4h1v1H6zM8 4h1v1H8zM9 4h1v1H9zM10 4h1v1H10zM11 4h1v1H11zM12 4h1v1H12zM13 4h1v1H13zM18 4h1v1H18zM19 4h1v1H19zM20 4h1v1H20zM21 4h1v1H21zM22 4h1v1H22zM23 4h1v1H23zM25 4h1v1H25zM26 4h1v1H26zM27 4h1v1H27zM8 5h1v1H8zM9 5h1v1H9zM10 5h1v1H10zM11 5h1v1H11zM12 5h1v1H12zM13 5h1v1H13zM18 5h1v1H18zM19 5h1v1H19zM20 5h1v1H20zM21 5h1v1H21zM22 5h1v1H22zM23 5h1v1H23zM8 6h1v1H8zM9 6h1v1H9zM10 6h1v1H10zM11 6h1v1H11zM12 6h1v1H12zM13 6h1v1H13zM18 6h1v1H18zM19 6h1v1H19zM20 6h1v1H20zM21 6h1v1H21zM22 6h1v1H22zM23 6h1v1H23zM9 7h1v1H9zM10 7h1v1H10zM11 7h1v1H11zM12 7h1v1H12zM19 7h1v1H19zM20 7h1v1H20zM21 7h1v1H21zM22 7h1v1H22zM5 8h1v1H5zM15 8h1v1H15zM16 8h1v1H16zM26 8h1v1H26zM2 9h1v1H2zM3 9h1v1H3zM7 9h1v1H7zM8 9h1v1H8zM9 9h1v1H9zM14 9h1v1H14zM15 9h1v1H15zM16 9h1v1H16zM17 9h1v1H17zM22 9h1v1H22zM23 9h1v1H23zM24 9h1v1H24zM28 9h1v1H28zM29 9h1v1H29zM2 10h1v1H2zM3 10h1v1H3zM7 10h1v1H7zM8 10h1v1H8zM9 10h1v1H9zM10 10h1v1H10zM11 10h1v1H11zM20 10h1v1H20zM21 10h1v1H21zM22 10h1v1H22zM23 10h1v1H23zM24 10h1v1H24zM28 10h1v1H28zM29 10h1v1H29zM7 11h1v1H7zM8 11h1v1H8zM9 11h1v1H9zM10 11h1v1H10zM11 11h1v1H11zM14 11h1v1H14zM15 11h1v1H15zM16 11h1v1H16zM17 11h1v1H17zM20 11h1v1H20zM21 11h1v1H21zM22 11h1v1H22zM23 11h1v1H23zM24 11h1v1H24zM1 12h1v1H1zM2 12h1v1H2zM3 12h1v1H3zM6 12h1v1H6zM9 12h1v1H9zM10 12h1v1H10zM11 12h1v1H11zM12 12h1v1H12zM13 12h1v1H13zM14 12h1v1H14zM15 12h1v1H15zM16 12h1v1H16zM17 12h1v1H17zM18 12h1v1H18zM19 12h1v1H19zM20 12h1v1H20zM21 12h1v1H21zM22 12h1v1H22zM25 12h1v1H25zM28 12h1v1H28zM29 12h1v1H29zM30 12h1v1H30zM1 13h1v1H1zM2 13h1v1H2zM3 13h1v1H3zM8 13h1v1H8zM9 13h1v1H9zM10 13h1v1H10zM11 13h1v1H11zM12 13h1v1H12zM13 13h1v1H13zM14 13h1v1H14zM15 13h1v1H15zM16 13h1v1H16zM17 13h1v1H17zM18 13h1v1H18zM19 13h1v1H19zM20 13h1v1H20zM21 13h1v1H21zM22 13h1v1H22zM23 13h1v1H23zM28 13h1v1H28zM29 13h1v1H29zM30 13h1v1H30zM1 14h1v1H1zM2 14h1v1H2zM3 14h1v1H3zM13 14h1v1H13zM14 14h1v1H14zM15 14h1v1H15zM16 14h1v1H16zM17 14h1v1H17zM18 14h1v1H18zM28 14h1v1H28zM29 14h1v1H29zM30 14h1v1H30zM6 15h1v1H6zM7 15h1v1H7zM9 15h1v1H9zM10 15h1v1H10zM21 15h1v1H21zM22 15h1v1H22zM24 15h1v1H24zM25 15h1v1H25zM5 16h1v1H5zM6 16h1v1H6zM7 16h1v1H7zM8 16h1v1H8zM9 16h1v1H9zM10 16h1v1H10zM21 16h1v1H21zM22 16h1v1H22zM23 16h1v1H23zM24 16h1v1H24zM25 16h1v1H25zM26 16h1v1H26zM3 17h1v1H3zM4 17h1v1H4zM6 17h1v1H6zM7 17h1v1H7zM8 17h1v1H8zM9 17h1v1H9zM22 17h1v1H22zM23 17h1v1H23zM24 17h1v1H24zM25 17h1v1H25zM27 17h1v1H27zM28 17h1v1H28zM3 18h1v1H3zM4 18h1v1H4zM5 18h1v1H5zM6 18h1v1H6zM7 18h1v1H7zM8 18h1v1H8zM9 18h1v1H9zM10 18h1v1H10zM21 18h1v1H21zM22 18h1v1H22zM23 18h1v1H23zM24 18h1v1H24zM25 18h1v1H25zM26 18h1v1H26zM27 18h1v1H27zM28 18h1v1H28zM5 19h1v1H5zM6 19h1v1H6zM9 19h1v1H9zM10 19h1v1H10zM21 19h1v1H21zM22 19h1v1H22zM25 19h1v1H25zM26 19h1v1H26zM9 21h1v1H9zM10 21h1v1H10zM21 21h1v1H21zM22 21h1v1H22zM9 22h1v1H9zM10 22h1v1H10zM12 22h1v1H12zM13 22h1v1H13zM18 22h1v1H18zM19 22h1v1H19zM21 22h1v1H21zM22 22h1v1H22zM8 23h1v1H8zM9 23h1v1H9zM11 23h1v1H11zM12 23h1v1H12zM13 23h1v1H13zM14 23h1v1H14zM15 23h1v1H15zM16 23h1v1H16zM17 23h1v1H17zM18 23h1v1H18zM19 23h1v1H19zM20 23h1v1H20zM22 23h1v1H22zM23 23h1v1H23zM8 24h1v1H8zM9 24h1v1H9zM10 24h1v1H10zM11 24h1v1H11zM12 24h1v1H12zM13 24h1v1H13zM14 24h1v1H14zM15 24h1v1H15zM16 24h1v1H16zM17 24h1v1H17zM18 24h1v1H18zM19 24h1v1H19zM20 24h1v1H20zM21 24h1v1H21zM22 24h1v1H22zM23 24h1v1H23zM9 25h1v1H9zM10 25h1v1H10zM11 25h1v1H11zM12 25h1v1H12zM14 25h1v1H14zM15 25h1v1H15zM16 25h1v1H16zM17 25h1v1H17zM19 25h1v1H19zM20 25h1v1H20zM21 25h1v1H21zM22 25h1v1H22z"/><path fill="#c2c2c2" d="M2 4h1v1H2zM3 4h1v1H3zM28 4h1v1H28zM29 4h1v1H29zM2 5h1v1H2zM3 5h1v1H3zM4 5h1v1H4zM5 5h1v1H5zM6 5h1v1H6zM25 5h1v1H25zM26 5h1v1H26zM27 5h1v1H27zM28 5h1v1H28zM29 5h1v1H29zM4 6h1v1H4zM5 6h1v1H5zM6 6h1v1H6zM25 6h1v1H25zM26 6h1v1H26zM27 6h1v1H27zM8 7h1v1H8zM13 7h1v1H13zM18 7h1v1H18zM23 7h1v1H23zM3 8h1v1H3zM4 8h1v1H4zM9 8h1v1H9zM10 8h1v1H10zM11 8h1v1H11zM12 8h1v1H12zM19 8h1v1H19zM20 8h1v1H20zM21 8h1v1H21zM22 8h1v1H22zM27 8h1v1H27zM28 8h1v1H28zM4 9h1v1H4zM27 9h1v1H27zM15 10h1v1H15zM16 10h1v1H16zM7 12h1v1H7zM8 12h1v1H8zM23 12h1v1H23zM24 12h1v1H24zM4 13h1v1H4zM27 13h1v1H27zM4 14h1v1H4zM8 14h1v1H8zM9 14h1v1H9zM10 14h1v1H10zM11 14h1v1H11zM20 14h1v1H20zM21 14h1v1H21zM22 14h1v1H22zM23 14h1v1H23zM27 14h1v1H27zM2 15h1v1H2zM3 15h1v1H3zM4 15h1v1H4zM8 15h1v1H8zM11 15h1v1H11zM20 15h1v1H20zM23 15h1v1H23zM27 15h1v1H27zM28 15h1v1H28zM29 15h1v1H29zM11 16h1v1H11zM20 16h1v1H20zM10 17h1v1H10zM11 17h1v1H11zM20 17h1v1H20zM21 17h1v1H21zM14 18h1v1H14zM15 18h1v1H15zM16 18h1v1H16zM17 18h1v1H17zM4 19h1v1H4zM14 19h1v1H14zM15 19h1v1H15zM16 19h1v1H16zM17 19h1v1H17zM27 19h1v1H27zM10 20h1v1H10zM14 20h1v1H14zM15 20h1v1H15zM16 20h1v1H16zM17 20h1v1H17zM21 20h1v1H21zM5 21h1v1H5zM6 21h1v1H6zM7 21h1v1H7zM8 21h1v1H8zM11 21h1v1H11zM12 21h1v1H12zM13 21h1v1H13zM14 21h1v1H14zM15 21h1v1H15zM16 21h1v1H16zM17 21h1v1H17zM18 21h1v1H18zM19 21h1v1H19zM20 21h1v1H20zM23 21h1v1H23zM24 21h1v1H24zM25 21h1v1H25zM26 21h1v1H26zM7 22h1v1H7zM8 22h1v1H8zM11 22h1v1H11zM14 22h1v1H14zM15 22h1v1H15zM16 22h1v1H16zM17 22h1v1H17zM20 22h1v1H20zM23 22h1v1H23zM24 22h1v1H24zM3 23h1v1H3zM28 23h1v1H28zM4 24h1v1H4zM5 24h1v1H5zM26 24h1v1H26zM27 24h1v1H27zM7 25h1v1H7zM8 25h1v1H8zM13 25h1v1H13zM18 25h1v1H18zM23 25h1v1H23zM24 25h1v1H24zM7 26h1v1H7zM8 26h1v1H8zM11 26h1v1H11zM12 26h1v1H12zM13 26h1v1H13zM14 26h1v1H14zM15 26h1v1H15zM16 26h1v1H16zM17 26h1v1H17zM18 26h1v1H18zM19 26h1v1H19zM20 26h1v1H20zM23 26h1v1H23zM24 26h1v1H24z"/><path fill="#d2d2d2" d="M7 5h1v1H7zM24 5h1v1H24z"/><path fill="#e5e5e5" d="M14 5h1v1H14zM15 5h1v1H15zM16 5h1v1H16zM17 5h1v1H17zM2 6h1v1H2zM7 6h1v1H7zM14 6h1v1H14zM15 6h1v1H15zM16 6h1v1H16zM17 6h1v1H17zM24 6h1v1H24zM29 6h1v1H29zM3 7h1v1H3zM5 7h1v1H5zM6 7h1v1H6zM7 7h1v1H7zM14 7h1v1H14zM15 7h1v1H15zM16 7h1v1H16zM17 7h1v1H17zM24 7h1v1H24zM25 7h1v1H25zM26 7h1v1H26zM28 7h1v1H28zM6 8h1v1H6zM7 8h1v1H7zM8 8h1v1H8zM13 8h1v1H13zM14 8h1v1H14zM17 8h1v1H17zM18 8h1v1H18zM23 8h1v1H23zM24 8h1v1H24zM25 8h1v1H25zM5 9h1v1H5zM6 9h1v1H6zM10 9h1v1H10zM11 9h1v1H11zM12 9h1v1H12zM13 9h1v1H13zM18 9h1v1H18zM19 9h1v1H19zM20 9h1v1H20zM21 9h1v1H21zM25 9h1v1H25zM26 9h1v1H26zM5 10h1v1H5zM6 10h1v1H6zM12 10h1v1H12zM13 10h1v1H13zM14 10h1v1H14zM17 10h1v1H17zM18 10h1v1H18zM19 10h1v1H19zM25 10h1v1H25zM26 10h1v1H26zM3 11h1v1H3zM4 11h1v1H4zM5 11h1v1H5zM6 11h1v1H6zM12 11h1v1H12zM13 11h1v1H13zM18 11h1v1H18zM19 11h1v1H19zM25 11h1v1H25zM26 11h1v1H26zM27 11h1v1H27zM28 11h1v1H28zM4 12h1v1H4zM5 12h1v1H5zM26 12h1v1H26zM27 12h1v1H27zM5 13h1v1H5zM7 13h1v1H7zM24 13h1v1H24zM26 13h1v1H26zM12 14h1v1H12zM19 14h1v1H19zM12 15h1v1H12zM13 15h1v1H13zM14 15h1v1H14zM15 15h1v1H15zM16 15h1v1H16zM17 15h1v1H17zM18 15h1v1H18zM19 15h1v1H19zM2 16h1v1H2zM4 16h1v1H4zM13 16h1v1H13zM14 16h1v1H14zM15 16h1v1H15zM16 16h1v1H16zM17 16h1v1H17zM18 16h1v1H18zM27 16h1v1H27zM29 16h1v1H29zM1 17h1v1H1zM2 17h1v1H2zM29 17h1v1H29zM30 17h1v1H30zM1 18h1v1H1zM2 18h1v1H2zM29 18h1v1H29zM30 18h1v1H30zM1 19h1v1H1zM2 19h1v1H2zM29 19h1v1H29zM30 19h1v1H30zM2 20h1v1H2zM4 20h1v1H4zM27 20h1v1H27zM29 20h1v1H29zM2 21h1v1H2zM3 21h1v1H3zM4 21h1v1H4zM27 21h1v1H27zM28 21h1v1H28zM29 21h1v1H29zM3 22h1v1H3zM4 22h1v1H4zM5 22h1v1H5zM6 22h1v1H6zM25 22h1v1H25zM26 22h1v1H26zM27 22h1v1H27zM28 22h1v1H28zM4 23h1v1H4zM5 23h1v1H5zM6 23h1v1H6zM7 23h1v1H7zM24 23h1v1H24zM25 23h1v1H25zM26 23h1v1H26zM27 23h1v1H27zM6 24h1v1H6zM7 24h1v1H7zM24 24h1v1H24zM25 24h1v1H25z"/><path fill="#a0a0a0" d="M4 10h1v1H4zM27 10h1v1H27zM6 14h1v1H6zM7 14h1v1H7zM24 14h1v1H24zM25 14h1v1H25zM12 16h1v1H12zM19 16h1v1H19zM14 17h1v1H14zM15 17h1v1H15zM16 17h1v1H16zM17 17h1v1H17zM7 19h1v1H7zM8 19h1v1H8zM23 19h1v1H23zM24 19h1v1H24zM6 20h1v1H6zM7 20h1v1H7zM8 20h1v1H8zM9 20h1v1H9zM22 20h1v1H22zM23 20h1v1H23zM24 20h1v1H24zM25 20h1v1H25zM10 23h1v1H10zM21 23h1v1H21zM9 26h1v1H9zM10 26h1v1H10zM21 26h1v1H21zM22 26h1v1H22z"/><path fill="#7f7f7f" d="M6 13h1v1H6zM25 13h1v1H25zM6 25h1v1H6zM25 25h1v1H25z"/><path fill="#ffffff" d="M12 17h1v1H12zM18 17h1v1H18zM11 18h1v1H11zM13 18h1v1H13zM19 18h1v1H19zM20 18h1v1H20zM11 19h1v1H11zM20 19h1v1H20zM11 20h1v1H11zM20 20h1v1H20z"/><path fill="#0e0e14" d="M13 17h1v1H13zM19 17h1v1H19zM12 18h1v1H12zM18 18h1v1H18zM12 19h1v1H12zM13 19h1v1H13zM18 19h1v1H18zM19 19h1v1H19zM12 20h1v1H12zM13 20h1v1H13zM18 20h1v1H18zM19 20h1v1H19z"/></svg>
