<svg xmlns="http://www.w3.org/2000/svg" viewBox="0 0 32 32" shape-rendering="crispEdges"><path fill="#3b2516" d="M17 2h1v1H17zM18 2h1v1H18zM19 2h1v1H19zM20 2h1v1H20zM8 3h1v1H8zM9 3h1v1H9zM15 3h1v1H15zM16 3h1v1H16zM21 3h1v1H21zM22 3h1v1H22zM7 4h1v1H7zM14 4h1v1H14zM23 4h1v1H23zM24 4h1v1H24zM7 5h1v1H7zM17 5h1v1H17zM18 5h1v1H18zM19 5h1v1H19zM20 5h1v1H20zM25 5h1v1H25zM27 6h1v1H27zM24 7h1v1H24zM27 7h1v1H27zM28 8h1v1H28zM28 9h1v1H28z"/><path fill="#4e3320" d="M17 3h1v1H17zM18 3h1v1H18zM15 4h1v1H15zM16 4h1v1H16zM17 4h1v1H17zM18 4h1v1H18zM21 4h1v1H21zM22 4h1v1H22zM16 5h1v1H16zM24 6h1v1H24zM25 6h1v1H25zM26 6h1v1H26zM25 7h1v1H25zM26 7h1v1H26z"/><path fill="#735327" d="M19 3h1v1H19zM20 3h1v1H20zM8 4h1v1H8zM9 4h1v1H9zM19 4h1v1H19zM20 4h1v1H20zM23 5h1v1H23zM24 5h1v1H24zM13 8h1v1H13zM26 8h1v1H26zM27 8h1v1H27z"/><path fill="#5c3c26" d="M10 4h1v1H10zM11 4h1v1H11zM12 4h1v1H12zM13 4h1v1H13zM8 5h1v1H8zM9 5h1v1H9zM14 5h1v1H14zM15 5h1v1H15zM21 5h1v1H21zM22 5h1v1H22zM6 6h1v1H6zM7 6h1v1H7zM16 6h1v1H16zM20 6h1v1H20zM23 6h1v1H23zM5 7h1v1H5zM9 7h1v1H9zM10 7h1v1H10zM11 7h1v1H11zM12 7h1v1H12zM13 7h1v1H13zM17 7h1v1H17zM19 7h1v1H19zM20 7h1v1H20zM21 7h1v1H21zM22 7h1v1H22zM23 7h1v1H23zM4 8h1v1H4zM6 8h1v1H6zM8 8h1v1H8zM12 8h1v1H12zM14 8h1v1H14zM17 8h1v1H17zM18 8h1v1H18zM19 8h1v1H19zM24 8h1v1H24zM25 8h1v1H25zM4 9h1v1H4zM5 9h1v1H5zM7 9h1v1H7zM13 9h1v1H13zM14 9h1v1H14zM17 9h1v1H17zM26 9h1v1H26zM27 9h1v1H27zM3 10h1v1H3zM10 10h1v1H10zM14 10h1v1H14zM15 10h1v1H15zM16 10h1v1H16zM20 10h1v1H20zM21 10h1v1H21zM22 10h1v1H22zM23 10h1v1H23zM28 10h1v1H28zM3 11h1v1H3zM6 11h1v1H6zM9 11h1v1H9zM11 11h1v1H11zM15 11h1v1H15zM16 11h1v1H16zM19 11h1v1H19zM24 11h1v1H24zM25 11h1v1H25zM28 11h1v1H28zM3 12h1v1H3zM5 12h1v1H5zM8 12h1v1H8zM12 12h1v1H12zM19 12h1v1H19zM26 12h1v1H26zM28 12h1v1H28zM4 13h1v1H4zM27 13h1v1H27zM4 14h1v1H4zM15 14h1v1H15zM27 14h1v1H27zM4 15h1v1H4zM5 15h1v1H5zM26 15h1v1H26zM27 15h1v1H27z"/><path fill="#9b7035" d="M10 5h1v1H10zM11 5h1v1H11zM11 6h1v1H11zM21 6h1v1H21zM22 6h1v1H22zM6 7h1v1H6zM7 7h1v1H7zM15 8h1v1H15zM16 8h1v1H16zM22 8h1v1H22zM23 8h1v1H23zM11 9h1v1H11zM12 9h1v1H12zM16 9h1v1H16zM22 9h1v1H22zM4 10h1v1H4zM5 10h1v1H5zM7 10h1v1H7zM8 10h1v1H8zM11 10h1v1H11zM26 10h1v1H26zM27 10h1v1H27zM4 11h1v1H4zM7 11h1v1H7zM8 11h1v1H8zM17 11h1v1H17zM18 11h1v1H18zM27 11h1v1H27zM14 12h1v1H14zM17 12h1v1H17zM5 13h1v1H5zM26 13h1v1H26zM8 14h1v1H8zM9 14h1v1H9zM10 14h1v1H10zM11 14h1v1H11zM20 14h1v1H20zM21 14h1v1H21zM22 14h1v1H22zM23 14h1v1H23zM8 15h1v1H8zM11 15h1v1H11zM20 15h1v1H20zM23 15h1v1H23zM5 17h1v1H5zM26 17h1v1H26zM5 18h1v1H5zM6 18h1v1H6zM25 18h1v1H25zM26 18h1v1H26zM15 19h1v1H15zM16 19h1v1H16zM6 20h1v1H6zM25 20h1v1H25zM6 21h1v1H6zM7 21h1v1H7zM24 21h1v1H24zM25 21h1v1H25zM11 22h1v1H11zM20 22h1v1H20zM10 23h1v1H10zM11 23h1v1H11zM20 23h1v1H20zM21 23h1v1H21z"/><path fill="#8b602d" d="M12 5h1v1H12zM13 5h1v1H13zM8 6h1v1H8zM9 6h1v1H9zM12 6h1v1H12zM13 6h1v1H13zM14 6h1v1H14zM15 6h1v1H15zM8 7h1v1H8zM14 7h1v1H14zM15 7h1v1H15zM16 7h1v1H16zM5 8h1v1H5zM9 8h1v1H9zM10 8h1v1H10zM11 8h1v1H11zM20 8h1v1H20zM21 8h1v1H21zM6 9h1v1H6zM8 9h1v1H8zM9 9h1v1H9zM10 9h1v1H10zM18 9h1v1H18zM19 9h1v1H19zM20 9h1v1H20zM21 9h1v1H21zM24 9h1v1H24zM25 9h1v1H25zM6 10h1v1H6zM9 10h1v1H9zM13 10h1v1H13zM17 10h1v1H17zM18 10h1v1H18zM19 10h1v1H19zM24 10h1v1H24zM25 10h1v1H25zM12 11h1v1H12zM13 11h1v1H13zM14 11h1v1H14zM4 12h1v1H4zM6 12h1v1H6zM7 12h1v1H7zM13 12h1v1H13zM27 12h1v1H27zM7 15h1v1H7zM12 15h1v1H12zM13 15h1v1H13zM18 15h1v1H18zM19 15h1v1H19zM24 15h1v1H24zM7 16h1v1H7zM8 16h1v1H8zM12 16h1v1H12zM13 16h1v1H13zM14 16h1v1H14zM16 16h1v1H16zM17 16h1v1H17zM18 16h1v1H18zM19 16h1v1H19zM23 16h1v1H23zM24 16h1v1H24zM25 16h1v1H25zM14 17h1v1H14zM16 17h1v1H16zM17 17h1v1H17zM24 17h1v1H24zM5 19h1v1H5zM6 19h1v1H6zM5 20h1v1H5zM15 20h1v1H15zM16 20h1v1H16zM26 20h1v1H26zM8 21h1v1H8zM9 21h1v1H9zM14 21h1v1H14zM15 21h1v1H15zM16 21h1v1H16zM22 21h1v1H22zM23 21h1v1H23zM8 22h1v1H8zM9 22h1v1H9zM12 22h1v1H12zM13 22h1v1H13zM14 22h1v1H14zM15 22h1v1H15zM17 22h1v1H17zM18 22h1v1H18zM19 22h1v1H19zM22 22h1v1H22zM23 22h1v1H23zM12 23h1v1H12zM13 23h1v1H13zM18 23h1v1H18zM19 23h1v1H19z"/><path fill="#b48a42" d="M10 6h1v1H10zM7 8h1v1H7zM15 9h1v1H15zM23 9h1v1H23zM12 10h1v1H12zM5 11h1v1H5zM26 11h1v1H26zM15 12h1v1H15zM16 12h1v1H16zM18 12h1v1H18zM25 12h1v1H25zM8 13h1v1H8zM9 13h1v1H9zM12 13h1v1H12zM13 13h1v1H13zM14 13h1v1H14zM15 13h1v1H15zM16 13h1v1H16zM17 13h1v1H17zM18 13h1v1H18zM19 13h1v1H19zM22 13h1v1H22zM23 13h1v1H23zM5 14h1v1H5zM6 14h1v1H6zM25 14h1v1H25zM26 14h1v1H26zM9 15h1v1H9zM10 15h1v1H10zM21 15h1v1H21zM22 15h1v1H22zM6 17h1v1H6zM25 17h1v1H25zM15 18h1v1H15zM16 18h1v1H16zM7 20h1v1H7zM24 20h1v1H24zM10 22h1v1H10zM21 22h1v1H21zM25 24h1v1H25z"/><path fill="#331e10" d="M17 6h1v1H17zM18 6h1v1H18zM19 6h1v1H19zM18 7h1v1H18zM10 11h1v1H10zM20 11h1v1H20zM21 11h1v1H21zM22 11h1v1H22zM23 11h1v1H23zM9 12h1v1H9zM10 12h1v1H10zM11 12h1v1H11zM20 12h1v1H20zM21 12h1v1H21zM22 12h1v1H22zM23 12h1v1H23zM24 12h1v1H24zM6 13h1v1H6zM7 13h1v1H7zM24 13h1v1H24zM25 13h1v1H25zM14 14h1v1H14zM16 14h1v1H16zM17 14h1v1H17zM9 17h1v1H9zM10 17h1v1H10zM11 17h1v1H11zM20 17h1v1H20zM21 17h1v1H21zM22 17h1v1H22zM8 18h1v1H8zM9 18h1v1H9zM10 18h1v1H10zM21 18h1v1H21zM22 18h1v1H22zM23 18h1v1H23zM8 19h1v1H8zM9 19h1v1H9zM10 19h1v1H10zM21 19h1v1H21zM22 19h1v1H22zM23 19h1v1H23zM21 20h1v1H21zM5 23h1v1H5zM24 23h1v1H24zM25 23h1v1H25zM5 24h1v1H5zM22 24h1v1H22zM6 25h1v1H6zM7 25h1v1H7zM12 25h1v1H12zM20 25h1v1H20zM25 25h1v1H25zM7 26h1v1H7zM8 26h1v1H8zM15 26h1v1H15zM16 26h1v1H16zM17 26h1v1H17zM20 26h1v1H20zM23 26h1v1H23zM24 26h1v1H24zM14 27h1v1H14zM15 27h1v1H15zM16 27h1v1H16zM22 27h1v1H22zM23 27h1v1H23z"/><path fill="#674025" d="M10 13h1v1H10zM11 13h1v1H11zM20 13h1v1H20zM21 13h1v1H21zM7 14h1v1H7zM12 14h1v1H12zM13 14h1v1H13zM18 14h1v1H18zM19 14h1v1H19zM24 14h1v1H24zM6 15h1v1H6zM14 15h1v1H14zM15 15h1v1H15zM16 15h1v1H16zM17 15h1v1H17zM25 15h1v1H25zM5 16h1v1H5zM6 16h1v1H6zM9 16h1v1H9zM10 16h1v1H10zM11 16h1v1H11zM15 16h1v1H15zM20 16h1v1H20zM21 16h1v1H21zM22 16h1v1H22zM26 16h1v1H26zM4 17h1v1H4zM7 17h1v1H7zM8 17h1v1H8zM15 17h1v1H15zM23 17h1v1H23zM27 17h1v1H27zM4 18h1v1H4zM7 18h1v1H7zM14 18h1v1H14zM17 18h1v1H17zM24 18h1v1H24zM27 18h1v1H27zM4 19h1v1H4zM7 19h1v1H7zM14 19h1v1H14zM17 19h1v1H17zM24 19h1v1H24zM25 19h1v1H25zM26 19h1v1H26zM27 19h1v1H27zM4 20h1v1H4zM8 20h1v1H8zM9 20h1v1H9zM14 20h1v1H14zM17 20h1v1H17zM22 20h1v1H22zM23 20h1v1H23zM27 20h1v1H27zM5 21h1v1H5zM10 21h1v1H10zM11 21h1v1H11zM12 21h1v1H12zM13 21h1v1H13zM17 21h1v1H17zM18 21h1v1H18zM19 21h1v1H19zM20 21h1v1H20zM21 21h1v1H21zM26 21h1v1H26zM6 22h1v1H6zM7 22h1v1H7zM16 22h1v1H16zM24 22h1v1H24zM25 22h1v1H25zM8 23h1v1H8zM9 23h1v1H9zM14 23h1v1H14zM15 23h1v1H15zM16 23h1v1H16zM17 23h1v1H17zM22 23h1v1H22zM23 23h1v1H23zM10 24h1v1H10zM11 24h1v1H11zM12 24h1v1H12zM13 24h1v1H13zM18 24h1v1H18zM19 24h1v1H19zM20 24h1v1H20zM21 24h1v1H21z"/><path fill="#ffffff" d="M12 17h1v1H12zM18 17h1v1H18zM11 18h1v1H11zM13 18h1v1H13zM19 18h1v1H19zM20 18h1v1H20zM11 19h1v1H11zM20 19h1v1H20zM11 20h1v1H11zM20 20h1v1H20z"/><path fill="#0e0e14" d="M13 17h1v1H13zM19 17h1v1H19zM12 18h1v1H12zM18 18h1v1H18zM12 19h1v1H12zM13 19h1v1H13zM18 19h1v1H18zM19 19h1v1H19zM12 20h1v1H12zM13 20h1v1H13zM18 20h1v1H18zM19 20h1v1H19z"/><path fill="#6f5026" d="M10 20h1v1H10zM6 23h1v1H6zM6 24h1v1H6zM8 24h1v1H8zM17 24h1v1H17zM24 24h1v1H24zM8 25h1v1H8zM10 25h1v1H10zM13 25h1v1H13zM14 25h1v1H14zM17 25h1v1H17zM18 25h1v1H18zM22 25h1v1H22zM24 25h1v1H24zM9 26h1v1H9zM10 26h1v1H10zM13 26h1v1H13zM14 26h1v1H14zM18 26h1v1H18zM22 26h1v1H22zM13 27h1v1H13z"/><path fill="#4a301f" d="M7 23h1v1H7zM7 24h1v1H7zM9 24h1v1H9zM14 24h1v1H14zM15 24h1v1H15zM16 24h1v1H16zM23 24h1v1H23zM9 25h1v1H9zM11 25h1v1H11zM15 25h1v1H15zM16 25h1v1H16zM19 25h1v1H19zM21 25h1v1H21zM23 25h1v1H23zM11 26h1v1H11zM12 26h1v1H12zM19 26h1v1H19zM21 26h1v1H21zM12 27h1v1H12z"/></svg>
