<svg xmlns="http://www.w3.org/2000/svg" viewBox="0 0 32 32" shape-rendering="crispEdges"><path fill="#4b300e" d="M5 2h1v1H5zM6 2h1v1H6zM25 2h1v1H25zM26 2h1v1H26zM6 3h1v1H6zM7 3h1v1H7zM8 3h1v1H8zM10 3h1v1H10zM21 3h1v1H21zM23 3h1v1H23zM24 3h1v1H24zM25 3h1v1H25zM4 4h1v1H4zM27 4h1v1H27zM5 5h1v1H5zM26 5h1v1H26zM15 8h1v1H15zM16 8h1v1H16zM5 9h1v1H5zM13 9h1v1H13zM14 9h1v1H14zM15 9h1v1H15zM16 9h1v1H16zM17 9h1v1H17zM18 9h1v1H18zM26 9h1v1H26zM12 10h1v1H12zM13 10h1v1H13zM14 10h1v1H14zM15 10h1v1H15zM16 10h1v1H16zM17 10h1v1H17zM18 10h1v1H18zM19 10h1v1H19zM3 11h1v1H3zM4 11h1v1H4zM10 11h1v1H10zM11 11h1v1H11zM12 11h1v1H12zM19 11h1v1H19zM20 11h1v1H20zM21 11h1v1H21zM27 11h1v1H27zM28 11h1v1H28zM4 12h1v1H4zM5 12h1v1H5zM26 12h1v1H26zM27 12h1v1H27zM8 14h1v1H8zM23 14h1v1H23zM7 15h1v1H7zM8 15h1v1H8zM23 15h1v1H23zM24 15h1v1H24zM6 16h1v1H6zM7 16h1v1H7zM14 16h1v1H14zM17 16h1v1H17zM24 16h1v1H24zM25 16h1v1H25zM3 17h1v1H3zM4 17h1v1H4zM5 17h1v1H5zM10 17h1v1H10zM14 17h1v1H14zM15 17h1v1H15zM16 17h1v1H16zM17 17h1v1H17zM21 17h1v1H21zM26 17h1v1H26zM27 17h1v1H27zM28 17h1v1H28zM4 18h1v1H4zM5 18h1v1H5zM10 18h1v1H10zM14 18h1v1H14zM15 18h1v1H15zM16 18h1v1H16zM17 18h1v1H17zM21 18h1v1H21zM26 18h1v1H26zM27 18h1v1H27zM5 19h1v1H5zM9 19h1v1H9zM14 19h1v1H14zM15 19h1v1H15zM16 19h1v1H16zM17 19h1v1H17zM22 19h1v1H22zM26 19h1v1H26zM7 20h1v1H7zM8 20h1v1H8zM9 20h1v1H9zM10 20h1v1H10zM14 20h1v1H14zM15 20h1v1H15zM16 20h1v1H16zM17 20h1v1H17zM21 20h1v1H21zM22 20h1v1H22zM23 20h1v1H23zM24 20h1v1H24zM7 21h1v1H7zM8 21h1v1H8zM9 21h1v1H9zM10 21h1v1H10zM11 21h1v1H11zM12 21h1v1H12zM15 21h1v1H15zM16 21h1v1H16zM19 21h1v1H19zM20 21h1v1H20zM21 21h1v1H21zM22 21h1v1H22zM23 21h1v1H23zM24 21h1v1H24zM9 22h1v1H9zM10 22h1v1H10zM11 22h1v1H11zM15 22h1v1H15zM16 22h1v1H16zM20 22h1v1H20zM21 22h1v1H21zM22 22h1v1H22zM4 23h1v1H4zM8 23h1v1H8zM11 23h1v1H11zM14 23h1v1H14zM15 23h1v1H15zM16 23h1v1H16zM17 23h1v1H17zM20 23h1v1H20zM23 23h1v1H23zM27 23h1v1H27zM11 24h1v1H11zM12 24h1v1H12zM13 24h1v1H13zM14 24h1v1H14zM15 24h1v1H15zM16 24h1v1H16zM17 24h1v1H17zM18 24h1v1H18zM19 24h1v1H19zM20 24h1v1H20zM7 25h1v1H7zM10 25h1v1H10zM11 25h1v1H11zM12 25h1v1H12zM13 25h1v1H13zM14 25h1v1H14zM17 25h1v1H17zM18 25h1v1H18zM19 25h1v1H19zM20 25h1v1H20zM21 25h1v1H21zM24 25h1v1H24zM5 26h1v1H5zM9 26h1v1H9zM10 26h1v1H10zM21 26h1v1H21zM22 26h1v1H22zM26 26h1v1H26zM9 27h1v1H9zM12 27h1v1H12zM19 27h1v1H19zM22 27h1v1H22zM9 28h1v1H9zM22 28h1v1H22z"/><path fill="#ea982e" d="M4 3h1v1H4zM11 3h1v1H11zM12 3h1v1H12zM19 3h1v1H19zM20 3h1v1H20zM27 3h1v1H27zM5 4h1v1H5zM12 4h1v1H12zM13 4h1v1H13zM18 4h1v1H18zM19 4h1v1H19zM26 4h1v1H26zM6 5h1v1H6zM8 5h1v1H8zM9 5h1v1H9zM22 5h1v1H22zM23 5h1v1H23zM25 5h1v1H25zM7 6h1v1H7zM8 6h1v1H8zM23 6h1v1H23zM24 6h1v1H24zM5 7h1v1H5zM7 7h1v1H7zM11 7h1v1H11zM13 7h1v1H13zM14 7h1v1H14zM17 7h1v1H17zM18 7h1v1H18zM20 7h1v1H20zM24 7h1v1H24zM26 7h1v1H26zM6 8h1v1H6zM10 8h1v1H10zM12 8h1v1H12zM13 8h1v1H13zM14 8h1v1H14zM17 8h1v1H17zM18 8h1v1H18zM19 8h1v1H19zM21 8h1v1H21zM25 8h1v1H25zM11 9h1v1H11zM12 9h1v1H12zM19 9h1v1H19zM20 9h1v1H20zM11 10h1v1H11zM20 10h1v1H20zM7 11h1v1H7zM24 11h1v1H24zM8 12h1v1H8zM23 12h1v1H23zM7 13h1v1H7zM14 13h1v1H14zM17 13h1v1H17zM24 13h1v1H24zM7 14h1v1H7zM12 14h1v1H12zM14 14h1v1H14zM15 14h1v1H15zM16 14h1v1H16zM17 14h1v1H17zM19 14h1v1H19zM24 14h1v1H24zM6 15h1v1H6zM9 15h1v1H9zM13 15h1v1H13zM14 15h1v1H14zM15 15h1v1H15zM16 15h1v1H16zM17 15h1v1H17zM18 15h1v1H18zM22 15h1v1H22zM25 15h1v1H25zM10 16h1v1H10zM13 16h1v1H13zM15 16h1v1H15zM16 16h1v1H16zM18 16h1v1H18zM21 16h1v1H21zM6 18h1v1H6zM25 18h1v1H25zM6 21h1v1H6zM25 21h1v1H25zM8 22h1v1H8zM12 22h1v1H12zM13 22h1v1H13zM18 22h1v1H18zM19 22h1v1H19zM23 22h1v1H23zM5 23h1v1H5zM7 23h1v1H7zM9 23h1v1H9zM12 23h1v1H12zM13 23h1v1H13zM18 23h1v1H18zM19 23h1v1H19zM22 23h1v1H22zM24 23h1v1H24zM26 23h1v1H26zM7 24h1v1H7zM8 24h1v1H8zM10 24h1v1H10zM21 24h1v1H21zM23 24h1v1H23zM24 24h1v1H24zM6 25h1v1H6zM9 25h1v1H9zM22 25h1v1H22zM25 25h1v1H25zM6 26h1v1H6zM7 26h1v1H7zM11 26h1v1H11zM13 26h1v1H13zM14 26h1v1H14zM17 26h1v1H17zM18 26h1v1H18zM20 26h1v1H20zM24 26h1v1H24zM25 26h1v1H25zM7 27h1v1H7zM8 27h1v1H8zM10 27h1v1H10zM11 27h1v1H11zM20 27h1v1H20zM21 27h1v1H21zM23 27h1v1H23zM24 27h1v1H24zM8 28h1v1H8zM23 28h1v1H23z"/><path fill="#9d621e" d="M5 3h1v1H5zM26 3h1v1H26zM6 4h1v1H6zM7 4h1v1H7zM8 4h1v1H8zM9 4h1v1H9zM10 4h1v1H10zM11 4h1v1H11zM14 4h1v1H14zM15 4h1v1H15zM16 4h1v1H16zM17 4h1v1H17zM20 4h1v1H20zM21 4h1v1H21zM22 4h1v1H22zM23 4h1v1H23zM24 4h1v1H24zM25 4h1v1H25zM7 5h1v1H7zM10 5h1v1H10zM11 5h1v1H11zM12 5h1v1H12zM13 5h1v1H13zM14 5h1v1H14zM15 5h1v1H15zM16 5h1v1H16zM17 5h1v1H17zM18 5h1v1H18zM19 5h1v1H19zM20 5h1v1H20zM21 5h1v1H21zM24 5h1v1H24zM2 6h1v1H2zM3 6h1v1H3zM5 6h1v1H5zM6 6h1v1H6zM9 6h1v1H9zM10 6h1v1H10zM11 6h1v1H11zM12 6h1v1H12zM13 6h1v1H13zM14 6h1v1H14zM15 6h1v1H15zM16 6h1v1H16zM17 6h1v1H17zM18 6h1v1H18zM19 6h1v1H19zM20 6h1v1H20zM21 6h1v1H21zM22 6h1v1H22zM25 6h1v1H25zM26 6h1v1H26zM28 6h1v1H28zM29 6h1v1H29zM2 7h1v1H2zM4 7h1v1H4zM6 7h1v1H6zM8 7h1v1H8zM9 7h1v1H9zM10 7h1v1H10zM12 7h1v1H12zM15 7h1v1H15zM16 7h1v1H16zM19 7h1v1H19zM21 7h1v1H21zM22 7h1v1H22zM23 7h1v1H23zM25 7h1v1H25zM27 7h1v1H27zM29 7h1v1H29zM2 8h1v1H2zM5 8h1v1H5zM7 8h1v1H7zM8 8h1v1H8zM9 8h1v1H9zM11 8h1v1H11zM20 8h1v1H20zM22 8h1v1H22zM23 8h1v1H23zM24 8h1v1H24zM26 8h1v1H26zM29 8h1v1H29zM2 9h1v1H2zM3 9h1v1H3zM4 9h1v1H4zM6 9h1v1H6zM7 9h1v1H7zM8 9h1v1H8zM10 9h1v1H10zM21 9h1v1H21zM23 9h1v1H23zM24 9h1v1H24zM25 9h1v1H25zM27 9h1v1H27zM28 9h1v1H28zM29 9h1v1H29zM2 10h1v1H2zM3 10h1v1H3zM4 10h1v1H4zM7 10h1v1H7zM8 10h1v1H8zM23 10h1v1H23zM24 10h1v1H24zM27 10h1v1H27zM28 10h1v1H28zM29 10h1v1H29zM8 11h1v1H8zM9 11h1v1H9zM13 11h1v1H13zM14 11h1v1H14zM15 11h1v1H15zM16 11h1v1H16zM17 11h1v1H17zM18 11h1v1H18zM22 11h1v1H22zM23 11h1v1H23zM7 12h1v1H7zM9 12h1v1H9zM10 12h1v1H10zM11 12h1v1H11zM12 12h1v1H12zM13 12h1v1H13zM14 12h1v1H14zM15 12h1v1H15zM16 12h1v1H16zM17 12h1v1H17zM18 12h1v1H18zM19 12h1v1H19zM20 12h1v1H20zM21 12h1v1H21zM22 12h1v1H22zM24 12h1v1H24zM5 13h1v1H5zM6 13h1v1H6zM10 13h1v1H10zM11 13h1v1H11zM20 13h1v1H20zM21 13h1v1H21zM25 13h1v1H25zM26 13h1v1H26zM4 14h1v1H4zM9 14h1v1H9zM10 14h1v1H10zM11 14h1v1H11zM13 14h1v1H13zM18 14h1v1H18zM20 14h1v1H20zM21 14h1v1H21zM22 14h1v1H22zM27 14h1v1H27zM3 15h1v1H3zM10 15h1v1H10zM12 15h1v1H12zM19 15h1v1H19zM21 15h1v1H21zM28 15h1v1H28zM3 16h1v1H3zM4 16h1v1H4zM5 16h1v1H5zM9 16h1v1H9zM22 16h1v1H22zM26 16h1v1H26zM27 16h1v1H27zM28 16h1v1H28zM6 17h1v1H6zM8 17h1v1H8zM23 17h1v1H23zM25 17h1v1H25zM9 18h1v1H9zM22 18h1v1H22zM6 19h1v1H6zM7 19h1v1H7zM8 19h1v1H8zM10 19h1v1H10zM21 19h1v1H21zM23 19h1v1H23zM24 19h1v1H24zM25 19h1v1H25zM5 20h1v1H5zM26 20h1v1H26zM4 21h1v1H4zM13 21h1v1H13zM14 21h1v1H14zM17 21h1v1H17zM18 21h1v1H18zM27 21h1v1H27zM4 22h1v1H4zM5 22h1v1H5zM6 22h1v1H6zM7 22h1v1H7zM14 22h1v1H14zM17 22h1v1H17zM24 22h1v1H24zM25 22h1v1H25zM26 22h1v1H26zM27 22h1v1H27zM6 23h1v1H6zM10 23h1v1H10zM21 23h1v1H21zM25 23h1v1H25zM4 24h1v1H4zM9 24h1v1H9zM22 24h1v1H22zM27 24h1v1H27zM3 25h1v1H3zM8 25h1v1H8zM15 25h1v1H15zM16 25h1v1H16zM23 25h1v1H23zM28 25h1v1H28zM3 26h1v1H3zM4 26h1v1H4zM8 26h1v1H8zM12 26h1v1H12zM15 26h1v1H15zM16 26h1v1H16zM19 26h1v1H19zM23 26h1v1H23zM27 26h1v1H27zM28 26h1v1H28zM3 27h1v1H3zM4 27h1v1H4zM5 27h1v1H5zM6 27h1v1H6zM14 27h1v1H14zM17 27h1v1H17zM25 27h1v1H25zM26 27h1v1H26zM27 27h1v1H27zM28 27h1v1H28zM6 28h1v1H6zM11 28h1v1H11zM13 28h1v1H13zM18 28h1v1H18zM20 28h1v1H20zM25 28h1v1H25zM6 29h1v1H6zM8 29h1v1H8zM9 29h1v1H9zM10 29h1v1H10zM11 29h1v1H11zM20 29h1v1H20zM21 29h1v1H21zM22 29h1v1H22zM23 29h1v1H23zM25 29h1v1H25z"/><path fill="#fece4e" d="M4 6h1v1H4zM27 6h1v1H27zM3 7h1v1H3zM28 7h1v1H28zM3 8h1v1H3zM4 8h1v1H4zM27 8h1v1H27zM28 8h1v1H28zM9 9h1v1H9zM22 9h1v1H22zM5 10h1v1H5zM6 10h1v1H6zM9 10h1v1H9zM10 10h1v1H10zM21 10h1v1H21zM22 10h1v1H22zM25 10h1v1H25zM26 10h1v1H26zM5 11h1v1H5zM6 11h1v1H6zM25 11h1v1H25zM26 11h1v1H26zM6 12h1v1H6zM25 12h1v1H25zM8 13h1v1H8zM9 13h1v1H9zM12 13h1v1H12zM13 13h1v1H13zM15 13h1v1H15zM16 13h1v1H16zM18 13h1v1H18zM19 13h1v1H19zM22 13h1v1H22zM23 13h1v1H23zM5 14h1v1H5zM6 14h1v1H6zM25 14h1v1H25zM26 14h1v1H26zM4 15h1v1H4zM5 15h1v1H5zM11 15h1v1H11zM20 15h1v1H20zM26 15h1v1H26zM27 15h1v1H27zM8 16h1v1H8zM11 16h1v1H11zM12 16h1v1H12zM19 16h1v1H19zM20 16h1v1H20zM23 16h1v1H23zM7 17h1v1H7zM9 17h1v1H9zM11 17h1v1H11zM20 17h1v1H20zM22 17h1v1H22zM24 17h1v1H24zM7 18h1v1H7zM8 18h1v1H8zM23 18h1v1H23zM24 18h1v1H24zM6 20h1v1H6zM25 20h1v1H25zM5 21h1v1H5zM26 21h1v1H26zM5 24h1v1H5zM6 24h1v1H6zM25 24h1v1H25zM26 24h1v1H26zM4 25h1v1H4zM5 25h1v1H5zM26 25h1v1H26zM27 25h1v1H27zM13 27h1v1H13zM18 27h1v1H18zM7 28h1v1H7zM10 28h1v1H10zM21 28h1v1H21zM24 28h1v1H24zM7 29h1v1H7zM24 29h1v1H24z"/><path fill="#ffffff" d="M12 17h1v1H12zM18 17h1v1H18zM11 18h1v1H11zM13 18h1v1H13zM19 18h1v1H19zM20 18h1v1H20zM11 19h1v1H11zM20 19h1v1H20zM11 20h1v1H11zM20 20h1v1H20z"/><path fill="#0e0e14" d="M13 17h1v1H13zM19 17h1v1H19zM12 18h1v1H12zM18 18h1v1H18zM12 19h1v1H12zM13 19h1v1H13zM18 19h1v1H18zM19 19h1v1H19zM12 20h1v1H12zM13 20h1v1H13zM18 20h1v1H18zM19 20h1v1H19z"/></svg>
