<svg xmlns="http://www.w3.org/2000/svg" viewBox="0 0 32 32" shape-rendering="crispEdges"><path fill="#3d434e" d="M8 0h1v1H8zM23 0h1v1H23zM14 2h1v1H14zM17 2h1v1H17zM2 12h1v1H2zM29 12h1v1H29zM11 26h1v1H11zM20 26h1v1H20zM13 28h1v1H13zM18 28h1v1H18zM5 29h1v1H5zM14 29h1v1H14zM17 29h1v1H17zM26 29h1v1H26z"/><path fill="#5f6573" d="M9 0h1v1H9zM22 0h1v1H22zM9 1h1v1H9zM22 1h1v1H22zM8 2h1v1H8zM23 2h1v1H23zM7 3h1v1H7zM24 3h1v1H24zM4 6h1v1H4zM27 6h1v1H27zM2 13h1v1H2zM11 13h1v1H11zM20 13h1v1H20zM29 13h1v1H29zM3 14h1v1H3zM12 14h1v1H12zM19 14h1v1H19zM28 14h1v1H28zM7 16h1v1H7zM24 16h1v1H24zM3 19h1v1H3zM15 19h1v1H15zM16 19h1v1H16zM28 19h1v1H28zM8 21h1v1H8zM23 21h1v1H23zM7 24h1v1H7zM24 24h1v1H24zM16 25h1v1H16zM10 26h1v1H10zM13 26h1v1H13zM16 26h1v1H16zM18 26h1v1H18zM21 26h1v1H21zM4 28h1v1H4zM27 28h1v1H27zM2 29h1v1H2zM29 29h1v1H29z"/><path fill="#000000" d="M10 1h1v1H10zM21 1h1v1H21zM9 2h1v1H9zM22 2h1v1H22zM8 5h1v1H8zM12 5h1v1H12zM19 5h1v1H19zM23 5h1v1H23zM9 6h1v1H9zM13 6h1v1H13zM18 6h1v1H18zM22 6h1v1H22zM4 7h1v1H4zM27 7h1v1H27zM5 8h1v1H5zM26 8h1v1H26zM6 9h1v1H6zM12 9h1v1H12zM13 9h1v1H13zM18 9h1v1H18zM19 9h1v1H19zM25 9h1v1H25zM12 10h1v1H12zM14 10h1v1H14zM17 10h1v1H17zM19 10h1v1H19zM4 11h1v1H4zM12 11h1v1H12zM14 11h1v1H14zM17 11h1v1H17zM19 11h1v1H19zM27 11h1v1H27zM14 12h1v1H14zM15 12h1v1H15zM16 12h1v1H16zM17 12h1v1H17zM5 13h1v1H5zM9 13h1v1H9zM10 13h1v1H10zM21 13h1v1H21zM22 13h1v1H22zM26 13h1v1H26zM4 14h1v1H4zM11 14h1v1H11zM15 14h1v1H15zM16 14h1v1H16zM20 14h1v1H20zM27 14h1v1H27zM9 15h1v1H9zM10 15h1v1H10zM11 15h1v1H11zM12 15h1v1H12zM13 15h1v1H13zM18 15h1v1H18zM19 15h1v1H19zM20 15h1v1H20zM21 15h1v1H21zM22 15h1v1H22zM9 16h1v1H9zM10 16h1v1H10zM13 16h1v1H13zM14 16h1v1H14zM17 16h1v1H17zM18 16h1v1H18zM21 16h1v1H21zM22 16h1v1H22zM7 17h1v1H7zM9 17h1v1H9zM12 17h1v1H12zM14 17h1v1H14zM15 17h1v1H15zM16 17h1v1H16zM17 17h1v1H17zM19 17h1v1H19zM22 17h1v1H22zM24 17h1v1H24zM9 18h1v1H9zM12 18h1v1H12zM13 18h1v1H13zM14 18h1v1H14zM17 18h1v1H17zM18 18h1v1H18zM19 18h1v1H19zM22 18h1v1H22zM9 19h1v1H9zM13 19h1v1H13zM14 19h1v1H14zM17 19h1v1H17zM18 19h1v1H18zM22 19h1v1H22zM9 20h1v1H9zM13 20h1v1H13zM14 20h1v1H14zM17 20h1v1H17zM18 20h1v1H18zM22 20h1v1H22zM9 21h1v1H9zM10 21h1v1H10zM14 21h1v1H14zM15 21h1v1H15zM16 21h1v1H16zM17 21h1v1H17zM21 21h1v1H21zM22 21h1v1H22zM2 22h1v1H2zM10 22h1v1H10zM11 22h1v1H11zM14 22h1v1H14zM17 22h1v1H17zM20 22h1v1H20zM21 22h1v1H21zM29 22h1v1H29zM2 23h1v1H2zM10 23h1v1H10zM11 23h1v1H11zM12 23h1v1H12zM13 23h1v1H13zM15 23h1v1H15zM16 23h1v1H16zM18 23h1v1H18zM19 23h1v1H19zM20 23h1v1H20zM21 23h1v1H21zM29 23h1v1H29zM11 24h1v1H11zM12 24h1v1H12zM14 24h1v1H14zM15 24h1v1H15zM16 24h1v1H16zM17 24h1v1H17zM19 24h1v1H19zM20 24h1v1H20zM14 25h1v1H14zM17 25h1v1H17zM6 26h1v1H6zM8 26h1v1H8zM14 26h1v1H14zM17 26h1v1H17zM23 26h1v1H23zM25 26h1v1H25zM3 27h1v1H3zM8 27h1v1H8zM14 27h1v1H14zM17 27h1v1H17zM23 27h1v1H23zM28 27h1v1H28zM3 28h1v1H3zM7 28h1v1H7zM15 28h1v1H15zM16 28h1v1H16zM24 28h1v1H24zM28 28h1v1H28zM4 29h1v1H4zM11 29h1v1H11zM20 29h1v1H20zM27 29h1v1H27zM4 30h1v1H4zM7 30h1v1H7zM24 30h1v1H24zM27 30h1v1H27z"/><path fill="#9ea4b3" d="M15 1h1v1H15zM15 4h1v1H15zM14 5h1v1H14zM17 5h1v1H17zM11 6h1v1H11zM15 6h1v1H15zM17 6h1v1H17zM20 6h1v1H20zM16 7h1v1H16zM16 10h1v1H16zM8 11h1v1H8zM23 11h1v1H23zM10 12h1v1H10zM21 12h1v1H21zM9 14h1v1H9zM22 14h1v1H22zM2 16h1v1H2zM3 16h1v1H3zM28 16h1v1H28zM29 16h1v1H29zM4 17h1v1H4zM27 17h1v1H27zM6 18h1v1H6zM25 18h1v1H25zM4 21h1v1H4zM27 21h1v1H27zM6 23h1v1H6zM25 23h1v1H25z"/><path fill="#878d9a" d="M16 1h1v1H16zM16 3h1v1H16zM11 9h1v1H11zM20 9h1v1H20zM14 14h1v1H14zM17 14h1v1H17zM15 15h1v1H15zM16 15h1v1H16zM2 20h1v1H2zM29 20h1v1H29zM8 25h1v1H8zM23 25h1v1H23zM12 27h1v1H12zM19 27h1v1H19zM9 29h1v1H9zM10 29h1v1H10zM21 29h1v1H21zM22 29h1v1H22zM15 30h1v1H15zM16 30h1v1H16z"/><path fill="#181a20" d="M7 2h1v1H7zM24 2h1v1H24zM6 3h1v1H6zM25 3h1v1H25zM6 4h1v1H6zM7 4h1v1H7zM24 4h1v1H24zM25 4h1v1H25zM7 5h1v1H7zM24 5h1v1H24zM3 6h1v1H3zM12 6h1v1H12zM19 6h1v1H19zM28 6h1v1H28zM3 7h1v1H3zM28 7h1v1H28zM4 8h1v1H4zM6 8h1v1H6zM25 8h1v1H25zM27 8h1v1H27zM15 9h1v1H15zM16 9h1v1H16zM7 10h1v1H7zM8 10h1v1H8zM23 10h1v1H23zM24 10h1v1H24zM11 11h1v1H11zM16 11h1v1H16zM20 11h1v1H20zM14 13h1v1H14zM17 13h1v1H17zM7 18h1v1H7zM24 18h1v1H24zM12 19h1v1H12zM19 19h1v1H19zM7 25h1v1H7zM24 25h1v1H24zM8 29h1v1H8zM23 29h1v1H23zM3 30h1v1H3zM28 30h1v1H28z"/><path fill="#ffffff" d="M15 2h1v1H15zM16 2h1v1H16zM12 3h1v1H12zM15 3h1v1H15zM19 3h1v1H19zM10 5h1v1H10zM21 5h1v1H21zM6 6h1v1H6zM7 6h1v1H7zM10 6h1v1H10zM14 6h1v1H14zM16 6h1v1H16zM21 6h1v1H21zM24 6h1v1H24zM25 6h1v1H25zM6 7h1v1H6zM7 7h1v1H7zM9 7h1v1H9zM11 7h1v1H11zM12 7h1v1H12zM13 7h1v1H13zM14 7h1v1H14zM15 7h1v1H15zM18 7h1v1H18zM19 7h1v1H19zM20 7h1v1H20zM22 7h1v1H22zM24 7h1v1H24zM25 7h1v1H25zM3 8h1v1H3zM10 8h1v1H10zM21 8h1v1H21zM28 8h1v1H28zM4 9h1v1H4zM5 9h1v1H5zM14 9h1v1H14zM17 9h1v1H17zM26 9h1v1H26zM27 9h1v1H27zM6 10h1v1H6zM9 10h1v1H9zM11 10h1v1H11zM13 10h1v1H13zM15 10h1v1H15zM18 10h1v1H18zM20 10h1v1H20zM22 10h1v1H22zM25 10h1v1H25zM5 11h1v1H5zM6 11h1v1H6zM7 11h1v1H7zM9 11h1v1H9zM13 11h1v1H13zM18 11h1v1H18zM22 11h1v1H22zM24 11h1v1H24zM25 11h1v1H25zM26 11h1v1H26zM3 12h1v1H3zM6 12h1v1H6zM9 12h1v1H9zM11 12h1v1H11zM13 12h1v1H13zM18 12h1v1H18zM20 12h1v1H20zM22 12h1v1H22zM25 12h1v1H25zM28 12h1v1H28zM6 13h1v1H6zM12 13h1v1H12zM19 13h1v1H19zM25 13h1v1H25zM6 14h1v1H6zM25 14h1v1H25zM5 15h1v1H5zM6 15h1v1H6zM14 15h1v1H14zM17 15h1v1H17zM25 15h1v1H25zM26 15h1v1H26zM5 16h1v1H5zM11 16h1v1H11zM12 16h1v1H12zM19 16h1v1H19zM20 16h1v1H20zM26 16h1v1H26zM11 17h1v1H11zM13 17h1v1H13zM18 17h1v1H18zM20 17h1v1H20zM11 18h1v1H11zM20 18h1v1H20zM2 19h1v1H2zM10 19h1v1H10zM11 19h1v1H11zM20 19h1v1H20zM21 19h1v1H21zM29 19h1v1H29zM3 20h1v1H3zM5 20h1v1H5zM10 20h1v1H10zM11 20h1v1H11zM20 20h1v1H20zM21 20h1v1H21zM26 20h1v1H26zM28 20h1v1H28zM6 21h1v1H6zM11 21h1v1H11zM12 21h1v1H12zM19 21h1v1H19zM20 21h1v1H20zM25 21h1v1H25zM6 22h1v1H6zM12 22h1v1H12zM13 22h1v1H13zM18 22h1v1H18zM19 22h1v1H19zM25 22h1v1H25zM7 23h1v1H7zM8 23h1v1H8zM23 23h1v1H23zM24 23h1v1H24zM6 24h1v1H6zM8 24h1v1H8zM9 24h1v1H9zM22 24h1v1H22zM23 24h1v1H23zM25 24h1v1H25zM5 25h1v1H5zM6 25h1v1H6zM9 25h1v1H9zM10 25h1v1H10zM15 25h1v1H15zM21 25h1v1H21zM22 25h1v1H22zM25 25h1v1H25zM26 25h1v1H26zM5 26h1v1H5zM26 26h1v1H26zM4 27h1v1H4zM5 27h1v1H5zM6 27h1v1H6zM10 27h1v1H10zM11 27h1v1H11zM20 27h1v1H20zM21 27h1v1H21zM25 27h1v1H25zM26 27h1v1H26zM27 27h1v1H27zM5 28h1v1H5zM6 28h1v1H6zM11 28h1v1H11zM12 28h1v1H12zM19 28h1v1H19zM20 28h1v1H20zM25 28h1v1H25zM26 28h1v1H26zM12 29h1v1H12zM13 29h1v1H13zM18 29h1v1H18zM19 29h1v1H19z"/><path fill="#4c5360" d="M8 3h1v1H8zM23 3h1v1H23zM4 4h1v1H4zM27 4h1v1H27zM3 5h1v1H3zM28 5h1v1H28zM3 11h1v1H3zM28 11h1v1H28zM4 12h1v1H4zM27 12h1v1H27zM10 14h1v1H10zM21 14h1v1H21zM2 15h1v1H2zM29 15h1v1H29zM8 16h1v1H8zM23 16h1v1H23zM3 17h1v1H3zM8 17h1v1H8zM23 17h1v1H23zM28 17h1v1H28zM8 18h1v1H8zM23 18h1v1H23zM7 19h1v1H7zM24 19h1v1H24zM9 22h1v1H9zM22 22h1v1H22zM2 26h1v1H2zM9 26h1v1H9zM22 26h1v1H22zM29 26h1v1H29zM2 27h1v1H2zM29 27h1v1H29zM3 29h1v1H3zM28 29h1v1H28z"/><path fill="#f4f1ea" d="M14 3h1v1H14zM17 3h1v1H17zM11 4h1v1H11zM12 4h1v1H12zM14 4h1v1H14zM16 4h1v1H16zM17 4h1v1H17zM19 4h1v1H19zM20 4h1v1H20zM11 5h1v1H11zM15 5h1v1H15zM16 5h1v1H16zM20 5h1v1H20zM8 7h1v1H8zM17 7h1v1H17zM23 7h1v1H23zM7 8h1v1H7zM8 8h1v1H8zM9 8h1v1H9zM12 8h1v1H12zM19 8h1v1H19zM22 8h1v1H22zM23 8h1v1H23zM24 8h1v1H24zM3 9h1v1H3zM8 9h1v1H8zM9 9h1v1H9zM10 9h1v1H10zM21 9h1v1H21zM22 9h1v1H22zM23 9h1v1H23zM28 9h1v1H28zM4 10h1v1H4zM5 10h1v1H5zM26 10h1v1H26zM27 10h1v1H27zM15 11h1v1H15zM5 12h1v1H5zM7 12h1v1H7zM8 12h1v1H8zM23 12h1v1H23zM24 12h1v1H24zM26 12h1v1H26zM7 13h1v1H7zM8 13h1v1H8zM23 13h1v1H23zM24 13h1v1H24zM5 14h1v1H5zM7 14h1v1H7zM13 14h1v1H13zM18 14h1v1H18zM24 14h1v1H24zM26 14h1v1H26zM4 15h1v1H4zM7 15h1v1H7zM24 15h1v1H24zM27 15h1v1H27zM4 16h1v1H4zM6 16h1v1H6zM15 16h1v1H15zM16 16h1v1H16zM25 16h1v1H25zM27 16h1v1H27zM5 17h1v1H5zM6 17h1v1H6zM25 17h1v1H25zM26 17h1v1H26zM7 21h1v1H7zM24 21h1v1H24zM7 22h1v1H7zM8 22h1v1H8zM23 22h1v1H23zM24 22h1v1H24zM9 23h1v1H9zM22 23h1v1H22zM10 24h1v1H10zM21 24h1v1H21zM9 27h1v1H9zM22 27h1v1H22zM8 28h1v1H8zM23 28h1v1H23zM7 29h1v1H7zM24 29h1v1H24z"/><path fill="#737987" d="M8 4h1v1H8zM23 4h1v1H23zM14 8h1v1H14zM15 8h1v1H15zM16 8h1v1H16zM17 8h1v1H17zM4 13h1v1H4zM27 13h1v1H27zM10 17h1v1H10zM21 17h1v1H21zM12 20h1v1H12zM19 20h1v1H19zM2 21h1v1H2zM29 21h1v1H29zM3 24h1v1H3zM28 24h1v1H28zM13 25h1v1H13zM18 25h1v1H18zM3 26h1v1H3zM4 26h1v1H4zM7 26h1v1H7zM15 26h1v1H15zM24 26h1v1H24zM27 26h1v1H27zM28 26h1v1H28zM7 27h1v1H7zM24 27h1v1H24z"/><path fill="#2e3440" d="M13 4h1v1H13zM18 4h1v1H18zM9 5h1v1H9zM13 5h1v1H13zM18 5h1v1H18zM22 5h1v1H22zM8 6h1v1H8zM23 6h1v1H23zM2 18h1v1H2zM3 18h1v1H3zM15 18h1v1H15zM16 18h1v1H16zM28 18h1v1H28zM29 18h1v1H29zM1 19h1v1H1zM8 19h1v1H8zM23 19h1v1H23zM30 19h1v1H30zM1 20h1v1H1zM15 20h1v1H15zM16 20h1v1H16zM30 20h1v1H30zM3 23h1v1H3zM5 23h1v1H5zM26 23h1v1H26zM28 23h1v1H28zM4 24h1v1H4zM27 24h1v1H27zM15 27h1v1H15zM16 27h1v1H16zM9 28h1v1H9zM22 28h1v1H22zM2 30h1v1H2zM29 30h1v1H29z"/><path fill="#0b0d10" d="M10 7h1v1H10zM21 7h1v1H21zM11 8h1v1H11zM20 8h1v1H20zM7 9h1v1H7zM24 9h1v1H24zM12 12h1v1H12zM19 12h1v1H19zM13 13h1v1H13zM15 13h1v1H15zM16 13h1v1H16zM18 13h1v1H18zM4 18h1v1H4zM27 18h1v1H27zM4 19h1v1H4zM5 19h1v1H5zM6 19h1v1H6zM25 19h1v1H25zM26 19h1v1H26zM27 19h1v1H27zM6 20h1v1H6zM7 20h1v1H7zM8 20h1v1H8zM23 20h1v1H23zM24 20h1v1H24zM25 20h1v1H25zM1 21h1v1H1zM30 21h1v1H30zM2 24h1v1H2zM29 24h1v1H29zM3 25h1v1H3zM28 25h1v1H28zM10 28h1v1H10zM21 28h1v1H21z"/><path fill="#b7bcc8" d="M13 8h1v1H13zM18 8h1v1H18zM3 10h1v1H3zM28 10h1v1H28zM3 13h1v1H3zM28 13h1v1H28zM3 15h1v1H3zM28 15h1v1H28zM5 18h1v1H5zM10 18h1v1H10zM21 18h1v1H21zM26 18h1v1H26zM3 21h1v1H3zM13 21h1v1H13zM18 21h1v1H18zM28 21h1v1H28zM3 22h1v1H3zM4 22h1v1H4zM5 22h1v1H5zM15 22h1v1H15zM16 22h1v1H16zM26 22h1v1H26zM27 22h1v1H27zM28 22h1v1H28zM4 23h1v1H4zM14 23h1v1H14zM17 23h1v1H17zM27 23h1v1H27zM13 24h1v1H13zM18 24h1v1H18zM12 25h1v1H12zM19 25h1v1H19zM12 26h1v1H12zM19 26h1v1H19zM13 27h1v1H13zM18 27h1v1H18zM14 28h1v1H14zM17 28h1v1H17zM6 29h1v1H6zM25 29h1v1H25zM6 30h1v1H6zM25 30h1v1H25z"/><path fill="#d2d5de" d="M10 10h1v1H10zM21 10h1v1H21zM10 11h1v1H10zM21 11h1v1H21zM8 14h1v1H8zM23 14h1v1H23zM8 15h1v1H8zM23 15h1v1H23zM4 20h1v1H4zM27 20h1v1H27zM5 21h1v1H5zM26 21h1v1H26zM5 24h1v1H5zM26 24h1v1H26zM4 25h1v1H4zM11 25h1v1H11zM20 25h1v1H20zM27 25h1v1H27zM15 29h1v1H15zM16 29h1v1H16zM5 30h1v1H5zM26 30h1v1H26z"/></svg>
