<svg xmlns="http://www.w3.org/2000/svg" viewBox="0 0 32 32" shape-rendering="crispEdges"><path fill="#2a2a2a" d="M15 0h1v1H15zM16 0h1v1H16zM8 1h1v1H8zM9 1h1v1H9zM22 1h1v1H22zM23 1h1v1H23zM8 2h1v1H8zM23 2h1v1H23zM5 4h1v1H5zM26 4h1v1H26zM4 5h1v1H4zM15 5h1v1H15zM16 5h1v1H16zM27 5h1v1H27zM3 6h1v1H3zM12 6h1v1H12zM19 6h1v1H19zM28 6h1v1H28zM3 7h1v1H3zM6 7h1v1H6zM25 7h1v1H25zM28 7h1v1H28zM3 8h1v1H3zM28 8h1v1H28zM9 11h1v1H9zM22 11h1v1H22zM2 16h1v1H2zM3 16h1v1H3zM28 16h1v1H28zM29 16h1v1H29zM2 17h1v1H2zM29 17h1v1H29zM15 19h1v1H15zM16 19h1v1H16zM15 20h1v1H15zM16 20h1v1H16zM15 21h1v1H15zM16 21h1v1H16zM27 25h1v1H27zM28 26h1v1H28zM11 27h1v1H11zM20 27h1v1H20zM10 28h1v1H10zM21 28h1v1H21zM11 29h1v1H11zM20 29h1v1H20z"/><path fill="#dadada" d="M15 1h1v1H15zM16 1h1v1H16zM9 2h1v1H9zM15 2h1v1H15zM16 2h1v1H16zM22 2h1v1H22zM9 3h1v1H9zM22 3h1v1H22zM9 4h1v1H9zM22 4h1v1H22zM5 5h1v1H5zM26 5h1v1H26zM11 6h1v1H11zM20 6h1v1H20zM5 8h1v1H5zM9 8h1v1H9zM14 8h1v1H14zM17 8h1v1H17zM22 8h1v1H22zM26 8h1v1H26zM13 9h1v1H13zM15 9h1v1H15zM16 9h1v1H16zM18 9h1v1H18zM16 10h1v1H16zM3 11h1v1H3zM15 11h1v1H15zM28 11h1v1H28zM3 12h1v1H3zM12 12h1v1H12zM15 12h1v1H15zM19 12h1v1H19zM28 12h1v1H28zM3 13h1v1H3zM4 13h1v1H4zM8 13h1v1H8zM9 13h1v1H9zM11 13h1v1H11zM13 13h1v1H13zM18 13h1v1H18zM20 13h1v1H20zM22 13h1v1H22zM23 13h1v1H23zM27 13h1v1H27zM28 13h1v1H28zM4 14h1v1H4zM5 14h1v1H5zM7 14h1v1H7zM8 14h1v1H8zM9 14h1v1H9zM10 14h1v1H10zM14 14h1v1H14zM17 14h1v1H17zM21 14h1v1H21zM22 14h1v1H22zM23 14h1v1H23zM24 14h1v1H24zM26 14h1v1H26zM27 14h1v1H27zM5 15h1v1H5zM8 15h1v1H8zM15 15h1v1H15zM16 15h1v1H16zM23 15h1v1H23zM26 15h1v1H26zM8 16h1v1H8zM23 16h1v1H23zM8 17h1v1H8zM15 17h1v1H15zM16 17h1v1H16zM23 17h1v1H23zM3 18h1v1H3zM8 18h1v1H8zM15 18h1v1H15zM16 18h1v1H16zM23 18h1v1H23zM28 18h1v1H28zM3 19h1v1H3zM4 19h1v1H4zM8 19h1v1H8zM23 19h1v1H23zM27 19h1v1H27zM28 19h1v1H28zM4 20h1v1H4zM5 20h1v1H5zM8 20h1v1H8zM23 20h1v1H23zM26 20h1v1H26zM27 20h1v1H27zM8 21h1v1H8zM23 21h1v1H23zM7 22h1v1H7zM8 22h1v1H8zM9 22h1v1H9zM22 22h1v1H22zM23 22h1v1H23zM24 22h1v1H24zM6 23h1v1H6zM7 23h1v1H7zM8 23h1v1H8zM9 23h1v1H9zM10 23h1v1H10zM14 23h1v1H14zM17 23h1v1H17zM21 23h1v1H21zM22 23h1v1H22zM23 23h1v1H23zM24 23h1v1H24zM25 23h1v1H25zM7 24h1v1H7zM8 24h1v1H8zM9 24h1v1H9zM11 24h1v1H11zM13 24h1v1H13zM16 24h1v1H16zM18 24h1v1H18zM20 24h1v1H20zM22 24h1v1H22zM23 24h1v1H23zM24 24h1v1H24zM4 25h1v1H4zM8 25h1v1H8zM13 25h1v1H13zM15 25h1v1H15zM16 25h1v1H16zM18 25h1v1H18zM23 25h1v1H23zM4 26h1v1H4zM13 26h1v1H13zM15 26h1v1H15zM6 27h1v1H6zM13 27h1v1H13zM18 27h1v1H18zM25 27h1v1H25zM6 28h1v1H6zM8 28h1v1H8zM23 28h1v1H23zM25 28h1v1H25zM8 29h1v1H8zM14 29h1v1H14zM17 29h1v1H17zM23 29h1v1H23z"/><path fill="#141414" d="M10 2h1v1H10zM21 2h1v1H21zM10 3h1v1H10zM21 3h1v1H21zM11 4h1v1H11zM13 4h1v1H13zM18 4h1v1H18zM20 4h1v1H20zM12 5h1v1H12zM13 5h1v1H13zM18 5h1v1H18zM19 5h1v1H19zM13 6h1v1H13zM18 6h1v1H18z"/><path fill="#000004" d="M14 2h1v1H14zM17 2h1v1H17zM14 3h1v1H14zM17 3h1v1H17zM8 6h1v1H8zM15 6h1v1H15zM16 6h1v1H16zM23 6h1v1H23zM7 7h1v1H7zM8 7h1v1H8zM9 7h1v1H9zM10 7h1v1H10zM14 7h1v1H14zM17 7h1v1H17zM21 7h1v1H21zM22 7h1v1H22zM23 7h1v1H23zM24 7h1v1H24zM8 8h1v1H8zM11 8h1v1H11zM13 8h1v1H13zM18 8h1v1H18zM20 8h1v1H20zM23 8h1v1H23zM3 9h1v1H3zM8 9h1v1H8zM12 9h1v1H12zM19 9h1v1H19zM23 9h1v1H23zM28 9h1v1H28zM4 10h1v1H4zM9 10h1v1H9zM12 10h1v1H12zM19 10h1v1H19zM22 10h1v1H22zM27 10h1v1H27zM5 11h1v1H5zM10 11h1v1H10zM12 11h1v1H12zM14 11h1v1H14zM17 11h1v1H17zM19 11h1v1H19zM21 11h1v1H21zM26 11h1v1H26zM6 12h1v1H6zM8 12h1v1H8zM9 12h1v1H9zM10 12h1v1H10zM14 12h1v1H14zM17 12h1v1H17zM21 12h1v1H21zM22 12h1v1H22zM23 12h1v1H23zM25 12h1v1H25zM6 13h1v1H6zM7 13h1v1H7zM15 13h1v1H15zM16 13h1v1H16zM24 13h1v1H24zM25 13h1v1H25zM6 14h1v1H6zM11 14h1v1H11zM12 14h1v1H12zM19 14h1v1H19zM20 14h1v1H20zM25 14h1v1H25zM3 15h1v1H3zM6 15h1v1H6zM10 15h1v1H10zM11 15h1v1H11zM12 15h1v1H12zM13 15h1v1H13zM18 15h1v1H18zM19 15h1v1H19zM20 15h1v1H20zM21 15h1v1H21zM25 15h1v1H25zM28 15h1v1H28zM4 16h1v1H4zM6 16h1v1H6zM9 16h1v1H9zM13 16h1v1H13zM14 16h1v1H14zM17 16h1v1H17zM18 16h1v1H18zM22 16h1v1H22zM25 16h1v1H25zM27 16h1v1H27zM5 17h1v1H5zM6 17h1v1H6zM9 17h1v1H9zM12 17h1v1H12zM14 17h1v1H14zM17 17h1v1H17zM19 17h1v1H19zM22 17h1v1H22zM25 17h1v1H25zM26 17h1v1H26zM6 18h1v1H6zM9 18h1v1H9zM12 18h1v1H12zM13 18h1v1H13zM14 18h1v1H14zM17 18h1v1H17zM18 18h1v1H18zM19 18h1v1H19zM22 18h1v1H22zM25 18h1v1H25zM6 19h1v1H6zM9 19h1v1H9zM13 19h1v1H13zM14 19h1v1H14zM17 19h1v1H17zM18 19h1v1H18zM22 19h1v1H22zM25 19h1v1H25zM2 20h1v1H2zM6 20h1v1H6zM9 20h1v1H9zM14 20h1v1H14zM17 20h1v1H17zM22 20h1v1H22zM25 20h1v1H25zM29 20h1v1H29zM2 21h1v1H2zM5 21h1v1H5zM6 21h1v1H6zM9 21h1v1H9zM10 21h1v1H10zM14 21h1v1H14zM17 21h1v1H17zM21 21h1v1H21zM22 21h1v1H22zM25 21h1v1H25zM26 21h1v1H26zM29 21h1v1H29zM2 22h1v1H2zM3 22h1v1H3zM4 22h1v1H4zM5 22h1v1H5zM10 22h1v1H10zM11 22h1v1H11zM14 22h1v1H14zM17 22h1v1H17zM20 22h1v1H20zM21 22h1v1H21zM26 22h1v1H26zM27 22h1v1H27zM28 22h1v1H28zM29 22h1v1H29zM2 23h1v1H2zM5 23h1v1H5zM11 23h1v1H11zM12 23h1v1H12zM13 23h1v1H13zM15 23h1v1H15zM16 23h1v1H16zM18 23h1v1H18zM19 23h1v1H19zM20 23h1v1H20zM26 23h1v1H26zM29 23h1v1H29zM2 24h1v1H2zM5 24h1v1H5zM12 24h1v1H12zM14 24h1v1H14zM17 24h1v1H17zM19 24h1v1H19zM26 24h1v1H26zM29 24h1v1H29zM2 25h1v1H2zM6 25h1v1H6zM14 25h1v1H14zM17 25h1v1H17zM25 25h1v1H25zM29 25h1v1H29zM2 26h1v1H2zM7 26h1v1H7zM14 26h1v1H14zM17 26h1v1H17zM24 26h1v1H24zM29 26h1v1H29zM3 27h1v1H3zM7 27h1v1H7zM8 27h1v1H8zM14 27h1v1H14zM17 27h1v1H17zM23 27h1v1H23zM24 27h1v1H24zM28 27h1v1H28zM4 28h1v1H4zM9 28h1v1H9zM14 28h1v1H14zM17 28h1v1H17zM22 28h1v1H22zM27 28h1v1H27zM5 29h1v1H5zM10 29h1v1H10zM12 29h1v1H12zM15 29h1v1H15zM16 29h1v1H16zM19 29h1v1H19zM21 29h1v1H21zM26 29h1v1H26zM6 30h1v1H6zM7 30h1v1H7zM8 30h1v1H8zM9 30h1v1H9zM10 30h1v1H10zM13 30h1v1H13zM18 30h1v1H18zM21 30h1v1H21zM22 30h1v1H22zM23 30h1v1H23zM24 30h1v1H24zM25 30h1v1H25z"/><path fill="#151515" d="M8 3h1v1H8zM23 3h1v1H23zM8 4h1v1H8zM23 4h1v1H23zM10 8h1v1H10zM21 8h1v1H21zM10 13h1v1H10zM21 13h1v1H21zM4 23h1v1H4zM27 23h1v1H27z"/><path fill="#fafafa" d="M15 3h1v1H15zM16 3h1v1H16zM6 4h1v1H6zM25 4h1v1H25zM10 5h1v1H10zM21 5h1v1H21zM4 6h1v1H4zM5 6h1v1H5zM26 6h1v1H26zM27 6h1v1H27zM4 7h1v1H4zM5 7h1v1H5zM26 7h1v1H26zM27 7h1v1H27zM6 9h1v1H6zM10 9h1v1H10zM21 9h1v1H21zM25 9h1v1H25zM7 10h1v1H7zM8 10h1v1H8zM15 10h1v1H15zM23 10h1v1H23zM24 10h1v1H24zM7 11h1v1H7zM8 11h1v1H8zM23 11h1v1H23zM24 11h1v1H24zM11 16h1v1H11zM12 16h1v1H12zM19 16h1v1H19zM20 16h1v1H20zM11 17h1v1H11zM13 17h1v1H13zM18 17h1v1H18zM20 17h1v1H20zM4 18h1v1H4zM11 18h1v1H11zM20 18h1v1H20zM27 18h1v1H27zM5 19h1v1H5zM10 19h1v1H10zM11 19h1v1H11zM20 19h1v1H20zM21 19h1v1H21zM26 19h1v1H26zM10 20h1v1H10zM11 20h1v1H11zM20 20h1v1H20zM21 20h1v1H21zM11 21h1v1H11zM12 21h1v1H12zM19 21h1v1H19zM20 21h1v1H20zM12 22h1v1H12zM13 22h1v1H13zM18 22h1v1H18zM19 22h1v1H19zM15 24h1v1H15z"/><path fill="#7c7c7c" d="M10 4h1v1H10zM21 4h1v1H21zM9 5h1v1H9zM14 5h1v1H14zM17 5h1v1H17zM22 5h1v1H22zM10 6h1v1H10zM21 6h1v1H21zM12 7h1v1H12zM15 7h1v1H15zM16 7h1v1H16zM19 7h1v1H19zM4 8h1v1H4zM27 8h1v1H27zM4 9h1v1H4zM5 9h1v1H5zM9 9h1v1H9zM14 9h1v1H14zM17 9h1v1H17zM22 9h1v1H22zM26 9h1v1H26zM27 9h1v1H27zM3 10h1v1H3zM11 10h1v1H11zM13 10h1v1H13zM18 10h1v1H18zM20 10h1v1H20zM28 10h1v1H28zM5 13h1v1H5zM26 13h1v1H26zM7 15h1v1H7zM24 15h1v1H24zM5 18h1v1H5zM26 18h1v1H26zM4 21h1v1H4zM27 21h1v1H27zM3 23h1v1H3zM28 23h1v1H28zM3 24h1v1H3zM10 24h1v1H10zM21 24h1v1H21zM28 24h1v1H28zM3 25h1v1H3zM5 25h1v1H5zM9 25h1v1H9zM11 25h1v1H11zM20 25h1v1H20zM22 25h1v1H22zM26 25h1v1H26zM28 25h1v1H28zM3 26h1v1H3zM5 26h1v1H5zM9 26h1v1H9zM10 26h1v1H10zM16 26h1v1H16zM18 26h1v1H18zM20 26h1v1H20zM21 26h1v1H21zM22 26h1v1H22zM15 27h1v1H15zM5 28h1v1H5zM7 28h1v1H7zM12 28h1v1H12zM19 28h1v1H19zM24 28h1v1H24zM26 28h1v1H26zM7 29h1v1H7zM9 29h1v1H9zM13 29h1v1H13zM18 29h1v1H18zM22 29h1v1H22zM24 29h1v1H24zM14 30h1v1H14zM17 30h1v1H17z"/><path fill="#404040" d="M14 4h1v1H14zM17 4h1v1H17zM11 5h1v1H11zM20 5h1v1H20zM9 6h1v1H9zM22 6h1v1H22zM13 7h1v1H13zM18 7h1v1H18zM6 8h1v1H6zM7 8h1v1H7zM12 8h1v1H12zM19 8h1v1H19zM24 8h1v1H24zM25 8h1v1H25zM7 9h1v1H7zM24 9h1v1H24zM5 10h1v1H5zM6 10h1v1H6zM10 10h1v1H10zM21 10h1v1H21zM25 10h1v1H25zM26 10h1v1H26zM6 11h1v1H6zM11 11h1v1H11zM20 11h1v1H20zM25 11h1v1H25zM4 12h1v1H4zM7 12h1v1H7zM24 12h1v1H24zM27 12h1v1H27zM5 16h1v1H5zM26 16h1v1H26zM7 18h1v1H7zM24 18h1v1H24zM7 19h1v1H7zM24 19h1v1H24zM7 20h1v1H7zM24 20h1v1H24zM3 21h1v1H3zM28 21h1v1H28zM6 24h1v1H6zM25 24h1v1H25zM7 25h1v1H7zM10 25h1v1H10zM21 25h1v1H21zM24 25h1v1H24zM8 26h1v1H8zM23 26h1v1H23zM26 26h1v1H26zM27 26h1v1H27zM5 27h1v1H5zM9 27h1v1H9zM16 27h1v1H16zM22 27h1v1H22zM26 27h1v1H26zM11 28h1v1H11zM13 28h1v1H13zM16 28h1v1H16zM18 28h1v1H18zM20 28h1v1H20zM6 29h1v1H6zM25 29h1v1H25zM15 30h1v1H15zM16 30h1v1H16z"/><path fill="#5f5f5f" d="M15 4h1v1H15zM16 4h1v1H16zM14 6h1v1H14zM17 6h1v1H17zM13 11h1v1H13zM16 11h1v1H16zM18 11h1v1H18zM13 12h1v1H13zM16 12h1v1H16zM18 12h1v1H18zM14 13h1v1H14zM17 13h1v1H17zM3 14h1v1H3zM15 14h1v1H15zM16 14h1v1H16zM28 14h1v1H28zM4 15h1v1H4zM27 15h1v1H27zM7 16h1v1H7zM24 16h1v1H24zM3 17h1v1H3zM7 17h1v1H7zM24 17h1v1H24zM28 17h1v1H28zM3 20h1v1H3zM28 20h1v1H28zM7 21h1v1H7zM24 21h1v1H24zM6 22h1v1H6zM25 22h1v1H25zM4 24h1v1H4zM27 24h1v1H27zM10 27h1v1H10zM12 27h1v1H12zM19 27h1v1H19zM21 27h1v1H21zM15 28h1v1H15z"/><path fill="#161616" d="M8 5h1v1H8zM23 5h1v1H23zM15 8h1v1H15zM16 8h1v1H16zM4 17h1v1H4zM27 17h1v1H27z"/><path fill="#181818" d="M11 7h1v1H11zM20 7h1v1H20zM11 12h1v1H11zM20 12h1v1H20zM12 13h1v1H12zM19 13h1v1H19zM13 14h1v1H13zM18 14h1v1H18zM14 15h1v1H14zM17 15h1v1H17zM15 16h1v1H15zM16 16h1v1H16zM12 19h1v1H12zM19 19h1v1H19zM15 22h1v1H15zM16 22h1v1H16z"/><path fill="#191919" d="M11 9h1v1H11zM20 9h1v1H20zM14 10h1v1H14zM17 10h1v1H17zM4 11h1v1H4zM27 11h1v1H27zM5 12h1v1H5zM26 12h1v1H26zM9 15h1v1H9zM22 15h1v1H22z"/><path fill="#373737" d="M10 16h1v1H10zM21 16h1v1H21zM13 20h1v1H13zM18 20h1v1H18z"/><path fill="#939393" d="M10 17h1v1H10zM21 17h1v1H21zM12 20h1v1H12zM19 20h1v1H19z"/><path fill="#171717" d="M2 18h1v1H2zM29 18h1v1H29zM2 19h1v1H2zM29 19h1v1H29zM4 27h1v1H4zM27 27h1v1H27z"/><path fill="#d6d6d6" d="M10 18h1v1H10zM21 18h1v1H21zM13 21h1v1H13zM18 21h1v1H18z"/><path fill="#1d1d1d" d="M12 25h1v1H12zM19 25h1v1H19zM6 26h1v1H6zM11 26h1v1H11zM12 26h1v1H12zM19 26h1v1H19zM25 26h1v1H25z"/></svg>
