<svg xmlns="http://www.w3.org/2000/svg" viewBox="0 0 32 32" shape-rendering="crispEdges"><path fill="#fee621" d="M15 0h1v1H15zM16 0h1v1H16zM9 1h1v1H9zM22 1h1v1H22zM3 3h1v1H3zM28 3h1v1H28zM4 4h1v1H4zM27 4h1v1H27zM5 5h1v1H5zM8 5h1v1H8zM9 5h1v1H9zM12 5h1v1H12zM19 5h1v1H19zM22 5h1v1H22zM23 5h1v1H23zM26 5h1v1H26zM6 6h1v1H6zM12 6h1v1H12zM13 6h1v1H13zM14 6h1v1H14zM15 6h1v1H15zM16 6h1v1H16zM17 6h1v1H17zM18 6h1v1H18zM19 6h1v1H19zM25 6h1v1H25zM9 7h1v1H9zM10 7h1v1H10zM12 7h1v1H12zM14 7h1v1H14zM15 7h1v1H15zM16 7h1v1H16zM17 7h1v1H17zM19 7h1v1H19zM21 7h1v1H21zM22 7h1v1H22zM2 8h1v1H2zM3 8h1v1H3zM11 8h1v1H11zM20 8h1v1H20zM28 8h1v1H28zM29 8h1v1H29zM8 9h1v1H8zM9 9h1v1H9zM22 9h1v1H22zM23 9h1v1H23zM9 11h1v1H9zM22 11h1v1H22zM8 13h1v1H8zM9 13h1v1H9zM10 13h1v1H10zM14 13h1v1H14zM17 13h1v1H17zM21 13h1v1H21zM22 13h1v1H22zM23 13h1v1H23zM1 14h1v1H1zM2 14h1v1H2zM8 14h1v1H8zM9 14h1v1H9zM22 14h1v1H22zM23 14h1v1H23zM29 14h1v1H29zM30 14h1v1H30zM5 16h1v1H5zM8 16h1v1H8zM9 16h1v1H9zM22 16h1v1H22zM23 16h1v1H23zM26 16h1v1H26zM6 17h1v1H6zM8 17h1v1H8zM23 17h1v1H23zM25 17h1v1H25zM6 18h1v1H6zM8 18h1v1H8zM10 18h1v1H10zM21 18h1v1H21zM23 18h1v1H23zM25 18h1v1H25zM9 22h1v1H9zM22 22h1v1H22zM4 25h1v1H4zM27 25h1v1H27zM14 26h1v1H14zM17 26h1v1H17zM14 27h1v1H14zM17 27h1v1H17z"/><path fill="#fcce19" d="M15 1h1v1H15zM16 1h1v1H16zM9 2h1v1H9zM10 2h1v1H10zM21 2h1v1H21zM22 2h1v1H22zM10 4h1v1H10zM11 4h1v1H11zM20 4h1v1H20zM21 4h1v1H21zM4 9h1v1H4zM27 9h1v1H27z"/><path fill="#f5b70b" d="M15 2h1v1H15zM16 2h1v1H16zM6 7h1v1H6zM25 7h1v1H25zM8 8h1v1H8zM9 8h1v1H9zM14 8h1v1H14zM17 8h1v1H17zM22 8h1v1H22zM23 8h1v1H23zM11 12h1v1H11zM20 12h1v1H20zM11 13h1v1H11zM20 13h1v1H20zM11 14h1v1H11zM13 14h1v1H13zM18 14h1v1H18zM20 14h1v1H20zM1 15h1v1H1zM12 15h1v1H12zM19 15h1v1H19zM30 15h1v1H30z"/><path fill="#f08302" d="M9 3h1v1H9zM22 3h1v1H22zM3 10h1v1H3zM4 10h1v1H4zM27 10h1v1H27zM28 10h1v1H28zM10 12h1v1H10zM12 12h1v1H12zM19 12h1v1H19zM21 12h1v1H21zM12 13h1v1H12zM19 13h1v1H19zM12 14h1v1H12zM19 14h1v1H19zM6 15h1v1H6zM15 15h1v1H15zM16 15h1v1H16zM25 15h1v1H25zM28 15h1v1H28zM29 15h1v1H29zM6 16h1v1H6zM25 16h1v1H25zM10 20h1v1H10zM21 20h1v1H21zM8 22h1v1H8zM23 22h1v1H23zM6 24h1v1H6zM8 24h1v1H8zM9 24h1v1H9zM22 24h1v1H22zM23 24h1v1H23zM25 24h1v1H25zM9 25h1v1H9zM11 25h1v1H11zM20 25h1v1H20zM22 25h1v1H22zM6 26h1v1H6zM9 26h1v1H9zM10 26h1v1H10zM11 26h1v1H11zM13 26h1v1H13zM18 26h1v1H18zM20 26h1v1H20zM21 26h1v1H21zM22 26h1v1H22zM25 26h1v1H25zM4 27h1v1H4zM27 27h1v1H27z"/><path fill="#f59203" d="M10 3h1v1H10zM15 3h1v1H15zM16 3h1v1H16zM21 3h1v1H21zM3 4h1v1H3zM28 4h1v1H28zM4 5h1v1H4zM7 5h1v1H7zM24 5h1v1H24zM27 5h1v1H27zM9 6h1v1H9zM22 6h1v1H22zM11 7h1v1H11zM20 7h1v1H20zM6 8h1v1H6zM10 8h1v1H10zM13 8h1v1H13zM18 8h1v1H18zM21 8h1v1H21zM25 8h1v1H25zM2 9h1v1H2zM3 9h1v1H3zM6 9h1v1H6zM12 9h1v1H12zM19 9h1v1H19zM25 9h1v1H25zM28 9h1v1H28zM29 9h1v1H29zM6 10h1v1H6zM7 10h1v1H7zM14 10h1v1H14zM17 10h1v1H17zM24 10h1v1H24zM25 10h1v1H25zM7 11h1v1H7zM24 11h1v1H24zM2 15h1v1H2zM3 15h1v1H3zM6 19h1v1H6zM25 19h1v1H25zM12 25h1v1H12zM19 25h1v1H19zM10 27h1v1H10zM21 27h1v1H21z"/><path fill="#fdfce9" d="M10 5h1v1H10zM11 5h1v1H11zM13 5h1v1H13zM14 5h1v1H14zM15 5h1v1H15zM16 5h1v1H16zM17 5h1v1H17zM18 5h1v1H18zM20 5h1v1H20zM21 5h1v1H21zM7 6h1v1H7zM8 6h1v1H8zM10 6h1v1H10zM11 6h1v1H11zM20 6h1v1H20zM21 6h1v1H21zM23 6h1v1H23zM24 6h1v1H24zM7 7h1v1H7zM8 7h1v1H8zM13 7h1v1H13zM18 7h1v1H18zM23 7h1v1H23zM24 7h1v1H24zM12 8h1v1H12zM15 8h1v1H15zM16 8h1v1H16zM19 8h1v1H19zM10 9h1v1H10zM11 9h1v1H11zM20 9h1v1H20zM21 9h1v1H21zM8 10h1v1H8zM11 10h1v1H11zM12 10h1v1H12zM13 10h1v1H13zM18 10h1v1H18zM19 10h1v1H19zM20 10h1v1H20zM23 10h1v1H23zM8 11h1v1H8zM15 11h1v1H15zM16 11h1v1H16zM23 11h1v1H23zM14 12h1v1H14zM15 12h1v1H15zM16 12h1v1H16zM17 12h1v1H17zM15 13h1v1H15zM16 13h1v1H16zM15 14h1v1H15zM16 14h1v1H16zM8 23h1v1H8zM23 23h1v1H23z"/><path fill="#f55c0a" d="M7 8h1v1H7zM24 8h1v1H24zM10 11h1v1H10zM11 11h1v1H11zM12 11h1v1H12zM14 11h1v1H14zM17 11h1v1H17zM19 11h1v1H19zM20 11h1v1H20zM21 11h1v1H21zM9 12h1v1H9zM22 12h1v1H22zM14 14h1v1H14zM17 14h1v1H17zM8 15h1v1H8zM23 15h1v1H23zM5 17h1v1H5zM26 17h1v1H26zM5 18h1v1H5zM26 18h1v1H26zM5 19h1v1H5zM26 19h1v1H26zM6 20h1v1H6zM25 20h1v1H25zM6 22h1v1H6zM25 22h1v1H25zM5 23h1v1H5zM6 23h1v1H6zM25 23h1v1H25zM26 23h1v1H26zM5 24h1v1H5zM26 24h1v1H26zM5 27h1v1H5zM8 27h1v1H8zM12 27h1v1H12zM13 27h1v1H13zM18 27h1v1H18zM19 27h1v1H19zM23 27h1v1H23zM26 27h1v1H26z"/><path fill="#9e3802" d="M7 9h1v1H7zM24 9h1v1H24zM15 10h1v1H15zM16 10h1v1H16zM13 11h1v1H13zM18 11h1v1H18zM7 12h1v1H7zM8 12h1v1H8zM13 12h1v1H13zM18 12h1v1H18zM23 12h1v1H23zM24 12h1v1H24zM6 13h1v1H6zM7 13h1v1H7zM13 13h1v1H13zM18 13h1v1H18zM24 13h1v1H24zM25 13h1v1H25zM6 14h1v1H6zM7 14h1v1H7zM10 14h1v1H10zM21 14h1v1H21zM24 14h1v1H24zM25 14h1v1H25zM7 15h1v1H7zM9 15h1v1H9zM13 15h1v1H13zM14 15h1v1H14zM17 15h1v1H17zM18 15h1v1H18zM22 15h1v1H22zM24 15h1v1H24zM7 16h1v1H7zM24 16h1v1H24zM7 17h1v1H7zM24 17h1v1H24zM7 18h1v1H7zM24 18h1v1H24zM7 19h1v1H7zM24 19h1v1H24zM7 20h1v1H7zM24 20h1v1H24zM7 21h1v1H7zM24 21h1v1H24zM7 22h1v1H7zM24 22h1v1H24zM7 23h1v1H7zM24 23h1v1H24zM7 24h1v1H7zM11 24h1v1H11zM20 24h1v1H20zM24 24h1v1H24zM7 25h1v1H7zM8 25h1v1H8zM14 25h1v1H14zM15 25h1v1H15zM16 25h1v1H16zM17 25h1v1H17zM23 25h1v1H23zM24 25h1v1H24zM12 26h1v1H12zM19 26h1v1H19z"/><path fill="#fcb519" d="M13 9h1v1H13zM14 9h1v1H14zM15 9h1v1H15zM16 9h1v1H16zM17 9h1v1H17zM18 9h1v1H18zM9 10h1v1H9zM10 10h1v1H10zM21 10h1v1H21zM22 10h1v1H22zM5 15h1v1H5zM26 15h1v1H26zM8 19h1v1H8zM10 19h1v1H10zM21 19h1v1H21zM23 19h1v1H23zM8 20h1v1H8zM23 20h1v1H23zM8 21h1v1H8zM13 21h1v1H13zM18 21h1v1H18zM23 21h1v1H23zM9 23h1v1H9zM22 23h1v1H22zM10 24h1v1H10zM21 24h1v1H21zM5 25h1v1H5zM6 25h1v1H6zM10 25h1v1H10zM13 25h1v1H13zM18 25h1v1H18zM21 25h1v1H21zM25 25h1v1H25zM26 25h1v1H26zM4 26h1v1H4zM5 26h1v1H5zM7 26h1v1H7zM15 26h1v1H15zM16 26h1v1H16zM24 26h1v1H24zM26 26h1v1H26zM27 26h1v1H27zM9 27h1v1H9zM15 27h1v1H15zM16 27h1v1H16zM22 27h1v1H22z"/><path fill="#ccc6bb" d="M6 11h1v1H6zM25 11h1v1H25z"/><path fill="#ede6d8" d="M6 12h1v1H6zM25 12h1v1H25z"/><path fill="#060000" d="M10 15h1v1H10zM11 15h1v1H11zM20 15h1v1H20zM21 15h1v1H21zM10 16h1v1H10zM11 16h1v1H11zM12 16h1v1H12zM13 16h1v1H13zM14 16h1v1H14zM15 16h1v1H15zM16 16h1v1H16zM17 16h1v1H17zM18 16h1v1H18zM19 16h1v1H19zM20 16h1v1H20zM21 16h1v1H21zM9 17h1v1H9zM10 17h1v1H10zM13 17h1v1H13zM14 17h1v1H14zM15 17h1v1H15zM16 17h1v1H16zM17 17h1v1H17zM18 17h1v1H18zM21 17h1v1H21zM22 17h1v1H22zM9 18h1v1H9zM14 18h1v1H14zM15 18h1v1H15zM16 18h1v1H16zM17 18h1v1H17zM22 18h1v1H22zM9 19h1v1H9zM14 19h1v1H14zM15 19h1v1H15zM16 19h1v1H16zM17 19h1v1H17zM22 19h1v1H22zM9 20h1v1H9zM14 20h1v1H14zM15 20h1v1H15zM16 20h1v1H16zM17 20h1v1H17zM22 20h1v1H22zM9 21h1v1H9zM10 21h1v1H10zM14 21h1v1H14zM15 21h1v1H15zM16 21h1v1H16zM17 21h1v1H17zM21 21h1v1H21zM22 21h1v1H22zM10 22h1v1H10zM11 22h1v1H11zM14 22h1v1H14zM15 22h1v1H15zM16 22h1v1H16zM17 22h1v1H17zM20 22h1v1H20zM21 22h1v1H21zM10 23h1v1H10zM11 23h1v1H11zM12 23h1v1H12zM13 23h1v1H13zM14 23h1v1H14zM15 23h1v1H15zM16 23h1v1H16zM17 23h1v1H17zM18 23h1v1H18zM19 23h1v1H19zM20 23h1v1H20zM21 23h1v1H21zM12 24h1v1H12zM13 24h1v1H13zM14 24h1v1H14zM15 24h1v1H15zM16 24h1v1H16zM17 24h1v1H17zM18 24h1v1H18zM19 24h1v1H19z"/><path fill="#ffffff" d="M11 17h1v1H11zM12 17h1v1H12zM19 17h1v1H19zM20 17h1v1H20zM11 18h1v1H11zM12 18h1v1H12zM13 18h1v1H13zM18 18h1v1H18zM19 18h1v1H19zM20 18h1v1H20zM11 19h1v1H11zM12 19h1v1H12zM19 19h1v1H19zM20 19h1v1H20zM11 20h1v1H11zM12 20h1v1H12zM19 20h1v1H19zM20 20h1v1H20zM11 21h1v1H11zM12 21h1v1H12zM19 21h1v1H19zM20 21h1v1H20zM12 22h1v1H12zM13 22h1v1H13zM18 22h1v1H18zM19 22h1v1H19z"/><path fill="#000000" d="M13 19h1v1H13zM18 19h1v1H18zM13 20h1v1H13zM18 20h1v1H18z"/><path fill="#422005" d="M5 20h1v1H5zM26 20h1v1H26zM6 21h1v1H6zM25 21h1v1H25zM8 26h1v1H8zM23 26h1v1H23zM6 27h1v1H6zM7 27h1v1H7zM11 27h1v1H11zM20 27h1v1H20zM24 27h1v1H24zM25 27h1v1H25z"/></svg>
