<svg xmlns="http://www.w3.org/2000/svg" viewBox="0 0 32 32" shape-rendering="crispEdges"><path fill="#c99c42" d="M15 1h1v1H15zM16 1h1v1H16zM14 2h1v1H14zM17 2h1v1H17zM13 3h1v1H13zM18 3h1v1H18zM13 4h1v1H13zM18 4h1v1H18zM14 5h1v1H14zM17 5h1v1H17zM2 9h1v1H2zM3 9h1v1H3zM28 9h1v1H28zM29 9h1v1H29zM5 10h1v1H5zM26 10h1v1H26zM5 11h1v1H5zM7 11h1v1H7zM24 11h1v1H24zM26 11h1v1H26zM7 12h1v1H7zM24 12h1v1H24zM8 13h1v1H8zM10 13h1v1H10zM15 13h1v1H15zM16 13h1v1H16zM21 13h1v1H21zM23 13h1v1H23zM13 14h1v1H13zM18 14h1v1H18zM14 15h1v1H14zM17 15h1v1H17zM15 21h1v1H15zM16 21h1v1H16zM13 24h1v1H13zM18 24h1v1H18zM5 25h1v1H5zM9 25h1v1H9zM13 25h1v1H13zM18 25h1v1H18zM22 25h1v1H22zM26 25h1v1H26zM3 26h1v1H3zM14 26h1v1H14zM17 26h1v1H17zM28 26h1v1H28zM3 27h1v1H3zM6 27h1v1H6zM8 27h1v1H8zM23 27h1v1H23zM25 27h1v1H25zM28 27h1v1H28z"/><path fill="#ffe7a8" d="M15 2h1v1H15zM16 2h1v1H16zM6 11h1v1H6zM25 11h1v1H25zM2 12h1v1H2zM8 12h1v1H8zM11 12h1v1H11zM20 12h1v1H20zM23 12h1v1H23zM29 12h1v1H29zM3 13h1v1H3zM13 13h1v1H13zM18 13h1v1H18zM28 13h1v1H28zM3 14h1v1H3zM28 14h1v1H28zM4 17h1v1H4zM27 17h1v1H27zM8 22h1v1H8zM14 22h1v1H14zM17 22h1v1H17zM23 22h1v1H23zM2 23h1v1H2zM9 23h1v1H9zM22 23h1v1H22zM29 23h1v1H29zM2 24h1v1H2zM6 24h1v1H6zM8 24h1v1H8zM23 24h1v1H23zM25 24h1v1H25zM29 24h1v1H29zM3 25h1v1H3zM28 25h1v1H28zM7 28h1v1H7zM24 28h1v1H24z"/><path fill="#fff9f1" d="M14 3h1v1H14zM17 3h1v1H17zM12 5h1v1H12zM19 5h1v1H19zM9 6h1v1H9zM10 6h1v1H10zM16 6h1v1H16zM21 6h1v1H21zM22 6h1v1H22zM8 7h1v1H8zM14 7h1v1H14zM16 7h1v1H16zM23 7h1v1H23zM7 8h1v1H7zM10 8h1v1H10zM18 8h1v1H18zM21 8h1v1H21zM24 8h1v1H24zM5 9h1v1H5zM10 9h1v1H10zM11 9h1v1H11zM15 9h1v1H15zM20 9h1v1H20zM21 9h1v1H21zM26 9h1v1H26zM2 10h1v1H2zM6 10h1v1H6zM9 10h1v1H9zM16 10h1v1H16zM22 10h1v1H22zM25 10h1v1H25zM29 10h1v1H29zM15 11h1v1H15zM1 12h1v1H1zM16 12h1v1H16zM30 12h1v1H30zM1 13h1v1H1zM5 13h1v1H5zM26 13h1v1H26zM30 13h1v1H30zM1 14h1v1H1zM5 14h1v1H5zM14 14h1v1H14zM17 14h1v1H17zM26 14h1v1H26zM30 14h1v1H30zM1 15h1v1H1zM3 15h1v1H3zM6 15h1v1H6zM15 15h1v1H15zM16 15h1v1H16zM25 15h1v1H25zM28 15h1v1H28zM30 15h1v1H30zM1 16h1v1H1zM3 16h1v1H3zM6 16h1v1H6zM25 16h1v1H25zM28 16h1v1H28zM30 16h1v1H30zM3 17h1v1H3zM7 17h1v1H7zM24 17h1v1H24zM28 17h1v1H28zM7 18h1v1H7zM8 18h1v1H8zM23 18h1v1H23zM24 18h1v1H24zM2 19h1v1H2zM8 19h1v1H8zM23 19h1v1H23zM29 19h1v1H29zM3 20h1v1H3zM28 20h1v1H28zM1 21h1v1H1zM30 21h1v1H30zM1 22h1v1H1zM2 22h1v1H2zM9 22h1v1H9zM22 22h1v1H22zM29 22h1v1H29zM30 22h1v1H30zM1 23h1v1H1zM14 23h1v1H14zM30 23h1v1H30zM1 24h1v1H1zM3 24h1v1H3zM28 24h1v1H28zM30 24h1v1H30zM2 25h1v1H2zM11 25h1v1H11zM12 25h1v1H12zM19 25h1v1H19zM20 25h1v1H20zM29 25h1v1H29zM2 26h1v1H2zM7 26h1v1H7zM13 26h1v1H13zM18 26h1v1H18zM24 26h1v1H24zM29 26h1v1H29zM2 27h1v1H2zM4 27h1v1H4zM27 27h1v1H27zM29 27h1v1H29z"/><path fill="#e8c66b" d="M15 3h1v1H15zM16 3h1v1H16zM14 4h1v1H14zM15 4h1v1H15zM16 4h1v1H16zM17 4h1v1H17zM13 6h1v1H13zM18 6h1v1H18zM12 7h1v1H12zM19 7h1v1H19zM12 8h1v1H12zM19 8h1v1H19zM12 9h1v1H12zM19 9h1v1H19zM3 10h1v1H3zM28 10h1v1H28zM2 11h1v1H2zM29 11h1v1H29zM6 12h1v1H6zM25 12h1v1H25zM2 13h1v1H2zM9 13h1v1H9zM22 13h1v1H22zM29 13h1v1H29zM5 18h1v1H5zM26 18h1v1H26zM6 19h1v1H6zM25 19h1v1H25zM7 20h1v1H7zM24 20h1v1H24zM7 21h1v1H7zM24 21h1v1H24zM10 24h1v1H10zM21 24h1v1H21zM5 26h1v1H5zM9 26h1v1H9zM22 26h1v1H22zM26 26h1v1H26zM4 28h1v1H4zM27 28h1v1H27z"/><path fill="#8e6dda" d="M11 4h1v1H11zM12 4h1v1H12zM19 4h1v1H19zM20 4h1v1H20zM7 5h1v1H7zM24 5h1v1H24zM11 6h1v1H11zM20 6h1v1H20zM6 7h1v1H6zM25 7h1v1H25zM3 11h1v1H3zM28 11h1v1H28zM3 12h1v1H3zM9 12h1v1H9zM10 12h1v1H10zM21 12h1v1H21zM22 12h1v1H22zM28 12h1v1H28zM11 14h1v1H11zM20 14h1v1H20zM8 15h1v1H8zM23 15h1v1H23zM2 17h1v1H2zM29 17h1v1H29zM0 18h1v1H0zM10 18h1v1H10zM21 18h1v1H21zM31 18h1v1H31zM1 20h1v1H1zM30 20h1v1H30zM2 21h1v1H2zM13 21h1v1H13zM18 21h1v1H18zM29 21h1v1H29zM3 22h1v1H3zM28 22h1v1H28zM7 23h1v1H7zM8 23h1v1H8zM23 23h1v1H23zM24 23h1v1H24zM4 24h1v1H4zM7 24h1v1H7zM24 24h1v1H24zM27 24h1v1H27zM12 26h1v1H12zM19 26h1v1H19zM9 27h1v1H9zM10 27h1v1H10zM21 27h1v1H21zM22 27h1v1H22zM5 29h1v1H5zM6 29h1v1H6zM13 29h1v1H13zM18 29h1v1H18zM25 29h1v1H25zM26 29h1v1H26z"/><path fill="#ffffff" d="M8 5h1v1H8zM9 5h1v1H9zM11 5h1v1H11zM20 5h1v1H20zM22 5h1v1H22zM23 5h1v1H23zM7 6h1v1H7zM8 6h1v1H8zM15 6h1v1H15zM23 6h1v1H23zM24 6h1v1H24zM7 7h1v1H7zM15 7h1v1H15zM24 7h1v1H24zM9 8h1v1H9zM14 8h1v1H14zM22 8h1v1H22zM8 9h1v1H8zM9 9h1v1H9zM14 9h1v1H14zM22 9h1v1H22zM23 9h1v1H23zM8 10h1v1H8zM15 10h1v1H15zM23 10h1v1H23zM12 12h1v1H12zM19 12h1v1H19zM4 16h1v1H4zM11 16h1v1H11zM12 16h1v1H12zM19 16h1v1H19zM20 16h1v1H20zM27 16h1v1H27zM5 17h1v1H5zM11 17h1v1H11zM13 17h1v1H13zM18 17h1v1H18zM20 17h1v1H20zM26 17h1v1H26zM6 18h1v1H6zM11 18h1v1H11zM20 18h1v1H20zM25 18h1v1H25zM7 19h1v1H7zM10 19h1v1H10zM11 19h1v1H11zM20 19h1v1H20zM21 19h1v1H21zM24 19h1v1H24zM10 20h1v1H10zM11 20h1v1H11zM20 20h1v1H20zM21 20h1v1H21zM11 21h1v1H11zM12 21h1v1H12zM19 21h1v1H19zM20 21h1v1H20zM12 22h1v1H12zM13 22h1v1H13zM18 22h1v1H18zM19 22h1v1H19zM15 23h1v1H15zM7 25h1v1H7zM24 25h1v1H24zM15 26h1v1H15zM16 26h1v1H16z"/><path fill="#6e4bbc" d="M10 5h1v1H10zM21 5h1v1H21zM11 8h1v1H11zM20 8h1v1H20zM13 12h1v1H13zM18 12h1v1H18zM15 14h1v1H15zM16 14h1v1H16zM5 15h1v1H5zM26 15h1v1H26zM6 17h1v1H6zM10 17h1v1H10zM21 17h1v1H21zM25 17h1v1H25zM8 20h1v1H8zM12 20h1v1H12zM19 20h1v1H19zM23 20h1v1H23zM8 21h1v1H8zM23 21h1v1H23zM9 24h1v1H9zM22 24h1v1H22zM8 29h1v1H8zM9 29h1v1H9zM11 29h1v1H11zM12 29h1v1H12zM19 29h1v1H19zM20 29h1v1H20zM22 29h1v1H22zM23 29h1v1H23zM10 30h1v1H10zM21 30h1v1H21z"/><path fill="#f7e5fd" d="M13 5h1v1H13zM18 5h1v1H18zM14 6h1v1H14zM15 8h1v1H15zM10 26h1v1H10zM21 26h1v1H21zM14 27h1v1H14zM17 27h1v1H17z"/><path fill="#ffe0f7" d="M15 5h1v1H15zM16 5h1v1H16zM12 6h1v1H12zM17 6h1v1H17zM19 6h1v1H19zM9 7h1v1H9zM10 7h1v1H10zM13 7h1v1H13zM17 7h1v1H17zM21 7h1v1H21zM22 7h1v1H22zM5 8h1v1H5zM16 8h1v1H16zM26 8h1v1H26zM7 9h1v1H7zM18 9h1v1H18zM24 9h1v1H24zM14 10h1v1H14zM18 10h1v1H18zM9 11h1v1H9zM22 11h1v1H22zM2 14h1v1H2zM29 14h1v1H29zM15 22h1v1H15zM15 24h1v1H15zM15 25h1v1H15zM11 27h1v1H11zM12 27h1v1H12zM19 27h1v1H19zM20 27h1v1H20zM8 28h1v1H8zM9 28h1v1H9zM10 28h1v1H10zM15 28h1v1H15zM16 28h1v1H16zM21 28h1v1H21zM22 28h1v1H22zM23 28h1v1H23z"/><path fill="#ad8bea" d="M6 6h1v1H6zM25 6h1v1H25zM6 8h1v1H6zM25 8h1v1H25zM6 9h1v1H6zM25 9h1v1H25zM1 11h1v1H1zM30 11h1v1H30zM0 12h1v1H0zM31 12h1v1H31zM0 14h1v1H0zM31 14h1v1H31zM0 15h1v1H0zM31 15h1v1H31zM0 16h1v1H0zM31 16h1v1H31zM0 17h1v1H0zM31 17h1v1H31zM7 22h1v1H7zM24 22h1v1H24zM3 23h1v1H3zM10 23h1v1H10zM21 23h1v1H21zM28 23h1v1H28zM5 24h1v1H5zM11 24h1v1H11zM12 24h1v1H12zM19 24h1v1H19zM20 24h1v1H20zM26 24h1v1H26zM10 25h1v1H10zM21 25h1v1H21zM11 26h1v1H11zM20 26h1v1H20zM13 27h1v1H13zM18 27h1v1H18zM5 28h1v1H5zM11 28h1v1H11zM12 28h1v1H12zM19 28h1v1H19zM20 28h1v1H20zM26 28h1v1H26z"/><path fill="#c8aee8" d="M11 7h1v1H11zM20 7h1v1H20zM8 8h1v1H8zM23 8h1v1H23zM1 10h1v1H1zM7 10h1v1H7zM13 10h1v1H13zM24 10h1v1H24zM30 10h1v1H30zM8 11h1v1H8zM11 11h1v1H11zM14 11h1v1H14zM20 11h1v1H20zM23 11h1v1H23zM15 12h1v1H15zM0 13h1v1H0zM14 13h1v1H14zM17 13h1v1H17zM31 13h1v1H31zM7 14h1v1H7zM12 14h1v1H12zM19 14h1v1H19zM24 14h1v1H24zM8 16h1v1H8zM23 16h1v1H23zM17 25h1v1H17zM6 26h1v1H6zM8 26h1v1H8zM23 26h1v1H23zM25 26h1v1H25zM7 27h1v1H7zM24 27h1v1H24zM13 28h1v1H13zM14 28h1v1H14zM17 28h1v1H17zM18 28h1v1H18zM10 29h1v1H10zM14 29h1v1H14zM15 29h1v1H15zM16 29h1v1H16zM17 29h1v1H17zM21 29h1v1H21z"/><path fill="#ede6ff" d="M18 7h1v1H18zM13 8h1v1H13zM17 8h1v1H17zM16 9h1v1H16zM17 9h1v1H17zM10 10h1v1H10zM21 10h1v1H21zM17 11h1v1H17zM6 14h1v1H6zM25 14h1v1H25zM7 15h1v1H7zM24 15h1v1H24zM7 16h1v1H7zM24 16h1v1H24zM8 17h1v1H8zM16 17h1v1H16zM23 17h1v1H23zM5 20h1v1H5zM26 20h1v1H26zM6 21h1v1H6zM25 21h1v1H25zM14 24h1v1H14zM6 25h1v1H6zM8 25h1v1H8zM23 25h1v1H23zM25 25h1v1H25z"/><path fill="#9fdfff" d="M13 9h1v1H13zM2 16h1v1H2zM16 16h1v1H16zM29 16h1v1H29zM4 18h1v1H4zM27 18h1v1H27zM5 19h1v1H5zM26 19h1v1H26zM2 20h1v1H2zM6 20h1v1H6zM15 20h1v1H15zM25 20h1v1H25zM29 20h1v1H29zM4 23h1v1H4zM27 23h1v1H27zM17 24h1v1H17z"/><path fill="#d1e9fd" d="M11 10h1v1H11zM20 10h1v1H20zM10 11h1v1H10zM21 11h1v1H21zM1 17h1v1H1zM30 17h1v1H30zM16 23h1v1H16zM16 24h1v1H16zM14 25h1v1H14z"/><path fill="#7a5630" d="M12 10h1v1H12zM19 10h1v1H19zM13 11h1v1H13zM18 11h1v1H18zM5 12h1v1H5zM14 12h1v1H14zM17 12h1v1H17zM26 12h1v1H26zM6 13h1v1H6zM7 13h1v1H7zM11 13h1v1H11zM12 13h1v1H12zM19 13h1v1H19zM20 13h1v1H20zM24 13h1v1H24zM25 13h1v1H25zM8 14h1v1H8zM9 14h1v1H9zM10 14h1v1H10zM21 14h1v1H21zM22 14h1v1H22zM23 14h1v1H23zM13 15h1v1H13zM18 15h1v1H18zM14 16h1v1H14zM17 16h1v1H17zM13 23h1v1H13zM18 23h1v1H18zM15 27h1v1H15zM16 27h1v1H16zM3 28h1v1H3zM28 28h1v1H28zM4 29h1v1H4zM27 29h1v1H27z"/><path fill="#f7a6ff" d="M17 10h1v1H17zM16 11h1v1H16zM2 15h1v1H2zM29 15h1v1H29zM15 17h1v1H15zM16 18h1v1H16zM1 19h1v1H1zM3 19h1v1H3zM16 19h1v1H16zM28 19h1v1H28zM30 19h1v1H30zM4 20h1v1H4zM27 20h1v1H27zM5 21h1v1H5zM26 21h1v1H26zM5 22h1v1H5zM16 22h1v1H16zM26 22h1v1H26zM17 23h1v1H17zM16 25h1v1H16z"/><path fill="#3b2a70" d="M12 11h1v1H12zM19 11h1v1H19zM5 16h1v1H5zM10 16h1v1H10zM21 16h1v1H21zM26 16h1v1H26zM12 19h1v1H12zM19 19h1v1H19zM4 25h1v1H4zM27 25h1v1H27zM4 26h1v1H4zM27 26h1v1H27zM5 27h1v1H5zM26 27h1v1H26zM6 28h1v1H6zM25 28h1v1H25zM7 29h1v1H7zM24 29h1v1H24zM9 30h1v1H9zM22 30h1v1H22z"/><path fill="#2a1e4f" d="M9 15h1v1H9zM10 15h1v1H10zM11 15h1v1H11zM12 15h1v1H12zM19 15h1v1H19zM20 15h1v1H20zM21 15h1v1H21zM22 15h1v1H22zM9 16h1v1H9zM22 16h1v1H22zM9 17h1v1H9zM14 17h1v1H14zM17 17h1v1H17zM22 17h1v1H22zM9 18h1v1H9zM14 18h1v1H14zM17 18h1v1H17zM22 18h1v1H22zM9 19h1v1H9zM14 19h1v1H14zM17 19h1v1H17zM22 19h1v1H22zM9 20h1v1H9zM14 20h1v1H14zM17 20h1v1H17zM22 20h1v1H22zM9 21h1v1H9zM10 21h1v1H10zM14 21h1v1H14zM17 21h1v1H17zM21 21h1v1H21zM22 21h1v1H22zM10 22h1v1H10zM11 22h1v1H11zM20 22h1v1H20zM21 22h1v1H21zM11 23h1v1H11zM12 23h1v1H12zM19 23h1v1H19zM20 23h1v1H20z"/><path fill="#000000" d="M13 16h1v1H13zM18 16h1v1H18zM12 17h1v1H12zM19 17h1v1H19zM12 18h1v1H12zM13 18h1v1H13zM18 18h1v1H18zM19 18h1v1H19zM13 19h1v1H13zM18 19h1v1H18z"/><path fill="#d9fff5" d="M15 16h1v1H15zM1 18h1v1H1zM3 18h1v1H3zM28 18h1v1H28zM30 18h1v1H30zM4 19h1v1H4zM15 19h1v1H15zM27 19h1v1H27zM16 20h1v1H16zM3 21h1v1H3zM28 21h1v1H28zM4 22h1v1H4zM27 22h1v1H27zM5 23h1v1H5zM26 23h1v1H26z"/><path fill="#dda5fa" d="M2 18h1v1H2zM15 18h1v1H15zM29 18h1v1H29zM4 21h1v1H4zM27 21h1v1H27zM6 23h1v1H6zM25 23h1v1H25z"/><path fill="#2e205a" d="M13 20h1v1H13zM18 20h1v1H18z"/><path fill="#bebcfe" d="M6 22h1v1H6zM25 22h1v1H25z"/></svg>
