<svg xmlns="http://www.w3.org/2000/svg" viewBox="0 0 32 32" shape-rendering="crispEdges"><path fill="#76d9ff" d="M7 5h1v1H7zM24 5h1v1H24zM6 11h1v1H6zM25 11h1v1H25z"/><path fill="#5bc4ff" d="M8 5h1v1H8zM9 5h1v1H9zM10 5h1v1H10zM11 5h1v1H11zM12 5h1v1H12zM13 5h1v1H13zM14 5h1v1H14zM15 5h1v1H15zM16 5h1v1H16zM17 5h1v1H17zM18 5h1v1H18zM19 5h1v1H19zM20 5h1v1H20zM21 5h1v1H21zM22 5h1v1H22zM23 5h1v1H23zM6 6h1v1H6zM7 6h1v1H7zM8 6h1v1H8zM9 6h1v1H9zM10 6h1v1H10zM13 6h1v1H13zM14 6h1v1H14zM17 6h1v1H17zM18 6h1v1H18zM21 6h1v1H21zM22 6h1v1H22zM23 6h1v1H23zM24 6h1v1H24zM25 6h1v1H25zM6 7h1v1H6zM7 7h1v1H7zM10 7h1v1H10zM21 7h1v1H21zM24 7h1v1H24zM25 7h1v1H25zM6 8h1v1H6zM7 8h1v1H7zM12 8h1v1H12zM19 8h1v1H19zM24 8h1v1H24zM25 8h1v1H25zM6 9h1v1H6zM9 9h1v1H9zM22 9h1v1H22zM25 9h1v1H25zM6 10h1v1H6zM11 10h1v1H11zM14 10h1v1H14zM15 10h1v1H15zM16 10h1v1H16zM17 10h1v1H17zM20 10h1v1H20zM25 10h1v1H25zM7 11h1v1H7zM12 11h1v1H12zM13 11h1v1H13zM18 11h1v1H18zM19 11h1v1H19zM24 11h1v1H24zM7 12h1v1H7zM24 12h1v1H24zM7 13h1v1H7zM11 13h1v1H11zM20 13h1v1H20zM24 13h1v1H24zM13 15h1v1H13zM14 15h1v1H14zM17 15h1v1H17zM18 15h1v1H18zM5 16h1v1H5zM6 16h1v1H6zM8 16h1v1H8zM11 16h1v1H11zM12 16h1v1H12zM13 16h1v1H13zM14 16h1v1H14zM15 16h1v1H15zM16 16h1v1H16zM17 16h1v1H17zM18 16h1v1H18zM19 16h1v1H19zM20 16h1v1H20zM23 16h1v1H23zM25 16h1v1H25zM26 16h1v1H26zM5 17h1v1H5zM6 17h1v1H6zM8 17h1v1H8zM9 17h1v1H9zM10 17h1v1H10zM11 17h1v1H11zM20 17h1v1H20zM21 17h1v1H21zM22 17h1v1H22zM23 17h1v1H23zM25 17h1v1H25zM26 17h1v1H26zM6 18h1v1H6zM7 18h1v1H7zM8 18h1v1H8zM9 18h1v1H9zM22 18h1v1H22zM23 18h1v1H23zM24 18h1v1H24zM25 18h1v1H25zM8 19h1v1H8zM9 19h1v1H9zM22 19h1v1H22zM23 19h1v1H23zM5 20h1v1H5zM5 21h1v1H5zM6 21h1v1H6zM7 21h1v1H7zM10 21h1v1H10zM21 21h1v1H21zM24 21h1v1H24zM25 21h1v1H25zM8 22h1v1H8zM9 22h1v1H9zM10 22h1v1H10zM11 22h1v1H11zM12 22h1v1H12zM19 22h1v1H19zM20 22h1v1H20zM21 22h1v1H21zM23 22h1v1H23zM24 22h1v1H24zM8 23h1v1H8zM9 23h1v1H9zM12 23h1v1H12zM13 23h1v1H13zM14 23h1v1H14zM15 23h1v1H15zM16 23h1v1H16zM17 23h1v1H17zM18 23h1v1H18zM19 23h1v1H19zM23 23h1v1H23zM24 23h1v1H24zM12 24h1v1H12zM13 24h1v1H13zM9 25h1v1H9zM10 25h1v1H10zM21 25h1v1H21zM22 25h1v1H22zM10 26h1v1H10zM13 26h1v1H13zM14 26h1v1H14zM19 26h1v1H19zM21 26h1v1H21zM13 27h1v1H13zM14 27h1v1H14zM16 27h1v1H16zM17 27h1v1H17zM16 28h1v1H16zM17 28h1v1H17zM14 29h1v1H14z"/><path fill="#97f3ff" d="M11 6h1v1H11zM12 6h1v1H12zM15 6h1v1H15zM16 6h1v1H16zM19 6h1v1H19zM20 6h1v1H20zM8 7h1v1H8zM9 7h1v1H9zM11 7h1v1H11zM12 7h1v1H12zM13 7h1v1H13zM14 7h1v1H14zM15 7h1v1H15zM16 7h1v1H16zM17 7h1v1H17zM18 7h1v1H18zM19 7h1v1H19zM20 7h1v1H20zM22 7h1v1H22zM23 7h1v1H23zM8 8h1v1H8zM9 8h1v1H9zM10 8h1v1H10zM11 8h1v1H11zM13 8h1v1H13zM14 8h1v1H14zM15 8h1v1H15zM16 8h1v1H16zM17 8h1v1H17zM18 8h1v1H18zM20 8h1v1H20zM21 8h1v1H21zM22 8h1v1H22zM23 8h1v1H23zM7 9h1v1H7zM8 9h1v1H8zM10 9h1v1H10zM11 9h1v1H11zM12 9h1v1H12zM13 9h1v1H13zM14 9h1v1H14zM15 9h1v1H15zM16 9h1v1H16zM17 9h1v1H17zM18 9h1v1H18zM19 9h1v1H19zM20 9h1v1H20zM21 9h1v1H21zM23 9h1v1H23zM24 9h1v1H24zM7 10h1v1H7zM8 10h1v1H8zM10 10h1v1H10zM12 10h1v1H12zM13 10h1v1H13zM18 10h1v1H18zM19 10h1v1H19zM21 10h1v1H21zM23 10h1v1H23zM24 10h1v1H24zM10 11h1v1H10zM14 11h1v1H14zM15 11h1v1H15zM16 11h1v1H16zM17 11h1v1H17zM21 11h1v1H21zM6 12h1v1H6zM8 12h1v1H8zM9 12h1v1H9zM10 12h1v1H10zM11 12h1v1H11zM12 12h1v1H12zM13 12h1v1H13zM14 12h1v1H14zM15 12h1v1H15zM16 12h1v1H16zM17 12h1v1H17zM18 12h1v1H18zM19 12h1v1H19zM20 12h1v1H20zM21 12h1v1H21zM22 12h1v1H22zM23 12h1v1H23zM25 12h1v1H25zM8 13h1v1H8zM9 13h1v1H9zM12 13h1v1H12zM13 13h1v1H13zM14 13h1v1H14zM15 13h1v1H15zM16 13h1v1H16zM17 13h1v1H17zM18 13h1v1H18zM19 13h1v1H19zM22 13h1v1H22zM23 13h1v1H23zM9 15h1v1H9zM10 15h1v1H10zM12 15h1v1H12zM19 15h1v1H19zM21 15h1v1H21zM22 15h1v1H22zM9 16h1v1H9zM10 16h1v1H10zM21 16h1v1H21zM22 16h1v1H22zM15 17h1v1H15zM16 17h1v1H16zM14 18h1v1H14zM15 18h1v1H15zM16 18h1v1H16zM17 18h1v1H17zM6 19h1v1H6zM7 19h1v1H7zM14 19h1v1H14zM15 19h1v1H15zM16 19h1v1H16zM17 19h1v1H17zM24 19h1v1H24zM25 19h1v1H25zM6 20h1v1H6zM7 20h1v1H7zM14 20h1v1H14zM15 20h1v1H15zM16 20h1v1H16zM17 20h1v1H17zM24 20h1v1H24zM25 20h1v1H25zM11 21h1v1H11zM12 21h1v1H12zM13 21h1v1H13zM14 21h1v1H14zM15 21h1v1H15zM16 21h1v1H16zM17 21h1v1H17zM18 21h1v1H18zM19 21h1v1H19zM20 21h1v1H20zM5 22h1v1H5zM13 22h1v1H13zM14 22h1v1H14zM15 22h1v1H15zM16 22h1v1H16zM17 22h1v1H17zM18 22h1v1H18zM26 22h1v1H26zM10 23h1v1H10zM11 23h1v1H11zM20 23h1v1H20zM21 23h1v1H21zM10 24h1v1H10zM11 24h1v1H11zM20 24h1v1H20zM21 24h1v1H21zM9 26h1v1H9zM22 26h1v1H22z"/><path fill="#0095e9" d="M9 10h1v1H9zM22 10h1v1H22zM8 11h1v1H8zM9 11h1v1H9zM11 11h1v1H11zM20 11h1v1H20zM22 11h1v1H22zM23 11h1v1H23zM10 13h1v1H10zM21 13h1v1H21zM5 28h1v1H5zM6 28h1v1H6zM22 28h1v1H22zM23 28h1v1H23zM5 29h1v1H5zM6 29h1v1H6zM22 29h1v1H22zM23 29h1v1H23z"/><path fill="#01274c" d="M6 13h1v1H6zM25 13h1v1H25z"/><path fill="#053768" d="M6 14h1v1H6zM7 14h1v1H7zM24 14h1v1H24zM25 14h1v1H25zM6 15h1v1H6zM25 15h1v1H25z"/><path fill="#124e89" d="M8 14h1v1H8zM9 14h1v1H9zM10 14h1v1H10zM11 14h1v1H11zM12 14h1v1H12zM13 14h1v1H13zM14 14h1v1H14zM15 14h1v1H15zM16 14h1v1H16zM17 14h1v1H17zM18 14h1v1H18zM19 14h1v1H19zM20 14h1v1H20zM21 14h1v1H21zM22 14h1v1H22zM23 14h1v1H23zM7 15h1v1H7zM8 15h1v1H8zM11 15h1v1H11zM15 15h1v1H15zM16 15h1v1H16zM20 15h1v1H20zM23 15h1v1H23zM24 15h1v1H24zM7 16h1v1H7zM24 16h1v1H24zM7 17h1v1H7zM14 17h1v1H14zM17 17h1v1H17zM24 17h1v1H24zM10 18h1v1H10zM21 18h1v1H21zM10 19h1v1H10zM21 19h1v1H21zM8 20h1v1H8zM9 20h1v1H9zM10 20h1v1H10zM21 20h1v1H21zM22 20h1v1H22zM23 20h1v1H23zM8 21h1v1H8zM9 21h1v1H9zM22 21h1v1H22zM23 21h1v1H23zM6 22h1v1H6zM7 22h1v1H7zM22 22h1v1H22zM25 22h1v1H25zM6 23h1v1H6zM7 23h1v1H7zM22 23h1v1H22zM25 23h1v1H25zM7 24h1v1H7zM8 24h1v1H8zM9 24h1v1H9zM14 24h1v1H14zM15 24h1v1H15zM16 24h1v1H16zM17 24h1v1H17zM18 24h1v1H18zM19 24h1v1H19zM22 24h1v1H22zM23 24h1v1H23zM24 24h1v1H24zM11 25h1v1H11zM12 25h1v1H12zM13 25h1v1H13zM14 25h1v1H14zM15 25h1v1H15zM16 25h1v1H16zM17 25h1v1H17zM18 25h1v1H18zM19 25h1v1H19zM20 25h1v1H20zM6 26h1v1H6zM7 26h1v1H7zM8 26h1v1H8zM11 26h1v1H11zM15 26h1v1H15zM16 26h1v1H16zM17 26h1v1H17zM20 26h1v1H20zM24 26h1v1H24zM25 26h1v1H25zM26 26h1v1H26zM6 27h1v1H6zM7 27h1v1H7zM8 27h1v1H8zM24 27h1v1H24zM25 27h1v1H25zM26 27h1v1H26zM7 28h1v1H7zM8 28h1v1H8zM24 28h1v1H24zM25 28h1v1H25zM26 28h1v1H26zM7 30h1v1H7zM24 30h1v1H24z"/><path fill="#ffffff" d="M12 17h1v1H12zM18 17h1v1H18zM11 18h1v1H11zM13 18h1v1H13zM19 18h1v1H19zM20 18h1v1H20zM11 19h1v1H11zM20 19h1v1H20zM11 20h1v1H11zM20 20h1v1H20z"/><path fill="#0e0e14" d="M13 17h1v1H13zM19 17h1v1H19zM12 18h1v1H12zM18 18h1v1H18zM12 19h1v1H12zM13 19h1v1H13zM18 19h1v1H18zM19 19h1v1H19zM12 20h1v1H12zM13 20h1v1H13zM18 20h1v1H18zM19 20h1v1H19z"/></svg>
