<svg xmlns="http://www.w3.org/2000/svg" viewBox="0 0 32 32" shape-rendering="crispEdges"><path fill="#212033" d="M15 1h1v1H15zM16 1h1v1H16zM16 2h1v1H16zM17 2h1v1H17zM17 3h1v1H17zM7 9h1v1H7zM24 9h1v1H24zM6 10h1v1H6zM7 10h1v1H7zM24 10h1v1H24zM25 10h1v1H25zM7 11h1v1H7zM24 11h1v1H24zM7 12h1v1H7zM24 12h1v1H24zM9 24h1v1H9zM13 25h1v1H13z"/><path fill="#0c0c17" d="M20 1h1v1H20zM21 1h1v1H21zM7 2h1v1H7zM8 2h1v1H8zM20 2h1v1H20zM21 2h1v1H21zM7 3h1v1H7zM8 3h1v1H8zM11 4h1v1H11zM24 4h1v1H24zM4 5h1v1H4zM16 5h1v1H16zM27 5h1v1H27zM3 6h1v1H3zM12 6h1v1H12zM16 6h1v1H16zM28 6h1v1H28zM2 7h1v1H2zM3 7h1v1H3zM12 7h1v1H12zM17 7h1v1H17zM28 7h1v1H28zM29 7h1v1H29zM2 8h1v1H2zM11 8h1v1H11zM12 8h1v1H12zM13 8h1v1H13zM15 8h1v1H15zM17 8h1v1H17zM18 8h1v1H18zM19 8h1v1H19zM20 8h1v1H20zM29 8h1v1H29zM12 9h1v1H12zM14 9h1v1H14zM15 9h1v1H15zM16 9h1v1H16zM17 9h1v1H17zM19 9h1v1H19zM7 14h1v1H7zM24 14h1v1H24zM4 15h1v1H4zM7 15h1v1H7zM24 15h1v1H24zM27 15h1v1H27zM3 16h1v1H3zM7 16h1v1H7zM24 16h1v1H24zM28 16h1v1H28zM3 17h1v1H3zM7 17h1v1H7zM24 17h1v1H24zM28 17h1v1H28zM2 18h1v1H2zM7 18h1v1H7zM24 18h1v1H24zM29 18h1v1H29zM7 19h1v1H7zM24 19h1v1H24zM7 20h1v1H7zM24 20h1v1H24zM7 21h1v1H7zM8 21h1v1H8zM23 21h1v1H23zM24 21h1v1H24zM7 22h1v1H7zM8 22h1v1H8zM9 22h1v1H9zM22 22h1v1H22zM23 22h1v1H23zM24 22h1v1H24zM8 23h1v1H8zM9 23h1v1H9zM10 23h1v1H10zM21 23h1v1H21zM22 23h1v1H22zM23 23h1v1H23zM8 24h1v1H8zM23 24h1v1H23zM1 25h1v1H1zM3 25h1v1H3zM8 25h1v1H8zM23 25h1v1H23zM28 25h1v1H28zM30 25h1v1H30zM2 26h1v1H2zM29 26h1v1H29zM8 27h1v1H8zM23 27h1v1H23z"/><path fill="#736d91" d="M15 3h1v1H15zM14 4h1v1H14zM15 4h1v1H15zM16 4h1v1H16zM13 5h1v1H13zM14 5h1v1H14zM15 5h1v1H15zM2 6h1v1H2zM13 6h1v1H13zM14 6h1v1H14zM29 6h1v1H29zM7 7h1v1H7zM8 7h1v1H8zM14 7h1v1H14zM23 7h1v1H23zM24 7h1v1H24zM7 8h1v1H7zM10 8h1v1H10zM21 8h1v1H21zM24 8h1v1H24zM15 14h1v1H15zM16 14h1v1H16zM2 16h1v1H2zM29 16h1v1H29zM2 17h1v1H2zM29 17h1v1H29zM3 18h1v1H3zM10 18h1v1H10zM21 18h1v1H21zM28 18h1v1H28zM6 23h1v1H6zM25 23h1v1H25zM7 24h1v1H7zM24 24h1v1H24zM7 25h1v1H7zM24 25h1v1H24zM15 29h1v1H15z"/><path fill="#b1acc3" d="M16 3h1v1H16zM3 4h1v1H3zM4 4h1v1H4zM27 4h1v1H27zM28 4h1v1H28zM2 5h1v1H2zM3 5h1v1H3zM28 5h1v1H28zM29 5h1v1H29zM9 7h1v1H9zM10 7h1v1H10zM21 7h1v1H21zM22 7h1v1H22zM8 8h1v1H8zM9 8h1v1H9zM22 8h1v1H22zM23 8h1v1H23zM10 9h1v1H10zM11 9h1v1H11zM20 9h1v1H20zM21 9h1v1H21zM10 10h1v1H10zM11 10h1v1H11zM14 10h1v1H14zM17 10h1v1H17zM20 10h1v1H20zM21 10h1v1H21zM15 11h1v1H15zM16 11h1v1H16zM15 12h1v1H15zM16 12h1v1H16zM3 14h1v1H3zM4 14h1v1H4zM27 14h1v1H27zM28 14h1v1H28zM2 15h1v1H2zM3 15h1v1H3zM28 15h1v1H28zM29 15h1v1H29z"/><path fill="#3f3b57" d="M7 6h1v1H7zM24 6h1v1H24zM6 7h1v1H6zM25 7h1v1H25zM8 9h1v1H8zM13 9h1v1H13zM18 9h1v1H18zM23 9h1v1H23zM8 11h1v1H8zM23 11h1v1H23zM14 12h1v1H14zM17 12h1v1H17zM6 13h1v1H6zM25 13h1v1H25zM6 14h1v1H6zM25 14h1v1H25zM6 15h1v1H6zM25 15h1v1H25zM6 16h1v1H6zM25 16h1v1H25zM6 17h1v1H6zM25 17h1v1H25zM6 18h1v1H6zM25 18h1v1H25zM6 19h1v1H6zM25 19h1v1H25zM6 20h1v1H6zM25 20h1v1H25zM6 21h1v1H6zM25 21h1v1H25zM9 25h1v1H9zM21 25h1v1H21z"/><path fill="#4d4966" d="M8 6h1v1H8zM9 6h1v1H9zM10 6h1v1H10zM11 6h1v1H11zM17 6h1v1H17zM18 6h1v1H18zM19 6h1v1H19zM20 6h1v1H20zM21 6h1v1H21zM22 6h1v1H22zM23 6h1v1H23zM6 8h1v1H6zM25 8h1v1H25zM6 9h1v1H6zM25 9h1v1H25zM12 10h1v1H12zM15 10h1v1H15zM16 10h1v1H16zM19 10h1v1H19zM2 23h1v1H2zM29 23h1v1H29zM2 24h1v1H2zM29 24h1v1H29zM2 25h1v1H2zM29 25h1v1H29z"/><path fill="#19182a" d="M15 6h1v1H15zM13 7h1v1H13zM15 7h1v1H15zM16 7h1v1H16zM14 8h1v1H14zM16 8h1v1H16zM10 11h1v1H10zM21 11h1v1H21zM8 12h1v1H8zM11 12h1v1H11zM12 12h1v1H12zM13 12h1v1H13zM18 12h1v1H18zM19 12h1v1H19zM20 12h1v1H20zM23 12h1v1H23zM8 13h1v1H8zM14 13h1v1H14zM15 13h1v1H15zM16 13h1v1H16zM17 13h1v1H17zM23 13h1v1H23zM10 15h1v1H10zM14 15h1v1H14zM17 15h1v1H17zM21 15h1v1H21zM10 20h1v1H10zM21 20h1v1H21zM10 24h1v1H10zM11 24h1v1H11zM12 24h1v1H12zM13 24h1v1H13zM14 24h1v1H14zM15 24h1v1H15zM16 24h1v1H16zM17 24h1v1H17zM18 24h1v1H18zM19 24h1v1H19zM20 24h1v1H20zM21 24h1v1H21zM22 24h1v1H22zM10 25h1v1H10zM12 25h1v1H12zM18 25h1v1H18zM19 25h1v1H19zM20 25h1v1H20zM22 25h1v1H22zM10 26h1v1H10zM12 26h1v1H12zM20 26h1v1H20zM22 26h1v1H22zM10 27h1v1H10zM20 27h1v1H20z"/><path fill="#5f5a7b" d="M11 7h1v1H11zM18 7h1v1H18zM19 7h1v1H19zM20 7h1v1H20zM13 10h1v1H13zM18 10h1v1H18zM14 11h1v1H14zM17 11h1v1H17zM6 24h1v1H6zM25 24h1v1H25z"/><path fill="#121220" d="M3 8h1v1H3zM4 8h1v1H4zM27 8h1v1H27zM28 8h1v1H28zM2 9h1v1H2zM3 9h1v1H3zM4 9h1v1H4zM5 9h1v1H5zM26 9h1v1H26zM27 9h1v1H27zM28 9h1v1H28zM29 9h1v1H29zM3 10h1v1H3zM4 10h1v1H4zM5 10h1v1H5zM26 10h1v1H26zM27 10h1v1H27zM28 10h1v1H28zM3 11h1v1H3zM4 11h1v1H4zM5 11h1v1H5zM26 11h1v1H26zM27 11h1v1H27zM28 11h1v1H28zM4 12h1v1H4zM5 12h1v1H5zM26 12h1v1H26zM27 12h1v1H27zM5 13h1v1H5zM26 13h1v1H26zM4 18h1v1H4zM27 18h1v1H27zM2 19h1v1H2zM3 19h1v1H3zM4 19h1v1H4zM5 19h1v1H5zM26 19h1v1H26zM27 19h1v1H27zM28 19h1v1H28zM29 19h1v1H29zM3 20h1v1H3zM4 20h1v1H4zM5 20h1v1H5zM26 20h1v1H26zM27 20h1v1H27zM28 20h1v1H28zM3 21h1v1H3zM4 21h1v1H4zM5 21h1v1H5zM26 21h1v1H26zM27 21h1v1H27zM28 21h1v1H28zM4 22h1v1H4zM5 22h1v1H5zM26 22h1v1H26zM27 22h1v1H27zM5 23h1v1H5zM26 23h1v1H26zM14 25h1v1H14zM1 26h1v1H1zM3 26h1v1H3zM28 26h1v1H28zM30 26h1v1H30zM2 27h1v1H2zM29 27h1v1H29z"/><path fill="#35324d" d="M9 9h1v1H9zM22 9h1v1H22zM6 11h1v1H6zM9 11h1v1H9zM12 11h1v1H12zM19 11h1v1H19zM22 11h1v1H22zM25 11h1v1H25zM6 12h1v1H6zM9 12h1v1H9zM10 12h1v1H10zM21 12h1v1H21zM22 12h1v1H22zM25 12h1v1H25zM9 13h1v1H9zM10 13h1v1H10zM11 13h1v1H11zM20 13h1v1H20zM21 13h1v1H21zM22 13h1v1H22zM10 14h1v1H10zM11 14h1v1H11zM20 14h1v1H20zM21 14h1v1H21zM10 19h1v1H10zM21 19h1v1H21zM13 21h1v1H13zM18 21h1v1H18z"/><path fill="#2a293e" d="M8 10h1v1H8zM9 10h1v1H9zM22 10h1v1H22zM23 10h1v1H23zM11 11h1v1H11zM13 11h1v1H13zM18 11h1v1H18zM20 11h1v1H20zM12 14h1v1H12zM19 14h1v1H19zM11 15h1v1H11zM12 15h1v1H12zM13 15h1v1H13zM18 15h1v1H18zM19 15h1v1H19zM20 15h1v1H20zM6 22h1v1H6zM25 22h1v1H25zM15 25h1v1H15zM16 25h1v1H16zM17 25h1v1H17zM14 26h1v1H14zM15 26h1v1H15zM16 26h1v1H16zM15 27h1v1H15zM15 28h1v1H15z"/><path fill="#151424" d="M7 13h1v1H7zM24 13h1v1H24zM11 25h1v1H11zM14 27h1v1H14zM16 27h1v1H16z"/><path fill="#000000" d="M12 13h1v1H12zM13 13h1v1H13zM18 13h1v1H18zM19 13h1v1H19zM8 14h1v1H8zM9 14h1v1H9zM13 14h1v1H13zM14 14h1v1H14zM17 14h1v1H17zM18 14h1v1H18zM22 14h1v1H22zM23 14h1v1H23zM8 15h1v1H8zM9 15h1v1H9zM15 15h1v1H15zM16 15h1v1H16zM22 15h1v1H22zM23 15h1v1H23zM8 16h1v1H8zM9 16h1v1H9zM10 16h1v1H10zM11 16h1v1H11zM12 16h1v1H12zM13 16h1v1H13zM14 16h1v1H14zM15 16h1v1H15zM16 16h1v1H16zM17 16h1v1H17zM18 16h1v1H18zM19 16h1v1H19zM20 16h1v1H20zM21 16h1v1H21zM22 16h1v1H22zM23 16h1v1H23zM8 17h1v1H8zM9 17h1v1H9zM10 17h1v1H10zM13 17h1v1H13zM14 17h1v1H14zM15 17h1v1H15zM16 17h1v1H16zM17 17h1v1H17zM18 17h1v1H18zM21 17h1v1H21zM22 17h1v1H22zM23 17h1v1H23zM8 18h1v1H8zM9 18h1v1H9zM14 18h1v1H14zM15 18h1v1H15zM16 18h1v1H16zM17 18h1v1H17zM22 18h1v1H22zM23 18h1v1H23zM8 19h1v1H8zM9 19h1v1H9zM13 19h1v1H13zM14 19h1v1H14zM15 19h1v1H15zM16 19h1v1H16zM17 19h1v1H17zM18 19h1v1H18zM22 19h1v1H22zM23 19h1v1H23zM8 20h1v1H8zM9 20h1v1H9zM13 20h1v1H13zM14 20h1v1H14zM15 20h1v1H15zM16 20h1v1H16zM17 20h1v1H17zM18 20h1v1H18zM22 20h1v1H22zM23 20h1v1H23zM9 21h1v1H9zM10 21h1v1H10zM14 21h1v1H14zM15 21h1v1H15zM16 21h1v1H16zM17 21h1v1H17zM21 21h1v1H21zM22 21h1v1H22zM10 22h1v1H10zM11 22h1v1H11zM14 22h1v1H14zM15 22h1v1H15zM16 22h1v1H16zM17 22h1v1H17zM20 22h1v1H20zM21 22h1v1H21zM11 23h1v1H11zM12 23h1v1H12zM13 23h1v1H13zM14 23h1v1H14zM15 23h1v1H15zM16 23h1v1H16zM17 23h1v1H17zM18 23h1v1H18zM19 23h1v1H19zM20 23h1v1H20z"/><path fill="#ffffff" d="M11 17h1v1H11zM12 17h1v1H12zM19 17h1v1H19zM20 17h1v1H20zM11 18h1v1H11zM12 18h1v1H12zM13 18h1v1H13zM18 18h1v1H18zM19 18h1v1H19zM20 18h1v1H20zM11 19h1v1H11zM12 19h1v1H12zM19 19h1v1H19zM20 19h1v1H20zM11 20h1v1H11zM12 20h1v1H12zM19 20h1v1H19zM20 20h1v1H20zM11 21h1v1H11zM12 21h1v1H12zM19 21h1v1H19zM20 21h1v1H20zM12 22h1v1H12zM13 22h1v1H13zM18 22h1v1H18zM19 22h1v1H19z"/><path fill="#1d1c2d" d="M7 23h1v1H7zM24 23h1v1H24z"/></svg>
