<svg xmlns="http://www.w3.org/2000/svg" viewBox="0 0 32 32" shape-rendering="crispEdges"><path fill="#dedede" d="M15 1h1v1H15zM14 2h1v1H14zM14 3h1v1H14zM13 4h1v1H13zM13 5h1v1H13zM14 8h1v1H14zM17 8h1v1H17zM13 9h1v1H13zM18 9h1v1H18zM15 10h1v1H15zM16 10h1v1H16zM15 11h1v1H15zM16 11h1v1H16zM10 18h1v1H10zM21 18h1v1H21zM15 23h1v1H15zM16 23h1v1H16zM14 24h1v1H14zM16 24h1v1H16zM17 24h1v1H17zM14 25h1v1H14zM15 25h1v1H15zM17 25h1v1H17z"/><path fill="#37373f" d="M16 1h1v1H16zM8 8h1v1H8zM9 8h1v1H9zM22 8h1v1H22zM23 8h1v1H23zM8 9h1v1H8zM9 9h1v1H9zM10 9h1v1H10zM21 9h1v1H21zM22 9h1v1H22zM23 9h1v1H23zM10 10h1v1H10zM11 10h1v1H11zM12 10h1v1H12zM14 10h1v1H14zM17 10h1v1H17zM19 10h1v1H19zM20 10h1v1H20zM21 10h1v1H21zM7 11h1v1H7zM24 11h1v1H24zM8 12h1v1H8zM23 12h1v1H23zM13 24h1v1H13zM18 24h1v1H18zM5 25h1v1H5zM9 25h1v1H9zM10 25h1v1H10zM13 25h1v1H13zM18 25h1v1H18zM21 25h1v1H21zM22 25h1v1H22zM26 25h1v1H26zM5 26h1v1H5zM6 26h1v1H6zM14 26h1v1H14zM17 26h1v1H17zM25 26h1v1H25zM26 26h1v1H26zM5 27h1v1H5zM10 27h1v1H10zM15 27h1v1H15zM16 27h1v1H16zM21 27h1v1H21zM26 27h1v1H26zM8 28h1v1H8zM9 28h1v1H9zM22 28h1v1H22zM23 28h1v1H23z"/><path fill="#313138" d="M15 2h1v1H15zM15 3h1v1H15zM10 4h1v1H10zM11 4h1v1H11zM20 4h1v1H20zM21 4h1v1H21zM10 5h1v1H10zM21 5h1v1H21zM15 6h1v1H15zM15 9h1v1H15zM16 9h1v1H16zM8 11h1v1H8zM23 11h1v1H23zM9 12h1v1H9zM22 12h1v1H22zM12 13h1v1H12zM19 13h1v1H19zM3 14h1v1H3zM12 14h1v1H12zM19 14h1v1H19zM28 14h1v1H28zM4 15h1v1H4zM5 15h1v1H5zM26 15h1v1H26zM27 15h1v1H27zM5 17h1v1H5zM26 17h1v1H26zM2 18h1v1H2zM5 18h1v1H5zM26 18h1v1H26zM29 18h1v1H29zM2 19h1v1H2zM3 19h1v1H3zM28 19h1v1H28zM29 19h1v1H29zM4 20h1v1H4zM5 20h1v1H5zM26 20h1v1H26zM27 20h1v1H27zM2 22h1v1H2zM29 22h1v1H29zM1 24h1v1H1zM3 24h1v1H3zM10 24h1v1H10zM21 24h1v1H21zM30 24h1v1H30zM16 25h1v1H16zM6 28h1v1H6zM25 28h1v1H25z"/><path fill="#1d1e24" d="M16 2h1v1H16zM16 3h1v1H16zM16 4h1v1H16zM17 4h1v1H17zM8 5h1v1H8zM9 5h1v1H9zM11 5h1v1H11zM12 5h1v1H12zM17 5h1v1H17zM19 5h1v1H19zM20 5h1v1H20zM22 5h1v1H22zM23 5h1v1H23zM7 6h1v1H7zM8 6h1v1H8zM10 6h1v1H10zM16 6h1v1H16zM21 6h1v1H21zM23 6h1v1H23zM24 6h1v1H24zM11 7h1v1H11zM13 7h1v1H13zM18 7h1v1H18zM20 7h1v1H20zM7 8h1v1H7zM11 8h1v1H11zM12 8h1v1H12zM13 8h1v1H13zM18 8h1v1H18zM19 8h1v1H19zM20 8h1v1H20zM24 8h1v1H24zM7 9h1v1H7zM12 9h1v1H12zM19 9h1v1H19zM24 9h1v1H24zM7 10h1v1H7zM24 10h1v1H24zM5 12h1v1H5zM14 12h1v1H14zM17 12h1v1H17zM26 12h1v1H26zM14 13h1v1H14zM15 13h1v1H15zM16 13h1v1H16zM17 13h1v1H17zM8 14h1v1H8zM15 14h1v1H15zM16 14h1v1H16zM23 14h1v1H23zM4 16h1v1H4zM5 16h1v1H5zM15 16h1v1H15zM16 16h1v1H16zM26 16h1v1H26zM27 16h1v1H27zM4 19h1v1H4zM5 19h1v1H5zM26 19h1v1H26zM27 19h1v1H27zM10 20h1v1H10zM21 20h1v1H21zM5 21h1v1H5zM26 21h1v1H26zM5 22h1v1H5zM26 22h1v1H26zM5 24h1v1H5zM7 24h1v1H7zM24 24h1v1H24zM26 24h1v1H26zM3 25h1v1H3zM7 25h1v1H7zM24 25h1v1H24zM28 25h1v1H28zM7 27h1v1H7zM8 27h1v1H8zM9 27h1v1H9zM13 27h1v1H13zM18 27h1v1H18zM22 27h1v1H22zM23 27h1v1H23zM24 27h1v1H24zM15 29h1v1H15zM16 29h1v1H16z"/><path fill="#8c8c93" d="M17 2h1v1H17zM17 3h1v1H17zM18 4h1v1H18zM18 5h1v1H18zM15 7h1v1H15zM16 7h1v1H16zM5 9h1v1H5zM6 9h1v1H6zM25 9h1v1H25zM26 9h1v1H26zM5 10h1v1H5zM6 10h1v1H6zM25 10h1v1H25zM26 10h1v1H26zM2 11h1v1H2zM3 11h1v1H3zM5 11h1v1H5zM26 11h1v1H26zM28 11h1v1H28zM29 11h1v1H29zM2 12h1v1H2zM3 12h1v1H3zM28 12h1v1H28zM29 12h1v1H29zM1 21h1v1H1zM30 21h1v1H30zM1 22h1v1H1zM30 22h1v1H30z"/><path fill="#3d3e45" d="M9 4h1v1H9zM14 4h1v1H14zM15 4h1v1H15zM22 4h1v1H22zM14 5h1v1H14zM15 5h1v1H15zM16 5h1v1H16zM7 7h1v1H7zM24 7h1v1H24zM4 11h1v1H4zM27 11h1v1H27zM15 12h1v1H15zM16 12h1v1H16zM1 13h1v1H1zM2 13h1v1H2zM4 13h1v1H4zM5 13h1v1H5zM6 13h1v1H6zM11 13h1v1H11zM20 13h1v1H20zM25 13h1v1H25zM26 13h1v1H26zM27 13h1v1H27zM29 13h1v1H29zM30 13h1v1H30zM1 14h1v1H1zM30 14h1v1H30zM7 15h1v1H7zM24 15h1v1H24zM7 16h1v1H7zM24 16h1v1H24zM7 17h1v1H7zM24 17h1v1H24zM7 18h1v1H7zM24 18h1v1H24zM7 19h1v1H7zM10 19h1v1H10zM21 19h1v1H21zM24 19h1v1H24zM1 20h1v1H1zM7 20h1v1H7zM24 20h1v1H24zM30 20h1v1H30zM2 21h1v1H2zM3 21h1v1H3zM4 21h1v1H4zM13 21h1v1H13zM18 21h1v1H18zM27 21h1v1H27zM28 21h1v1H28zM29 21h1v1H29zM3 22h1v1H3zM4 22h1v1H4zM27 22h1v1H27zM28 22h1v1H28zM1 23h1v1H1zM3 23h1v1H3zM4 23h1v1H4zM5 23h1v1H5zM7 23h1v1H7zM8 23h1v1H8zM23 23h1v1H23zM24 23h1v1H24zM26 23h1v1H26zM27 23h1v1H27zM28 23h1v1H28zM30 23h1v1H30zM2 24h1v1H2zM4 24h1v1H4zM8 24h1v1H8zM15 24h1v1H15zM23 24h1v1H23zM27 24h1v1H27zM29 24h1v1H29zM11 25h1v1H11zM20 25h1v1H20zM6 27h1v1H6zM25 27h1v1H25z"/><path fill="#0d0d10" d="M9 6h1v1H9zM14 6h1v1H14zM17 6h1v1H17zM22 6h1v1H22zM14 7h1v1H14zM17 7h1v1H17zM6 8h1v1H6zM15 8h1v1H15zM16 8h1v1H16zM25 8h1v1H25zM8 10h1v1H8zM9 10h1v1H9zM22 10h1v1H22zM23 10h1v1H23zM6 11h1v1H6zM9 11h1v1H9zM10 11h1v1H10zM11 11h1v1H11zM12 11h1v1H12zM19 11h1v1H19zM20 11h1v1H20zM21 11h1v1H21zM22 11h1v1H22zM25 11h1v1H25zM6 12h1v1H6zM7 12h1v1H7zM10 12h1v1H10zM11 12h1v1H11zM12 12h1v1H12zM19 12h1v1H19zM20 12h1v1H20zM21 12h1v1H21zM24 12h1v1H24zM25 12h1v1H25zM7 13h1v1H7zM8 13h1v1H8zM23 13h1v1H23zM24 13h1v1H24zM7 14h1v1H7zM24 14h1v1H24zM6 15h1v1H6zM25 15h1v1H25zM6 16h1v1H6zM25 16h1v1H25zM6 17h1v1H6zM25 17h1v1H25zM6 18h1v1H6zM25 18h1v1H25zM6 19h1v1H6zM25 19h1v1H25zM6 20h1v1H6zM25 20h1v1H25zM6 21h1v1H6zM25 21h1v1H25zM6 22h1v1H6zM25 22h1v1H25zM6 23h1v1H6zM25 23h1v1H25z"/><path fill="#ffffff" d="M11 6h1v1H11zM20 6h1v1H20zM9 7h1v1H9zM12 7h1v1H12zM19 7h1v1H19zM22 7h1v1H22zM10 8h1v1H10zM21 8h1v1H21zM4 12h1v1H4zM27 12h1v1H27zM3 13h1v1H3zM28 13h1v1H28zM2 14h1v1H2zM4 14h1v1H4zM27 14h1v1H27zM29 14h1v1H29zM3 15h1v1H3zM28 15h1v1H28zM11 17h1v1H11zM12 17h1v1H12zM19 17h1v1H19zM20 17h1v1H20zM11 18h1v1H11zM12 18h1v1H12zM13 18h1v1H13zM18 18h1v1H18zM19 18h1v1H19zM20 18h1v1H20zM11 19h1v1H11zM12 19h1v1H12zM19 19h1v1H19zM20 19h1v1H20zM11 20h1v1H11zM12 20h1v1H12zM19 20h1v1H19zM20 20h1v1H20zM11 21h1v1H11zM12 21h1v1H12zM19 21h1v1H19zM20 21h1v1H20zM12 22h1v1H12zM13 22h1v1H13zM18 22h1v1H18zM19 22h1v1H19zM2 25h1v1H2zM4 25h1v1H4zM6 25h1v1H6zM12 25h1v1H12zM19 25h1v1H19zM25 25h1v1H25zM27 25h1v1H27zM29 25h1v1H29zM7 26h1v1H7zM8 26h1v1H8zM11 26h1v1H11zM20 26h1v1H20zM23 26h1v1H23zM24 26h1v1H24zM15 28h1v1H15zM16 28h1v1H16z"/><path fill="#26242a" d="M12 6h1v1H12zM13 6h1v1H13zM18 6h1v1H18zM19 6h1v1H19zM10 7h1v1H10zM21 7h1v1H21zM14 11h1v1H14zM17 11h1v1H17zM14 14h1v1H14zM17 14h1v1H17zM15 15h1v1H15zM16 15h1v1H16zM2 23h1v1H2zM29 23h1v1H29zM6 24h1v1H6zM25 24h1v1H25zM8 25h1v1H8zM23 25h1v1H23zM7 28h1v1H7zM24 28h1v1H24z"/><path fill="#5c5c65" d="M6 7h1v1H6zM8 7h1v1H8zM23 7h1v1H23zM25 7h1v1H25zM14 9h1v1H14zM17 9h1v1H17zM13 10h1v1H13zM18 10h1v1H18zM13 11h1v1H13zM18 11h1v1H18zM13 12h1v1H13zM18 12h1v1H18zM9 13h1v1H9zM10 13h1v1H10zM13 13h1v1H13zM18 13h1v1H18zM21 13h1v1H21zM22 13h1v1H22zM13 14h1v1H13zM18 14h1v1H18zM14 15h1v1H14zM17 15h1v1H17zM3 17h1v1H3zM4 17h1v1H4zM27 17h1v1H27zM28 17h1v1H28zM3 18h1v1H3zM4 18h1v1H4zM27 18h1v1H27zM28 18h1v1H28zM2 20h1v1H2zM3 20h1v1H3zM28 20h1v1H28zM29 20h1v1H29zM7 21h1v1H7zM24 21h1v1H24zM7 22h1v1H7zM15 22h1v1H15zM16 22h1v1H16zM24 22h1v1H24zM14 23h1v1H14zM17 23h1v1H17zM9 24h1v1H9zM11 24h1v1H11zM12 24h1v1H12zM19 24h1v1H19zM20 24h1v1H20zM22 24h1v1H22zM15 26h1v1H15zM16 26h1v1H16z"/><path fill="#949494" d="M11 9h1v1H11zM20 9h1v1H20zM5 14h1v1H5zM26 14h1v1H26zM3 16h1v1H3zM28 16h1v1H28zM28 24h1v1H28zM9 26h1v1H9zM10 26h1v1H10zM13 26h1v1H13zM18 26h1v1H18zM21 26h1v1H21zM22 26h1v1H22zM14 27h1v1H14zM17 27h1v1H17z"/><path fill="#868686" d="M6 14h1v1H6zM25 14h1v1H25zM2 15h1v1H2zM29 15h1v1H29z"/><path fill="#000000" d="M9 14h1v1H9zM10 14h1v1H10zM11 14h1v1H11zM20 14h1v1H20zM21 14h1v1H21zM22 14h1v1H22zM8 15h1v1H8zM9 15h1v1H9zM10 15h1v1H10zM11 15h1v1H11zM12 15h1v1H12zM13 15h1v1H13zM18 15h1v1H18zM19 15h1v1H19zM20 15h1v1H20zM21 15h1v1H21zM22 15h1v1H22zM23 15h1v1H23zM8 16h1v1H8zM9 16h1v1H9zM10 16h1v1H10zM11 16h1v1H11zM12 16h1v1H12zM13 16h1v1H13zM14 16h1v1H14zM17 16h1v1H17zM18 16h1v1H18zM19 16h1v1H19zM20 16h1v1H20zM21 16h1v1H21zM22 16h1v1H22zM23 16h1v1H23zM8 17h1v1H8zM9 17h1v1H9zM10 17h1v1H10zM13 17h1v1H13zM14 17h1v1H14zM15 17h1v1H15zM16 17h1v1H16zM17 17h1v1H17zM18 17h1v1H18zM21 17h1v1H21zM22 17h1v1H22zM23 17h1v1H23zM8 18h1v1H8zM9 18h1v1H9zM14 18h1v1H14zM15 18h1v1H15zM16 18h1v1H16zM17 18h1v1H17zM22 18h1v1H22zM23 18h1v1H23zM8 19h1v1H8zM9 19h1v1H9zM13 19h1v1H13zM14 19h1v1H14zM15 19h1v1H15zM16 19h1v1H16zM17 19h1v1H17zM18 19h1v1H18zM22 19h1v1H22zM23 19h1v1H23zM8 20h1v1H8zM9 20h1v1H9zM13 20h1v1H13zM14 20h1v1H14zM15 20h1v1H15zM16 20h1v1H16zM17 20h1v1H17zM18 20h1v1H18zM22 20h1v1H22zM23 20h1v1H23zM8 21h1v1H8zM9 21h1v1H9zM10 21h1v1H10zM14 21h1v1H14zM15 21h1v1H15zM16 21h1v1H16zM17 21h1v1H17zM21 21h1v1H21zM22 21h1v1H22zM23 21h1v1H23zM8 22h1v1H8zM9 22h1v1H9zM10 22h1v1H10zM11 22h1v1H11zM14 22h1v1H14zM17 22h1v1H17zM20 22h1v1H20zM21 22h1v1H21zM22 22h1v1H22zM23 22h1v1H23zM9 23h1v1H9zM10 23h1v1H10zM11 23h1v1H11zM12 23h1v1H12zM13 23h1v1H13zM18 23h1v1H18zM19 23h1v1H19zM20 23h1v1H20zM21 23h1v1H21zM22 23h1v1H22z"/></svg>
