<svg xmlns="http://www.w3.org/2000/svg" viewBox="0 0 32 32" shape-rendering="crispEdges"><path fill="#ececec" d="M15 2h1v1H15zM16 2h1v1H16zM15 3h1v1H15zM16 3h1v1H16zM10 18h1v1H10zM21 18h1v1H21zM12 25h1v1H12zM19 25h1v1H19z"/><path fill="#747474" d="M14 3h1v1H14zM17 3h1v1H17zM15 4h1v1H15zM16 4h1v1H16zM13 5h1v1H13zM18 5h1v1H18zM7 11h1v1H7zM14 11h1v1H14zM17 11h1v1H17zM24 11h1v1H24zM8 12h1v1H8zM9 12h1v1H9zM10 12h1v1H10zM12 12h1v1H12zM13 12h1v1H13zM14 12h1v1H14zM17 12h1v1H17zM18 12h1v1H18zM19 12h1v1H19zM21 12h1v1H21zM22 12h1v1H22zM23 12h1v1H23zM7 13h1v1H7zM24 13h1v1H24zM11 25h1v1H11zM13 25h1v1H13zM18 25h1v1H18zM20 25h1v1H20zM12 26h1v1H12zM19 26h1v1H19zM12 27h1v1H12zM19 27h1v1H19zM12 28h1v1H12z"/><path fill="#1f1f1f" d="M4 4h1v1H4zM5 4h1v1H5zM26 4h1v1H26zM27 4h1v1H27zM4 5h1v1H4zM6 5h1v1H6zM25 5h1v1H25zM27 5h1v1H27zM4 6h1v1H4zM8 6h1v1H8zM14 6h1v1H14zM23 6h1v1H23zM27 6h1v1H27zM9 7h1v1H9zM10 7h1v1H10zM11 7h1v1H11zM12 7h1v1H12zM14 7h1v1H14zM15 7h1v1H15zM19 7h1v1H19zM20 7h1v1H20zM21 7h1v1H21zM22 7h1v1H22zM5 8h1v1H5zM10 8h1v1H10zM14 8h1v1H14zM15 8h1v1H15zM16 8h1v1H16zM17 8h1v1H17zM21 8h1v1H21zM26 8h1v1H26zM15 9h1v1H15zM16 9h1v1H16zM15 10h1v1H15zM16 10h1v1H16zM3 13h1v1H3zM9 13h1v1H9zM10 13h1v1H10zM11 13h1v1H11zM12 13h1v1H12zM19 13h1v1H19zM20 13h1v1H20zM21 13h1v1H21zM22 13h1v1H22zM28 13h1v1H28zM3 14h1v1H3zM4 14h1v1H4zM8 14h1v1H8zM13 14h1v1H13zM14 14h1v1H14zM17 14h1v1H17zM18 14h1v1H18zM23 14h1v1H23zM27 14h1v1H27zM28 14h1v1H28zM5 15h1v1H5zM6 15h1v1H6zM15 15h1v1H15zM16 15h1v1H16zM25 15h1v1H25zM26 15h1v1H26zM2 16h1v1H2zM29 16h1v1H29zM3 17h1v1H3zM28 17h1v1H28zM4 18h1v1H4zM27 18h1v1H27zM2 21h1v1H2zM3 21h1v1H3zM28 21h1v1H28zM29 21h1v1H29zM2 22h1v1H2zM5 22h1v1H5zM26 22h1v1H26zM29 22h1v1H29zM3 24h1v1H3zM28 24h1v1H28zM6 26h1v1H6zM25 26h1v1H25z"/><path fill="#252525" d="M14 4h1v1H14zM17 4h1v1H17zM7 6h1v1H7zM13 6h1v1H13zM18 6h1v1H18zM24 6h1v1H24zM8 7h1v1H8zM17 7h1v1H17zM23 7h1v1H23zM6 8h1v1H6zM9 8h1v1H9zM11 8h1v1H11zM12 8h1v1H12zM19 8h1v1H19zM20 8h1v1H20zM22 8h1v1H22zM25 8h1v1H25zM7 9h1v1H7zM8 9h1v1H8zM10 9h1v1H10zM11 9h1v1H11zM12 9h1v1H12zM13 9h1v1H13zM18 9h1v1H18zM19 9h1v1H19zM20 9h1v1H20zM21 9h1v1H21zM23 9h1v1H23zM24 9h1v1H24zM6 10h1v1H6zM8 10h1v1H8zM9 10h1v1H9zM10 10h1v1H10zM14 10h1v1H14zM17 10h1v1H17zM21 10h1v1H21zM22 10h1v1H22zM23 10h1v1H23zM25 10h1v1H25zM6 11h1v1H6zM25 11h1v1H25zM13 13h1v1H13zM14 13h1v1H14zM15 13h1v1H15zM16 13h1v1H16zM17 13h1v1H17zM18 13h1v1H18zM7 25h1v1H7zM24 25h1v1H24zM8 29h1v1H8zM19 29h1v1H19zM23 29h1v1H23zM12 30h1v1H12z"/><path fill="#585858" d="M5 5h1v1H5zM16 5h1v1H16zM26 5h1v1H26zM6 6h1v1H6zM16 6h1v1H16zM25 6h1v1H25zM7 7h1v1H7zM24 7h1v1H24zM3 11h1v1H3zM28 11h1v1H28zM2 12h1v1H2zM3 12h1v1H3zM11 12h1v1H11zM20 12h1v1H20zM28 12h1v1H28zM29 12h1v1H29zM8 13h1v1H8zM23 13h1v1H23zM2 14h1v1H2zM7 14h1v1H7zM24 14h1v1H24zM29 14h1v1H29zM1 19h1v1H1zM10 19h1v1H10zM21 19h1v1H21zM30 19h1v1H30zM1 20h1v1H1zM2 20h1v1H2zM29 20h1v1H29zM30 20h1v1H30zM1 21h1v1H1zM13 21h1v1H13zM18 21h1v1H18zM30 21h1v1H30zM11 26h1v1H11zM13 26h1v1H13zM18 26h1v1H18zM20 26h1v1H20z"/><path fill="#464646" d="M14 5h1v1H14zM15 5h1v1H15zM17 5h1v1H17zM15 6h1v1H15zM17 6h1v1H17zM16 7h1v1H16zM8 11h1v1H8zM9 11h1v1H9zM10 11h1v1H10zM11 11h1v1H11zM20 11h1v1H20zM21 11h1v1H21zM22 11h1v1H22zM23 11h1v1H23zM6 12h1v1H6zM7 12h1v1H7zM24 12h1v1H24zM25 12h1v1H25zM6 13h1v1H6zM25 13h1v1H25zM7 24h1v1H7zM24 24h1v1H24zM11 27h1v1H11zM13 27h1v1H13zM18 27h1v1H18zM20 27h1v1H20z"/><path fill="#2b2b2b" d="M5 6h1v1H5zM26 6h1v1H26zM5 7h1v1H5zM6 7h1v1H6zM25 7h1v1H25zM26 7h1v1H26zM7 8h1v1H7zM24 8h1v1H24zM15 14h1v1H15zM16 14h1v1H16zM5 24h1v1H5zM6 24h1v1H6zM9 24h1v1H9zM10 24h1v1H10zM11 24h1v1H11zM13 24h1v1H13zM18 24h1v1H18zM20 24h1v1H20zM21 24h1v1H21zM22 24h1v1H22zM25 24h1v1H25zM26 24h1v1H26zM5 25h1v1H5zM6 25h1v1H6zM10 25h1v1H10zM14 25h1v1H14zM15 25h1v1H15zM16 25h1v1H16zM17 25h1v1H17zM21 25h1v1H21zM25 25h1v1H25zM26 25h1v1H26z"/><path fill="#3c3c3c" d="M13 7h1v1H13zM18 7h1v1H18zM13 8h1v1H13zM18 8h1v1H18zM6 9h1v1H6zM14 9h1v1H14zM17 9h1v1H17zM25 9h1v1H25zM7 10h1v1H7zM11 10h1v1H11zM12 10h1v1H12zM13 10h1v1H13zM18 10h1v1H18zM19 10h1v1H19zM20 10h1v1H20zM24 10h1v1H24zM12 11h1v1H12zM13 11h1v1H13zM18 11h1v1H18zM19 11h1v1H19zM2 13h1v1H2zM29 13h1v1H29zM2 15h1v1H2zM3 15h1v1H3zM4 15h1v1H4zM27 15h1v1H27zM28 15h1v1H28zM29 15h1v1H29zM3 16h1v1H3zM4 16h1v1H4zM5 16h1v1H5zM26 16h1v1H26zM27 16h1v1H27zM28 16h1v1H28zM4 17h1v1H4zM5 17h1v1H5zM26 17h1v1H26zM27 17h1v1H27zM4 21h1v1H4zM6 21h1v1H6zM8 21h1v1H8zM23 21h1v1H23zM25 21h1v1H25zM27 21h1v1H27zM3 22h1v1H3zM4 22h1v1H4zM6 22h1v1H6zM8 22h1v1H8zM23 22h1v1H23zM25 22h1v1H25zM27 22h1v1H27zM28 22h1v1H28zM2 23h1v1H2zM3 23h1v1H3zM6 23h1v1H6zM7 23h1v1H7zM8 23h1v1H8zM23 23h1v1H23zM24 23h1v1H24zM25 23h1v1H25zM28 23h1v1H28zM29 23h1v1H29zM19 28h1v1H19zM12 29h1v1H12z"/><path fill="#2e2e2e" d="M8 8h1v1H8zM23 8h1v1H23zM9 9h1v1H9zM22 9h1v1H22zM6 14h1v1H6zM25 14h1v1H25z"/><path fill="#343434" d="M15 11h1v1H15zM16 11h1v1H16zM15 12h1v1H15zM16 12h1v1H16zM7 15h1v1H7zM24 15h1v1H24zM7 16h1v1H7zM24 16h1v1H24zM7 17h1v1H7zM24 17h1v1H24zM7 18h1v1H7zM24 18h1v1H24zM7 19h1v1H7zM24 19h1v1H24zM7 20h1v1H7zM10 20h1v1H10zM21 20h1v1H21zM24 20h1v1H24zM7 21h1v1H7zM24 21h1v1H24zM7 22h1v1H7zM9 22h1v1H9zM22 22h1v1H22zM24 22h1v1H24zM9 23h1v1H9zM10 23h1v1H10zM21 23h1v1H21zM22 23h1v1H22zM12 24h1v1H12zM19 24h1v1H19zM8 25h1v1H8zM23 25h1v1H23z"/><path fill="#000000" d="M9 14h1v1H9zM10 14h1v1H10zM11 14h1v1H11zM12 14h1v1H12zM19 14h1v1H19zM20 14h1v1H20zM21 14h1v1H21zM22 14h1v1H22zM8 15h1v1H8zM9 15h1v1H9zM10 15h1v1H10zM11 15h1v1H11zM12 15h1v1H12zM13 15h1v1H13zM14 15h1v1H14zM17 15h1v1H17zM18 15h1v1H18zM19 15h1v1H19zM20 15h1v1H20zM21 15h1v1H21zM22 15h1v1H22zM23 15h1v1H23zM8 16h1v1H8zM9 16h1v1H9zM10 16h1v1H10zM11 16h1v1H11zM12 16h1v1H12zM13 16h1v1H13zM14 16h1v1H14zM15 16h1v1H15zM16 16h1v1H16zM17 16h1v1H17zM18 16h1v1H18zM19 16h1v1H19zM20 16h1v1H20zM21 16h1v1H21zM22 16h1v1H22zM23 16h1v1H23zM8 17h1v1H8zM9 17h1v1H9zM10 17h1v1H10zM13 17h1v1H13zM14 17h1v1H14zM15 17h1v1H15zM16 17h1v1H16zM17 17h1v1H17zM18 17h1v1H18zM21 17h1v1H21zM22 17h1v1H22zM23 17h1v1H23zM8 18h1v1H8zM9 18h1v1H9zM14 18h1v1H14zM15 18h1v1H15zM16 18h1v1H16zM17 18h1v1H17zM22 18h1v1H22zM23 18h1v1H23zM8 19h1v1H8zM9 19h1v1H9zM13 19h1v1H13zM14 19h1v1H14zM15 19h1v1H15zM16 19h1v1H16zM17 19h1v1H17zM18 19h1v1H18zM22 19h1v1H22zM23 19h1v1H23zM8 20h1v1H8zM9 20h1v1H9zM13 20h1v1H13zM14 20h1v1H14zM15 20h1v1H15zM16 20h1v1H16zM17 20h1v1H17zM18 20h1v1H18zM22 20h1v1H22zM23 20h1v1H23zM9 21h1v1H9zM10 21h1v1H10zM14 21h1v1H14zM15 21h1v1H15zM16 21h1v1H16zM17 21h1v1H17zM21 21h1v1H21zM22 21h1v1H22zM10 22h1v1H10zM11 22h1v1H11zM14 22h1v1H14zM15 22h1v1H15zM16 22h1v1H16zM17 22h1v1H17zM20 22h1v1H20zM21 22h1v1H21zM11 23h1v1H11zM12 23h1v1H12zM13 23h1v1H13zM14 23h1v1H14zM15 23h1v1H15zM16 23h1v1H16zM17 23h1v1H17zM18 23h1v1H18zM19 23h1v1H19zM20 23h1v1H20zM14 24h1v1H14zM15 24h1v1H15zM16 24h1v1H16zM17 24h1v1H17z"/><path fill="#161616" d="M6 16h1v1H6zM25 16h1v1H25zM6 17h1v1H6zM25 17h1v1H25zM5 18h1v1H5zM6 18h1v1H6zM25 18h1v1H25zM26 18h1v1H26zM5 19h1v1H5zM6 19h1v1H6zM25 19h1v1H25zM26 19h1v1H26zM6 20h1v1H6zM25 20h1v1H25zM4 23h1v1H4zM5 23h1v1H5zM26 23h1v1H26zM27 23h1v1H27zM4 24h1v1H4zM27 24h1v1H27zM4 25h1v1H4zM27 25h1v1H27zM8 26h1v1H8zM9 26h1v1H9zM10 26h1v1H10zM14 26h1v1H14zM15 26h1v1H15zM16 26h1v1H16zM17 26h1v1H17zM21 26h1v1H21zM22 26h1v1H22zM23 26h1v1H23zM10 27h1v1H10zM21 27h1v1H21z"/><path fill="#ffffff" d="M11 17h1v1H11zM12 17h1v1H12zM19 17h1v1H19zM20 17h1v1H20zM11 18h1v1H11zM12 18h1v1H12zM13 18h1v1H13zM18 18h1v1H18zM19 18h1v1H19zM20 18h1v1H20zM11 19h1v1H11zM12 19h1v1H12zM19 19h1v1H19zM20 19h1v1H20zM11 20h1v1H11zM12 20h1v1H12zM19 20h1v1H19zM20 20h1v1H20zM11 21h1v1H11zM12 21h1v1H12zM19 21h1v1H19zM20 21h1v1H20zM12 22h1v1H12zM13 22h1v1H13zM18 22h1v1H18zM19 22h1v1H19z"/><path fill="#1b1b1b" d="M8 24h1v1H8zM23 24h1v1H23zM9 25h1v1H9zM22 25h1v1H22zM7 26h1v1H7zM24 26h1v1H24zM8 28h1v1H8zM23 28h1v1H23zM9 29h1v1H9zM22 29h1v1H22z"/><path fill="#232323" d="M9 28h1v1H9zM22 28h1v1H22z"/></svg>
