<svg xmlns="http://www.w3.org/2000/svg" viewBox="0 0 32 32" shape-rendering="crispEdges"><path fill="#f5d544" d="M28 2h1v1H28zM27 3h1v1H27zM29 3h1v1H29zM28 4h1v1H28zM5 5h1v1H5zM4 6h1v1H4zM6 6h1v1H6zM5 7h1v1H5zM10 12h1v1H10zM9 13h1v1H9zM11 13h1v1H11zM10 14h1v1H10zM24 16h1v1H24zM23 17h1v1H23zM25 17h1v1H25zM24 18h1v1H24zM5 21h1v1H5zM4 22h1v1H4zM6 22h1v1H6zM5 23h1v1H5z"/><path fill="#fffdd2" d="M28 3h1v1H28zM5 6h1v1H5zM10 13h1v1H10zM24 17h1v1H24zM5 22h1v1H5z"/><path fill="#6c15b8" d="M7 5h1v1H7zM24 5h1v1H24z"/><path fill="#955bfe" d="M8 5h1v1H8zM9 5h1v1H9zM11 5h1v1H11zM12 5h1v1H12zM13 5h1v1H13zM14 5h1v1H14zM15 5h1v1H15zM16 5h1v1H16zM17 5h1v1H17zM20 5h1v1H20zM21 5h1v1H21zM22 5h1v1H22zM23 5h1v1H23zM7 6h1v1H7zM10 6h1v1H10zM11 6h1v1H11zM12 6h1v1H12zM13 6h1v1H13zM14 6h1v1H14zM15 6h1v1H15zM17 6h1v1H17zM21 6h1v1H21zM22 6h1v1H22zM23 6h1v1H23zM24 6h1v1H24zM6 7h1v1H6zM7 7h1v1H7zM8 7h1v1H8zM9 7h1v1H9zM10 7h1v1H10zM13 7h1v1H13zM14 7h1v1H14zM21 7h1v1H21zM22 7h1v1H22zM23 7h1v1H23zM24 7h1v1H24zM25 7h1v1H25zM9 8h1v1H9zM10 8h1v1H10zM14 8h1v1H14zM15 8h1v1H15zM21 8h1v1H21zM22 8h1v1H22zM23 8h1v1H23zM24 8h1v1H24zM25 8h1v1H25zM14 9h1v1H14zM15 9h1v1H15zM16 9h1v1H16zM19 9h1v1H19zM20 9h1v1H20zM21 9h1v1H21zM6 10h1v1H6zM13 10h1v1H13zM14 10h1v1H14zM15 10h1v1H15zM16 10h1v1H16zM17 10h1v1H17zM18 10h1v1H18zM19 10h1v1H19zM20 10h1v1H20zM24 10h1v1H24zM7 11h1v1H7zM12 11h1v1H12zM13 11h1v1H13zM14 11h1v1H14zM19 11h1v1H19zM23 11h1v1H23zM24 11h1v1H24zM7 12h1v1H7zM8 12h1v1H8zM9 12h1v1H9zM11 12h1v1H11zM12 12h1v1H12zM13 12h1v1H13zM16 12h1v1H16zM19 12h1v1H19zM23 12h1v1H23zM24 12h1v1H24zM7 13h1v1H7zM20 13h1v1H20z"/><path fill="#e245e8" d="M10 5h1v1H10zM18 5h1v1H18zM19 5h1v1H19zM9 6h1v1H9zM16 6h1v1H16zM19 6h1v1H19zM20 6h1v1H20zM11 7h1v1H11zM12 7h1v1H12zM15 7h1v1H15zM20 7h1v1H20zM12 8h1v1H12zM13 8h1v1H13zM18 8h1v1H18zM19 8h1v1H19zM12 9h1v1H12zM24 9h1v1H24zM15 11h1v1H15zM20 11h1v1H20zM21 11h1v1H21zM14 12h1v1H14zM20 12h1v1H20zM21 13h1v1H21zM24 13h1v1H24z"/><path fill="#812ed1" d="M8 6h1v1H8zM6 8h1v1H6zM7 8h1v1H7zM16 8h1v1H16zM17 8h1v1H17zM20 8h1v1H20zM6 9h1v1H6zM7 9h1v1H7zM11 9h1v1H11zM13 9h1v1H13zM17 9h1v1H17zM18 9h1v1H18zM22 9h1v1H22zM23 9h1v1H23zM25 9h1v1H25zM7 10h1v1H7zM8 10h1v1H8zM9 10h1v1H9zM10 10h1v1H10zM11 10h1v1H11zM12 10h1v1H12zM21 10h1v1H21zM22 10h1v1H22zM25 10h1v1H25zM8 11h1v1H8zM9 11h1v1H9zM10 11h1v1H10zM11 11h1v1H11zM16 11h1v1H16zM17 11h1v1H17zM17 12h1v1H17zM18 12h1v1H18z"/><path fill="#ff88d7" d="M18 6h1v1H18zM16 7h1v1H16zM17 7h1v1H17zM18 7h1v1H18zM19 7h1v1H19zM8 8h1v1H8zM11 8h1v1H11zM8 9h1v1H8zM9 9h1v1H9zM10 9h1v1H10zM23 10h1v1H23zM22 11h1v1H22zM15 12h1v1H15zM21 12h1v1H21zM22 12h1v1H22zM8 14h1v1H8zM9 14h1v1H9zM15 14h1v1H15zM21 14h1v1H21zM22 14h1v1H22zM23 14h1v1H23zM7 15h1v1H7zM8 15h1v1H8zM11 15h1v1H11zM15 15h1v1H15zM18 15h1v1H18zM19 15h1v1H19zM9 16h1v1H9zM15 16h1v1H15zM16 16h1v1H16zM17 16h1v1H17zM18 16h1v1H18zM19 16h1v1H19zM22 16h1v1H22zM10 17h1v1H10zM11 17h1v1H11zM16 17h1v1H16zM17 17h1v1H17zM10 18h1v1H10zM14 18h1v1H14zM21 18h1v1H21zM10 19h1v1H10zM21 21h1v1H21zM22 21h1v1H22zM11 22h1v1H11zM21 22h1v1H21zM10 23h1v1H10zM11 23h1v1H11zM12 23h1v1H12zM19 23h1v1H19zM21 23h1v1H21zM22 23h1v1H22zM9 24h1v1H9zM20 24h1v1H20zM21 24h1v1H21zM22 24h1v1H22zM15 26h1v1H15zM16 26h1v1H16z"/><path fill="#8f3ef9" d="M25 6h1v1H25z"/><path fill="#3005e5" d="M2 9h1v1H2zM29 9h1v1H29zM2 10h1v1H2zM29 10h1v1H29zM2 11h1v1H2zM29 11h1v1H29zM2 12h1v1H2zM3 12h1v1H3zM28 12h1v1H28zM29 12h1v1H29zM5 14h1v1H5zM6 14h1v1H6zM25 14h1v1H25zM26 14h1v1H26zM2 15h1v1H2zM5 15h1v1H5zM26 15h1v1H26zM29 15h1v1H29zM3 16h1v1H3zM28 16h1v1H28zM3 17h1v1H3zM28 17h1v1H28zM4 18h1v1H4zM7 18h1v1H7zM27 18h1v1H27z"/><path fill="#ae86fe" d="M6 11h1v1H6zM25 11h1v1H25z"/><path fill="#945afd" d="M18 11h1v1H18z"/><path fill="#ccb8ff" d="M6 12h1v1H6zM25 12h1v1H25zM8 13h1v1H8zM12 13h1v1H12zM13 13h1v1H13zM14 13h1v1H14zM15 13h1v1H15zM16 13h1v1H16zM17 13h1v1H17zM18 13h1v1H18zM19 13h1v1H19zM22 13h1v1H22zM23 13h1v1H23z"/><path fill="#9e0afd" d="M2 13h1v1H2zM29 13h1v1H29zM3 14h1v1H3zM28 14h1v1H28zM4 15h1v1H4zM27 15h1v1H27zM6 16h1v1H6zM25 16h1v1H25zM6 17h1v1H6zM9 17h1v1H9zM22 17h1v1H22zM6 18h1v1H6zM25 18h1v1H25zM3 19h1v1H3zM7 19h1v1H7zM24 19h1v1H24zM28 19h1v1H28zM5 20h1v1H5zM9 20h1v1H9zM22 20h1v1H22zM26 20h1v1H26zM26 21h1v1H26zM12 22h1v1H12zM19 22h1v1H19zM8 24h1v1H8zM12 24h1v1H12zM19 24h1v1H19zM23 24h1v1H23zM6 26h1v1H6zM25 26h1v1H25zM8 27h1v1H8zM13 27h1v1H13zM18 27h1v1H18zM23 27h1v1H23zM10 28h1v1H10zM21 28h1v1H21z"/><path fill="#f00fff" d="M3 13h1v1H3zM28 13h1v1H28zM2 14h1v1H2zM4 14h1v1H4zM7 14h1v1H7zM11 14h1v1H11zM12 14h1v1H12zM13 14h1v1H13zM14 14h1v1H14zM16 14h1v1H16zM17 14h1v1H17zM18 14h1v1H18zM19 14h1v1H19zM20 14h1v1H20zM24 14h1v1H24zM27 14h1v1H27zM29 14h1v1H29zM3 15h1v1H3zM6 15h1v1H6zM12 15h1v1H12zM13 15h1v1H13zM16 15h1v1H16zM17 15h1v1H17zM23 15h1v1H23zM24 15h1v1H24zM25 15h1v1H25zM28 15h1v1H28zM4 16h1v1H4zM5 16h1v1H5zM7 16h1v1H7zM8 16h1v1H8zM12 16h1v1H12zM23 16h1v1H23zM26 16h1v1H26zM27 16h1v1H27zM4 17h1v1H4zM5 17h1v1H5zM7 17h1v1H7zM21 17h1v1H21zM26 17h1v1H26zM27 17h1v1H27zM3 18h1v1H3zM8 18h1v1H8zM9 18h1v1H9zM22 18h1v1H22zM23 18h1v1H23zM28 18h1v1H28zM4 19h1v1H4zM5 19h1v1H5zM6 19h1v1H6zM8 19h1v1H8zM9 19h1v1H9zM21 19h1v1H21zM22 19h1v1H22zM23 19h1v1H23zM25 19h1v1H25zM26 19h1v1H26zM27 19h1v1H27zM6 20h1v1H6zM25 20h1v1H25zM4 21h1v1H4zM6 21h1v1H6zM25 21h1v1H25zM27 21h1v1H27zM7 22h1v1H7zM8 22h1v1H8zM22 22h1v1H22zM23 22h1v1H23zM24 22h1v1H24zM25 22h1v1H25zM26 22h1v1H26zM27 22h1v1H27zM13 23h1v1H13zM18 23h1v1H18zM10 24h1v1H10zM11 24h1v1H11zM13 24h1v1H13zM14 24h1v1H14zM15 24h1v1H15zM16 24h1v1H16zM17 24h1v1H17zM18 24h1v1H18zM8 25h1v1H8zM11 25h1v1H11zM12 25h1v1H12zM13 25h1v1H13zM14 25h1v1H14zM15 25h1v1H15zM16 25h1v1H16zM17 25h1v1H17zM18 25h1v1H18zM19 25h1v1H19zM20 25h1v1H20zM23 25h1v1H23zM7 26h1v1H7zM8 26h1v1H8zM11 26h1v1H11zM12 26h1v1H12zM13 26h1v1H13zM14 26h1v1H14zM17 26h1v1H17zM18 26h1v1H18zM19 26h1v1H19zM20 26h1v1H20zM23 26h1v1H23zM24 26h1v1H24zM9 27h1v1H9zM10 27h1v1H10zM11 27h1v1H11zM12 27h1v1H12zM14 27h1v1H14zM17 27h1v1H17zM19 27h1v1H19zM20 27h1v1H20zM21 27h1v1H21zM22 27h1v1H22zM11 28h1v1H11zM12 28h1v1H12zM19 28h1v1H19zM20 28h1v1H20z"/><path fill="#5f06a5" d="M6 13h1v1H6zM25 13h1v1H25z"/><path fill="#fffffb" d="M9 15h1v1H9zM10 15h1v1H10zM21 15h1v1H21zM22 15h1v1H22zM10 16h1v1H10zM11 16h1v1H11zM20 16h1v1H20zM21 16h1v1H21zM8 17h1v1H8zM5 18h1v1H5zM26 18h1v1H26zM15 19h1v1H15zM16 19h1v1H16zM4 20h1v1H4zM7 20h1v1H7zM8 20h1v1H8zM14 20h1v1H14zM15 20h1v1H15zM16 20h1v1H16zM17 20h1v1H17zM23 20h1v1H23zM24 20h1v1H24zM27 20h1v1H27zM7 21h1v1H7zM8 21h1v1H8zM9 21h1v1H9zM14 21h1v1H14zM15 21h1v1H15zM16 21h1v1H16zM17 21h1v1H17zM23 21h1v1H23zM24 21h1v1H24zM15 22h1v1H15zM16 22h1v1H16zM6 23h1v1H6zM7 23h1v1H7zM8 23h1v1H8zM14 23h1v1H14zM17 23h1v1H17zM23 23h1v1H23zM24 23h1v1H24zM25 23h1v1H25zM26 23h1v1H26zM5 24h1v1H5zM6 24h1v1H6zM7 24h1v1H7zM24 24h1v1H24zM25 24h1v1H25zM26 24h1v1H26zM6 25h1v1H6zM7 25h1v1H7zM9 25h1v1H9zM10 25h1v1H10zM21 25h1v1H21zM22 25h1v1H22zM24 25h1v1H24zM25 25h1v1H25zM9 26h1v1H9zM10 26h1v1H10zM21 26h1v1H21zM22 26h1v1H22z"/><path fill="#ffd3cb" d="M14 15h1v1H14zM20 15h1v1H20zM13 16h1v1H13zM14 16h1v1H14zM14 17h1v1H14zM15 17h1v1H15zM20 17h1v1H20zM15 18h1v1H15zM16 18h1v1H16zM17 18h1v1H17zM14 19h1v1H14zM17 19h1v1H17zM10 20h1v1H10zM21 20h1v1H21zM10 21h1v1H10zM11 21h1v1H11zM12 21h1v1H12zM13 21h1v1H13zM18 21h1v1H18zM19 21h1v1H19zM20 21h1v1H20zM9 22h1v1H9zM10 22h1v1H10zM13 22h1v1H13zM14 22h1v1H14zM17 22h1v1H17zM18 22h1v1H18zM20 22h1v1H20zM9 23h1v1H9zM20 23h1v1H20z"/><path fill="#ffffff" d="M12 17h1v1H12zM18 17h1v1H18zM11 18h1v1H11zM13 18h1v1H13zM19 18h1v1H19zM20 18h1v1H20zM11 19h1v1H11zM20 19h1v1H20zM11 20h1v1H11zM20 20h1v1H20z"/><path fill="#0e0e14" d="M13 17h1v1H13zM19 17h1v1H19zM12 18h1v1H12zM18 18h1v1H18zM12 19h1v1H12zM13 19h1v1H13zM18 19h1v1H18zM19 19h1v1H19zM12 20h1v1H12zM13 20h1v1H13zM18 20h1v1H18zM19 20h1v1H19z"/><path fill="#ffd2ca" d="M15 23h1v1H15zM16 23h1v1H16z"/><path fill="#e900ff" d="M5 25h1v1H5zM26 25h1v1H26z"/></svg>
