<svg xmlns="http://www.w3.org/2000/svg" viewBox="0 0 32 32" shape-rendering="crispEdges"><path fill="#d606ff" d="M5 2h1v1H5zM26 2h1v1H26zM4 3h1v1H4zM27 3h1v1H27zM14 5h1v1H14zM17 5h1v1H17zM3 11h1v1H3zM9 11h1v1H9zM10 11h1v1H10zM14 11h1v1H14zM15 11h1v1H15zM16 11h1v1H16zM17 11h1v1H17zM21 11h1v1H21zM22 11h1v1H22zM28 11h1v1H28zM2 12h1v1H2zM9 12h1v1H9zM10 12h1v1H10zM12 12h1v1H12zM13 12h1v1H13zM18 12h1v1H18zM19 12h1v1H19zM21 12h1v1H21zM22 12h1v1H22zM29 12h1v1H29zM6 20h1v1H6zM25 20h1v1H25zM5 21h1v1H5zM26 21h1v1H26zM9 22h1v1H9zM22 22h1v1H22zM8 23h1v1H8zM23 23h1v1H23zM7 24h1v1H7zM24 24h1v1H24zM9 25h1v1H9zM15 25h1v1H15zM16 25h1v1H16zM22 25h1v1H22zM14 26h1v1H14zM17 26h1v1H17z"/><path fill="#ff9dff" d="M5 3h1v1H5zM26 3h1v1H26zM6 9h1v1H6zM25 9h1v1H25zM3 12h1v1H3zM28 12h1v1H28zM6 15h1v1H6zM25 15h1v1H25zM6 21h1v1H6zM25 21h1v1H25zM8 24h1v1H8zM23 24h1v1H23z"/><path fill="#fd06ff" d="M6 3h1v1H6zM25 3h1v1H25zM5 4h1v1H5zM26 4h1v1H26zM6 8h1v1H6zM25 8h1v1H25zM5 9h1v1H5zM7 9h1v1H7zM24 9h1v1H24zM26 9h1v1H26zM6 10h1v1H6zM25 10h1v1H25zM4 12h1v1H4zM27 12h1v1H27zM3 13h1v1H3zM28 13h1v1H28zM7 21h1v1H7zM24 21h1v1H24zM6 22h1v1H6zM25 22h1v1H25zM9 24h1v1H9zM22 24h1v1H22zM8 25h1v1H8zM23 25h1v1H23z"/><path fill="#ffbbff" d="M11 3h1v1H11zM20 3h1v1H20zM10 4h1v1H10zM12 4h1v1H12zM19 4h1v1H19zM21 4h1v1H21zM8 5h1v1H8zM11 5h1v1H11zM20 5h1v1H20zM23 5h1v1H23zM7 6h1v1H7zM9 6h1v1H9zM22 6h1v1H22zM24 6h1v1H24zM8 7h1v1H8zM13 7h1v1H13zM18 7h1v1H18zM23 7h1v1H23zM15 8h1v1H15zM16 8h1v1H16zM14 9h1v1H14zM17 9h1v1H17zM9 10h1v1H9zM10 10h1v1H10zM15 10h1v1H15zM16 10h1v1H16zM21 10h1v1H21zM22 10h1v1H22zM8 11h1v1H8zM11 11h1v1H11zM20 11h1v1H20zM23 11h1v1H23zM8 12h1v1H8zM11 12h1v1H11zM20 12h1v1H20zM23 12h1v1H23zM6 13h1v1H6zM7 13h1v1H7zM9 13h1v1H9zM10 13h1v1H10zM12 13h1v1H12zM13 13h1v1H13zM14 13h1v1H14zM15 13h1v1H15zM16 13h1v1H16zM17 13h1v1H17zM18 13h1v1H18zM19 13h1v1H19zM21 13h1v1H21zM22 13h1v1H22zM24 13h1v1H24zM25 13h1v1H25zM15 15h1v1H15zM16 15h1v1H16zM9 16h1v1H9zM14 16h1v1H14zM15 16h1v1H15zM16 16h1v1H16zM17 16h1v1H17zM22 16h1v1H22zM8 17h1v1H8zM9 17h1v1H9zM10 17h1v1H10zM14 17h1v1H14zM15 17h1v1H15zM16 17h1v1H16zM17 17h1v1H17zM21 17h1v1H21zM22 17h1v1H22zM23 17h1v1H23zM8 18h1v1H8zM9 18h1v1H9zM10 18h1v1H10zM14 18h1v1H14zM15 18h1v1H15zM16 18h1v1H16zM17 18h1v1H17zM21 18h1v1H21zM22 18h1v1H22zM23 18h1v1H23zM8 19h1v1H8zM9 19h1v1H9zM10 19h1v1H10zM15 19h1v1H15zM16 19h1v1H16zM21 19h1v1H21zM22 19h1v1H22zM23 19h1v1H23zM10 20h1v1H10zM21 20h1v1H21zM12 21h1v1H12zM13 21h1v1H13zM14 21h1v1H14zM15 21h1v1H15zM16 21h1v1H16zM17 21h1v1H17zM18 21h1v1H18zM19 21h1v1H19zM15 22h1v1H15zM16 22h1v1H16zM12 23h1v1H12zM13 23h1v1H13zM14 23h1v1H14zM17 23h1v1H17zM18 23h1v1H18zM19 23h1v1H19zM11 24h1v1H11zM12 24h1v1H12zM13 24h1v1H13zM14 24h1v1H14zM17 24h1v1H17zM18 24h1v1H18zM19 24h1v1H19zM20 24h1v1H20zM11 25h1v1H11zM12 25h1v1H12zM13 25h1v1H13zM18 25h1v1H18zM19 25h1v1H19zM20 25h1v1H20z"/><path fill="#ff7aff" d="M11 4h1v1H11zM20 4h1v1H20zM10 5h1v1H10zM12 5h1v1H12zM13 5h1v1H13zM18 5h1v1H18zM19 5h1v1H19zM21 5h1v1H21zM10 6h1v1H10zM11 6h1v1H11zM12 6h1v1H12zM13 6h1v1H13zM14 6h1v1H14zM17 6h1v1H17zM18 6h1v1H18zM19 6h1v1H19zM20 6h1v1H20zM21 6h1v1H21zM6 7h1v1H6zM7 7h1v1H7zM9 7h1v1H9zM10 7h1v1H10zM11 7h1v1H11zM14 7h1v1H14zM17 7h1v1H17zM20 7h1v1H20zM21 7h1v1H21zM22 7h1v1H22zM24 7h1v1H24zM25 7h1v1H25zM7 8h1v1H7zM8 8h1v1H8zM9 8h1v1H9zM10 8h1v1H10zM21 8h1v1H21zM22 8h1v1H22zM23 8h1v1H23zM24 8h1v1H24zM8 9h1v1H8zM9 9h1v1H9zM10 9h1v1H10zM11 9h1v1H11zM13 9h1v1H13zM15 9h1v1H15zM16 9h1v1H16zM18 9h1v1H18zM20 9h1v1H20zM21 9h1v1H21zM22 9h1v1H22zM23 9h1v1H23zM7 10h1v1H7zM8 10h1v1H8zM11 10h1v1H11zM12 10h1v1H12zM13 10h1v1H13zM18 10h1v1H18zM19 10h1v1H19zM20 10h1v1H20zM23 10h1v1H23zM24 10h1v1H24zM6 11h1v1H6zM7 11h1v1H7zM12 11h1v1H12zM19 11h1v1H19zM24 11h1v1H24zM25 11h1v1H25zM6 12h1v1H6zM7 12h1v1H7zM24 12h1v1H24zM25 12h1v1H25zM15 20h1v1H15zM16 20h1v1H16z"/><path fill="#ff50ff" d="M7 5h1v1H7zM15 5h1v1H15zM16 5h1v1H16zM24 5h1v1H24zM6 6h1v1H6zM8 6h1v1H8zM15 6h1v1H15zM16 6h1v1H16zM23 6h1v1H23zM25 6h1v1H25zM15 7h1v1H15zM16 7h1v1H16zM12 8h1v1H12zM19 8h1v1H19zM14 12h1v1H14zM15 12h1v1H15zM16 12h1v1H16zM17 12h1v1H17zM8 13h1v1H8zM23 13h1v1H23zM7 14h1v1H7zM8 14h1v1H8zM9 14h1v1H9zM10 14h1v1H10zM11 14h1v1H11zM13 14h1v1H13zM14 14h1v1H14zM17 14h1v1H17zM18 14h1v1H18zM20 14h1v1H20zM21 14h1v1H21zM22 14h1v1H22zM23 14h1v1H23zM24 14h1v1H24zM8 15h1v1H8zM9 15h1v1H9zM10 15h1v1H10zM11 15h1v1H11zM12 15h1v1H12zM13 15h1v1H13zM18 15h1v1H18zM19 15h1v1H19zM20 15h1v1H20zM21 15h1v1H21zM22 15h1v1H22zM23 15h1v1H23zM7 16h1v1H7zM10 16h1v1H10zM11 16h1v1H11zM12 16h1v1H12zM13 16h1v1H13zM18 16h1v1H18zM19 16h1v1H19zM20 16h1v1H20zM21 16h1v1H21zM24 16h1v1H24zM6 17h1v1H6zM7 17h1v1H7zM24 17h1v1H24zM25 17h1v1H25zM6 18h1v1H6zM7 18h1v1H7zM24 18h1v1H24zM25 18h1v1H25zM6 19h1v1H6zM7 19h1v1H7zM24 19h1v1H24zM25 19h1v1H25zM7 20h1v1H7zM8 20h1v1H8zM23 20h1v1H23zM24 20h1v1H24zM8 21h1v1H8zM9 21h1v1H9zM10 21h1v1H10zM21 21h1v1H21zM22 21h1v1H22zM23 21h1v1H23zM7 22h1v1H7zM8 22h1v1H8zM10 22h1v1H10zM11 22h1v1H11zM12 22h1v1H12zM13 22h1v1H13zM18 22h1v1H18zM19 22h1v1H19zM20 22h1v1H20zM21 22h1v1H21zM23 22h1v1H23zM24 22h1v1H24zM6 23h1v1H6zM7 23h1v1H7zM24 23h1v1H24zM25 23h1v1H25zM6 24h1v1H6zM15 24h1v1H15zM16 24h1v1H16zM25 24h1v1H25zM7 25h1v1H7zM24 25h1v1H24zM15 26h1v1H15zM16 26h1v1H16z"/><path fill="#950fff" d="M9 5h1v1H9zM22 5h1v1H22zM6 14h1v1H6zM25 14h1v1H25zM5 15h1v1H5zM7 15h1v1H7zM24 15h1v1H24zM26 15h1v1H26zM3 18h1v1H3zM28 18h1v1H28zM2 19h1v1H2zM4 19h1v1H4zM27 19h1v1H27zM29 19h1v1H29z"/><path fill="#ff36ff" d="M12 7h1v1H12zM19 7h1v1H19z"/><path fill="#ff3bff" d="M11 8h1v1H11zM13 8h1v1H13zM18 8h1v1H18zM20 8h1v1H20zM12 9h1v1H12zM19 9h1v1H19z"/><path fill="#4897ff" d="M14 8h1v1H14zM17 8h1v1H17zM14 10h1v1H14zM17 10h1v1H17zM13 11h1v1H13zM18 11h1v1H18z"/><path fill="#4899ff" d="M11 13h1v1H11zM20 13h1v1H20z"/><path fill="#4898ff" d="M12 14h1v1H12zM19 14h1v1H19z"/><path fill="#ff6bff" d="M15 14h1v1H15zM16 14h1v1H16z"/><path fill="#ffa2ff" d="M14 15h1v1H14zM17 15h1v1H17zM8 16h1v1H8zM23 16h1v1H23zM14 19h1v1H14zM17 19h1v1H17zM9 20h1v1H9zM22 20h1v1H22zM11 21h1v1H11zM20 21h1v1H20zM11 23h1v1H11zM20 23h1v1H20zM10 24h1v1H10zM21 24h1v1H21zM10 25h1v1H10zM14 25h1v1H14zM17 25h1v1H17zM21 25h1v1H21zM11 26h1v1H11zM12 26h1v1H12zM13 26h1v1H13zM18 26h1v1H18zM19 26h1v1H19zM20 26h1v1H20z"/><path fill="#940eff" d="M6 16h1v1H6zM25 16h1v1H25zM3 20h1v1H3zM28 20h1v1H28zM9 23h1v1H9zM22 23h1v1H22z"/><path fill="#ff4fff" d="M11 17h1v1H11zM20 17h1v1H20z"/><path fill="#ffffff" d="M12 17h1v1H12zM18 17h1v1H18zM11 18h1v1H11zM13 18h1v1H13zM19 18h1v1H19zM20 18h1v1H20zM11 19h1v1H11zM20 19h1v1H20zM11 20h1v1H11zM20 20h1v1H20z"/><path fill="#0e0e14" d="M13 17h1v1H13zM19 17h1v1H19zM12 18h1v1H12zM18 18h1v1H18zM12 19h1v1H12zM13 19h1v1H13zM18 19h1v1H18zM19 19h1v1H19zM12 20h1v1H12zM13 20h1v1H13zM18 20h1v1H18zM19 20h1v1H19z"/><path fill="#48c2ff" d="M3 19h1v1H3zM28 19h1v1H28zM7 26h1v1H7zM8 26h1v1H8zM10 26h1v1H10zM21 26h1v1H21zM23 26h1v1H23zM24 26h1v1H24z"/><path fill="#ff87ff" d="M14 20h1v1H14zM17 20h1v1H17zM14 22h1v1H14zM17 22h1v1H17zM15 23h1v1H15zM16 23h1v1H16z"/><path fill="#c60cff" d="M10 23h1v1H10zM21 23h1v1H21z"/><path fill="#488fff" d="M6 25h1v1H6zM25 25h1v1H25z"/><path fill="#ffb7ff" d="M9 26h1v1H9zM22 26h1v1H22z"/></svg>
