<svg xmlns="http://www.w3.org/2000/svg" viewBox="0 0 32 32" shape-rendering="crispEdges"><path fill="#203c0d" d="M15 0h1v1H15zM15 1h1v1H15zM15 2h1v1H15zM16 3h1v1H16zM18 3h1v1H18zM13 13h1v1H13zM18 13h1v1H18zM13 14h1v1H13zM18 14h1v1H18z"/><path fill="#f7fac4" d="M16 0h1v1H16zM15 13h1v1H15zM16 13h1v1H16zM14 14h1v1H14zM15 14h1v1H15zM16 14h1v1H16zM17 14h1v1H17zM14 15h1v1H14zM17 15h1v1H17z"/><path fill="#3a5113" d="M17 0h1v1H17zM10 10h1v1H10zM21 10h1v1H21zM10 13h1v1H10zM11 13h1v1H11zM20 13h1v1H20zM21 13h1v1H21zM22 19h1v1H22zM10 20h1v1H10zM21 20h1v1H21zM9 22h1v1H9zM22 22h1v1H22zM9 23h1v1H9zM22 23h1v1H22zM11 29h1v1H11zM20 29h1v1H20zM12 30h1v1H12zM19 30h1v1H19z"/><path fill="#c6e429" d="M16 1h1v1H16zM17 1h1v1H17zM16 2h1v1H16zM17 2h1v1H17zM18 2h1v1H18zM17 3h1v1H17zM15 15h1v1H15zM16 15h1v1H16zM14 16h1v1H14zM15 16h1v1H15zM16 16h1v1H16zM17 16h1v1H17zM15 17h1v1H15zM16 17h1v1H16z"/><path fill="#31310b" d="M18 1h1v1H18z"/><path fill="#25180b" d="M19 2h1v1H19zM19 3h1v1H19zM20 3h1v1H20zM14 5h1v1H14zM19 5h1v1H19zM13 6h1v1H13zM13 7h1v1H13zM19 7h1v1H19zM14 9h1v1H14zM13 11h1v1H13zM18 11h1v1H18zM2 24h1v1H2zM8 24h1v1H8zM23 24h1v1H23zM29 24h1v1H29zM3 25h1v1H3zM28 25h1v1H28zM3 26h1v1H3zM4 26h1v1H4zM5 26h1v1H5zM26 26h1v1H26zM27 26h1v1H27zM28 26h1v1H28zM4 27h1v1H4zM27 27h1v1H27z"/><path fill="#1b1809" d="M15 3h1v1H15zM14 4h1v1H14zM19 4h1v1H19zM21 4h1v1H21zM20 5h1v1H20zM21 5h1v1H21zM16 6h1v1H16zM17 6h1v1H17zM18 6h1v1H18zM19 6h1v1H19zM21 6h1v1H21zM20 7h1v1H20zM21 7h1v1H21zM12 8h1v1H12zM13 8h1v1H13zM19 8h1v1H19zM20 8h1v1H20zM11 9h1v1H11zM15 9h1v1H15zM16 9h1v1H16zM17 9h1v1H17zM18 9h1v1H18zM19 9h1v1H19zM9 10h1v1H9zM11 10h1v1H11zM19 10h1v1H19zM20 10h1v1H20zM22 10h1v1H22zM12 11h1v1H12zM19 11h1v1H19z"/><path fill="#643f26" d="M15 4h1v1H15zM14 6h1v1H14zM14 7h1v1H14zM16 7h1v1H16zM14 8h1v1H14zM13 9h1v1H13zM14 10h1v1H14zM15 10h1v1H15zM2 19h1v1H2zM3 19h1v1H3zM4 19h1v1H4zM27 19h1v1H27zM28 19h1v1H28zM29 19h1v1H29zM3 20h1v1H3zM4 20h1v1H4zM27 20h1v1H27zM28 20h1v1H28zM2 21h1v1H2zM3 21h1v1H3zM4 21h1v1H4zM5 21h1v1H5zM26 21h1v1H26zM27 21h1v1H27zM28 21h1v1H28zM29 21h1v1H29zM4 22h1v1H4zM5 22h1v1H5zM26 22h1v1H26zM27 22h1v1H27zM5 23h1v1H5zM6 23h1v1H6zM25 23h1v1H25zM26 23h1v1H26zM5 25h1v1H5zM26 25h1v1H26z"/><path fill="#452b16" d="M16 4h1v1H16zM18 4h1v1H18zM16 5h1v1H16zM17 5h1v1H17zM18 5h1v1H18zM12 9h1v1H12zM12 10h1v1H12zM2 22h1v1H2zM29 22h1v1H29zM2 23h1v1H2zM3 23h1v1H3zM7 23h1v1H7zM24 23h1v1H24zM28 23h1v1H28zM29 23h1v1H29zM3 24h1v1H3zM4 24h1v1H4zM27 24h1v1H27zM28 24h1v1H28zM4 25h1v1H4zM27 25h1v1H27z"/><path fill="#122207" d="M17 4h1v1H17zM8 10h1v1H8zM23 10h1v1H23zM8 11h1v1H8zM23 11h1v1H23zM5 13h1v1H5zM26 13h1v1H26zM6 14h1v1H6zM25 14h1v1H25zM5 15h1v1H5zM7 15h1v1H7zM24 15h1v1H24zM26 15h1v1H26zM6 16h1v1H6zM25 16h1v1H25zM7 17h1v1H7zM24 17h1v1H24z"/><path fill="#372817" d="M20 4h1v1H20zM20 6h1v1H20zM17 7h1v1H17zM18 7h1v1H18zM15 8h1v1H15zM16 8h1v1H16zM17 8h1v1H17zM18 8h1v1H18zM20 9h1v1H20z"/><path fill="#50331c" d="M15 5h1v1H15zM15 6h1v1H15zM13 10h1v1H13zM14 11h1v1H14zM5 14h1v1H5zM26 14h1v1H26zM6 15h1v1H6zM25 15h1v1H25zM6 21h1v1H6zM25 21h1v1H25z"/><path fill="#72482d" d="M15 7h1v1H15zM2 20h1v1H2zM5 20h1v1H5zM26 20h1v1H26zM29 20h1v1H29zM3 22h1v1H3zM6 22h1v1H6zM25 22h1v1H25zM28 22h1v1H28zM4 23h1v1H4zM27 23h1v1H27zM5 24h1v1H5zM6 24h1v1H6zM25 24h1v1H25zM26 24h1v1H26z"/><path fill="#222c0c" d="M7 8h1v1H7zM8 8h1v1H8zM9 8h1v1H9zM22 8h1v1H22zM23 8h1v1H23zM24 8h1v1H24zM5 10h1v1H5zM26 10h1v1H26zM13 12h1v1H13zM18 12h1v1H18z"/><path fill="#496018" d="M6 9h1v1H6zM25 9h1v1H25zM3 16h1v1H3zM28 16h1v1H28z"/><path fill="#75902d" d="M7 9h1v1H7zM8 9h1v1H8zM9 9h1v1H9zM10 9h1v1H10zM21 9h1v1H21zM22 9h1v1H22zM23 9h1v1H23zM24 9h1v1H24zM6 10h1v1H6zM7 10h1v1H7zM24 10h1v1H24zM25 10h1v1H25zM6 11h1v1H6zM7 11h1v1H7zM24 11h1v1H24zM25 11h1v1H25zM6 12h1v1H6zM7 12h1v1H7zM24 12h1v1H24zM25 12h1v1H25zM6 13h1v1H6zM7 13h1v1H7zM24 13h1v1H24zM25 13h1v1H25zM7 14h1v1H7zM12 14h1v1H12zM19 14h1v1H19zM24 14h1v1H24zM8 15h1v1H8zM9 15h1v1H9zM12 15h1v1H12zM19 15h1v1H19zM22 15h1v1H22zM23 15h1v1H23zM4 16h1v1H4zM5 16h1v1H5zM8 16h1v1H8zM9 16h1v1H9zM22 16h1v1H22zM23 16h1v1H23zM26 16h1v1H26zM27 16h1v1H27zM3 17h1v1H3zM5 17h1v1H5zM6 17h1v1H6zM8 17h1v1H8zM23 17h1v1H23zM25 17h1v1H25zM26 17h1v1H26zM28 17h1v1H28zM10 19h1v1H10zM21 19h1v1H21zM13 21h1v1H13zM18 21h1v1H18z"/><path fill="#362312" d="M16 10h1v1H16zM17 10h1v1H17zM18 10h1v1H18zM17 11h1v1H17z"/><path fill="#4e671b" d="M5 11h1v1H5zM26 11h1v1H26zM8 19h1v1H8zM23 19h1v1H23zM8 20h1v1H8zM23 20h1v1H23zM8 21h1v1H8zM23 21h1v1H23zM4 28h1v1H4zM5 28h1v1H5zM26 28h1v1H26zM27 28h1v1H27zM2 29h1v1H2zM3 29h1v1H3zM4 29h1v1H4zM5 29h1v1H5zM26 29h1v1H26zM27 29h1v1H27zM28 29h1v1H28zM29 29h1v1H29zM3 30h1v1H3zM7 30h1v1H7zM24 30h1v1H24zM28 30h1v1H28z"/><path fill="#cbe731" d="M9 11h1v1H9zM22 11h1v1H22zM9 12h1v1H9zM15 12h1v1H15zM16 12h1v1H16zM22 12h1v1H22zM14 13h1v1H14zM17 13h1v1H17z"/><path fill="#f8f4eb" d="M10 11h1v1H10zM21 11h1v1H21z"/><path fill="#667f24" d="M11 11h1v1H11zM20 11h1v1H20zM12 12h1v1H12zM19 12h1v1H19zM12 13h1v1H12zM19 13h1v1H19zM8 18h1v1H8zM23 18h1v1H23zM9 24h1v1H9zM10 24h1v1H10zM15 24h1v1H15zM16 24h1v1H16zM21 24h1v1H21zM22 24h1v1H22zM11 25h1v1H11zM14 25h1v1H14zM15 25h1v1H15zM16 25h1v1H16zM17 25h1v1H17zM20 25h1v1H20zM15 26h1v1H15zM16 26h1v1H16zM11 27h1v1H11zM20 27h1v1H20zM12 28h1v1H12zM13 28h1v1H13zM18 28h1v1H18zM19 28h1v1H19zM12 29h1v1H12zM19 29h1v1H19z"/><path fill="#337406" d="M15 11h1v1H15zM16 11h1v1H16z"/><path fill="#283f0b" d="M5 12h1v1H5zM26 12h1v1H26zM5 18h1v1H5zM26 18h1v1H26zM14 26h1v1H14zM17 26h1v1H17zM3 27h1v1H3zM5 27h1v1H5zM14 27h1v1H14zM17 27h1v1H17zM26 27h1v1H26zM28 27h1v1H28zM2 28h1v1H2zM3 28h1v1H3zM6 28h1v1H6zM11 28h1v1H11zM14 28h1v1H14zM15 28h1v1H15zM16 28h1v1H16zM17 28h1v1H17zM20 28h1v1H20zM25 28h1v1H25zM28 28h1v1H28zM29 28h1v1H29zM6 29h1v1H6zM7 29h1v1H7zM9 29h1v1H9zM10 29h1v1H10zM15 29h1v1H15zM16 29h1v1H16zM21 29h1v1H21zM22 29h1v1H22zM24 29h1v1H24zM25 29h1v1H25zM4 30h1v1H4zM5 30h1v1H5zM6 30h1v1H6zM8 30h1v1H8zM11 30h1v1H11zM15 30h1v1H15zM16 30h1v1H16zM20 30h1v1H20zM23 30h1v1H23zM25 30h1v1H25zM26 30h1v1H26zM27 30h1v1H27z"/><path fill="#354810" d="M8 12h1v1H8zM23 12h1v1H23zM4 15h1v1H4zM27 15h1v1H27zM4 17h1v1H4zM27 17h1v1H27zM7 18h1v1H7zM24 18h1v1H24zM6 19h1v1H6zM25 19h1v1H25zM12 25h1v1H12zM13 25h1v1H13zM18 25h1v1H18zM19 25h1v1H19zM11 26h1v1H11zM20 26h1v1H20zM9 27h1v1H9zM10 27h1v1H10zM21 27h1v1H21zM22 27h1v1H22zM9 28h1v1H9zM10 28h1v1H10zM21 28h1v1H21zM22 28h1v1H22z"/><path fill="#e0f265" d="M10 12h1v1H10zM11 12h1v1H11zM20 12h1v1H20zM21 12h1v1H21z"/><path fill="#2a520e" d="M14 12h1v1H14zM17 12h1v1H17z"/><path fill="#aabc49" d="M8 13h1v1H8zM9 13h1v1H9zM22 13h1v1H22zM23 13h1v1H23zM8 14h1v1H8zM9 14h1v1H9zM10 14h1v1H10zM11 14h1v1H11zM20 14h1v1H20zM21 14h1v1H21zM22 14h1v1H22zM23 14h1v1H23zM10 15h1v1H10zM11 15h1v1H11zM20 15h1v1H20zM21 15h1v1H21zM10 18h1v1H10zM21 18h1v1H21zM9 25h1v1H9zM10 25h1v1H10zM21 25h1v1H21zM22 25h1v1H22zM9 26h1v1H9zM10 26h1v1H10zM12 26h1v1H12zM13 26h1v1H13zM18 26h1v1H18zM19 26h1v1H19zM21 26h1v1H21zM22 26h1v1H22zM12 27h1v1H12zM13 27h1v1H13zM15 27h1v1H15zM16 27h1v1H16zM18 27h1v1H18zM19 27h1v1H19zM13 29h1v1H13zM14 29h1v1H14zM17 29h1v1H17zM18 29h1v1H18zM13 30h1v1H13zM14 30h1v1H14zM17 30h1v1H17zM18 30h1v1H18z"/><path fill="#000000" d="M13 15h1v1H13zM18 15h1v1H18zM10 16h1v1H10zM11 16h1v1H11zM12 16h1v1H12zM13 16h1v1H13zM18 16h1v1H18zM19 16h1v1H19zM20 16h1v1H20zM21 16h1v1H21zM2 17h1v1H2zM9 17h1v1H9zM10 17h1v1H10zM13 17h1v1H13zM14 17h1v1H14zM17 17h1v1H17zM18 17h1v1H18zM21 17h1v1H21zM22 17h1v1H22zM29 17h1v1H29zM2 18h1v1H2zM3 18h1v1H3zM4 18h1v1H4zM9 18h1v1H9zM14 18h1v1H14zM15 18h1v1H15zM16 18h1v1H16zM17 18h1v1H17zM22 18h1v1H22zM27 18h1v1H27zM28 18h1v1H28zM29 18h1v1H29zM5 19h1v1H5zM7 19h1v1H7zM9 19h1v1H9zM14 19h1v1H14zM15 19h1v1H15zM16 19h1v1H16zM17 19h1v1H17zM24 19h1v1H24zM26 19h1v1H26zM1 20h1v1H1zM6 20h1v1H6zM7 20h1v1H7zM9 20h1v1H9zM14 20h1v1H14zM15 20h1v1H15zM16 20h1v1H16zM17 20h1v1H17zM22 20h1v1H22zM24 20h1v1H24zM25 20h1v1H25zM30 20h1v1H30zM1 21h1v1H1zM7 21h1v1H7zM9 21h1v1H9zM10 21h1v1H10zM14 21h1v1H14zM15 21h1v1H15zM16 21h1v1H16zM17 21h1v1H17zM21 21h1v1H21zM22 21h1v1H22zM24 21h1v1H24zM30 21h1v1H30zM1 22h1v1H1zM7 22h1v1H7zM8 22h1v1H8zM10 22h1v1H10zM11 22h1v1H11zM14 22h1v1H14zM15 22h1v1H15zM16 22h1v1H16zM17 22h1v1H17zM20 22h1v1H20zM21 22h1v1H21zM23 22h1v1H23zM24 22h1v1H24zM30 22h1v1H30zM1 23h1v1H1zM8 23h1v1H8zM10 23h1v1H10zM11 23h1v1H11zM12 23h1v1H12zM13 23h1v1H13zM14 23h1v1H14zM15 23h1v1H15zM16 23h1v1H16zM17 23h1v1H17zM18 23h1v1H18zM19 23h1v1H19zM20 23h1v1H20zM21 23h1v1H21zM23 23h1v1H23zM30 23h1v1H30zM1 24h1v1H1zM11 24h1v1H11zM12 24h1v1H12zM13 24h1v1H13zM14 24h1v1H14zM17 24h1v1H17zM18 24h1v1H18zM19 24h1v1H19zM20 24h1v1H20zM30 24h1v1H30zM2 25h1v1H2zM8 25h1v1H8zM23 25h1v1H23zM29 25h1v1H29zM2 26h1v1H2zM29 26h1v1H29z"/><path fill="#182a0b" d="M7 16h1v1H7zM24 16h1v1H24z"/><path fill="#ffffff" d="M11 17h1v1H11zM12 17h1v1H12zM19 17h1v1H19zM20 17h1v1H20zM11 18h1v1H11zM12 18h1v1H12zM13 18h1v1H13zM18 18h1v1H18zM19 18h1v1H19zM20 18h1v1H20zM11 19h1v1H11zM12 19h1v1H12zM19 19h1v1H19zM20 19h1v1H20zM11 20h1v1H11zM12 20h1v1H12zM19 20h1v1H19zM20 20h1v1H20zM11 21h1v1H11zM12 21h1v1H12zM19 21h1v1H19zM20 21h1v1H20zM12 22h1v1H12zM13 22h1v1H13zM18 22h1v1H18zM19 22h1v1H19z"/><path fill="#98a64a" d="M6 18h1v1H6zM25 18h1v1H25z"/><path fill="#070303" d="M13 19h1v1H13zM18 19h1v1H18zM13 20h1v1H13zM18 20h1v1H18z"/><path fill="#f8ead2" d="M7 24h1v1H7zM24 24h1v1H24zM6 25h1v1H6zM7 25h1v1H7zM24 25h1v1H24zM25 25h1v1H25zM7 26h1v1H7zM8 26h1v1H8zM23 26h1v1H23zM24 26h1v1H24zM8 27h1v1H8zM23 27h1v1H23z"/><path fill="#bda67a" d="M6 26h1v1H6zM25 26h1v1H25zM6 27h1v1H6zM7 27h1v1H7zM24 27h1v1H24zM25 27h1v1H25zM7 28h1v1H7zM8 28h1v1H8zM23 28h1v1H23zM24 28h1v1H24zM8 29h1v1H8zM23 29h1v1H23z"/></svg>
