<svg xmlns="http://www.w3.org/2000/svg" viewBox="0 0 32 32" shape-rendering="crispEdges"><path fill="#fcfdfe" d="M2 1h1v1H2zM29 1h1v1H29zM3 3h1v1H3zM7 3h1v1H7zM24 3h1v1H24zM28 3h1v1H28zM3 4h1v1H3zM4 4h1v1H4zM5 4h1v1H5zM8 4h1v1H8zM23 4h1v1H23zM26 4h1v1H26zM27 4h1v1H27zM28 4h1v1H28zM4 5h1v1H4zM5 5h1v1H5zM6 5h1v1H6zM9 5h1v1H9zM12 5h1v1H12zM13 5h1v1H13zM18 5h1v1H18zM19 5h1v1H19zM22 5h1v1H22zM25 5h1v1H25zM26 5h1v1H26zM27 5h1v1H27zM8 6h1v1H8zM10 6h1v1H10zM13 6h1v1H13zM14 6h1v1H14zM17 6h1v1H17zM18 6h1v1H18zM21 6h1v1H21zM23 6h1v1H23zM1 7h1v1H1zM11 7h1v1H11zM12 7h1v1H12zM14 7h1v1H14zM17 7h1v1H17zM19 7h1v1H19zM20 7h1v1H20zM30 7h1v1H30zM1 8h1v1H1zM2 8h1v1H2zM29 8h1v1H29zM30 8h1v1H30zM2 9h1v1H2zM3 9h1v1H3zM6 9h1v1H6zM8 9h1v1H8zM9 9h1v1H9zM10 9h1v1H10zM11 9h1v1H11zM20 9h1v1H20zM21 9h1v1H21zM22 9h1v1H22zM23 9h1v1H23zM25 9h1v1H25zM28 9h1v1H28zM29 9h1v1H29zM3 10h1v1H3zM4 10h1v1H4zM6 10h1v1H6zM8 10h1v1H8zM9 10h1v1H9zM10 10h1v1H10zM11 10h1v1H11zM20 10h1v1H20zM21 10h1v1H21zM22 10h1v1H22zM23 10h1v1H23zM25 10h1v1H25zM27 10h1v1H27zM28 10h1v1H28zM8 11h1v1H8zM11 11h1v1H11zM14 11h1v1H14zM15 11h1v1H15zM16 11h1v1H16zM17 11h1v1H17zM20 11h1v1H20zM23 11h1v1H23zM1 12h1v1H1zM2 12h1v1H2zM4 12h1v1H4zM10 12h1v1H10zM11 12h1v1H11zM12 12h1v1H12zM19 12h1v1H19zM20 12h1v1H20zM21 12h1v1H21zM27 12h1v1H27zM29 12h1v1H29zM30 12h1v1H30zM1 13h1v1H1zM2 13h1v1H2zM3 13h1v1H3zM9 13h1v1H9zM11 13h1v1H11zM20 13h1v1H20zM22 13h1v1H22zM28 13h1v1H28zM29 13h1v1H29zM30 13h1v1H30zM2 14h1v1H2zM4 14h1v1H4zM8 14h1v1H8zM9 14h1v1H9zM10 14h1v1H10zM21 14h1v1H21zM22 14h1v1H22zM23 14h1v1H23zM27 14h1v1H27zM29 14h1v1H29zM4 15h1v1H4zM9 15h1v1H9zM22 15h1v1H22zM27 15h1v1H27zM1 17h1v1H1zM30 17h1v1H30zM0 19h1v1H0zM4 19h1v1H4zM27 19h1v1H27zM31 19h1v1H31zM4 20h1v1H4zM27 20h1v1H27zM4 25h1v1H4zM10 25h1v1H10zM21 25h1v1H21zM27 25h1v1H27zM3 26h1v1H3zM4 26h1v1H4zM8 26h1v1H8zM23 26h1v1H23zM27 26h1v1H27zM28 26h1v1H28zM3 27h1v1H3zM4 27h1v1H4zM6 27h1v1H6zM7 27h1v1H7zM9 27h1v1H9zM13 27h1v1H13zM14 27h1v1H14zM17 27h1v1H17zM18 27h1v1H18zM22 27h1v1H22zM24 27h1v1H24zM25 27h1v1H25zM27 27h1v1H27zM28 27h1v1H28zM2 28h1v1H2zM7 28h1v1H7zM8 28h1v1H8zM14 28h1v1H14zM17 28h1v1H17zM23 28h1v1H23zM24 28h1v1H24zM29 28h1v1H29zM15 29h1v1H15zM16 29h1v1H16z"/><path fill="#2b6cd5" d="M3 1h1v1H3zM28 1h1v1H28zM10 8h1v1H10zM11 8h1v1H11zM20 8h1v1H20zM21 8h1v1H21zM0 9h1v1H0zM31 9h1v1H31zM2 11h1v1H2zM29 11h1v1H29zM0 12h1v1H0zM31 12h1v1H31zM0 13h1v1H0zM4 13h1v1H4zM27 13h1v1H27zM31 13h1v1H31zM5 14h1v1H5zM26 14h1v1H26zM4 18h1v1H4zM27 18h1v1H27zM2 20h1v1H2zM29 20h1v1H29zM5 24h1v1H5zM26 24h1v1H26zM7 26h1v1H7zM24 26h1v1H24zM5 28h1v1H5zM26 28h1v1H26zM6 29h1v1H6zM25 29h1v1H25z"/><path fill="#0f42a2" d="M6 1h1v1H6zM25 1h1v1H25zM1 2h1v1H1zM6 2h1v1H6zM25 2h1v1H25zM30 2h1v1H30zM1 3h1v1H1zM30 3h1v1H30zM1 4h1v1H1zM12 4h1v1H12zM19 4h1v1H19zM30 4h1v1H30zM11 5h1v1H11zM20 5h1v1H20zM11 6h1v1H11zM20 6h1v1H20zM5 13h1v1H5zM26 13h1v1H26zM1 16h1v1H1zM30 16h1v1H30zM4 23h1v1H4zM27 23h1v1H27zM8 27h1v1H8zM23 27h1v1H23zM10 28h1v1H10zM11 28h1v1H11zM12 28h1v1H12zM19 28h1v1H19zM20 28h1v1H20zM21 28h1v1H21z"/><path fill="#a8ccf8" d="M2 2h1v1H2zM3 2h1v1H3zM28 2h1v1H28zM29 2h1v1H29zM2 3h1v1H2zM4 3h1v1H4zM15 3h1v1H15zM16 3h1v1H16zM27 3h1v1H27zM29 3h1v1H29zM2 4h1v1H2zM7 4h1v1H7zM14 4h1v1H14zM17 4h1v1H17zM24 4h1v1H24zM29 4h1v1H29zM8 5h1v1H8zM14 5h1v1H14zM17 5h1v1H17zM23 5h1v1H23zM3 6h1v1H3zM9 6h1v1H9zM15 6h1v1H15zM16 6h1v1H16zM22 6h1v1H22zM28 6h1v1H28zM10 7h1v1H10zM21 7h1v1H21zM4 8h1v1H4zM6 8h1v1H6zM25 8h1v1H25zM27 8h1v1H27zM1 9h1v1H1zM5 9h1v1H5zM7 9h1v1H7zM24 9h1v1H24zM26 9h1v1H26zM30 9h1v1H30zM2 10h1v1H2zM13 10h1v1H13zM14 10h1v1H14zM17 10h1v1H17zM18 10h1v1H18zM29 10h1v1H29zM3 11h1v1H3zM4 11h1v1H4zM27 11h1v1H27zM28 11h1v1H28zM9 12h1v1H9zM22 12h1v1H22zM6 13h1v1H6zM25 13h1v1H25zM3 14h1v1H3zM6 14h1v1H6zM25 14h1v1H25zM28 14h1v1H28zM7 16h1v1H7zM24 16h1v1H24zM7 17h1v1H7zM24 17h1v1H24zM1 18h1v1H1zM5 18h1v1H5zM7 18h1v1H7zM10 18h1v1H10zM21 18h1v1H21zM24 18h1v1H24zM26 18h1v1H26zM30 18h1v1H30zM2 19h1v1H2zM6 19h1v1H6zM7 19h1v1H7zM24 19h1v1H24zM25 19h1v1H25zM29 19h1v1H29zM8 20h1v1H8zM23 20h1v1H23zM5 22h1v1H5zM7 22h1v1H7zM24 22h1v1H24zM26 22h1v1H26zM6 23h1v1H6zM8 23h1v1H8zM10 23h1v1H10zM21 23h1v1H21zM23 23h1v1H23zM25 23h1v1H25zM6 24h1v1H6zM7 24h1v1H7zM9 24h1v1H9zM22 24h1v1H22zM24 24h1v1H24zM25 24h1v1H25zM7 25h1v1H7zM12 25h1v1H12zM17 25h1v1H17zM19 25h1v1H19zM24 25h1v1H24zM5 26h1v1H5zM9 26h1v1H9zM11 26h1v1H11zM17 26h1v1H17zM18 26h1v1H18zM20 26h1v1H20zM22 26h1v1H22zM26 26h1v1H26zM5 27h1v1H5zM15 27h1v1H15zM16 27h1v1H16zM26 27h1v1H26zM3 28h1v1H3zM6 28h1v1H6zM25 28h1v1H25zM28 28h1v1H28zM8 29h1v1H8zM23 29h1v1H23z"/><path fill="#1b5ac9" d="M4 2h1v1H4zM7 2h1v1H7zM14 2h1v1H14zM15 2h1v1H15zM16 2h1v1H16zM17 2h1v1H17zM24 2h1v1H24zM27 2h1v1H27zM8 3h1v1H8zM13 3h1v1H13zM18 3h1v1H18zM23 3h1v1H23zM9 4h1v1H9zM22 4h1v1H22zM10 5h1v1H10zM21 5h1v1H21zM1 6h1v1H1zM30 6h1v1H30zM0 7h1v1H0zM31 7h1v1H31zM0 8h1v1H0zM3 8h1v1H3zM12 8h1v1H12zM13 8h1v1H13zM18 8h1v1H18zM19 8h1v1H19zM28 8h1v1H28zM31 8h1v1H31zM0 11h1v1H0zM1 11h1v1H1zM5 11h1v1H5zM26 11h1v1H26zM30 11h1v1H30zM31 11h1v1H31zM0 20h1v1H0zM31 20h1v1H31zM1 21h1v1H1zM30 21h1v1H30zM3 25h1v1H3zM28 25h1v1H28zM2 26h1v1H2zM29 26h1v1H29zM2 27h1v1H2zM10 27h1v1H10zM21 27h1v1H21zM29 27h1v1H29zM9 28h1v1H9zM22 28h1v1H22zM4 29h1v1H4zM5 29h1v1H5zM13 29h1v1H13zM18 29h1v1H18zM26 29h1v1H26zM27 29h1v1H27zM7 30h1v1H7zM24 30h1v1H24z"/><path fill="#3379e1" d="M5 3h1v1H5zM26 3h1v1H26zM3 7h1v1H3zM8 7h1v1H8zM23 7h1v1H23zM28 7h1v1H28zM7 8h1v1H7zM24 8h1v1H24zM4 9h1v1H4zM27 9h1v1H27zM1 10h1v1H1zM5 10h1v1H5zM26 10h1v1H26zM30 10h1v1H30zM3 12h1v1H3zM28 12h1v1H28zM1 14h1v1H1zM30 14h1v1H30zM5 19h1v1H5zM10 19h1v1H10zM21 19h1v1H21zM26 19h1v1H26zM6 20h1v1H6zM25 20h1v1H25zM7 21h1v1H7zM13 21h1v1H13zM18 21h1v1H18zM24 21h1v1H24zM4 22h1v1H4zM27 22h1v1H27zM4 24h1v1H4zM27 24h1v1H27zM6 26h1v1H6zM25 26h1v1H25zM11 27h1v1H11zM20 27h1v1H20zM3 29h1v1H3zM7 29h1v1H7zM9 29h1v1H9zM22 29h1v1H22zM24 29h1v1H24zM28 29h1v1H28z"/><path fill="#0d52cb" d="M6 3h1v1H6zM25 3h1v1H25zM6 4h1v1H6zM25 4h1v1H25zM1 5h1v1H1zM30 5h1v1H30zM0 6h1v1H0zM2 6h1v1H2zM29 6h1v1H29zM31 6h1v1H31zM2 7h1v1H2zM29 7h1v1H29zM8 8h1v1H8zM9 8h1v1H9zM22 8h1v1H22zM23 8h1v1H23zM5 12h1v1H5zM26 12h1v1H26zM1 15h1v1H1zM2 15h1v1H2zM29 15h1v1H29zM30 15h1v1H30zM3 16h1v1H3zM28 16h1v1H28zM10 20h1v1H10zM21 20h1v1H21zM1 28h1v1H1zM30 28h1v1H30zM1 29h1v1H1zM2 29h1v1H2zM10 29h1v1H10zM12 29h1v1H12zM19 29h1v1H19zM21 29h1v1H21zM29 29h1v1H29zM30 29h1v1H30zM8 30h1v1H8zM9 30h1v1H9zM13 30h1v1H13zM18 30h1v1H18zM22 30h1v1H22zM23 30h1v1H23z"/><path fill="#e2f0ff" d="M14 3h1v1H14zM17 3h1v1H17zM13 4h1v1H13zM18 4h1v1H18zM3 5h1v1H3zM15 5h1v1H15zM16 5h1v1H16zM28 5h1v1H28zM6 6h1v1H6zM12 6h1v1H12zM19 6h1v1H19zM25 6h1v1H25zM4 7h1v1H4zM6 7h1v1H6zM13 7h1v1H13zM18 7h1v1H18zM25 7h1v1H25zM27 7h1v1H27zM5 8h1v1H5zM15 8h1v1H15zM16 8h1v1H16zM26 8h1v1H26zM12 9h1v1H12zM14 9h1v1H14zM17 9h1v1H17zM19 9h1v1H19zM6 11h1v1H6zM7 11h1v1H7zM9 11h1v1H9zM10 11h1v1H10zM21 11h1v1H21zM22 11h1v1H22zM24 11h1v1H24zM25 11h1v1H25zM6 12h1v1H6zM7 12h1v1H7zM24 12h1v1H24zM25 12h1v1H25zM7 13h1v1H7zM8 13h1v1H8zM23 13h1v1H23zM24 13h1v1H24zM7 14h1v1H7zM24 14h1v1H24zM7 15h1v1H7zM8 15h1v1H8zM23 15h1v1H23zM24 15h1v1H24zM6 16h1v1H6zM8 16h1v1H8zM23 16h1v1H23zM25 16h1v1H25zM5 17h1v1H5zM8 17h1v1H8zM23 17h1v1H23zM26 17h1v1H26zM6 18h1v1H6zM8 18h1v1H8zM23 18h1v1H23zM25 18h1v1H25zM8 19h1v1H8zM23 19h1v1H23zM5 20h1v1H5zM26 20h1v1H26zM6 21h1v1H6zM8 21h1v1H8zM23 21h1v1H23zM25 21h1v1H25zM8 22h1v1H8zM23 22h1v1H23zM7 23h1v1H7zM24 23h1v1H24zM8 24h1v1H8zM10 24h1v1H10zM11 24h1v1H11zM12 24h1v1H12zM13 24h1v1H13zM15 24h1v1H15zM16 24h1v1H16zM18 24h1v1H18zM19 24h1v1H19zM20 24h1v1H20zM21 24h1v1H21zM23 24h1v1H23zM8 25h1v1H8zM9 25h1v1H9zM11 25h1v1H11zM14 25h1v1H14zM20 25h1v1H20zM22 25h1v1H22zM23 25h1v1H23zM13 26h1v1H13zM14 26h1v1H14z"/><path fill="#f1f7ff" d="M15 4h1v1H15zM16 4h1v1H16zM4 6h1v1H4zM5 6h1v1H5zM26 6h1v1H26zM27 6h1v1H27zM5 7h1v1H5zM26 7h1v1H26zM7 10h1v1H7zM24 10h1v1H24zM8 12h1v1H8zM23 12h1v1H23zM5 15h1v1H5zM26 15h1v1H26zM5 16h1v1H5zM26 16h1v1H26zM6 17h1v1H6zM25 17h1v1H25zM1 19h1v1H1zM30 19h1v1H30zM1 20h1v1H1zM30 20h1v1H30zM5 21h1v1H5zM26 21h1v1H26zM6 22h1v1H6zM25 22h1v1H25zM9 23h1v1H9zM22 23h1v1H22z"/><path fill="#2f8bf3" d="M2 5h1v1H2zM7 5h1v1H7zM24 5h1v1H24zM29 5h1v1H29zM7 6h1v1H7zM24 6h1v1H24zM9 7h1v1H9zM15 7h1v1H15zM16 7h1v1H16zM22 7h1v1H22zM3 15h1v1H3zM28 15h1v1H28zM5 25h1v1H5zM26 25h1v1H26zM15 28h1v1H15zM16 28h1v1H16zM14 30h1v1H14zM17 30h1v1H17z"/><path fill="#5c96e9" d="M7 7h1v1H7zM24 7h1v1H24zM15 12h1v1H15zM16 12h1v1H16zM6 15h1v1H6zM25 15h1v1H25zM4 16h1v1H4zM27 16h1v1H27zM4 17h1v1H4zM27 17h1v1H27zM7 20h1v1H7zM24 20h1v1H24zM4 21h1v1H4zM27 21h1v1H27zM9 22h1v1H9zM22 22h1v1H22zM5 23h1v1H5zM26 23h1v1H26zM6 25h1v1H6zM25 25h1v1H25zM10 26h1v1H10zM21 26h1v1H21zM4 28h1v1H4zM27 28h1v1H27z"/><path fill="#c0aa94" d="M14 8h1v1H14zM17 8h1v1H17zM13 9h1v1H13zM18 9h1v1H18zM12 10h1v1H12zM19 10h1v1H19zM12 27h1v1H12zM19 27h1v1H19zM13 28h1v1H13zM18 28h1v1H18zM14 29h1v1H14zM17 29h1v1H17zM15 30h1v1H15zM16 30h1v1H16z"/><path fill="#ffffff" d="M15 9h1v1H15zM16 9h1v1H16zM15 10h1v1H15zM16 10h1v1H16zM11 17h1v1H11zM12 17h1v1H12zM19 17h1v1H19zM20 17h1v1H20zM11 18h1v1H11zM12 18h1v1H12zM13 18h1v1H13zM18 18h1v1H18zM19 18h1v1H19zM20 18h1v1H20zM11 19h1v1H11zM12 19h1v1H12zM19 19h1v1H19zM20 19h1v1H20zM11 20h1v1H11zM12 20h1v1H12zM19 20h1v1H19zM20 20h1v1H20zM11 21h1v1H11zM12 21h1v1H12zM19 21h1v1H19zM20 21h1v1H20zM12 22h1v1H12zM13 22h1v1H13zM18 22h1v1H18zM19 22h1v1H19zM15 25h1v1H15zM16 25h1v1H16zM15 26h1v1H15zM16 26h1v1H16z"/><path fill="#786c63" d="M12 11h1v1H12zM19 11h1v1H19zM13 12h1v1H13zM18 12h1v1H18zM14 13h1v1H14zM17 13h1v1H17zM15 14h1v1H15zM16 14h1v1H16z"/><path fill="#f9e8d1" d="M13 11h1v1H13zM18 11h1v1H18zM14 12h1v1H14zM17 12h1v1H17zM15 13h1v1H15zM16 13h1v1H16zM15 23h1v1H15zM16 23h1v1H16zM14 24h1v1H14zM17 24h1v1H17zM13 25h1v1H13zM18 25h1v1H18zM12 26h1v1H12zM19 26h1v1H19z"/><path fill="#041b47" d="M10 13h1v1H10zM12 13h1v1H12zM13 13h1v1H13zM18 13h1v1H18zM19 13h1v1H19zM21 13h1v1H21zM9 21h1v1H9zM22 21h1v1H22zM10 22h1v1H10zM21 22h1v1H21z"/><path fill="#000000" d="M11 14h1v1H11zM12 14h1v1H12zM13 14h1v1H13zM14 14h1v1H14zM17 14h1v1H17zM18 14h1v1H18zM19 14h1v1H19zM20 14h1v1H20zM10 15h1v1H10zM11 15h1v1H11zM12 15h1v1H12zM13 15h1v1H13zM14 15h1v1H14zM15 15h1v1H15zM16 15h1v1H16zM17 15h1v1H17zM18 15h1v1H18zM19 15h1v1H19zM20 15h1v1H20zM21 15h1v1H21zM9 16h1v1H9zM10 16h1v1H10zM11 16h1v1H11zM12 16h1v1H12zM13 16h1v1H13zM14 16h1v1H14zM15 16h1v1H15zM16 16h1v1H16zM17 16h1v1H17zM18 16h1v1H18zM19 16h1v1H19zM20 16h1v1H20zM21 16h1v1H21zM22 16h1v1H22zM9 17h1v1H9zM10 17h1v1H10zM13 17h1v1H13zM14 17h1v1H14zM15 17h1v1H15zM16 17h1v1H16zM17 17h1v1H17zM18 17h1v1H18zM21 17h1v1H21zM22 17h1v1H22zM9 18h1v1H9zM14 18h1v1H14zM15 18h1v1H15zM16 18h1v1H16zM17 18h1v1H17zM22 18h1v1H22zM9 19h1v1H9zM13 19h1v1H13zM14 19h1v1H14zM15 19h1v1H15zM16 19h1v1H16zM17 19h1v1H17zM18 19h1v1H18zM22 19h1v1H22zM9 20h1v1H9zM13 20h1v1H13zM14 20h1v1H14zM15 20h1v1H15zM16 20h1v1H16zM17 20h1v1H17zM18 20h1v1H18zM22 20h1v1H22zM10 21h1v1H10zM14 21h1v1H14zM15 21h1v1H15zM16 21h1v1H16zM17 21h1v1H17zM21 21h1v1H21zM11 22h1v1H11zM14 22h1v1H14zM15 22h1v1H15zM16 22h1v1H16zM17 22h1v1H17zM20 22h1v1H20zM11 23h1v1H11zM12 23h1v1H12zM13 23h1v1H13zM14 23h1v1H14zM17 23h1v1H17zM18 23h1v1H18zM19 23h1v1H19zM20 23h1v1H20z"/></svg>
