<svg xmlns="http://www.w3.org/2000/svg" viewBox="0 0 32 32" shape-rendering="crispEdges"><path fill="#ebf0f6" d="M13 1h1v1H13zM14 1h1v1H14zM15 1h1v1H15zM11 2h1v1H11zM12 2h1v1H12zM16 2h1v1H16zM11 3h1v1H11zM10 4h1v1H10zM13 4h1v1H13zM5 5h1v1H5zM10 5h1v1H10zM13 5h1v1H13zM25 5h1v1H25zM26 5h1v1H26zM5 6h1v1H5zM6 6h1v1H6zM10 6h1v1H10zM14 6h1v1H14zM24 6h1v1H24zM25 6h1v1H25zM26 6h1v1H26zM4 7h1v1H4zM5 7h1v1H5zM6 7h1v1H6zM10 7h1v1H10zM11 7h1v1H11zM19 7h1v1H19zM25 7h1v1H25zM26 7h1v1H26zM27 7h1v1H27zM5 8h1v1H5zM6 8h1v1H6zM7 8h1v1H7zM11 8h1v1H11zM12 8h1v1H12zM13 8h1v1H13zM18 8h1v1H18zM24 8h1v1H24zM25 8h1v1H25zM26 8h1v1H26zM3 9h1v1H3zM4 9h1v1H4zM6 9h1v1H6zM7 9h1v1H7zM8 9h1v1H8zM23 9h1v1H23zM24 9h1v1H24zM25 9h1v1H25zM27 9h1v1H27zM28 9h1v1H28zM3 10h1v1H3zM4 10h1v1H4zM27 10h1v1H27zM28 10h1v1H28zM4 11h1v1H4zM5 11h1v1H5zM26 11h1v1H26zM27 11h1v1H27zM2 13h1v1H2zM29 13h1v1H29zM3 14h1v1H3zM8 14h1v1H8zM23 14h1v1H23zM28 14h1v1H28zM4 15h1v1H4zM8 15h1v1H8zM23 15h1v1H23zM27 15h1v1H27zM1 16h1v1H1zM2 16h1v1H2zM3 16h1v1H3zM8 16h1v1H8zM23 16h1v1H23zM28 16h1v1H28zM29 16h1v1H29zM30 16h1v1H30zM1 17h1v1H1zM4 17h1v1H4zM8 17h1v1H8zM23 17h1v1H23zM27 17h1v1H27zM30 17h1v1H30zM5 18h1v1H5zM8 18h1v1H8zM23 18h1v1H23zM26 18h1v1H26zM1 19h1v1H1zM3 19h1v1H3zM6 19h1v1H6zM8 19h1v1H8zM23 19h1v1H23zM25 19h1v1H25zM28 19h1v1H28zM30 19h1v1H30zM2 20h1v1H2zM3 20h1v1H3zM4 20h1v1H4zM6 20h1v1H6zM8 20h1v1H8zM23 20h1v1H23zM25 20h1v1H25zM27 20h1v1H27zM28 20h1v1H28zM29 20h1v1H29zM1 21h1v1H1zM5 21h1v1H5zM6 21h1v1H6zM8 21h1v1H8zM23 21h1v1H23zM25 21h1v1H25zM26 21h1v1H26zM30 21h1v1H30zM2 22h1v1H2zM3 22h1v1H3zM4 22h1v1H4zM6 22h1v1H6zM8 22h1v1H8zM9 22h1v1H9zM22 22h1v1H22zM23 22h1v1H23zM25 22h1v1H25zM27 22h1v1H27zM28 22h1v1H28zM29 22h1v1H29zM1 23h1v1H1zM3 23h1v1H3zM5 23h1v1H5zM6 23h1v1H6zM8 23h1v1H8zM9 23h1v1H9zM10 23h1v1H10zM21 23h1v1H21zM22 23h1v1H22zM23 23h1v1H23zM25 23h1v1H25zM26 23h1v1H26zM28 23h1v1H28zM30 23h1v1H30zM6 24h1v1H6zM25 24h1v1H25z"/><path fill="#c3d9f8" d="M13 2h1v1H13zM12 3h1v1H12zM11 4h1v1H11zM12 4h1v1H12zM11 5h1v1H11zM12 5h1v1H12zM11 6h1v1H11zM12 6h1v1H12zM13 6h1v1H13zM7 7h1v1H7zM12 7h1v1H12zM13 7h1v1H13zM14 7h1v1H14zM24 7h1v1H24zM8 8h1v1H8zM23 8h1v1H23zM5 9h1v1H5zM9 9h1v1H9zM22 9h1v1H22zM26 9h1v1H26zM6 10h1v1H6zM25 10h1v1H25zM10 13h1v1H10zM21 13h1v1H21zM9 14h1v1H9zM22 14h1v1H22zM11 24h1v1H11zM12 24h1v1H12zM19 24h1v1H19zM20 24h1v1H20zM11 25h1v1H11zM20 25h1v1H20z"/><path fill="#6188c3" d="M14 2h1v1H14zM4 8h1v1H4zM27 8h1v1H27zM5 24h1v1H5zM26 24h1v1H26zM11 26h1v1H11zM20 26h1v1H20z"/><path fill="#3c78c7" d="M15 2h1v1H15zM18 2h1v1H18zM16 3h1v1H16zM18 3h1v1H18zM16 5h1v1H16zM18 5h1v1H18zM20 5h1v1H20zM15 6h1v1H15zM16 6h1v1H16zM18 6h1v1H18zM19 6h1v1H19zM20 6h1v1H20zM6 12h1v1H6zM25 12h1v1H25zM4 13h1v1H4zM6 13h1v1H6zM25 13h1v1H25zM27 13h1v1H27zM5 14h1v1H5zM6 14h1v1H6zM25 14h1v1H25zM26 14h1v1H26zM5 15h1v1H5zM26 15h1v1H26zM3 18h1v1H3zM28 18h1v1H28zM2 19h1v1H2zM29 19h1v1H29zM5 20h1v1H5zM26 20h1v1H26zM2 24h1v1H2zM4 24h1v1H4zM7 24h1v1H7zM24 24h1v1H24zM27 24h1v1H27zM29 24h1v1H29zM3 25h1v1H3zM4 25h1v1H4zM7 25h1v1H7zM24 25h1v1H24zM27 25h1v1H27zM28 25h1v1H28zM10 26h1v1H10zM21 26h1v1H21zM15 30h1v1H15zM16 30h1v1H16z"/><path fill="#6baae8" d="M17 2h1v1H17zM15 4h1v1H15zM19 4h1v1H19zM17 6h1v1H17zM9 10h1v1H9zM10 10h1v1H10zM11 10h1v1H11zM20 10h1v1H20zM21 10h1v1H21zM22 10h1v1H22zM17 11h1v1H17zM15 12h1v1H15zM16 12h1v1H16zM11 13h1v1H11zM20 13h1v1H20zM9 15h1v1H9zM22 15h1v1H22zM7 17h1v1H7zM9 17h1v1H9zM22 17h1v1H22zM24 17h1v1H24zM9 18h1v1H9zM22 18h1v1H22zM9 19h1v1H9zM22 19h1v1H22zM9 20h1v1H9zM22 20h1v1H22zM2 23h1v1H2zM29 23h1v1H29zM3 24h1v1H3zM9 24h1v1H9zM22 24h1v1H22zM28 24h1v1H28zM10 25h1v1H10zM17 25h1v1H17zM21 25h1v1H21zM15 26h1v1H15zM16 26h1v1H16zM14 29h1v1H14zM17 29h1v1H17z"/><path fill="#b0c9e9" d="M13 3h1v1H13z"/><path fill="#2759a6" d="M14 3h1v1H14zM14 4h1v1H14zM14 5h1v1H14zM17 7h1v1H17zM18 7h1v1H18zM3 8h1v1H3zM28 8h1v1H28zM3 12h1v1H3zM28 12h1v1H28zM3 13h1v1H3zM28 13h1v1H28zM4 14h1v1H4zM27 14h1v1H27zM2 15h1v1H2zM6 15h1v1H6zM25 15h1v1H25zM29 15h1v1H29zM6 16h1v1H6zM25 16h1v1H25zM1 20h1v1H1zM10 20h1v1H10zM21 20h1v1H21zM30 20h1v1H30zM6 26h1v1H6zM25 26h1v1H25zM10 27h1v1H10zM21 27h1v1H21zM10 28h1v1H10zM12 28h1v1H12zM19 28h1v1H19zM20 28h1v1H20zM21 28h1v1H21zM7 29h1v1H7zM8 29h1v1H8zM13 29h1v1H13zM18 29h1v1H18zM23 29h1v1H23zM24 29h1v1H24z"/><path fill="#418adb" d="M15 3h1v1H15zM19 3h1v1H19zM20 4h1v1H20zM15 5h1v1H15zM19 5h1v1H19zM8 10h1v1H8zM23 10h1v1H23zM7 11h1v1H7zM24 11h1v1H24zM3 17h1v1H3zM28 17h1v1H28zM2 18h1v1H2zM4 18h1v1H4zM27 18h1v1H27zM29 18h1v1H29zM4 19h1v1H4zM5 19h1v1H5zM26 19h1v1H26zM27 19h1v1H27zM7 27h1v1H7zM12 27h1v1H12zM15 27h1v1H15zM16 27h1v1H16zM19 27h1v1H19zM24 27h1v1H24zM13 28h1v1H13zM18 28h1v1H18z"/><path fill="#deebfa" d="M17 3h1v1H17zM16 4h1v1H16zM18 4h1v1H18zM17 5h1v1H17zM5 12h1v1H5zM10 12h1v1H10zM11 12h1v1H11zM20 12h1v1H20zM21 12h1v1H21zM26 12h1v1H26zM7 13h1v1H7zM24 13h1v1H24zM7 14h1v1H7zM24 14h1v1H24zM7 15h1v1H7zM24 15h1v1H24zM7 16h1v1H7zM24 16h1v1H24zM10 18h1v1H10zM21 18h1v1H21zM3 21h1v1H3zM28 21h1v1H28zM15 23h1v1H15zM16 23h1v1H16zM13 25h1v1H13zM18 25h1v1H18z"/><path fill="#ffffff" d="M17 4h1v1H17zM15 8h1v1H15zM16 8h1v1H16zM14 9h1v1H14zM17 9h1v1H17zM13 10h1v1H13zM18 10h1v1H18zM12 11h1v1H12zM19 11h1v1H19zM13 12h1v1H13zM18 12h1v1H18zM14 13h1v1H14zM17 13h1v1H17zM15 14h1v1H15zM16 14h1v1H16zM11 17h1v1H11zM12 17h1v1H12zM19 17h1v1H19zM20 17h1v1H20zM11 18h1v1H11zM12 18h1v1H12zM13 18h1v1H13zM18 18h1v1H18zM19 18h1v1H19zM20 18h1v1H20zM11 19h1v1H11zM12 19h1v1H12zM19 19h1v1H19zM20 19h1v1H20zM11 20h1v1H11zM12 20h1v1H12zM19 20h1v1H19zM20 20h1v1H20zM11 21h1v1H11zM12 21h1v1H12zM19 21h1v1H19zM20 21h1v1H20zM12 22h1v1H12zM13 22h1v1H13zM18 22h1v1H18zM19 22h1v1H19z"/><path fill="#224582" d="M21 5h1v1H21zM4 6h1v1H4zM21 6h1v1H21zM27 6h1v1H27zM9 7h1v1H9zM20 7h1v1H20zM21 7h1v1H21zM22 7h1v1H22zM10 8h1v1H10zM19 8h1v1H19zM20 8h1v1H20zM21 8h1v1H21zM1 24h1v1H1zM30 24h1v1H30zM1 25h1v1H1zM30 25h1v1H30zM2 26h1v1H2zM12 26h1v1H12zM19 26h1v1H19zM29 26h1v1H29zM3 27h1v1H3zM4 27h1v1H4zM5 27h1v1H5zM11 27h1v1H11zM13 27h1v1H13zM18 27h1v1H18zM20 27h1v1H20zM26 27h1v1H26zM27 27h1v1H27zM28 27h1v1H28zM14 28h1v1H14zM17 28h1v1H17zM9 29h1v1H9zM15 29h1v1H15zM16 29h1v1H16zM21 29h1v1H21zM22 29h1v1H22z"/><path fill="#406aa9" d="M8 7h1v1H8zM23 7h1v1H23zM9 8h1v1H9zM22 8h1v1H22zM11 9h1v1H11zM20 9h1v1H20zM3 11h1v1H3zM28 11h1v1H28zM10 14h1v1H10zM21 14h1v1H21zM1 22h1v1H1zM30 22h1v1H30zM6 28h1v1H6zM25 28h1v1H25z"/><path fill="#d1b594" d="M15 7h1v1H15zM16 7h1v1H16zM14 8h1v1H14zM13 9h1v1H13zM12 10h1v1H12zM20 11h1v1H20zM19 12h1v1H19zM18 13h1v1H18zM17 14h1v1H17zM4 16h1v1H4zM27 16h1v1H27zM5 17h1v1H5zM26 17h1v1H26zM6 18h1v1H6zM25 18h1v1H25zM15 22h1v1H15zM16 22h1v1H16zM14 23h1v1H14zM17 23h1v1H17zM13 24h1v1H13zM18 24h1v1H18zM12 25h1v1H12zM19 25h1v1H19z"/><path fill="#a08e7e" d="M17 8h1v1H17zM18 9h1v1H18zM19 10h1v1H19zM11 11h1v1H11zM12 12h1v1H12zM13 13h1v1H13zM14 14h1v1H14zM15 15h1v1H15zM16 15h1v1H16zM13 26h1v1H13zM18 26h1v1H18zM14 27h1v1H14zM17 27h1v1H17zM15 28h1v1H15zM16 28h1v1H16z"/><path fill="#90c3ef" d="M10 9h1v1H10zM21 9h1v1H21zM5 10h1v1H5zM7 10h1v1H7zM24 10h1v1H24zM26 10h1v1H26zM6 11h1v1H6zM25 11h1v1H25zM4 12h1v1H4zM27 12h1v1H27zM5 13h1v1H5zM12 13h1v1H12zM19 13h1v1H19zM26 13h1v1H26zM9 16h1v1H9zM22 16h1v1H22zM10 19h1v1H10zM21 19h1v1H21zM2 21h1v1H2zM4 21h1v1H4zM9 21h1v1H9zM13 21h1v1H13zM18 21h1v1H18zM22 21h1v1H22zM27 21h1v1H27zM29 21h1v1H29zM5 22h1v1H5zM26 22h1v1H26zM4 23h1v1H4zM27 23h1v1H27zM10 24h1v1H10zM21 24h1v1H21zM8 25h1v1H8zM23 25h1v1H23z"/><path fill="#8d99b3" d="M12 9h1v1H12zM19 9h1v1H19zM7 19h1v1H7zM24 19h1v1H24zM7 20h1v1H7zM24 20h1v1H24zM7 21h1v1H7zM24 21h1v1H24zM2 25h1v1H2zM6 25h1v1H6zM25 25h1v1H25zM29 25h1v1H29zM3 26h1v1H3zM5 26h1v1H5zM26 26h1v1H26zM28 26h1v1H28z"/><path fill="#65cdf9" d="M15 9h1v1H15zM16 9h1v1H16zM14 10h1v1H14zM17 10h1v1H17zM14 24h1v1H14zM17 24h1v1H17zM7 26h1v1H7zM24 26h1v1H24zM8 27h1v1H8zM23 27h1v1H23z"/><path fill="#f8fbfd" d="M15 10h1v1H15zM16 10h1v1H16zM9 11h1v1H9zM10 11h1v1H10zM14 11h1v1H14zM15 11h1v1H15zM16 11h1v1H16zM21 11h1v1H21zM22 11h1v1H22zM8 12h1v1H8zM9 12h1v1H9zM22 12h1v1H22zM23 12h1v1H23zM8 13h1v1H8zM9 13h1v1H9zM22 13h1v1H22zM23 13h1v1H23zM15 24h1v1H15zM16 24h1v1H16zM14 25h1v1H14zM15 25h1v1H15zM16 25h1v1H16zM8 26h1v1H8zM23 26h1v1H23z"/><path fill="#cedaed" d="M8 11h1v1H8zM23 11h1v1H23zM7 12h1v1H7zM24 12h1v1H24zM2 14h1v1H2zM29 14h1v1H29zM3 15h1v1H3zM28 15h1v1H28zM7 18h1v1H7zM24 18h1v1H24z"/><path fill="#1264d1" d="M13 11h1v1H13zM18 11h1v1H18zM14 12h1v1H14zM17 12h1v1H17zM15 13h1v1H15zM16 13h1v1H16zM14 26h1v1H14zM17 26h1v1H17z"/><path fill="#152a53" d="M11 14h1v1H11zM12 14h1v1H12zM13 14h1v1H13zM18 14h1v1H18zM19 14h1v1H19zM20 14h1v1H20z"/><path fill="#000000" d="M10 15h1v1H10zM11 15h1v1H11zM12 15h1v1H12zM13 15h1v1H13zM14 15h1v1H14zM17 15h1v1H17zM18 15h1v1H18zM19 15h1v1H19zM20 15h1v1H20zM21 15h1v1H21zM10 16h1v1H10zM11 16h1v1H11zM12 16h1v1H12zM13 16h1v1H13zM14 16h1v1H14zM15 16h1v1H15zM16 16h1v1H16zM17 16h1v1H17zM18 16h1v1H18zM19 16h1v1H19zM20 16h1v1H20zM21 16h1v1H21zM10 17h1v1H10zM13 17h1v1H13zM14 17h1v1H14zM15 17h1v1H15zM16 17h1v1H16zM17 17h1v1H17zM18 17h1v1H18zM21 17h1v1H21zM14 18h1v1H14zM15 18h1v1H15zM16 18h1v1H16zM17 18h1v1H17zM13 19h1v1H13zM14 19h1v1H14zM15 19h1v1H15zM16 19h1v1H16zM17 19h1v1H17zM18 19h1v1H18zM13 20h1v1H13zM14 20h1v1H14zM15 20h1v1H15zM16 20h1v1H16zM17 20h1v1H17zM18 20h1v1H18zM10 21h1v1H10zM14 21h1v1H14zM15 21h1v1H15zM16 21h1v1H16zM17 21h1v1H17zM21 21h1v1H21zM10 22h1v1H10zM11 22h1v1H11zM14 22h1v1H14zM17 22h1v1H17zM20 22h1v1H20zM21 22h1v1H21zM11 23h1v1H11zM12 23h1v1H12zM13 23h1v1H13zM18 23h1v1H18zM19 23h1v1H19zM20 23h1v1H20z"/><path fill="#9dadc5" d="M5 16h1v1H5zM26 16h1v1H26zM6 17h1v1H6zM25 17h1v1H25z"/><path fill="#425a89" d="M2 17h1v1H2zM29 17h1v1H29zM1 18h1v1H1zM30 18h1v1H30z"/><path fill="#657ba3" d="M7 22h1v1H7zM24 22h1v1H24zM7 23h1v1H7zM24 23h1v1H24z"/><path fill="#f9fcfe" d="M8 24h1v1H8zM23 24h1v1H23zM9 25h1v1H9zM22 25h1v1H22zM9 26h1v1H9zM22 26h1v1H22z"/><path fill="#c6c8cf" d="M5 25h1v1H5zM26 25h1v1H26zM4 26h1v1H4zM27 26h1v1H27z"/><path fill="#b9d2f7" d="M6 27h1v1H6zM9 27h1v1H9zM22 27h1v1H22zM25 27h1v1H25zM7 28h1v1H7zM8 28h1v1H8zM9 28h1v1H9zM22 28h1v1H22zM23 28h1v1H23zM24 28h1v1H24z"/></svg>
