<svg xmlns="http://www.w3.org/2000/svg" viewBox="0 0 32 32" shape-rendering="crispEdges"><path fill="#6716c3" d="M4 3h1v1H4zM3 4h1v1H3zM2 5h1v1H2zM10 5h1v1H10zM15 5h1v1H15zM16 5h1v1H16zM19 5h1v1H19zM21 5h1v1H21zM26 5h1v1H26zM2 6h1v1H2zM6 6h1v1H6zM10 6h1v1H10zM11 6h1v1H11zM14 6h1v1H14zM20 6h1v1H20zM27 6h1v1H27zM1 7h1v1H1zM8 7h1v1H8zM9 7h1v1H9zM18 7h1v1H18zM19 7h1v1H19zM22 7h1v1H22zM28 7h1v1H28zM1 8h1v1H1zM8 8h1v1H8zM22 8h1v1H22zM28 8h1v1H28zM1 9h1v1H1zM15 9h1v1H15zM16 9h1v1H16zM29 9h1v1H29zM1 10h1v1H1zM6 10h1v1H6zM11 10h1v1H11zM12 10h1v1H12zM16 10h1v1H16zM19 10h1v1H19zM20 10h1v1H20zM29 10h1v1H29zM2 11h1v1H2zM10 11h1v1H10zM11 11h1v1H11zM12 11h1v1H12zM19 11h1v1H19zM20 11h1v1H20zM21 11h1v1H21zM29 11h1v1H29zM3 12h1v1H3zM6 12h1v1H6zM11 12h1v1H11zM12 12h1v1H12zM20 12h1v1H20zM23 12h1v1H23zM25 12h1v1H25zM27 12h1v1H27zM28 12h1v1H28zM29 12h1v1H29zM5 13h1v1H5zM6 13h1v1H6zM9 13h1v1H9zM12 13h1v1H12zM13 13h1v1H13zM14 13h1v1H14zM17 13h1v1H17zM18 13h1v1H18zM19 13h1v1H19zM25 13h1v1H25zM26 13h1v1H26zM1 14h1v1H1zM4 14h1v1H4zM5 14h1v1H5zM6 14h1v1H6zM8 14h1v1H8zM9 14h1v1H9zM10 14h1v1H10zM11 14h1v1H11zM12 14h1v1H12zM19 14h1v1H19zM20 14h1v1H20zM21 14h1v1H21zM22 14h1v1H22zM23 14h1v1H23zM25 14h1v1H25zM26 14h1v1H26zM5 15h1v1H5zM6 15h1v1H6zM13 15h1v1H13zM18 15h1v1H18zM25 15h1v1H25zM26 15h1v1H26zM2 16h1v1H2zM6 16h1v1H6zM25 16h1v1H25zM3 17h1v1H3zM6 17h1v1H6zM15 17h1v1H15zM16 17h1v1H16zM25 17h1v1H25zM28 17h1v1H28zM4 18h1v1H4zM5 18h1v1H5zM6 18h1v1H6zM25 18h1v1H25zM27 18h1v1H27zM5 19h1v1H5zM6 19h1v1H6zM25 19h1v1H25zM5 20h1v1H5zM6 20h1v1H6zM10 20h1v1H10zM21 20h1v1H21zM25 20h1v1H25zM26 20h1v1H26zM5 21h1v1H5zM6 21h1v1H6zM25 21h1v1H25zM6 22h1v1H6zM7 22h1v1H7zM10 22h1v1H10zM21 22h1v1H21zM24 22h1v1H24zM25 22h1v1H25zM5 23h1v1H5zM6 23h1v1H6zM8 23h1v1H8zM23 23h1v1H23zM25 23h1v1H25zM5 24h1v1H5zM6 24h1v1H6zM7 24h1v1H7zM9 24h1v1H9zM12 24h1v1H12zM24 24h1v1H24zM25 24h1v1H25zM29 24h1v1H29zM6 25h1v1H6zM7 25h1v1H7zM8 25h1v1H8zM10 25h1v1H10zM21 25h1v1H21zM22 25h1v1H22zM23 25h1v1H23zM24 25h1v1H24zM7 26h1v1H7zM10 26h1v1H10zM20 26h1v1H20zM21 26h1v1H21zM23 26h1v1H23zM9 27h1v1H9zM13 27h1v1H13zM18 27h1v1H18zM21 27h1v1H21z"/><path fill="#da2cf8" d="M8 4h1v1H8zM9 4h1v1H9zM12 4h1v1H12zM13 4h1v1H13zM18 4h1v1H18zM19 4h1v1H19zM22 4h1v1H22zM23 4h1v1H23zM3 5h1v1H3zM7 5h1v1H7zM11 5h1v1H11zM14 5h1v1H14zM18 5h1v1H18zM24 5h1v1H24zM3 6h1v1H3zM7 6h1v1H7zM15 6h1v1H15zM16 6h1v1H16zM18 6h1v1H18zM19 6h1v1H19zM21 6h1v1H21zM24 6h1v1H24zM3 7h1v1H3zM7 7h1v1H7zM12 7h1v1H12zM13 7h1v1H13zM14 7h1v1H14zM17 7h1v1H17zM24 7h1v1H24zM27 7h1v1H27zM2 8h1v1H2zM4 8h1v1H4zM9 8h1v1H9zM15 8h1v1H15zM16 8h1v1H16zM17 8h1v1H17zM21 8h1v1H21zM23 8h1v1H23zM26 8h1v1H26zM27 8h1v1H27zM2 9h1v1H2zM3 9h1v1H3zM8 9h1v1H8zM9 9h1v1H9zM10 9h1v1H10zM20 9h1v1H20zM21 9h1v1H21zM22 9h1v1H22zM23 9h1v1H23zM26 9h1v1H26zM28 9h1v1H28zM2 10h1v1H2zM5 10h1v1H5zM10 10h1v1H10zM14 10h1v1H14zM21 10h1v1H21zM25 10h1v1H25zM27 10h1v1H27zM8 11h1v1H8zM9 11h1v1H9zM15 11h1v1H15zM25 11h1v1H25zM27 11h1v1H27zM28 11h1v1H28zM4 12h1v1H4zM7 12h1v1H7zM8 12h1v1H8zM9 12h1v1H9zM10 12h1v1H10zM13 12h1v1H13zM14 12h1v1H14zM15 12h1v1H15zM17 12h1v1H17zM18 12h1v1H18zM19 12h1v1H19zM21 12h1v1H21zM22 12h1v1H22zM24 12h1v1H24zM26 12h1v1H26zM7 13h1v1H7zM10 13h1v1H10zM21 13h1v1H21zM24 13h1v1H24zM30 14h1v1H30zM7 15h1v1H7zM8 15h1v1H8zM23 15h1v1H23zM24 15h1v1H24zM7 16h1v1H7zM24 16h1v1H24zM2 17h1v1H2zM29 17h1v1H29zM3 18h1v1H3zM7 18h1v1H7zM24 18h1v1H24zM28 18h1v1H28zM29 18h1v1H29zM4 19h1v1H4zM7 19h1v1H7zM10 19h1v1H10zM21 19h1v1H21zM24 19h1v1H24zM26 19h1v1H26zM27 19h1v1H27zM2 20h1v1H2zM7 20h1v1H7zM24 20h1v1H24zM27 20h1v1H27zM4 21h1v1H4zM13 21h1v1H13zM18 21h1v1H18zM27 21h1v1H27zM29 21h1v1H29zM5 22h1v1H5zM9 22h1v1H9zM22 22h1v1H22zM15 23h1v1H15zM16 23h1v1H16zM26 23h1v1H26zM14 24h1v1H14zM17 24h1v1H17zM18 24h1v1H18zM26 24h1v1H26zM5 25h1v1H5zM25 25h1v1H25zM6 26h1v1H6zM9 26h1v1H9zM6 27h1v1H6zM10 27h1v1H10z"/><path fill="#fef5fe" d="M8 5h1v1H8zM9 5h1v1H9zM22 5h1v1H22zM23 5h1v1H23zM8 6h1v1H8zM9 6h1v1H9zM22 6h1v1H22zM23 6h1v1H23zM4 7h1v1H4zM10 7h1v1H10zM11 7h1v1H11zM15 7h1v1H15zM20 7h1v1H20zM21 7h1v1H21zM12 8h1v1H12zM13 8h1v1H13zM18 8h1v1H18zM19 8h1v1H19zM7 9h1v1H7zM12 9h1v1H12zM13 9h1v1H13zM18 9h1v1H18zM19 9h1v1H19zM24 9h1v1H24zM4 10h1v1H4zM13 10h1v1H13zM18 10h1v1H18zM23 10h1v1H23zM26 10h1v1H26zM7 11h1v1H7zM14 11h1v1H14zM17 11h1v1H17zM24 11h1v1H24zM5 12h1v1H5zM15 13h1v1H15zM23 13h1v1H23zM14 14h1v1H14zM17 14h1v1H17zM3 20h1v1H3zM28 20h1v1H28zM26 22h1v1H26z"/><path fill="#f35df7" d="M12 5h1v1H12zM13 5h1v1H13zM17 6h1v1H17zM16 7h1v1H16zM3 8h1v1H3zM7 8h1v1H7zM11 8h1v1H11zM24 8h1v1H24zM3 10h1v1H3zM17 10h1v1H17zM28 10h1v1H28zM4 11h1v1H4zM5 11h1v1H5zM18 11h1v1H18zM22 11h1v1H22zM23 11h1v1H23zM26 11h1v1H26zM16 12h1v1H16zM7 14h1v1H7zM13 14h1v1H13zM15 14h1v1H15zM16 14h1v1H16zM18 14h1v1H18zM24 14h1v1H24zM14 15h1v1H14zM15 15h1v1H15zM16 15h1v1H16zM17 15h1v1H17zM15 16h1v1H15zM16 16h1v1H16zM29 16h1v1H29zM7 17h1v1H7zM24 17h1v1H24zM10 18h1v1H10zM21 18h1v1H21zM3 19h1v1H3zM28 19h1v1H28zM4 20h1v1H4zM29 20h1v1H29zM3 21h1v1H3zM7 21h1v1H7zM24 21h1v1H24zM28 21h1v1H28zM9 23h1v1H9zM10 23h1v1H10zM11 23h1v1H11zM20 23h1v1H20zM21 23h1v1H21zM22 23h1v1H22zM10 24h1v1H10zM11 24h1v1H11zM13 24h1v1H13zM20 24h1v1H20zM21 24h1v1H21zM9 25h1v1H9zM12 25h1v1H12zM13 25h1v1H13zM18 25h1v1H18zM19 25h1v1H19zM5 26h1v1H5zM12 26h1v1H12zM13 26h1v1H13zM16 26h1v1H16zM17 26h1v1H17zM18 26h1v1H18zM19 26h1v1H19zM25 26h1v1H25zM5 27h1v1H5zM16 27h1v1H16zM25 27h1v1H25zM6 28h1v1H6zM21 28h1v1H21z"/><path fill="#fdaffd" d="M17 5h1v1H17zM12 6h1v1H12zM10 8h1v1H10zM14 8h1v1H14zM20 8h1v1H20zM4 9h1v1H4zM11 9h1v1H11zM14 9h1v1H14zM17 9h1v1H17zM27 9h1v1H27zM8 10h1v1H8zM9 10h1v1H9zM22 10h1v1H22zM13 11h1v1H13zM8 13h1v1H8zM11 13h1v1H11zM16 13h1v1H16zM20 13h1v1H20zM22 13h1v1H22zM2 19h1v1H2zM29 19h1v1H29zM16 24h1v1H16zM14 26h1v1H14zM15 26h1v1H15zM14 27h1v1H14zM15 27h1v1H15zM17 27h1v1H17zM24 27h1v1H24zM25 28h1v1H25z"/><path fill="#9221dd" d="M20 5h1v1H20zM13 6h1v1H13zM2 7h1v1H2zM23 7h1v1H23zM5 9h1v1H5zM7 10h1v1H7zM15 10h1v1H15zM24 10h1v1H24zM3 11h1v1H3zM16 11h1v1H16zM2 21h1v1H2zM8 22h1v1H8zM23 22h1v1H23zM15 24h1v1H15zM19 24h1v1H19zM22 24h1v1H22zM14 25h1v1H14zM15 25h1v1H15zM16 25h1v1H16zM17 25h1v1H17zM24 26h1v1H24zM9 28h1v1H9z"/><path fill="#290875" d="M6 7h1v1H6zM25 7h1v1H25zM6 8h1v1H6zM25 8h1v1H25zM6 9h1v1H6zM25 9h1v1H25zM6 11h1v1H6zM2 12h1v1H2zM3 13h1v1H3zM4 13h1v1H4zM27 13h1v1H27zM28 13h1v1H28zM3 14h1v1H3zM27 14h1v1H27zM4 15h1v1H4zM5 16h1v1H5zM14 16h1v1H14zM17 16h1v1H17zM5 17h1v1H5zM8 21h1v1H8zM23 21h1v1H23zM26 21h1v1H26zM4 22h1v1H4zM27 22h1v1H27zM7 23h1v1H7zM24 23h1v1H24zM29 23h1v1H29zM8 24h1v1H8zM23 24h1v1H23zM11 25h1v1H11zM20 25h1v1H20z"/><path fill="#050117" d="M9 15h1v1H9zM10 15h1v1H10zM11 15h1v1H11zM12 15h1v1H12zM19 15h1v1H19zM20 15h1v1H20zM21 15h1v1H21zM22 15h1v1H22zM8 16h1v1H8zM9 16h1v1H9zM10 16h1v1H10zM11 16h1v1H11zM12 16h1v1H12zM13 16h1v1H13zM18 16h1v1H18zM19 16h1v1H19zM20 16h1v1H20zM21 16h1v1H21zM22 16h1v1H22zM23 16h1v1H23zM8 17h1v1H8zM9 17h1v1H9zM10 17h1v1H10zM13 17h1v1H13zM14 17h1v1H14zM17 17h1v1H17zM18 17h1v1H18zM21 17h1v1H21zM22 17h1v1H22zM23 17h1v1H23zM8 18h1v1H8zM9 18h1v1H9zM14 18h1v1H14zM15 18h1v1H15zM16 18h1v1H16zM17 18h1v1H17zM22 18h1v1H22zM23 18h1v1H23zM8 19h1v1H8zM9 19h1v1H9zM14 19h1v1H14zM15 19h1v1H15zM16 19h1v1H16zM17 19h1v1H17zM22 19h1v1H22zM23 19h1v1H23zM8 20h1v1H8zM9 20h1v1H9zM14 20h1v1H14zM15 20h1v1H15zM16 20h1v1H16zM17 20h1v1H17zM22 20h1v1H22zM23 20h1v1H23zM9 21h1v1H9zM10 21h1v1H10zM14 21h1v1H14zM15 21h1v1H15zM16 21h1v1H16zM17 21h1v1H17zM21 21h1v1H21zM22 21h1v1H22zM11 22h1v1H11zM14 22h1v1H14zM15 22h1v1H15zM16 22h1v1H16zM17 22h1v1H17zM20 22h1v1H20zM12 23h1v1H12zM13 23h1v1H13zM14 23h1v1H14zM17 23h1v1H17zM18 23h1v1H18zM19 23h1v1H19z"/><path fill="#ffffff" d="M11 17h1v1H11zM12 17h1v1H12zM19 17h1v1H19zM20 17h1v1H20zM11 18h1v1H11zM12 18h1v1H12zM13 18h1v1H13zM18 18h1v1H18zM19 18h1v1H19zM20 18h1v1H20zM11 19h1v1H11zM12 19h1v1H12zM19 19h1v1H19zM20 19h1v1H20zM11 20h1v1H11zM12 20h1v1H12zM19 20h1v1H19zM20 20h1v1H20zM11 21h1v1H11zM12 21h1v1H12zM19 21h1v1H19zM20 21h1v1H20zM12 22h1v1H12zM13 22h1v1H13zM18 22h1v1H18zM19 22h1v1H19z"/><path fill="#000000" d="M13 19h1v1H13zM18 19h1v1H18zM13 20h1v1H13zM18 20h1v1H18z"/></svg>
