<svg xmlns="http://www.w3.org/2000/svg" viewBox="0 0 32 32" shape-rendering="crispEdges"><path fill="#ffffff" d="M11 0h1v1H11zM20 0h1v1H20zM9 1h1v1H9zM10 1h1v1H10zM11 1h1v1H11zM20 1h1v1H20zM21 1h1v1H21zM22 1h1v1H22zM8 2h1v1H8zM9 2h1v1H9zM10 2h1v1H10zM21 2h1v1H21zM22 2h1v1H22zM23 2h1v1H23zM8 3h1v1H8zM9 3h1v1H9zM14 3h1v1H14zM15 3h1v1H15zM16 3h1v1H16zM17 3h1v1H17zM22 3h1v1H22zM23 3h1v1H23zM8 4h1v1H8zM14 4h1v1H14zM17 4h1v1H17zM23 4h1v1H23zM13 5h1v1H13zM18 5h1v1H18zM13 6h1v1H13zM18 6h1v1H18zM10 7h1v1H10zM14 7h1v1H14zM17 7h1v1H17zM21 7h1v1H21zM4 8h1v1H4zM11 8h1v1H11zM12 8h1v1H12zM19 8h1v1H19zM20 8h1v1H20zM27 8h1v1H27zM3 9h1v1H3zM4 9h1v1H4zM5 9h1v1H5zM26 9h1v1H26zM27 9h1v1H27zM28 9h1v1H28zM4 10h1v1H4zM15 10h1v1H15zM16 10h1v1H16zM27 10h1v1H27zM7 11h1v1H7zM8 11h1v1H8zM9 11h1v1H9zM22 11h1v1H22zM23 11h1v1H23zM24 11h1v1H24zM8 12h1v1H8zM9 12h1v1H9zM10 12h1v1H10zM14 12h1v1H14zM15 12h1v1H15zM16 12h1v1H16zM17 12h1v1H17zM21 12h1v1H21zM22 12h1v1H22zM23 12h1v1H23zM5 15h1v1H5zM26 15h1v1H26zM6 16h1v1H6zM25 16h1v1H25zM7 17h1v1H7zM11 17h1v1H11zM12 17h1v1H12zM19 17h1v1H19zM20 17h1v1H20zM24 17h1v1H24zM1 18h1v1H1zM11 18h1v1H11zM12 18h1v1H12zM13 18h1v1H13zM18 18h1v1H18zM19 18h1v1H19zM20 18h1v1H20zM30 18h1v1H30zM1 19h1v1H1zM2 19h1v1H2zM8 19h1v1H8zM11 19h1v1H11zM12 19h1v1H12zM19 19h1v1H19zM20 19h1v1H20zM23 19h1v1H23zM29 19h1v1H29zM30 19h1v1H30zM1 20h1v1H1zM8 20h1v1H8zM11 20h1v1H11zM12 20h1v1H12zM19 20h1v1H19zM20 20h1v1H20zM23 20h1v1H23zM30 20h1v1H30zM1 21h1v1H1zM8 21h1v1H8zM11 21h1v1H11zM12 21h1v1H12zM19 21h1v1H19zM20 21h1v1H20zM23 21h1v1H23zM30 21h1v1H30zM8 22h1v1H8zM12 22h1v1H12zM13 22h1v1H13zM18 22h1v1H18zM19 22h1v1H19zM23 22h1v1H23zM9 23h1v1H9zM22 23h1v1H22zM8 24h1v1H8zM23 24h1v1H23zM9 25h1v1H9zM10 25h1v1H10zM21 25h1v1H21zM22 25h1v1H22zM9 26h1v1H9zM10 26h1v1H10zM11 26h1v1H11zM15 26h1v1H15zM20 26h1v1H20zM21 26h1v1H21zM22 26h1v1H22zM14 27h1v1H14zM17 27h1v1H17zM13 28h1v1H13zM14 28h1v1H14zM17 28h1v1H17zM18 28h1v1H18z"/><path fill="#fefcfd" d="M12 0h1v1H12zM19 0h1v1H19zM9 5h1v1H9zM22 5h1v1H22zM11 7h1v1H11zM13 7h1v1H13zM18 7h1v1H18zM20 7h1v1H20zM5 10h1v1H5zM26 10h1v1H26zM14 26h1v1H14zM17 26h1v1H17z"/><path fill="#f9eef5" d="M13 0h1v1H13zM18 0h1v1H18zM10 6h1v1H10zM21 6h1v1H21zM7 10h1v1H7zM24 10h1v1H24zM7 12h1v1H7zM24 12h1v1H24zM5 16h1v1H5zM26 16h1v1H26zM6 17h1v1H6zM25 17h1v1H25zM7 18h1v1H7zM24 18h1v1H24zM2 20h1v1H2zM29 20h1v1H29z"/><path fill="#f2dcf4" d="M12 1h1v1H12zM19 1h1v1H19zM11 2h1v1H11zM20 2h1v1H20zM10 3h1v1H10zM21 3h1v1H21zM8 6h1v1H8zM23 6h1v1H23zM8 7h1v1H8zM23 7h1v1H23zM5 8h1v1H5zM6 8h1v1H6zM8 8h1v1H8zM10 8h1v1H10zM21 8h1v1H21zM23 8h1v1H23zM25 8h1v1H25zM26 8h1v1H26zM6 9h1v1H6zM8 9h1v1H8zM10 9h1v1H10zM21 9h1v1H21zM23 9h1v1H23zM25 9h1v1H25zM10 10h1v1H10zM21 10h1v1H21zM10 11h1v1H10zM15 11h1v1H15zM16 11h1v1H16zM21 11h1v1H21zM6 13h1v1H6zM15 13h1v1H15zM16 13h1v1H16zM25 13h1v1H25zM6 14h1v1H6zM7 14h1v1H7zM8 14h1v1H8zM23 14h1v1H23zM24 14h1v1H24zM25 14h1v1H25zM2 15h1v1H2zM7 15h1v1H7zM24 15h1v1H24zM29 15h1v1H29zM7 16h1v1H7zM24 16h1v1H24zM12 26h1v1H12zM13 26h1v1H13zM18 26h1v1H18zM19 26h1v1H19zM15 28h1v1H15zM16 28h1v1H16z"/><path fill="#9977d3" d="M15 2h1v1H15zM16 2h1v1H16zM14 5h1v1H14zM17 5h1v1H17zM12 9h1v1H12zM13 9h1v1H13zM18 9h1v1H18zM19 9h1v1H19zM12 10h1v1H12zM13 10h1v1H13zM18 10h1v1H18zM19 10h1v1H19zM12 11h1v1H12zM19 11h1v1H19zM2 16h1v1H2zM29 16h1v1H29zM0 18h1v1H0zM31 18h1v1H31zM15 25h1v1H15zM16 25h1v1H16zM14 29h1v1H14zM17 29h1v1H17z"/><path fill="#bca4d3" d="M7 4h1v1H7zM24 4h1v1H24zM7 5h1v1H7zM24 5h1v1H24z"/><path fill="#e1c3ee" d="M9 4h1v1H9zM10 4h1v1H10zM15 4h1v1H15zM16 4h1v1H16zM21 4h1v1H21zM22 4h1v1H22zM15 5h1v1H15zM16 5h1v1H16zM2 18h1v1H2zM29 18h1v1H29zM8 23h1v1H8zM23 23h1v1H23zM9 24h1v1H9zM10 24h1v1H10zM21 24h1v1H21zM22 24h1v1H22zM11 25h1v1H11zM12 25h1v1H12zM13 25h1v1H13zM14 25h1v1H14zM17 25h1v1H17zM18 25h1v1H18zM19 25h1v1H19zM20 25h1v1H20z"/><path fill="#8961a0" d="M13 4h1v1H13zM18 4h1v1H18zM2 12h1v1H2zM29 12h1v1H29zM5 13h1v1H5zM26 13h1v1H26z"/><path fill="#f9e8ed" d="M8 5h1v1H8zM23 5h1v1H23zM8 25h1v1H8zM23 25h1v1H23z"/><path fill="#f0e2ee" d="M10 5h1v1H10zM21 5h1v1H21zM15 7h1v1H15zM16 7h1v1H16zM14 8h1v1H14zM15 8h1v1H15zM16 8h1v1H16zM17 8h1v1H17z"/><path fill="#f3dbd3" d="M11 5h1v1H11zM12 5h1v1H12zM19 5h1v1H19zM20 5h1v1H20zM13 8h1v1H13zM18 8h1v1H18zM15 9h1v1H15zM16 9h1v1H16zM14 10h1v1H14zM17 10h1v1H17zM2 11h1v1H2zM3 11h1v1H3zM13 11h1v1H13zM18 11h1v1H18zM28 11h1v1H28zM29 11h1v1H29zM12 12h1v1H12zM19 12h1v1H19zM9 14h1v1H9zM22 14h1v1H22zM8 15h1v1H8zM23 15h1v1H23zM8 16h1v1H8zM23 16h1v1H23zM2 17h1v1H2zM8 17h1v1H8zM23 17h1v1H23zM29 17h1v1H29zM8 18h1v1H8zM23 18h1v1H23zM5 27h1v1H5zM26 27h1v1H26zM4 28h1v1H4zM6 28h1v1H6zM8 28h1v1H8zM9 28h1v1H9zM22 28h1v1H22zM23 28h1v1H23zM25 28h1v1H25zM27 28h1v1H27zM9 29h1v1H9zM22 29h1v1H22z"/><path fill="#7a56b1" d="M7 6h1v1H7zM24 6h1v1H24zM7 7h1v1H7zM24 7h1v1H24zM7 8h1v1H7zM24 8h1v1H24zM7 9h1v1H7zM24 9h1v1H24zM8 10h1v1H8zM23 10h1v1H23zM4 11h1v1H4zM5 11h1v1H5zM6 11h1v1H6zM25 11h1v1H25zM26 11h1v1H26zM27 11h1v1H27zM3 12h1v1H3zM4 12h1v1H4zM27 12h1v1H27zM28 12h1v1H28zM3 14h1v1H3zM28 14h1v1H28zM3 16h1v1H3zM28 16h1v1H28zM0 20h1v1H0zM3 20h1v1H3zM28 20h1v1H28zM31 20h1v1H31zM0 21h1v1H0zM2 21h1v1H2zM7 21h1v1H7zM24 21h1v1H24zM29 21h1v1H29zM31 21h1v1H31zM2 27h1v1H2zM7 27h1v1H7zM24 27h1v1H24zM29 27h1v1H29zM3 28h1v1H3zM10 28h1v1H10zM11 28h1v1H11zM12 28h1v1H12zM19 28h1v1H19zM20 28h1v1H20zM21 28h1v1H21zM28 28h1v1H28zM6 30h1v1H6zM25 30h1v1H25z"/><path fill="#d8bfea" d="M9 6h1v1H9zM22 6h1v1H22zM5 17h1v1H5zM26 17h1v1H26zM6 18h1v1H6zM25 18h1v1H25zM7 19h1v1H7zM24 19h1v1H24z"/><path fill="#e1c8e7" d="M14 6h1v1H14zM17 6h1v1H17z"/><path fill="#634aa8" d="M15 6h1v1H15zM16 6h1v1H16zM15 14h1v1H15zM16 14h1v1H16zM6 15h1v1H6zM25 15h1v1H25zM5 18h1v1H5zM26 18h1v1H26zM6 19h1v1H6zM25 19h1v1H25zM7 20h1v1H7zM24 20h1v1H24zM1 22h1v1H1zM30 22h1v1H30zM2 26h1v1H2zM29 26h1v1H29zM7 29h1v1H7zM24 29h1v1H24z"/><path fill="#dfbcc6" d="M6 7h1v1H6zM25 7h1v1H25zM14 9h1v1H14zM17 9h1v1H17zM5 12h1v1H5zM26 12h1v1H26zM3 26h1v1H3zM28 26h1v1H28zM4 27h1v1H4zM27 27h1v1H27zM5 29h1v1H5zM26 29h1v1H26zM9 30h1v1H9zM22 30h1v1H22z"/><path fill="#b98ed7" d="M9 7h1v1H9zM22 7h1v1H22zM3 8h1v1H3zM9 8h1v1H9zM22 8h1v1H22zM28 8h1v1H28zM2 9h1v1H2zM9 9h1v1H9zM22 9h1v1H22zM29 9h1v1H29zM3 10h1v1H3zM6 10h1v1H6zM9 10h1v1H9zM22 10h1v1H22zM25 10h1v1H25zM28 10h1v1H28zM14 14h1v1H14zM17 14h1v1H17zM3 18h1v1H3zM28 18h1v1H28zM0 19h1v1H0zM31 19h1v1H31z"/><path fill="#866dc1" d="M2 8h1v1H2zM29 8h1v1H29zM11 9h1v1H11zM20 9h1v1H20zM2 10h1v1H2zM11 10h1v1H11zM20 10h1v1H20zM29 10h1v1H29zM11 11h1v1H11zM20 11h1v1H20zM6 12h1v1H6zM11 12h1v1H11zM20 12h1v1H20zM25 12h1v1H25zM3 13h1v1H3zM7 13h1v1H7zM24 13h1v1H24zM28 13h1v1H28zM5 14h1v1H5zM10 14h1v1H10zM11 14h1v1H11zM12 14h1v1H12zM19 14h1v1H19zM20 14h1v1H20zM21 14h1v1H21zM26 14h1v1H26zM9 15h1v1H9zM22 15h1v1H22zM3 19h1v1H3zM5 19h1v1H5zM10 19h1v1H10zM21 19h1v1H21zM26 19h1v1H26zM28 19h1v1H28zM13 21h1v1H13zM18 21h1v1H18zM4 22h1v1H4zM7 22h1v1H7zM24 22h1v1H24zM27 22h1v1H27zM7 23h1v1H7zM24 23h1v1H24zM4 24h1v1H4zM7 24h1v1H7zM24 24h1v1H24zM27 24h1v1H27zM4 25h1v1H4zM5 25h1v1H5zM7 25h1v1H7zM24 25h1v1H24zM26 25h1v1H26zM27 25h1v1H27zM6 26h1v1H6zM7 26h1v1H7zM24 26h1v1H24zM25 26h1v1H25z"/><path fill="#9f82d3" d="M14 11h1v1H14zM17 11h1v1H17zM13 12h1v1H13zM18 12h1v1H18zM13 13h1v1H13zM14 13h1v1H14zM17 13h1v1H17zM18 13h1v1H18zM10 18h1v1H10zM21 18h1v1H21zM5 20h1v1H5zM6 20h1v1H6zM25 20h1v1H25zM26 20h1v1H26zM5 21h1v1H5zM6 21h1v1H6zM25 21h1v1H25zM26 21h1v1H26zM5 22h1v1H5zM6 22h1v1H6zM25 22h1v1H25zM26 22h1v1H26zM4 23h1v1H4zM5 23h1v1H5zM6 23h1v1H6zM25 23h1v1H25zM26 23h1v1H26zM27 23h1v1H27zM5 24h1v1H5zM6 24h1v1H6zM11 24h1v1H11zM12 24h1v1H12zM13 24h1v1H13zM14 24h1v1H14zM15 24h1v1H15zM16 24h1v1H16zM17 24h1v1H17zM18 24h1v1H18zM19 24h1v1H19zM20 24h1v1H20zM25 24h1v1H25zM26 24h1v1H26zM6 25h1v1H6zM25 25h1v1H25zM16 26h1v1H16zM15 27h1v1H15zM16 27h1v1H16z"/><path fill="#fcf6f9" d="M8 13h1v1H8zM9 13h1v1H9zM10 13h1v1H10zM11 13h1v1H11zM20 13h1v1H20zM21 13h1v1H21zM22 13h1v1H22zM23 13h1v1H23z"/><path fill="#9b70aa" d="M12 13h1v1H12zM19 13h1v1H19zM13 14h1v1H13zM18 14h1v1H18zM14 15h1v1H14zM17 15h1v1H17zM15 16h1v1H15zM16 16h1v1H16zM7 28h1v1H7zM24 28h1v1H24z"/><path fill="#d0ade8" d="M3 15h1v1H3zM28 15h1v1H28zM8 26h1v1H8zM23 26h1v1H23zM8 27h1v1H8zM9 27h1v1H9zM11 27h1v1H11zM12 27h1v1H12zM13 27h1v1H13zM18 27h1v1H18zM19 27h1v1H19zM20 27h1v1H20zM22 27h1v1H22zM23 27h1v1H23zM15 29h1v1H15zM16 29h1v1H16z"/><path fill="#4e3a8f" d="M10 15h1v1H10zM11 15h1v1H11zM12 15h1v1H12zM13 15h1v1H13zM18 15h1v1H18zM19 15h1v1H19zM20 15h1v1H20zM21 15h1v1H21zM10 20h1v1H10zM21 20h1v1H21zM9 22h1v1H9zM22 22h1v1H22zM10 23h1v1H10zM21 23h1v1H21zM3 25h1v1H3zM28 25h1v1H28zM2 28h1v1H2zM29 28h1v1H29zM3 29h1v1H3zM11 29h1v1H11zM12 29h1v1H12zM13 29h1v1H13zM18 29h1v1H18zM19 29h1v1H19zM20 29h1v1H20zM28 29h1v1H28zM5 30h1v1H5zM26 30h1v1H26z"/><path fill="#cdb1da" d="M15 15h1v1H15zM16 15h1v1H16zM4 26h1v1H4zM5 26h1v1H5zM26 26h1v1H26zM27 26h1v1H27zM3 27h1v1H3zM6 27h1v1H6zM25 27h1v1H25zM28 27h1v1H28zM5 28h1v1H5zM26 28h1v1H26zM4 29h1v1H4zM6 29h1v1H6zM25 29h1v1H25zM27 29h1v1H27z"/><path fill="#0e0b0b" d="M9 16h1v1H9zM10 16h1v1H10zM11 16h1v1H11zM12 16h1v1H12zM13 16h1v1H13zM14 16h1v1H14zM17 16h1v1H17zM18 16h1v1H18zM19 16h1v1H19zM20 16h1v1H20zM21 16h1v1H21zM22 16h1v1H22zM9 17h1v1H9zM10 17h1v1H10zM13 17h1v1H13zM14 17h1v1H14zM15 17h1v1H15zM16 17h1v1H16zM17 17h1v1H17zM18 17h1v1H18zM21 17h1v1H21zM22 17h1v1H22zM9 18h1v1H9zM14 18h1v1H14zM15 18h1v1H15zM16 18h1v1H16zM17 18h1v1H17zM22 18h1v1H22zM9 19h1v1H9zM13 19h1v1H13zM14 19h1v1H14zM15 19h1v1H15zM16 19h1v1H16zM17 19h1v1H17zM18 19h1v1H18zM22 19h1v1H22zM9 20h1v1H9zM13 20h1v1H13zM14 20h1v1H14zM15 20h1v1H15zM16 20h1v1H16zM17 20h1v1H17zM18 20h1v1H18zM22 20h1v1H22zM9 21h1v1H9zM10 21h1v1H10zM14 21h1v1H14zM15 21h1v1H15zM16 21h1v1H16zM17 21h1v1H17zM21 21h1v1H21zM22 21h1v1H22zM10 22h1v1H10zM11 22h1v1H11zM14 22h1v1H14zM15 22h1v1H15zM16 22h1v1H16zM17 22h1v1H17zM20 22h1v1H20zM21 22h1v1H21zM11 23h1v1H11zM12 23h1v1H12zM13 23h1v1H13zM14 23h1v1H14zM15 23h1v1H15zM16 23h1v1H16zM17 23h1v1H17zM18 23h1v1H18zM19 23h1v1H19zM20 23h1v1H20z"/><path fill="#a78aca" d="M1 17h1v1H1zM30 17h1v1H30z"/><path fill="#d0a8ba" d="M3 17h1v1H3zM28 17h1v1H28zM8 29h1v1H8zM10 29h1v1H10zM21 29h1v1H21zM23 29h1v1H23z"/><path fill="#ecd0e2" d="M10 27h1v1H10zM21 27h1v1H21z"/></svg>
