<svg xmlns="http://www.w3.org/2000/svg" viewBox="0 0 32 32" shape-rendering="crispEdges"><path fill="#9b6dbe" d="M11 0h1v1H11zM12 0h1v1H12zM13 0h1v1H13zM14 0h1v1H14zM17 0h1v1H17zM18 0h1v1H18zM19 0h1v1H19zM20 0h1v1H20zM9 1h1v1H9zM10 1h1v1H10zM21 1h1v1H21zM22 1h1v1H22zM8 2h1v1H8zM23 2h1v1H23zM7 3h1v1H7zM8 3h1v1H8zM23 3h1v1H23zM24 3h1v1H24zM6 4h1v1H6zM25 4h1v1H25zM5 5h1v1H5zM26 5h1v1H26zM5 6h1v1H5zM26 6h1v1H26zM8 8h1v1H8zM9 8h1v1H9zM10 8h1v1H10zM11 8h1v1H11zM12 8h1v1H12zM13 8h1v1H13zM18 8h1v1H18zM19 8h1v1H19zM20 8h1v1H20zM21 8h1v1H21zM22 8h1v1H22zM23 8h1v1H23zM15 12h1v1H15zM16 13h1v1H16zM10 20h1v1H10zM21 20h1v1H21zM9 29h1v1H9zM22 29h1v1H22z"/><path fill="#f7d6f9" d="M15 0h1v1H15zM16 0h1v1H16zM11 1h1v1H11zM20 1h1v1H20zM11 2h1v1H11zM12 2h1v1H12zM19 2h1v1H19zM20 2h1v1H20zM12 3h1v1H12zM19 3h1v1H19zM6 6h1v1H6zM25 6h1v1H25zM6 11h1v1H6zM25 11h1v1H25zM0 16h1v1H0zM31 16h1v1H31zM2 18h1v1H2zM29 18h1v1H29zM2 20h1v1H2zM4 20h1v1H4zM27 20h1v1H27zM29 20h1v1H29zM6 27h1v1H6zM25 27h1v1H25zM5 28h1v1H5zM6 28h1v1H6zM25 28h1v1H25zM26 28h1v1H26z"/><path fill="#ffffff" d="M12 1h1v1H12zM13 1h1v1H13zM14 1h1v1H14zM17 1h1v1H17zM18 1h1v1H18zM19 1h1v1H19zM9 2h1v1H9zM10 2h1v1H10zM13 2h1v1H13zM18 2h1v1H18zM21 2h1v1H21zM22 2h1v1H22zM9 3h1v1H9zM10 3h1v1H10zM11 3h1v1H11zM15 3h1v1H15zM16 3h1v1H16zM20 3h1v1H20zM21 3h1v1H21zM22 3h1v1H22zM7 4h1v1H7zM9 4h1v1H9zM10 4h1v1H10zM11 4h1v1H11zM14 4h1v1H14zM15 4h1v1H15zM16 4h1v1H16zM17 4h1v1H17zM20 4h1v1H20zM21 4h1v1H21zM22 4h1v1H22zM24 4h1v1H24zM6 5h1v1H6zM7 5h1v1H7zM8 5h1v1H8zM10 5h1v1H10zM11 5h1v1H11zM12 5h1v1H12zM15 5h1v1H15zM16 5h1v1H16zM19 5h1v1H19zM20 5h1v1H20zM21 5h1v1H21zM23 5h1v1H23zM24 5h1v1H24zM25 5h1v1H25zM2 6h1v1H2zM7 6h1v1H7zM8 6h1v1H8zM9 6h1v1H9zM10 6h1v1H10zM11 6h1v1H11zM20 6h1v1H20zM21 6h1v1H21zM22 6h1v1H22zM23 6h1v1H23zM24 6h1v1H24zM29 6h1v1H29zM6 9h1v1H6zM25 9h1v1H25zM6 10h1v1H6zM7 10h1v1H7zM15 10h1v1H15zM16 10h1v1H16zM24 10h1v1H24zM25 10h1v1H25zM7 11h1v1H7zM8 11h1v1H8zM9 11h1v1H9zM10 11h1v1H10zM11 11h1v1H11zM12 11h1v1H12zM13 11h1v1H13zM14 11h1v1H14zM15 11h1v1H15zM17 11h1v1H17zM18 11h1v1H18zM19 11h1v1H19zM20 11h1v1H20zM21 11h1v1H21zM22 11h1v1H22zM23 11h1v1H23zM24 11h1v1H24zM2 12h1v1H2zM7 12h1v1H7zM8 12h1v1H8zM23 12h1v1H23zM24 12h1v1H24zM29 12h1v1H29zM2 13h1v1H2zM29 13h1v1H29zM1 16h1v1H1zM2 16h1v1H2zM29 16h1v1H29zM30 16h1v1H30zM2 17h1v1H2zM3 17h1v1H3zM4 17h1v1H4zM11 17h1v1H11zM12 17h1v1H12zM19 17h1v1H19zM20 17h1v1H20zM27 17h1v1H27zM28 17h1v1H28zM29 17h1v1H29zM3 18h1v1H3zM4 18h1v1H4zM11 18h1v1H11zM12 18h1v1H12zM13 18h1v1H13zM18 18h1v1H18zM19 18h1v1H19zM20 18h1v1H20zM27 18h1v1H27zM28 18h1v1H28zM3 19h1v1H3zM11 19h1v1H11zM12 19h1v1H12zM19 19h1v1H19zM20 19h1v1H20zM28 19h1v1H28zM3 20h1v1H3zM11 20h1v1H11zM12 20h1v1H12zM19 20h1v1H19zM20 20h1v1H20zM28 20h1v1H28zM2 21h1v1H2zM11 21h1v1H11zM12 21h1v1H12zM19 21h1v1H19zM20 21h1v1H20zM29 21h1v1H29zM12 22h1v1H12zM13 22h1v1H13zM18 22h1v1H18zM19 22h1v1H19zM7 23h1v1H7zM8 23h1v1H8zM23 23h1v1H23zM24 23h1v1H24zM6 24h1v1H6zM7 24h1v1H7zM8 24h1v1H8zM9 24h1v1H9zM10 24h1v1H10zM11 24h1v1H11zM12 24h1v1H12zM13 24h1v1H13zM18 24h1v1H18zM19 24h1v1H19zM20 24h1v1H20zM21 24h1v1H21zM22 24h1v1H22zM23 24h1v1H23zM24 24h1v1H24zM25 24h1v1H25zM6 25h1v1H6zM8 25h1v1H8zM9 25h1v1H9zM10 25h1v1H10zM11 25h1v1H11zM12 25h1v1H12zM19 25h1v1H19zM20 25h1v1H20zM21 25h1v1H21zM22 25h1v1H22zM23 25h1v1H23zM25 25h1v1H25zM6 26h1v1H6zM9 26h1v1H9zM14 26h1v1H14zM15 26h1v1H15zM16 26h1v1H16zM17 26h1v1H17zM22 26h1v1H22zM25 26h1v1H25zM13 27h1v1H13zM14 27h1v1H14zM15 27h1v1H15zM16 27h1v1H16zM17 27h1v1H17zM18 27h1v1H18zM14 28h1v1H14zM15 28h1v1H15zM16 28h1v1H16zM17 28h1v1H17z"/><path fill="#a297dc" d="M15 1h1v1H15zM16 1h1v1H16zM13 13h1v1H13zM15 13h1v1H15zM18 13h1v1H18zM8 16h1v1H8zM23 16h1v1H23zM8 17h1v1H8zM23 17h1v1H23zM8 18h1v1H8zM23 18h1v1H23zM8 19h1v1H8zM23 19h1v1H23zM8 20h1v1H8zM23 20h1v1H23zM8 21h1v1H8zM23 21h1v1H23zM5 22h1v1H5zM26 22h1v1H26zM6 23h1v1H6zM25 23h1v1H25zM10 28h1v1H10zM11 28h1v1H11zM20 28h1v1H20zM21 28h1v1H21z"/><path fill="#edc3be" d="M14 2h1v1H14zM17 2h1v1H17zM14 5h1v1H14zM17 5h1v1H17zM15 6h1v1H15zM16 6h1v1H16zM9 7h1v1H9zM10 7h1v1H10zM11 7h1v1H11zM20 7h1v1H20zM21 7h1v1H21zM22 7h1v1H22zM8 9h1v1H8zM11 9h1v1H11zM20 9h1v1H20zM23 9h1v1H23zM12 27h1v1H12zM19 27h1v1H19zM13 28h1v1H13zM18 28h1v1H18zM15 29h1v1H15zM16 29h1v1H16z"/><path fill="#fceaf2" d="M15 2h1v1H15zM16 2h1v1H16zM14 3h1v1H14zM17 3h1v1H17zM18 4h1v1H18zM13 6h1v1H13zM14 6h1v1H14zM14 7h1v1H14zM7 8h1v1H7zM24 8h1v1H24zM7 9h1v1H7zM24 9h1v1H24zM9 10h1v1H9zM12 10h1v1H12zM13 10h1v1H13zM18 10h1v1H18zM19 10h1v1H19zM22 10h1v1H22zM15 24h1v1H15zM16 24h1v1H16zM14 25h1v1H14zM15 25h1v1H15zM16 25h1v1H16zM17 25h1v1H17zM18 26h1v1H18zM13 29h1v1H13zM14 29h1v1H14zM14 30h1v1H14z"/><path fill="#cb97d2" d="M13 3h1v1H13zM18 3h1v1H18zM12 4h1v1H12zM19 4h1v1H19zM14 24h1v1H14zM17 24h1v1H17zM11 26h1v1H11zM20 26h1v1H20zM11 27h1v1H11zM20 27h1v1H20zM12 28h1v1H12zM19 28h1v1H19z"/><path fill="#beb2e2" d="M2 4h1v1H2zM29 4h1v1H29zM2 8h1v1H2zM29 8h1v1H29zM0 17h1v1H0zM31 17h1v1H31zM8 22h1v1H8zM23 22h1v1H23zM9 23h1v1H9zM22 23h1v1H22zM7 26h1v1H7zM24 26h1v1H24z"/><path fill="#eac5f2" d="M8 4h1v1H8zM23 4h1v1H23zM9 5h1v1H9zM22 5h1v1H22zM0 14h1v1H0zM2 14h1v1H2zM15 14h1v1H15zM16 14h1v1H16zM29 14h1v1H29zM31 14h1v1H31zM2 15h1v1H2zM29 15h1v1H29zM1 17h1v1H1zM30 17h1v1H30zM2 19h1v1H2zM29 19h1v1H29zM1 22h1v1H1zM30 22h1v1H30z"/><path fill="#f5d2d3" d="M13 4h1v1H13zM17 6h1v1H17zM18 6h1v1H18zM7 7h1v1H7zM8 7h1v1H8zM12 7h1v1H12zM13 7h1v1H13zM15 7h1v1H15zM16 7h1v1H16zM17 7h1v1H17zM18 7h1v1H18zM19 7h1v1H19zM23 7h1v1H23zM24 7h1v1H24zM9 9h1v1H9zM10 9h1v1H10zM21 9h1v1H21zM22 9h1v1H22zM10 10h1v1H10zM11 10h1v1H11zM20 10h1v1H20zM21 10h1v1H21zM13 26h1v1H13zM17 29h1v1H17zM18 29h1v1H18zM15 30h1v1H15zM16 30h1v1H16zM17 30h1v1H17z"/><path fill="#dea3cb" d="M2 5h1v1H2zM29 5h1v1H29zM1 6h1v1H1zM3 6h1v1H3zM28 6h1v1H28zM30 6h1v1H30zM2 7h1v1H2zM29 7h1v1H29zM12 9h1v1H12zM13 9h1v1H13zM18 9h1v1H18zM19 9h1v1H19zM1 12h1v1H1zM30 12h1v1H30zM3 16h1v1H3zM28 16h1v1H28zM10 19h1v1H10zM21 19h1v1H21zM13 21h1v1H13zM18 21h1v1H18zM7 28h1v1H7zM8 28h1v1H8zM23 28h1v1H23zM24 28h1v1H24zM7 29h1v1H7zM8 29h1v1H8zM23 29h1v1H23zM24 29h1v1H24z"/><path fill="#eaddf7" d="M13 5h1v1H13zM18 5h1v1H18zM12 6h1v1H12zM19 6h1v1H19zM7 25h1v1H7zM13 25h1v1H13zM18 25h1v1H18zM24 25h1v1H24zM8 26h1v1H8zM12 26h1v1H12zM19 26h1v1H19zM23 26h1v1H23z"/><path fill="#d7c1ed" d="M6 7h1v1H6zM25 7h1v1H25zM14 8h1v1H14zM17 8h1v1H17zM14 9h1v1H14zM17 9h1v1H17zM1 21h1v1H1zM30 21h1v1H30zM10 26h1v1H10zM21 26h1v1H21zM8 27h1v1H8zM9 27h1v1H9zM10 27h1v1H10zM21 27h1v1H21zM22 27h1v1H22zM23 27h1v1H23z"/><path fill="#745cae" d="M6 8h1v1H6zM25 8h1v1H25zM15 15h1v1H15zM16 15h1v1H16zM4 26h1v1H4zM27 26h1v1H27zM4 27h1v1H4zM27 27h1v1H27zM4 28h1v1H4zM27 28h1v1H27zM5 29h1v1H5zM6 29h1v1H6zM10 29h1v1H10zM11 29h1v1H11zM12 29h1v1H12zM19 29h1v1H19zM20 29h1v1H20zM21 29h1v1H21zM25 29h1v1H25zM26 29h1v1H26z"/><path fill="#e1cbec" d="M15 8h1v1H15zM16 8h1v1H16z"/><path fill="#9779c0" d="M5 9h1v1H5zM26 9h1v1H26zM5 10h1v1H5zM26 10h1v1H26zM7 27h1v1H7zM24 27h1v1H24z"/><path fill="#998ad3" d="M15 9h1v1H15zM16 9h1v1H16zM5 11h1v1H5zM26 11h1v1H26zM5 12h1v1H5zM26 12h1v1H26zM5 13h1v1H5zM10 13h1v1H10zM21 13h1v1H21zM26 13h1v1H26zM5 14h1v1H5zM26 14h1v1H26zM5 15h1v1H5zM26 15h1v1H26zM5 16h1v1H5zM26 16h1v1H26zM5 17h1v1H5zM26 17h1v1H26zM1 18h1v1H1zM5 18h1v1H5zM26 18h1v1H26zM30 18h1v1H30zM5 19h1v1H5zM26 19h1v1H26zM5 20h1v1H5zM26 20h1v1H26zM4 21h1v1H4zM5 21h1v1H5zM26 21h1v1H26zM27 21h1v1H27zM3 22h1v1H3zM4 22h1v1H4zM27 22h1v1H27zM28 22h1v1H28zM5 23h1v1H5zM26 23h1v1H26zM5 24h1v1H5zM26 24h1v1H26z"/><path fill="#fefcfe" d="M8 10h1v1H8zM23 10h1v1H23zM12 12h1v1H12zM14 12h1v1H14zM17 12h1v1H17zM19 12h1v1H19zM11 13h1v1H11zM12 13h1v1H12zM14 13h1v1H14zM17 13h1v1H17zM19 13h1v1H19zM20 13h1v1H20zM9 14h1v1H9zM11 14h1v1H11zM13 14h1v1H13zM18 14h1v1H18zM20 14h1v1H20zM22 14h1v1H22zM8 15h1v1H8zM10 15h1v1H10zM12 15h1v1H12zM14 15h1v1H14zM17 15h1v1H17zM19 15h1v1H19zM21 15h1v1H21zM23 15h1v1H23zM15 16h1v1H15zM16 16h1v1H16zM3 23h1v1H3zM28 23h1v1H28z"/><path fill="#efe6f9" d="M14 10h1v1H14zM17 10h1v1H17zM13 12h1v1H13zM18 12h1v1H18zM3 21h1v1H3zM28 21h1v1H28zM4 23h1v1H4zM27 23h1v1H27z"/><path fill="#ffecfd" d="M2 11h1v1H2zM29 11h1v1H29zM9 12h1v1H9zM10 12h1v1H10zM11 12h1v1H11zM20 12h1v1H20zM21 12h1v1H21zM22 12h1v1H22zM8 13h1v1H8zM23 13h1v1H23zM0 15h1v1H0zM31 15h1v1H31zM4 19h1v1H4zM27 19h1v1H27z"/><path fill="#ca88d0" d="M16 11h1v1H16zM16 12h1v1H16zM0 13h1v1H0zM31 13h1v1H31zM1 24h1v1H1zM30 24h1v1H30zM2 25h1v1H2zM3 25h1v1H3zM28 25h1v1H28zM29 25h1v1H29z"/><path fill="#e3e3fa" d="M6 12h1v1H6zM25 12h1v1H25zM6 13h1v1H6zM25 13h1v1H25zM6 14h1v1H6zM25 14h1v1H25zM6 15h1v1H6zM25 15h1v1H25zM6 16h1v1H6zM25 16h1v1H25zM6 17h1v1H6zM25 17h1v1H25zM6 18h1v1H6zM25 18h1v1H25zM6 19h1v1H6zM25 19h1v1H25zM6 20h1v1H6zM25 20h1v1H25zM6 21h1v1H6zM25 21h1v1H25zM6 22h1v1H6zM25 22h1v1H25z"/><path fill="#fef5f8" d="M1 13h1v1H1zM30 13h1v1H30z"/><path fill="#fffbfe" d="M7 13h1v1H7zM9 13h1v1H9zM22 13h1v1H22zM24 13h1v1H24zM1 14h1v1H1zM7 14h1v1H7zM24 14h1v1H24zM30 14h1v1H30zM1 15h1v1H1zM7 15h1v1H7zM24 15h1v1H24zM30 15h1v1H30zM7 16h1v1H7zM24 16h1v1H24zM7 17h1v1H7zM24 17h1v1H24zM7 18h1v1H7zM24 18h1v1H24zM7 19h1v1H7zM24 19h1v1H24zM7 20h1v1H7zM24 20h1v1H24zM7 21h1v1H7zM24 21h1v1H24zM2 22h1v1H2zM7 22h1v1H7zM24 22h1v1H24zM29 22h1v1H29z"/><path fill="#e1d6f5" d="M8 14h1v1H8zM14 14h1v1H14zM17 14h1v1H17zM23 14h1v1H23zM10 18h1v1H10zM21 18h1v1H21zM1 23h1v1H1zM30 23h1v1H30z"/><path fill="#1c173f" d="M10 14h1v1H10zM12 14h1v1H12zM19 14h1v1H19zM21 14h1v1H21zM9 15h1v1H9zM11 15h1v1H11zM13 15h1v1H13zM18 15h1v1H18zM20 15h1v1H20zM22 15h1v1H22zM9 16h1v1H9zM22 16h1v1H22zM9 17h1v1H9zM22 17h1v1H22zM9 18h1v1H9zM22 18h1v1H22zM9 19h1v1H9zM22 19h1v1H22zM9 20h1v1H9zM22 20h1v1H22zM9 21h1v1H9zM22 21h1v1H22zM11 23h1v1H11zM12 23h1v1H12zM13 23h1v1H13zM14 23h1v1H14zM15 23h1v1H15zM16 23h1v1H16zM17 23h1v1H17zM18 23h1v1H18zM19 23h1v1H19zM20 23h1v1H20z"/><path fill="#090606" d="M10 16h1v1H10zM11 16h1v1H11zM12 16h1v1H12zM13 16h1v1H13zM14 16h1v1H14zM17 16h1v1H17zM18 16h1v1H18zM19 16h1v1H19zM20 16h1v1H20zM21 16h1v1H21zM10 17h1v1H10zM13 17h1v1H13zM14 17h1v1H14zM15 17h1v1H15zM16 17h1v1H16zM17 17h1v1H17zM18 17h1v1H18zM21 17h1v1H21zM14 18h1v1H14zM15 18h1v1H15zM16 18h1v1H16zM17 18h1v1H17zM14 19h1v1H14zM15 19h1v1H15zM16 19h1v1H16zM17 19h1v1H17zM14 20h1v1H14zM15 20h1v1H15zM16 20h1v1H16zM17 20h1v1H17zM10 21h1v1H10zM14 21h1v1H14zM15 21h1v1H15zM16 21h1v1H16zM17 21h1v1H17zM21 21h1v1H21zM10 22h1v1H10zM11 22h1v1H11zM14 22h1v1H14zM15 22h1v1H15zM16 22h1v1H16zM17 22h1v1H17zM20 22h1v1H20zM21 22h1v1H21z"/><path fill="#0e0b0b" d="M13 19h1v1H13zM18 19h1v1H18zM13 20h1v1H13zM18 20h1v1H18z"/><path fill="#4d408c" d="M9 22h1v1H9zM22 22h1v1H22zM10 23h1v1H10zM21 23h1v1H21zM7 30h1v1H7zM8 30h1v1H8zM23 30h1v1H23zM24 30h1v1H24z"/><path fill="#fde3f3" d="M2 23h1v1H2zM29 23h1v1H29zM2 24h1v1H2zM3 24h1v1H3zM4 24h1v1H4zM27 24h1v1H27zM28 24h1v1H28zM29 24h1v1H29zM4 25h1v1H4zM5 25h1v1H5zM26 25h1v1H26zM27 25h1v1H27zM5 26h1v1H5zM26 26h1v1H26zM5 27h1v1H5zM26 27h1v1H26z"/><path fill="#b583c5" d="M9 28h1v1H9zM22 28h1v1H22zM13 30h1v1H13zM18 30h1v1H18z"/></svg>
