<svg xmlns="http://www.w3.org/2000/svg" viewBox="0 0 32 32" shape-rendering="crispEdges"><path fill="#f9deef" d="M12 0h1v1H12zM13 0h1v1H13zM14 0h1v1H14zM17 0h1v1H17zM18 0h1v1H18zM19 0h1v1H19zM7 3h1v1H7zM8 3h1v1H8zM23 3h1v1H23zM24 3h1v1H24zM6 4h1v1H6zM8 4h1v1H8zM23 4h1v1H23zM25 4h1v1H25zM7 5h1v1H7zM8 5h1v1H8zM23 5h1v1H23zM24 5h1v1H24zM4 6h1v1H4zM27 6h1v1H27zM4 8h1v1H4zM5 8h1v1H5zM26 8h1v1H26zM27 8h1v1H27zM3 9h1v1H3zM8 9h1v1H8zM23 9h1v1H23zM28 9h1v1H28zM3 10h1v1H3zM28 10h1v1H28zM15 11h1v1H15zM7 14h1v1H7zM24 14h1v1H24zM7 15h1v1H7zM10 15h1v1H10zM21 15h1v1H21zM24 15h1v1H24zM7 16h1v1H7zM9 16h1v1H9zM22 16h1v1H22zM24 16h1v1H24zM7 17h1v1H7zM9 17h1v1H9zM22 17h1v1H22zM24 17h1v1H24zM10 18h1v1H10zM21 18h1v1H21zM2 20h1v1H2zM8 20h1v1H8zM23 20h1v1H23zM29 20h1v1H29zM3 21h1v1H3zM8 21h1v1H8zM23 21h1v1H23zM28 21h1v1H28zM8 22h1v1H8zM23 22h1v1H23zM9 23h1v1H9zM22 23h1v1H22zM10 24h1v1H10zM21 24h1v1H21z"/><path fill="#c07fbf" d="M15 0h1v1H15zM16 0h1v1H16zM10 1h1v1H10zM14 1h1v1H14zM17 1h1v1H17zM21 1h1v1H21zM13 2h1v1H13zM14 3h1v1H14zM17 3h1v1H17zM15 4h1v1H15zM17 4h1v1H17zM16 5h1v1H16zM13 29h1v1H13zM18 29h1v1H18zM6 30h1v1H6zM7 30h1v1H7zM14 30h1v1H14zM17 30h1v1H17zM24 30h1v1H24zM25 30h1v1H25zM15 31h1v1H15zM16 31h1v1H16z"/><path fill="#fcf8ff" d="M11 1h1v1H11zM12 1h1v1H12zM13 1h1v1H13zM18 1h1v1H18zM19 1h1v1H19zM20 1h1v1H20zM11 2h1v1H11zM20 2h1v1H20zM9 3h1v1H9zM22 3h1v1H22zM9 4h1v1H9zM22 4h1v1H22zM3 12h1v1H3zM28 12h1v1H28zM2 19h1v1H2zM4 19h1v1H4zM6 19h1v1H6zM25 19h1v1H25zM27 19h1v1H27zM29 19h1v1H29zM6 20h1v1H6zM7 20h1v1H7zM24 20h1v1H24zM25 20h1v1H25zM2 25h1v1H2zM29 25h1v1H29zM6 28h1v1H6zM25 28h1v1H25z"/><path fill="#e0b3da" d="M15 1h1v1H15zM13 3h1v1H13zM18 3h1v1H18zM4 7h1v1H4zM27 7h1v1H27zM12 9h1v1H12zM13 9h1v1H13zM15 9h1v1H15zM16 9h1v1H16zM18 9h1v1H18zM19 9h1v1H19zM4 28h1v1H4zM27 28h1v1H27zM10 30h1v1H10zM21 30h1v1H21z"/><path fill="#ffffff" d="M16 1h1v1H16zM15 2h1v1H15zM16 2h1v1H16zM16 3h1v1H16zM7 4h1v1H7zM24 4h1v1H24zM5 5h1v1H5zM6 5h1v1H6zM15 5h1v1H15zM25 5h1v1H25zM26 5h1v1H26zM6 6h1v1H6zM14 6h1v1H14zM15 6h1v1H15zM17 6h1v1H17zM25 6h1v1H25zM13 7h1v1H13zM14 7h1v1H14zM15 7h1v1H15zM18 7h1v1H18zM12 8h1v1H12zM15 8h1v1H15zM19 8h1v1H19zM4 9h1v1H4zM27 9h1v1H27zM9 10h1v1H9zM16 10h1v1H16zM22 10h1v1H22zM8 11h1v1H8zM9 11h1v1H9zM10 11h1v1H10zM11 11h1v1H11zM20 11h1v1H20zM21 11h1v1H21zM22 11h1v1H22zM23 11h1v1H23zM8 12h1v1H8zM9 12h1v1H9zM10 12h1v1H10zM11 12h1v1H11zM12 12h1v1H12zM13 12h1v1H13zM14 12h1v1H14zM17 12h1v1H17zM18 12h1v1H18zM19 12h1v1H19zM20 12h1v1H20zM21 12h1v1H21zM22 12h1v1H22zM23 12h1v1H23zM8 13h1v1H8zM9 13h1v1H9zM10 13h1v1H10zM11 13h1v1H11zM12 13h1v1H12zM13 13h1v1H13zM15 13h1v1H15zM18 13h1v1H18zM19 13h1v1H19zM20 13h1v1H20zM21 13h1v1H21zM22 13h1v1H22zM23 13h1v1H23zM8 14h1v1H8zM9 14h1v1H9zM10 14h1v1H10zM12 14h1v1H12zM19 14h1v1H19zM21 14h1v1H21zM22 14h1v1H22zM23 14h1v1H23zM8 15h1v1H8zM9 15h1v1H9zM11 15h1v1H11zM12 15h1v1H12zM19 15h1v1H19zM20 15h1v1H20zM22 15h1v1H22zM23 15h1v1H23zM8 16h1v1H8zM23 16h1v1H23zM3 17h1v1H3zM6 17h1v1H6zM8 17h1v1H8zM11 17h1v1H11zM12 17h1v1H12zM19 17h1v1H19zM20 17h1v1H20zM23 17h1v1H23zM25 17h1v1H25zM28 17h1v1H28zM2 18h1v1H2zM3 18h1v1H3zM4 18h1v1H4zM6 18h1v1H6zM7 18h1v1H7zM8 18h1v1H8zM11 18h1v1H11zM12 18h1v1H12zM13 18h1v1H13zM18 18h1v1H18zM19 18h1v1H19zM20 18h1v1H20zM23 18h1v1H23zM24 18h1v1H24zM25 18h1v1H25zM27 18h1v1H27zM28 18h1v1H28zM29 18h1v1H29zM3 19h1v1H3zM7 19h1v1H7zM11 19h1v1H11zM12 19h1v1H12zM19 19h1v1H19zM20 19h1v1H20zM24 19h1v1H24zM28 19h1v1H28zM11 20h1v1H11zM12 20h1v1H12zM19 20h1v1H19zM20 20h1v1H20zM4 21h1v1H4zM6 21h1v1H6zM11 21h1v1H11zM12 21h1v1H12zM19 21h1v1H19zM20 21h1v1H20zM25 21h1v1H25zM27 21h1v1H27zM12 22h1v1H12zM13 22h1v1H13zM18 22h1v1H18zM19 22h1v1H19zM2 24h1v1H2zM3 24h1v1H3zM9 24h1v1H9zM15 24h1v1H15zM16 24h1v1H16zM22 24h1v1H22zM28 24h1v1H28zM29 24h1v1H29zM3 25h1v1H3zM9 25h1v1H9zM10 25h1v1H10zM13 25h1v1H13zM14 25h1v1H14zM15 25h1v1H15zM16 25h1v1H16zM17 25h1v1H17zM18 25h1v1H18zM21 25h1v1H21zM22 25h1v1H22zM28 25h1v1H28zM6 26h1v1H6zM10 26h1v1H10zM11 26h1v1H11zM12 26h1v1H12zM13 26h1v1H13zM14 26h1v1H14zM17 26h1v1H17zM18 26h1v1H18zM19 26h1v1H19zM20 26h1v1H20zM21 26h1v1H21zM25 26h1v1H25zM6 27h1v1H6zM7 27h1v1H7zM24 27h1v1H24zM25 27h1v1H25zM16 28h1v1H16zM16 29h1v1H16z"/><path fill="#f5d2ec" d="M8 2h1v1H8zM23 2h1v1H23zM6 8h1v1H6zM25 8h1v1H25zM14 9h1v1H14zM17 9h1v1H17zM14 10h1v1H14zM15 10h1v1H15zM17 10h1v1H17zM3 13h1v1H3zM28 13h1v1H28zM15 28h1v1H15zM15 29h1v1H15z"/><path fill="#edeaf8" d="M9 2h1v1H9zM22 2h1v1H22zM4 12h1v1H4zM27 12h1v1H27zM3 20h1v1H3zM28 20h1v1H28zM7 21h1v1H7zM24 21h1v1H24z"/><path fill="#e8f9fd" d="M10 2h1v1H10zM21 2h1v1H21zM5 6h1v1H5zM26 6h1v1H26zM3 11h1v1H3zM28 11h1v1H28zM2 17h1v1H2zM29 17h1v1H29zM5 19h1v1H5zM26 19h1v1H26zM5 20h1v1H5zM26 20h1v1H26zM5 21h1v1H5zM26 21h1v1H26zM6 22h1v1H6zM25 22h1v1H25zM6 23h1v1H6zM7 23h1v1H7zM24 23h1v1H24zM25 23h1v1H25zM6 24h1v1H6zM7 24h1v1H7zM24 24h1v1H24zM25 24h1v1H25zM7 25h1v1H7zM8 25h1v1H8zM23 25h1v1H23zM24 25h1v1H24zM5 26h1v1H5zM7 26h1v1H7zM8 26h1v1H8zM9 26h1v1H9zM22 26h1v1H22zM23 26h1v1H23zM24 26h1v1H24zM26 26h1v1H26zM5 27h1v1H5zM8 27h1v1H8zM9 27h1v1H9zM10 27h1v1H10zM11 27h1v1H11zM12 27h1v1H12zM13 27h1v1H13zM15 27h1v1H15zM16 27h1v1H16zM18 27h1v1H18zM19 27h1v1H19zM20 27h1v1H20zM21 27h1v1H21zM22 27h1v1H22zM23 27h1v1H23zM26 27h1v1H26zM14 28h1v1H14zM17 28h1v1H17z"/><path fill="#d5a1ce" d="M12 2h1v1H12zM18 2h1v1H18zM19 2h1v1H19zM11 9h1v1H11zM20 9h1v1H20zM13 28h1v1H13zM18 28h1v1H18zM5 29h1v1H5zM14 29h1v1H14zM17 29h1v1H17zM26 29h1v1H26z"/><path fill="#fbf1ee" d="M14 2h1v1H14zM17 2h1v1H17zM15 3h1v1H15zM16 4h1v1H16zM10 10h1v1H10zM21 10h1v1H21zM4 11h1v1H4zM12 11h1v1H12zM19 11h1v1H19zM27 11h1v1H27zM14 14h1v1H14zM6 25h1v1H6zM25 25h1v1H25zM15 26h1v1H15zM9 30h1v1H9zM22 30h1v1H22z"/><path fill="#e1eafb" d="M10 3h1v1H10zM21 3h1v1H21zM6 7h1v1H6zM25 7h1v1H25zM4 20h1v1H4zM27 20h1v1H27z"/><path fill="#9d80bd" d="M13 4h1v1H13zM18 4h1v1H18zM7 9h1v1H7zM24 9h1v1H24zM4 27h1v1H4zM27 27h1v1H27z"/><path fill="#ad95cf" d="M14 4h1v1H14zM6 11h1v1H6zM7 11h1v1H7zM24 11h1v1H24zM25 11h1v1H25zM2 21h1v1H2zM29 21h1v1H29zM3 22h1v1H3zM28 22h1v1H28zM12 29h1v1H12zM19 29h1v1H19zM15 30h1v1H15z"/><path fill="#ffe3a6" d="M14 5h1v1H14zM17 5h1v1H17zM13 6h1v1H13zM18 6h1v1H18zM12 7h1v1H12zM19 7h1v1H19zM11 8h1v1H11zM20 8h1v1H20zM10 9h1v1H10zM21 9h1v1H21zM11 10h1v1H11zM12 10h1v1H12zM19 10h1v1H19zM20 10h1v1H20zM13 11h1v1H13zM14 11h1v1H14zM17 11h1v1H17zM18 11h1v1H18zM15 12h1v1H15zM16 12h1v1H16zM14 13h1v1H14zM17 13h1v1H17zM17 14h1v1H17zM16 15h1v1H16z"/><path fill="#f9e6f1" d="M7 6h1v1H7zM24 6h1v1H24zM5 9h1v1H5zM26 9h1v1H26z"/><path fill="#ebeaf7" d="M16 6h1v1H16zM5 7h1v1H5zM16 7h1v1H16zM17 7h1v1H17zM26 7h1v1H26zM13 8h1v1H13zM14 8h1v1H14zM16 8h1v1H16zM17 8h1v1H17zM18 8h1v1H18zM8 10h1v1H8zM23 10h1v1H23zM16 11h1v1H16zM11 14h1v1H11zM20 14h1v1H20zM2 23h1v1H2zM29 23h1v1H29z"/><path fill="#e7d0ee" d="M11 7h1v1H11zM20 7h1v1H20z"/><path fill="#c7c1ed" d="M8 8h1v1H8zM23 8h1v1H23zM7 12h1v1H7zM24 12h1v1H24zM7 13h1v1H7zM24 13h1v1H24zM3 14h1v1H3zM13 14h1v1H13zM18 14h1v1H18zM28 14h1v1H28zM3 15h1v1H3zM28 15h1v1H28zM8 23h1v1H8zM23 23h1v1H23zM8 24h1v1H8zM23 24h1v1H23zM4 25h1v1H4zM27 25h1v1H27zM3 26h1v1H3zM28 26h1v1H28zM11 28h1v1H11zM12 28h1v1H12zM19 28h1v1H19zM20 28h1v1H20z"/><path fill="#e6d7f3" d="M9 8h1v1H9zM10 8h1v1H10zM21 8h1v1H21zM22 8h1v1H22zM9 9h1v1H9zM22 9h1v1H22zM13 10h1v1H13zM18 10h1v1H18zM4 22h1v1H4zM27 22h1v1H27zM14 27h1v1H14zM17 27h1v1H17z"/><path fill="#fefbfb" d="M4 10h1v1H4zM27 10h1v1H27z"/><path fill="#e3beea" d="M5 10h1v1H5zM26 10h1v1H26zM15 15h1v1H15zM10 19h1v1H10zM21 19h1v1H21zM13 21h1v1H13zM16 26h1v1H16zM9 29h1v1H9zM10 29h1v1H10zM21 29h1v1H21zM22 29h1v1H22z"/><path fill="#635bbe" d="M7 10h1v1H7zM24 10h1v1H24zM6 13h1v1H6zM25 13h1v1H25zM5 15h1v1H5zM26 15h1v1H26zM1 17h1v1H1zM4 17h1v1H4zM27 17h1v1H27zM30 17h1v1H30zM1 18h1v1H1zM30 18h1v1H30zM1 19h1v1H1zM30 19h1v1H30zM1 20h1v1H1zM10 20h1v1H10zM21 20h1v1H21zM30 20h1v1H30zM1 22h1v1H1zM30 22h1v1H30zM1 23h1v1H1zM4 23h1v1H4zM5 23h1v1H5zM26 23h1v1H26zM27 23h1v1H27zM30 23h1v1H30zM5 24h1v1H5zM26 24h1v1H26zM3 27h1v1H3zM28 27h1v1H28zM9 28h1v1H9zM10 28h1v1H10zM21 28h1v1H21zM22 28h1v1H22zM8 29h1v1H8zM11 29h1v1H11zM20 29h1v1H20zM23 29h1v1H23z"/><path fill="#6681cf" d="M6 12h1v1H6zM25 12h1v1H25zM1 15h1v1H1zM2 15h1v1H2zM29 15h1v1H29zM30 15h1v1H30zM1 16h1v1H1zM3 16h1v1H3zM28 16h1v1H28zM30 16h1v1H30zM5 18h1v1H5zM26 18h1v1H26zM2 22h1v1H2zM5 22h1v1H5zM26 22h1v1H26zM29 22h1v1H29zM3 23h1v1H3zM28 23h1v1H28zM1 24h1v1H1zM4 24h1v1H4zM27 24h1v1H27zM30 24h1v1H30zM1 25h1v1H1zM5 25h1v1H5zM26 25h1v1H26zM30 25h1v1H30z"/><path fill="#dbdbf6" d="M4 13h1v1H4zM16 13h1v1H16zM27 13h1v1H27zM4 14h1v1H4zM15 14h1v1H15zM27 14h1v1H27zM2 16h1v1H2zM29 16h1v1H29zM8 19h1v1H8zM23 19h1v1H23zM7 22h1v1H7zM24 22h1v1H24zM7 28h1v1H7zM24 28h1v1H24z"/><path fill="#664f9c" d="M6 14h1v1H6zM25 14h1v1H25zM6 15h1v1H6zM25 15h1v1H25zM5 16h1v1H5zM6 16h1v1H6zM25 16h1v1H25zM26 16h1v1H26zM5 17h1v1H5zM26 17h1v1H26zM8 30h1v1H8zM11 30h1v1H11zM20 30h1v1H20zM23 30h1v1H23zM9 31h1v1H9zM10 31h1v1H10zM21 31h1v1H21zM22 31h1v1H22z"/><path fill="#b8a9e0" d="M16 14h1v1H16zM2 26h1v1H2zM29 26h1v1H29zM5 28h1v1H5zM8 28h1v1H8zM23 28h1v1H23zM26 28h1v1H26zM6 29h1v1H6zM7 29h1v1H7zM24 29h1v1H24zM25 29h1v1H25zM16 30h1v1H16z"/><path fill="#8e60a5" d="M4 15h1v1H4zM27 15h1v1H27zM4 16h1v1H4zM27 16h1v1H27z"/><path fill="#0e0b0b" d="M13 15h1v1H13zM14 15h1v1H14zM17 15h1v1H17zM18 15h1v1H18zM10 16h1v1H10zM11 16h1v1H11zM12 16h1v1H12zM13 16h1v1H13zM14 16h1v1H14zM15 16h1v1H15zM16 16h1v1H16zM17 16h1v1H17zM18 16h1v1H18zM19 16h1v1H19zM20 16h1v1H20zM21 16h1v1H21zM10 17h1v1H10zM13 17h1v1H13zM14 17h1v1H14zM15 17h1v1H15zM16 17h1v1H16zM17 17h1v1H17zM18 17h1v1H18zM21 17h1v1H21zM9 18h1v1H9zM14 18h1v1H14zM15 18h1v1H15zM16 18h1v1H16zM17 18h1v1H17zM22 18h1v1H22zM9 19h1v1H9zM13 19h1v1H13zM14 19h1v1H14zM15 19h1v1H15zM16 19h1v1H16zM17 19h1v1H17zM18 19h1v1H18zM22 19h1v1H22zM9 20h1v1H9zM13 20h1v1H13zM14 20h1v1H14zM15 20h1v1H15zM16 20h1v1H16zM17 20h1v1H17zM18 20h1v1H18zM22 20h1v1H22zM9 21h1v1H9zM10 21h1v1H10zM14 21h1v1H14zM15 21h1v1H15zM16 21h1v1H16zM17 21h1v1H17zM21 21h1v1H21zM22 21h1v1H22zM9 22h1v1H9zM10 22h1v1H10zM11 22h1v1H11zM14 22h1v1H14zM15 22h1v1H15zM16 22h1v1H16zM17 22h1v1H17zM20 22h1v1H20zM21 22h1v1H21zM22 22h1v1H22zM10 23h1v1H10zM11 23h1v1H11zM12 23h1v1H12zM13 23h1v1H13zM14 23h1v1H14zM15 23h1v1H15zM16 23h1v1H16zM17 23h1v1H17zM18 23h1v1H18zM19 23h1v1H19zM20 23h1v1H20zM21 23h1v1H21zM11 24h1v1H11zM12 24h1v1H12zM13 24h1v1H13zM14 24h1v1H14zM17 24h1v1H17zM18 24h1v1H18zM19 24h1v1H19zM20 24h1v1H20z"/><path fill="#e8a8d2" d="M18 21h1v1H18z"/><path fill="#95a6d6" d="M11 25h1v1H11zM12 25h1v1H12zM19 25h1v1H19zM20 25h1v1H20zM4 26h1v1H4zM27 26h1v1H27z"/></svg>
