<svg xmlns="http://www.w3.org/2000/svg" viewBox="0 0 32 32" shape-rendering="crispEdges"><path fill="#8749c6" d="M13 0h1v1H13zM16 0h1v1H16zM14 1h1v1H14zM14 2h1v1H14zM19 2h1v1H19zM13 3h1v1H13zM17 5h1v1H17zM5 6h1v1H5zM6 6h1v1H6zM25 6h1v1H25zM26 6h1v1H26zM5 8h1v1H5zM26 8h1v1H26zM6 9h1v1H6zM25 9h1v1H25zM7 10h1v1H7zM8 10h1v1H8zM15 10h1v1H15zM23 10h1v1H23zM24 10h1v1H24zM16 11h1v1H16zM8 12h1v1H8zM10 12h1v1H10zM11 12h1v1H11zM15 12h1v1H15zM20 12h1v1H20zM21 12h1v1H21zM23 12h1v1H23zM9 13h1v1H9zM10 13h1v1H10zM12 13h1v1H12zM19 13h1v1H19zM21 13h1v1H21zM22 13h1v1H22zM4 14h1v1H4zM27 14h1v1H27zM7 15h1v1H7zM24 15h1v1H24zM8 16h1v1H8zM14 16h1v1H14zM17 16h1v1H17zM23 16h1v1H23zM3 18h1v1H3zM10 18h1v1H10zM21 18h1v1H21zM28 18h1v1H28zM2 19h1v1H2zM4 19h1v1H4zM27 19h1v1H27zM29 19h1v1H29zM2 21h1v1H2zM3 21h1v1H3zM4 21h1v1H4zM27 21h1v1H27zM28 21h1v1H28zM29 21h1v1H29zM3 22h1v1H3zM28 22h1v1H28zM7 23h1v1H7zM24 23h1v1H24zM7 24h1v1H7zM8 24h1v1H8zM23 24h1v1H23zM24 24h1v1H24zM9 25h1v1H9zM11 25h1v1H11zM20 25h1v1H20zM22 25h1v1H22zM10 26h1v1H10zM21 26h1v1H21zM9 27h1v1H9zM10 27h1v1H10zM21 27h1v1H21zM22 27h1v1H22z"/><path fill="#2d1b64" d="M17 0h1v1H17zM18 1h1v1H18zM7 4h1v1H7zM24 4h1v1H24zM11 6h1v1H11zM12 7h1v1H12zM9 10h1v1H9zM22 10h1v1H22zM11 11h1v1H11zM20 11h1v1H20zM4 13h1v1H4zM15 13h1v1H15zM27 13h1v1H27zM10 14h1v1H10zM11 14h1v1H11zM20 14h1v1H20zM21 14h1v1H21zM6 15h1v1H6zM9 15h1v1H9zM22 15h1v1H22zM25 15h1v1H25zM4 18h1v1H4zM27 18h1v1H27zM1 19h1v1H1zM30 19h1v1H30zM5 21h1v1H5zM26 21h1v1H26zM2 22h1v1H2zM4 22h1v1H4zM27 22h1v1H27zM29 22h1v1H29zM9 26h1v1H9zM22 26h1v1H22z"/><path fill="#000000" d="M7 1h1v1H7zM8 1h1v1H8zM16 1h1v1H16zM23 1h1v1H23zM24 1h1v1H24zM8 2h1v1H8zM9 2h1v1H9zM15 2h1v1H15zM22 2h1v1H22zM23 2h1v1H23zM7 3h1v1H7zM24 3h1v1H24zM9 4h1v1H9zM22 4h1v1H22zM8 5h1v1H8zM23 5h1v1H23zM8 6h1v1H8zM23 6h1v1H23zM9 7h1v1H9zM22 7h1v1H22zM10 8h1v1H10zM11 8h1v1H11zM12 8h1v1H12zM18 8h1v1H18zM19 8h1v1H19zM20 8h1v1H20zM21 8h1v1H21zM4 9h1v1H4zM11 9h1v1H11zM12 9h1v1H12zM13 9h1v1H13zM18 9h1v1H18zM19 9h1v1H19zM20 9h1v1H20zM27 9h1v1H27zM5 10h1v1H5zM12 10h1v1H12zM13 10h1v1H13zM18 10h1v1H18zM19 10h1v1H19zM26 10h1v1H26zM12 11h1v1H12zM19 11h1v1H19zM4 12h1v1H4zM6 12h1v1H6zM13 12h1v1H13zM18 12h1v1H18zM25 12h1v1H25zM27 12h1v1H27zM6 13h1v1H6zM14 13h1v1H14zM17 13h1v1H17zM25 13h1v1H25zM5 14h1v1H5zM14 14h1v1H14zM17 14h1v1H17zM26 14h1v1H26zM4 15h1v1H4zM5 15h1v1H5zM15 15h1v1H15zM16 15h1v1H16zM26 15h1v1H26zM27 15h1v1H27zM2 16h1v1H2zM3 16h1v1H3zM4 16h1v1H4zM5 16h1v1H5zM10 16h1v1H10zM11 16h1v1H11zM12 16h1v1H12zM13 16h1v1H13zM15 16h1v1H15zM16 16h1v1H16zM18 16h1v1H18zM19 16h1v1H19zM20 16h1v1H20zM21 16h1v1H21zM26 16h1v1H26zM27 16h1v1H27zM28 16h1v1H28zM29 16h1v1H29zM5 17h1v1H5zM9 17h1v1H9zM10 17h1v1H10zM13 17h1v1H13zM14 17h1v1H14zM15 17h1v1H15zM16 17h1v1H16zM17 17h1v1H17zM18 17h1v1H18zM21 17h1v1H21zM22 17h1v1H22zM26 17h1v1H26zM6 18h1v1H6zM9 18h1v1H9zM14 18h1v1H14zM15 18h1v1H15zM16 18h1v1H16zM17 18h1v1H17zM22 18h1v1H22zM25 18h1v1H25zM6 19h1v1H6zM9 19h1v1H9zM13 19h1v1H13zM14 19h1v1H14zM15 19h1v1H15zM16 19h1v1H16zM17 19h1v1H17zM18 19h1v1H18zM22 19h1v1H22zM25 19h1v1H25zM6 20h1v1H6zM9 20h1v1H9zM13 20h1v1H13zM14 20h1v1H14zM15 20h1v1H15zM16 20h1v1H16zM17 20h1v1H17zM18 20h1v1H18zM22 20h1v1H22zM25 20h1v1H25zM6 21h1v1H6zM9 21h1v1H9zM10 21h1v1H10zM14 21h1v1H14zM15 21h1v1H15zM16 21h1v1H16zM17 21h1v1H17zM21 21h1v1H21zM22 21h1v1H22zM25 21h1v1H25zM5 22h1v1H5zM6 22h1v1H6zM9 22h1v1H9zM10 22h1v1H10zM11 22h1v1H11zM14 22h1v1H14zM15 22h1v1H15zM16 22h1v1H16zM17 22h1v1H17zM20 22h1v1H20zM21 22h1v1H21zM22 22h1v1H22zM25 22h1v1H25zM26 22h1v1H26zM4 23h1v1H4zM5 23h1v1H5zM11 23h1v1H11zM12 23h1v1H12zM13 23h1v1H13zM14 23h1v1H14zM15 23h1v1H15zM16 23h1v1H16zM17 23h1v1H17zM18 23h1v1H18zM19 23h1v1H19zM20 23h1v1H20zM26 23h1v1H26zM27 23h1v1H27zM3 24h1v1H3zM4 24h1v1H4zM5 24h1v1H5zM13 24h1v1H13zM14 24h1v1H14zM15 24h1v1H15zM16 24h1v1H16zM17 24h1v1H17zM18 24h1v1H18zM26 24h1v1H26zM27 24h1v1H27zM28 24h1v1H28zM29 24h1v1H29zM2 25h1v1H2zM3 25h1v1H3zM5 25h1v1H5zM6 25h1v1H6zM14 25h1v1H14zM15 25h1v1H15zM16 25h1v1H16zM17 25h1v1H17zM25 25h1v1H25zM26 25h1v1H26zM28 25h1v1H28zM29 25h1v1H29zM2 26h1v1H2zM5 26h1v1H5zM6 26h1v1H6zM13 26h1v1H13zM14 26h1v1H14zM15 26h1v1H15zM16 26h1v1H16zM17 26h1v1H17zM18 26h1v1H18zM25 26h1v1H25zM26 26h1v1H26zM29 26h1v1H29zM2 27h1v1H2zM4 27h1v1H4zM6 27h1v1H6zM12 27h1v1H12zM13 27h1v1H13zM14 27h1v1H14zM15 27h1v1H15zM16 27h1v1H16zM17 27h1v1H17zM18 27h1v1H18zM19 27h1v1H19zM25 27h1v1H25zM27 27h1v1H27zM29 27h1v1H29zM3 28h1v1H3zM7 28h1v1H7zM12 28h1v1H12zM13 28h1v1H13zM14 28h1v1H14zM15 28h1v1H15zM16 28h1v1H16zM17 28h1v1H17zM18 28h1v1H18zM19 28h1v1H19zM24 28h1v1H24zM28 28h1v1H28zM4 29h1v1H4zM14 29h1v1H14zM15 29h1v1H15zM16 29h1v1H16zM17 29h1v1H17zM27 29h1v1H27zM15 30h1v1H15zM16 30h1v1H16z"/><path fill="#191133" d="M17 1h1v1H17zM17 2h1v1H17zM18 2h1v1H18zM8 3h1v1H8zM16 3h1v1H16zM17 3h1v1H17zM23 3h1v1H23zM16 4h1v1H16zM7 5h1v1H7zM24 5h1v1H24zM7 6h1v1H7zM15 6h1v1H15zM24 6h1v1H24zM14 7h1v1H14zM16 7h1v1H16zM14 9h1v1H14zM17 9h1v1H17zM8 22h1v1H8zM23 22h1v1H23zM9 24h1v1H9zM22 24h1v1H22zM4 25h1v1H4zM13 25h1v1H13zM18 25h1v1H18zM27 25h1v1H27zM3 26h1v1H3zM28 26h1v1H28zM11 29h1v1H11zM20 29h1v1H20z"/><path fill="#0c071f" d="M16 2h1v1H16zM16 6h1v1H16zM2 13h1v1H2zM29 13h1v1H29z"/><path fill="#0a0719" d="M9 3h1v1H9zM22 3h1v1H22zM17 7h1v1H17zM11 15h1v1H11zM12 15h1v1H12zM19 15h1v1H19zM20 15h1v1H20zM5 18h1v1H5zM26 18h1v1H26zM8 29h1v1H8zM23 29h1v1H23z"/><path fill="#0d0a1c" d="M14 3h1v1H14zM6 4h1v1H6zM25 4h1v1H25zM5 5h1v1H5zM26 5h1v1H26zM17 6h1v1H17zM3 12h1v1H3zM28 12h1v1H28zM1 13h1v1H1zM5 13h1v1H5zM26 13h1v1H26zM30 13h1v1H30zM10 15h1v1H10zM21 15h1v1H21zM2 23h1v1H2zM29 23h1v1H29zM9 30h1v1H9zM22 30h1v1H22z"/><path fill="#100b25" d="M15 3h1v1H15zM4 8h1v1H4zM27 8h1v1H27zM3 14h1v1H3zM28 14h1v1H28zM6 16h1v1H6zM25 16h1v1H25zM7 27h1v1H7zM8 27h1v1H8zM23 27h1v1H23zM24 27h1v1H24zM11 28h1v1H11zM20 28h1v1H20z"/><path fill="#160e2e" d="M18 3h1v1H18zM8 4h1v1H8zM14 4h1v1H14zM17 4h1v1H17zM23 4h1v1H23zM13 5h1v1H13zM13 6h1v1H13zM9 8h1v1H9zM22 8h1v1H22zM10 10h1v1H10zM21 10h1v1H21zM13 11h1v1H13zM18 11h1v1H18zM3 13h1v1H3zM28 13h1v1H28zM2 14h1v1H2zM29 14h1v1H29zM3 15h1v1H3zM28 15h1v1H28zM8 26h1v1H8zM23 26h1v1H23zM3 27h1v1H3zM28 27h1v1H28z"/><path fill="#552aae" d="M19 3h1v1H19zM12 4h1v1H12zM11 5h1v1H11zM20 5h1v1H20zM19 6h1v1H19zM8 9h1v1H8zM23 9h1v1H23zM7 11h1v1H7zM17 11h1v1H17zM24 11h1v1H24zM16 12h1v1H16zM8 13h1v1H8zM23 13h1v1H23zM1 20h1v1H1zM5 20h1v1H5zM26 20h1v1H26zM30 20h1v1H30zM7 22h1v1H7zM24 22h1v1H24zM8 25h1v1H8zM12 25h1v1H12zM19 25h1v1H19zM23 25h1v1H23zM11 26h1v1H11zM20 26h1v1H20z"/><path fill="#09061b" d="M13 4h1v1H13zM12 5h1v1H12zM16 5h1v1H16zM12 6h1v1H12zM13 7h1v1H13zM15 8h1v1H15zM11 10h1v1H11zM20 10h1v1H20zM6 11h1v1H6zM25 11h1v1H25zM2 15h1v1H2zM29 15h1v1H29zM6 17h1v1H6zM25 17h1v1H25zM7 26h1v1H7zM24 26h1v1H24z"/><path fill="#1a103c" d="M15 4h1v1H15zM14 5h1v1H14zM15 5h1v1H15zM14 6h1v1H14zM7 7h1v1H7zM15 7h1v1H15zM24 7h1v1H24zM13 8h1v1H13zM14 8h1v1H14zM16 8h1v1H16zM17 8h1v1H17zM5 9h1v1H5zM26 9h1v1H26zM7 13h1v1H7zM24 13h1v1H24zM5 19h1v1H5zM26 19h1v1H26zM3 23h1v1H3zM8 23h1v1H8zM23 23h1v1H23zM28 23h1v1H28zM6 24h1v1H6zM25 24h1v1H25zM12 26h1v1H12zM19 26h1v1H19zM11 27h1v1H11zM20 27h1v1H20z"/><path fill="#623ea6" d="M18 4h1v1H18zM6 5h1v1H6zM25 5h1v1H25zM4 6h1v1H4zM27 6h1v1H27zM8 7h1v1H8zM23 7h1v1H23zM10 9h1v1H10zM21 9h1v1H21zM16 10h1v1H16zM14 11h1v1H14zM7 14h1v1H7zM8 14h1v1H8zM23 14h1v1H23zM24 14h1v1H24zM4 17h1v1H4zM7 17h1v1H7zM24 17h1v1H24zM27 17h1v1H27zM7 18h1v1H7zM24 18h1v1H24zM7 19h1v1H7zM10 19h1v1H10zM21 19h1v1H21zM24 19h1v1H24zM7 20h1v1H7zM24 20h1v1H24zM7 21h1v1H7zM13 21h1v1H13zM18 21h1v1H18zM24 21h1v1H24zM10 23h1v1H10zM21 23h1v1H21zM4 26h1v1H4zM27 26h1v1H27zM4 28h1v1H4zM27 28h1v1H27z"/><path fill="#3a217e" d="M20 6h1v1H20zM6 7h1v1H6zM18 7h1v1H18zM19 7h1v1H19zM25 7h1v1H25zM7 8h1v1H7zM8 8h1v1H8zM23 8h1v1H23zM24 8h1v1H24zM9 9h1v1H9zM15 9h1v1H15zM16 9h1v1H16zM22 9h1v1H22zM14 10h1v1H14zM10 11h1v1H10zM21 11h1v1H21zM7 12h1v1H7zM9 12h1v1H9zM14 12h1v1H14zM22 12h1v1H22zM24 12h1v1H24zM11 13h1v1H11zM20 13h1v1H20zM9 14h1v1H9zM12 14h1v1H12zM13 14h1v1H13zM18 14h1v1H18zM19 14h1v1H19zM22 14h1v1H22zM8 15h1v1H8zM13 15h1v1H13zM18 15h1v1H18zM23 15h1v1H23zM7 16h1v1H7zM9 16h1v1H9zM22 16h1v1H22zM24 16h1v1H24zM8 17h1v1H8zM23 17h1v1H23zM2 18h1v1H2zM8 18h1v1H8zM23 18h1v1H23zM29 18h1v1H29zM3 20h1v1H3zM10 20h1v1H10zM21 20h1v1H21zM28 20h1v1H28zM1 21h1v1H1zM30 21h1v1H30zM9 23h1v1H9zM22 23h1v1H22zM10 24h1v1H10zM12 24h1v1H12zM19 24h1v1H19zM21 24h1v1H21zM10 25h1v1H10zM21 25h1v1H21zM10 28h1v1H10zM21 28h1v1H21zM9 29h1v1H9zM22 29h1v1H22z"/><path fill="#25135d" d="M4 7h1v1H4zM27 7h1v1H27zM6 10h1v1H6zM25 10h1v1H25zM9 11h1v1H9zM22 11h1v1H22zM12 12h1v1H12zM17 12h1v1H17zM19 12h1v1H19zM16 13h1v1H16zM11 24h1v1H11zM20 24h1v1H20z"/><path fill="#d5b1de" d="M5 7h1v1H5zM26 7h1v1H26zM6 8h1v1H6zM25 8h1v1H25zM7 9h1v1H7zM24 9h1v1H24zM8 11h1v1H8zM15 11h1v1H15zM23 11h1v1H23zM14 15h1v1H14zM17 15h1v1H17zM3 19h1v1H3zM28 19h1v1H28zM2 20h1v1H2zM4 20h1v1H4zM27 20h1v1H27zM29 20h1v1H29zM9 28h1v1H9zM22 28h1v1H22zM10 29h1v1H10zM21 29h1v1H21z"/><path fill="#1f1442" d="M17 10h1v1H17zM2 11h1v1H2zM29 11h1v1H29zM6 14h1v1H6zM25 14h1v1H25zM3 17h1v1H3zM28 17h1v1H28zM8 19h1v1H8zM23 19h1v1H23zM8 20h1v1H8zM23 20h1v1H23zM8 21h1v1H8zM23 21h1v1H23zM6 23h1v1H6zM25 23h1v1H25zM7 25h1v1H7zM24 25h1v1H24zM8 28h1v1H8zM23 28h1v1H23z"/><path fill="#18112b" d="M3 11h1v1H3zM28 11h1v1H28zM2 17h1v1H2zM29 17h1v1H29zM1 18h1v1H1zM30 18h1v1H30zM10 30h1v1H10zM21 30h1v1H21z"/><path fill="#110d24" d="M13 13h1v1H13zM18 13h1v1H18zM15 14h1v1H15zM16 14h1v1H16zM1 22h1v1H1zM30 22h1v1H30z"/><path fill="#ffffff" d="M11 17h1v1H11zM12 17h1v1H12zM19 17h1v1H19zM20 17h1v1H20zM11 18h1v1H11zM12 18h1v1H12zM13 18h1v1H13zM18 18h1v1H18zM19 18h1v1H19zM20 18h1v1H20zM11 19h1v1H11zM12 19h1v1H12zM19 19h1v1H19zM20 19h1v1H20zM11 20h1v1H11zM12 20h1v1H12zM19 20h1v1H19zM20 20h1v1H20zM11 21h1v1H11zM12 21h1v1H12zM19 21h1v1H19zM20 21h1v1H20zM12 22h1v1H12zM13 22h1v1H13zM18 22h1v1H18zM19 22h1v1H19z"/></svg>
