<svg xmlns="http://www.w3.org/2000/svg" viewBox="0 0 32 32" shape-rendering="crispEdges"><path fill="#281952" d="M15 1h1v1H15zM16 1h1v1H16zM14 2h1v1H14zM17 2h1v1H17zM7 3h1v1H7zM13 3h1v1H13zM18 3h1v1H18zM24 3h1v1H24zM7 4h1v1H7zM24 4h1v1H24zM8 6h1v1H8zM9 6h1v1H9zM22 6h1v1H22zM23 6h1v1H23zM8 7h1v1H8zM9 7h1v1H9zM22 7h1v1H22zM23 7h1v1H23zM11 9h1v1H11zM20 9h1v1H20zM2 13h1v1H2zM29 13h1v1H29zM10 15h1v1H10zM21 15h1v1H21zM8 16h1v1H8zM23 16h1v1H23zM1 17h1v1H1zM8 17h1v1H8zM23 17h1v1H23zM30 17h1v1H30zM1 18h1v1H1zM8 18h1v1H8zM23 18h1v1H23zM30 18h1v1H30zM10 23h1v1H10zM21 23h1v1H21zM3 24h1v1H3zM10 24h1v1H10zM21 24h1v1H21zM28 24h1v1H28zM3 25h1v1H3zM6 25h1v1H6zM25 25h1v1H25zM28 25h1v1H28zM8 26h1v1H8zM23 26h1v1H23z"/><path fill="#391e6f" d="M13 2h1v1H13zM18 2h1v1H18zM12 3h1v1H12zM19 3h1v1H19zM11 4h1v1H11zM20 4h1v1H20zM9 8h1v1H9zM22 8h1v1H22zM4 17h1v1H4zM5 17h1v1H5zM9 17h1v1H9zM22 17h1v1H22zM26 17h1v1H26zM27 17h1v1H27zM4 18h1v1H4zM5 18h1v1H5zM9 18h1v1H9zM22 18h1v1H22zM26 18h1v1H26zM27 18h1v1H27zM2 21h1v1H2zM3 21h1v1H3zM28 21h1v1H28zM29 21h1v1H29zM2 22h1v1H2zM3 22h1v1H3zM28 22h1v1H28zM29 22h1v1H29zM9 25h1v1H9zM22 25h1v1H22zM6 26h1v1H6zM10 26h1v1H10zM21 26h1v1H21zM25 26h1v1H25zM5 28h1v1H5zM13 28h1v1H13zM18 28h1v1H18zM26 28h1v1H26zM4 29h1v1H4zM5 29h1v1H5zM15 29h1v1H15zM16 29h1v1H16zM26 29h1v1H26zM27 29h1v1H27zM5 30h1v1H5zM6 30h1v1H6zM25 30h1v1H25zM26 30h1v1H26z"/><path fill="#0e0824" d="M15 2h1v1H15zM16 2h1v1H16zM14 3h1v1H14zM17 3h1v1H17zM13 4h1v1H13zM18 4h1v1H18zM12 5h1v1H12zM19 5h1v1H19zM12 7h1v1H12zM19 7h1v1H19zM13 9h1v1H13zM18 9h1v1H18zM6 17h1v1H6zM25 17h1v1H25zM7 25h1v1H7zM8 25h1v1H8zM23 25h1v1H23zM24 25h1v1H24z"/><path fill="#000000" d="M15 3h1v1H15zM16 3h1v1H16zM6 4h1v1H6zM14 4h1v1H14zM15 4h1v1H15zM16 4h1v1H16zM17 4h1v1H17zM25 4h1v1H25zM6 5h1v1H6zM10 5h1v1H10zM13 5h1v1H13zM14 5h1v1H14zM17 5h1v1H17zM18 5h1v1H18zM21 5h1v1H21zM25 5h1v1H25zM6 6h1v1H6zM12 6h1v1H12zM13 6h1v1H13zM15 6h1v1H15zM16 6h1v1H16zM18 6h1v1H18zM19 6h1v1H19zM25 6h1v1H25zM15 7h1v1H15zM16 7h1v1H16zM7 8h1v1H7zM24 8h1v1H24zM7 9h1v1H7zM8 9h1v1H8zM9 9h1v1H9zM10 9h1v1H10zM12 9h1v1H12zM19 9h1v1H19zM21 9h1v1H21zM22 9h1v1H22zM23 9h1v1H23zM24 9h1v1H24zM5 10h1v1H5zM6 10h1v1H6zM7 10h1v1H7zM8 10h1v1H8zM12 10h1v1H12zM19 10h1v1H19zM23 10h1v1H23zM24 10h1v1H24zM25 10h1v1H25zM26 10h1v1H26zM1 11h1v1H1zM2 11h1v1H2zM4 11h1v1H4zM5 11h1v1H5zM8 11h1v1H8zM9 11h1v1H9zM10 11h1v1H10zM11 11h1v1H11zM12 11h1v1H12zM13 11h1v1H13zM18 11h1v1H18zM19 11h1v1H19zM20 11h1v1H20zM21 11h1v1H21zM22 11h1v1H22zM23 11h1v1H23zM26 11h1v1H26zM27 11h1v1H27zM29 11h1v1H29zM30 11h1v1H30zM1 12h1v1H1zM3 12h1v1H3zM4 12h1v1H4zM5 12h1v1H5zM7 12h1v1H7zM9 12h1v1H9zM13 12h1v1H13zM14 12h1v1H14zM17 12h1v1H17zM18 12h1v1H18zM22 12h1v1H22zM24 12h1v1H24zM26 12h1v1H26zM27 12h1v1H27zM28 12h1v1H28zM30 12h1v1H30zM1 13h1v1H1zM3 13h1v1H3zM4 13h1v1H4zM6 13h1v1H6zM9 13h1v1H9zM13 13h1v1H13zM14 13h1v1H14zM15 13h1v1H15zM16 13h1v1H16zM17 13h1v1H17zM18 13h1v1H18zM22 13h1v1H22zM25 13h1v1H25zM27 13h1v1H27zM28 13h1v1H28zM30 13h1v1H30zM3 14h1v1H3zM4 14h1v1H4zM8 14h1v1H8zM15 14h1v1H15zM16 14h1v1H16zM23 14h1v1H23zM27 14h1v1H27zM28 14h1v1H28zM5 15h1v1H5zM6 15h1v1H6zM25 15h1v1H25zM26 15h1v1H26zM0 16h1v1H0zM1 16h1v1H1zM6 16h1v1H6zM7 16h1v1H7zM10 16h1v1H10zM11 16h1v1H11zM12 16h1v1H12zM13 16h1v1H13zM18 16h1v1H18zM19 16h1v1H19zM20 16h1v1H20zM21 16h1v1H21zM24 16h1v1H24zM25 16h1v1H25zM30 16h1v1H30zM31 16h1v1H31zM0 17h1v1H0zM2 17h1v1H2zM10 17h1v1H10zM13 17h1v1H13zM14 17h1v1H14zM17 17h1v1H17zM18 17h1v1H18zM21 17h1v1H21zM29 17h1v1H29zM31 17h1v1H31zM0 18h1v1H0zM7 18h1v1H7zM14 18h1v1H14zM15 18h1v1H15zM16 18h1v1H16zM17 18h1v1H17zM24 18h1v1H24zM31 18h1v1H31zM0 19h1v1H0zM7 19h1v1H7zM13 19h1v1H13zM14 19h1v1H14zM15 19h1v1H15zM16 19h1v1H16zM17 19h1v1H17zM18 19h1v1H18zM24 19h1v1H24zM31 19h1v1H31zM1 20h1v1H1zM4 20h1v1H4zM5 20h1v1H5zM6 20h1v1H6zM13 20h1v1H13zM14 20h1v1H14zM15 20h1v1H15zM16 20h1v1H16zM17 20h1v1H17zM18 20h1v1H18zM25 20h1v1H25zM26 20h1v1H26zM27 20h1v1H27zM30 20h1v1H30zM1 21h1v1H1zM4 21h1v1H4zM7 21h1v1H7zM8 21h1v1H8zM10 21h1v1H10zM14 21h1v1H14zM15 21h1v1H15zM16 21h1v1H16zM17 21h1v1H17zM21 21h1v1H21zM23 21h1v1H23zM24 21h1v1H24zM27 21h1v1H27zM30 21h1v1H30zM1 22h1v1H1zM4 22h1v1H4zM6 22h1v1H6zM8 22h1v1H8zM9 22h1v1H9zM10 22h1v1H10zM11 22h1v1H11zM14 22h1v1H14zM15 22h1v1H15zM16 22h1v1H16zM17 22h1v1H17zM20 22h1v1H20zM21 22h1v1H21zM22 22h1v1H22zM23 22h1v1H23zM25 22h1v1H25zM27 22h1v1H27zM30 22h1v1H30zM1 23h1v1H1zM2 23h1v1H2zM5 23h1v1H5zM9 23h1v1H9zM11 23h1v1H11zM12 23h1v1H12zM13 23h1v1H13zM14 23h1v1H14zM15 23h1v1H15zM16 23h1v1H16zM17 23h1v1H17zM18 23h1v1H18zM19 23h1v1H19zM20 23h1v1H20zM22 23h1v1H22zM26 23h1v1H26zM29 23h1v1H29zM30 23h1v1H30zM2 24h1v1H2zM6 24h1v1H6zM9 24h1v1H9zM13 24h1v1H13zM14 24h1v1H14zM15 24h1v1H15zM16 24h1v1H16zM17 24h1v1H17zM18 24h1v1H18zM22 24h1v1H22zM25 24h1v1H25zM29 24h1v1H29zM10 25h1v1H10zM21 25h1v1H21zM7 26h1v1H7zM11 26h1v1H11zM12 26h1v1H12zM13 26h1v1H13zM18 26h1v1H18zM19 26h1v1H19zM20 26h1v1H20zM24 26h1v1H24zM6 27h1v1H6zM7 27h1v1H7zM8 27h1v1H8zM12 27h1v1H12zM19 27h1v1H19zM23 27h1v1H23zM24 27h1v1H24zM25 27h1v1H25zM6 28h1v1H6zM7 28h1v1H7zM24 28h1v1H24zM25 28h1v1H25z"/><path fill="#08041e" d="M10 4h1v1H10zM21 4h1v1H21zM10 12h1v1H10zM12 12h1v1H12zM19 12h1v1H19zM21 12h1v1H21zM1 14h1v1H1zM30 14h1v1H30z"/><path fill="#1d1043" d="M12 4h1v1H12zM19 4h1v1H19zM5 8h1v1H5zM12 8h1v1H12zM19 8h1v1H19zM26 8h1v1H26zM5 13h1v1H5zM10 13h1v1H10zM21 13h1v1H21zM26 13h1v1H26zM5 14h1v1H5zM6 14h1v1H6zM25 14h1v1H25zM26 14h1v1H26zM11 24h1v1H11zM12 24h1v1H12zM19 24h1v1H19zM20 24h1v1H20zM11 25h1v1H11zM12 25h1v1H12zM19 25h1v1H19zM20 25h1v1H20zM3 26h1v1H3zM28 26h1v1H28zM9 27h1v1H9zM11 27h1v1H11zM20 27h1v1H20zM22 27h1v1H22zM11 29h1v1H11zM20 29h1v1H20z"/><path fill="#130931" d="M7 5h1v1H7zM8 5h1v1H8zM23 5h1v1H23zM24 5h1v1H24zM7 6h1v1H7zM24 6h1v1H24zM6 8h1v1H6zM25 8h1v1H25zM15 11h1v1H15zM16 11h1v1H16zM11 12h1v1H11zM20 12h1v1H20zM2 15h1v1H2zM29 15h1v1H29zM6 18h1v1H6zM25 18h1v1H25zM4 24h1v1H4zM27 24h1v1H27zM14 25h1v1H14zM17 25h1v1H17zM3 29h1v1H3zM14 29h1v1H14zM17 29h1v1H17zM28 29h1v1H28z"/><path fill="#0b061e" d="M9 5h1v1H9zM22 5h1v1H22zM7 7h1v1H7zM24 7h1v1H24zM5 16h1v1H5zM26 16h1v1H26zM6 19h1v1H6zM25 19h1v1H25z"/><path fill="#1b1745" d="M11 5h1v1H11zM20 5h1v1H20zM6 9h1v1H6zM25 9h1v1H25zM10 10h1v1H10zM14 10h1v1H14zM17 10h1v1H17zM21 10h1v1H21zM14 11h1v1H14zM17 11h1v1H17zM15 12h1v1H15zM16 12h1v1H16zM4 19h1v1H4zM5 19h1v1H5zM8 19h1v1H8zM23 19h1v1H23zM26 19h1v1H26zM27 19h1v1H27zM5 24h1v1H5zM26 24h1v1H26z"/><path fill="#37f9fa" d="M15 5h1v1H15zM16 5h1v1H16zM14 6h1v1H14zM17 6h1v1H17zM6 11h1v1H6zM7 11h1v1H7zM24 11h1v1H24zM25 11h1v1H25zM6 12h1v1H6zM25 12h1v1H25zM10 18h1v1H10zM21 18h1v1H21zM5 21h1v1H5zM6 21h1v1H6zM25 21h1v1H25zM26 21h1v1H26zM5 22h1v1H5zM26 22h1v1H26z"/><path fill="#301b66" d="M10 6h1v1H10zM21 6h1v1H21zM5 9h1v1H5zM26 9h1v1H26zM2 14h1v1H2zM9 14h1v1H9zM13 14h1v1H13zM18 14h1v1H18zM22 14h1v1H22zM29 14h1v1H29zM3 15h1v1H3zM8 15h1v1H8zM14 15h1v1H14zM17 15h1v1H17zM23 15h1v1H23zM28 15h1v1H28zM3 16h1v1H3zM4 16h1v1H4zM15 16h1v1H15zM16 16h1v1H16zM27 16h1v1H27zM28 16h1v1H28zM1 19h1v1H1zM2 19h1v1H2zM9 19h1v1H9zM22 19h1v1H22zM29 19h1v1H29zM30 19h1v1H30zM2 20h1v1H2zM3 20h1v1H3zM9 20h1v1H9zM22 20h1v1H22zM28 20h1v1H28zM29 20h1v1H29zM7 24h1v1H7zM24 24h1v1H24zM2 26h1v1H2zM29 26h1v1H29zM2 27h1v1H2zM29 27h1v1H29z"/><path fill="#823dac" d="M11 6h1v1H11zM20 6h1v1H20zM10 7h1v1H10zM11 7h1v1H11zM20 7h1v1H20zM21 7h1v1H21zM10 8h1v1H10zM21 8h1v1H21zM14 9h1v1H14zM17 9h1v1H17zM10 14h1v1H10zM12 14h1v1H12zM19 14h1v1H19zM21 14h1v1H21zM9 15h1v1H9zM22 15h1v1H22zM14 16h1v1H14zM17 16h1v1H17zM4 28h1v1H4zM11 28h1v1H11zM20 28h1v1H20zM27 28h1v1H27zM7 29h1v1H7zM24 29h1v1H24zM7 30h1v1H7zM8 30h1v1H8zM23 30h1v1H23zM24 30h1v1H24z"/><path fill="#160e34" d="M13 7h1v1H13zM18 7h1v1H18zM9 10h1v1H9zM11 10h1v1H11zM13 10h1v1H13zM18 10h1v1H18zM20 10h1v1H20zM22 10h1v1H22zM14 14h1v1H14zM17 14h1v1H17zM15 15h1v1H15zM16 15h1v1H16zM2 25h1v1H2zM29 25h1v1H29zM2 28h1v1H2zM9 28h1v1H9zM22 28h1v1H22zM29 28h1v1H29z"/><path fill="#f977f6" d="M14 7h1v1H14zM17 7h1v1H17zM15 8h1v1H15zM16 8h1v1H16zM15 17h1v1H15zM16 17h1v1H16z"/><path fill="#0b0623" d="M8 8h1v1H8zM11 8h1v1H11zM13 8h1v1H13zM18 8h1v1H18zM20 8h1v1H20zM23 8h1v1H23zM4 10h1v1H4zM27 10h1v1H27zM7 14h1v1H7zM24 14h1v1H24zM4 15h1v1H4zM7 15h1v1H7zM11 15h1v1H11zM12 15h1v1H12zM19 15h1v1H19zM20 15h1v1H20zM24 15h1v1H24zM27 15h1v1H27zM3 17h1v1H3zM7 17h1v1H7zM24 17h1v1H24zM28 17h1v1H28zM2 18h1v1H2zM3 18h1v1H3zM28 18h1v1H28zM29 18h1v1H29zM3 19h1v1H3zM28 19h1v1H28zM7 20h1v1H7zM24 20h1v1H24zM3 23h1v1H3zM28 23h1v1H28zM8 24h1v1H8zM23 24h1v1H23z"/><path fill="#01628f" d="M14 8h1v1H14zM17 8h1v1H17zM15 9h1v1H15zM16 9h1v1H16zM8 12h1v1H8zM23 12h1v1H23zM7 13h1v1H7zM8 13h1v1H8zM23 13h1v1H23zM24 13h1v1H24zM13 15h1v1H13zM18 15h1v1H18zM10 19h1v1H10zM21 19h1v1H21zM13 21h1v1H13zM18 21h1v1H18zM7 22h1v1H7zM24 22h1v1H24zM6 23h1v1H6zM7 23h1v1H7zM24 23h1v1H24zM25 23h1v1H25z"/><path fill="#1a0f3f" d="M4 9h1v1H4zM27 9h1v1H27zM15 10h1v1H15zM16 10h1v1H16zM11 13h1v1H11zM12 13h1v1H12zM19 13h1v1H19zM20 13h1v1H20zM9 21h1v1H9zM22 21h1v1H22zM4 25h1v1H4zM13 25h1v1H13zM18 25h1v1H18zM27 25h1v1H27z"/><path fill="#140b32" d="M2 12h1v1H2zM29 12h1v1H29zM8 20h1v1H8zM23 20h1v1H23z"/><path fill="#323071" d="M11 14h1v1H11zM20 14h1v1H20zM9 16h1v1H9zM22 16h1v1H22zM10 20h1v1H10zM21 20h1v1H21zM4 23h1v1H4zM27 23h1v1H27z"/><path fill="#ffffff" d="M11 17h1v1H11zM12 17h1v1H12zM19 17h1v1H19zM20 17h1v1H20zM11 18h1v1H11zM12 18h1v1H12zM13 18h1v1H13zM18 18h1v1H18zM19 18h1v1H19zM20 18h1v1H20zM11 19h1v1H11zM12 19h1v1H12zM19 19h1v1H19zM20 19h1v1H20zM11 20h1v1H11zM12 20h1v1H12zM19 20h1v1H19zM20 20h1v1H20zM11 21h1v1H11zM12 21h1v1H12zM19 21h1v1H19zM20 21h1v1H20zM12 22h1v1H12zM13 22h1v1H13zM18 22h1v1H18zM19 22h1v1H19z"/><path fill="#330a62" d="M8 23h1v1H8zM23 23h1v1H23zM5 25h1v1H5zM26 25h1v1H26z"/><path fill="#492898" d="M15 25h1v1H15zM16 25h1v1H16zM14 26h1v1H14zM17 26h1v1H17zM13 27h1v1H13zM18 27h1v1H18z"/><path fill="#6f12ad" d="M4 26h1v1H4zM27 26h1v1H27zM3 27h1v1H3zM5 27h1v1H5zM14 27h1v1H14zM17 27h1v1H17zM26 27h1v1H26zM28 27h1v1H28zM3 28h1v1H3zM10 28h1v1H10zM21 28h1v1H21zM28 28h1v1H28zM6 29h1v1H6zM25 29h1v1H25z"/><path fill="#fc7bfb" d="M5 26h1v1H5zM9 26h1v1H9zM15 26h1v1H15zM16 26h1v1H16zM22 26h1v1H22zM26 26h1v1H26zM4 27h1v1H4zM10 27h1v1H10zM21 27h1v1H21zM27 27h1v1H27zM14 28h1v1H14zM17 28h1v1H17z"/><path fill="#fdfbfe" d="M15 27h1v1H15zM16 27h1v1H16zM15 28h1v1H15zM16 28h1v1H16z"/></svg>
