<svg xmlns="http://www.w3.org/2000/svg" viewBox="0 0 32 32" shape-rendering="crispEdges"><path fill="#565e85" d="M14 1h1v1H14zM17 1h1v1H17zM14 3h1v1H14zM17 3h1v1H17zM2 19h1v1H2zM29 19h1v1H29z"/><path fill="#ffffff" d="M15 1h1v1H15zM16 1h1v1H16zM14 2h1v1H14zM15 2h1v1H15zM16 2h1v1H16zM17 2h1v1H17zM11 6h1v1H11zM20 6h1v1H20zM12 9h1v1H12zM13 9h1v1H13zM18 9h1v1H18zM19 9h1v1H19zM12 10h1v1H12zM13 10h1v1H13zM15 10h1v1H15zM16 10h1v1H16zM18 10h1v1H18zM19 10h1v1H19zM9 14h1v1H9zM22 14h1v1H22zM11 17h1v1H11zM12 17h1v1H12zM19 17h1v1H19zM20 17h1v1H20zM11 18h1v1H11zM12 18h1v1H12zM13 18h1v1H13zM18 18h1v1H18zM19 18h1v1H19zM20 18h1v1H20zM6 19h1v1H6zM7 19h1v1H7zM11 19h1v1H11zM12 19h1v1H12zM19 19h1v1H19zM20 19h1v1H20zM24 19h1v1H24zM25 19h1v1H25zM6 20h1v1H6zM7 20h1v1H7zM11 20h1v1H11zM12 20h1v1H12zM19 20h1v1H19zM20 20h1v1H20zM24 20h1v1H24zM25 20h1v1H25zM11 21h1v1H11zM12 21h1v1H12zM19 21h1v1H19zM20 21h1v1H20zM12 22h1v1H12zM13 22h1v1H13zM18 22h1v1H18zM19 22h1v1H19zM7 23h1v1H7zM8 23h1v1H8zM10 23h1v1H10zM21 23h1v1H21zM23 23h1v1H23zM24 23h1v1H24zM7 24h1v1H7zM8 24h1v1H8zM23 24h1v1H23zM24 24h1v1H24zM9 25h1v1H9zM10 25h1v1H10zM14 25h1v1H14zM17 25h1v1H17zM21 25h1v1H21zM22 25h1v1H22zM9 26h1v1H9zM10 26h1v1H10zM11 26h1v1H11zM14 26h1v1H14zM15 26h1v1H15zM16 26h1v1H16zM17 26h1v1H17zM20 26h1v1H20zM21 26h1v1H21zM22 26h1v1H22zM10 27h1v1H10zM11 27h1v1H11zM15 27h1v1H15zM16 27h1v1H16zM20 27h1v1H20zM21 27h1v1H21z"/><path fill="#6f86e3" d="M12 2h1v1H12zM19 2h1v1H19zM9 4h1v1H9zM22 4h1v1H22zM7 6h1v1H7zM24 6h1v1H24zM4 10h1v1H4zM9 10h1v1H9zM22 10h1v1H22zM27 10h1v1H27zM9 11h1v1H9zM10 11h1v1H10zM21 11h1v1H21zM22 11h1v1H22zM2 12h1v1H2zM29 12h1v1H29zM8 13h1v1H8zM9 13h1v1H9zM22 13h1v1H22zM23 13h1v1H23zM6 14h1v1H6zM8 14h1v1H8zM10 14h1v1H10zM21 14h1v1H21zM23 14h1v1H23zM25 14h1v1H25zM2 15h1v1H2zM6 15h1v1H6zM9 15h1v1H9zM10 15h1v1H10zM21 15h1v1H21zM22 15h1v1H22zM25 15h1v1H25zM29 15h1v1H29zM3 16h1v1H3zM6 16h1v1H6zM25 16h1v1H25zM28 16h1v1H28zM2 17h1v1H2zM29 17h1v1H29zM8 18h1v1H8zM10 18h1v1H10zM21 18h1v1H21zM23 18h1v1H23zM8 19h1v1H8zM23 19h1v1H23zM1 20h1v1H1zM3 20h1v1H3zM8 20h1v1H8zM23 20h1v1H23zM28 20h1v1H28zM30 20h1v1H30zM7 21h1v1H7zM24 21h1v1H24zM7 22h1v1H7zM8 22h1v1H8zM9 22h1v1H9zM10 22h1v1H10zM21 22h1v1H21zM22 22h1v1H22zM23 22h1v1H23zM24 22h1v1H24zM9 23h1v1H9zM11 23h1v1H11zM15 23h1v1H15zM16 23h1v1H16zM20 23h1v1H20zM22 23h1v1H22zM9 24h1v1H9zM10 24h1v1H10zM14 24h1v1H14zM17 24h1v1H17zM21 24h1v1H21zM22 24h1v1H22zM8 25h1v1H8zM13 25h1v1H13zM18 25h1v1H18zM23 25h1v1H23zM5 26h1v1H5zM26 26h1v1H26zM6 27h1v1H6zM12 27h1v1H12zM19 27h1v1H19zM25 27h1v1H25zM13 28h1v1H13zM18 28h1v1H18zM14 29h1v1H14zM17 29h1v1H17zM15 30h1v1H15zM16 30h1v1H16z"/><path fill="#292952" d="M13 2h1v1H13zM18 2h1v1H18z"/><path fill="#111847" d="M11 3h1v1H11zM20 3h1v1H20zM11 4h1v1H11zM12 4h1v1H12zM19 4h1v1H19zM20 4h1v1H20zM8 5h1v1H8zM23 5h1v1H23zM8 6h1v1H8zM9 6h1v1H9zM22 6h1v1H22zM23 6h1v1H23zM9 7h1v1H9zM22 7h1v1H22zM4 11h1v1H4zM5 11h1v1H5zM26 11h1v1H26zM27 11h1v1H27zM10 20h1v1H10zM21 20h1v1H21zM5 22h1v1H5zM26 22h1v1H26zM4 24h1v1H4zM11 24h1v1H11zM12 24h1v1H12zM13 24h1v1H13zM18 24h1v1H18zM19 24h1v1H19zM20 24h1v1H20zM27 24h1v1H27zM7 25h1v1H7zM24 25h1v1H24zM7 26h1v1H7zM24 26h1v1H24z"/><path fill="#1a215d" d="M12 3h1v1H12zM13 3h1v1H13zM18 3h1v1H18zM19 3h1v1H19zM10 4h1v1H10zM21 4h1v1H21zM9 5h1v1H9zM10 5h1v1H10zM21 5h1v1H21zM22 5h1v1H22zM7 7h1v1H7zM8 7h1v1H8zM23 7h1v1H23zM24 7h1v1H24zM8 8h1v1H8zM23 8h1v1H23zM5 9h1v1H5zM7 9h1v1H7zM24 9h1v1H24zM26 9h1v1H26zM5 10h1v1H5zM6 10h1v1H6zM10 10h1v1H10zM21 10h1v1H21zM25 10h1v1H25zM26 10h1v1H26zM11 11h1v1H11zM20 11h1v1H20zM3 12h1v1H3zM4 12h1v1H4zM13 12h1v1H13zM18 12h1v1H18zM27 12h1v1H27zM28 12h1v1H28zM3 13h1v1H3zM4 13h1v1H4zM10 13h1v1H10zM11 13h1v1H11zM12 13h1v1H12zM19 13h1v1H19zM20 13h1v1H20zM21 13h1v1H21zM27 13h1v1H27zM28 13h1v1H28zM1 17h1v1H1zM3 17h1v1H3zM28 17h1v1H28zM30 17h1v1H30zM10 19h1v1H10zM21 19h1v1H21zM13 21h1v1H13zM18 21h1v1H18zM4 25h1v1H4zM5 25h1v1H5zM26 25h1v1H26zM27 25h1v1H27zM3 26h1v1H3zM4 26h1v1H4zM6 26h1v1H6zM25 26h1v1H25zM27 26h1v1H27zM28 26h1v1H28zM3 27h1v1H3zM7 27h1v1H7zM24 27h1v1H24zM28 27h1v1H28zM2 28h1v1H2zM3 28h1v1H3zM4 28h1v1H4zM6 28h1v1H6zM7 28h1v1H7zM8 28h1v1H8zM23 28h1v1H23zM24 28h1v1H24zM25 28h1v1H25zM27 28h1v1H27zM28 28h1v1H28zM29 28h1v1H29zM4 29h1v1H4zM5 29h1v1H5zM6 29h1v1H6zM7 29h1v1H7zM8 29h1v1H8zM23 29h1v1H23zM24 29h1v1H24zM25 29h1v1H25zM26 29h1v1H26zM27 29h1v1H27zM6 30h1v1H6zM7 30h1v1H7zM24 30h1v1H24zM25 30h1v1H25z"/><path fill="#171b34" d="M15 3h1v1H15zM16 3h1v1H16z"/><path fill="#000000" d="M13 4h1v1H13zM14 4h1v1H14zM15 4h1v1H15zM16 4h1v1H16zM17 4h1v1H17zM18 4h1v1H18zM13 5h1v1H13zM14 5h1v1H14zM15 5h1v1H15zM16 5h1v1H16zM17 5h1v1H17zM18 5h1v1H18zM12 6h1v1H12zM13 6h1v1H13zM14 6h1v1H14zM15 6h1v1H15zM16 6h1v1H16zM17 6h1v1H17zM18 6h1v1H18zM19 6h1v1H19zM12 7h1v1H12zM13 7h1v1H13zM14 7h1v1H14zM15 7h1v1H15zM16 7h1v1H16zM17 7h1v1H17zM18 7h1v1H18zM19 7h1v1H19zM13 8h1v1H13zM14 8h1v1H14zM15 8h1v1H15zM16 8h1v1H16zM17 8h1v1H17zM18 8h1v1H18zM14 9h1v1H14zM15 9h1v1H15zM16 9h1v1H16zM17 9h1v1H17zM5 13h1v1H5zM26 13h1v1H26zM5 14h1v1H5zM26 14h1v1H26zM4 15h1v1H4zM5 15h1v1H5zM11 15h1v1H11zM12 15h1v1H12zM13 15h1v1H13zM14 15h1v1H14zM15 15h1v1H15zM16 15h1v1H16zM17 15h1v1H17zM18 15h1v1H18zM19 15h1v1H19zM20 15h1v1H20zM26 15h1v1H26zM27 15h1v1H27zM4 16h1v1H4zM5 16h1v1H5zM9 16h1v1H9zM10 16h1v1H10zM11 16h1v1H11zM12 16h1v1H12zM13 16h1v1H13zM14 16h1v1H14zM15 16h1v1H15zM16 16h1v1H16zM17 16h1v1H17zM18 16h1v1H18zM19 16h1v1H19zM20 16h1v1H20zM21 16h1v1H21zM22 16h1v1H22zM26 16h1v1H26zM27 16h1v1H27zM4 17h1v1H4zM5 17h1v1H5zM9 17h1v1H9zM10 17h1v1H10zM13 17h1v1H13zM14 17h1v1H14zM15 17h1v1H15zM16 17h1v1H16zM17 17h1v1H17zM18 17h1v1H18zM21 17h1v1H21zM22 17h1v1H22zM26 17h1v1H26zM27 17h1v1H27zM4 18h1v1H4zM9 18h1v1H9zM14 18h1v1H14zM15 18h1v1H15zM16 18h1v1H16zM17 18h1v1H17zM22 18h1v1H22zM27 18h1v1H27zM4 19h1v1H4zM9 19h1v1H9zM13 19h1v1H13zM14 19h1v1H14zM15 19h1v1H15zM16 19h1v1H16zM17 19h1v1H17zM18 19h1v1H18zM22 19h1v1H22zM27 19h1v1H27zM9 20h1v1H9zM13 20h1v1H13zM14 20h1v1H14zM15 20h1v1H15zM16 20h1v1H16zM17 20h1v1H17zM18 20h1v1H18zM22 20h1v1H22zM9 21h1v1H9zM10 21h1v1H10zM14 21h1v1H14zM15 21h1v1H15zM16 21h1v1H16zM17 21h1v1H17zM21 21h1v1H21zM22 21h1v1H22zM11 22h1v1H11zM14 22h1v1H14zM15 22h1v1H15zM16 22h1v1H16zM17 22h1v1H17zM20 22h1v1H20zM12 23h1v1H12zM13 23h1v1H13zM14 23h1v1H14zM17 23h1v1H17zM18 23h1v1H18zM19 23h1v1H19zM10 28h1v1H10zM21 28h1v1H21zM9 29h1v1H9zM10 29h1v1H10zM11 29h1v1H11zM12 29h1v1H12zM19 29h1v1H19zM20 29h1v1H20zM21 29h1v1H21zM22 29h1v1H22zM8 30h1v1H8zM23 30h1v1H23zM15 31h1v1H15zM16 31h1v1H16z"/><path fill="#0c1030" d="M11 5h1v1H11zM20 5h1v1H20zM10 6h1v1H10zM21 6h1v1H21zM9 8h1v1H9zM22 8h1v1H22zM9 9h1v1H9zM22 9h1v1H22zM8 10h1v1H8zM23 10h1v1H23zM3 11h1v1H3zM6 11h1v1H6zM25 11h1v1H25zM28 11h1v1H28zM5 12h1v1H5zM10 12h1v1H10zM21 12h1v1H21zM26 12h1v1H26zM2 18h1v1H2zM29 18h1v1H29zM5 20h1v1H5zM26 20h1v1H26zM5 21h1v1H5zM6 21h1v1H6zM25 21h1v1H25zM26 21h1v1H26zM6 22h1v1H6zM25 22h1v1H25zM6 23h1v1H6zM25 23h1v1H25z"/><path fill="#e7e4ec" d="M12 5h1v1H12zM19 5h1v1H19zM11 7h1v1H11zM20 7h1v1H20zM6 8h1v1H6zM12 8h1v1H12zM19 8h1v1H19zM25 8h1v1H25zM6 9h1v1H6zM10 9h1v1H10zM21 9h1v1H21zM25 9h1v1H25zM7 11h1v1H7zM8 11h1v1H8zM23 11h1v1H23zM24 11h1v1H24zM6 12h1v1H6zM7 12h1v1H7zM24 12h1v1H24zM25 12h1v1H25zM6 13h1v1H6zM15 13h1v1H15zM16 13h1v1H16zM25 13h1v1H25zM2 16h1v1H2zM29 16h1v1H29zM2 20h1v1H2zM29 20h1v1H29zM2 21h1v1H2zM29 21h1v1H29zM2 22h1v1H2zM29 22h1v1H29zM15 24h1v1H15zM16 24h1v1H16zM5 27h1v1H5zM26 27h1v1H26zM12 28h1v1H12zM19 28h1v1H19z"/><path fill="#9190ae" d="M6 7h1v1H6zM25 7h1v1H25zM5 8h1v1H5zM7 8h1v1H7zM24 8h1v1H24zM26 8h1v1H26zM14 10h1v1H14zM17 10h1v1H17zM5 18h1v1H5zM26 18h1v1H26zM5 19h1v1H5zM26 19h1v1H26z"/><path fill="#b6afd1" d="M10 7h1v1H10zM21 7h1v1H21zM10 8h1v1H10zM11 8h1v1H11zM20 8h1v1H20zM21 8h1v1H21zM11 9h1v1H11zM20 9h1v1H20zM11 10h1v1H11zM20 10h1v1H20zM12 11h1v1H12zM13 11h1v1H13zM14 11h1v1H14zM15 11h1v1H15zM16 11h1v1H16zM17 11h1v1H17zM18 11h1v1H18zM19 11h1v1H19zM14 12h1v1H14zM15 12h1v1H15zM16 12h1v1H16zM17 12h1v1H17z"/><path fill="#0e103a" d="M8 9h1v1H8zM23 9h1v1H23zM7 10h1v1H7zM24 10h1v1H24zM2 13h1v1H2zM29 13h1v1H29zM2 14h1v1H2zM3 14h1v1H3zM4 14h1v1H4zM27 14h1v1H27zM28 14h1v1H28zM29 14h1v1H29zM3 15h1v1H3zM7 15h1v1H7zM24 15h1v1H24zM28 15h1v1H28zM7 16h1v1H7zM24 16h1v1H24zM6 17h1v1H6zM7 17h1v1H7zM24 17h1v1H24zM25 17h1v1H25zM6 18h1v1H6zM7 18h1v1H7zM24 18h1v1H24zM25 18h1v1H25zM11 25h1v1H11zM12 25h1v1H12zM15 25h1v1H15zM16 25h1v1H16zM19 25h1v1H19zM20 25h1v1H20zM8 26h1v1H8zM13 26h1v1H13zM18 26h1v1H18zM23 26h1v1H23zM8 27h1v1H8zM14 27h1v1H14zM17 27h1v1H17zM23 27h1v1H23zM13 29h1v1H13zM15 29h1v1H15zM16 29h1v1H16zM18 29h1v1H18zM14 30h1v1H14zM17 30h1v1H17z"/><path fill="#131c4e" d="M8 12h1v1H8zM9 12h1v1H9zM22 12h1v1H22zM23 12h1v1H23zM7 13h1v1H7zM24 13h1v1H24zM7 14h1v1H7zM24 14h1v1H24zM8 16h1v1H8zM23 16h1v1H23zM8 17h1v1H8zM23 17h1v1H23z"/><path fill="#080b26" d="M11 12h1v1H11zM12 12h1v1H12zM19 12h1v1H19zM20 12h1v1H20zM13 13h1v1H13zM18 13h1v1H18zM11 14h1v1H11zM12 14h1v1H12zM13 14h1v1H13zM14 14h1v1H14zM15 14h1v1H15zM16 14h1v1H16zM17 14h1v1H17zM18 14h1v1H18zM19 14h1v1H19zM20 14h1v1H20z"/><path fill="#0f1433" d="M14 13h1v1H14zM17 13h1v1H17z"/><path fill="#171d51" d="M8 15h1v1H8zM23 15h1v1H23zM1 21h1v1H1zM3 21h1v1H3zM8 21h1v1H8zM23 21h1v1H23zM28 21h1v1H28zM30 21h1v1H30zM5 23h1v1H5zM26 23h1v1H26zM5 24h1v1H5zM6 24h1v1H6zM25 24h1v1H25zM26 24h1v1H26zM6 25h1v1H6zM25 25h1v1H25z"/><path fill="#3a499c" d="M1 16h1v1H1zM30 16h1v1H30zM4 27h1v1H4zM27 27h1v1H27zM5 28h1v1H5zM26 28h1v1H26z"/><path fill="#0b0f26" d="M4 23h1v1H4zM27 23h1v1H27zM3 25h1v1H3zM28 25h1v1H28zM2 27h1v1H2zM29 27h1v1H29zM3 29h1v1H3zM28 29h1v1H28z"/><path fill="#080a1d" d="M12 26h1v1H12zM19 26h1v1H19zM9 27h1v1H9zM13 27h1v1H13zM18 27h1v1H18zM22 27h1v1H22zM9 28h1v1H9zM11 28h1v1H11zM14 28h1v1H14zM15 28h1v1H15zM16 28h1v1H16zM17 28h1v1H17zM20 28h1v1H20zM22 28h1v1H22z"/></svg>
