<svg xmlns="http://www.w3.org/2000/svg" viewBox="0 0 32 32" shape-rendering="crispEdges"><path fill="#b16af7" d="M15 0h1v1H15zM15 1h1v1H15zM3 8h1v1H3zM28 8h1v1H28zM3 9h1v1H3zM4 9h1v1H4zM12 9h1v1H12zM19 9h1v1H19zM27 9h1v1H27zM28 9h1v1H28zM8 10h1v1H8zM9 10h1v1H9zM22 10h1v1H22zM23 10h1v1H23zM5 11h1v1H5zM6 11h1v1H6zM8 11h1v1H8zM13 11h1v1H13zM18 11h1v1H18zM23 11h1v1H23zM25 11h1v1H25zM26 11h1v1H26zM8 12h1v1H8zM23 12h1v1H23zM9 13h1v1H9zM10 13h1v1H10zM21 13h1v1H21zM22 13h1v1H22zM6 15h1v1H6zM7 15h1v1H7zM24 15h1v1H24zM25 15h1v1H25zM7 16h1v1H7zM9 16h1v1H9zM10 16h1v1H10zM21 16h1v1H21zM22 16h1v1H22zM24 16h1v1H24zM7 17h1v1H7zM8 17h1v1H8zM23 17h1v1H23zM24 17h1v1H24zM2 20h1v1H2zM4 20h1v1H4zM27 20h1v1H27zM29 20h1v1H29zM2 22h1v1H2zM4 22h1v1H4zM27 22h1v1H27zM29 22h1v1H29zM9 25h1v1H9zM22 25h1v1H22zM13 27h1v1H13zM18 27h1v1H18zM3 28h1v1H3zM28 28h1v1H28z"/><path fill="#28255e" d="M16 0h1v1H16zM14 1h1v1H14zM17 1h1v1H17zM5 6h1v1H5zM26 6h1v1H26zM5 7h1v1H5zM26 7h1v1H26zM4 8h1v1H4zM15 8h1v1H15zM16 8h1v1H16zM19 8h1v1H19zM27 8h1v1H27zM3 10h1v1H3zM6 10h1v1H6zM25 10h1v1H25zM28 10h1v1H28zM9 12h1v1H9zM22 12h1v1H22zM8 14h1v1H8zM23 14h1v1H23zM5 15h1v1H5zM26 15h1v1H26zM4 29h1v1H4zM27 29h1v1H27z"/><path fill="#6840ea" d="M16 1h1v1H16zM17 2h1v1H17zM18 2h1v1H18zM17 4h1v1H17zM16 5h1v1H16zM16 6h1v1H16zM4 10h1v1H4zM5 10h1v1H5zM14 10h1v1H14zM17 10h1v1H17zM26 10h1v1H26zM27 10h1v1H27zM11 13h1v1H11zM12 13h1v1H12zM19 13h1v1H19zM20 13h1v1H20zM7 18h1v1H7zM24 18h1v1H24zM2 21h1v1H2zM4 21h1v1H4zM27 21h1v1H27zM29 21h1v1H29zM3 22h1v1H3zM7 22h1v1H7zM24 22h1v1H24zM28 22h1v1H28zM7 23h1v1H7zM24 23h1v1H24zM7 24h1v1H7zM24 24h1v1H24z"/><path fill="#18174e" d="M18 1h1v1H18zM19 2h1v1H19zM16 4h1v1H16zM18 5h1v1H18zM4 6h1v1H4zM27 6h1v1H27zM3 7h1v1H3zM28 7h1v1H28zM2 8h1v1H2zM29 8h1v1H29zM4 11h1v1H4zM27 11h1v1H27zM3 29h1v1H3zM28 29h1v1H28zM4 30h1v1H4zM5 30h1v1H5zM26 30h1v1H26zM27 30h1v1H27z"/><path fill="#1a2354" d="M15 2h1v1H15zM16 2h1v1H16zM17 3h1v1H17zM15 5h1v1H15zM20 8h1v1H20zM5 9h1v1H5zM26 9h1v1H26zM1 20h1v1H1zM30 20h1v1H30z"/><path fill="#0c0f30" d="M16 3h1v1H16zM14 8h1v1H14zM17 8h1v1H17zM5 18h1v1H5zM26 18h1v1H26zM1 19h1v1H1zM4 19h1v1H4zM27 19h1v1H27zM30 19h1v1H30zM0 22h1v1H0zM31 22h1v1H31zM1 24h1v1H1zM4 24h1v1H4zM27 24h1v1H27zM30 24h1v1H30zM13 25h1v1H13zM18 25h1v1H18zM2 29h1v1H2zM29 29h1v1H29zM3 30h1v1H3zM6 30h1v1H6zM25 30h1v1H25zM28 30h1v1H28z"/><path fill="#2933c5" d="M18 3h1v1H18zM19 3h1v1H19zM18 4h1v1H18zM10 9h1v1H10zM11 9h1v1H11zM15 9h1v1H15zM16 9h1v1H16zM20 9h1v1H20zM21 9h1v1H21zM10 10h1v1H10zM21 10h1v1H21zM7 11h1v1H7zM24 11h1v1H24zM6 12h1v1H6zM14 12h1v1H14zM17 12h1v1H17zM25 12h1v1H25zM6 14h1v1H6zM11 14h1v1H11zM12 14h1v1H12zM19 14h1v1H19zM20 14h1v1H20zM25 14h1v1H25zM5 16h1v1H5zM6 16h1v1H6zM25 16h1v1H25zM26 16h1v1H26zM6 17h1v1H6zM25 17h1v1H25zM6 18h1v1H6zM10 18h1v1H10zM21 18h1v1H21zM25 18h1v1H25zM2 19h1v1H2zM6 19h1v1H6zM7 19h1v1H7zM24 19h1v1H24zM25 19h1v1H25zM29 19h1v1H29zM3 20h1v1H3zM7 20h1v1H7zM24 20h1v1H24zM28 20h1v1H28zM1 21h1v1H1zM7 21h1v1H7zM24 21h1v1H24zM30 21h1v1H30zM1 22h1v1H1zM5 22h1v1H5zM26 22h1v1H26zM30 22h1v1H30zM3 23h1v1H3zM4 23h1v1H4zM27 23h1v1H27zM28 23h1v1H28zM15 25h1v1H15zM16 25h1v1H16zM14 26h1v1H14zM17 26h1v1H17zM4 27h1v1H4zM5 27h1v1H5zM26 27h1v1H26zM27 27h1v1H27zM4 28h1v1H4zM14 28h1v1H14zM17 28h1v1H17zM27 28h1v1H27zM15 29h1v1H15zM16 29h1v1H16z"/><path fill="#0f1334" d="M20 3h1v1H20zM15 4h1v1H15zM14 5h1v1H14zM17 5h1v1H17zM13 6h1v1H13zM18 6h1v1H18zM12 7h1v1H12zM19 7h1v1H19zM9 8h1v1H9zM10 8h1v1H10zM11 8h1v1H11zM12 8h1v1H12zM13 8h1v1H13zM18 8h1v1H18zM23 8h1v1H23zM6 9h1v1H6zM7 9h1v1H7zM8 9h1v1H8zM9 9h1v1H9zM7 10h1v1H7zM3 11h1v1H3zM28 11h1v1H28zM9 14h1v1H9zM22 14h1v1H22zM0 20h1v1H0zM31 20h1v1H31zM0 21h1v1H0zM31 21h1v1H31zM25 23h1v1H25zM11 25h1v1H11zM12 25h1v1H12zM14 25h1v1H14zM17 25h1v1H17zM19 25h1v1H19zM20 25h1v1H20zM2 27h1v1H2zM8 27h1v1H8zM12 27h1v1H12zM19 27h1v1H19zM23 27h1v1H23zM29 27h1v1H29zM7 28h1v1H7zM24 28h1v1H24z"/><path fill="#151c52" d="M19 4h1v1H19zM22 9h1v1H22zM13 10h1v1H13zM18 10h1v1H18zM10 11h1v1H10zM21 11h1v1H21zM10 12h1v1H10zM21 12h1v1H21zM5 17h1v1H5zM26 17h1v1H26zM6 25h1v1H6zM25 25h1v1H25zM9 26h1v1H9zM22 26h1v1H22zM3 27h1v1H3zM28 27h1v1H28zM5 28h1v1H5zM6 28h1v1H6zM25 28h1v1H25zM26 28h1v1H26z"/><path fill="#161246" d="M20 4h1v1H20zM14 6h1v1H14zM17 6h1v1H17zM13 7h1v1H13zM14 7h1v1H14zM15 7h1v1H15zM16 7h1v1H16zM17 7h1v1H17zM18 7h1v1H18zM2 9h1v1H2zM29 9h1v1H29zM2 10h1v1H2zM29 10h1v1H29zM2 28h1v1H2zM29 28h1v1H29z"/><path fill="#090c25" d="M19 5h1v1H19zM21 7h1v1H21zM22 8h1v1H22zM24 9h1v1H24zM12 10h1v1H12zM19 10h1v1H19zM13 13h1v1H13zM18 13h1v1H18zM13 14h1v1H13zM14 14h1v1H14zM17 14h1v1H17zM18 14h1v1H18zM1 16h1v1H1zM2 16h1v1H2zM3 16h1v1H3zM28 16h1v1H28zM29 16h1v1H29zM30 16h1v1H30zM1 17h1v1H1zM2 17h1v1H2zM3 17h1v1H3zM28 17h1v1H28zM29 17h1v1H29zM30 17h1v1H30zM3 18h1v1H3zM4 18h1v1H4zM27 18h1v1H27zM28 18h1v1H28zM8 20h1v1H8zM23 20h1v1H23zM8 21h1v1H8zM23 21h1v1H23zM8 22h1v1H8zM23 22h1v1H23zM0 23h1v1H0zM26 23h1v1H26zM31 23h1v1H31zM2 25h1v1H2zM29 25h1v1H29zM3 26h1v1H3zM13 26h1v1H13zM18 26h1v1H18zM28 26h1v1H28z"/><path fill="#2e3b84" d="M15 6h1v1H15zM4 7h1v1H4zM27 7h1v1H27zM9 11h1v1H9zM22 11h1v1H22z"/><path fill="#000000" d="M19 6h1v1H19zM4 12h1v1H4zM27 12h1v1H27zM4 13h1v1H4zM27 13h1v1H27zM4 14h1v1H4zM27 14h1v1H27zM3 15h1v1H3zM4 15h1v1H4zM9 15h1v1H9zM12 15h1v1H12zM13 15h1v1H13zM14 15h1v1H14zM15 15h1v1H15zM16 15h1v1H16zM17 15h1v1H17zM18 15h1v1H18zM19 15h1v1H19zM22 15h1v1H22zM27 15h1v1H27zM28 15h1v1H28zM4 16h1v1H4zM11 16h1v1H11zM12 16h1v1H12zM13 16h1v1H13zM14 16h1v1H14zM15 16h1v1H15zM16 16h1v1H16zM17 16h1v1H17zM18 16h1v1H18zM19 16h1v1H19zM20 16h1v1H20zM27 16h1v1H27zM9 17h1v1H9zM10 17h1v1H10zM13 17h1v1H13zM14 17h1v1H14zM15 17h1v1H15zM16 17h1v1H16zM17 17h1v1H17zM18 17h1v1H18zM21 17h1v1H21zM22 17h1v1H22zM9 18h1v1H9zM14 18h1v1H14zM15 18h1v1H15zM16 18h1v1H16zM17 18h1v1H17zM22 18h1v1H22zM9 19h1v1H9zM13 19h1v1H13zM14 19h1v1H14zM15 19h1v1H15zM16 19h1v1H16zM17 19h1v1H17zM18 19h1v1H18zM22 19h1v1H22zM9 20h1v1H9zM13 20h1v1H13zM14 20h1v1H14zM15 20h1v1H15zM16 20h1v1H16zM17 20h1v1H17zM18 20h1v1H18zM22 20h1v1H22zM9 21h1v1H9zM10 21h1v1H10zM14 21h1v1H14zM15 21h1v1H15zM16 21h1v1H16zM17 21h1v1H17zM21 21h1v1H21zM22 21h1v1H22zM25 21h1v1H25zM9 22h1v1H9zM10 22h1v1H10zM11 22h1v1H11zM14 22h1v1H14zM15 22h1v1H15zM16 22h1v1H16zM17 22h1v1H17zM20 22h1v1H20zM21 22h1v1H21zM22 22h1v1H22zM25 22h1v1H25zM9 23h1v1H9zM10 23h1v1H10zM11 23h1v1H11zM12 23h1v1H12zM13 23h1v1H13zM14 23h1v1H14zM15 23h1v1H15zM16 23h1v1H16zM17 23h1v1H17zM18 23h1v1H18zM19 23h1v1H19zM20 23h1v1H20zM21 23h1v1H21zM22 23h1v1H22zM10 24h1v1H10zM11 24h1v1H11zM12 24h1v1H12zM13 24h1v1H13zM14 24h1v1H14zM15 24h1v1H15zM16 24h1v1H16zM17 24h1v1H17zM18 24h1v1H18zM19 24h1v1H19zM20 24h1v1H20zM21 24h1v1H21zM11 27h1v1H11zM20 27h1v1H20zM7 29h1v1H7zM24 29h1v1H24zM12 30h1v1H12zM13 30h1v1H13zM18 30h1v1H18zM19 30h1v1H19z"/><path fill="#05071b" d="M20 7h1v1H20zM1 13h1v1H1zM2 13h1v1H2zM29 13h1v1H29zM30 13h1v1H30zM0 14h1v1H0zM1 14h1v1H1zM2 14h1v1H2zM29 14h1v1H29zM30 14h1v1H30zM31 14h1v1H31zM0 15h1v1H0zM1 15h1v1H1zM30 15h1v1H30zM31 15h1v1H31zM0 16h1v1H0zM31 16h1v1H31zM2 18h1v1H2zM29 18h1v1H29zM5 19h1v1H5zM26 19h1v1H26zM5 20h1v1H5zM6 20h1v1H6zM6 21h1v1H6zM6 22h1v1H6zM5 23h1v1H5zM6 23h1v1H6zM5 24h1v1H5zM11 26h1v1H11zM12 26h1v1H12zM19 26h1v1H19zM20 26h1v1H20zM10 27h1v1H10zM21 27h1v1H21zM8 28h1v1H8zM9 28h1v1H9zM22 28h1v1H22zM23 28h1v1H23zM12 29h1v1H12zM19 29h1v1H19zM9 30h1v1H9zM10 30h1v1H10zM11 30h1v1H11zM20 30h1v1H20zM21 30h1v1H21zM22 30h1v1H22z"/><path fill="#05081d" d="M21 8h1v1H21zM25 20h1v1H25zM26 20h1v1H26zM4 25h1v1H4zM27 25h1v1H27zM8 29h1v1H8zM13 29h1v1H13zM18 29h1v1H18zM23 29h1v1H23z"/><path fill="#0a0d31" d="M13 9h1v1H13zM18 9h1v1H18zM25 9h1v1H25zM11 11h1v1H11zM20 11h1v1H20zM10 14h1v1H10zM21 14h1v1H21zM8 15h1v1H8zM23 15h1v1H23zM8 16h1v1H8zM23 16h1v1H23zM8 18h1v1H8zM23 18h1v1H23zM8 19h1v1H8zM23 19h1v1H23zM10 20h1v1H10zM21 20h1v1H21zM8 23h1v1H8zM23 23h1v1H23zM9 24h1v1H9zM22 24h1v1H22zM9 29h1v1H9zM22 29h1v1H22zM14 30h1v1H14zM17 30h1v1H17z"/><path fill="#192474" d="M14 9h1v1H14zM17 9h1v1H17zM12 11h1v1H12zM19 11h1v1H19zM12 12h1v1H12zM19 12h1v1H19zM15 14h1v1H15zM16 14h1v1H16zM10 26h1v1H10zM21 26h1v1H21z"/><path fill="#0d1445" d="M23 9h1v1H23zM11 10h1v1H11zM20 10h1v1H20zM24 10h1v1H24zM11 12h1v1H11zM20 12h1v1H20zM5 14h1v1H5zM26 14h1v1H26zM1 23h1v1H1zM30 23h1v1H30zM2 24h1v1H2zM3 24h1v1H3zM28 24h1v1H28zM29 24h1v1H29zM5 25h1v1H5zM10 25h1v1H10zM21 25h1v1H21zM26 25h1v1H26zM4 26h1v1H4zM5 26h1v1H5zM26 26h1v1H26zM27 26h1v1H27zM12 28h1v1H12zM19 28h1v1H19z"/><path fill="#dac4f6" d="M15 10h1v1H15zM16 10h1v1H16zM5 12h1v1H5zM7 12h1v1H7zM24 12h1v1H24zM26 12h1v1H26zM8 13h1v1H8zM23 13h1v1H23zM7 14h1v1H7zM24 14h1v1H24zM8 25h1v1H8zM23 25h1v1H23zM6 26h1v1H6zM7 26h1v1H7zM24 26h1v1H24zM25 26h1v1H25zM6 27h1v1H6zM25 27h1v1H25z"/><path fill="#e1dff2" d="M14 11h1v1H14zM15 11h1v1H15zM16 11h1v1H16zM17 11h1v1H17zM15 12h1v1H15zM16 12h1v1H16zM5 13h1v1H5zM6 13h1v1H6zM7 13h1v1H7zM24 13h1v1H24zM25 13h1v1H25zM26 13h1v1H26zM10 15h1v1H10zM11 15h1v1H11zM20 15h1v1H20zM21 15h1v1H21zM7 25h1v1H7zM24 25h1v1H24zM15 26h1v1H15zM16 26h1v1H16zM14 27h1v1H14zM15 27h1v1H15zM16 27h1v1H16zM17 27h1v1H17zM15 28h1v1H15zM16 28h1v1H16z"/><path fill="#2f2a8f" d="M13 12h1v1H13zM18 12h1v1H18zM14 13h1v1H14zM17 13h1v1H17zM10 19h1v1H10zM21 19h1v1H21zM13 21h1v1H13zM18 21h1v1H18zM6 24h1v1H6zM8 24h1v1H8zM23 24h1v1H23zM25 24h1v1H25zM8 26h1v1H8zM23 26h1v1H23zM7 27h1v1H7zM24 27h1v1H24zM13 28h1v1H13zM18 28h1v1H18zM14 29h1v1H14zM17 29h1v1H17zM15 30h1v1H15zM16 30h1v1H16z"/><path fill="#9394d5" d="M15 13h1v1H15zM16 13h1v1H16z"/><path fill="#07091f" d="M4 17h1v1H4zM27 17h1v1H27zM26 24h1v1H26zM3 25h1v1H3zM28 25h1v1H28zM9 27h1v1H9zM22 27h1v1H22zM1 28h1v1H1zM30 28h1v1H30zM8 30h1v1H8zM23 30h1v1H23zM14 31h1v1H14zM15 31h1v1H15zM16 31h1v1H16zM17 31h1v1H17z"/><path fill="#ffffff" d="M11 17h1v1H11zM12 17h1v1H12zM19 17h1v1H19zM20 17h1v1H20zM11 18h1v1H11zM12 18h1v1H12zM13 18h1v1H13zM18 18h1v1H18zM19 18h1v1H19zM20 18h1v1H20zM11 19h1v1H11zM12 19h1v1H12zM19 19h1v1H19zM20 19h1v1H20zM11 20h1v1H11zM12 20h1v1H12zM19 20h1v1H19zM20 20h1v1H20zM3 21h1v1H3zM11 21h1v1H11zM12 21h1v1H12zM19 21h1v1H19zM20 21h1v1H20zM28 21h1v1H28zM12 22h1v1H12zM13 22h1v1H13zM18 22h1v1H18zM19 22h1v1H19zM10 28h1v1H10zM11 28h1v1H11zM20 28h1v1H20zM21 28h1v1H21zM10 29h1v1H10zM11 29h1v1H11zM20 29h1v1H20zM21 29h1v1H21z"/><path fill="#4d63c1" d="M3 19h1v1H3zM28 19h1v1H28zM5 21h1v1H5zM26 21h1v1H26zM2 23h1v1H2zM29 23h1v1H29z"/></svg>
