<svg xmlns="http://www.w3.org/2000/svg" viewBox="0 0 32 32" shape-rendering="crispEdges"><path fill="#b97a2b" d="M15 0h1v1H15zM16 0h1v1H16zM14 1h1v1H14zM17 1h1v1H17zM9 3h1v1H9zM10 3h1v1H10zM21 3h1v1H21zM22 3h1v1H22zM9 4h1v1H9zM22 4h1v1H22zM9 5h1v1H9zM10 5h1v1H10zM21 5h1v1H21zM22 5h1v1H22zM5 10h1v1H5zM12 10h1v1H12zM19 10h1v1H19zM26 10h1v1H26zM6 11h1v1H6zM13 11h1v1H13zM18 11h1v1H18zM25 11h1v1H25zM5 12h1v1H5zM26 12h1v1H26zM10 13h1v1H10zM14 13h1v1H14zM17 13h1v1H17zM21 13h1v1H21zM9 14h1v1H9zM22 14h1v1H22zM8 15h1v1H8zM23 15h1v1H23zM7 16h1v1H7zM24 16h1v1H24zM7 17h1v1H7zM24 17h1v1H24zM4 20h1v1H4zM27 20h1v1H27zM2 24h1v1H2zM29 24h1v1H29zM1 25h1v1H1zM3 25h1v1H3zM5 25h1v1H5zM26 25h1v1H26zM28 25h1v1H28zM30 25h1v1H30zM2 26h1v1H2zM29 26h1v1H29zM4 27h1v1H4zM13 27h1v1H13zM18 27h1v1H18zM27 27h1v1H27zM3 29h1v1H3zM28 29h1v1H28z"/><path fill="#efe5c4" d="M15 1h1v1H15zM16 1h1v1H16zM15 8h1v1H15zM16 8h1v1H16zM14 9h1v1H14zM17 9h1v1H17zM5 11h1v1H5zM26 11h1v1H26zM8 12h1v1H8zM23 12h1v1H23zM7 13h1v1H7zM9 13h1v1H9zM22 13h1v1H22zM24 13h1v1H24zM8 14h1v1H8zM23 14h1v1H23zM3 15h1v1H3zM28 15h1v1H28zM4 16h1v1H4zM27 16h1v1H27zM5 17h1v1H5zM26 17h1v1H26zM5 18h1v1H5zM6 18h1v1H6zM25 18h1v1H25zM26 18h1v1H26zM6 19h1v1H6zM25 19h1v1H25zM4 21h1v1H4zM27 21h1v1H27zM2 25h1v1H2zM29 25h1v1H29z"/><path fill="#413329" d="M14 2h1v1H14zM17 2h1v1H17zM8 5h1v1H8zM23 5h1v1H23zM9 6h1v1H9zM10 6h1v1H10zM21 6h1v1H21zM22 6h1v1H22zM10 26h1v1H10zM21 26h1v1H21zM14 28h1v1H14zM17 28h1v1H17z"/><path fill="#885830" d="M15 2h1v1H15zM16 2h1v1H16zM8 4h1v1H8zM11 4h1v1H11zM20 4h1v1H20zM23 4h1v1H23zM11 5h1v1H11zM20 5h1v1H20zM7 10h1v1H7zM24 10h1v1H24zM4 11h1v1H4zM12 11h1v1H12zM19 11h1v1H19zM27 11h1v1H27zM14 12h1v1H14zM17 12h1v1H17zM15 13h1v1H15zM16 13h1v1H16zM15 14h1v1H15zM16 14h1v1H16zM7 18h1v1H7zM24 18h1v1H24zM7 19h1v1H7zM24 19h1v1H24zM7 20h1v1H7zM24 20h1v1H24zM3 21h1v1H3zM5 21h1v1H5zM7 21h1v1H7zM24 21h1v1H24zM26 21h1v1H26zM28 21h1v1H28zM4 22h1v1H4zM27 22h1v1H27zM14 29h1v1H14zM15 29h1v1H15zM16 29h1v1H16zM17 29h1v1H17z"/><path fill="#030227" d="M13 3h1v1H13zM18 3h1v1H18zM12 4h1v1H12zM19 4h1v1H19zM12 6h1v1H12zM19 6h1v1H19zM11 7h1v1H11zM12 7h1v1H12zM19 7h1v1H19zM20 7h1v1H20zM9 8h1v1H9zM10 8h1v1H10zM21 8h1v1H21zM22 8h1v1H22zM4 15h1v1H4zM27 15h1v1H27zM5 16h1v1H5zM26 16h1v1H26zM7 25h1v1H7zM24 25h1v1H24zM6 28h1v1H6zM25 28h1v1H25z"/><path fill="#11034d" d="M14 3h1v1H14zM17 3h1v1H17zM13 4h1v1H13zM14 4h1v1H14zM17 4h1v1H17zM18 4h1v1H18zM12 5h1v1H12zM13 5h1v1H13zM18 5h1v1H18zM19 5h1v1H19zM11 6h1v1H11zM20 6h1v1H20zM9 7h1v1H9zM10 7h1v1H10zM21 7h1v1H21zM22 7h1v1H22zM4 14h1v1H4zM27 14h1v1H27z"/><path fill="#cac0ac" d="M15 3h1v1H15zM16 3h1v1H16zM10 4h1v1H10zM15 4h1v1H15zM16 4h1v1H16zM21 4h1v1H21zM7 5h1v1H7zM15 5h1v1H15zM16 5h1v1H16zM24 5h1v1H24zM7 6h1v1H7zM15 6h1v1H15zM16 6h1v1H16zM24 6h1v1H24zM7 7h1v1H7zM24 7h1v1H24zM12 8h1v1H12zM19 8h1v1H19zM10 9h1v1H10zM11 9h1v1H11zM12 9h1v1H12zM19 9h1v1H19zM20 9h1v1H20zM21 9h1v1H21zM10 10h1v1H10zM11 10h1v1H11zM20 10h1v1H20zM21 10h1v1H21zM4 13h1v1H4zM27 13h1v1H27zM3 14h1v1H3zM28 14h1v1H28zM3 16h1v1H3zM28 16h1v1H28zM4 17h1v1H4zM27 17h1v1H27zM6 23h1v1H6zM25 23h1v1H25zM6 24h1v1H6zM25 24h1v1H25zM6 25h1v1H6zM25 25h1v1H25zM5 26h1v1H5zM26 26h1v1H26zM5 27h1v1H5zM10 27h1v1H10zM21 27h1v1H21zM26 27h1v1H26zM4 28h1v1H4zM10 28h1v1H10zM21 28h1v1H21zM27 28h1v1H27zM4 29h1v1H4zM9 29h1v1H9zM22 29h1v1H22zM27 29h1v1H27z"/><path fill="#ffffff" d="M6 4h1v1H6zM25 4h1v1H25zM6 5h1v1H6zM14 5h1v1H14zM17 5h1v1H17zM25 5h1v1H25zM6 6h1v1H6zM13 6h1v1H13zM14 6h1v1H14zM17 6h1v1H17zM18 6h1v1H18zM25 6h1v1H25zM6 7h1v1H6zM8 7h1v1H8zM13 7h1v1H13zM14 7h1v1H14zM17 7h1v1H17zM18 7h1v1H18zM23 7h1v1H23zM25 7h1v1H25zM6 8h1v1H6zM8 8h1v1H8zM13 8h1v1H13zM18 8h1v1H18zM23 8h1v1H23zM25 8h1v1H25zM6 9h1v1H6zM8 9h1v1H8zM9 9h1v1H9zM15 9h1v1H15zM16 9h1v1H16zM22 9h1v1H22zM23 9h1v1H23zM25 9h1v1H25zM9 10h1v1H9zM15 10h1v1H15zM16 10h1v1H16zM22 10h1v1H22zM8 13h1v1H8zM23 13h1v1H23zM11 17h1v1H11zM12 17h1v1H12zM19 17h1v1H19zM20 17h1v1H20zM11 18h1v1H11zM12 18h1v1H12zM13 18h1v1H13zM18 18h1v1H18zM19 18h1v1H19zM20 18h1v1H20zM11 19h1v1H11zM12 19h1v1H12zM19 19h1v1H19zM20 19h1v1H20zM11 20h1v1H11zM12 20h1v1H12zM19 20h1v1H19zM20 20h1v1H20zM11 21h1v1H11zM12 21h1v1H12zM19 21h1v1H19zM20 21h1v1H20zM12 22h1v1H12zM13 22h1v1H13zM18 22h1v1H18zM19 22h1v1H19zM14 25h1v1H14zM15 25h1v1H15zM16 25h1v1H16zM17 25h1v1H17zM15 26h1v1H15zM16 26h1v1H16z"/><path fill="#070243" d="M8 6h1v1H8zM23 6h1v1H23zM13 9h1v1H13zM18 9h1v1H18zM13 10h1v1H13zM18 10h1v1H18zM7 12h1v1H7zM9 12h1v1H9zM22 12h1v1H22zM24 12h1v1H24zM5 14h1v1H5zM11 14h1v1H11zM12 14h1v1H12zM19 14h1v1H19zM20 14h1v1H20zM26 14h1v1H26zM5 15h1v1H5zM26 15h1v1H26zM2 16h1v1H2zM29 16h1v1H29zM2 17h1v1H2zM8 17h1v1H8zM23 17h1v1H23zM29 17h1v1H29zM1 18h1v1H1zM2 18h1v1H2zM3 18h1v1H3zM8 18h1v1H8zM23 18h1v1H23zM28 18h1v1H28zM29 18h1v1H29zM30 18h1v1H30zM1 19h1v1H1zM2 19h1v1H2zM3 19h1v1H3zM8 19h1v1H8zM23 19h1v1H23zM28 19h1v1H28zM29 19h1v1H29zM30 19h1v1H30zM1 20h1v1H1zM2 20h1v1H2zM3 20h1v1H3zM8 20h1v1H8zM10 20h1v1H10zM21 20h1v1H21zM23 20h1v1H23zM28 20h1v1H28zM29 20h1v1H29zM30 20h1v1H30zM1 21h1v1H1zM2 21h1v1H2zM8 21h1v1H8zM23 21h1v1H23zM29 21h1v1H29zM30 21h1v1H30zM8 22h1v1H8zM23 22h1v1H23zM0 23h1v1H0zM5 23h1v1H5zM10 23h1v1H10zM21 23h1v1H21zM26 23h1v1H26zM31 23h1v1H31zM0 24h1v1H0zM5 24h1v1H5zM26 24h1v1H26zM31 24h1v1H31zM0 25h1v1H0zM31 25h1v1H31z"/><path fill="#220a86" d="M15 7h1v1H15zM16 7h1v1H16zM14 8h1v1H14zM17 8h1v1H17zM14 10h1v1H14zM17 10h1v1H17zM15 11h1v1H15zM16 11h1v1H16zM11 13h1v1H11zM12 13h1v1H12zM13 13h1v1H13zM18 13h1v1H18zM19 13h1v1H19zM20 13h1v1H20zM13 14h1v1H13zM18 14h1v1H18zM7 15h1v1H7zM24 15h1v1H24zM10 18h1v1H10zM21 18h1v1H21zM1 22h1v1H1zM2 22h1v1H2zM29 22h1v1H29zM30 22h1v1H30zM1 23h1v1H1zM2 23h1v1H2zM3 23h1v1H3zM4 23h1v1H4zM27 23h1v1H27zM28 23h1v1H28zM29 23h1v1H29zM30 23h1v1H30zM1 24h1v1H1zM3 24h1v1H3zM4 24h1v1H4zM27 24h1v1H27zM28 24h1v1H28zM30 24h1v1H30zM4 25h1v1H4zM27 25h1v1H27zM8 26h1v1H8zM23 26h1v1H23zM3 27h1v1H3zM7 27h1v1H7zM8 27h1v1H8zM14 27h1v1H14zM17 27h1v1H17zM23 27h1v1H23zM24 27h1v1H24zM28 27h1v1H28zM1 28h1v1H1zM2 28h1v1H2zM7 28h1v1H7zM8 28h1v1H8zM15 28h1v1H15zM16 28h1v1H16zM23 28h1v1H23zM24 28h1v1H24zM29 28h1v1H29zM30 28h1v1H30zM6 29h1v1H6zM7 29h1v1H7zM8 29h1v1H8zM23 29h1v1H23zM24 29h1v1H24zM25 29h1v1H25z"/><path fill="#b5aba2" d="M7 8h1v1H7zM11 8h1v1H11zM20 8h1v1H20zM24 8h1v1H24zM7 9h1v1H7zM24 9h1v1H24zM8 10h1v1H8zM23 10h1v1H23zM7 11h1v1H7zM8 11h1v1H8zM9 11h1v1H9zM10 11h1v1H10zM11 11h1v1H11zM20 11h1v1H20zM21 11h1v1H21zM22 11h1v1H22zM23 11h1v1H23zM24 11h1v1H24zM10 12h1v1H10zM11 12h1v1H11zM12 12h1v1H12zM19 12h1v1H19zM20 12h1v1H20zM21 12h1v1H21zM8 24h1v1H8zM14 24h1v1H14zM15 24h1v1H15zM16 24h1v1H16zM17 24h1v1H17zM23 24h1v1H23zM10 25h1v1H10zM13 25h1v1H13zM18 25h1v1H18zM21 25h1v1H21z"/><path fill="#251822" d="M6 10h1v1H6zM25 10h1v1H25zM4 12h1v1H4zM6 12h1v1H6zM13 12h1v1H13zM18 12h1v1H18zM25 12h1v1H25zM27 12h1v1H27zM5 13h1v1H5zM26 13h1v1H26zM10 14h1v1H10zM14 14h1v1H14zM17 14h1v1H17zM21 14h1v1H21zM9 15h1v1H9zM22 15h1v1H22zM8 16h1v1H8zM23 16h1v1H23zM3 22h1v1H3zM5 22h1v1H5zM26 22h1v1H26zM28 22h1v1H28zM1 26h1v1H1zM3 26h1v1H3zM6 26h1v1H6zM25 26h1v1H25zM28 26h1v1H28zM30 26h1v1H30zM12 27h1v1H12zM19 27h1v1H19zM3 28h1v1H3zM5 28h1v1H5zM13 28h1v1H13zM18 28h1v1H18zM26 28h1v1H26zM28 28h1v1H28z"/><path fill="#150960" d="M14 11h1v1H14zM17 11h1v1H17zM15 12h1v1H15zM16 12h1v1H16zM10 19h1v1H10zM21 19h1v1H21zM13 21h1v1H13zM18 21h1v1H18zM9 23h1v1H9zM22 23h1v1H22zM10 24h1v1H10zM11 24h1v1H11zM12 24h1v1H12zM13 24h1v1H13zM18 24h1v1H18zM19 24h1v1H19zM20 24h1v1H20zM21 24h1v1H21zM0 26h1v1H0zM4 26h1v1H4zM7 26h1v1H7zM24 26h1v1H24zM27 26h1v1H27zM31 26h1v1H31zM0 27h1v1H0zM1 27h1v1H1zM2 27h1v1H2zM29 27h1v1H29zM30 27h1v1H30zM31 27h1v1H31z"/><path fill="#000000" d="M6 13h1v1H6zM25 13h1v1H25zM6 14h1v1H6zM25 14h1v1H25zM6 15h1v1H6zM10 15h1v1H10zM11 15h1v1H11zM12 15h1v1H12zM13 15h1v1H13zM14 15h1v1H14zM15 15h1v1H15zM16 15h1v1H16zM17 15h1v1H17zM18 15h1v1H18zM19 15h1v1H19zM20 15h1v1H20zM21 15h1v1H21zM25 15h1v1H25zM6 16h1v1H6zM9 16h1v1H9zM10 16h1v1H10zM11 16h1v1H11zM12 16h1v1H12zM13 16h1v1H13zM14 16h1v1H14zM15 16h1v1H15zM16 16h1v1H16zM17 16h1v1H17zM18 16h1v1H18zM19 16h1v1H19zM20 16h1v1H20zM21 16h1v1H21zM22 16h1v1H22zM25 16h1v1H25zM6 17h1v1H6zM9 17h1v1H9zM10 17h1v1H10zM13 17h1v1H13zM14 17h1v1H14zM15 17h1v1H15zM16 17h1v1H16zM17 17h1v1H17zM18 17h1v1H18zM21 17h1v1H21zM22 17h1v1H22zM25 17h1v1H25zM9 18h1v1H9zM14 18h1v1H14zM15 18h1v1H15zM16 18h1v1H16zM17 18h1v1H17zM22 18h1v1H22zM9 19h1v1H9zM13 19h1v1H13zM14 19h1v1H14zM15 19h1v1H15zM16 19h1v1H16zM17 19h1v1H17zM18 19h1v1H18zM22 19h1v1H22zM9 20h1v1H9zM13 20h1v1H13zM14 20h1v1H14zM15 20h1v1H15zM16 20h1v1H16zM17 20h1v1H17zM18 20h1v1H18zM22 20h1v1H22zM9 21h1v1H9zM10 21h1v1H10zM14 21h1v1H14zM15 21h1v1H15zM16 21h1v1H16zM17 21h1v1H17zM21 21h1v1H21zM22 21h1v1H22zM9 22h1v1H9zM10 22h1v1H10zM11 22h1v1H11zM14 22h1v1H14zM15 22h1v1H15zM16 22h1v1H16zM17 22h1v1H17zM20 22h1v1H20zM21 22h1v1H21zM22 22h1v1H22zM11 23h1v1H11zM12 23h1v1H12zM13 23h1v1H13zM14 23h1v1H14zM15 23h1v1H15zM16 23h1v1H16zM17 23h1v1H17zM18 23h1v1H18zM19 23h1v1H19zM20 23h1v1H20zM9 26h1v1H9zM22 26h1v1H22zM6 27h1v1H6zM11 27h1v1H11zM20 27h1v1H20zM25 27h1v1H25zM11 28h1v1H11zM12 28h1v1H12zM19 28h1v1H19zM20 28h1v1H20zM5 29h1v1H5zM10 29h1v1H10zM11 29h1v1H11zM12 29h1v1H12zM13 29h1v1H13zM18 29h1v1H18zM19 29h1v1H19zM20 29h1v1H20zM21 29h1v1H21zM26 29h1v1H26z"/><path fill="#76768b" d="M7 14h1v1H7zM24 14h1v1H24zM4 18h1v1H4zM27 18h1v1H27zM5 19h1v1H5zM26 19h1v1H26zM6 20h1v1H6zM25 20h1v1H25zM7 23h1v1H7zM24 23h1v1H24zM9 25h1v1H9zM22 25h1v1H22zM14 26h1v1H14zM17 26h1v1H17zM15 27h1v1H15zM16 27h1v1H16zM0 28h1v1H0zM9 28h1v1H9zM22 28h1v1H22zM31 28h1v1H31zM2 29h1v1H2zM29 29h1v1H29z"/><path fill="#090823" d="M2 15h1v1H2zM29 15h1v1H29zM1 17h1v1H1zM30 17h1v1H30z"/><path fill="#4b4b65" d="M3 17h1v1H3zM28 17h1v1H28zM6 21h1v1H6zM25 21h1v1H25zM6 22h1v1H6zM25 22h1v1H25zM11 25h1v1H11zM12 25h1v1H12zM19 25h1v1H19zM20 25h1v1H20zM11 26h1v1H11zM20 26h1v1H20zM9 27h1v1H9zM22 27h1v1H22zM1 29h1v1H1zM30 29h1v1H30z"/><path fill="#322e65" d="M4 19h1v1H4zM27 19h1v1H27zM5 20h1v1H5zM26 20h1v1H26z"/><path fill="#a29279" d="M7 22h1v1H7zM24 22h1v1H24zM8 23h1v1H8zM23 23h1v1H23zM9 24h1v1H9zM22 24h1v1H22zM13 26h1v1H13zM18 26h1v1H18z"/><path fill="#111130" d="M7 24h1v1H7zM24 24h1v1H24zM8 25h1v1H8zM23 25h1v1H23z"/><path fill="#28232b" d="M12 26h1v1H12zM19 26h1v1H19z"/></svg>
