<svg xmlns="http://www.w3.org/2000/svg" viewBox="0 0 32 32" shape-rendering="crispEdges"><path fill="#cabf7b" d="M13 2h1v1H13zM14 2h1v1H14zM15 2h1v1H15zM16 2h1v1H16zM17 2h1v1H17zM18 2h1v1H18zM13 4h1v1H13zM18 4h1v1H18zM3 5h1v1H3zM7 5h1v1H7zM24 5h1v1H24zM28 5h1v1H28zM4 6h1v1H4zM5 6h1v1H5zM6 6h1v1H6zM25 6h1v1H25zM26 6h1v1H26zM27 6h1v1H27zM8 9h1v1H8zM9 9h1v1H9zM10 9h1v1H10zM11 9h1v1H11zM12 9h1v1H12zM19 9h1v1H19zM20 9h1v1H20zM21 9h1v1H21zM22 9h1v1H22zM23 9h1v1H23zM3 12h1v1H3zM7 12h1v1H7zM24 12h1v1H24zM28 12h1v1H28zM4 13h1v1H4zM5 13h1v1H5zM6 13h1v1H6zM25 13h1v1H25zM26 13h1v1H26zM27 13h1v1H27zM8 14h1v1H8zM12 14h1v1H12zM19 14h1v1H19zM23 14h1v1H23zM3 19h1v1H3zM7 19h1v1H7zM24 19h1v1H24zM28 19h1v1H28zM4 20h1v1H4zM5 20h1v1H5zM6 20h1v1H6zM25 20h1v1H25zM26 20h1v1H26zM27 20h1v1H27zM3 27h1v1H3zM7 27h1v1H7zM12 27h1v1H12zM19 27h1v1H19zM24 27h1v1H24zM28 27h1v1H28zM4 28h1v1H4zM5 28h1v1H5zM6 28h1v1H6zM25 28h1v1H25zM26 28h1v1H26zM27 28h1v1H27z"/><path fill="#3f5628" d="M3 3h1v1H3zM7 3h1v1H7zM12 3h1v1H12zM19 3h1v1H19zM24 3h1v1H24zM28 3h1v1H28zM8 6h1v1H8zM23 6h1v1H23z"/><path fill="#334e1c" d="M4 3h1v1H4zM5 3h1v1H5zM6 3h1v1H6zM25 3h1v1H25zM26 3h1v1H26zM27 3h1v1H27zM9 4h1v1H9zM22 4h1v1H22zM3 7h1v1H3zM28 7h1v1H28zM8 11h1v1H8zM23 11h1v1H23zM8 12h1v1H8zM23 12h1v1H23zM7 14h1v1H7zM24 14h1v1H24zM3 15h1v1H3zM8 15h1v1H8zM9 15h1v1H9zM13 15h1v1H13zM18 15h1v1H18zM22 15h1v1H22zM23 15h1v1H23zM28 15h1v1H28zM10 19h1v1H10zM21 19h1v1H21zM3 21h1v1H3zM13 21h1v1H13zM18 21h1v1H18zM28 21h1v1H28zM8 25h1v1H8zM23 25h1v1H23zM10 26h1v1H10zM11 26h1v1H11zM20 26h1v1H20zM21 26h1v1H21z"/><path fill="#eadda8" d="M13 3h1v1H13zM14 3h1v1H14zM15 3h1v1H15zM16 3h1v1H16zM17 3h1v1H17zM18 3h1v1H18zM3 4h1v1H3zM4 4h1v1H4zM5 4h1v1H5zM6 4h1v1H6zM7 4h1v1H7zM14 4h1v1H14zM15 4h1v1H15zM16 4h1v1H16zM17 4h1v1H17zM24 4h1v1H24zM25 4h1v1H25zM26 4h1v1H26zM27 4h1v1H27zM28 4h1v1H28zM13 7h1v1H13zM14 7h1v1H14zM15 7h1v1H15zM16 7h1v1H16zM17 7h1v1H17zM18 7h1v1H18zM13 8h1v1H13zM18 8h1v1H18zM13 9h1v1H13zM18 9h1v1H18zM3 11h1v1H3zM7 11h1v1H7zM24 11h1v1H24zM28 11h1v1H28zM11 12h1v1H11zM13 12h1v1H13zM18 12h1v1H18zM20 12h1v1H20zM10 13h1v1H10zM11 13h1v1H11zM12 13h1v1H12zM13 13h1v1H13zM14 13h1v1H14zM15 13h1v1H15zM16 13h1v1H16zM17 13h1v1H17zM18 13h1v1H18zM19 13h1v1H19zM20 13h1v1H20zM21 13h1v1H21zM9 14h1v1H9zM10 14h1v1H10zM11 14h1v1H11zM13 14h1v1H13zM14 14h1v1H14zM15 14h1v1H15zM16 14h1v1H16zM17 14h1v1H17zM18 14h1v1H18zM20 14h1v1H20zM21 14h1v1H21zM22 14h1v1H22zM3 18h1v1H3zM7 18h1v1H7zM24 18h1v1H24zM28 18h1v1H28zM3 26h1v1H3zM7 26h1v1H7zM24 26h1v1H24zM28 26h1v1H28zM9 27h1v1H9zM10 27h1v1H10zM11 27h1v1H11zM20 27h1v1H20zM21 27h1v1H21zM22 27h1v1H22z"/><path fill="#506d25" d="M2 4h1v1H2zM29 4h1v1H29zM6 8h1v1H6zM25 8h1v1H25zM6 9h1v1H6zM25 9h1v1H25zM6 10h1v1H6zM25 10h1v1H25zM2 11h1v1H2zM4 11h1v1H4zM27 11h1v1H27zM29 11h1v1H29zM3 14h1v1H3zM28 14h1v1H28zM6 15h1v1H6zM25 15h1v1H25zM6 16h1v1H6zM25 16h1v1H25zM6 17h1v1H6zM25 17h1v1H25zM6 22h1v1H6zM25 22h1v1H25zM6 23h1v1H6zM25 23h1v1H25zM6 24h1v1H6zM25 24h1v1H25zM6 25h1v1H6zM9 25h1v1H9zM22 25h1v1H22zM25 25h1v1H25zM6 26h1v1H6zM25 26h1v1H25zM11 28h1v1H11zM20 28h1v1H20z"/><path fill="#2a3f15" d="M10 4h1v1H10zM11 4h1v1H11zM20 4h1v1H20zM21 4h1v1H21zM4 5h1v1H4zM5 5h1v1H5zM6 5h1v1H6zM8 5h1v1H8zM12 5h1v1H12zM19 5h1v1H19zM23 5h1v1H23zM25 5h1v1H25zM26 5h1v1H26zM27 5h1v1H27zM12 6h1v1H12zM19 6h1v1H19zM7 7h1v1H7zM24 7h1v1H24zM7 8h1v1H7zM24 8h1v1H24zM7 9h1v1H7zM24 9h1v1H24zM7 10h1v1H7zM24 10h1v1H24zM8 13h1v1H8zM23 13h1v1H23zM7 16h1v1H7zM24 16h1v1H24zM10 20h1v1H10zM21 20h1v1H21zM7 21h1v1H7zM24 21h1v1H24zM3 22h1v1H3zM7 22h1v1H7zM24 22h1v1H24zM28 22h1v1H28zM3 23h1v1H3zM7 23h1v1H7zM24 23h1v1H24zM28 23h1v1H28zM3 24h1v1H3zM7 24h1v1H7zM24 24h1v1H24zM28 24h1v1H28zM7 25h1v1H7zM24 25h1v1H24zM8 26h1v1H8zM23 26h1v1H23zM8 28h1v1H8zM23 28h1v1H23zM3 29h1v1H3zM7 29h1v1H7zM8 29h1v1H8zM9 29h1v1H9zM10 29h1v1H10zM11 29h1v1H11zM12 29h1v1H12zM19 29h1v1H19zM20 29h1v1H20zM21 29h1v1H21zM22 29h1v1H22zM23 29h1v1H23zM24 29h1v1H24zM28 29h1v1H28z"/><path fill="#83aa36" d="M12 4h1v1H12zM19 4h1v1H19zM9 5h1v1H9zM10 5h1v1H10zM13 5h1v1H13zM14 5h1v1H14zM15 5h1v1H15zM16 5h1v1H16zM17 5h1v1H17zM18 5h1v1H18zM21 5h1v1H21zM22 5h1v1H22zM3 6h1v1H3zM7 6h1v1H7zM9 6h1v1H9zM10 6h1v1H10zM13 6h1v1H13zM14 6h1v1H14zM15 6h1v1H15zM16 6h1v1H16zM17 6h1v1H17zM18 6h1v1H18zM21 6h1v1H21zM22 6h1v1H22zM24 6h1v1H24zM28 6h1v1H28zM4 7h1v1H4zM5 7h1v1H5zM6 7h1v1H6zM8 7h1v1H8zM9 7h1v1H9zM10 7h1v1H10zM21 7h1v1H21zM22 7h1v1H22zM23 7h1v1H23zM25 7h1v1H25zM26 7h1v1H26zM27 7h1v1H27zM9 11h1v1H9zM22 11h1v1H22zM3 13h1v1H3zM7 13h1v1H7zM24 13h1v1H24zM28 13h1v1H28zM4 14h1v1H4zM5 14h1v1H5zM6 14h1v1H6zM25 14h1v1H25zM26 14h1v1H26zM27 14h1v1H27zM3 20h1v1H3zM7 20h1v1H7zM24 20h1v1H24zM28 20h1v1H28zM4 21h1v1H4zM5 21h1v1H5zM6 21h1v1H6zM25 21h1v1H25zM26 21h1v1H26zM27 21h1v1H27zM13 28h1v1H13zM18 28h1v1H18z"/><path fill="#2c4116" d="M2 5h1v1H2zM29 5h1v1H29zM2 6h1v1H2zM29 6h1v1H29zM3 8h1v1H3zM28 8h1v1H28zM3 9h1v1H3zM28 9h1v1H28zM3 10h1v1H3zM28 10h1v1H28zM2 12h1v1H2zM29 12h1v1H29zM2 13h1v1H2zM29 13h1v1H29zM2 14h1v1H2zM29 14h1v1H29zM7 15h1v1H7zM24 15h1v1H24zM3 16h1v1H3zM28 16h1v1H28zM3 17h1v1H3zM7 17h1v1H7zM24 17h1v1H24zM28 17h1v1H28zM2 18h1v1H2zM29 18h1v1H29zM2 19h1v1H2zM29 19h1v1H29zM2 20h1v1H2zM29 20h1v1H29zM3 25h1v1H3zM28 25h1v1H28zM2 26h1v1H2zM12 26h1v1H12zM19 26h1v1H19zM29 26h1v1H29zM2 27h1v1H2zM29 27h1v1H29zM2 28h1v1H2zM29 28h1v1H29z"/><path fill="#64822e" d="M11 5h1v1H11zM20 5h1v1H20zM12 10h1v1H12zM19 10h1v1H19z"/><path fill="#67872a" d="M11 6h1v1H11zM20 6h1v1H20zM12 7h1v1H12zM19 7h1v1H19zM4 8h1v1H4zM12 8h1v1H12zM19 8h1v1H19zM27 8h1v1H27zM4 9h1v1H4zM5 9h1v1H5zM26 9h1v1H26zM27 9h1v1H27zM4 10h1v1H4zM5 10h1v1H5zM26 10h1v1H26zM27 10h1v1H27zM5 11h1v1H5zM6 11h1v1H6zM10 11h1v1H10zM11 11h1v1H11zM12 11h1v1H12zM13 11h1v1H13zM14 11h1v1H14zM15 11h1v1H15zM16 11h1v1H16zM17 11h1v1H17zM18 11h1v1H18zM19 11h1v1H19zM20 11h1v1H20zM21 11h1v1H21zM25 11h1v1H25zM26 11h1v1H26zM9 12h1v1H9zM12 12h1v1H12zM19 12h1v1H19zM22 12h1v1H22zM9 13h1v1H9zM22 13h1v1H22zM4 15h1v1H4zM5 15h1v1H5zM10 15h1v1H10zM11 15h1v1H11zM12 15h1v1H12zM14 15h1v1H14zM15 15h1v1H15zM16 15h1v1H16zM17 15h1v1H17zM19 15h1v1H19zM20 15h1v1H20zM21 15h1v1H21zM26 15h1v1H26zM27 15h1v1H27zM4 16h1v1H4zM5 16h1v1H5zM8 16h1v1H8zM23 16h1v1H23zM26 16h1v1H26zM27 16h1v1H27zM4 17h1v1H4zM5 17h1v1H5zM26 17h1v1H26zM27 17h1v1H27zM4 18h1v1H4zM5 18h1v1H5zM10 18h1v1H10zM21 18h1v1H21zM26 18h1v1H26zM27 18h1v1H27zM4 22h1v1H4zM5 22h1v1H5zM26 22h1v1H26zM27 22h1v1H27zM4 23h1v1H4zM5 23h1v1H5zM26 23h1v1H26zM27 23h1v1H27zM4 24h1v1H4zM5 24h1v1H5zM8 24h1v1H8zM23 24h1v1H23zM26 24h1v1H26zM27 24h1v1H27zM4 25h1v1H4zM5 25h1v1H5zM26 25h1v1H26zM27 25h1v1H27zM4 26h1v1H4zM5 26h1v1H5zM9 26h1v1H9zM13 26h1v1H13zM18 26h1v1H18zM22 26h1v1H22zM26 26h1v1H26zM27 26h1v1H27zM3 28h1v1H3zM7 28h1v1H7zM12 28h1v1H12zM19 28h1v1H19zM24 28h1v1H24zM28 28h1v1H28zM4 29h1v1H4zM5 29h1v1H5zM6 29h1v1H6zM25 29h1v1H25zM26 29h1v1H26zM27 29h1v1H27z"/><path fill="#a2c24f" d="M11 7h1v1H11zM20 7h1v1H20zM8 8h1v1H8zM9 8h1v1H9zM10 8h1v1H10zM11 8h1v1H11zM20 8h1v1H20zM21 8h1v1H21zM22 8h1v1H22zM23 8h1v1H23z"/><path fill="#759730" d="M5 8h1v1H5zM26 8h1v1H26zM8 10h1v1H8zM23 10h1v1H23zM14 28h1v1H14zM15 28h1v1H15zM16 28h1v1H16zM17 28h1v1H17z"/><path fill="#f7f1cc" d="M14 8h1v1H14zM15 8h1v1H15zM16 8h1v1H16zM17 8h1v1H17zM14 9h1v1H14zM15 9h1v1H15zM16 9h1v1H16zM17 9h1v1H17zM4 12h1v1H4zM5 12h1v1H5zM6 12h1v1H6zM10 12h1v1H10zM14 12h1v1H14zM15 12h1v1H15zM16 12h1v1H16zM17 12h1v1H17zM21 12h1v1H21zM25 12h1v1H25zM26 12h1v1H26zM27 12h1v1H27zM4 19h1v1H4zM5 19h1v1H5zM6 19h1v1H6zM25 19h1v1H25zM26 19h1v1H26zM27 19h1v1H27zM4 27h1v1H4zM5 27h1v1H5zM6 27h1v1H6zM13 27h1v1H13zM14 27h1v1H14zM15 27h1v1H15zM16 27h1v1H16zM17 27h1v1H17zM18 27h1v1H18zM25 27h1v1H25zM26 27h1v1H26zM27 27h1v1H27z"/><path fill="#a2b756" d="M9 10h1v1H9zM10 10h1v1H10zM11 10h1v1H11zM13 10h1v1H13zM14 10h1v1H14zM15 10h1v1H15zM16 10h1v1H16zM17 10h1v1H17zM18 10h1v1H18zM20 10h1v1H20zM21 10h1v1H21zM22 10h1v1H22z"/><path fill="#000000" d="M9 16h1v1H9zM10 16h1v1H10zM11 16h1v1H11zM12 16h1v1H12zM13 16h1v1H13zM14 16h1v1H14zM15 16h1v1H15zM16 16h1v1H16zM17 16h1v1H17zM18 16h1v1H18zM19 16h1v1H19zM20 16h1v1H20zM21 16h1v1H21zM22 16h1v1H22zM9 17h1v1H9zM10 17h1v1H10zM13 17h1v1H13zM14 17h1v1H14zM15 17h1v1H15zM16 17h1v1H16zM17 17h1v1H17zM18 17h1v1H18zM21 17h1v1H21zM22 17h1v1H22zM9 18h1v1H9zM14 18h1v1H14zM15 18h1v1H15zM16 18h1v1H16zM17 18h1v1H17zM22 18h1v1H22zM9 19h1v1H9zM14 19h1v1H14zM15 19h1v1H15zM16 19h1v1H16zM17 19h1v1H17zM22 19h1v1H22zM9 20h1v1H9zM14 20h1v1H14zM15 20h1v1H15zM16 20h1v1H16zM17 20h1v1H17zM22 20h1v1H22zM9 21h1v1H9zM10 21h1v1H10zM14 21h1v1H14zM15 21h1v1H15zM16 21h1v1H16zM17 21h1v1H17zM21 21h1v1H21zM22 21h1v1H22zM9 22h1v1H9zM10 22h1v1H10zM11 22h1v1H11zM14 22h1v1H14zM15 22h1v1H15zM16 22h1v1H16zM17 22h1v1H17zM20 22h1v1H20zM21 22h1v1H21zM22 22h1v1H22zM9 23h1v1H9zM10 23h1v1H10zM11 23h1v1H11zM12 23h1v1H12zM13 23h1v1H13zM14 23h1v1H14zM15 23h1v1H15zM16 23h1v1H16zM17 23h1v1H17zM18 23h1v1H18zM19 23h1v1H19zM20 23h1v1H20zM21 23h1v1H21zM22 23h1v1H22zM9 24h1v1H9zM10 24h1v1H10zM11 24h1v1H11zM12 24h1v1H12zM13 24h1v1H13zM14 24h1v1H14zM15 24h1v1H15zM16 24h1v1H16zM17 24h1v1H17zM18 24h1v1H18zM19 24h1v1H19zM20 24h1v1H20zM21 24h1v1H21zM22 24h1v1H22zM10 25h1v1H10zM11 25h1v1H11zM12 25h1v1H12zM13 25h1v1H13zM14 25h1v1H14zM15 25h1v1H15zM16 25h1v1H16zM17 25h1v1H17zM18 25h1v1H18zM19 25h1v1H19zM20 25h1v1H20zM21 25h1v1H21z"/><path fill="#456522" d="M8 17h1v1H8zM23 17h1v1H23zM6 18h1v1H6zM8 18h1v1H8zM23 18h1v1H23zM25 18h1v1H25zM8 19h1v1H8zM23 19h1v1H23zM8 20h1v1H8zM23 20h1v1H23zM8 21h1v1H8zM23 21h1v1H23zM8 22h1v1H8zM23 22h1v1H23zM8 23h1v1H8zM23 23h1v1H23zM14 26h1v1H14zM15 26h1v1H15zM16 26h1v1H16zM17 26h1v1H17zM9 28h1v1H9zM10 28h1v1H10zM21 28h1v1H21zM22 28h1v1H22z"/><path fill="#fdfcfc" d="M11 17h1v1H11zM12 17h1v1H12zM19 17h1v1H19zM20 17h1v1H20zM11 18h1v1H11zM12 18h1v1H12zM13 18h1v1H13zM18 18h1v1H18zM19 18h1v1H19zM20 18h1v1H20zM11 19h1v1H11zM12 19h1v1H12zM19 19h1v1H19zM20 19h1v1H20zM11 20h1v1H11zM12 20h1v1H12zM19 20h1v1H19zM20 20h1v1H20zM11 21h1v1H11zM12 21h1v1H12zM19 21h1v1H19zM20 21h1v1H20zM12 22h1v1H12zM13 22h1v1H13zM18 22h1v1H18zM19 22h1v1H19z"/><path fill="#040101" d="M13 19h1v1H13zM18 19h1v1H18zM13 20h1v1H13zM18 20h1v1H18z"/><path fill="#607930" d="M8 27h1v1H8zM23 27h1v1H23z"/><path fill="#1d2d10" d="M13 29h1v1H13zM14 29h1v1H14zM15 29h1v1H15zM16 29h1v1H16zM17 29h1v1H17zM18 29h1v1H18z"/></svg>
