<svg xmlns="http://www.w3.org/2000/svg" viewBox="0 0 32 32" shape-rendering="crispEdges"><path fill="#265c43" d="M3 1h1v1H3zM2 2h1v1H2zM1 3h1v1H1zM1 4h1v1H1zM27 4h1v1H27zM1 5h1v1H1zM28 5h1v1H28zM1 6h1v1H1zM29 6h1v1H29zM29 7h1v1H29zM29 8h1v1H29zM29 9h1v1H29z"/><path fill="#3d8846" d="M4 1h1v1H4zM5 1h1v1H5zM7 1h1v1H7zM8 1h1v1H8zM9 1h1v1H9zM10 1h1v1H10zM3 2h1v1H3zM4 2h1v1H4zM8 2h1v1H8zM9 2h1v1H9zM10 2h1v1H10zM11 2h1v1H11zM3 3h1v1H3zM4 3h1v1H4zM8 3h1v1H8zM9 3h1v1H9zM11 3h1v1H11zM12 3h1v1H12zM3 4h1v1H3zM9 4h1v1H9zM11 4h1v1H11zM12 4h1v1H12zM20 4h1v1H20zM21 4h1v1H21zM22 4h1v1H22zM23 4h1v1H23zM25 4h1v1H25zM26 4h1v1H26zM3 5h1v1H3zM9 5h1v1H9zM11 5h1v1H11zM12 5h1v1H12zM19 5h1v1H19zM20 5h1v1H20zM21 5h1v1H21zM22 5h1v1H22zM26 5h1v1H26zM27 5h1v1H27zM3 6h1v1H3zM9 6h1v1H9zM11 6h1v1H11zM12 6h1v1H12zM18 6h1v1H18zM19 6h1v1H19zM21 6h1v1H21zM22 6h1v1H22zM26 6h1v1H26zM27 6h1v1H27zM11 7h1v1H11zM12 7h1v1H12zM18 7h1v1H18zM19 7h1v1H19zM21 7h1v1H21zM27 7h1v1H27zM11 8h1v1H11zM18 8h1v1H18zM19 8h1v1H19zM21 8h1v1H21zM27 8h1v1H27zM18 9h1v1H18zM19 9h1v1H19zM21 9h1v1H21zM27 9h1v1H27zM18 10h1v1H18zM19 10h1v1H19zM19 11h1v1H19z"/><path fill="#65c64a" d="M5 2h1v1H5zM7 2h1v1H7zM5 3h1v1H5zM7 3h1v1H7zM4 4h1v1H4zM5 4h1v1H5zM7 4h1v1H7zM8 4h1v1H8zM4 5h1v1H4zM5 5h1v1H5zM7 5h1v1H7zM8 5h1v1H8zM23 5h1v1H23zM25 5h1v1H25zM4 6h1v1H4zM5 6h1v1H5zM7 6h1v1H7zM8 6h1v1H8zM23 6h1v1H23zM25 6h1v1H25zM4 7h1v1H4zM5 7h1v1H5zM7 7h1v1H7zM8 7h1v1H8zM22 7h1v1H22zM23 7h1v1H23zM25 7h1v1H25zM26 7h1v1H26zM22 8h1v1H22zM23 8h1v1H23zM25 8h1v1H25zM26 8h1v1H26zM22 9h1v1H22zM23 9h1v1H23zM25 9h1v1H25zM26 9h1v1H26zM22 10h1v1H22zM23 10h1v1H23zM25 10h1v1H25zM26 10h1v1H26z"/><path fill="#183f3d" d="M6 2h1v1H6zM2 3h1v1H2zM6 3h1v1H6zM10 3h1v1H10zM2 4h1v1H2zM6 4h1v1H6zM10 4h1v1H10zM2 5h1v1H2zM6 5h1v1H6zM10 5h1v1H10zM24 5h1v1H24zM2 6h1v1H2zM10 6h1v1H10zM20 6h1v1H20zM24 6h1v1H24zM28 6h1v1H28zM2 7h1v1H2zM3 7h1v1H3zM9 7h1v1H9zM10 7h1v1H10zM20 7h1v1H20zM24 7h1v1H24zM28 7h1v1H28zM2 8h1v1H2zM3 8h1v1H3zM4 8h1v1H4zM8 8h1v1H8zM9 8h1v1H9zM10 8h1v1H10zM20 8h1v1H20zM24 8h1v1H24zM28 8h1v1H28zM20 9h1v1H20zM28 9h1v1H28zM20 10h1v1H20zM21 10h1v1H21zM27 10h1v1H27zM28 10h1v1H28zM20 11h1v1H20zM21 11h1v1H21zM22 11h1v1H22zM26 11h1v1H26zM27 11h1v1H27zM28 11h1v1H28z"/><path fill="#13fff3" d="M13 5h1v1H13zM14 5h1v1H14zM15 5h1v1H15zM16 5h1v1H16zM17 5h1v1H17zM18 5h1v1H18zM13 6h1v1H13zM14 6h1v1H14zM15 6h1v1H15zM16 6h1v1H16zM17 6h1v1H17zM13 7h1v1H13zM14 7h1v1H14zM15 7h1v1H15zM16 7h1v1H16zM17 7h1v1H17zM7 8h1v1H7zM12 8h1v1H12zM13 8h1v1H13zM17 8h1v1H17zM6 9h1v1H6zM7 9h1v1H7zM6 10h1v1H6zM8 10h1v1H8zM6 11h1v1H6zM7 11h1v1H7zM8 11h1v1H8zM18 11h1v1H18zM23 11h1v1H23zM7 12h1v1H7zM19 12h1v1H19zM20 12h1v1H20zM21 12h1v1H21zM22 12h1v1H22zM23 12h1v1H23z"/><path fill="#7b3f38" d="M6 6h1v1H6zM6 7h1v1H6zM5 8h1v1H5zM6 8h1v1H6zM4 9h1v1H4zM24 9h1v1H24zM3 10h1v1H3zM24 10h1v1H24zM24 11h1v1H24zM25 11h1v1H25zM3 12h1v1H3zM26 12h1v1H26zM3 13h1v1H3zM27 13h1v1H27zM3 14h1v1H3zM4 15h1v1H4zM27 15h1v1H27zM27 16h1v1H27zM27 17h1v1H27z"/><path fill="#2bd5ff" d="M14 8h1v1H14zM15 8h1v1H15zM16 8h1v1H16zM12 9h1v1H12zM13 9h1v1H13zM14 9h1v1H14zM15 9h1v1H15zM16 9h1v1H16zM17 9h1v1H17zM11 10h1v1H11zM12 10h1v1H12zM13 10h1v1H13zM14 10h1v1H14zM15 10h1v1H15zM16 10h1v1H16zM17 10h1v1H17zM9 11h1v1H9zM10 11h1v1H10zM11 11h1v1H11zM13 11h1v1H13zM14 11h1v1H14zM15 11h1v1H15zM16 11h1v1H16zM17 11h1v1H17zM8 12h1v1H8zM9 12h1v1H9zM10 12h1v1H10zM11 12h1v1H11zM12 12h1v1H12zM13 12h1v1H13zM14 12h1v1H14zM15 12h1v1H15zM16 12h1v1H16zM17 12h1v1H17zM18 12h1v1H18zM24 12h1v1H24zM7 13h1v1H7zM10 13h1v1H10zM11 13h1v1H11zM20 13h1v1H20zM21 13h1v1H21zM24 13h1v1H24z"/><path fill="#c58367" d="M5 9h1v1H5zM4 11h1v1H4zM4 12h1v1H4zM25 12h1v1H25zM4 14h1v1H4zM26 14h1v1H26zM26 15h1v1H26zM26 17h1v1H26z"/><path fill="#9effdd" d="M8 9h1v1H8zM9 9h1v1H9zM10 9h1v1H10zM11 9h1v1H11zM7 10h1v1H7zM9 10h1v1H9zM10 10h1v1H10zM12 11h1v1H12zM6 12h1v1H6zM8 13h1v1H8zM9 13h1v1H9zM12 13h1v1H12zM13 13h1v1H13zM14 13h1v1H14zM15 13h1v1H15zM16 13h1v1H16zM17 13h1v1H17zM18 13h1v1H18zM19 13h1v1H19zM22 13h1v1H22zM23 13h1v1H23z"/><path fill="#b47151" d="M4 10h1v1H4zM3 11h1v1H3zM26 13h1v1H26zM27 14h1v1H27zM26 16h1v1H26z"/><path fill="#b87253" d="M4 13h1v1H4z"/><path fill="#1f658e" d="M6 13h1v1H6zM25 13h1v1H25z"/><path fill="#194d80" d="M6 14h1v1H6zM25 14h1v1H25z"/><path fill="#63eeff" d="M7 14h1v1H7zM14 14h1v1H14zM24 14h1v1H24zM9 15h1v1H9zM14 15h1v1H14zM15 15h1v1H15zM16 15h1v1H16zM23 15h1v1H23zM24 15h1v1H24zM9 16h1v1H9zM10 16h1v1H10zM23 16h1v1H23zM11 17h1v1H11zM20 17h1v1H20zM22 17h1v1H22zM21 18h1v1H21zM21 19h1v1H21zM14 20h1v1H14zM21 20h1v1H21zM13 21h1v1H13zM22 21h1v1H22z"/><path fill="#4dbbf2" d="M8 14h1v1H8zM19 14h1v1H19zM17 15h1v1H17zM18 15h1v1H18zM13 16h1v1H13zM19 16h1v1H19zM8 17h1v1H8zM8 18h1v1H8zM8 19h1v1H8zM15 20h1v1H15zM16 20h1v1H16zM17 20h1v1H17zM17 21h1v1H17z"/><path fill="#1c60a3" d="M9 14h1v1H9zM18 14h1v1H18zM23 14h1v1H23zM8 15h1v1H8zM19 15h1v1H19zM12 16h1v1H12zM18 16h1v1H18zM9 17h1v1H9zM24 17h1v1H24zM9 18h1v1H9zM24 18h1v1H24zM24 19h1v1H24zM22 20h1v1H22zM11 21h1v1H11z"/><path fill="#1e79d2" d="M10 14h1v1H10zM11 14h1v1H11zM12 14h1v1H12zM13 14h1v1H13zM15 14h1v1H15zM16 14h1v1H16zM17 14h1v1H17zM20 14h1v1H20zM21 14h1v1H21zM22 14h1v1H22zM6 15h1v1H6zM7 15h1v1H7zM10 15h1v1H10zM11 15h1v1H11zM12 15h1v1H12zM13 15h1v1H13zM20 15h1v1H20zM21 15h1v1H21zM22 15h1v1H22zM25 15h1v1H25zM6 16h1v1H6zM7 16h1v1H7zM8 16h1v1H8zM11 16h1v1H11zM14 16h1v1H14zM15 16h1v1H15zM16 16h1v1H16zM17 16h1v1H17zM20 16h1v1H20zM21 16h1v1H21zM22 16h1v1H22zM24 16h1v1H24zM25 16h1v1H25zM6 17h1v1H6zM7 17h1v1H7zM10 17h1v1H10zM14 17h1v1H14zM15 17h1v1H15zM16 17h1v1H16zM17 17h1v1H17zM21 17h1v1H21zM23 17h1v1H23zM25 17h1v1H25zM6 18h1v1H6zM10 18h1v1H10zM14 18h1v1H14zM15 18h1v1H15zM16 18h1v1H16zM17 18h1v1H17zM22 18h1v1H22zM23 18h1v1H23zM25 18h1v1H25zM10 19h1v1H10zM14 19h1v1H14zM15 19h1v1H15zM16 19h1v1H16zM17 19h1v1H17zM22 19h1v1H22zM23 19h1v1H23zM8 20h1v1H8zM9 20h1v1H9zM10 20h1v1H10zM23 20h1v1H23zM9 21h1v1H9zM14 21h1v1H14zM15 21h1v1H15zM16 21h1v1H16zM20 21h1v1H20zM21 21h1v1H21zM15 22h1v1H15zM16 22h1v1H16z"/><path fill="#da8f44" d="M5 15h1v1H5zM4 16h1v1H4zM4 19h1v1H4zM27 19h1v1H27zM5 22h1v1H5zM26 22h1v1H26zM26 23h1v1H26zM6 26h1v1H6zM25 26h1v1H25z"/><path fill="#fffc9e" d="M5 16h1v1H5zM4 17h1v1H4zM5 17h1v1H5zM4 18h1v1H4zM5 18h1v1H5zM27 18h1v1H27zM5 19h1v1H5zM26 19h1v1H26zM6 22h1v1H6zM25 22h1v1H25zM5 23h1v1H5zM6 23h1v1H6zM7 23h1v1H7zM8 23h1v1H8zM9 23h1v1H9zM19 23h1v1H19zM21 23h1v1H21zM24 23h1v1H24zM25 23h1v1H25zM5 24h1v1H5zM6 24h1v1H6zM7 24h1v1H7zM8 24h1v1H8zM9 24h1v1H9zM10 24h1v1H10zM11 24h1v1H11zM12 24h1v1H12zM13 24h1v1H13zM14 24h1v1H14zM15 24h1v1H15zM16 24h1v1H16zM17 24h1v1H17zM18 24h1v1H18zM19 24h1v1H19zM20 24h1v1H20zM21 24h1v1H21zM22 24h1v1H22zM23 24h1v1H23zM24 24h1v1H24zM25 24h1v1H25zM26 24h1v1H26zM6 25h1v1H6zM7 25h1v1H7zM8 25h1v1H8zM9 25h1v1H9zM10 25h1v1H10zM11 25h1v1H11zM12 25h1v1H12zM13 25h1v1H13zM14 25h1v1H14zM15 25h1v1H15zM16 25h1v1H16zM17 25h1v1H17zM18 25h1v1H18zM19 25h1v1H19zM20 25h1v1H20zM21 25h1v1H21zM22 25h1v1H22zM23 25h1v1H23zM24 25h1v1H24zM25 25h1v1H25zM13 26h1v1H13zM14 26h1v1H14zM15 26h1v1H15zM16 26h1v1H16zM17 26h1v1H17zM18 26h1v1H18zM19 26h1v1H19zM24 26h1v1H24z"/><path fill="#ffffff" d="M12 17h1v1H12zM18 17h1v1H18zM11 18h1v1H11zM13 18h1v1H13zM19 18h1v1H19zM20 18h1v1H20zM11 19h1v1H11zM20 19h1v1H20zM11 20h1v1H11zM20 20h1v1H20z"/><path fill="#0e0e14" d="M13 17h1v1H13zM19 17h1v1H19zM12 18h1v1H12zM18 18h1v1H18zM12 19h1v1H12zM13 19h1v1H13zM18 19h1v1H18zM19 19h1v1H19zM12 20h1v1H12zM13 20h1v1H13zM18 20h1v1H18zM19 20h1v1H19z"/><path fill="#efffff" d="M7 18h1v1H7zM7 19h1v1H7zM9 19h1v1H9zM25 19h1v1H25zM6 20h1v1H6zM7 20h1v1H7zM24 20h1v1H24zM7 21h1v1H7zM8 21h1v1H8zM10 21h1v1H10zM12 21h1v1H12zM18 21h1v1H18zM19 21h1v1H19zM23 21h1v1H23zM24 21h1v1H24zM8 22h1v1H8zM9 22h1v1H9zM10 22h1v1H10zM11 22h1v1H11zM13 22h1v1H13zM14 22h1v1H14zM17 22h1v1H17zM18 22h1v1H18zM19 22h1v1H19zM20 22h1v1H20zM21 22h1v1H21zM22 22h1v1H22zM23 22h1v1H23zM10 23h1v1H10zM13 23h1v1H13zM14 23h1v1H14zM15 23h1v1H15zM16 23h1v1H16zM20 23h1v1H20z"/><path fill="#743e3a" d="M26 18h1v1H26z"/><path fill="#a6ddde" d="M6 19h1v1H6zM25 20h1v1H25zM6 21h1v1H6zM7 22h1v1H7zM12 22h1v1H12zM11 23h1v1H11zM12 23h1v1H12zM17 23h1v1H17zM18 23h1v1H18zM22 23h1v1H22zM23 23h1v1H23z"/><path fill="#ffea90" d="M4 20h1v1H4zM27 20h1v1H27zM5 21h1v1H5zM26 21h1v1H26z"/><path fill="#f2c56d" d="M5 20h1v1H5zM26 20h1v1H26zM25 21h1v1H25zM24 22h1v1H24zM7 26h1v1H7zM8 26h1v1H8zM9 26h1v1H9zM10 26h1v1H10zM11 26h1v1H11zM21 26h1v1H21zM22 26h1v1H22zM8 27h1v1H8zM9 27h1v1H9zM10 27h1v1H10zM11 27h1v1H11zM21 27h1v1H21zM22 27h1v1H22z"/><path fill="#f9df84" d="M12 26h1v1H12zM20 26h1v1H20zM23 26h1v1H23z"/></svg>
