<svg xmlns="http://www.w3.org/2000/svg" viewBox="0 0 32 32" shape-rendering="crispEdges"><path fill="#2d3440" d="M7 1h1v1H7zM8 1h1v1H8zM23 1h1v1H23zM24 1h1v1H24zM9 2h1v1H9zM22 2h1v1H22zM6 3h1v1H6zM25 3h1v1H25zM6 4h1v1H6zM9 4h1v1H9zM22 4h1v1H22zM25 4h1v1H25zM6 5h1v1H6zM25 5h1v1H25zM6 6h1v1H6zM25 6h1v1H25zM6 7h1v1H6zM25 7h1v1H25zM6 8h1v1H6zM25 8h1v1H25zM6 9h1v1H6zM25 9h1v1H25zM6 11h1v1H6zM8 11h1v1H8zM23 11h1v1H23zM25 11h1v1H25zM2 13h1v1H2zM3 13h1v1H3zM28 13h1v1H28zM29 13h1v1H29zM1 14h1v1H1zM30 14h1v1H30zM1 15h1v1H1zM6 15h1v1H6zM25 15h1v1H25zM30 15h1v1H30zM1 16h1v1H1zM30 16h1v1H30zM1 17h1v1H1zM30 17h1v1H30zM1 18h1v1H1zM2 18h1v1H2zM6 18h1v1H6zM25 18h1v1H25zM29 18h1v1H29zM30 18h1v1H30zM2 19h1v1H2zM29 19h1v1H29zM1 24h1v1H1zM30 24h1v1H30zM1 25h1v1H1zM7 25h1v1H7zM24 25h1v1H24zM30 25h1v1H30zM1 26h1v1H1zM7 26h1v1H7zM8 26h1v1H8zM23 26h1v1H23zM24 26h1v1H24zM30 26h1v1H30zM1 27h1v1H1zM7 27h1v1H7zM24 27h1v1H24zM30 27h1v1H30zM1 28h1v1H1zM6 28h1v1H6zM7 28h1v1H7zM24 28h1v1H24zM25 28h1v1H25zM30 28h1v1H30zM13 30h1v1H13zM18 30h1v1H18z"/><path fill="#4c5867" d="M6 2h1v1H6zM25 2h1v1H25zM9 3h1v1H9zM22 3h1v1H22zM9 5h1v1H9zM22 5h1v1H22zM7 7h1v1H7zM8 7h1v1H8zM23 7h1v1H23zM24 7h1v1H24zM7 8h1v1H7zM8 8h1v1H8zM23 8h1v1H23zM24 8h1v1H24zM7 9h1v1H7zM24 9h1v1H24zM7 11h1v1H7zM24 11h1v1H24zM13 12h1v1H13zM15 12h1v1H15zM16 12h1v1H16zM18 12h1v1H18zM5 13h1v1H5zM15 13h1v1H15zM16 13h1v1H16zM26 13h1v1H26zM2 14h1v1H2zM3 14h1v1H3zM5 14h1v1H5zM26 14h1v1H26zM28 14h1v1H28zM29 14h1v1H29zM5 15h1v1H5zM26 15h1v1H26zM6 17h1v1H6zM25 17h1v1H25zM5 19h1v1H5zM26 19h1v1H26zM3 20h1v1H3zM5 20h1v1H5zM26 20h1v1H26zM28 20h1v1H28zM3 21h1v1H3zM4 21h1v1H4zM27 21h1v1H27zM28 21h1v1H28zM6 25h1v1H6zM25 25h1v1H25zM6 26h1v1H6zM25 26h1v1H25zM6 27h1v1H6zM25 27h1v1H25zM2 28h1v1H2zM5 28h1v1H5zM26 28h1v1H26zM29 28h1v1H29zM3 29h1v1H3zM4 29h1v1H4zM13 29h1v1H13zM14 29h1v1H14zM15 29h1v1H15zM17 29h1v1H17zM18 29h1v1H18zM27 29h1v1H27zM28 29h1v1H28zM14 30h1v1H14zM16 30h1v1H16zM17 30h1v1H17z"/><path fill="#919ca2" d="M7 2h1v1H7zM8 2h1v1H8zM23 2h1v1H23zM24 2h1v1H24zM8 3h1v1H8zM23 3h1v1H23zM7 4h1v1H7zM24 4h1v1H24zM8 9h1v1H8zM23 9h1v1H23zM14 12h1v1H14zM17 12h1v1H17zM15 14h1v1H15zM16 14h1v1H16zM14 25h1v1H14zM15 25h1v1H15zM16 25h1v1H16zM17 25h1v1H17zM3 26h1v1H3zM4 26h1v1H4zM13 26h1v1H13zM18 26h1v1H18zM27 26h1v1H27zM28 26h1v1H28zM3 27h1v1H3zM28 27h1v1H28z"/><path fill="#fce85d" d="M10 2h1v1H10zM11 2h1v1H11zM12 2h1v1H12zM13 2h1v1H13zM14 2h1v1H14zM17 2h1v1H17zM18 2h1v1H18zM19 2h1v1H19zM20 2h1v1H20zM21 2h1v1H21zM10 3h1v1H10zM11 3h1v1H11zM20 3h1v1H20zM21 3h1v1H21zM13 4h1v1H13zM14 4h1v1H14zM17 4h1v1H17zM18 4h1v1H18zM10 6h1v1H10zM11 6h1v1H11zM14 6h1v1H14zM17 6h1v1H17zM20 6h1v1H20zM21 6h1v1H21zM10 7h1v1H10zM11 7h1v1H11zM12 7h1v1H12zM19 7h1v1H19zM20 7h1v1H20zM21 7h1v1H21zM10 8h1v1H10zM11 8h1v1H11zM12 8h1v1H12zM13 8h1v1H13zM18 8h1v1H18zM19 8h1v1H19zM20 8h1v1H20zM21 8h1v1H21zM10 9h1v1H10zM11 9h1v1H11zM12 9h1v1H12zM13 9h1v1H13zM14 9h1v1H14zM17 9h1v1H17zM18 9h1v1H18zM19 9h1v1H19zM20 9h1v1H20zM21 9h1v1H21zM9 12h1v1H9zM22 12h1v1H22zM9 13h1v1H9zM22 13h1v1H22zM8 14h1v1H8zM9 14h1v1H9zM22 14h1v1H22zM23 14h1v1H23zM8 15h1v1H8zM23 15h1v1H23zM8 16h1v1H8zM23 16h1v1H23zM8 17h1v1H8zM23 17h1v1H23zM8 18h1v1H8zM10 18h1v1H10zM21 18h1v1H21zM23 18h1v1H23zM3 19h1v1H3zM8 19h1v1H8zM23 19h1v1H23zM28 19h1v1H28zM2 20h1v1H2zM8 20h1v1H8zM23 20h1v1H23zM29 20h1v1H29zM1 21h1v1H1zM8 21h1v1H8zM23 21h1v1H23zM30 21h1v1H30zM2 22h1v1H2zM8 22h1v1H8zM23 22h1v1H23zM29 22h1v1H29zM3 23h1v1H3zM4 23h1v1H4zM27 23h1v1H27zM28 23h1v1H28zM3 24h1v1H3zM4 24h1v1H4zM9 24h1v1H9zM22 24h1v1H22zM27 24h1v1H27zM28 24h1v1H28zM11 25h1v1H11zM12 25h1v1H12zM19 25h1v1H19zM20 25h1v1H20zM12 26h1v1H12zM16 26h1v1H16zM17 26h1v1H17zM19 26h1v1H19zM15 27h1v1H15zM16 27h1v1H16zM1 29h1v1H1zM6 29h1v1H6zM12 29h1v1H12zM19 29h1v1H19zM25 29h1v1H25zM30 29h1v1H30zM12 30h1v1H12zM19 30h1v1H19z"/><path fill="#ecefe8" d="M15 2h1v1H15zM16 2h1v1H16zM7 3h1v1H7zM24 3h1v1H24zM8 4h1v1H8zM15 4h1v1H15zM16 4h1v1H16zM23 4h1v1H23zM9 6h1v1H9zM15 6h1v1H15zM16 6h1v1H16zM22 6h1v1H22zM3 7h1v1H3zM4 7h1v1H4zM27 7h1v1H27zM28 7h1v1H28zM3 8h1v1H3zM4 8h1v1H4zM27 8h1v1H27zM28 8h1v1H28zM5 11h1v1H5zM13 11h1v1H13zM14 11h1v1H14zM15 11h1v1H15zM16 11h1v1H16zM17 11h1v1H17zM18 11h1v1H18zM26 11h1v1H26zM4 12h1v1H4zM27 12h1v1H27zM3 16h1v1H3zM28 16h1v1H28zM3 17h1v1H3zM28 17h1v1H28zM4 18h1v1H4zM27 18h1v1H27zM4 20h1v1H4zM27 20h1v1H27zM3 22h1v1H3zM4 22h1v1H4zM5 22h1v1H5zM26 22h1v1H26zM27 22h1v1H27zM28 22h1v1H28zM7 24h1v1H7zM8 24h1v1H8zM23 24h1v1H23zM24 24h1v1H24zM4 25h1v1H4zM8 25h1v1H8zM9 25h1v1H9zM10 25h1v1H10zM21 25h1v1H21zM22 25h1v1H22zM23 25h1v1H23zM27 25h1v1H27zM11 26h1v1H11zM20 26h1v1H20zM11 28h1v1H11zM20 28h1v1H20z"/><path fill="#d58913" d="M12 3h1v1H12zM13 3h1v1H13zM14 3h1v1H14zM15 3h1v1H15zM16 3h1v1H16zM17 3h1v1H17zM18 3h1v1H18zM19 3h1v1H19zM12 5h1v1H12zM13 5h1v1H13zM14 5h1v1H14zM15 5h1v1H15zM16 5h1v1H16zM17 5h1v1H17zM18 5h1v1H18zM19 5h1v1H19zM3 12h1v1H3zM28 12h1v1H28zM9 23h1v1H9zM22 23h1v1H22zM2 29h1v1H2zM5 29h1v1H5zM10 29h1v1H10zM21 29h1v1H21zM26 29h1v1H26zM29 29h1v1H29zM3 30h1v1H3zM4 30h1v1H4zM27 30h1v1H27zM28 30h1v1H28z"/><path fill="#f7ca22" d="M10 4h1v1H10zM11 4h1v1H11zM20 4h1v1H20zM21 4h1v1H21zM10 5h1v1H10zM11 5h1v1H11zM20 5h1v1H20zM21 5h1v1H21zM5 7h1v1H5zM26 7h1v1H26zM2 8h1v1H2zM5 8h1v1H5zM26 8h1v1H26zM29 8h1v1H29zM2 9h1v1H2zM3 9h1v1H3zM15 9h1v1H15zM16 9h1v1H16zM28 9h1v1H28zM29 9h1v1H29zM2 10h1v1H2zM3 10h1v1H3zM28 10h1v1H28zM29 10h1v1H29zM3 11h1v1H3zM4 11h1v1H4zM11 11h1v1H11zM20 11h1v1H20zM27 11h1v1H27zM28 11h1v1H28zM8 13h1v1H8zM23 13h1v1H23zM10 19h1v1H10zM21 19h1v1H21zM13 21h1v1H13zM18 21h1v1H18zM8 23h1v1H8zM23 23h1v1H23z"/><path fill="#f0b70c" d="M12 4h1v1H12zM19 4h1v1H19zM12 6h1v1H12zM13 6h1v1H13zM18 6h1v1H18zM19 6h1v1H19zM11 10h1v1H11zM12 10h1v1H12zM13 10h1v1H13zM14 10h1v1H14zM15 10h1v1H15zM16 10h1v1H16zM17 10h1v1H17zM18 10h1v1H18zM19 10h1v1H19zM20 10h1v1H20zM12 11h1v1H12zM19 11h1v1H19zM12 12h1v1H12zM19 12h1v1H19zM10 13h1v1H10zM11 13h1v1H11zM12 13h1v1H12zM19 13h1v1H19zM20 13h1v1H20zM21 13h1v1H21zM2 23h1v1H2zM5 23h1v1H5zM26 23h1v1H26zM29 23h1v1H29zM2 24h1v1H2zM5 24h1v1H5zM26 24h1v1H26zM29 24h1v1H29zM8 27h1v1H8zM9 27h1v1H9zM22 27h1v1H22zM23 27h1v1H23zM8 28h1v1H8zM9 28h1v1H9zM22 28h1v1H22zM23 28h1v1H23zM9 29h1v1H9zM11 29h1v1H11zM20 29h1v1H20zM22 29h1v1H22z"/><path fill="#677589" d="M7 5h1v1H7zM24 5h1v1H24zM7 6h1v1H7zM24 6h1v1H24zM9 10h1v1H9zM22 10h1v1H22zM13 13h1v1H13zM14 13h1v1H14zM17 13h1v1H17zM18 13h1v1H18zM14 14h1v1H14zM17 14h1v1H17zM2 15h1v1H2zM29 15h1v1H29zM2 16h1v1H2zM4 16h1v1H4zM5 16h1v1H5zM6 16h1v1H6zM25 16h1v1H25zM26 16h1v1H26zM27 16h1v1H27zM29 16h1v1H29zM2 17h1v1H2zM5 17h1v1H5zM26 17h1v1H26zM29 17h1v1H29zM3 18h1v1H3zM28 18h1v1H28zM2 25h1v1H2zM5 25h1v1H5zM26 25h1v1H26zM29 25h1v1H29zM2 26h1v1H2zM5 26h1v1H5zM9 26h1v1H9zM14 26h1v1H14zM15 26h1v1H15zM22 26h1v1H22zM26 26h1v1H26zM29 26h1v1H29zM2 27h1v1H2zM5 27h1v1H5zM10 27h1v1H10zM13 27h1v1H13zM14 27h1v1H14zM17 27h1v1H17zM18 27h1v1H18zM21 27h1v1H21zM26 27h1v1H26zM29 27h1v1H29zM3 28h1v1H3zM4 28h1v1H4zM10 28h1v1H10zM13 28h1v1H13zM18 28h1v1H18zM21 28h1v1H21zM27 28h1v1H27zM28 28h1v1H28z"/><path fill="#c8dee9" d="M8 5h1v1H8zM23 5h1v1H23zM8 6h1v1H8zM23 6h1v1H23zM6 10h1v1H6zM7 10h1v1H7zM8 10h1v1H8zM23 10h1v1H23zM24 10h1v1H24zM25 10h1v1H25zM4 13h1v1H4zM27 13h1v1H27zM4 14h1v1H4zM27 14h1v1H27zM3 15h1v1H3zM4 15h1v1H4zM27 15h1v1H27zM28 15h1v1H28zM4 17h1v1H4zM27 17h1v1H27zM5 18h1v1H5zM26 18h1v1H26zM4 19h1v1H4zM27 19h1v1H27zM10 26h1v1H10zM21 26h1v1H21zM11 27h1v1H11zM12 27h1v1H12zM19 27h1v1H19zM20 27h1v1H20zM12 28h1v1H12zM19 28h1v1H19z"/><path fill="#c6640c" d="M4 6h1v1H4zM5 6h1v1H5zM26 6h1v1H26zM27 6h1v1H27zM14 8h1v1H14zM15 8h1v1H15zM16 8h1v1H16zM17 8h1v1H17zM10 10h1v1H10zM21 10h1v1H21zM9 11h1v1H9zM10 11h1v1H10zM21 11h1v1H21zM22 11h1v1H22zM10 12h1v1H10zM11 12h1v1H11zM20 12h1v1H20zM21 12h1v1H21zM7 13h1v1H7zM24 13h1v1H24zM7 14h1v1H7zM24 14h1v1H24zM7 15h1v1H7zM24 15h1v1H24zM7 16h1v1H7zM24 16h1v1H24zM7 17h1v1H7zM24 17h1v1H24zM7 18h1v1H7zM24 18h1v1H24zM6 19h1v1H6zM7 19h1v1H7zM24 19h1v1H24zM25 19h1v1H25zM6 20h1v1H6zM7 20h1v1H7zM10 20h1v1H10zM21 20h1v1H21zM24 20h1v1H24zM25 20h1v1H25zM5 21h1v1H5zM7 21h1v1H7zM24 21h1v1H24zM26 21h1v1H26zM1 22h1v1H1zM7 22h1v1H7zM24 22h1v1H24zM30 22h1v1H30zM1 23h1v1H1zM6 23h1v1H6zM7 23h1v1H7zM24 23h1v1H24zM25 23h1v1H25zM30 23h1v1H30zM6 24h1v1H6zM10 24h1v1H10zM11 24h1v1H11zM12 24h1v1H12zM13 24h1v1H13zM14 24h1v1H14zM15 24h1v1H15zM16 24h1v1H16zM17 24h1v1H17zM18 24h1v1H18zM19 24h1v1H19zM20 24h1v1H20zM21 24h1v1H21zM25 24h1v1H25zM2 30h1v1H2zM5 30h1v1H5zM9 30h1v1H9zM10 30h1v1H10zM11 30h1v1H11zM20 30h1v1H20zM21 30h1v1H21zM22 30h1v1H22zM26 30h1v1H26zM29 30h1v1H29z"/><path fill="#eaa10c" d="M2 7h1v1H2zM13 7h1v1H13zM14 7h1v1H14zM15 7h1v1H15zM16 7h1v1H16zM17 7h1v1H17zM18 7h1v1H18zM29 7h1v1H29zM4 9h1v1H4zM5 9h1v1H5zM26 9h1v1H26zM27 9h1v1H27zM4 10h1v1H4zM27 10h1v1H27zM2 11h1v1H2zM29 11h1v1H29zM2 12h1v1H2zM29 12h1v1H29zM6 22h1v1H6zM25 22h1v1H25zM14 28h1v1H14zM15 28h1v1H15zM16 28h1v1H16zM17 28h1v1H17zM8 29h1v1H8zM16 29h1v1H16zM23 29h1v1H23zM15 30h1v1H15z"/><path fill="#bdc0bd" d="M9 7h1v1H9zM22 7h1v1H22zM9 8h1v1H9zM22 8h1v1H22zM9 9h1v1H9zM22 9h1v1H22zM5 10h1v1H5zM26 10h1v1H26zM5 12h1v1H5zM26 12h1v1H26zM2 21h1v1H2zM6 21h1v1H6zM25 21h1v1H25zM29 21h1v1H29zM3 25h1v1H3zM13 25h1v1H13zM18 25h1v1H18zM28 25h1v1H28zM4 27h1v1H4zM27 27h1v1H27z"/><path fill="#232529" d="M6 12h1v1H6zM7 12h1v1H7zM24 12h1v1H24zM25 12h1v1H25zM6 13h1v1H6zM25 13h1v1H25zM6 14h1v1H6zM25 14h1v1H25z"/><path fill="#3e3a35" d="M8 12h1v1H8zM23 12h1v1H23z"/><path fill="#000000" d="M10 14h1v1H10zM11 14h1v1H11zM12 14h1v1H12zM13 14h1v1H13zM18 14h1v1H18zM19 14h1v1H19zM20 14h1v1H20zM21 14h1v1H21zM9 15h1v1H9zM10 15h1v1H10zM11 15h1v1H11zM12 15h1v1H12zM13 15h1v1H13zM14 15h1v1H14zM15 15h1v1H15zM16 15h1v1H16zM17 15h1v1H17zM18 15h1v1H18zM19 15h1v1H19zM20 15h1v1H20zM21 15h1v1H21zM22 15h1v1H22zM9 16h1v1H9zM10 16h1v1H10zM11 16h1v1H11zM12 16h1v1H12zM13 16h1v1H13zM14 16h1v1H14zM15 16h1v1H15zM16 16h1v1H16zM17 16h1v1H17zM18 16h1v1H18zM19 16h1v1H19zM20 16h1v1H20zM21 16h1v1H21zM22 16h1v1H22zM9 17h1v1H9zM10 17h1v1H10zM13 17h1v1H13zM14 17h1v1H14zM15 17h1v1H15zM16 17h1v1H16zM17 17h1v1H17zM18 17h1v1H18zM21 17h1v1H21zM22 17h1v1H22zM9 18h1v1H9zM14 18h1v1H14zM15 18h1v1H15zM16 18h1v1H16zM17 18h1v1H17zM22 18h1v1H22zM9 19h1v1H9zM14 19h1v1H14zM15 19h1v1H15zM16 19h1v1H16zM17 19h1v1H17zM22 19h1v1H22zM9 20h1v1H9zM14 20h1v1H14zM15 20h1v1H15zM16 20h1v1H16zM17 20h1v1H17zM22 20h1v1H22zM9 21h1v1H9zM10 21h1v1H10zM14 21h1v1H14zM15 21h1v1H15zM16 21h1v1H16zM17 21h1v1H17zM21 21h1v1H21zM22 21h1v1H22zM9 22h1v1H9zM10 22h1v1H10zM11 22h1v1H11zM14 22h1v1H14zM15 22h1v1H15zM16 22h1v1H16zM17 22h1v1H17zM20 22h1v1H20zM21 22h1v1H21zM22 22h1v1H22zM10 23h1v1H10zM11 23h1v1H11zM12 23h1v1H12zM13 23h1v1H13zM14 23h1v1H14zM15 23h1v1H15zM16 23h1v1H16zM17 23h1v1H17zM18 23h1v1H18zM19 23h1v1H19zM20 23h1v1H20zM21 23h1v1H21z"/><path fill="#ffffff" d="M11 17h1v1H11zM12 17h1v1H12zM19 17h1v1H19zM20 17h1v1H20zM11 18h1v1H11zM12 18h1v1H12zM13 18h1v1H13zM18 18h1v1H18zM19 18h1v1H19zM20 18h1v1H20zM11 19h1v1H11zM12 19h1v1H12zM19 19h1v1H19zM20 19h1v1H20zM11 20h1v1H11zM12 20h1v1H12zM19 20h1v1H19zM20 20h1v1H20zM11 21h1v1H11zM12 21h1v1H12zM19 21h1v1H19zM20 21h1v1H20zM12 22h1v1H12zM13 22h1v1H13zM18 22h1v1H18zM19 22h1v1H19z"/><path fill="#030202" d="M13 19h1v1H13zM18 19h1v1H18zM13 20h1v1H13zM18 20h1v1H18z"/></svg>
