<svg xmlns="http://www.w3.org/2000/svg" viewBox="0 0 32 32" shape-rendering="crispEdges"><path fill="#c0b5d3" d="M14 1h1v1H14zM15 15h1v1H15zM16 15h1v1H16zM3 25h1v1H3zM28 25h1v1H28zM3 26h1v1H3zM28 26h1v1H28z"/><path fill="#9f93c2" d="M15 1h1v1H15zM16 1h1v1H16zM17 1h1v1H17zM13 13h1v1H13zM18 13h1v1H18zM14 14h1v1H14zM17 14h1v1H17zM6 29h1v1H6zM25 29h1v1H25z"/><path fill="#b0a4c3" d="M12 2h1v1H12zM11 3h1v1H11zM10 4h1v1H10zM13 4h1v1H13zM14 8h1v1H14zM6 14h1v1H6zM25 14h1v1H25zM7 15h1v1H7zM24 15h1v1H24zM6 17h1v1H6zM25 17h1v1H25zM7 18h1v1H7zM24 18h1v1H24zM6 20h1v1H6zM25 20h1v1H25zM15 29h1v1H15zM16 29h1v1H16z"/><path fill="#ffffff" d="M13 2h1v1H13zM14 2h1v1H14zM15 2h1v1H15zM16 2h1v1H16zM17 2h1v1H17zM12 3h1v1H12zM13 3h1v1H13zM14 3h1v1H14zM11 4h1v1H11zM12 4h1v1H12zM6 5h1v1H6zM10 5h1v1H10zM11 5h1v1H11zM12 5h1v1H12zM13 5h1v1H13zM10 6h1v1H10zM11 6h1v1H11zM12 6h1v1H12zM13 6h1v1H13zM21 6h1v1H21zM11 7h1v1H11zM12 7h1v1H12zM13 7h1v1H13zM20 7h1v1H20zM11 8h1v1H11zM13 8h1v1H13zM19 8h1v1H19zM20 8h1v1H20zM12 9h1v1H12zM14 9h1v1H14zM15 9h1v1H15zM16 9h1v1H16zM17 9h1v1H17zM18 9h1v1H18zM19 9h1v1H19zM20 9h1v1H20zM27 9h1v1H27zM13 10h1v1H13zM15 10h1v1H15zM16 10h1v1H16zM18 10h1v1H18zM14 11h1v1H14zM15 11h1v1H15zM2 13h1v1H2zM6 13h1v1H6zM25 13h1v1H25zM7 14h1v1H7zM24 14h1v1H24zM6 15h1v1H6zM25 15h1v1H25zM6 16h1v1H6zM25 16h1v1H25zM7 17h1v1H7zM11 17h1v1H11zM12 17h1v1H12zM19 17h1v1H19zM20 17h1v1H20zM24 17h1v1H24zM6 18h1v1H6zM11 18h1v1H11zM12 18h1v1H12zM13 18h1v1H13zM18 18h1v1H18zM19 18h1v1H19zM20 18h1v1H20zM25 18h1v1H25zM3 19h1v1H3zM6 19h1v1H6zM11 19h1v1H11zM12 19h1v1H12zM19 19h1v1H19zM20 19h1v1H20zM25 19h1v1H25zM7 20h1v1H7zM11 20h1v1H11zM12 20h1v1H12zM19 20h1v1H19zM20 20h1v1H20zM24 20h1v1H24zM7 21h1v1H7zM11 21h1v1H11zM12 21h1v1H12zM19 21h1v1H19zM20 21h1v1H20zM24 21h1v1H24zM29 21h1v1H29zM8 22h1v1H8zM12 22h1v1H12zM13 22h1v1H13zM18 22h1v1H18zM19 22h1v1H19zM23 22h1v1H23zM9 23h1v1H9zM22 23h1v1H22zM5 24h1v1H5zM10 24h1v1H10zM21 24h1v1H21zM26 24h1v1H26zM4 25h1v1H4zM5 25h1v1H5zM11 25h1v1H11zM12 25h1v1H12zM14 25h1v1H14zM17 25h1v1H17zM19 25h1v1H19zM20 25h1v1H20zM26 25h1v1H26zM27 25h1v1H27zM4 26h1v1H4zM13 26h1v1H13zM18 26h1v1H18zM27 26h1v1H27z"/><path fill="#7764aa" d="M18 2h1v1H18zM10 13h1v1H10zM11 13h1v1H11zM20 13h1v1H20zM21 13h1v1H21z"/><path fill="#6945b0" d="M15 3h1v1H15zM16 3h1v1H16zM14 4h1v1H14zM9 9h1v1H9zM22 9h1v1H22zM8 10h1v1H8zM23 10h1v1H23zM9 11h1v1H9zM22 11h1v1H22zM2 12h1v1H2zM1 13h1v1H1zM3 13h1v1H3zM29 14h1v1H29zM28 15h1v1H28zM10 18h1v1H10zM21 18h1v1H21zM7 25h1v1H7zM8 25h1v1H8zM15 25h1v1H15zM16 25h1v1H16zM23 25h1v1H23zM24 25h1v1H24zM7 26h1v1H7zM8 26h1v1H8zM14 26h1v1H14zM17 26h1v1H17zM23 26h1v1H23zM24 26h1v1H24zM14 27h1v1H14zM17 27h1v1H17z"/><path fill="#31276e" d="M24 3h1v1H24zM23 4h1v1H23zM24 4h1v1H24zM25 4h1v1H25zM24 5h1v1H24zM4 10h1v1H4zM8 11h1v1H8zM16 11h1v1H16zM17 11h1v1H17zM23 11h1v1H23zM8 12h1v1H8zM9 12h1v1H9zM22 12h1v1H22zM23 12h1v1H23zM8 13h1v1H8zM14 13h1v1H14zM17 13h1v1H17zM23 13h1v1H23zM1 14h1v1H1zM3 14h1v1H3zM10 14h1v1H10zM11 14h1v1H11zM20 14h1v1H20zM21 14h1v1H21zM2 15h1v1H2zM5 15h1v1H5zM9 15h1v1H9zM10 15h1v1H10zM13 15h1v1H13zM18 15h1v1H18zM21 15h1v1H21zM22 15h1v1H22zM26 15h1v1H26zM30 15h1v1H30zM5 16h1v1H5zM9 16h1v1H9zM14 16h1v1H14zM17 16h1v1H17zM22 16h1v1H22zM26 16h1v1H26zM29 16h1v1H29zM15 17h1v1H15zM16 17h1v1H16zM10 19h1v1H10zM21 19h1v1H21zM29 20h1v1H29zM13 21h1v1H13zM18 21h1v1H18zM28 21h1v1H28zM30 21h1v1H30zM29 22h1v1H29zM6 23h1v1H6zM10 23h1v1H10zM21 23h1v1H21zM25 23h1v1H25zM6 24h1v1H6zM7 24h1v1H7zM12 24h1v1H12zM13 24h1v1H13zM18 24h1v1H18zM19 24h1v1H19zM24 24h1v1H24zM25 24h1v1H25zM6 25h1v1H6zM25 25h1v1H25zM5 26h1v1H5zM6 26h1v1H6zM25 26h1v1H25zM26 26h1v1H26zM6 27h1v1H6zM7 27h1v1H7zM15 27h1v1H15zM24 27h1v1H24zM25 27h1v1H25zM6 28h1v1H6zM15 28h1v1H15zM25 28h1v1H25z"/><path fill="#c1abd5" d="M6 4h1v1H6zM5 5h1v1H5zM7 5h1v1H7zM6 6h1v1H6zM10 8h1v1H10zM3 18h1v1H3zM4 19h1v1H4z"/><path fill="#5937a8" d="M15 4h1v1H15zM15 5h1v1H15zM15 6h1v1H15zM16 7h1v1H16z"/><path fill="#433188" d="M14 5h1v1H14zM14 6h1v1H14zM14 7h1v1H14zM15 7h1v1H15zM17 7h1v1H17zM15 8h1v1H15zM16 8h1v1H16zM17 8h1v1H17zM18 8h1v1H18zM5 21h1v1H5zM26 21h1v1H26zM5 22h1v1H5zM6 22h1v1H6zM25 22h1v1H25zM26 22h1v1H26zM5 23h1v1H5zM7 23h1v1H7zM24 23h1v1H24zM26 23h1v1H26zM9 29h1v1H9zM10 29h1v1H10zM21 29h1v1H21zM22 29h1v1H22zM9 30h1v1H9zM10 30h1v1H10zM21 30h1v1H21zM22 30h1v1H22z"/><path fill="#e6dbe9" d="M10 7h1v1H10zM12 10h1v1H12zM14 12h1v1H14zM15 12h1v1H15zM16 12h1v1H16zM17 12h1v1H17zM4 23h1v1H4zM27 23h1v1H27zM15 24h1v1H15zM16 24h1v1H16zM4 27h1v1H4zM27 27h1v1H27zM5 28h1v1H5zM26 28h1v1H26z"/><path fill="#373069" d="M21 7h1v1H21zM9 8h1v1H9zM21 8h1v1H21zM10 9h1v1H10zM21 9h1v1H21z"/><path fill="#b195c9" d="M12 8h1v1H12zM11 9h1v1H11zM13 9h1v1H13zM14 10h1v1H14zM13 11h1v1H13zM2 19h1v1H2zM3 20h1v1H3z"/><path fill="#19154b" d="M8 9h1v1H8zM23 9h1v1H23zM7 10h1v1H7zM9 10h1v1H9zM10 10h1v1H10zM21 10h1v1H21zM22 10h1v1H22zM24 10h1v1H24zM7 11h1v1H7zM10 11h1v1H10zM11 11h1v1H11zM20 11h1v1H20zM21 11h1v1H21zM24 11h1v1H24zM6 12h1v1H6zM7 12h1v1H7zM24 12h1v1H24zM25 12h1v1H25zM7 13h1v1H7zM24 13h1v1H24zM8 14h1v1H8zM23 14h1v1H23zM8 15h1v1H8zM23 15h1v1H23zM8 16h1v1H8zM23 16h1v1H23zM8 17h1v1H8zM23 17h1v1H23zM8 18h1v1H8zM23 18h1v1H23zM8 19h1v1H8zM23 19h1v1H23zM8 20h1v1H8zM10 20h1v1H10zM21 20h1v1H21zM23 20h1v1H23zM8 21h1v1H8zM23 21h1v1H23zM9 22h1v1H9zM22 22h1v1H22zM11 24h1v1H11zM20 24h1v1H20zM9 26h1v1H9zM22 26h1v1H22zM8 27h1v1H8zM23 27h1v1H23zM7 28h1v1H7zM24 28h1v1H24zM7 29h1v1H7zM24 29h1v1H24zM8 30h1v1H8zM23 30h1v1H23z"/><path fill="#54468d" d="M11 10h1v1H11zM19 10h1v1H19zM20 10h1v1H20zM4 24h1v1H4zM27 24h1v1H27z"/><path fill="#8778b2" d="M17 10h1v1H17zM18 11h1v1H18z"/><path fill="#1e164e" d="M12 11h1v1H12zM19 11h1v1H19zM11 12h1v1H11zM20 12h1v1H20zM12 13h1v1H12zM19 13h1v1H19zM13 14h1v1H13zM18 14h1v1H18zM14 15h1v1H14zM17 15h1v1H17zM15 16h1v1H15zM16 16h1v1H16zM14 24h1v1H14zM17 24h1v1H17zM13 25h1v1H13zM18 25h1v1H18zM12 26h1v1H12zM19 26h1v1H19zM5 27h1v1H5zM12 27h1v1H12zM19 27h1v1H19zM26 27h1v1H26zM12 28h1v1H12zM13 28h1v1H13zM18 28h1v1H18zM19 28h1v1H19zM11 29h1v1H11zM12 29h1v1H12zM13 29h1v1H13zM14 29h1v1H14zM17 29h1v1H17zM18 29h1v1H18zM19 29h1v1H19zM20 29h1v1H20zM15 30h1v1H15zM16 30h1v1H16z"/><path fill="#d4c8de" d="M10 12h1v1H10zM21 12h1v1H21zM15 14h1v1H15zM16 14h1v1H16zM7 16h1v1H7zM24 16h1v1H24zM7 19h1v1H7zM24 19h1v1H24zM14 28h1v1H14zM17 28h1v1H17z"/><path fill="#f8f5f8" d="M12 12h1v1H12zM13 12h1v1H13zM18 12h1v1H18zM19 12h1v1H19zM2 14h1v1H2zM29 15h1v1H29zM6 21h1v1H6zM25 21h1v1H25zM7 22h1v1H7zM24 22h1v1H24zM8 23h1v1H8zM23 23h1v1H23zM9 24h1v1H9zM22 24h1v1H22zM10 25h1v1H10zM21 25h1v1H21zM11 26h1v1H11zM15 26h1v1H15zM16 26h1v1H16zM20 26h1v1H20z"/><path fill="#362b7b" d="M5 13h1v1H5zM26 13h1v1H26z"/><path fill="#a79abd" d="M9 13h1v1H9zM22 13h1v1H22z"/><path fill="#a986cb" d="M15 13h1v1H15zM16 13h1v1H16zM16 27h1v1H16zM16 28h1v1H16z"/><path fill="#2c2166" d="M5 14h1v1H5zM26 14h1v1H26zM9 27h1v1H9zM10 27h1v1H10zM21 27h1v1H21zM22 27h1v1H22zM8 28h1v1H8zM9 28h1v1H9zM10 28h1v1H10zM11 28h1v1H11zM20 28h1v1H20zM21 28h1v1H21zM22 28h1v1H22zM23 28h1v1H23zM8 29h1v1H8zM23 29h1v1H23z"/><path fill="#685893" d="M9 14h1v1H9zM22 14h1v1H22z"/><path fill="#201a53" d="M12 14h1v1H12zM19 14h1v1H19z"/><path fill="#000000" d="M11 15h1v1H11zM12 15h1v1H12zM19 15h1v1H19zM20 15h1v1H20zM10 16h1v1H10zM11 16h1v1H11zM12 16h1v1H12zM13 16h1v1H13zM18 16h1v1H18zM19 16h1v1H19zM20 16h1v1H20zM21 16h1v1H21zM9 17h1v1H9zM10 17h1v1H10zM13 17h1v1H13zM14 17h1v1H14zM17 17h1v1H17zM18 17h1v1H18zM21 17h1v1H21zM22 17h1v1H22zM9 18h1v1H9zM14 18h1v1H14zM15 18h1v1H15zM16 18h1v1H16zM17 18h1v1H17zM22 18h1v1H22zM9 19h1v1H9zM13 19h1v1H13zM14 19h1v1H14zM15 19h1v1H15zM16 19h1v1H16zM17 19h1v1H17zM18 19h1v1H18zM22 19h1v1H22zM9 20h1v1H9zM13 20h1v1H13zM14 20h1v1H14zM15 20h1v1H15zM16 20h1v1H16zM17 20h1v1H17zM18 20h1v1H18zM22 20h1v1H22zM9 21h1v1H9zM10 21h1v1H10zM14 21h1v1H14zM15 21h1v1H15zM16 21h1v1H16zM17 21h1v1H17zM21 21h1v1H21zM22 21h1v1H22zM10 22h1v1H10zM11 22h1v1H11zM14 22h1v1H14zM15 22h1v1H15zM16 22h1v1H16zM17 22h1v1H17zM20 22h1v1H20zM21 22h1v1H21zM11 23h1v1H11zM12 23h1v1H12zM13 23h1v1H13zM14 23h1v1H14zM15 23h1v1H15zM16 23h1v1H16zM17 23h1v1H17zM18 23h1v1H18zM19 23h1v1H19zM20 23h1v1H20z"/><path fill="#3a2f7e" d="M5 17h1v1H5zM26 17h1v1H26z"/><path fill="#241f5e" d="M5 18h1v1H5zM26 18h1v1H26zM5 19h1v1H5zM26 19h1v1H26zM5 20h1v1H5zM26 20h1v1H26z"/><path fill="#ccb9d5" d="M8 24h1v1H8zM23 24h1v1H23zM9 25h1v1H9zM22 25h1v1H22zM10 26h1v1H10zM21 26h1v1H21zM11 27h1v1H11zM13 27h1v1H13zM18 27h1v1H18zM20 27h1v1H20z"/></svg>
