<svg xmlns="http://www.w3.org/2000/svg" viewBox="0 0 32 32" shape-rendering="crispEdges"><path fill="#1b0f45" d="M15 1h1v1H15zM16 1h1v1H16zM14 2h1v1H14zM17 2h1v1H17zM8 23h1v1H8zM23 23h1v1H23zM9 24h1v1H9zM22 24h1v1H22z"/><path fill="#3d2586" d="M15 2h1v1H15zM16 2h1v1H16zM14 3h1v1H14zM13 4h1v1H13zM14 4h1v1H14zM18 4h1v1H18zM13 5h1v1H13zM14 5h1v1H14zM17 5h1v1H17zM18 5h1v1H18zM12 6h1v1H12zM13 6h1v1H13zM18 6h1v1H18zM19 6h1v1H19zM10 7h1v1H10zM11 7h1v1H11zM12 7h1v1H12zM10 10h1v1H10zM18 10h1v1H18zM22 10h1v1H22zM13 11h1v1H13zM17 11h1v1H17zM14 12h1v1H14zM16 12h1v1H16zM5 23h1v1H5zM26 23h1v1H26zM4 24h1v1H4zM5 24h1v1H5zM26 24h1v1H26zM27 24h1v1H27zM4 25h1v1H4zM27 25h1v1H27zM12 27h1v1H12zM14 27h1v1H14zM17 27h1v1H17zM19 27h1v1H19zM12 28h1v1H12zM19 28h1v1H19zM13 29h1v1H13zM18 29h1v1H18z"/><path fill="#5034a5" d="M15 3h1v1H15zM16 3h1v1H16zM17 3h1v1H17zM17 4h1v1H17zM8 27h1v1H8zM23 27h1v1H23z"/><path fill="#d4a245" d="M15 4h1v1H15zM17 7h1v1H17zM19 7h1v1H19zM11 8h1v1H11zM14 9h1v1H14zM11 10h1v1H11zM16 10h1v1H16zM21 10h1v1H21zM7 12h1v1H7zM24 12h1v1H24zM4 17h1v1H4zM6 17h1v1H6zM25 17h1v1H25zM27 17h1v1H27zM6 19h1v1H6zM25 19h1v1H25zM6 20h1v1H6zM25 20h1v1H25zM6 21h1v1H6zM25 21h1v1H25zM11 25h1v1H11zM14 25h1v1H14zM17 25h1v1H17zM20 25h1v1H20zM11 26h1v1H11zM20 26h1v1H20zM10 27h1v1H10zM21 27h1v1H21zM9 28h1v1H9zM22 28h1v1H22zM7 30h1v1H7zM24 30h1v1H24z"/><path fill="#5f4745" d="M16 4h1v1H16zM9 12h1v1H9zM22 12h1v1H22zM4 29h1v1H4zM27 29h1v1H27z"/><path fill="#120d3c" d="M12 5h1v1H12zM19 5h1v1H19zM19 9h1v1H19zM20 9h1v1H20zM13 10h1v1H13zM17 10h1v1H17zM7 11h1v1H7zM8 11h1v1H8zM9 11h1v1H9zM14 11h1v1H14zM16 11h1v1H16zM23 11h1v1H23zM24 11h1v1H24zM12 29h1v1H12zM19 29h1v1H19zM12 30h1v1H12zM13 30h1v1H13zM18 30h1v1H18zM19 30h1v1H19z"/><path fill="#fef7df" d="M15 5h1v1H15zM15 6h1v1H15zM13 8h1v1H13zM14 8h1v1H14zM17 8h1v1H17zM18 8h1v1H18zM15 9h1v1H15zM4 27h1v1H4zM27 27h1v1H27z"/><path fill="#d9b798" d="M16 5h1v1H16zM15 11h1v1H15zM13 26h1v1H13zM18 26h1v1H18z"/><path fill="#0d0b2b" d="M11 6h1v1H11zM20 6h1v1H20zM5 22h1v1H5zM26 22h1v1H26zM3 24h1v1H3zM28 24h1v1H28zM2 26h1v1H2zM29 26h1v1H29zM2 27h1v1H2zM29 27h1v1H29z"/><path fill="#b38744" d="M14 6h1v1H14zM20 8h1v1H20zM17 9h1v1H17zM8 10h1v1H8zM9 10h1v1H9zM12 10h1v1H12zM20 10h1v1H20zM23 10h1v1H23zM10 12h1v1H10zM21 12h1v1H21zM5 16h1v1H5zM26 16h1v1H26zM7 23h1v1H7zM24 23h1v1H24zM8 24h1v1H8zM23 24h1v1H23zM4 26h1v1H4zM27 26h1v1H27zM13 27h1v1H13zM18 27h1v1H18z"/><path fill="#e6cb95" d="M16 6h1v1H16zM14 7h1v1H14zM19 8h1v1H19zM15 12h1v1H15zM15 14h1v1H15zM16 14h1v1H16zM10 26h1v1H10zM21 26h1v1H21zM3 27h1v1H3zM9 27h1v1H9zM22 27h1v1H22zM28 27h1v1H28zM8 29h1v1H8zM15 29h1v1H15zM16 29h1v1H16zM23 29h1v1H23z"/><path fill="#271d6b" d="M17 6h1v1H17zM22 11h1v1H22zM4 23h1v1H4zM27 23h1v1H27zM6 24h1v1H6zM10 24h1v1H10zM11 24h1v1H11zM12 24h1v1H12zM13 24h1v1H13zM18 24h1v1H18zM19 24h1v1H19zM20 24h1v1H20zM21 24h1v1H21zM25 24h1v1H25zM5 25h1v1H5zM6 25h1v1H6zM25 25h1v1H25zM26 25h1v1H26zM5 26h1v1H5zM26 26h1v1H26z"/><path fill="#221a57" d="M13 7h1v1H13zM21 7h1v1H21zM3 25h1v1H3zM28 25h1v1H28zM3 26h1v1H3zM28 26h1v1H28zM3 28h1v1H3zM28 28h1v1H28z"/><path fill="#fefdfd" d="M15 7h1v1H15zM15 8h1v1H15zM16 8h1v1H16z"/><path fill="#f8e5b1" d="M16 7h1v1H16zM12 8h1v1H12zM16 9h1v1H16zM15 10h1v1H15zM10 11h1v1H10zM11 11h1v1H11zM12 11h1v1H12zM19 11h1v1H19zM20 11h1v1H20zM21 11h1v1H21zM8 12h1v1H8zM11 12h1v1H11zM20 12h1v1H20zM23 12h1v1H23zM5 17h1v1H5zM26 17h1v1H26zM15 24h1v1H15zM16 24h1v1H16z"/><path fill="#7a5127" d="M18 7h1v1H18zM18 9h1v1H18zM5 12h1v1H5zM6 12h1v1H6zM25 12h1v1H25zM26 12h1v1H26zM5 13h1v1H5zM26 13h1v1H26zM2 28h1v1H2zM29 28h1v1H29zM14 29h1v1H14zM17 29h1v1H17z"/><path fill="#1e1558" d="M20 7h1v1H20zM21 8h1v1H21zM11 9h1v1H11zM12 9h1v1H12zM21 9h1v1H21zM7 22h1v1H7zM24 22h1v1H24zM6 26h1v1H6zM25 26h1v1H25zM5 28h1v1H5zM11 28h1v1H11zM20 28h1v1H20zM26 28h1v1H26zM6 29h1v1H6zM10 29h1v1H10zM11 29h1v1H11zM20 29h1v1H20zM21 29h1v1H21zM25 29h1v1H25zM9 30h1v1H9zM10 30h1v1H10zM11 30h1v1H11zM14 30h1v1H14zM17 30h1v1H17zM20 30h1v1H20zM21 30h1v1H21zM22 30h1v1H22z"/><path fill="#372634" d="M10 8h1v1H10zM22 8h1v1H22zM6 13h1v1H6zM25 13h1v1H25zM5 15h1v1H5zM26 15h1v1H26zM4 21h1v1H4zM27 21h1v1H27zM6 23h1v1H6zM25 23h1v1H25zM11 27h1v1H11zM20 27h1v1H20zM3 29h1v1H3zM28 29h1v1H28z"/><path fill="#2e2077" d="M9 9h1v1H9zM10 9h1v1H10zM22 9h1v1H22z"/><path fill="#9a6b2c" d="M13 9h1v1H13zM14 10h1v1H14zM14 14h1v1H14zM17 14h1v1H17zM4 16h1v1H4zM27 16h1v1H27zM5 21h1v1H5zM26 21h1v1H26zM6 22h1v1H6zM25 22h1v1H25zM14 24h1v1H14zM17 24h1v1H17zM9 25h1v1H9zM10 25h1v1H10zM21 25h1v1H21zM22 25h1v1H22zM14 28h1v1H14zM17 28h1v1H17zM6 30h1v1H6zM25 30h1v1H25z"/><path fill="#5848a6" d="M19 10h1v1H19zM18 11h1v1H18zM12 12h1v1H12zM13 12h1v1H13zM17 12h1v1H17zM18 12h1v1H18zM19 12h1v1H19zM12 13h1v1H12zM19 13h1v1H19zM8 14h1v1H8zM23 14h1v1H23zM7 16h1v1H7zM24 16h1v1H24zM10 19h1v1H10zM21 19h1v1H21zM13 21h1v1H13zM18 21h1v1H18zM8 22h1v1H8zM23 22h1v1H23z"/><path fill="#45329a" d="M7 13h1v1H7zM24 13h1v1H24zM7 17h1v1H7zM24 17h1v1H24zM7 18h1v1H7zM24 18h1v1H24zM4 19h1v1H4zM27 19h1v1H27zM4 20h1v1H4zM10 20h1v1H10zM21 20h1v1H21zM27 20h1v1H27zM9 26h1v1H9zM22 26h1v1H22zM15 30h1v1H15zM16 30h1v1H16z"/><path fill="#a387e0" d="M8 13h1v1H8zM23 13h1v1H23zM7 14h1v1H7zM24 14h1v1H24zM7 15h1v1H7zM8 15h1v1H8zM23 15h1v1H23zM24 15h1v1H24zM4 18h1v1H4zM5 18h1v1H5zM10 18h1v1H10zM21 18h1v1H21zM26 18h1v1H26zM27 18h1v1H27zM5 19h1v1H5zM26 19h1v1H26zM15 25h1v1H15zM16 25h1v1H16zM15 26h1v1H15zM16 26h1v1H16zM15 28h1v1H15zM16 28h1v1H16z"/><path fill="#9169d8" d="M9 13h1v1H9zM10 13h1v1H10zM21 13h1v1H21zM22 13h1v1H22zM9 14h1v1H9zM10 14h1v1H10zM21 14h1v1H21zM22 14h1v1H22zM8 16h1v1H8zM23 16h1v1H23zM8 17h1v1H8zM23 17h1v1H23zM8 18h1v1H8zM23 18h1v1H23zM8 19h1v1H8zM23 19h1v1H23zM5 20h1v1H5zM8 20h1v1H8zM23 20h1v1H23zM26 20h1v1H26zM8 21h1v1H8zM23 21h1v1H23zM9 23h1v1H9zM22 23h1v1H22z"/><path fill="#83674e" d="M11 13h1v1H11zM20 13h1v1H20zM5 27h1v1H5zM26 27h1v1H26zM4 28h1v1H4zM8 28h1v1H8zM23 28h1v1H23zM27 28h1v1H27zM7 29h1v1H7zM24 29h1v1H24z"/><path fill="#4c3425" d="M13 13h1v1H13zM18 13h1v1H18zM5 14h1v1H5zM26 14h1v1H26zM15 15h1v1H15zM16 15h1v1H16zM9 29h1v1H9zM22 29h1v1H22z"/><path fill="#7051c4" d="M14 13h1v1H14zM17 13h1v1H17zM14 26h1v1H14zM17 26h1v1H17zM6 27h1v1H6zM7 27h1v1H7zM24 27h1v1H24zM25 27h1v1H25zM6 28h1v1H6zM7 28h1v1H7zM24 28h1v1H24zM25 28h1v1H25z"/><path fill="#6737b9" d="M15 13h1v1H15zM16 13h1v1H16zM7 25h1v1H7zM8 25h1v1H8zM23 25h1v1H23zM24 25h1v1H24zM7 26h1v1H7zM8 26h1v1H8zM23 26h1v1H23zM24 26h1v1H24zM15 27h1v1H15zM16 27h1v1H16z"/><path fill="#0d0a38" d="M6 14h1v1H6zM25 14h1v1H25zM6 15h1v1H6zM25 15h1v1H25zM6 16h1v1H6zM25 16h1v1H25zM12 25h1v1H12zM13 25h1v1H13zM18 25h1v1H18zM19 25h1v1H19zM12 26h1v1H12zM19 26h1v1H19z"/><path fill="#000000" d="M11 14h1v1H11zM12 14h1v1H12zM13 14h1v1H13zM18 14h1v1H18zM19 14h1v1H19zM20 14h1v1H20zM9 15h1v1H9zM10 15h1v1H10zM11 15h1v1H11zM12 15h1v1H12zM13 15h1v1H13zM14 15h1v1H14zM17 15h1v1H17zM18 15h1v1H18zM19 15h1v1H19zM20 15h1v1H20zM21 15h1v1H21zM22 15h1v1H22zM9 16h1v1H9zM10 16h1v1H10zM11 16h1v1H11zM12 16h1v1H12zM13 16h1v1H13zM14 16h1v1H14zM15 16h1v1H15zM16 16h1v1H16zM17 16h1v1H17zM18 16h1v1H18zM19 16h1v1H19zM20 16h1v1H20zM21 16h1v1H21zM22 16h1v1H22zM9 17h1v1H9zM10 17h1v1H10zM13 17h1v1H13zM14 17h1v1H14zM15 17h1v1H15zM16 17h1v1H16zM17 17h1v1H17zM18 17h1v1H18zM21 17h1v1H21zM22 17h1v1H22zM9 18h1v1H9zM14 18h1v1H14zM15 18h1v1H15zM16 18h1v1H16zM17 18h1v1H17zM22 18h1v1H22zM9 19h1v1H9zM13 19h1v1H13zM14 19h1v1H14zM15 19h1v1H15zM16 19h1v1H16zM17 19h1v1H17zM18 19h1v1H18zM22 19h1v1H22zM9 20h1v1H9zM13 20h1v1H13zM14 20h1v1H14zM15 20h1v1H15zM16 20h1v1H16zM17 20h1v1H17zM18 20h1v1H18zM22 20h1v1H22zM9 21h1v1H9zM10 21h1v1H10zM14 21h1v1H14zM15 21h1v1H15zM16 21h1v1H16zM17 21h1v1H17zM21 21h1v1H21zM22 21h1v1H22zM10 22h1v1H10zM11 22h1v1H11zM14 22h1v1H14zM15 22h1v1H15zM16 22h1v1H16zM17 22h1v1H17zM20 22h1v1H20zM21 22h1v1H21zM12 23h1v1H12zM13 23h1v1H13zM14 23h1v1H14zM15 23h1v1H15zM16 23h1v1H16zM17 23h1v1H17zM18 23h1v1H18zM19 23h1v1H19z"/><path fill="#ffffff" d="M11 17h1v1H11zM12 17h1v1H12zM19 17h1v1H19zM20 17h1v1H20zM11 18h1v1H11zM12 18h1v1H12zM13 18h1v1H13zM18 18h1v1H18zM19 18h1v1H19zM20 18h1v1H20zM11 19h1v1H11zM12 19h1v1H12zM19 19h1v1H19zM20 19h1v1H20zM11 20h1v1H11zM12 20h1v1H12zM19 20h1v1H19zM20 20h1v1H20zM11 21h1v1H11zM12 21h1v1H12zM19 21h1v1H19zM20 21h1v1H20zM12 22h1v1H12zM13 22h1v1H13zM18 22h1v1H18zM19 22h1v1H19z"/><path fill="#b7a398" d="M6 18h1v1H6zM25 18h1v1H25zM13 28h1v1H13zM18 28h1v1H18z"/><path fill="#372d77" d="M7 19h1v1H7zM24 19h1v1H24zM7 20h1v1H7zM24 20h1v1H24zM7 21h1v1H7zM24 21h1v1H24zM9 22h1v1H9zM22 22h1v1H22zM10 23h1v1H10zM11 23h1v1H11zM20 23h1v1H20zM21 23h1v1H21z"/><path fill="#1a143a" d="M4 22h1v1H4zM27 22h1v1H27z"/><path fill="#2c1a51" d="M7 24h1v1H7zM24 24h1v1H24z"/><path fill="#201a34" d="M10 28h1v1H10zM21 28h1v1H21zM5 29h1v1H5zM26 29h1v1H26zM5 30h1v1H5zM8 30h1v1H8zM23 30h1v1H23zM26 30h1v1H26z"/></svg>
