<svg xmlns="http://www.w3.org/2000/svg" viewBox="0 0 32 32" shape-rendering="crispEdges"><path fill="#1b9dff" d="M7 1h1v1H7zM24 1h1v1H24zM7 2h1v1H7zM24 2h1v1H24zM3 4h1v1H3zM15 4h1v1H15zM28 4h1v1H28zM3 5h1v1H3zM8 5h1v1H8zM15 5h1v1H15zM16 5h1v1H16zM18 5h1v1H18zM23 5h1v1H23zM28 5h1v1H28zM12 9h1v1H12zM19 9h1v1H19zM10 10h1v1H10zM21 10h1v1H21zM4 11h1v1H4zM11 11h1v1H11zM13 11h1v1H13zM18 11h1v1H18zM20 11h1v1H20zM27 11h1v1H27zM1 12h1v1H1zM12 12h1v1H12zM19 12h1v1H19zM30 12h1v1H30zM2 13h1v1H2zM9 13h1v1H9zM10 13h1v1H10zM21 13h1v1H21zM22 13h1v1H22zM29 13h1v1H29zM3 14h1v1H3zM9 14h1v1H9zM22 14h1v1H22zM28 14h1v1H28zM4 15h1v1H4zM15 15h1v1H15zM16 15h1v1H16zM27 15h1v1H27zM7 16h1v1H7zM24 16h1v1H24zM7 17h1v1H7zM8 17h1v1H8zM23 17h1v1H23zM24 17h1v1H24zM8 18h1v1H8zM10 18h1v1H10zM21 18h1v1H21zM23 18h1v1H23zM8 19h1v1H8zM23 19h1v1H23zM15 20h1v1H15zM16 20h1v1H16zM13 21h1v1H13zM18 21h1v1H18zM1 23h1v1H1zM14 23h1v1H14zM17 23h1v1H17zM30 23h1v1H30zM12 24h1v1H12zM19 24h1v1H19zM14 25h1v1H14zM17 25h1v1H17zM8 26h1v1H8zM11 26h1v1H11zM14 26h1v1H14zM17 26h1v1H17zM20 26h1v1H20zM23 26h1v1H23zM7 28h1v1H7zM12 28h1v1H12zM19 28h1v1H19zM24 28h1v1H24z"/><path fill="#ffffff" d="M8 1h1v1H8zM23 1h1v1H23zM8 2h1v1H8zM9 2h1v1H9zM15 2h1v1H15zM17 2h1v1H17zM22 2h1v1H22zM23 2h1v1H23zM8 3h1v1H8zM9 3h1v1H9zM14 3h1v1H14zM18 3h1v1H18zM22 3h1v1H22zM23 3h1v1H23zM4 4h1v1H4zM8 4h1v1H8zM9 4h1v1H9zM10 4h1v1H10zM13 4h1v1H13zM14 4h1v1H14zM21 4h1v1H21zM22 4h1v1H22zM23 4h1v1H23zM27 4h1v1H27zM4 5h1v1H4zM5 5h1v1H5zM9 5h1v1H9zM10 5h1v1H10zM13 5h1v1H13zM14 5h1v1H14zM21 5h1v1H21zM22 5h1v1H22zM26 5h1v1H26zM27 5h1v1H27zM4 6h1v1H4zM5 6h1v1H5zM10 6h1v1H10zM13 6h1v1H13zM14 6h1v1H14zM21 6h1v1H21zM26 6h1v1H26zM27 6h1v1H27zM4 7h1v1H4zM5 7h1v1H5zM10 7h1v1H10zM13 7h1v1H13zM14 7h1v1H14zM15 7h1v1H15zM18 7h1v1H18zM21 7h1v1H21zM26 7h1v1H26zM27 7h1v1H27zM5 8h1v1H5zM6 8h1v1H6zM7 8h1v1H7zM10 8h1v1H10zM14 8h1v1H14zM15 8h1v1H15zM16 8h1v1H16zM17 8h1v1H17zM18 8h1v1H18zM21 8h1v1H21zM24 8h1v1H24zM25 8h1v1H25zM26 8h1v1H26zM1 9h1v1H1zM6 9h1v1H6zM7 9h1v1H7zM24 9h1v1H24zM25 9h1v1H25zM30 9h1v1H30zM1 10h1v1H1zM2 10h1v1H2zM29 10h1v1H29zM30 10h1v1H30zM7 11h1v1H7zM15 11h1v1H15zM16 11h1v1H16zM24 11h1v1H24zM3 12h1v1H3zM4 12h1v1H4zM6 12h1v1H6zM7 12h1v1H7zM8 12h1v1H8zM9 12h1v1H9zM10 12h1v1H10zM21 12h1v1H21zM22 12h1v1H22zM23 12h1v1H23zM24 12h1v1H24zM25 12h1v1H25zM27 12h1v1H27zM28 12h1v1H28zM1 13h1v1H1zM6 13h1v1H6zM7 13h1v1H7zM11 13h1v1H11zM12 13h1v1H12zM15 13h1v1H15zM16 13h1v1H16zM19 13h1v1H19zM20 13h1v1H20zM24 13h1v1H24zM25 13h1v1H25zM30 13h1v1H30zM1 14h1v1H1zM2 14h1v1H2zM5 14h1v1H5zM6 14h1v1H6zM7 14h1v1H7zM11 14h1v1H11zM20 14h1v1H20zM24 14h1v1H24zM25 14h1v1H25zM26 14h1v1H26zM29 14h1v1H29zM30 14h1v1H30zM1 15h1v1H1zM2 15h1v1H2zM3 15h1v1H3zM7 15h1v1H7zM13 15h1v1H13zM18 15h1v1H18zM24 15h1v1H24zM28 15h1v1H28zM29 15h1v1H29zM30 15h1v1H30zM2 16h1v1H2zM3 16h1v1H3zM4 16h1v1H4zM11 16h1v1H11zM12 16h1v1H12zM14 16h1v1H14zM17 16h1v1H17zM19 16h1v1H19zM20 16h1v1H20zM27 16h1v1H27zM28 16h1v1H28zM29 16h1v1H29zM3 17h1v1H3zM4 17h1v1H4zM5 17h1v1H5zM11 17h1v1H11zM13 17h1v1H13zM15 17h1v1H15zM16 17h1v1H16zM18 17h1v1H18zM20 17h1v1H20zM26 17h1v1H26zM27 17h1v1H27zM28 17h1v1H28zM4 18h1v1H4zM5 18h1v1H5zM6 18h1v1H6zM11 18h1v1H11zM15 18h1v1H15zM16 18h1v1H16zM20 18h1v1H20zM25 18h1v1H25zM26 18h1v1H26zM27 18h1v1H27zM1 19h1v1H1zM5 19h1v1H5zM6 19h1v1H6zM7 19h1v1H7zM10 19h1v1H10zM11 19h1v1H11zM20 19h1v1H20zM21 19h1v1H21zM24 19h1v1H24zM25 19h1v1H25zM26 19h1v1H26zM30 19h1v1H30zM1 20h1v1H1zM2 20h1v1H2zM6 20h1v1H6zM7 20h1v1H7zM8 20h1v1H8zM10 20h1v1H10zM11 20h1v1H11zM20 20h1v1H20zM21 20h1v1H21zM23 20h1v1H23zM24 20h1v1H24zM25 20h1v1H25zM29 20h1v1H29zM30 20h1v1H30zM1 21h1v1H1zM3 21h1v1H3zM7 21h1v1H7zM8 21h1v1H8zM9 21h1v1H9zM11 21h1v1H11zM12 21h1v1H12zM19 21h1v1H19zM20 21h1v1H20zM22 21h1v1H22zM23 21h1v1H23zM24 21h1v1H24zM28 21h1v1H28zM30 21h1v1H30zM3 22h1v1H3zM4 22h1v1H4zM5 22h1v1H5zM8 22h1v1H8zM9 22h1v1H9zM12 22h1v1H12zM13 22h1v1H13zM15 22h1v1H15zM16 22h1v1H16zM18 22h1v1H18zM19 22h1v1H19zM22 22h1v1H22zM23 22h1v1H23zM26 22h1v1H26zM27 22h1v1H27zM28 22h1v1H28zM4 23h1v1H4zM5 23h1v1H5zM6 23h1v1H6zM7 23h1v1H7zM10 23h1v1H10zM21 23h1v1H21zM24 23h1v1H24zM25 23h1v1H25zM26 23h1v1H26zM27 23h1v1H27zM1 24h1v1H1zM7 24h1v1H7zM8 24h1v1H8zM9 24h1v1H9zM10 24h1v1H10zM11 24h1v1H11zM20 24h1v1H20zM21 24h1v1H21zM22 24h1v1H22zM23 24h1v1H23zM24 24h1v1H24zM30 24h1v1H30zM1 25h1v1H1zM2 25h1v1H2zM6 25h1v1H6zM10 25h1v1H10zM15 25h1v1H15zM16 25h1v1H16zM21 25h1v1H21zM25 25h1v1H25zM29 25h1v1H29zM30 25h1v1H30zM2 26h1v1H2zM3 26h1v1H3zM5 26h1v1H5zM15 26h1v1H15zM16 26h1v1H16zM26 26h1v1H26zM28 26h1v1H28zM29 26h1v1H29zM7 27h1v1H7zM15 27h1v1H15zM16 27h1v1H16zM24 27h1v1H24zM6 28h1v1H6zM11 28h1v1H11zM20 28h1v1H20zM25 28h1v1H25zM10 30h1v1H10zM21 30h1v1H21z"/><path fill="#e8c66b" d="M15 1h1v1H15zM16 1h1v1H16zM14 2h1v1H14zM13 3h1v1H13zM12 5h1v1H12zM19 6h1v1H19zM15 9h1v1H15zM16 9h1v1H16zM15 12h1v1H15zM16 12h1v1H16zM14 13h1v1H14zM17 13h1v1H17zM14 15h1v1H14zM17 15h1v1H17zM15 16h1v1H15zM16 16h1v1H16zM7 25h1v1H7zM8 25h1v1H8zM23 25h1v1H23zM24 25h1v1H24zM6 26h1v1H6zM12 26h1v1H12zM19 26h1v1H19zM25 26h1v1H25zM12 27h1v1H12zM19 27h1v1H19z"/><path fill="#0b6edb" d="M16 2h1v1H16zM7 3h1v1H7zM12 3h1v1H12zM15 3h1v1H15zM16 3h1v1H16zM19 3h1v1H19zM24 3h1v1H24zM7 4h1v1H7zM24 4h1v1H24zM7 5h1v1H7zM24 5h1v1H24zM3 6h1v1H3zM8 6h1v1H8zM16 6h1v1H16zM23 6h1v1H23zM28 6h1v1H28zM3 7h1v1H3zM28 7h1v1H28zM1 8h1v1H1zM3 8h1v1H3zM28 8h1v1H28zM30 8h1v1H30zM2 9h1v1H2zM9 9h1v1H9zM22 9h1v1H22zM29 9h1v1H29zM9 10h1v1H9zM15 10h1v1H15zM16 10h1v1H16zM22 10h1v1H22zM5 11h1v1H5zM26 11h1v1H26zM11 12h1v1H11zM13 12h1v1H13zM18 12h1v1H18zM20 12h1v1H20zM8 13h1v1H8zM23 13h1v1H23zM13 14h1v1H13zM18 14h1v1H18zM6 15h1v1H6zM25 15h1v1H25zM5 16h1v1H5zM6 16h1v1H6zM25 16h1v1H25zM26 16h1v1H26zM1 17h1v1H1zM6 17h1v1H6zM10 17h1v1H10zM21 17h1v1H21zM25 17h1v1H25zM30 17h1v1H30zM2 18h1v1H2zM7 18h1v1H7zM24 18h1v1H24zM29 18h1v1H29zM3 19h1v1H3zM28 19h1v1H28zM4 20h1v1H4zM12 20h1v1H12zM19 20h1v1H19zM27 20h1v1H27zM5 21h1v1H5zM26 21h1v1H26zM9 23h1v1H9zM22 23h1v1H22zM3 24h1v1H3zM13 24h1v1H13zM18 24h1v1H18zM28 24h1v1H28zM9 25h1v1H9zM22 25h1v1H22zM13 26h1v1H13zM18 26h1v1H18zM6 27h1v1H6zM8 27h1v1H8zM11 27h1v1H11zM14 27h1v1H14zM17 27h1v1H17zM20 27h1v1H20zM23 27h1v1H23zM25 27h1v1H25zM8 28h1v1H8zM14 28h1v1H14zM17 28h1v1H17zM23 28h1v1H23zM13 30h1v1H13zM18 30h1v1H18z"/><path fill="#55c3ff" d="M10 3h1v1H10zM21 3h1v1H21zM4 10h1v1H4zM27 10h1v1H27zM5 12h1v1H5zM26 12h1v1H26zM6 21h1v1H6zM25 21h1v1H25zM2 24h1v1H2zM15 24h1v1H15zM16 24h1v1H16zM29 24h1v1H29zM3 25h1v1H3zM4 25h1v1H4zM27 25h1v1H27zM28 25h1v1H28z"/><path fill="#bdebff" d="M17 3h1v1H17zM16 4h1v1H16zM17 4h1v1H17zM18 4h1v1H18zM17 5h1v1H17zM6 7h1v1H6zM25 7h1v1H25zM11 9h1v1H11zM20 9h1v1H20zM6 10h1v1H6zM7 10h1v1H7zM12 10h1v1H12zM19 10h1v1H19zM24 10h1v1H24zM25 10h1v1H25zM6 11h1v1H6zM25 11h1v1H25zM5 15h1v1H5zM26 15h1v1H26zM2 17h1v1H2zM29 17h1v1H29zM3 18h1v1H3zM28 18h1v1H28zM6 22h1v1H6zM25 22h1v1H25zM5 24h1v1H5zM6 24h1v1H6zM25 24h1v1H25zM26 24h1v1H26zM10 26h1v1H10zM21 26h1v1H21zM9 28h1v1H9zM15 28h1v1H15zM16 28h1v1H16zM22 28h1v1H22z"/><path fill="#03296b" d="M11 4h1v1H11zM19 4h1v1H19zM20 4h1v1H20zM15 6h1v1H15zM12 7h1v1H12zM19 7h1v1H19zM12 8h1v1H12zM19 8h1v1H19zM13 9h1v1H13zM18 9h1v1H18zM13 10h1v1H13zM14 10h1v1H14zM17 10h1v1H17zM18 10h1v1H18zM13 20h1v1H13zM18 20h1v1H18zM7 22h1v1H7zM24 22h1v1H24zM8 23h1v1H8zM23 23h1v1H23zM9 27h1v1H9zM13 27h1v1H13zM18 27h1v1H18zM22 27h1v1H22zM4 28h1v1H4zM27 28h1v1H27zM5 29h1v1H5zM10 29h1v1H10zM13 29h1v1H13zM15 29h1v1H15zM16 29h1v1H16zM18 29h1v1H18zM21 29h1v1H21zM26 29h1v1H26zM9 30h1v1H9zM11 30h1v1H11zM20 30h1v1H20zM22 30h1v1H22z"/><path fill="#0645a8" d="M12 4h1v1H12zM11 5h1v1H11zM20 5h1v1H20zM7 6h1v1H7zM11 6h1v1H11zM17 6h1v1H17zM18 6h1v1H18zM20 6h1v1H20zM24 6h1v1H24zM7 7h1v1H7zM8 7h1v1H8zM16 7h1v1H16zM17 7h1v1H17zM23 7h1v1H23zM24 7h1v1H24zM8 8h1v1H8zM23 8h1v1H23zM3 9h1v1H3zM28 9h1v1H28zM3 10h1v1H3zM28 10h1v1H28zM10 11h1v1H10zM14 11h1v1H14zM17 11h1v1H17zM21 11h1v1H21zM14 12h1v1H14zM17 12h1v1H17zM13 13h1v1H13zM18 13h1v1H18zM10 16h1v1H10zM21 16h1v1H21zM12 19h1v1H12zM15 19h1v1H15zM16 19h1v1H16zM19 19h1v1H19zM2 23h1v1H2zM29 23h1v1H29zM12 25h1v1H12zM19 25h1v1H19zM4 26h1v1H4zM27 26h1v1H27zM4 27h1v1H4zM27 27h1v1H27zM11 29h1v1H11zM20 29h1v1H20zM12 30h1v1H12zM14 30h1v1H14zM17 30h1v1H17zM19 30h1v1H19z"/><path fill="#ffe7a8" d="M19 5h1v1H19zM13 8h1v1H13zM15 23h1v1H15zM16 23h1v1H16zM14 24h1v1H14zM17 24h1v1H17zM13 25h1v1H13zM18 25h1v1H18zM9 26h1v1H9zM22 26h1v1H22zM5 27h1v1H5zM10 27h1v1H10zM21 27h1v1H21zM26 27h1v1H26zM5 28h1v1H5zM26 28h1v1H26z"/><path fill="#d7f4ff" d="M6 6h1v1H6zM9 6h1v1H9zM22 6h1v1H22zM25 6h1v1H25zM11 7h1v1H11zM20 7h1v1H20zM4 8h1v1H4zM11 8h1v1H11zM20 8h1v1H20zM27 8h1v1H27zM8 9h1v1H8zM23 9h1v1H23zM8 10h1v1H8zM23 10h1v1H23zM2 11h1v1H2zM3 11h1v1H3zM8 11h1v1H8zM9 11h1v1H9zM22 11h1v1H22zM23 11h1v1H23zM28 11h1v1H28zM29 11h1v1H29zM4 13h1v1H4zM5 13h1v1H5zM26 13h1v1H26zM27 13h1v1H27zM4 14h1v1H4zM27 14h1v1H27zM1 18h1v1H1zM30 18h1v1H30zM2 19h1v1H2zM29 19h1v1H29zM3 20h1v1H3zM28 20h1v1H28zM2 21h1v1H2zM4 21h1v1H4zM27 21h1v1H27zM29 21h1v1H29zM2 22h1v1H2zM29 22h1v1H29zM3 23h1v1H3zM28 23h1v1H28zM7 26h1v1H7zM24 26h1v1H24z"/><path fill="#c99c42" d="M12 6h1v1H12zM14 9h1v1H14zM17 9h1v1H17zM14 14h1v1H14zM17 14h1v1H17zM10 28h1v1H10zM13 28h1v1H13zM18 28h1v1H18zM21 28h1v1H21zM6 29h1v1H6zM7 29h1v1H7zM8 29h1v1H8zM9 29h1v1H9zM14 29h1v1H14zM17 29h1v1H17zM22 29h1v1H22zM23 29h1v1H23zM24 29h1v1H24zM25 29h1v1H25zM15 30h1v1H15zM16 30h1v1H16z"/><path fill="#8fd8ff" d="M9 7h1v1H9zM22 7h1v1H22zM9 8h1v1H9zM22 8h1v1H22zM4 9h1v1H4zM5 9h1v1H5zM10 9h1v1H10zM21 9h1v1H21zM26 9h1v1H26zM27 9h1v1H27zM5 10h1v1H5zM11 10h1v1H11zM20 10h1v1H20zM26 10h1v1H26zM1 11h1v1H1zM12 11h1v1H12zM19 11h1v1H19zM30 11h1v1H30zM2 12h1v1H2zM29 12h1v1H29zM3 13h1v1H3zM28 13h1v1H28zM15 14h1v1H15zM16 14h1v1H16zM4 19h1v1H4zM27 19h1v1H27zM5 20h1v1H5zM26 20h1v1H26zM15 21h1v1H15zM16 21h1v1H16zM3 27h1v1H3zM28 27h1v1H28z"/><path fill="#000000" d="M8 14h1v1H8zM10 14h1v1H10zM12 14h1v1H12zM19 14h1v1H19zM21 14h1v1H21zM23 14h1v1H23zM8 15h1v1H8zM9 15h1v1H9zM10 15h1v1H10zM11 15h1v1H11zM12 15h1v1H12zM19 15h1v1H19zM20 15h1v1H20zM21 15h1v1H21zM22 15h1v1H22zM23 15h1v1H23zM8 16h1v1H8zM9 16h1v1H9zM13 16h1v1H13zM18 16h1v1H18zM22 16h1v1H22zM23 16h1v1H23zM9 17h1v1H9zM12 17h1v1H12zM14 17h1v1H14zM17 17h1v1H17zM19 17h1v1H19zM22 17h1v1H22zM9 18h1v1H9zM12 18h1v1H12zM13 18h1v1H13zM14 18h1v1H14zM17 18h1v1H17zM18 18h1v1H18zM19 18h1v1H19zM22 18h1v1H22zM9 19h1v1H9zM13 19h1v1H13zM14 19h1v1H14zM17 19h1v1H17zM18 19h1v1H18zM22 19h1v1H22zM9 20h1v1H9zM14 20h1v1H14zM17 20h1v1H17zM22 20h1v1H22zM10 21h1v1H10zM14 21h1v1H14zM17 21h1v1H17zM21 21h1v1H21zM10 22h1v1H10zM11 22h1v1H11zM14 22h1v1H14zM17 22h1v1H17zM20 22h1v1H20zM21 22h1v1H21zM11 23h1v1H11zM12 23h1v1H12zM13 23h1v1H13zM18 23h1v1H18zM19 23h1v1H19zM20 23h1v1H20z"/><path fill="#d1e9fd" d="M4 24h1v1H4zM27 24h1v1H27zM5 25h1v1H5zM11 25h1v1H11zM20 25h1v1H20zM26 25h1v1H26zM12 29h1v1H12zM19 29h1v1H19z"/></svg>
