<svg xmlns="http://www.w3.org/2000/svg" viewBox="0 0 32 32" shape-rendering="crispEdges"><path fill="#9eefe0" d="M15 2h1v1H15zM15 3h1v1H15zM15 4h1v1H15zM15 11h1v1H15zM16 11h1v1H16zM8 14h1v1H8zM23 14h1v1H23zM8 15h1v1H8zM23 15h1v1H23zM3 22h1v1H3zM4 22h1v1H4zM27 22h1v1H27zM28 22h1v1H28zM3 23h1v1H3zM5 23h1v1H5zM26 23h1v1H26zM28 23h1v1H28zM8 27h1v1H8zM23 27h1v1H23z"/><path fill="#e6f6e4" d="M16 2h1v1H16zM16 3h1v1H16zM12 4h1v1H12zM16 4h1v1H16zM19 4h1v1H19zM6 5h1v1H6zM7 5h1v1H7zM24 5h1v1H24zM25 5h1v1H25zM6 6h1v1H6zM7 6h1v1H7zM24 6h1v1H24zM25 6h1v1H25zM6 10h1v1H6zM15 10h1v1H15zM16 10h1v1H16zM25 10h1v1H25zM7 11h1v1H7zM24 11h1v1H24zM8 13h1v1H8zM23 13h1v1H23zM6 24h1v1H6zM8 24h1v1H8zM15 24h1v1H15zM16 24h1v1H16zM23 24h1v1H23zM25 24h1v1H25zM3 26h1v1H3zM5 26h1v1H5zM6 26h1v1H6zM15 26h1v1H15zM16 26h1v1H16zM25 26h1v1H25zM26 26h1v1H26zM28 26h1v1H28zM5 27h1v1H5zM6 27h1v1H6zM25 27h1v1H25zM26 27h1v1H26z"/><path fill="#62e1c4" d="M12 3h1v1H12zM19 3h1v1H19zM11 4h1v1H11zM14 4h1v1H14zM17 4h1v1H17zM20 4h1v1H20zM11 5h1v1H11zM12 5h1v1H12zM14 5h1v1H14zM17 5h1v1H17zM19 5h1v1H19zM20 5h1v1H20zM11 6h1v1H11zM20 6h1v1H20zM10 8h1v1H10zM11 8h1v1H11zM20 8h1v1H20zM21 8h1v1H21zM10 9h1v1H10zM11 9h1v1H11zM12 9h1v1H12zM19 9h1v1H19zM20 9h1v1H20zM21 9h1v1H21zM4 11h1v1H4zM5 11h1v1H5zM8 11h1v1H8zM23 11h1v1H23zM26 11h1v1H26zM27 11h1v1H27zM5 12h1v1H5zM6 12h1v1H6zM7 12h1v1H7zM24 12h1v1H24zM25 12h1v1H25zM26 12h1v1H26zM6 13h1v1H6zM25 13h1v1H25zM7 15h1v1H7zM9 15h1v1H9zM10 15h1v1H10zM21 15h1v1H21zM22 15h1v1H22zM24 15h1v1H24zM10 18h1v1H10zM21 18h1v1H21zM9 23h1v1H9zM22 23h1v1H22zM8 25h1v1H8zM23 25h1v1H23zM6 28h1v1H6zM25 28h1v1H25z"/><path fill="#097460" d="M14 3h1v1H14zM17 3h1v1H17zM13 4h1v1H13zM18 4h1v1H18zM10 5h1v1H10zM13 5h1v1H13zM18 5h1v1H18zM21 5h1v1H21zM9 6h1v1H9zM10 6h1v1H10zM12 6h1v1H12zM19 6h1v1H19zM21 6h1v1H21zM22 6h1v1H22zM6 9h1v1H6zM15 9h1v1H15zM16 9h1v1H16zM25 9h1v1H25zM14 10h1v1H14zM17 10h1v1H17zM3 11h1v1H3zM28 11h1v1H28zM3 12h1v1H3zM4 12h1v1H4zM11 12h1v1H11zM12 12h1v1H12zM19 12h1v1H19zM20 12h1v1H20zM27 12h1v1H27zM28 12h1v1H28zM5 13h1v1H5zM7 13h1v1H7zM10 13h1v1H10zM12 13h1v1H12zM15 13h1v1H15zM16 13h1v1H16zM19 13h1v1H19zM21 13h1v1H21zM24 13h1v1H24zM26 13h1v1H26zM5 14h1v1H5zM6 14h1v1H6zM7 14h1v1H7zM9 14h1v1H9zM10 14h1v1H10zM11 14h1v1H11zM12 14h1v1H12zM19 14h1v1H19zM20 14h1v1H20zM21 14h1v1H21zM22 14h1v1H22zM24 14h1v1H24zM25 14h1v1H25zM26 14h1v1H26zM6 15h1v1H6zM15 15h1v1H15zM16 15h1v1H16zM25 15h1v1H25zM7 16h1v1H7zM24 16h1v1H24zM7 22h1v1H7zM24 22h1v1H24zM8 23h1v1H8zM23 23h1v1H23zM9 24h1v1H9zM10 24h1v1H10zM11 24h1v1H11zM20 24h1v1H20zM21 24h1v1H21zM22 24h1v1H22zM5 25h1v1H5zM6 25h1v1H6zM15 25h1v1H15zM16 25h1v1H16zM25 25h1v1H25zM26 25h1v1H26zM14 26h1v1H14zM17 26h1v1H17zM6 29h1v1H6zM8 29h1v1H8zM23 29h1v1H23zM25 29h1v1H25z"/><path fill="#28d9b8" d="M15 5h1v1H15zM16 5h1v1H16zM14 6h1v1H14zM15 6h1v1H15zM16 6h1v1H16zM17 6h1v1H17zM15 7h1v1H15zM16 7h1v1H16zM15 12h1v1H15zM16 12h1v1H16zM8 17h1v1H8zM23 17h1v1H23zM10 19h1v1H10zM21 19h1v1H21zM8 21h1v1H8zM13 21h1v1H13zM18 21h1v1H18zM23 21h1v1H23zM8 22h1v1H8zM23 22h1v1H23z"/><path fill="#65b236" d="M8 6h1v1H8zM13 6h1v1H13zM18 6h1v1H18zM23 6h1v1H23zM6 7h1v1H6zM7 7h1v1H7zM8 7h1v1H8zM9 7h1v1H9zM13 7h1v1H13zM18 7h1v1H18zM22 7h1v1H22zM23 7h1v1H23zM24 7h1v1H24zM25 7h1v1H25zM7 9h1v1H7zM8 9h1v1H8zM14 9h1v1H14zM17 9h1v1H17zM23 9h1v1H23zM24 9h1v1H24zM9 10h1v1H9zM13 10h1v1H13zM18 10h1v1H18zM22 10h1v1H22zM10 11h1v1H10zM13 11h1v1H13zM18 11h1v1H18zM21 11h1v1H21zM13 12h1v1H13zM18 12h1v1H18zM1 13h1v1H1zM9 13h1v1H9zM14 13h1v1H14zM17 13h1v1H17zM22 13h1v1H22zM30 13h1v1H30zM1 14h1v1H1zM30 14h1v1H30zM1 17h1v1H1zM5 17h1v1H5zM26 17h1v1H26zM30 17h1v1H30zM6 18h1v1H6zM8 18h1v1H8zM23 18h1v1H23zM25 18h1v1H25zM5 19h1v1H5zM8 19h1v1H8zM23 19h1v1H23zM26 19h1v1H26zM5 20h1v1H5zM6 20h1v1H6zM25 20h1v1H25zM26 20h1v1H26zM7 23h1v1H7zM15 23h1v1H15zM16 23h1v1H16zM24 23h1v1H24zM14 24h1v1H14zM17 24h1v1H17zM10 25h1v1H10zM12 25h1v1H12zM14 25h1v1H14zM17 25h1v1H17zM19 25h1v1H19zM21 25h1v1H21zM10 26h1v1H10zM11 26h1v1H11zM20 26h1v1H20zM21 26h1v1H21zM11 27h1v1H11zM15 27h1v1H15zM16 27h1v1H16zM20 27h1v1H20z"/><path fill="#38b393" d="M10 7h1v1H10zM21 7h1v1H21zM9 8h1v1H9zM22 8h1v1H22zM9 9h1v1H9zM22 9h1v1H22zM9 11h1v1H9zM22 11h1v1H22zM9 12h1v1H9zM10 12h1v1H10zM21 12h1v1H21zM22 12h1v1H22zM11 13h1v1H11zM20 13h1v1H20z"/><path fill="#086755" d="M11 7h1v1H11zM12 7h1v1H12zM19 7h1v1H19zM20 7h1v1H20zM12 8h1v1H12zM19 8h1v1H19zM8 10h1v1H8zM23 10h1v1H23zM4 13h1v1H4zM27 13h1v1H27zM4 14h1v1H4zM27 14h1v1H27zM4 15h1v1H4zM27 15h1v1H27zM4 16h1v1H4zM5 16h1v1H5zM26 16h1v1H26zM27 16h1v1H27zM4 17h1v1H4zM7 17h1v1H7zM24 17h1v1H24zM27 17h1v1H27zM4 18h1v1H4zM7 18h1v1H7zM24 18h1v1H24zM27 18h1v1H27zM10 20h1v1H10zM21 20h1v1H21zM12 24h1v1H12zM13 24h1v1H13zM18 24h1v1H18zM19 24h1v1H19zM9 25h1v1H9zM22 25h1v1H22zM4 26h1v1H4zM27 26h1v1H27zM14 27h1v1H14zM17 27h1v1H17zM14 28h1v1H14zM17 28h1v1H17zM15 29h1v1H15zM16 29h1v1H16z"/><path fill="#055147" d="M14 7h1v1H14zM17 7h1v1H17zM14 11h1v1H14zM17 11h1v1H17zM13 14h1v1H13zM18 14h1v1H18zM4 19h1v1H4zM27 19h1v1H27zM9 26h1v1H9zM22 26h1v1H22zM5 28h1v1H5zM9 28h1v1H9zM22 28h1v1H22zM26 28h1v1H26zM2 29h1v1H2zM4 29h1v1H4zM5 29h1v1H5zM26 29h1v1H26zM27 29h1v1H27zM29 29h1v1H29zM4 30h1v1H4zM5 30h1v1H5zM6 30h1v1H6zM7 30h1v1H7zM8 30h1v1H8zM23 30h1v1H23zM24 30h1v1H24zM25 30h1v1H25zM26 30h1v1H26zM27 30h1v1H27z"/><path fill="#23722e" d="M6 8h1v1H6zM7 8h1v1H7zM13 8h1v1H13zM18 8h1v1H18zM24 8h1v1H24zM25 8h1v1H25zM13 9h1v1H13zM18 9h1v1H18zM10 10h1v1H10zM21 10h1v1H21zM11 11h1v1H11zM20 11h1v1H20zM2 16h1v1H2zM29 16h1v1H29zM2 17h1v1H2zM29 17h1v1H29zM1 18h1v1H1zM5 18h1v1H5zM26 18h1v1H26zM30 18h1v1H30zM2 19h1v1H2zM6 19h1v1H6zM7 19h1v1H7zM24 19h1v1H24zM25 19h1v1H25zM29 19h1v1H29zM1 20h1v1H1zM3 20h1v1H3zM7 20h1v1H7zM8 20h1v1H8zM23 20h1v1H23zM24 20h1v1H24zM28 20h1v1H28zM30 20h1v1H30zM3 21h1v1H3zM4 21h1v1H4zM7 21h1v1H7zM24 21h1v1H24zM27 21h1v1H27zM28 21h1v1H28zM2 22h1v1H2zM5 22h1v1H5zM6 22h1v1H6zM25 22h1v1H25zM26 22h1v1H26zM29 22h1v1H29zM6 23h1v1H6zM25 23h1v1H25zM2 24h1v1H2zM3 24h1v1H3zM7 24h1v1H7zM24 24h1v1H24zM28 24h1v1H28zM29 24h1v1H29zM3 25h1v1H3zM28 25h1v1H28zM2 27h1v1H2zM4 27h1v1H4zM12 27h1v1H12zM13 27h1v1H13zM18 27h1v1H18zM19 27h1v1H19zM27 27h1v1H27zM29 27h1v1H29zM2 28h1v1H2zM3 28h1v1H3zM4 28h1v1H4zM10 28h1v1H10zM11 28h1v1H11zM12 28h1v1H12zM19 28h1v1H19zM20 28h1v1H20zM21 28h1v1H21zM27 28h1v1H27zM28 28h1v1H28zM29 28h1v1H29zM10 29h1v1H10zM21 29h1v1H21zM3 30h1v1H3zM28 30h1v1H28z"/><path fill="#09493f" d="M8 8h1v1H8zM14 8h1v1H14zM17 8h1v1H17zM23 8h1v1H23zM11 10h1v1H11zM12 10h1v1H12zM19 10h1v1H19zM20 10h1v1H20zM12 11h1v1H12zM19 11h1v1H19zM14 12h1v1H14zM17 12h1v1H17zM4 20h1v1H4zM27 20h1v1H27zM7 25h1v1H7zM11 25h1v1H11zM20 25h1v1H20zM24 25h1v1H24zM7 26h1v1H7zM8 26h1v1H8zM13 26h1v1H13zM18 26h1v1H18zM23 26h1v1H23zM24 26h1v1H24zM9 27h1v1H9zM10 27h1v1H10zM21 27h1v1H21zM22 27h1v1H22zM13 28h1v1H13zM18 28h1v1H18zM9 29h1v1H9zM11 29h1v1H11zM12 29h1v1H12zM13 29h1v1H13zM18 29h1v1H18zM19 29h1v1H19zM20 29h1v1H20zM22 29h1v1H22zM9 30h1v1H9zM10 30h1v1H10zM11 30h1v1H11zM12 30h1v1H12zM13 30h1v1H13zM14 30h1v1H14zM15 30h1v1H15zM16 30h1v1H16zM17 30h1v1H17zM18 30h1v1H18zM19 30h1v1H19zM20 30h1v1H20zM21 30h1v1H21zM22 30h1v1H22z"/><path fill="#27c4a3" d="M15 8h1v1H15zM16 8h1v1H16zM3 10h1v1H3zM7 10h1v1H7zM24 10h1v1H24zM28 10h1v1H28zM8 16h1v1H8zM23 16h1v1H23zM4 23h1v1H4zM27 23h1v1H27zM4 24h1v1H4zM5 24h1v1H5zM26 24h1v1H26zM27 24h1v1H27zM4 25h1v1H4zM27 25h1v1H27zM7 27h1v1H7zM24 27h1v1H24zM7 28h1v1H7zM8 28h1v1H8zM23 28h1v1H23zM24 28h1v1H24zM7 29h1v1H7zM14 29h1v1H14zM17 29h1v1H17zM24 29h1v1H24z"/><path fill="#fafdfd" d="M4 9h1v1H4zM5 9h1v1H5zM26 9h1v1H26zM27 9h1v1H27zM4 10h1v1H4zM5 10h1v1H5zM26 10h1v1H26zM27 10h1v1H27zM6 11h1v1H6zM25 11h1v1H25zM8 12h1v1H8zM23 12h1v1H23z"/><path fill="#308647" d="M13 13h1v1H13zM18 13h1v1H18zM14 14h1v1H14zM17 14h1v1H17zM13 25h1v1H13zM18 25h1v1H18z"/><path fill="#3b9b4e" d="M15 14h1v1H15zM16 14h1v1H16zM15 28h1v1H15zM16 28h1v1H16z"/><path fill="#539e27" d="M1 15h1v1H1zM2 15h1v1H2zM29 15h1v1H29zM30 15h1v1H30zM1 19h1v1H1zM30 19h1v1H30zM2 20h1v1H2zM29 20h1v1H29zM2 21h1v1H2zM5 21h1v1H5zM6 21h1v1H6zM25 21h1v1H25zM26 21h1v1H26zM29 21h1v1H29zM2 23h1v1H2zM29 23h1v1H29zM2 26h1v1H2zM12 26h1v1H12zM19 26h1v1H19zM29 26h1v1H29zM3 27h1v1H3zM28 27h1v1H28zM3 29h1v1H3zM28 29h1v1H28z"/><path fill="#078572" d="M5 15h1v1H5zM26 15h1v1H26zM6 16h1v1H6zM25 16h1v1H25zM6 17h1v1H6zM25 17h1v1H25z"/><path fill="#000000" d="M11 15h1v1H11zM12 15h1v1H12zM13 15h1v1H13zM14 15h1v1H14zM17 15h1v1H17zM18 15h1v1H18zM19 15h1v1H19zM20 15h1v1H20zM9 16h1v1H9zM10 16h1v1H10zM11 16h1v1H11zM12 16h1v1H12zM13 16h1v1H13zM14 16h1v1H14zM15 16h1v1H15zM16 16h1v1H16zM17 16h1v1H17zM18 16h1v1H18zM19 16h1v1H19zM20 16h1v1H20zM21 16h1v1H21zM22 16h1v1H22zM9 17h1v1H9zM10 17h1v1H10zM13 17h1v1H13zM14 17h1v1H14zM15 17h1v1H15zM16 17h1v1H16zM17 17h1v1H17zM18 17h1v1H18zM21 17h1v1H21zM22 17h1v1H22zM9 18h1v1H9zM14 18h1v1H14zM15 18h1v1H15zM16 18h1v1H16zM17 18h1v1H17zM22 18h1v1H22zM9 19h1v1H9zM14 19h1v1H14zM15 19h1v1H15zM16 19h1v1H16zM17 19h1v1H17zM22 19h1v1H22zM9 20h1v1H9zM14 20h1v1H14zM15 20h1v1H15zM16 20h1v1H16zM17 20h1v1H17zM22 20h1v1H22zM9 21h1v1H9zM10 21h1v1H10zM14 21h1v1H14zM15 21h1v1H15zM16 21h1v1H16zM17 21h1v1H17zM21 21h1v1H21zM22 21h1v1H22zM9 22h1v1H9zM10 22h1v1H10zM11 22h1v1H11zM14 22h1v1H14zM15 22h1v1H15zM16 22h1v1H16zM17 22h1v1H17zM20 22h1v1H20zM21 22h1v1H21zM22 22h1v1H22zM10 23h1v1H10zM11 23h1v1H11zM12 23h1v1H12zM13 23h1v1H13zM14 23h1v1H14zM17 23h1v1H17zM18 23h1v1H18zM19 23h1v1H19zM20 23h1v1H20zM21 23h1v1H21z"/><path fill="#ffffff" d="M11 17h1v1H11zM12 17h1v1H12zM19 17h1v1H19zM20 17h1v1H20zM11 18h1v1H11zM12 18h1v1H12zM13 18h1v1H13zM18 18h1v1H18zM19 18h1v1H19zM20 18h1v1H20zM11 19h1v1H11zM12 19h1v1H12zM19 19h1v1H19zM20 19h1v1H20zM11 20h1v1H11zM12 20h1v1H12zM19 20h1v1H19zM20 20h1v1H20zM11 21h1v1H11zM12 21h1v1H12zM19 21h1v1H19zM20 21h1v1H20zM12 22h1v1H12zM13 22h1v1H13zM18 22h1v1H18zM19 22h1v1H19z"/><path fill="#070303" d="M13 19h1v1H13zM18 19h1v1H18zM13 20h1v1H13zM18 20h1v1H18z"/></svg>
