<svg xmlns="http://www.w3.org/2000/svg" viewBox="0 0 32 32" shape-rendering="crispEdges"><path fill="#67a73d" d="M15 0h1v1H15zM12 1h1v1H12zM19 1h1v1H19zM9 2h1v1H9zM22 2h1v1H22zM7 5h1v1H7zM10 5h1v1H10zM21 5h1v1H21zM24 5h1v1H24zM3 15h1v1H3zM28 15h1v1H28zM3 16h1v1H3zM28 16h1v1H28z"/><path fill="#679519" d="M15 1h1v1H15zM13 2h1v1H13zM15 2h1v1H15zM18 2h1v1H18zM10 3h1v1H10zM13 3h1v1H13zM15 3h1v1H15zM16 3h1v1H16zM18 3h1v1H18zM21 3h1v1H21zM10 4h1v1H10zM12 4h1v1H12zM19 4h1v1H19zM21 4h1v1H21zM8 5h1v1H8zM12 5h1v1H12zM19 5h1v1H19zM23 5h1v1H23zM4 6h1v1H4zM5 6h1v1H5zM8 6h1v1H8zM9 6h1v1H9zM11 6h1v1H11zM20 6h1v1H20zM22 6h1v1H22zM23 6h1v1H23zM26 6h1v1H26zM27 6h1v1H27zM5 7h1v1H5zM26 7h1v1H26zM3 12h1v1H3zM28 12h1v1H28zM3 13h1v1H3zM28 13h1v1H28zM3 14h1v1H3zM28 14h1v1H28zM1 17h1v1H1zM30 17h1v1H30zM2 20h1v1H2zM29 20h1v1H29z"/><path fill="#3e7a2f" d="M12 2h1v1H12zM19 2h1v1H19zM9 3h1v1H9zM22 3h1v1H22zM13 4h1v1H13zM18 4h1v1H18zM9 5h1v1H9zM22 5h1v1H22zM7 6h1v1H7zM24 6h1v1H24zM7 7h1v1H7zM8 7h1v1H8zM23 7h1v1H23zM24 7h1v1H24zM5 8h1v1H5zM26 8h1v1H26zM8 9h1v1H8zM23 9h1v1H23zM1 15h1v1H1zM30 15h1v1H30zM1 16h1v1H1zM30 16h1v1H30zM3 17h1v1H3zM28 17h1v1H28zM2 19h1v1H2zM29 19h1v1H29z"/><path fill="#49712b" d="M14 3h1v1H14zM17 3h1v1H17zM5 29h1v1H5zM6 29h1v1H6zM25 29h1v1H25zM26 29h1v1H26z"/><path fill="#08312d" d="M14 4h1v1H14zM17 4h1v1H17zM13 5h1v1H13zM18 5h1v1H18zM12 6h1v1H12zM19 6h1v1H19zM11 7h1v1H11zM20 7h1v1H20zM11 8h1v1H11zM12 8h1v1H12zM19 8h1v1H19zM20 8h1v1H20zM11 9h1v1H11zM20 9h1v1H20zM11 10h1v1H11zM20 10h1v1H20zM11 11h1v1H11zM20 11h1v1H20zM12 12h1v1H12zM19 12h1v1H19zM13 13h1v1H13zM18 13h1v1H18zM14 14h1v1H14zM17 14h1v1H17zM8 15h1v1H8zM23 15h1v1H23zM11 26h1v1H11zM20 26h1v1H20zM15 30h1v1H15zM16 30h1v1H16z"/><path fill="#e4f3ec" d="M15 4h1v1H15zM16 4h1v1H16zM14 5h1v1H14zM15 5h1v1H15zM16 5h1v1H16zM17 5h1v1H17zM13 6h1v1H13zM14 6h1v1H14zM17 6h1v1H17zM18 6h1v1H18zM13 7h1v1H13zM18 7h1v1H18zM15 8h1v1H15zM16 8h1v1H16zM13 9h1v1H13zM18 9h1v1H18zM2 10h1v1H2zM13 10h1v1H13zM18 10h1v1H18zM29 10h1v1H29zM15 14h1v1H15zM16 14h1v1H16zM15 26h1v1H15zM16 26h1v1H16zM14 28h1v1H14zM17 28h1v1H17z"/><path fill="#235328" d="M11 5h1v1H11zM20 5h1v1H20zM4 13h1v1H4zM27 13h1v1H27zM2 14h1v1H2zM4 14h1v1H4zM27 14h1v1H27zM29 14h1v1H29zM2 15h1v1H2zM29 15h1v1H29zM3 18h1v1H3zM8 18h1v1H8zM23 18h1v1H23zM28 18h1v1H28zM6 19h1v1H6zM25 19h1v1H25zM7 20h1v1H7zM24 20h1v1H24zM6 24h1v1H6zM25 24h1v1H25zM7 25h1v1H7zM24 25h1v1H24zM2 27h1v1H2zM29 27h1v1H29zM3 28h1v1H3zM6 28h1v1H6zM25 28h1v1H25zM28 28h1v1H28zM7 29h1v1H7zM24 29h1v1H24z"/><path fill="#0c4437" d="M10 6h1v1H10zM21 6h1v1H21zM6 7h1v1H6zM25 7h1v1H25zM8 8h1v1H8zM23 8h1v1H23zM9 9h1v1H9zM22 9h1v1H22zM4 10h1v1H4zM27 10h1v1H27zM3 11h1v1H3zM4 11h1v1H4zM27 11h1v1H27zM28 11h1v1H28zM10 13h1v1H10zM11 13h1v1H11zM12 13h1v1H12zM19 13h1v1H19zM20 13h1v1H20zM21 13h1v1H21zM12 25h1v1H12zM19 25h1v1H19zM8 28h1v1H8zM23 28h1v1H23zM8 29h1v1H8zM11 29h1v1H11zM20 29h1v1H20zM23 29h1v1H23z"/><path fill="#4bbd93" d="M15 6h1v1H15zM16 6h1v1H16zM14 7h1v1H14zM15 7h1v1H15zM16 7h1v1H16zM17 7h1v1H17zM13 8h1v1H13zM14 8h1v1H14zM17 8h1v1H17zM18 8h1v1H18zM10 9h1v1H10zM12 9h1v1H12zM19 9h1v1H19zM21 9h1v1H21zM12 10h1v1H12zM19 10h1v1H19zM9 27h1v1H9zM22 27h1v1H22z"/><path fill="#8cb738" d="M3 7h1v1H3zM4 7h1v1H4zM9 7h1v1H9zM10 7h1v1H10zM21 7h1v1H21zM22 7h1v1H22zM27 7h1v1H27zM28 7h1v1H28zM3 8h1v1H3zM4 8h1v1H4zM6 8h1v1H6zM7 8h1v1H7zM9 8h1v1H9zM10 8h1v1H10zM21 8h1v1H21zM22 8h1v1H22zM24 8h1v1H24zM25 8h1v1H25zM27 8h1v1H27zM28 8h1v1H28zM6 9h1v1H6zM7 9h1v1H7zM24 9h1v1H24zM25 9h1v1H25zM6 17h1v1H6zM25 17h1v1H25zM6 18h1v1H6zM7 18h1v1H7zM24 18h1v1H24zM25 18h1v1H25zM7 19h1v1H7zM24 19h1v1H24zM6 21h1v1H6zM25 21h1v1H25zM6 22h1v1H6zM7 22h1v1H7zM24 22h1v1H24zM25 22h1v1H25zM7 23h1v1H7zM24 23h1v1H24zM2 25h1v1H2zM3 25h1v1H3zM6 25h1v1H6zM25 25h1v1H25zM28 25h1v1H28zM29 25h1v1H29zM3 26h1v1H3zM4 26h1v1H4zM6 26h1v1H6zM7 26h1v1H7zM24 26h1v1H24zM25 26h1v1H25zM27 26h1v1H27zM28 26h1v1H28zM4 27h1v1H4zM7 27h1v1H7zM24 27h1v1H24zM27 27h1v1H27z"/><path fill="#93e0c0" d="M12 7h1v1H12zM19 7h1v1H19zM2 9h1v1H2zM3 9h1v1H3zM4 9h1v1H4zM27 9h1v1H27zM28 9h1v1H28zM29 9h1v1H29zM3 10h1v1H3zM5 10h1v1H5zM6 10h1v1H6zM7 10h1v1H7zM8 10h1v1H8zM9 10h1v1H9zM10 10h1v1H10zM21 10h1v1H21zM22 10h1v1H22zM23 10h1v1H23zM24 10h1v1H24zM25 10h1v1H25zM26 10h1v1H26zM28 10h1v1H28zM5 11h1v1H5zM6 11h1v1H6zM7 11h1v1H7zM10 11h1v1H10zM12 11h1v1H12zM13 11h1v1H13zM18 11h1v1H18zM19 11h1v1H19zM21 11h1v1H21zM24 11h1v1H24zM25 11h1v1H25zM26 11h1v1H26zM5 12h1v1H5zM7 12h1v1H7zM8 12h1v1H8zM9 12h1v1H9zM10 12h1v1H10zM11 12h1v1H11zM13 12h1v1H13zM14 12h1v1H14zM15 12h1v1H15zM16 12h1v1H16zM17 12h1v1H17zM18 12h1v1H18zM20 12h1v1H20zM21 12h1v1H21zM22 12h1v1H22zM23 12h1v1H23zM24 12h1v1H24zM26 12h1v1H26zM5 13h1v1H5zM8 13h1v1H8zM14 13h1v1H14zM15 13h1v1H15zM16 13h1v1H16zM17 13h1v1H17zM23 13h1v1H23zM26 13h1v1H26zM6 14h1v1H6zM7 14h1v1H7zM24 14h1v1H24zM25 14h1v1H25zM6 15h1v1H6zM7 15h1v1H7zM24 15h1v1H24zM25 15h1v1H25zM10 18h1v1H10zM21 18h1v1H21zM2 22h1v1H2zM3 22h1v1H3zM28 22h1v1H28zM29 22h1v1H29zM2 23h1v1H2zM3 23h1v1H3zM28 23h1v1H28zM29 23h1v1H29zM10 25h1v1H10zM21 25h1v1H21zM9 26h1v1H9zM22 26h1v1H22zM13 28h1v1H13zM18 28h1v1H18z"/><path fill="#16684c" d="M5 9h1v1H5zM26 9h1v1H26zM14 11h1v1H14zM17 11h1v1H17zM10 20h1v1H10zM21 20h1v1H21zM9 24h1v1H9zM22 24h1v1H22zM8 27h1v1H8zM23 27h1v1H23zM11 28h1v1H11zM20 28h1v1H20z"/><path fill="#3fd9be" d="M14 9h1v1H14zM15 9h1v1H15zM16 9h1v1H16zM17 9h1v1H17zM15 10h1v1H15zM16 10h1v1H16zM9 22h1v1H9zM22 22h1v1H22zM4 23h1v1H4zM10 23h1v1H10zM21 23h1v1H21zM27 23h1v1H27zM3 24h1v1H3zM4 24h1v1H4zM11 24h1v1H11zM12 24h1v1H12zM13 24h1v1H13zM15 24h1v1H15zM16 24h1v1H16zM18 24h1v1H18zM19 24h1v1H19zM20 24h1v1H20zM27 24h1v1H27zM28 24h1v1H28zM14 25h1v1H14zM15 25h1v1H15zM16 25h1v1H16zM17 25h1v1H17zM14 26h1v1H14zM17 26h1v1H17zM14 27h1v1H14zM15 27h1v1H15zM16 27h1v1H16zM17 27h1v1H17zM15 28h1v1H15zM16 28h1v1H16z"/><path fill="#1c9575" d="M14 10h1v1H14zM17 10h1v1H17zM15 11h1v1H15zM16 11h1v1H16zM13 26h1v1H13zM18 26h1v1H18zM13 27h1v1H13zM18 27h1v1H18zM9 28h1v1H9zM22 28h1v1H22z"/><path fill="#14735c" d="M2 11h1v1H2zM29 11h1v1H29zM6 13h1v1H6zM7 13h1v1H7zM9 13h1v1H9zM22 13h1v1H22zM24 13h1v1H24zM25 13h1v1H25zM8 14h1v1H8zM23 14h1v1H23zM7 16h1v1H7zM8 16h1v1H8zM23 16h1v1H23zM24 16h1v1H24zM8 17h1v1H8zM23 17h1v1H23zM12 26h1v1H12zM19 26h1v1H19zM11 27h1v1H11zM12 27h1v1H12zM19 27h1v1H19zM20 27h1v1H20zM2 28h1v1H2zM29 28h1v1H29zM3 29h1v1H3zM14 29h1v1H14zM15 29h1v1H15zM16 29h1v1H16zM17 29h1v1H17zM28 29h1v1H28z"/><path fill="#2aa683" d="M8 11h1v1H8zM9 11h1v1H9zM22 11h1v1H22zM23 11h1v1H23zM6 12h1v1H6zM25 12h1v1H25zM10 19h1v1H10zM21 19h1v1H21zM8 20h1v1H8zM23 20h1v1H23zM8 21h1v1H8zM13 21h1v1H13zM18 21h1v1H18zM23 21h1v1H23zM9 23h1v1H9zM22 23h1v1H22zM10 26h1v1H10zM21 26h1v1H21z"/><path fill="#52832c" d="M2 12h1v1H2zM29 12h1v1H29zM2 13h1v1H2zM29 13h1v1H29zM6 16h1v1H6zM25 16h1v1H25zM7 17h1v1H7zM24 17h1v1H24zM8 19h1v1H8zM23 19h1v1H23zM6 20h1v1H6zM25 20h1v1H25zM7 21h1v1H7zM24 21h1v1H24zM6 23h1v1H6zM25 23h1v1H25zM7 24h1v1H7zM24 24h1v1H24zM6 27h1v1H6zM25 27h1v1H25zM7 28h1v1H7zM24 28h1v1H24z"/><path fill="#14352b" d="M4 12h1v1H4zM27 12h1v1H27z"/><path fill="#61974d" d="M5 14h1v1H5zM26 14h1v1H26z"/><path fill="#072624" d="M9 14h1v1H9zM22 14h1v1H22z"/><path fill="#000000" d="M10 14h1v1H10zM11 14h1v1H11zM12 14h1v1H12zM13 14h1v1H13zM18 14h1v1H18zM19 14h1v1H19zM20 14h1v1H20zM21 14h1v1H21zM9 15h1v1H9zM10 15h1v1H10zM11 15h1v1H11zM12 15h1v1H12zM13 15h1v1H13zM14 15h1v1H14zM15 15h1v1H15zM16 15h1v1H16zM17 15h1v1H17zM18 15h1v1H18zM19 15h1v1H19zM20 15h1v1H20zM21 15h1v1H21zM22 15h1v1H22zM9 16h1v1H9zM10 16h1v1H10zM11 16h1v1H11zM12 16h1v1H12zM13 16h1v1H13zM14 16h1v1H14zM15 16h1v1H15zM16 16h1v1H16zM17 16h1v1H17zM18 16h1v1H18zM19 16h1v1H19zM20 16h1v1H20zM21 16h1v1H21zM22 16h1v1H22zM9 17h1v1H9zM10 17h1v1H10zM13 17h1v1H13zM14 17h1v1H14zM15 17h1v1H15zM16 17h1v1H16zM17 17h1v1H17zM18 17h1v1H18zM21 17h1v1H21zM22 17h1v1H22zM9 18h1v1H9zM14 18h1v1H14zM15 18h1v1H15zM16 18h1v1H16zM17 18h1v1H17zM22 18h1v1H22zM9 19h1v1H9zM14 19h1v1H14zM15 19h1v1H15zM16 19h1v1H16zM17 19h1v1H17zM22 19h1v1H22zM9 20h1v1H9zM14 20h1v1H14zM15 20h1v1H15zM16 20h1v1H16zM17 20h1v1H17zM22 20h1v1H22zM9 21h1v1H9zM10 21h1v1H10zM14 21h1v1H14zM15 21h1v1H15zM16 21h1v1H16zM17 21h1v1H17zM21 21h1v1H21zM22 21h1v1H22zM10 22h1v1H10zM11 22h1v1H11zM14 22h1v1H14zM15 22h1v1H15zM16 22h1v1H16zM17 22h1v1H17zM20 22h1v1H20zM21 22h1v1H21zM11 23h1v1H11zM12 23h1v1H12zM13 23h1v1H13zM14 23h1v1H14zM15 23h1v1H15zM16 23h1v1H16zM17 23h1v1H17zM18 23h1v1H18zM19 23h1v1H19zM20 23h1v1H20z"/><path fill="#112d2b" d="M5 15h1v1H5zM26 15h1v1H26zM5 19h1v1H5zM26 19h1v1H26zM5 20h1v1H5zM26 20h1v1H26zM8 22h1v1H8zM23 22h1v1H23zM8 23h1v1H8zM23 23h1v1H23zM8 24h1v1H8zM10 24h1v1H10zM21 24h1v1H21zM23 24h1v1H23zM5 25h1v1H5zM8 25h1v1H8zM9 25h1v1H9zM11 25h1v1H11zM20 25h1v1H20zM22 25h1v1H22zM23 25h1v1H23zM26 25h1v1H26zM5 26h1v1H5zM26 26h1v1H26zM5 27h1v1H5zM10 27h1v1H10zM21 27h1v1H21zM26 27h1v1H26zM4 28h1v1H4zM5 28h1v1H5zM10 28h1v1H10zM12 28h1v1H12zM19 28h1v1H19zM21 28h1v1H21zM26 28h1v1H26zM27 28h1v1H27zM1 29h1v1H1zM10 29h1v1H10zM12 29h1v1H12zM13 29h1v1H13zM18 29h1v1H18zM19 29h1v1H19zM21 29h1v1H21zM30 29h1v1H30zM2 30h1v1H2zM3 30h1v1H3zM4 30h1v1H4zM6 30h1v1H6zM7 30h1v1H7zM8 30h1v1H8zM9 30h1v1H9zM10 30h1v1H10zM11 30h1v1H11zM12 30h1v1H12zM13 30h1v1H13zM14 30h1v1H14zM17 30h1v1H17zM18 30h1v1H18zM19 30h1v1H19zM20 30h1v1H20zM21 30h1v1H21zM22 30h1v1H22zM23 30h1v1H23zM24 30h1v1H24zM25 30h1v1H25zM27 30h1v1H27zM28 30h1v1H28zM29 30h1v1H29z"/><path fill="#245d2a" d="M5 16h1v1H5zM26 16h1v1H26zM5 17h1v1H5zM26 17h1v1H26zM5 18h1v1H5zM26 18h1v1H26zM5 21h1v1H5zM26 21h1v1H26zM4 22h1v1H4zM5 22h1v1H5zM26 22h1v1H26zM27 22h1v1H27zM5 23h1v1H5zM26 23h1v1H26zM2 24h1v1H2zM5 24h1v1H5zM26 24h1v1H26zM29 24h1v1H29z"/><path fill="#ffffff" d="M11 17h1v1H11zM12 17h1v1H12zM19 17h1v1H19zM20 17h1v1H20zM11 18h1v1H11zM12 18h1v1H12zM13 18h1v1H13zM18 18h1v1H18zM19 18h1v1H19zM20 18h1v1H20zM11 19h1v1H11zM12 19h1v1H12zM19 19h1v1H19zM20 19h1v1H20zM11 20h1v1H11zM12 20h1v1H12zM19 20h1v1H19zM20 20h1v1H20zM11 21h1v1H11zM12 21h1v1H12zM19 21h1v1H19zM20 21h1v1H20zM12 22h1v1H12zM13 22h1v1H13zM18 22h1v1H18zM19 22h1v1H19z"/><path fill="#070303" d="M13 19h1v1H13zM18 19h1v1H18zM13 20h1v1H13zM18 20h1v1H18z"/><path fill="#408439" d="M4 21h1v1H4zM27 21h1v1H27z"/><path fill="#128169" d="M14 24h1v1H14zM17 24h1v1H17zM13 25h1v1H13zM18 25h1v1H18z"/><path fill="#45944e" d="M4 25h1v1H4zM27 25h1v1H27z"/><path fill="#35712b" d="M2 26h1v1H2zM29 26h1v1H29zM3 27h1v1H3zM28 27h1v1H28z"/><path fill="#0f3c2e" d="M8 26h1v1H8zM23 26h1v1H23z"/><path fill="#13513d" d="M1 27h1v1H1zM30 27h1v1H30zM1 28h1v1H1zM30 28h1v1H30zM2 29h1v1H2zM4 29h1v1H4zM9 29h1v1H9zM22 29h1v1H22zM27 29h1v1H27zM29 29h1v1H29z"/><path fill="#204629" d="M5 30h1v1H5zM26 30h1v1H26z"/></svg>
