<svg xmlns="http://www.w3.org/2000/svg" viewBox="0 0 32 32" shape-rendering="crispEdges"><path fill="#a6a6a6" d="M14 1h1v1H14zM15 1h1v1H15zM16 1h1v1H16zM17 1h1v1H17zM18 1h1v1H18zM9 2h1v1H9zM10 2h1v1H10zM8 3h1v1H8zM21 3h1v1H21zM22 3h1v1H22zM7 4h1v1H7zM23 4h1v1H23zM24 5h1v1H24zM5 15h1v1H5zM26 15h1v1H26zM5 16h1v1H5zM26 16h1v1H26zM3 19h1v1H3zM28 19h1v1H28zM3 20h1v1H3zM28 20h1v1H28zM3 21h1v1H3zM28 21h1v1H28zM3 22h1v1H3zM4 22h1v1H4zM27 22h1v1H27zM28 22h1v1H28zM5 24h1v1H5zM26 24h1v1H26zM5 25h1v1H5zM26 25h1v1H26zM22 26h1v1H22zM10 27h1v1H10zM11 27h1v1H11zM20 27h1v1H20zM21 27h1v1H21zM22 27h1v1H22zM13 29h1v1H13zM17 29h1v1H17zM13 30h1v1H13zM14 30h1v1H14zM15 30h1v1H15zM16 30h1v1H16z"/><path fill="#979797" d="M13 2h1v1H13zM19 2h1v1H19zM11 3h1v1H11zM13 3h1v1H13zM19 3h1v1H19zM6 5h1v1H6zM12 5h1v1H12zM13 5h1v1H13zM14 5h1v1H14zM15 5h1v1H15zM6 6h1v1H6zM12 6h1v1H12zM15 6h1v1H15zM7 7h1v1H7zM12 7h1v1H12zM18 7h1v1H18zM9 8h1v1H9zM10 8h1v1H10zM17 8h1v1H17zM18 8h1v1H18zM17 9h1v1H17zM22 9h1v1H22zM5 10h1v1H5zM6 10h1v1H6zM7 10h1v1H7zM20 10h1v1H20zM23 10h1v1H23zM24 10h1v1H24zM25 10h1v1H25zM5 11h1v1H5zM25 11h1v1H25zM5 12h1v1H5zM14 13h1v1H14zM15 13h1v1H15zM7 14h1v1H7zM10 14h1v1H10zM11 14h1v1H11zM19 14h1v1H19zM24 14h1v1H24zM6 17h1v1H6zM25 17h1v1H25zM4 18h1v1H4zM5 18h1v1H5zM6 18h1v1H6zM14 18h1v1H14zM15 18h1v1H15zM25 18h1v1H25zM26 18h1v1H26zM27 18h1v1H27zM15 19h1v1H15zM21 19h1v1H21zM15 20h1v1H15zM8 21h1v1H8zM15 21h1v1H15zM24 21h1v1H24zM5 22h1v1H5zM6 22h1v1H6zM8 22h1v1H8zM9 22h1v1H9zM10 22h1v1H10zM22 22h1v1H22zM23 22h1v1H23zM24 22h1v1H24zM25 22h1v1H25zM26 22h1v1H26zM6 23h1v1H6zM14 23h1v1H14zM20 23h1v1H20zM21 23h1v1H21zM25 23h1v1H25zM16 25h1v1H16zM22 25h1v1H22zM6 26h1v1H6zM7 26h1v1H7zM8 26h1v1H8zM9 26h1v1H9zM16 26h1v1H16zM17 26h1v1H17zM23 26h1v1H23zM24 26h1v1H24zM25 26h1v1H25zM18 27h1v1H18zM19 27h1v1H19zM13 28h1v1H13zM18 28h1v1H18z"/><path fill="#ececec" d="M14 2h1v1H14zM15 2h1v1H15zM16 2h1v1H16zM17 2h1v1H17zM18 2h1v1H18zM9 3h1v1H9zM10 3h1v1H10zM14 3h1v1H14zM15 3h1v1H15zM16 3h1v1H16zM17 3h1v1H17zM18 3h1v1H18zM8 4h1v1H8zM9 4h1v1H9zM10 4h1v1H10zM21 4h1v1H21zM22 4h1v1H22zM7 5h1v1H7zM8 5h1v1H8zM9 5h1v1H9zM22 5h1v1H22zM23 5h1v1H23zM7 6h1v1H7zM8 6h1v1H8zM19 6h1v1H19zM23 6h1v1H23zM24 6h1v1H24zM24 7h1v1H24zM11 9h1v1H11zM12 9h1v1H12zM13 9h1v1H13zM14 9h1v1H14zM11 10h1v1H11zM12 10h1v1H12zM13 10h1v1H13zM14 10h1v1H14zM15 10h1v1H15zM6 11h1v1H6zM14 11h1v1H14zM17 11h1v1H17zM18 11h1v1H18zM23 11h1v1H23zM24 11h1v1H24zM6 12h1v1H6zM23 12h1v1H23zM24 12h1v1H24zM6 13h1v1H6zM12 13h1v1H12zM21 13h1v1H21zM6 15h1v1H6zM7 15h1v1H7zM24 15h1v1H24zM25 15h1v1H25zM6 16h1v1H6zM25 16h1v1H25zM10 17h1v1H10zM21 17h1v1H21zM4 19h1v1H4zM8 19h1v1H8zM27 19h1v1H27zM4 20h1v1H4zM23 20h1v1H23zM27 20h1v1H27zM4 21h1v1H4zM9 21h1v1H9zM10 21h1v1H10zM13 21h1v1H13zM14 21h1v1H14zM17 21h1v1H17zM23 21h1v1H23zM27 21h1v1H27zM16 22h1v1H16zM17 22h1v1H17zM18 22h1v1H18zM19 22h1v1H19zM6 24h1v1H6zM7 24h1v1H7zM9 24h1v1H9zM24 24h1v1H24zM25 24h1v1H25zM6 25h1v1H6zM7 25h1v1H7zM9 25h1v1H9zM10 25h1v1H10zM23 25h1v1H23zM24 25h1v1H24zM25 25h1v1H25zM10 26h1v1H10zM11 26h1v1H11zM20 26h1v1H20zM21 26h1v1H21zM14 28h1v1H14zM15 28h1v1H15zM16 28h1v1H16zM17 28h1v1H17zM14 29h1v1H14zM15 29h1v1H15zM16 29h1v1H16z"/><path fill="#ffffff" d="M11 4h1v1H11zM14 4h1v1H14zM15 4h1v1H15zM16 4h1v1H16zM17 4h1v1H17zM18 4h1v1H18zM10 5h1v1H10zM17 5h1v1H17zM21 5h1v1H21zM9 6h1v1H9zM13 6h1v1H13zM14 6h1v1H14zM22 6h1v1H22zM8 7h1v1H8zM23 7h1v1H23zM6 8h1v1H6zM7 8h1v1H7zM20 8h1v1H20zM25 8h1v1H25zM6 9h1v1H6zM7 9h1v1H7zM24 9h1v1H24zM25 9h1v1H25zM7 11h1v1H7zM11 11h1v1H11zM12 11h1v1H12zM13 11h1v1H13zM15 11h1v1H15zM7 12h1v1H7zM17 12h1v1H17zM18 12h1v1H18zM8 14h1v1H8zM9 14h1v1H9zM14 14h1v1H14zM15 14h1v1H15zM16 14h1v1H16zM17 14h1v1H17zM22 14h1v1H22zM23 14h1v1H23zM8 15h1v1H8zM10 15h1v1H10zM11 15h1v1H11zM14 15h1v1H14zM15 15h1v1H15zM16 15h1v1H16zM17 15h1v1H17zM20 15h1v1H20zM21 15h1v1H21zM23 15h1v1H23zM7 16h1v1H7zM11 16h1v1H11zM14 16h1v1H14zM15 16h1v1H15zM16 16h1v1H16zM17 16h1v1H17zM20 16h1v1H20zM24 16h1v1H24zM12 17h1v1H12zM18 17h1v1H18zM11 18h1v1H11zM13 18h1v1H13zM19 18h1v1H19zM20 18h1v1H20zM5 19h1v1H5zM11 19h1v1H11zM20 19h1v1H20zM26 19h1v1H26zM5 20h1v1H5zM11 20h1v1H11zM20 20h1v1H20zM26 20h1v1H26zM5 21h1v1H5zM26 21h1v1H26zM23 24h1v1H23z"/><path fill="#777777" d="M12 4h1v1H12zM13 4h1v1H13zM19 4h1v1H19zM20 4h1v1H20zM19 5h1v1H19zM18 6h1v1H18zM25 6h1v1H25zM15 7h1v1H15zM25 7h1v1H25zM11 8h1v1H11zM12 8h1v1H12zM13 8h1v1H13zM10 9h1v1H10zM16 9h1v1H16zM8 10h1v1H8zM9 10h1v1H9zM10 10h1v1H10zM16 10h1v1H16zM19 10h1v1H19zM21 10h1v1H21zM22 10h1v1H22zM10 11h1v1H10zM19 11h1v1H19zM10 12h1v1H10zM19 12h1v1H19zM25 12h1v1H25zM5 13h1v1H5zM10 13h1v1H10zM19 13h1v1H19zM25 13h1v1H25zM7 18h1v1H7zM8 18h1v1H8zM17 18h1v1H17zM23 18h1v1H23zM24 18h1v1H24zM7 19h1v1H7zM17 19h1v1H17zM24 19h1v1H24zM7 20h1v1H7zM8 20h1v1H8zM16 20h1v1H16zM17 20h1v1H17zM24 20h1v1H24zM12 21h1v1H12zM7 22h1v1H7zM11 22h1v1H11zM12 22h1v1H12zM13 22h1v1H13zM8 23h1v1H8zM9 23h1v1H9zM18 23h1v1H18zM19 23h1v1H19zM23 23h1v1H23zM8 24h1v1H8zM16 24h1v1H16zM18 24h1v1H18zM8 25h1v1H8zM18 25h1v1H18zM12 26h1v1H12zM13 26h1v1H13zM18 26h1v1H18zM13 27h1v1H13z"/><path fill="#cfcfcf" d="M11 5h1v1H11zM16 5h1v1H16zM18 5h1v1H18zM20 5h1v1H20zM10 6h1v1H10zM11 6h1v1H11zM16 6h1v1H16zM17 6h1v1H17zM20 6h1v1H20zM21 6h1v1H21zM6 7h1v1H6zM9 7h1v1H9zM10 7h1v1H10zM11 7h1v1H11zM13 7h1v1H13zM14 7h1v1H14zM16 7h1v1H16zM19 7h1v1H19zM20 7h1v1H20zM21 7h1v1H21zM22 7h1v1H22zM19 8h1v1H19zM21 8h1v1H21zM22 8h1v1H22zM23 8h1v1H23zM8 9h1v1H8zM15 9h1v1H15zM18 9h1v1H18zM19 9h1v1H19zM20 9h1v1H20zM21 9h1v1H21zM8 11h1v1H8zM9 11h1v1H9zM22 11h1v1H22zM8 12h1v1H8zM9 12h1v1H9zM11 12h1v1H11zM12 12h1v1H12zM13 12h1v1H13zM14 12h1v1H14zM15 12h1v1H15zM20 12h1v1H20zM21 12h1v1H21zM22 12h1v1H22zM7 13h1v1H7zM8 13h1v1H8zM9 13h1v1H9zM11 13h1v1H11zM13 13h1v1H13zM17 13h1v1H17zM18 13h1v1H18zM20 13h1v1H20zM22 13h1v1H22zM12 14h1v1H12zM13 14h1v1H13zM18 14h1v1H18zM20 14h1v1H20zM21 14h1v1H21zM12 15h1v1H12zM13 15h1v1H13zM18 15h1v1H18zM19 15h1v1H19zM8 16h1v1H8zM9 16h1v1H9zM12 16h1v1H12zM13 16h1v1H13zM18 16h1v1H18zM19 16h1v1H19zM22 16h1v1H22zM23 16h1v1H23zM7 17h1v1H7zM8 17h1v1H8zM9 17h1v1H9zM11 17h1v1H11zM20 17h1v1H20zM22 17h1v1H22zM23 17h1v1H23zM24 17h1v1H24zM16 18h1v1H16zM6 19h1v1H6zM14 19h1v1H14zM16 19h1v1H16zM25 19h1v1H25zM6 20h1v1H6zM14 20h1v1H14zM21 20h1v1H21zM22 20h1v1H22zM25 20h1v1H25zM6 21h1v1H6zM7 21h1v1H7zM11 21h1v1H11zM21 21h1v1H21zM25 21h1v1H25zM7 23h1v1H7zM10 23h1v1H10zM11 23h1v1H11zM13 23h1v1H13zM24 23h1v1H24zM11 24h1v1H11zM12 24h1v1H12zM13 24h1v1H13zM15 24h1v1H15zM17 24h1v1H17zM19 24h1v1H19zM20 24h1v1H20zM21 24h1v1H21zM11 25h1v1H11zM12 25h1v1H12zM14 25h1v1H14zM15 25h1v1H15zM19 25h1v1H19zM20 25h1v1H20zM15 26h1v1H15z"/><path fill="#585858" d="M17 7h1v1H17zM8 8h1v1H8zM14 8h1v1H14zM15 8h1v1H15zM16 8h1v1H16zM24 8h1v1H24zM9 9h1v1H9zM23 9h1v1H23zM17 10h1v1H17zM18 10h1v1H18zM16 11h1v1H16zM20 11h1v1H20zM21 11h1v1H21zM16 12h1v1H16zM16 13h1v1H16zM6 14h1v1H6zM25 14h1v1H25zM9 15h1v1H9zM22 15h1v1H22zM10 16h1v1H10zM21 16h1v1H21zM14 17h1v1H14zM15 17h1v1H15zM16 17h1v1H16zM17 17h1v1H17zM9 18h1v1H9zM10 18h1v1H10zM21 18h1v1H21zM22 18h1v1H22zM9 19h1v1H9zM10 19h1v1H10zM22 19h1v1H22zM23 19h1v1H23zM20 21h1v1H20zM14 22h1v1H14zM15 22h1v1H15zM20 22h1v1H20zM21 22h1v1H21zM15 23h1v1H15zM16 23h1v1H16zM17 23h1v1H17zM22 23h1v1H22zM14 24h1v1H14zM22 24h1v1H22zM13 25h1v1H13z"/><path fill="#fefefe" d="M23 13h1v1H23zM24 13h1v1H24zM9 20h1v1H9zM10 20h1v1H10zM16 21h1v1H16zM18 21h1v1H18zM19 21h1v1H19zM22 21h1v1H22zM12 23h1v1H12zM10 24h1v1H10zM17 25h1v1H17zM21 25h1v1H21zM14 26h1v1H14zM19 26h1v1H19zM14 27h1v1H14zM15 27h1v1H15zM16 27h1v1H16zM17 27h1v1H17z"/><path fill="#0e0e14" d="M13 17h1v1H13zM19 17h1v1H19zM12 18h1v1H12zM18 18h1v1H18zM12 19h1v1H12zM13 19h1v1H13zM18 19h1v1H18zM19 19h1v1H19zM12 20h1v1H12zM13 20h1v1H13zM18 20h1v1H18zM19 20h1v1H19z"/></svg>
