<svg xmlns="http://www.w3.org/2000/svg" viewBox="0 0 32 32" shape-rendering="crispEdges"><path fill="#e7463c" d="M14 1h1v1H14zM15 1h1v1H15zM16 1h1v1H16zM14 2h1v1H14zM14 3h1v1H14zM12 4h1v1H12zM14 4h1v1H14zM15 5h1v1H15zM13 6h1v1H13zM14 6h1v1H14zM15 7h1v1H15zM15 8h1v1H15zM13 9h1v1H13zM14 9h1v1H14zM15 9h1v1H15zM19 9h1v1H19zM1 10h1v1H1zM3 10h1v1H3zM13 10h1v1H13zM28 10h1v1H28zM30 10h1v1H30zM2 11h1v1H2zM18 11h1v1H18zM29 11h1v1H29zM3 12h1v1H3zM13 12h1v1H13zM15 12h1v1H15zM16 12h1v1H16zM18 12h1v1H18zM28 12h1v1H28zM1 13h1v1H1zM3 13h1v1H3zM4 13h1v1H4zM9 13h1v1H9zM22 13h1v1H22zM27 13h1v1H27zM28 13h1v1H28zM30 13h1v1H30zM1 14h1v1H1zM5 14h1v1H5zM9 14h1v1H9zM22 14h1v1H22zM26 14h1v1H26zM30 14h1v1H30zM2 15h1v1H2zM5 15h1v1H5zM24 15h1v1H24zM26 15h1v1H26zM29 15h1v1H29zM0 16h1v1H0zM2 16h1v1H2zM3 16h1v1H3zM24 16h1v1H24zM28 16h1v1H28zM29 16h1v1H29zM31 16h1v1H31zM1 17h1v1H1zM24 17h1v1H24zM30 17h1v1H30zM7 18h1v1H7zM10 18h1v1H10zM21 18h1v1H21zM24 18h1v1H24zM2 19h1v1H2zM7 19h1v1H7zM24 19h1v1H24zM29 19h1v1H29zM7 20h1v1H7zM24 20h1v1H24zM4 22h1v1H4zM27 22h1v1H27zM9 23h1v1H9zM4 24h1v1H4zM9 24h1v1H9zM11 24h1v1H11zM13 24h1v1H13zM15 24h1v1H15zM16 24h1v1H16zM20 24h1v1H20zM27 24h1v1H27zM4 25h1v1H4zM10 25h1v1H10zM11 25h1v1H11zM12 25h1v1H12zM27 25h1v1H27zM3 26h1v1H3zM4 26h1v1H4zM17 26h1v1H17zM18 26h1v1H18zM27 26h1v1H27zM28 26h1v1H28zM3 27h1v1H3zM4 27h1v1H4zM5 27h1v1H5zM12 27h1v1H12zM14 27h1v1H14zM18 27h1v1H18zM26 27h1v1H26zM27 27h1v1H27zM28 27h1v1H28zM4 28h1v1H4zM5 28h1v1H5zM6 28h1v1H6zM7 28h1v1H7zM8 28h1v1H8zM9 28h1v1H9zM14 28h1v1H14zM23 28h1v1H23zM24 28h1v1H24zM25 28h1v1H25zM26 28h1v1H26zM27 28h1v1H27z"/><path fill="#d53733" d="M17 1h1v1H17zM13 2h1v1H13zM15 2h1v1H15zM16 2h1v1H16zM12 3h1v1H12zM15 3h1v1H15zM16 3h1v1H16zM12 5h1v1H12zM13 5h1v1H13zM14 5h1v1H14zM12 6h1v1H12zM13 7h1v1H13zM14 7h1v1H14zM14 8h1v1H14zM19 8h1v1H19zM2 9h1v1H2zM20 9h1v1H20zM29 9h1v1H29zM2 10h1v1H2zM14 10h1v1H14zM19 10h1v1H19zM20 10h1v1H20zM29 10h1v1H29zM1 11h1v1H1zM3 11h1v1H3zM4 11h1v1H4zM13 11h1v1H13zM19 11h1v1H19zM27 11h1v1H27zM28 11h1v1H28zM30 11h1v1H30zM1 12h1v1H1zM2 12h1v1H2zM4 12h1v1H4zM27 12h1v1H27zM29 12h1v1H29zM30 12h1v1H30zM10 13h1v1H10zM11 13h1v1H11zM15 13h1v1H15zM16 13h1v1H16zM20 13h1v1H20zM21 13h1v1H21zM4 14h1v1H4zM8 14h1v1H8zM23 14h1v1H23zM27 14h1v1H27zM0 15h1v1H0zM1 15h1v1H1zM8 15h1v1H8zM23 15h1v1H23zM30 15h1v1H30zM31 15h1v1H31zM5 16h1v1H5zM8 16h1v1H8zM23 16h1v1H23zM26 16h1v1H26zM0 17h1v1H0zM3 17h1v1H3zM4 17h1v1H4zM8 17h1v1H8zM23 17h1v1H23zM27 17h1v1H27zM28 17h1v1H28zM31 17h1v1H31zM1 18h1v1H1zM8 18h1v1H8zM23 18h1v1H23zM30 18h1v1H30zM8 19h1v1H8zM10 19h1v1H10zM21 19h1v1H21zM23 19h1v1H23zM3 20h1v1H3zM4 20h1v1H4zM5 20h1v1H5zM8 20h1v1H8zM23 20h1v1H23zM26 20h1v1H26zM27 20h1v1H27zM28 20h1v1H28zM2 21h1v1H2zM3 21h1v1H3zM5 21h1v1H5zM8 21h1v1H8zM13 21h1v1H13zM18 21h1v1H18zM23 21h1v1H23zM26 21h1v1H26zM28 21h1v1H28zM29 21h1v1H29zM3 22h1v1H3zM28 22h1v1H28zM12 23h1v1H12zM13 23h1v1H13zM19 23h1v1H19zM22 23h1v1H22zM12 24h1v1H12zM21 24h1v1H21zM22 24h1v1H22zM15 25h1v1H15zM16 25h1v1H16zM11 26h1v1H11zM14 26h1v1H14zM15 26h1v1H15zM16 26h1v1H16zM13 27h1v1H13zM15 28h1v1H15zM16 28h1v1H16zM17 28h1v1H17zM18 28h1v1H18z"/><path fill="#fcefe3" d="M13 3h1v1H13zM13 4h1v1H13zM15 6h1v1H15zM6 7h1v1H6zM7 7h1v1H7zM8 7h1v1H8zM16 7h1v1H16zM23 7h1v1H23zM24 7h1v1H24zM25 7h1v1H25zM6 8h1v1H6zM7 8h1v1H7zM8 8h1v1H8zM16 8h1v1H16zM17 8h1v1H17zM23 8h1v1H23zM24 8h1v1H24zM25 8h1v1H25zM8 9h1v1H8zM9 9h1v1H9zM11 9h1v1H11zM12 9h1v1H12zM16 9h1v1H16zM17 9h1v1H17zM22 9h1v1H22zM23 9h1v1H23zM9 10h1v1H9zM10 10h1v1H10zM11 10h1v1H11zM12 10h1v1H12zM15 10h1v1H15zM16 10h1v1H16zM17 10h1v1H17zM18 10h1v1H18zM21 10h1v1H21zM22 10h1v1H22zM7 11h1v1H7zM10 11h1v1H10zM11 11h1v1H11zM12 11h1v1H12zM14 11h1v1H14zM17 11h1v1H17zM21 11h1v1H21zM23 11h1v1H23zM24 11h1v1H24zM9 12h1v1H9zM10 12h1v1H10zM11 12h1v1H11zM12 12h1v1H12zM19 12h1v1H19zM20 12h1v1H20zM21 12h1v1H21zM22 12h1v1H22zM23 12h1v1H23zM2 13h1v1H2zM8 13h1v1H8zM12 13h1v1H12zM13 13h1v1H13zM18 13h1v1H18zM19 13h1v1H19zM23 13h1v1H23zM24 13h1v1H24zM29 13h1v1H29zM2 14h1v1H2zM3 14h1v1H3zM7 14h1v1H7zM14 14h1v1H14zM17 14h1v1H17zM24 14h1v1H24zM28 14h1v1H28zM29 14h1v1H29zM3 15h1v1H3zM4 15h1v1H4zM7 15h1v1H7zM15 15h1v1H15zM16 15h1v1H16zM27 15h1v1H27zM28 15h1v1H28zM1 16h1v1H1zM4 16h1v1H4zM7 16h1v1H7zM27 16h1v1H27zM30 16h1v1H30zM2 17h1v1H2zM7 17h1v1H7zM29 17h1v1H29zM2 18h1v1H2zM3 18h1v1H3zM6 18h1v1H6zM28 18h1v1H28zM29 18h1v1H29zM3 19h1v1H3zM4 19h1v1H4zM6 19h1v1H6zM27 19h1v1H27zM28 19h1v1H28zM6 20h1v1H6zM4 21h1v1H4zM6 21h1v1H6zM7 21h1v1H7zM24 21h1v1H24zM27 21h1v1H27zM7 22h1v1H7zM8 22h1v1H8zM9 22h1v1H9zM22 22h1v1H22zM8 23h1v1H8zM10 23h1v1H10zM11 23h1v1H11zM20 23h1v1H20zM21 23h1v1H21zM10 24h1v1H10zM14 24h1v1H14zM13 25h1v1H13zM14 25h1v1H14zM18 25h1v1H18zM12 26h1v1H12zM13 26h1v1H13zM19 26h1v1H19zM15 27h1v1H15zM16 27h1v1H16zM17 27h1v1H17zM19 27h1v1H19zM20 27h1v1H20zM19 28h1v1H19zM20 28h1v1H20z"/><path fill="#0fb6b3" d="M17 3h1v1H17zM18 3h1v1H18zM19 3h1v1H19zM16 4h1v1H16zM18 4h1v1H18zM17 5h1v1H17zM7 6h1v1H7zM8 6h1v1H8zM9 6h1v1H9zM11 6h1v1H11zM18 6h1v1H18zM19 6h1v1H19zM20 6h1v1H20zM21 6h1v1H21zM22 6h1v1H22zM23 6h1v1H23zM24 6h1v1H24zM9 7h1v1H9zM10 7h1v1H10zM20 7h1v1H20zM22 7h1v1H22zM9 8h1v1H9zM12 8h1v1H12zM22 8h1v1H22zM7 9h1v1H7zM10 9h1v1H10zM21 9h1v1H21zM24 9h1v1H24zM6 10h1v1H6zM8 10h1v1H8zM23 10h1v1H23zM25 10h1v1H25zM8 11h1v1H8zM9 11h1v1H9zM20 11h1v1H20zM6 13h1v1H6zM25 13h1v1H25zM13 14h1v1H13zM18 14h1v1H18zM14 15h1v1H14zM17 15h1v1H17zM6 16h1v1H6zM25 16h1v1H25zM5 17h1v1H5zM6 17h1v1H6zM25 17h1v1H25zM26 17h1v1H26zM5 18h1v1H5zM26 18h1v1H26zM25 21h1v1H25zM5 22h1v1H5zM6 22h1v1H6zM24 22h1v1H24zM25 22h1v1H25zM26 22h1v1H26zM4 23h1v1H4zM5 23h1v1H5zM7 23h1v1H7zM14 23h1v1H14zM15 23h1v1H15zM16 23h1v1H16zM17 23h1v1H17zM26 23h1v1H26zM27 23h1v1H27zM5 24h1v1H5zM19 24h1v1H19zM26 24h1v1H26zM5 25h1v1H5zM17 25h1v1H17zM21 25h1v1H21zM26 25h1v1H26zM5 26h1v1H5zM6 26h1v1H6zM21 26h1v1H21zM22 26h1v1H22zM25 26h1v1H25zM26 26h1v1H26zM6 27h1v1H6zM7 27h1v1H7zM8 27h1v1H8zM9 27h1v1H9zM22 27h1v1H22zM23 27h1v1H23zM24 27h1v1H24zM25 27h1v1H25z"/><path fill="#156869" d="M15 4h1v1H15zM19 4h1v1H19zM18 5h1v1H18zM5 8h1v1H5zM13 8h1v1H13zM26 8h1v1H26zM5 9h1v1H5zM6 9h1v1H6zM25 9h1v1H25zM26 9h1v1H26zM5 10h1v1H5zM26 10h1v1H26zM5 11h1v1H5zM26 11h1v1H26zM5 12h1v1H5zM26 12h1v1H26zM5 13h1v1H5zM26 13h1v1H26zM6 14h1v1H6zM12 14h1v1H12zM19 14h1v1H19zM25 14h1v1H25zM6 15h1v1H6zM25 15h1v1H25zM15 16h1v1H15zM16 16h1v1H16zM10 22h1v1H10zM21 22h1v1H21zM9 26h1v1H9zM10 26h1v1H10zM10 27h1v1H10zM11 27h1v1H11zM21 27h1v1H21zM10 28h1v1H10zM12 28h1v1H12zM13 28h1v1H13zM22 28h1v1H22zM15 29h1v1H15zM16 29h1v1H16zM17 29h1v1H17zM18 29h1v1H18z"/><path fill="#3edbcd" d="M17 4h1v1H17zM20 4h1v1H20zM16 5h1v1H16zM6 6h1v1H6zM10 6h1v1H10zM16 6h1v1H16zM17 6h1v1H17zM25 6h1v1H25zM5 7h1v1H5zM11 7h1v1H11zM12 7h1v1H12zM17 7h1v1H17zM18 7h1v1H18zM19 7h1v1H19zM21 7h1v1H21zM26 7h1v1H26zM10 8h1v1H10zM11 8h1v1H11zM18 8h1v1H18zM20 8h1v1H20zM21 8h1v1H21zM18 9h1v1H18zM7 10h1v1H7zM24 10h1v1H24zM6 11h1v1H6zM15 11h1v1H15zM16 11h1v1H16zM22 11h1v1H22zM25 11h1v1H25zM6 12h1v1H6zM7 12h1v1H7zM8 12h1v1H8zM14 12h1v1H14zM17 12h1v1H17zM24 12h1v1H24zM25 12h1v1H25zM7 13h1v1H7zM14 13h1v1H14zM17 13h1v1H17zM15 14h1v1H15zM16 14h1v1H16zM4 18h1v1H4zM25 18h1v1H25zM27 18h1v1H27zM5 19h1v1H5zM25 19h1v1H25zM26 19h1v1H26zM25 20h1v1H25zM23 22h1v1H23zM6 23h1v1H6zM18 23h1v1H18zM23 23h1v1H23zM24 23h1v1H24zM25 23h1v1H25zM6 24h1v1H6zM7 24h1v1H7zM8 24h1v1H8zM17 24h1v1H17zM18 24h1v1H18zM23 24h1v1H23zM24 24h1v1H24zM25 24h1v1H25zM6 25h1v1H6zM7 25h1v1H7zM8 25h1v1H8zM9 25h1v1H9zM19 25h1v1H19zM20 25h1v1H20zM22 25h1v1H22zM23 25h1v1H23zM24 25h1v1H24zM25 25h1v1H25zM7 26h1v1H7zM8 26h1v1H8zM20 26h1v1H20zM23 26h1v1H23zM24 26h1v1H24z"/><path fill="#000000" d="M10 14h1v1H10zM11 14h1v1H11zM20 14h1v1H20zM21 14h1v1H21zM9 15h1v1H9zM10 15h1v1H10zM11 15h1v1H11zM12 15h1v1H12zM13 15h1v1H13zM18 15h1v1H18zM19 15h1v1H19zM20 15h1v1H20zM21 15h1v1H21zM22 15h1v1H22zM9 16h1v1H9zM10 16h1v1H10zM11 16h1v1H11zM12 16h1v1H12zM13 16h1v1H13zM14 16h1v1H14zM17 16h1v1H17zM18 16h1v1H18zM19 16h1v1H19zM20 16h1v1H20zM21 16h1v1H21zM22 16h1v1H22zM9 17h1v1H9zM10 17h1v1H10zM13 17h1v1H13zM14 17h1v1H14zM15 17h1v1H15zM16 17h1v1H16zM17 17h1v1H17zM18 17h1v1H18zM21 17h1v1H21zM22 17h1v1H22zM9 18h1v1H9zM14 18h1v1H14zM15 18h1v1H15zM16 18h1v1H16zM17 18h1v1H17zM22 18h1v1H22zM9 19h1v1H9zM13 19h1v1H13zM14 19h1v1H14zM15 19h1v1H15zM16 19h1v1H16zM17 19h1v1H17zM18 19h1v1H18zM22 19h1v1H22zM9 20h1v1H9zM13 20h1v1H13zM14 20h1v1H14zM15 20h1v1H15zM16 20h1v1H16zM17 20h1v1H17zM18 20h1v1H18zM22 20h1v1H22zM9 21h1v1H9zM10 21h1v1H10zM14 21h1v1H14zM15 21h1v1H15zM16 21h1v1H16zM17 21h1v1H17zM21 21h1v1H21zM22 21h1v1H22zM11 22h1v1H11zM14 22h1v1H14zM15 22h1v1H15zM16 22h1v1H16zM17 22h1v1H17zM20 22h1v1H20z"/><path fill="#ffffff" d="M11 17h1v1H11zM12 17h1v1H12zM19 17h1v1H19zM20 17h1v1H20zM11 18h1v1H11zM12 18h1v1H12zM13 18h1v1H13zM18 18h1v1H18zM19 18h1v1H19zM20 18h1v1H20zM11 19h1v1H11zM12 19h1v1H12zM19 19h1v1H19zM20 19h1v1H20zM11 20h1v1H11zM12 20h1v1H12zM19 20h1v1H19zM20 20h1v1H20zM11 21h1v1H11zM12 21h1v1H12zM19 21h1v1H19zM20 21h1v1H20zM12 22h1v1H12zM13 22h1v1H13zM18 22h1v1H18zM19 22h1v1H19z"/><path fill="#ad0d0a" d="M10 20h1v1H10zM21 20h1v1H21z"/></svg>
