<svg xmlns="http://www.w3.org/2000/svg" viewBox="0 0 32 32" shape-rendering="crispEdges"><path fill="#02393c" d="M15 1h1v1H15zM16 1h1v1H16zM3 16h1v1H3zM28 16h1v1H28zM4 17h1v1H4zM27 17h1v1H27z"/><path fill="#0d373e" d="M14 2h1v1H14zM17 2h1v1H17zM10 20h1v1H10zM21 20h1v1H21zM8 22h1v1H8zM23 22h1v1H23zM7 23h1v1H7zM9 23h1v1H9zM22 23h1v1H22zM24 23h1v1H24zM6 24h1v1H6zM10 24h1v1H10zM21 24h1v1H21zM25 24h1v1H25z"/><path fill="#e8fffb" d="M15 2h1v1H15zM16 9h1v1H16zM15 10h1v1H15zM16 10h1v1H16zM6 11h1v1H6zM7 11h1v1H7zM14 11h1v1H14zM15 11h1v1H15zM16 11h1v1H16zM17 11h1v1H17zM24 11h1v1H24zM25 11h1v1H25zM6 12h1v1H6zM7 12h1v1H7zM24 12h1v1H24zM25 12h1v1H25zM13 14h1v1H13zM18 14h1v1H18zM15 16h1v1H15zM16 16h1v1H16z"/><path fill="#00b1a9" d="M16 2h1v1H16zM15 3h1v1H15zM16 3h1v1H16zM8 4h1v1H8zM23 4h1v1H23zM7 5h1v1H7zM8 5h1v1H8zM9 5h1v1H9zM22 5h1v1H22zM23 5h1v1H23zM24 5h1v1H24zM16 8h1v1H16zM15 9h1v1H15zM17 9h1v1H17zM14 10h1v1H14zM17 10h1v1H17zM13 11h1v1H13zM18 11h1v1H18zM13 12h1v1H13zM18 12h1v1H18zM9 13h1v1H9zM22 13h1v1H22zM7 14h1v1H7zM8 14h1v1H8zM11 14h1v1H11zM20 14h1v1H20zM23 14h1v1H23zM24 14h1v1H24zM12 15h1v1H12zM15 15h1v1H15zM16 15h1v1H16zM19 15h1v1H19zM13 16h1v1H13zM14 16h1v1H14zM17 16h1v1H17zM18 16h1v1H18zM15 17h1v1H15zM16 17h1v1H16zM10 18h1v1H10zM21 18h1v1H21zM8 23h1v1H8zM23 23h1v1H23zM7 24h1v1H7zM11 24h1v1H11zM12 24h1v1H12zM13 24h1v1H13zM14 24h1v1H14zM17 24h1v1H17zM18 24h1v1H18zM19 24h1v1H19zM20 24h1v1H20zM24 24h1v1H24zM5 25h1v1H5zM6 25h1v1H6zM12 25h1v1H12zM13 25h1v1H13zM18 25h1v1H18zM19 25h1v1H19zM25 25h1v1H25zM26 25h1v1H26zM5 26h1v1H5zM6 26h1v1H6zM10 26h1v1H10zM21 26h1v1H21zM25 26h1v1H25zM26 26h1v1H26zM10 27h1v1H10zM21 27h1v1H21zM9 28h1v1H9zM10 28h1v1H10zM21 28h1v1H21zM22 28h1v1H22z"/><path fill="#025153" d="M14 3h1v1H14zM17 3h1v1H17zM11 12h1v1H11zM12 12h1v1H12zM19 12h1v1H19zM20 12h1v1H20zM10 13h1v1H10zM14 13h1v1H14zM17 13h1v1H17zM21 13h1v1H21zM15 14h1v1H15zM16 14h1v1H16zM4 18h1v1H4zM27 18h1v1H27zM3 19h1v1H3zM28 19h1v1H28zM3 20h1v1H3zM28 20h1v1H28z"/><path fill="#9dd8cf" d="M7 4h1v1H7zM24 4h1v1H24zM4 19h1v1H4zM27 19h1v1H27zM4 20h1v1H4zM27 20h1v1H27zM2 22h1v1H2zM29 22h1v1H29z"/><path fill="#007171" d="M9 4h1v1H9zM22 4h1v1H22zM9 6h1v1H9zM22 6h1v1H22zM14 14h1v1H14zM17 14h1v1H17zM8 16h1v1H8zM23 16h1v1H23zM8 17h1v1H8zM23 17h1v1H23zM10 19h1v1H10zM21 19h1v1H21zM13 21h1v1H13zM18 21h1v1H18z"/><path fill="#0b1c21" d="M14 4h1v1H14zM17 4h1v1H17z"/><path fill="#006060" d="M15 4h1v1H15zM16 4h1v1H16zM13 13h1v1H13zM18 13h1v1H18zM4 28h1v1H4zM27 28h1v1H27zM9 29h1v1H9zM22 29h1v1H22z"/><path fill="#080707" d="M15 5h1v1H15zM16 5h1v1H16zM15 6h1v1H15zM16 6h1v1H16zM9 7h1v1H9zM22 7h1v1H22zM8 8h1v1H8zM10 8h1v1H10zM14 8h1v1H14zM17 8h1v1H17zM21 8h1v1H21zM23 8h1v1H23zM9 9h1v1H9zM11 9h1v1H11zM12 9h1v1H12zM13 9h1v1H13zM18 9h1v1H18zM19 9h1v1H19zM20 9h1v1H20zM22 9h1v1H22zM5 11h1v1H5zM26 11h1v1H26zM5 14h1v1H5zM26 14h1v1H26zM5 15h1v1H5zM26 15h1v1H26zM5 16h1v1H5zM26 16h1v1H26zM5 17h1v1H5zM26 17h1v1H26zM2 18h1v1H2zM3 18h1v1H3zM5 18h1v1H5zM6 18h1v1H6zM25 18h1v1H25zM26 18h1v1H26zM28 18h1v1H28zM29 18h1v1H29zM1 19h1v1H1zM6 19h1v1H6zM25 19h1v1H25zM30 19h1v1H30zM1 20h1v1H1zM6 20h1v1H6zM25 20h1v1H25zM30 20h1v1H30zM3 21h1v1H3zM5 21h1v1H5zM6 21h1v1H6zM25 21h1v1H25zM26 21h1v1H26zM28 21h1v1H28zM5 22h1v1H5zM6 22h1v1H6zM25 22h1v1H25zM26 22h1v1H26zM4 23h1v1H4zM5 23h1v1H5zM6 23h1v1H6zM25 23h1v1H25zM26 23h1v1H26zM27 23h1v1H27zM3 24h1v1H3zM4 24h1v1H4zM5 24h1v1H5zM26 24h1v1H26zM27 24h1v1H27zM28 24h1v1H28zM15 26h1v1H15zM16 26h1v1H16zM8 27h1v1H8zM9 27h1v1H9zM12 27h1v1H12zM15 27h1v1H15zM16 27h1v1H16zM19 27h1v1H19zM22 27h1v1H22zM23 27h1v1H23zM7 28h1v1H7zM8 28h1v1H8zM11 28h1v1H11zM20 28h1v1H20zM23 28h1v1H23zM24 28h1v1H24zM7 29h1v1H7zM10 29h1v1H10zM14 29h1v1H14zM17 29h1v1H17zM21 29h1v1H21zM24 29h1v1H24z"/><path fill="#008481" d="M8 6h1v1H8zM23 6h1v1H23zM8 18h1v1H8zM23 18h1v1H23zM8 19h1v1H8zM23 19h1v1H23zM8 20h1v1H8zM23 20h1v1H23zM8 21h1v1H8zM23 21h1v1H23zM8 24h1v1H8zM9 24h1v1H9zM22 24h1v1H22zM23 24h1v1H23zM7 25h1v1H7zM8 25h1v1H8zM23 25h1v1H23zM24 25h1v1H24zM4 26h1v1H4zM7 26h1v1H7zM8 26h1v1H8zM23 26h1v1H23zM24 26h1v1H24zM27 26h1v1H27zM4 27h1v1H4zM7 27h1v1H7zM24 27h1v1H24zM27 27h1v1H27zM5 28h1v1H5zM6 28h1v1H6zM25 28h1v1H25zM26 28h1v1H26z"/><path fill="#101e25" d="M10 6h1v1H10zM21 6h1v1H21zM10 25h1v1H10zM11 25h1v1H11zM14 25h1v1H14zM17 25h1v1H17zM20 25h1v1H20zM21 25h1v1H21zM9 26h1v1H9zM11 26h1v1H11zM12 26h1v1H12zM13 26h1v1H13zM18 26h1v1H18zM19 26h1v1H19zM20 26h1v1H20zM22 26h1v1H22zM11 27h1v1H11zM13 27h1v1H13zM14 27h1v1H14zM17 27h1v1H17zM18 27h1v1H18zM20 27h1v1H20z"/><path fill="#0c3137" d="M10 7h1v1H10zM21 7h1v1H21zM9 15h1v1H9zM22 15h1v1H22zM14 28h1v1H14zM17 28h1v1H17z"/><path fill="#293641" d="M15 7h1v1H15zM16 7h1v1H16zM15 8h1v1H15zM14 9h1v1H14zM13 10h1v1H13zM18 10h1v1H18zM8 11h1v1H8zM9 11h1v1H9zM10 11h1v1H10zM11 11h1v1H11zM12 11h1v1H12zM19 11h1v1H19zM20 11h1v1H20zM21 11h1v1H21zM22 11h1v1H22zM23 11h1v1H23zM2 17h1v1H2zM29 17h1v1H29zM2 19h1v1H2zM29 19h1v1H29zM2 20h1v1H2zM29 20h1v1H29z"/><path fill="#1b323c" d="M9 8h1v1H9zM22 8h1v1H22zM8 9h1v1H8zM23 9h1v1H23zM15 24h1v1H15zM16 24h1v1H16z"/><path fill="#202934" d="M7 9h1v1H7zM24 9h1v1H24zM8 12h1v1H8zM9 12h1v1H9zM10 12h1v1H10zM21 12h1v1H21zM22 12h1v1H22zM23 12h1v1H23zM6 13h1v1H6zM7 13h1v1H7zM8 13h1v1H8zM23 13h1v1H23zM24 13h1v1H24zM25 13h1v1H25zM6 15h1v1H6zM25 15h1v1H25zM6 16h1v1H6zM25 16h1v1H25zM7 18h1v1H7zM24 18h1v1H24z"/><path fill="#1b242e" d="M6 10h1v1H6zM25 10h1v1H25z"/><path fill="#1d6666" d="M7 10h1v1H7zM11 10h1v1H11zM12 10h1v1H12zM19 10h1v1H19zM20 10h1v1H20zM24 10h1v1H24z"/><path fill="#111a22" d="M8 10h1v1H8zM23 10h1v1H23zM6 17h1v1H6zM25 17h1v1H25zM14 26h1v1H14zM17 26h1v1H17zM13 28h1v1H13zM18 28h1v1H18z"/><path fill="#151f25" d="M9 10h1v1H9zM22 10h1v1H22zM5 12h1v1H5zM26 12h1v1H26zM3 15h1v1H3zM28 15h1v1H28zM2 16h1v1H2zM29 16h1v1H29zM15 25h1v1H15zM16 25h1v1H16z"/><path fill="#232f3a" d="M10 10h1v1H10zM21 10h1v1H21zM7 19h1v1H7zM24 19h1v1H24zM7 20h1v1H7zM24 20h1v1H24zM7 21h1v1H7zM24 21h1v1H24z"/><path fill="#1bcdba" d="M14 12h1v1H14zM15 12h1v1H15zM16 12h1v1H16zM17 12h1v1H17zM15 13h1v1H15zM16 13h1v1H16zM3 17h1v1H3zM28 17h1v1H28z"/><path fill="#034446" d="M5 13h1v1H5zM26 13h1v1H26zM5 19h1v1H5zM26 19h1v1H26zM5 20h1v1H5zM26 20h1v1H26zM4 21h1v1H4zM27 21h1v1H27z"/><path fill="#092025" d="M11 13h1v1H11zM12 13h1v1H12zM19 13h1v1H19zM20 13h1v1H20zM9 14h1v1H9zM22 14h1v1H22zM8 30h1v1H8zM23 30h1v1H23z"/><path fill="#1b2933" d="M6 14h1v1H6zM25 14h1v1H25zM7 16h1v1H7zM24 16h1v1H24zM7 17h1v1H7zM24 17h1v1H24zM7 22h1v1H7zM24 22h1v1H24z"/><path fill="#000000" d="M10 14h1v1H10zM12 14h1v1H12zM19 14h1v1H19zM21 14h1v1H21zM10 15h1v1H10zM11 15h1v1H11zM13 15h1v1H13zM14 15h1v1H14zM17 15h1v1H17zM18 15h1v1H18zM20 15h1v1H20zM21 15h1v1H21zM9 16h1v1H9zM10 16h1v1H10zM11 16h1v1H11zM12 16h1v1H12zM19 16h1v1H19zM20 16h1v1H20zM21 16h1v1H21zM22 16h1v1H22zM9 17h1v1H9zM10 17h1v1H10zM13 17h1v1H13zM14 17h1v1H14zM17 17h1v1H17zM18 17h1v1H18zM21 17h1v1H21zM22 17h1v1H22zM9 18h1v1H9zM14 18h1v1H14zM15 18h1v1H15zM16 18h1v1H16zM17 18h1v1H17zM22 18h1v1H22zM9 19h1v1H9zM14 19h1v1H14zM15 19h1v1H15zM16 19h1v1H16zM17 19h1v1H17zM22 19h1v1H22zM9 20h1v1H9zM14 20h1v1H14zM15 20h1v1H15zM16 20h1v1H16zM17 20h1v1H17zM22 20h1v1H22zM9 21h1v1H9zM10 21h1v1H10zM14 21h1v1H14zM15 21h1v1H15zM16 21h1v1H16zM17 21h1v1H17zM21 21h1v1H21zM22 21h1v1H22zM9 22h1v1H9zM10 22h1v1H10zM11 22h1v1H11zM14 22h1v1H14zM15 22h1v1H15zM16 22h1v1H16zM17 22h1v1H17zM20 22h1v1H20zM21 22h1v1H21zM22 22h1v1H22zM10 23h1v1H10zM11 23h1v1H11zM12 23h1v1H12zM13 23h1v1H13zM14 23h1v1H14zM15 23h1v1H15zM16 23h1v1H16zM17 23h1v1H17zM18 23h1v1H18zM19 23h1v1H19zM20 23h1v1H20zM21 23h1v1H21z"/><path fill="#009893" d="M7 15h1v1H7zM8 15h1v1H8zM23 15h1v1H23zM24 15h1v1H24z"/><path fill="#19222a" d="M4 16h1v1H4zM27 16h1v1H27zM4 22h1v1H4zM27 22h1v1H27zM3 23h1v1H3zM28 23h1v1H28z"/><path fill="#fdfcfc" d="M11 17h1v1H11zM12 17h1v1H12zM19 17h1v1H19zM20 17h1v1H20zM11 18h1v1H11zM12 18h1v1H12zM13 18h1v1H13zM18 18h1v1H18zM19 18h1v1H19zM20 18h1v1H20zM11 19h1v1H11zM12 19h1v1H12zM19 19h1v1H19zM20 19h1v1H20zM11 20h1v1H11zM12 20h1v1H12zM19 20h1v1H19zM20 20h1v1H20zM11 21h1v1H11zM12 21h1v1H12zM19 21h1v1H19zM20 21h1v1H20zM12 22h1v1H12zM13 22h1v1H13zM18 22h1v1H18zM19 22h1v1H19z"/><path fill="#040101" d="M13 19h1v1H13zM18 19h1v1H18zM13 20h1v1H13zM18 20h1v1H18z"/><path fill="#018e86" d="M1 21h1v1H1zM2 21h1v1H2zM29 21h1v1H29zM30 21h1v1H30zM1 22h1v1H1zM30 22h1v1H30zM2 23h1v1H2zM29 23h1v1H29z"/><path fill="#066668" d="M3 22h1v1H3zM28 22h1v1H28zM9 25h1v1H9zM22 25h1v1H22z"/><path fill="#ccfff1" d="M5 27h1v1H5zM26 27h1v1H26z"/><path fill="#132a32" d="M6 27h1v1H6zM25 27h1v1H25z"/><path fill="#0a494d" d="M8 29h1v1H8zM23 29h1v1H23z"/></svg>
