<svg xmlns="http://www.w3.org/2000/svg" viewBox="0 0 32 32" shape-rendering="crispEdges"><path fill="#050505" d="M12 2h1v1H12zM13 2h1v1H13zM14 2h1v1H14zM15 2h1v1H15zM16 2h1v1H16zM17 2h1v1H17zM18 2h1v1H18zM11 3h1v1H11zM19 3h1v1H19zM9 4h1v1H9zM10 4h1v1H10zM12 4h1v1H12zM13 4h1v1H13zM14 4h1v1H14zM15 4h1v1H15zM16 4h1v1H16zM17 4h1v1H17zM19 4h1v1H19zM21 4h1v1H21zM22 4h1v1H22zM23 4h1v1H23zM24 4h1v1H24zM8 5h1v1H8zM14 5h1v1H14zM17 5h1v1H17zM19 5h1v1H19zM20 5h1v1H20zM25 5h1v1H25zM7 6h1v1H7zM15 6h1v1H15zM17 6h1v1H17zM19 6h1v1H19zM21 6h1v1H21zM22 6h1v1H22zM26 6h1v1H26zM16 7h1v1H16zM17 7h1v1H17zM18 7h1v1H18zM19 7h1v1H19zM20 7h1v1H20zM21 7h1v1H21zM24 7h1v1H24zM26 7h1v1H26zM7 8h1v1H7zM24 8h1v1H24zM26 8h1v1H26zM8 9h1v1H8zM12 9h1v1H12zM13 9h1v1H13zM24 9h1v1H24zM26 9h1v1H26zM26 10h1v1H26zM26 11h1v1H26zM26 12h1v1H26zM2 13h1v1H2zM5 13h1v1H5zM8 13h1v1H8zM12 13h1v1H12zM19 13h1v1H19zM23 13h1v1H23zM26 13h1v1H26zM29 13h1v1H29zM2 15h1v1H2zM5 15h1v1H5zM7 15h1v1H7zM24 15h1v1H24zM26 15h1v1H26zM29 15h1v1H29zM30 15h1v1H30zM1 16h1v1H1zM5 16h1v1H5zM7 16h1v1H7zM24 16h1v1H24zM26 16h1v1H26zM30 16h1v1H30zM1 17h1v1H1zM5 17h1v1H5zM7 17h1v1H7zM24 17h1v1H24zM26 17h1v1H26zM30 17h1v1H30zM1 18h1v1H1zM7 18h1v1H7zM24 18h1v1H24zM30 18h1v1H30zM1 19h1v1H1zM7 19h1v1H7zM24 19h1v1H24zM30 19h1v1H30zM1 20h1v1H1zM7 20h1v1H7zM24 20h1v1H24zM30 20h1v1H30zM1 21h1v1H1zM5 21h1v1H5zM7 21h1v1H7zM24 21h1v1H24zM26 21h1v1H26zM30 21h1v1H30zM1 22h1v1H1zM5 22h1v1H5zM26 22h1v1H26zM30 22h1v1H30zM1 23h1v1H1zM5 23h1v1H5zM26 23h1v1H26zM30 23h1v1H30zM1 24h1v1H1zM5 24h1v1H5zM6 24h1v1H6zM25 24h1v1H25zM26 24h1v1H26zM30 24h1v1H30zM1 25h1v1H1zM30 25h1v1H30zM1 26h1v1H1zM5 26h1v1H5zM26 26h1v1H26zM30 26h1v1H30zM8 27h1v1H8zM23 27h1v1H23zM8 28h1v1H8zM15 28h1v1H15zM16 28h1v1H16zM23 28h1v1H23zM9 29h1v1H9zM10 29h1v1H10zM11 29h1v1H11zM12 29h1v1H12zM13 29h1v1H13zM18 29h1v1H18zM19 29h1v1H19zM20 29h1v1H20zM21 29h1v1H21zM22 29h1v1H22zM14 30h1v1H14zM15 30h1v1H15zM16 30h1v1H16zM17 30h1v1H17z"/><path fill="#3a3f45" d="M12 3h1v1H12zM13 3h1v1H13zM15 3h1v1H15zM16 3h1v1H16zM18 3h1v1H18zM11 4h1v1H11zM18 4h1v1H18zM18 5h1v1H18zM22 5h1v1H22zM23 5h1v1H23zM24 5h1v1H24zM8 6h1v1H8zM14 6h1v1H14zM18 6h1v1H18zM20 6h1v1H20zM24 6h1v1H24zM10 7h1v1H10zM11 7h1v1H11zM13 7h1v1H13zM14 7h1v1H14zM25 7h1v1H25zM10 8h1v1H10zM13 8h1v1H13zM25 8h1v1H25zM3 14h1v1H3zM4 14h1v1H4zM11 14h1v1H11zM20 14h1v1H20zM27 14h1v1H27zM28 14h1v1H28zM8 16h1v1H8zM23 16h1v1H23zM8 20h1v1H8zM23 20h1v1H23zM8 21h1v1H8zM23 21h1v1H23zM12 24h1v1H12zM13 24h1v1H13zM18 24h1v1H18zM19 24h1v1H19z"/><path fill="#846313" d="M14 3h1v1H14zM17 3h1v1H17zM21 5h1v1H21zM10 6h1v1H10zM12 6h1v1H12zM25 6h1v1H25zM25 9h1v1H25zM15 14h1v1H15zM17 14h1v1H17zM15 15h1v1H15zM16 15h1v1H16zM10 19h1v1H10zM21 19h1v1H21zM13 21h1v1H13zM18 21h1v1H18zM4 23h1v1H4zM29 23h1v1H29zM3 24h1v1H3zM28 24h1v1H28z"/><path fill="#fbc003" d="M9 5h1v1H9zM10 5h1v1H10zM11 5h1v1H11zM12 5h1v1H12zM13 5h1v1H13zM15 11h1v1H15zM15 12h1v1H15zM3 13h1v1H3zM4 13h1v1H4zM15 13h1v1H15zM16 13h1v1H16zM27 13h1v1H27zM28 13h1v1H28zM14 14h1v1H14zM10 18h1v1H10zM21 18h1v1H21zM3 21h1v1H3zM28 21h1v1H28zM3 22h1v1H3zM28 22h1v1H28zM2 23h1v1H2zM27 23h1v1H27zM10 25h1v1H10zM11 25h1v1H11zM14 25h1v1H14zM15 25h1v1H15zM18 25h1v1H18zM19 25h1v1H19zM9 26h1v1H9zM10 26h1v1H10zM13 26h1v1H13zM14 26h1v1H14zM17 26h1v1H17zM18 26h1v1H18zM21 26h1v1H21zM22 26h1v1H22zM9 27h1v1H9zM12 27h1v1H12zM13 27h1v1H13zM20 27h1v1H20zM21 27h1v1H21zM11 28h1v1H11zM12 28h1v1H12zM19 28h1v1H19zM20 28h1v1H20z"/><path fill="#be911c" d="M9 6h1v1H9zM11 6h1v1H11zM13 6h1v1H13zM16 12h1v1H16zM10 14h1v1H10zM21 14h1v1H21zM9 15h1v1H9zM22 15h1v1H22zM3 23h1v1H3zM28 23h1v1H28z"/><path fill="#1b1e24" d="M23 6h1v1H23zM7 7h1v1H7zM15 7h1v1H15zM8 8h1v1H8zM14 8h1v1H14zM9 9h1v1H9zM10 9h1v1H10zM9 13h1v1H9zM10 13h1v1H10zM11 13h1v1H11zM20 13h1v1H20zM21 13h1v1H21zM22 13h1v1H22zM2 14h1v1H2zM5 14h1v1H5zM26 14h1v1H26zM29 14h1v1H29zM12 25h1v1H12zM13 25h1v1H13zM16 25h1v1H16zM17 25h1v1H17zM20 25h1v1H20zM21 25h1v1H21zM11 26h1v1H11zM12 26h1v1H12zM15 26h1v1H15zM16 26h1v1H16zM19 26h1v1H19zM20 26h1v1H20zM2 27h1v1H2zM6 27h1v1H6zM10 27h1v1H10zM11 27h1v1H11zM18 27h1v1H18zM19 27h1v1H19zM22 27h1v1H22zM25 27h1v1H25zM29 27h1v1H29zM9 28h1v1H9zM10 28h1v1H10zM21 28h1v1H21zM22 28h1v1H22z"/><path fill="#2a2f34" d="M8 7h1v1H8zM9 7h1v1H9zM9 8h1v1H9zM14 11h1v1H14zM12 14h1v1H12zM19 14h1v1H19zM3 15h1v1H3zM4 15h1v1H4zM27 15h1v1H27zM28 15h1v1H28zM7 25h1v1H7zM24 25h1v1H24zM7 26h1v1H7zM24 26h1v1H24zM3 27h1v1H3zM4 27h1v1H4zM27 27h1v1H27zM28 27h1v1H28z"/><path fill="#1f252a" d="M12 7h1v1H12zM7 27h1v1H7zM24 27h1v1H24z"/><path fill="#1e2429" d="M11 8h1v1H11zM12 8h1v1H12zM17 11h1v1H17zM17 12h1v1H17zM14 15h1v1H14zM17 15h1v1H17zM4 22h1v1H4zM29 22h1v1H29zM2 24h1v1H2zM4 24h1v1H4zM27 24h1v1H27zM29 24h1v1H29zM6 25h1v1H6zM25 25h1v1H25z"/><path fill="#132c2f" d="M15 8h1v1H15zM14 10h1v1H14zM8 26h1v1H8zM23 26h1v1H23z"/><path fill="#1a9782" d="M16 8h1v1H16zM17 8h1v1H17zM18 8h1v1H18zM19 8h1v1H19zM20 8h1v1H20zM16 9h1v1H16zM17 9h1v1H17zM18 9h1v1H18zM19 9h1v1H19zM20 9h1v1H20zM21 9h1v1H21zM22 10h1v1H22zM23 10h1v1H23zM9 12h1v1H9zM10 12h1v1H10zM11 12h1v1H11zM20 12h1v1H20zM21 12h1v1H21zM22 12h1v1H22zM7 13h1v1H7zM24 13h1v1H24zM6 15h1v1H6zM25 15h1v1H25zM2 16h1v1H2zM3 16h1v1H3zM4 16h1v1H4zM6 16h1v1H6zM25 16h1v1H25zM27 16h1v1H27zM28 16h1v1H28zM29 16h1v1H29zM2 17h1v1H2zM6 17h1v1H6zM25 17h1v1H25zM29 17h1v1H29zM3 18h1v1H3zM6 18h1v1H6zM25 18h1v1H25zM28 18h1v1H28zM2 19h1v1H2zM3 19h1v1H3zM6 19h1v1H6zM25 19h1v1H25zM28 19h1v1H28zM29 19h1v1H29zM2 20h1v1H2zM3 20h1v1H3zM4 20h1v1H4zM6 20h1v1H6zM25 20h1v1H25zM27 20h1v1H27zM28 20h1v1H28zM29 20h1v1H29zM2 21h1v1H2zM4 21h1v1H4zM6 21h1v1H6zM25 21h1v1H25zM27 21h1v1H27zM29 21h1v1H29zM6 22h1v1H6zM7 22h1v1H7zM24 22h1v1H24zM25 22h1v1H25zM6 23h1v1H6zM25 23h1v1H25zM9 24h1v1H9zM22 24h1v1H22zM8 25h1v1H8zM9 25h1v1H9zM22 25h1v1H22zM23 25h1v1H23z"/><path fill="#188878" d="M21 8h1v1H21z"/><path fill="#104b4d" d="M22 8h1v1H22zM2 25h1v1H2zM29 25h1v1H29zM4 26h1v1H4zM27 26h1v1H27z"/><path fill="#0d3d3e" d="M7 9h1v1H7zM14 9h1v1H14zM23 9h1v1H23zM8 10h1v1H8zM13 10h1v1H13zM15 10h1v1H15zM16 10h1v1H16zM2 26h1v1H2zM3 26h1v1H3zM28 26h1v1H28zM29 26h1v1H29z"/><path fill="#1b2027" d="M11 9h1v1H11zM6 26h1v1H6zM25 26h1v1H25z"/><path fill="#0f5151" d="M15 9h1v1H15zM17 10h1v1H17zM24 10h1v1H24zM8 11h1v1H8zM9 11h1v1H9zM10 11h1v1H10zM11 11h1v1H11zM12 11h1v1H12zM13 11h1v1H13zM18 11h1v1H18zM19 11h1v1H19zM20 11h1v1H20zM21 11h1v1H21zM22 11h1v1H22zM23 11h1v1H23z"/><path fill="#13776c" d="M22 9h1v1H22zM7 10h1v1H7zM18 10h1v1H18zM19 10h1v1H19zM20 10h1v1H20zM21 10h1v1H21zM6 11h1v1H6zM7 11h1v1H7zM24 11h1v1H24zM25 11h1v1H25zM6 12h1v1H6zM12 12h1v1H12zM13 12h1v1H13zM18 12h1v1H18zM19 12h1v1H19zM25 12h1v1H25zM3 17h1v1H3zM4 17h1v1H4zM27 17h1v1H27zM28 17h1v1H28zM2 18h1v1H2zM4 18h1v1H4zM27 18h1v1H27zM29 18h1v1H29zM4 19h1v1H4zM27 19h1v1H27zM3 25h1v1H3zM4 25h1v1H4zM27 25h1v1H27zM28 25h1v1H28z"/><path fill="#0f2425" d="M9 10h1v1H9zM10 10h1v1H10zM11 10h1v1H11zM12 10h1v1H12zM5 20h1v1H5zM26 20h1v1H26zM5 25h1v1H5zM26 25h1v1H26z"/><path fill="#252830" d="M25 10h1v1H25zM14 12h1v1H14zM2 22h1v1H2zM27 22h1v1H27z"/><path fill="#3c3728" d="M16 11h1v1H16z"/><path fill="#5fb49f" d="M7 12h1v1H7zM8 12h1v1H8zM23 12h1v1H23zM24 12h1v1H24zM6 13h1v1H6zM25 13h1v1H25zM6 14h1v1H6zM25 14h1v1H25zM7 23h1v1H7zM8 23h1v1H8zM23 23h1v1H23zM24 23h1v1H24zM7 24h1v1H7zM8 24h1v1H8zM23 24h1v1H23zM24 24h1v1H24z"/><path fill="#131d20" d="M13 13h1v1H13zM18 13h1v1H18z"/><path fill="#503f15" d="M14 13h1v1H14zM17 13h1v1H17zM16 14h1v1H16zM10 20h1v1H10zM21 20h1v1H21z"/><path fill="#0f1a1e" d="M7 14h1v1H7zM24 14h1v1H24zM5 18h1v1H5zM26 18h1v1H26zM5 19h1v1H5zM26 19h1v1H26z"/><path fill="#595f66" d="M8 14h1v1H8zM23 14h1v1H23zM8 15h1v1H8zM23 15h1v1H23zM8 17h1v1H8zM23 17h1v1H23zM8 18h1v1H8zM23 18h1v1H23zM8 19h1v1H8zM23 19h1v1H23zM8 22h1v1H8zM23 22h1v1H23zM9 23h1v1H9zM22 23h1v1H22zM10 24h1v1H10zM11 24h1v1H11zM14 24h1v1H14zM15 24h1v1H15zM16 24h1v1H16zM17 24h1v1H17zM20 24h1v1H20zM21 24h1v1H21z"/><path fill="#dac277" d="M9 14h1v1H9zM22 14h1v1H22z"/><path fill="#000000" d="M13 14h1v1H13zM18 14h1v1H18zM10 15h1v1H10zM11 15h1v1H11zM12 15h1v1H12zM13 15h1v1H13zM18 15h1v1H18zM19 15h1v1H19zM20 15h1v1H20zM21 15h1v1H21zM9 16h1v1H9zM10 16h1v1H10zM11 16h1v1H11zM12 16h1v1H12zM13 16h1v1H13zM14 16h1v1H14zM15 16h1v1H15zM16 16h1v1H16zM17 16h1v1H17zM18 16h1v1H18zM19 16h1v1H19zM20 16h1v1H20zM21 16h1v1H21zM22 16h1v1H22zM9 17h1v1H9zM10 17h1v1H10zM13 17h1v1H13zM14 17h1v1H14zM15 17h1v1H15zM16 17h1v1H16zM17 17h1v1H17zM18 17h1v1H18zM21 17h1v1H21zM22 17h1v1H22zM9 18h1v1H9zM14 18h1v1H14zM15 18h1v1H15zM16 18h1v1H16zM17 18h1v1H17zM22 18h1v1H22zM9 19h1v1H9zM14 19h1v1H14zM15 19h1v1H15zM16 19h1v1H16zM17 19h1v1H17zM22 19h1v1H22zM9 20h1v1H9zM14 20h1v1H14zM15 20h1v1H15zM16 20h1v1H16zM17 20h1v1H17zM22 20h1v1H22zM9 21h1v1H9zM10 21h1v1H10zM14 21h1v1H14zM15 21h1v1H15zM16 21h1v1H16zM17 21h1v1H17zM21 21h1v1H21zM22 21h1v1H22zM9 22h1v1H9zM10 22h1v1H10zM11 22h1v1H11zM14 22h1v1H14zM15 22h1v1H15zM16 22h1v1H16zM17 22h1v1H17zM20 22h1v1H20zM21 22h1v1H21zM22 22h1v1H22zM10 23h1v1H10zM11 23h1v1H11zM12 23h1v1H12zM13 23h1v1H13zM14 23h1v1H14zM15 23h1v1H15zM16 23h1v1H16zM17 23h1v1H17zM18 23h1v1H18zM19 23h1v1H19zM20 23h1v1H20zM21 23h1v1H21z"/><path fill="#ffffff" d="M11 17h1v1H11zM12 17h1v1H12zM19 17h1v1H19zM20 17h1v1H20zM11 18h1v1H11zM12 18h1v1H12zM13 18h1v1H13zM18 18h1v1H18zM19 18h1v1H19zM20 18h1v1H20zM11 19h1v1H11zM12 19h1v1H12zM19 19h1v1H19zM20 19h1v1H20zM11 20h1v1H11zM12 20h1v1H12zM19 20h1v1H19zM20 20h1v1H20zM11 21h1v1H11zM12 21h1v1H12zM19 21h1v1H19zM20 21h1v1H20zM12 22h1v1H12zM13 22h1v1H13zM18 22h1v1H18zM19 22h1v1H19z"/><path fill="#090101" d="M13 19h1v1H13zM18 19h1v1H18zM13 20h1v1H13zM18 20h1v1H18z"/><path fill="#5f9380" d="M14 27h1v1H14zM17 27h1v1H17zM14 28h1v1H14zM17 28h1v1H17zM14 29h1v1H14zM17 29h1v1H17z"/><path fill="#4a6b68" d="M15 27h1v1H15zM16 29h1v1H16z"/><path fill="#575746" d="M16 27h1v1H16zM15 29h1v1H15z"/><path fill="#171b1b" d="M13 28h1v1H13zM18 28h1v1H18z"/></svg>
