<svg xmlns="http://www.w3.org/2000/svg" viewBox="0 0 32 32" shape-rendering="crispEdges"><path fill="#d42a66" d="M6 0h1v1H6zM7 0h1v1H7zM8 0h1v1H8zM9 0h1v1H9zM10 0h1v1H10zM4 1h1v1H4zM5 1h1v1H5zM11 1h1v1H11zM12 1h1v1H12zM3 2h1v1H3zM13 2h1v1H13zM2 3h1v1H2zM1 4h1v1H1zM16 4h1v1H16zM17 4h1v1H17zM1 5h1v1H1zM6 5h1v1H6zM3 6h1v1H3zM19 6h1v1H19zM5 8h1v1H5zM14 8h1v1H14zM17 8h1v1H17zM21 8h1v1H21zM22 8h1v1H22zM11 9h1v1H11zM12 9h1v1H12zM13 9h1v1H13zM18 9h1v1H18zM19 9h1v1H19zM20 9h1v1H20zM6 10h1v1H6zM7 10h1v1H7zM8 10h1v1H8zM9 10h1v1H9zM10 10h1v1H10zM21 10h1v1H21zM22 10h1v1H22zM9 11h1v1H9zM22 11h1v1H22zM3 12h1v1H3zM4 12h1v1H4zM12 12h1v1H12zM13 12h1v1H13zM18 12h1v1H18zM19 12h1v1H19zM27 12h1v1H27zM28 12h1v1H28zM4 13h1v1H4zM9 13h1v1H9zM15 13h1v1H15zM16 13h1v1H16zM22 13h1v1H22zM27 13h1v1H27zM10 14h1v1H10zM15 14h1v1H15zM16 14h1v1H16zM21 14h1v1H21zM11 15h1v1H11zM12 15h1v1H12zM13 15h1v1H13zM14 15h1v1H14zM17 15h1v1H17zM18 15h1v1H18zM19 15h1v1H19zM20 15h1v1H20zM3 24h1v1H3zM28 24h1v1H28zM3 25h1v1H3zM28 25h1v1H28zM4 28h1v1H4zM5 28h1v1H5zM14 28h1v1H14zM17 28h1v1H17zM26 28h1v1H26zM27 28h1v1H27zM3 29h1v1H3zM15 29h1v1H15zM16 29h1v1H16zM28 29h1v1H28z"/><path fill="#fefcfb" d="M6 1h1v1H6zM7 1h1v1H7zM8 1h1v1H8zM5 2h1v1H5zM6 2h1v1H6zM7 2h1v1H7zM11 2h1v1H11zM12 2h1v1H12zM4 3h1v1H4zM5 3h1v1H5zM6 3h1v1H6zM10 3h1v1H10zM11 3h1v1H11zM12 3h1v1H12zM3 4h1v1H3zM4 4h1v1H4zM5 4h1v1H5zM9 4h1v1H9zM10 4h1v1H10zM11 4h1v1H11zM12 4h1v1H12zM3 5h1v1H3zM8 5h1v1H8zM9 5h1v1H9zM10 5h1v1H10zM11 5h1v1H11zM7 6h1v1H7zM8 6h1v1H8zM9 6h1v1H9zM10 6h1v1H10zM15 6h1v1H15zM16 6h1v1H16zM17 6h1v1H17zM14 7h1v1H14zM15 7h1v1H15zM16 7h1v1H16zM1 8h1v1H1zM13 8h1v1H13zM15 9h1v1H15zM16 9h1v1H16zM22 9h1v1H22zM25 9h1v1H25zM11 10h1v1H11zM12 10h1v1H12zM13 10h1v1H13zM14 10h1v1H14zM15 10h1v1H15zM16 10h1v1H16zM17 10h1v1H17zM18 10h1v1H18zM19 10h1v1H19zM20 10h1v1H20zM25 10h1v1H25zM10 11h1v1H10zM14 11h1v1H14zM17 11h1v1H17zM21 11h1v1H21zM29 11h1v1H29zM5 12h1v1H5zM6 12h1v1H6zM10 12h1v1H10zM21 12h1v1H21zM25 12h1v1H25zM26 12h1v1H26zM5 13h1v1H5zM6 13h1v1H6zM10 13h1v1H10zM11 13h1v1H11zM20 13h1v1H20zM21 13h1v1H21zM25 13h1v1H25zM26 13h1v1H26zM8 14h1v1H8zM11 14h1v1H11zM12 14h1v1H12zM13 14h1v1H13zM14 14h1v1H14zM17 14h1v1H17zM18 14h1v1H18zM19 14h1v1H19zM20 14h1v1H20zM23 14h1v1H23zM15 15h1v1H15zM16 15h1v1H16zM3 17h1v1H3zM28 17h1v1H28zM3 18h1v1H3zM4 18h1v1H4zM27 18h1v1H27zM28 18h1v1H28zM4 19h1v1H4zM5 19h1v1H5zM26 19h1v1H26zM27 19h1v1H27zM5 20h1v1H5zM6 20h1v1H6zM25 20h1v1H25zM26 20h1v1H26zM6 21h1v1H6zM25 21h1v1H25zM4 22h1v1H4zM11 22h1v1H11zM20 22h1v1H20zM27 22h1v1H27zM4 23h1v1H4zM5 23h1v1H5zM26 23h1v1H26zM27 23h1v1H27zM4 24h1v1H4zM5 24h1v1H5zM6 24h1v1H6zM25 24h1v1H25zM26 24h1v1H26zM27 24h1v1H27zM4 25h1v1H4zM5 25h1v1H5zM6 25h1v1H6zM7 25h1v1H7zM24 25h1v1H24zM25 25h1v1H25zM26 25h1v1H26zM27 25h1v1H27zM3 26h1v1H3zM4 26h1v1H4zM5 26h1v1H5zM6 26h1v1H6zM7 26h1v1H7zM10 26h1v1H10zM11 26h1v1H11zM15 26h1v1H15zM16 26h1v1H16zM20 26h1v1H20zM21 26h1v1H21zM24 26h1v1H24zM25 26h1v1H25zM26 26h1v1H26zM27 26h1v1H27zM28 26h1v1H28zM4 27h1v1H4zM7 27h1v1H7zM8 27h1v1H8zM11 27h1v1H11zM12 27h1v1H12zM19 27h1v1H19zM20 27h1v1H20zM23 27h1v1H23zM24 27h1v1H24zM27 27h1v1H27zM8 28h1v1H8zM9 28h1v1H9zM12 28h1v1H12zM13 28h1v1H13zM18 28h1v1H18zM19 28h1v1H19zM22 28h1v1H22zM23 28h1v1H23zM9 29h1v1H9zM10 29h1v1H10zM21 29h1v1H21zM22 29h1v1H22z"/><path fill="#f83e85" d="M9 1h1v1H9zM10 1h1v1H10zM4 2h1v1H4zM8 2h1v1H8zM9 2h1v1H9zM10 2h1v1H10zM3 3h1v1H3zM7 3h1v1H7zM8 3h1v1H8zM9 3h1v1H9zM14 3h1v1H14zM2 4h1v1H2zM6 4h1v1H6zM7 4h1v1H7zM8 4h1v1H8zM14 4h1v1H14zM15 4h1v1H15zM7 5h1v1H7zM13 5h1v1H13zM14 5h1v1H14zM17 5h1v1H17zM18 5h1v1H18zM2 6h1v1H2zM12 6h1v1H12zM13 6h1v1H13zM18 6h1v1H18zM1 7h1v1H1zM2 7h1v1H2zM9 7h1v1H9zM10 7h1v1H10zM11 7h1v1H11zM12 7h1v1H12zM18 7h1v1H18zM19 7h1v1H19zM20 7h1v1H20zM0 8h1v1H0zM2 8h1v1H2zM3 8h1v1H3zM6 8h1v1H6zM7 8h1v1H7zM8 8h1v1H8zM9 8h1v1H9zM10 8h1v1H10zM15 8h1v1H15zM16 8h1v1H16zM18 8h1v1H18zM20 8h1v1H20zM0 9h1v1H0zM1 9h1v1H1zM3 9h1v1H3zM5 9h1v1H5zM6 9h1v1H6zM7 9h1v1H7zM8 9h1v1H8zM6 11h1v1H6zM7 11h1v1H7zM8 11h1v1H8zM11 11h1v1H11zM12 11h1v1H12zM13 11h1v1H13zM15 11h1v1H15zM16 11h1v1H16zM18 11h1v1H18zM19 11h1v1H19zM20 11h1v1H20zM23 11h1v1H23zM24 11h1v1H24zM25 11h1v1H25zM9 12h1v1H9zM11 12h1v1H11zM15 12h1v1H15zM16 12h1v1H16zM20 12h1v1H20zM22 12h1v1H22zM12 13h1v1H12zM13 13h1v1H13zM18 13h1v1H18zM19 13h1v1H19zM4 14h1v1H4zM5 14h1v1H5zM26 14h1v1H26zM27 14h1v1H27zM4 15h1v1H4zM5 15h1v1H5zM6 15h1v1H6zM7 15h1v1H7zM8 15h1v1H8zM9 15h1v1H9zM10 15h1v1H10zM21 15h1v1H21zM22 15h1v1H22zM23 15h1v1H23zM24 15h1v1H24zM25 15h1v1H25zM26 15h1v1H26zM27 15h1v1H27zM5 16h1v1H5zM6 16h1v1H6zM9 16h1v1H9zM22 16h1v1H22zM25 16h1v1H25zM26 16h1v1H26zM6 17h1v1H6zM25 17h1v1H25zM7 18h1v1H7zM24 18h1v1H24zM3 19h1v1H3zM7 19h1v1H7zM24 19h1v1H24zM28 19h1v1H28zM3 20h1v1H3zM4 20h1v1H4zM27 20h1v1H27zM28 20h1v1H28zM3 21h1v1H3zM4 21h1v1H4zM5 21h1v1H5zM26 21h1v1H26zM27 21h1v1H27zM28 21h1v1H28zM5 22h1v1H5zM6 22h1v1H6zM25 22h1v1H25zM26 22h1v1H26zM6 23h1v1H6zM7 23h1v1H7zM24 23h1v1H24zM25 23h1v1H25zM7 24h1v1H7zM8 24h1v1H8zM10 24h1v1H10zM11 24h1v1H11zM20 24h1v1H20zM21 24h1v1H21zM23 24h1v1H23zM24 24h1v1H24zM8 25h1v1H8zM9 25h1v1H9zM10 25h1v1H10zM11 25h1v1H11zM12 25h1v1H12zM13 25h1v1H13zM15 25h1v1H15zM16 25h1v1H16zM18 25h1v1H18zM19 25h1v1H19zM20 25h1v1H20zM21 25h1v1H21zM22 25h1v1H22zM23 25h1v1H23zM8 26h1v1H8zM9 26h1v1H9zM12 26h1v1H12zM13 26h1v1H13zM14 26h1v1H14zM17 26h1v1H17zM18 26h1v1H18zM19 26h1v1H19zM22 26h1v1H22zM23 26h1v1H23zM5 27h1v1H5zM9 27h1v1H9zM10 27h1v1H10zM13 27h1v1H13zM14 27h1v1H14zM17 27h1v1H17zM18 27h1v1H18zM21 27h1v1H21zM22 27h1v1H22zM26 27h1v1H26zM3 28h1v1H3zM6 28h1v1H6zM10 28h1v1H10zM11 28h1v1H11zM15 28h1v1H15zM16 28h1v1H16zM20 28h1v1H20zM21 28h1v1H21zM25 28h1v1H25zM28 28h1v1H28zM4 29h1v1H4zM5 29h1v1H5zM6 29h1v1H6zM7 29h1v1H7zM11 29h1v1H11zM12 29h1v1H12zM13 29h1v1H13zM18 29h1v1H18zM19 29h1v1H19zM20 29h1v1H20zM24 29h1v1H24zM25 29h1v1H25zM26 29h1v1H26zM27 29h1v1H27zM9 30h1v1H9zM10 30h1v1H10zM11 30h1v1H11zM12 30h1v1H12zM19 30h1v1H19zM20 30h1v1H20zM21 30h1v1H21zM22 30h1v1H22z"/><path fill="#fba5be" d="M13 3h1v1H13zM13 4h1v1H13zM2 5h1v1H2zM4 5h1v1H4zM5 5h1v1H5zM12 5h1v1H12zM15 5h1v1H15zM16 5h1v1H16zM6 6h1v1H6zM11 6h1v1H11zM14 6h1v1H14zM6 7h1v1H6zM7 7h1v1H7zM8 7h1v1H8zM13 7h1v1H13zM17 7h1v1H17zM11 8h1v1H11zM12 8h1v1H12zM19 8h1v1H19zM4 9h1v1H4zM9 9h1v1H9zM10 9h1v1H10zM14 9h1v1H14zM17 9h1v1H17zM21 9h1v1H21zM5 10h1v1H5zM23 10h1v1H23zM5 11h1v1H5zM7 12h1v1H7zM8 12h1v1H8zM14 12h1v1H14zM17 12h1v1H17zM23 12h1v1H23zM24 12h1v1H24zM3 13h1v1H3zM7 13h1v1H7zM8 13h1v1H8zM14 13h1v1H14zM17 13h1v1H17zM23 13h1v1H23zM24 13h1v1H24zM28 13h1v1H28zM3 14h1v1H3zM6 14h1v1H6zM7 14h1v1H7zM9 14h1v1H9zM22 14h1v1H22zM24 14h1v1H24zM25 14h1v1H25zM28 14h1v1H28zM3 15h1v1H3zM28 15h1v1H28zM3 16h1v1H3zM4 16h1v1H4zM7 16h1v1H7zM8 16h1v1H8zM15 16h1v1H15zM16 16h1v1H16zM23 16h1v1H23zM24 16h1v1H24zM27 16h1v1H27zM28 16h1v1H28zM4 17h1v1H4zM5 17h1v1H5zM7 17h1v1H7zM8 17h1v1H8zM23 17h1v1H23zM24 17h1v1H24zM26 17h1v1H26zM27 17h1v1H27zM5 18h1v1H5zM6 18h1v1H6zM25 18h1v1H25zM26 18h1v1H26zM6 19h1v1H6zM25 19h1v1H25zM7 20h1v1H7zM24 20h1v1H24zM7 21h1v1H7zM24 21h1v1H24zM3 22h1v1H3zM7 22h1v1H7zM8 22h1v1H8zM23 22h1v1H23zM24 22h1v1H24zM28 22h1v1H28zM3 23h1v1H3zM8 23h1v1H8zM9 23h1v1H9zM22 23h1v1H22zM23 23h1v1H23zM28 23h1v1H28zM9 24h1v1H9zM12 24h1v1H12zM15 24h1v1H15zM16 24h1v1H16zM19 24h1v1H19zM22 24h1v1H22zM14 25h1v1H14zM17 25h1v1H17zM3 27h1v1H3zM6 27h1v1H6zM15 27h1v1H15zM16 27h1v1H16zM25 27h1v1H25zM28 27h1v1H28zM7 28h1v1H7zM24 28h1v1H24zM8 29h1v1H8zM23 29h1v1H23zM8 30h1v1H8zM23 30h1v1H23z"/><path fill="#841b49" d="M1 6h1v1H1zM2 9h1v1H2zM1 10h1v1H1zM2 10h1v1H2zM4 10h1v1H4zM4 11h1v1H4zM14 29h1v1H14zM17 29h1v1H17zM4 30h1v1H4zM5 30h1v1H5zM6 30h1v1H6zM7 30h1v1H7zM15 30h1v1H15zM16 30h1v1H16zM24 30h1v1H24zM25 30h1v1H25zM26 30h1v1H26zM27 30h1v1H27z"/><path fill="#fdfbf5" d="M24 6h1v1H24zM25 6h1v1H25zM26 6h1v1H26zM27 6h1v1H27zM28 6h1v1H28zM24 7h1v1H24zM25 7h1v1H25zM26 7h1v1H26zM27 7h1v1H27zM28 7h1v1H28zM29 7h1v1H29zM25 8h1v1H25zM26 8h1v1H26zM27 8h1v1H27zM28 8h1v1H28zM29 8h1v1H29z"/><path fill="#f4eadc" d="M23 8h1v1H23zM24 8h1v1H24zM23 9h1v1H23zM24 9h1v1H24zM24 10h1v1H24z"/><path fill="#e3d3c0" d="M26 9h1v1H26zM27 9h1v1H27zM28 9h1v1H28zM29 9h1v1H29zM26 10h1v1H26zM27 10h1v1H27zM28 10h1v1H28zM29 10h1v1H29zM26 11h1v1H26zM27 11h1v1H27zM28 11h1v1H28z"/><path fill="#000000" d="M10 16h1v1H10zM11 16h1v1H11zM12 16h1v1H12zM13 16h1v1H13zM14 16h1v1H14zM17 16h1v1H17zM18 16h1v1H18zM19 16h1v1H19zM20 16h1v1H20zM21 16h1v1H21zM9 17h1v1H9zM10 17h1v1H10zM13 17h1v1H13zM14 17h1v1H14zM15 17h1v1H15zM16 17h1v1H16zM17 17h1v1H17zM18 17h1v1H18zM21 17h1v1H21zM22 17h1v1H22zM8 18h1v1H8zM9 18h1v1H9zM14 18h1v1H14zM15 18h1v1H15zM16 18h1v1H16zM17 18h1v1H17zM22 18h1v1H22zM23 18h1v1H23zM8 19h1v1H8zM9 19h1v1H9zM14 19h1v1H14zM15 19h1v1H15zM16 19h1v1H16zM17 19h1v1H17zM22 19h1v1H22zM23 19h1v1H23zM8 20h1v1H8zM9 20h1v1H9zM14 20h1v1H14zM15 20h1v1H15zM16 20h1v1H16zM17 20h1v1H17zM22 20h1v1H22zM23 20h1v1H23zM8 21h1v1H8zM9 21h1v1H9zM10 21h1v1H10zM14 21h1v1H14zM15 21h1v1H15zM16 21h1v1H16zM17 21h1v1H17zM21 21h1v1H21zM22 21h1v1H22zM23 21h1v1H23zM9 22h1v1H9zM10 22h1v1H10zM14 22h1v1H14zM15 22h1v1H15zM16 22h1v1H16zM17 22h1v1H17zM21 22h1v1H21zM22 22h1v1H22zM10 23h1v1H10zM11 23h1v1H11zM12 23h1v1H12zM13 23h1v1H13zM14 23h1v1H14zM15 23h1v1H15zM16 23h1v1H16zM17 23h1v1H17zM18 23h1v1H18zM19 23h1v1H19zM20 23h1v1H20zM21 23h1v1H21zM13 24h1v1H13zM14 24h1v1H14zM17 24h1v1H17zM18 24h1v1H18z"/><path fill="#ffffff" d="M11 17h1v1H11zM12 17h1v1H12zM19 17h1v1H19zM20 17h1v1H20zM11 18h1v1H11zM12 18h1v1H12zM13 18h1v1H13zM18 18h1v1H18zM19 18h1v1H19zM20 18h1v1H20zM11 19h1v1H11zM12 19h1v1H12zM19 19h1v1H19zM20 19h1v1H20zM11 20h1v1H11zM12 20h1v1H12zM19 20h1v1H19zM20 20h1v1H20zM11 21h1v1H11zM12 21h1v1H12zM19 21h1v1H19zM20 21h1v1H20zM12 22h1v1H12zM13 22h1v1H13zM18 22h1v1H18zM19 22h1v1H19z"/><path fill="#f2aaba" d="M10 18h1v1H10zM21 18h1v1H21z"/><path fill="#e26888" d="M10 19h1v1H10zM21 19h1v1H21zM13 21h1v1H13zM18 21h1v1H18z"/><path fill="#030202" d="M13 19h1v1H13zM18 19h1v1H18zM13 20h1v1H13zM18 20h1v1H18z"/><path fill="#a82b51" d="M10 20h1v1H10zM21 20h1v1H21z"/></svg>
