<svg xmlns="http://www.w3.org/2000/svg" viewBox="0 0 32 32" shape-rendering="crispEdges"><path fill="#028d7d" d="M8 0h1v1H8zM9 0h1v1H9zM15 0h1v1H15zM16 0h1v1H16zM22 0h1v1H22zM23 0h1v1H23zM8 1h1v1H8zM23 1h1v1H23zM13 3h1v1H13zM18 3h1v1H18zM13 4h1v1H13zM18 4h1v1H18zM7 5h1v1H7zM14 5h1v1H14zM17 5h1v1H17zM24 5h1v1H24zM3 7h1v1H3zM6 7h1v1H6zM15 7h1v1H15zM16 7h1v1H16zM25 7h1v1H25zM28 7h1v1H28zM4 9h1v1H4zM7 9h1v1H7zM12 9h1v1H12zM19 9h1v1H19zM24 9h1v1H24zM27 9h1v1H27zM4 10h1v1H4zM5 10h1v1H5zM11 10h1v1H11zM20 10h1v1H20zM26 10h1v1H26zM27 10h1v1H27zM4 13h1v1H4zM27 13h1v1H27zM5 14h1v1H5zM11 14h1v1H11zM20 14h1v1H20zM26 14h1v1H26zM6 15h1v1H6zM25 15h1v1H25zM10 17h1v1H10zM21 17h1v1H21zM3 18h1v1H3zM7 18h1v1H7zM24 18h1v1H24zM28 18h1v1H28zM7 19h1v1H7zM24 19h1v1H24zM2 20h1v1H2zM7 20h1v1H7zM13 20h1v1H13zM18 20h1v1H18zM24 20h1v1H24zM29 20h1v1H29zM2 21h1v1H2zM4 21h1v1H4zM8 21h1v1H8zM23 21h1v1H23zM27 21h1v1H27zM29 21h1v1H29zM1 23h1v1H1zM9 23h1v1H9zM22 23h1v1H22zM30 23h1v1H30zM1 24h1v1H1zM30 24h1v1H30zM4 25h1v1H4zM7 25h1v1H7zM24 25h1v1H24zM27 25h1v1H27zM5 28h1v1H5zM9 28h1v1H9zM22 28h1v1H22zM26 28h1v1H26zM10 29h1v1H10zM14 29h1v1H14zM17 29h1v1H17zM21 29h1v1H21z"/><path fill="#79c92d" d="M4 1h1v1H4zM5 1h1v1H5zM26 1h1v1H26zM27 1h1v1H27zM5 2h1v1H5zM26 2h1v1H26zM3 4h1v1H3zM28 4h1v1H28zM6 5h1v1H6zM25 5h1v1H25zM4 6h1v1H4zM27 6h1v1H27zM12 8h1v1H12zM19 8h1v1H19zM5 9h1v1H5zM6 9h1v1H6zM25 9h1v1H25zM26 9h1v1H26zM6 10h1v1H6zM25 10h1v1H25zM7 12h1v1H7zM24 12h1v1H24zM8 13h1v1H8zM23 13h1v1H23zM9 14h1v1H9zM22 14h1v1H22zM8 18h1v1H8zM23 18h1v1H23zM6 20h1v1H6zM25 20h1v1H25zM9 21h1v1H9zM22 21h1v1H22zM10 22h1v1H10zM21 22h1v1H21zM4 23h1v1H4zM27 23h1v1H27zM8 25h1v1H8zM11 25h1v1H11zM20 25h1v1H20zM23 25h1v1H23z"/><path fill="#5de0bd" d="M9 1h1v1H9zM22 1h1v1H22zM9 2h1v1H9zM22 2h1v1H22zM12 4h1v1H12zM15 4h1v1H15zM16 4h1v1H16zM19 4h1v1H19zM10 5h1v1H10zM21 5h1v1H21zM6 6h1v1H6zM16 6h1v1H16zM25 6h1v1H25zM14 8h1v1H14zM17 8h1v1H17zM8 9h1v1H8zM23 9h1v1H23zM15 11h1v1H15zM16 11h1v1H16zM13 21h1v1H13zM18 21h1v1H18zM2 24h1v1H2zM29 24h1v1H29zM16 25h1v1H16z"/><path fill="#39c3a6" d="M10 1h1v1H10zM21 1h1v1H21zM15 2h1v1H15zM16 2h1v1H16zM11 3h1v1H11zM20 3h1v1H20zM11 4h1v1H11zM20 4h1v1H20zM12 5h1v1H12zM15 5h1v1H15zM16 5h1v1H16zM19 5h1v1H19zM10 6h1v1H10zM15 6h1v1H15zM21 6h1v1H21zM8 10h1v1H8zM16 10h1v1H16zM23 10h1v1H23zM14 15h1v1H14zM17 15h1v1H17zM3 17h1v1H3zM28 17h1v1H28zM3 23h1v1H3zM28 23h1v1H28zM15 24h1v1H15zM4 26h1v1H4zM27 26h1v1H27zM3 27h1v1H3zM4 27h1v1H4zM5 27h1v1H5zM26 27h1v1H26zM27 27h1v1H27zM28 27h1v1H28z"/><path fill="#ffffff" d="M15 1h1v1H15zM16 1h1v1H16zM14 2h1v1H14zM17 2h1v1H17zM11 5h1v1H11zM20 5h1v1H20zM7 6h1v1H7zM12 6h1v1H12zM19 6h1v1H19zM24 6h1v1H24zM3 8h1v1H3zM28 8h1v1H28zM3 10h1v1H3zM9 10h1v1H9zM22 10h1v1H22zM28 10h1v1H28zM4 11h1v1H4zM5 11h1v1H5zM9 11h1v1H9zM11 11h1v1H11zM20 11h1v1H20zM22 11h1v1H22zM26 11h1v1H26zM27 11h1v1H27zM4 12h1v1H4zM5 12h1v1H5zM26 12h1v1H26zM27 12h1v1H27zM13 14h1v1H13zM18 14h1v1H18zM11 16h1v1H11zM12 16h1v1H12zM19 16h1v1H19zM20 16h1v1H20zM6 17h1v1H6zM11 17h1v1H11zM13 17h1v1H13zM18 17h1v1H18zM20 17h1v1H20zM25 17h1v1H25zM6 18h1v1H6zM11 18h1v1H11zM20 18h1v1H20zM25 18h1v1H25zM3 19h1v1H3zM10 19h1v1H10zM11 19h1v1H11zM20 19h1v1H20zM21 19h1v1H21zM28 19h1v1H28zM10 20h1v1H10zM11 20h1v1H11zM20 20h1v1H20zM21 20h1v1H21zM6 21h1v1H6zM11 21h1v1H11zM12 21h1v1H12zM19 21h1v1H19zM20 21h1v1H20zM25 21h1v1H25zM12 22h1v1H12zM13 22h1v1H13zM18 22h1v1H18zM19 22h1v1H19zM2 23h1v1H2zM29 23h1v1H29zM4 24h1v1H4zM9 24h1v1H9zM10 24h1v1H10zM21 24h1v1H21zM22 24h1v1H22zM27 24h1v1H27zM13 25h1v1H13zM15 25h1v1H15zM18 25h1v1H18zM16 26h1v1H16zM10 27h1v1H10zM13 27h1v1H13zM18 27h1v1H18zM21 27h1v1H21zM4 28h1v1H4zM11 28h1v1H11zM15 28h1v1H15zM16 28h1v1H16zM20 28h1v1H20zM27 28h1v1H27z"/><path fill="#2f6d1e" d="M4 2h1v1H4zM6 2h1v1H6zM25 2h1v1H25zM27 2h1v1H27zM5 4h1v1H5zM26 4h1v1H26zM3 5h1v1H3zM4 5h1v1H4zM5 5h1v1H5zM26 5h1v1H26zM27 5h1v1H27zM28 5h1v1H28zM4 7h1v1H4zM27 7h1v1H27zM3 12h1v1H3zM28 12h1v1H28zM2 13h1v1H2zM29 13h1v1H29zM4 15h1v1H4zM27 15h1v1H27zM5 17h1v1H5zM26 17h1v1H26zM8 19h1v1H8zM23 19h1v1H23zM8 20h1v1H8zM23 20h1v1H23zM5 22h1v1H5zM8 22h1v1H8zM23 22h1v1H23zM26 22h1v1H26zM6 23h1v1H6zM25 23h1v1H25zM3 24h1v1H3zM28 24h1v1H28zM2 27h1v1H2zM29 27h1v1H29zM2 28h1v1H2zM29 28h1v1H29z"/><path fill="#086765" d="M8 2h1v1H8zM13 2h1v1H13zM18 2h1v1H18zM23 2h1v1H23zM7 3h1v1H7zM8 3h1v1H8zM12 3h1v1H12zM19 3h1v1H19zM23 3h1v1H23zM24 3h1v1H24zM8 4h1v1H8zM23 4h1v1H23zM8 5h1v1H8zM23 5h1v1H23zM9 6h1v1H9zM13 6h1v1H13zM14 6h1v1H14zM17 6h1v1H17zM18 6h1v1H18zM22 6h1v1H22zM1 7h1v1H1zM2 7h1v1H2zM8 7h1v1H8zM11 7h1v1H11zM13 7h1v1H13zM18 7h1v1H18zM20 7h1v1H20zM23 7h1v1H23zM29 7h1v1H29zM30 7h1v1H30zM1 8h1v1H1zM6 8h1v1H6zM8 8h1v1H8zM13 8h1v1H13zM18 8h1v1H18zM23 8h1v1H23zM25 8h1v1H25zM30 8h1v1H30zM1 9h1v1H1zM10 9h1v1H10zM14 9h1v1H14zM17 9h1v1H17zM21 9h1v1H21zM30 9h1v1H30zM2 10h1v1H2zM7 10h1v1H7zM24 10h1v1H24zM29 10h1v1H29zM3 11h1v1H3zM7 11h1v1H7zM14 11h1v1H14zM17 11h1v1H17zM24 11h1v1H24zM28 11h1v1H28zM14 12h1v1H14zM17 12h1v1H17zM10 13h1v1H10zM15 13h1v1H15zM16 13h1v1H16zM21 13h1v1H21zM1 14h1v1H1zM3 14h1v1H3zM28 14h1v1H28zM30 14h1v1H30zM15 15h1v1H15zM16 15h1v1H16zM6 16h1v1H6zM10 16h1v1H10zM21 16h1v1H21zM25 16h1v1H25zM2 17h1v1H2zM7 17h1v1H7zM24 17h1v1H24zM29 17h1v1H29zM1 18h1v1H1zM5 18h1v1H5zM26 18h1v1H26zM30 18h1v1H30zM1 19h1v1H1zM12 19h1v1H12zM19 19h1v1H19zM30 19h1v1H30zM1 20h1v1H1zM30 20h1v1H30zM7 21h1v1H7zM24 21h1v1H24zM3 22h1v1H3zM4 22h1v1H4zM9 22h1v1H9zM22 22h1v1H22zM27 22h1v1H27zM28 22h1v1H28zM10 23h1v1H10zM21 23h1v1H21zM5 24h1v1H5zM6 24h1v1H6zM25 24h1v1H25zM26 24h1v1H26zM1 25h1v1H1zM2 25h1v1H2zM14 25h1v1H14zM17 25h1v1H17zM29 25h1v1H29zM30 25h1v1H30zM3 26h1v1H3zM7 26h1v1H7zM10 26h1v1H10zM14 26h1v1H14zM17 26h1v1H17zM21 26h1v1H21zM24 26h1v1H24zM28 26h1v1H28zM6 27h1v1H6zM11 27h1v1H11zM15 27h1v1H15zM16 27h1v1H16zM20 27h1v1H20zM25 27h1v1H25zM3 28h1v1H3zM6 28h1v1H6zM8 28h1v1H8zM12 28h1v1H12zM19 28h1v1H19zM23 28h1v1H23zM25 28h1v1H25zM28 28h1v1H28zM3 29h1v1H3zM4 29h1v1H4zM5 29h1v1H5zM7 29h1v1H7zM13 29h1v1H13zM18 29h1v1H18zM24 29h1v1H24zM26 29h1v1H26zM27 29h1v1H27zM28 29h1v1H28zM7 30h1v1H7zM11 30h1v1H11zM14 30h1v1H14zM17 30h1v1H17zM20 30h1v1H20zM24 30h1v1H24z"/><path fill="#d9fff5" d="M10 2h1v1H10zM21 2h1v1H21zM6 3h1v1H6zM9 3h1v1H9zM10 3h1v1H10zM21 3h1v1H21zM22 3h1v1H22zM25 3h1v1H25zM9 4h1v1H9zM10 4h1v1H10zM21 4h1v1H21zM22 4h1v1H22zM9 5h1v1H9zM22 5h1v1H22zM2 12h1v1H2zM29 12h1v1H29zM2 15h1v1H2zM3 15h1v1H3zM28 15h1v1H28zM29 15h1v1H29zM2 16h1v1H2zM3 16h1v1H3zM28 16h1v1H28zM29 16h1v1H29zM8 24h1v1H8zM23 24h1v1H23zM3 25h1v1H3zM5 25h1v1H5zM6 25h1v1H6zM25 25h1v1H25zM26 25h1v1H26zM28 25h1v1H28zM5 26h1v1H5zM6 26h1v1H6zM25 26h1v1H25zM26 26h1v1H26z"/><path fill="#affbf1" d="M11 2h1v1H11zM20 2h1v1H20zM14 3h1v1H14zM17 3h1v1H17zM6 4h1v1H6zM25 4h1v1H25zM7 7h1v1H7zM14 7h1v1H14zM17 7h1v1H17zM24 7h1v1H24zM15 10h1v1H15zM11 12h1v1H11zM16 12h1v1H16zM20 12h1v1H20zM12 13h1v1H12zM19 13h1v1H19zM15 16h1v1H15zM16 16h1v1H16zM4 17h1v1H4zM27 17h1v1H27zM3 21h1v1H3zM28 21h1v1H28zM15 22h1v1H15zM16 22h1v1H16zM14 23h1v1H14zM17 23h1v1H17zM8 29h1v1H8zM9 29h1v1H9zM22 29h1v1H22zM23 29h1v1H23zM10 30h1v1H10zM21 30h1v1H21z"/><path fill="#4f9b25" d="M5 3h1v1H5zM26 3h1v1H26zM4 8h1v1H4zM5 8h1v1H5zM26 8h1v1H26zM27 8h1v1H27zM2 11h1v1H2zM6 11h1v1H6zM25 11h1v1H25zM29 11h1v1H29zM6 12h1v1H6zM25 12h1v1H25zM7 13h1v1H7zM24 13h1v1H24zM8 14h1v1H8zM23 14h1v1H23zM5 15h1v1H5zM8 15h1v1H8zM23 15h1v1H23zM26 15h1v1H26zM8 16h1v1H8zM23 16h1v1H23zM2 18h1v1H2zM29 18h1v1H29zM2 19h1v1H2zM29 19h1v1H29zM3 20h1v1H3zM28 20h1v1H28zM7 24h1v1H7zM11 24h1v1H11zM12 24h1v1H12zM13 24h1v1H13zM18 24h1v1H18zM19 24h1v1H19zM20 24h1v1H20zM24 24h1v1H24zM9 25h1v1H9zM10 25h1v1H10zM21 25h1v1H21zM22 25h1v1H22zM11 26h1v1H11zM20 26h1v1H20z"/><path fill="#1fae8d" d="M15 3h1v1H15zM16 3h1v1H16zM13 5h1v1H13zM18 5h1v1H18zM5 6h1v1H5zM26 6h1v1H26zM2 8h1v1H2zM29 8h1v1H29zM2 9h1v1H2zM3 9h1v1H3zM9 9h1v1H9zM22 9h1v1H22zM28 9h1v1H28zM29 9h1v1H29zM10 10h1v1H10zM12 10h1v1H12zM19 10h1v1H19zM21 10h1v1H21zM10 11h1v1H10zM21 11h1v1H21zM10 14h1v1H10zM21 14h1v1H21zM15 17h1v1H15zM16 17h1v1H16zM4 18h1v1H4zM10 18h1v1H10zM15 18h1v1H15zM16 18h1v1H16zM21 18h1v1H21zM27 18h1v1H27zM15 19h1v1H15zM16 19h1v1H16zM12 20h1v1H12zM15 20h1v1H15zM16 20h1v1H16zM19 20h1v1H19zM15 21h1v1H15zM16 21h1v1H16zM16 24h1v1H16zM8 30h1v1H8zM9 30h1v1H9zM22 30h1v1H22zM23 30h1v1H23z"/><path fill="#7ff4d3" d="M7 4h1v1H7zM14 4h1v1H14zM17 4h1v1H17zM24 4h1v1H24zM7 8h1v1H7zM24 8h1v1H24zM13 9h1v1H13zM18 9h1v1H18zM15 12h1v1H15zM15 26h1v1H15z"/><path fill="#b77a34" d="M8 6h1v1H8zM23 6h1v1H23zM15 8h1v1H15zM16 8h1v1H16zM8 12h1v1H8zM10 12h1v1H10zM21 12h1v1H21zM23 12h1v1H23zM6 13h1v1H6zM9 13h1v1H9zM22 13h1v1H22zM25 13h1v1H25zM7 14h1v1H7zM15 14h1v1H15zM16 14h1v1H16zM24 14h1v1H24zM13 23h1v1H13zM16 23h1v1H16zM18 23h1v1H18zM12 25h1v1H12zM19 25h1v1H19zM12 26h1v1H12zM19 26h1v1H19zM14 28h1v1H14zM17 28h1v1H17zM12 29h1v1H12zM19 29h1v1H19zM3 30h1v1H3zM13 30h1v1H13zM18 30h1v1H18zM28 30h1v1H28z"/><path fill="#a7e83b" d="M11 6h1v1H11zM20 6h1v1H20zM5 7h1v1H5zM12 7h1v1H12zM19 7h1v1H19zM26 7h1v1H26zM3 13h1v1H3zM28 13h1v1H28zM4 14h1v1H4zM27 14h1v1H27zM5 16h1v1H5zM26 16h1v1H26zM8 17h1v1H8zM23 17h1v1H23zM4 19h1v1H4zM27 19h1v1H27zM4 20h1v1H4zM5 20h1v1H5zM26 20h1v1H26zM27 20h1v1H27zM5 21h1v1H5zM26 21h1v1H26zM6 22h1v1H6zM7 22h1v1H7zM24 22h1v1H24zM25 22h1v1H25zM5 23h1v1H5zM7 23h1v1H7zM8 23h1v1H8zM11 23h1v1H11zM12 23h1v1H12zM19 23h1v1H19zM20 23h1v1H20zM23 23h1v1H23zM24 23h1v1H24zM26 23h1v1H26zM2 26h1v1H2zM29 26h1v1H29zM15 30h1v1H15zM16 30h1v1H16z"/><path fill="#d7a25a" d="M9 7h1v1H9zM22 7h1v1H22zM10 8h1v1H10zM21 8h1v1H21zM11 9h1v1H11zM20 9h1v1H20zM14 10h1v1H14zM17 10h1v1H17zM13 11h1v1H13zM18 11h1v1H18zM13 12h1v1H13zM18 12h1v1H18zM4 16h1v1H4zM27 16h1v1H27zM5 19h1v1H5zM26 19h1v1H26zM15 23h1v1H15zM14 24h1v1H14zM17 24h1v1H17zM9 26h1v1H9zM13 26h1v1H13zM18 26h1v1H18zM22 26h1v1H22zM6 29h1v1H6zM25 29h1v1H25zM4 30h1v1H4zM6 30h1v1H6zM25 30h1v1H25zM27 30h1v1H27z"/><path fill="#8a5523" d="M10 7h1v1H10zM21 7h1v1H21zM9 8h1v1H9zM22 8h1v1H22zM15 9h1v1H15zM8 11h1v1H8zM23 11h1v1H23zM9 12h1v1H9zM22 12h1v1H22zM5 13h1v1H5zM11 13h1v1H11zM14 13h1v1H14zM17 13h1v1H17zM20 13h1v1H20zM26 13h1v1H26zM6 14h1v1H6zM12 14h1v1H12zM19 14h1v1H19zM25 14h1v1H25zM7 15h1v1H7zM13 15h1v1H13zM18 15h1v1H18zM24 15h1v1H24zM7 16h1v1H7zM24 16h1v1H24zM6 19h1v1H6zM25 19h1v1H25zM8 27h1v1H8zM9 27h1v1H9zM14 27h1v1H14zM17 27h1v1H17zM22 27h1v1H22zM23 27h1v1H23zM7 28h1v1H7zM10 28h1v1H10zM21 28h1v1H21zM24 28h1v1H24zM11 29h1v1H11zM15 29h1v1H15zM16 29h1v1H16zM20 29h1v1H20zM12 30h1v1H12zM19 30h1v1H19z"/><path fill="#000000" d="M11 8h1v1H11zM20 8h1v1H20zM9 15h1v1H9zM10 15h1v1H10zM11 15h1v1H11zM12 15h1v1H12zM19 15h1v1H19zM20 15h1v1H20zM21 15h1v1H21zM22 15h1v1H22zM9 16h1v1H9zM13 16h1v1H13zM14 16h1v1H14zM17 16h1v1H17zM18 16h1v1H18zM22 16h1v1H22zM9 17h1v1H9zM12 17h1v1H12zM14 17h1v1H14zM17 17h1v1H17zM19 17h1v1H19zM22 17h1v1H22zM9 18h1v1H9zM12 18h1v1H12zM13 18h1v1H13zM14 18h1v1H14zM17 18h1v1H17zM18 18h1v1H18zM19 18h1v1H19zM22 18h1v1H22zM9 19h1v1H9zM13 19h1v1H13zM14 19h1v1H14zM17 19h1v1H17zM18 19h1v1H18zM22 19h1v1H22zM9 20h1v1H9zM14 20h1v1H14zM17 20h1v1H17zM22 20h1v1H22zM10 21h1v1H10zM14 21h1v1H14zM17 21h1v1H17zM21 21h1v1H21zM11 22h1v1H11zM14 22h1v1H14zM17 22h1v1H17zM20 22h1v1H20z"/><path fill="#5a3518" d="M16 9h1v1H16zM13 10h1v1H13zM18 10h1v1H18zM12 11h1v1H12zM19 11h1v1H19zM12 12h1v1H12zM19 12h1v1H19zM13 13h1v1H13zM18 13h1v1H18zM14 14h1v1H14zM17 14h1v1H17zM8 26h1v1H8zM23 26h1v1H23zM7 27h1v1H7zM12 27h1v1H12zM19 27h1v1H19zM24 27h1v1H24zM13 28h1v1H13zM18 28h1v1H18zM5 30h1v1H5zM26 30h1v1H26z"/><path fill="#6de4f4" d="M2 14h1v1H2zM29 14h1v1H29zM1 15h1v1H1zM30 15h1v1H30z"/></svg>
