<svg xmlns="http://www.w3.org/2000/svg" viewBox="0 0 32 32" shape-rendering="crispEdges"><path fill="#c2b3b1" d="M15 0h1v1H15zM16 0h1v1H16zM16 1h1v1H16zM17 3h1v1H17zM18 3h1v1H18zM18 4h1v1H18zM8 5h1v1H8zM9 5h1v1H9zM18 5h1v1H18zM22 5h1v1H22zM23 5h1v1H23zM5 7h1v1H5zM9 7h1v1H9zM22 7h1v1H22zM26 7h1v1H26zM4 8h1v1H4zM8 8h1v1H8zM23 8h1v1H23zM27 8h1v1H27zM3 9h1v1H3zM15 9h1v1H15zM16 9h1v1H16zM28 9h1v1H28zM2 10h1v1H2zM3 10h1v1H3zM7 10h1v1H7zM8 10h1v1H8zM23 10h1v1H23zM24 10h1v1H24zM28 10h1v1H28zM29 10h1v1H29zM8 11h1v1H8zM9 11h1v1H9zM22 11h1v1H22zM23 11h1v1H23zM9 12h1v1H9zM13 12h1v1H13zM18 12h1v1H18zM22 12h1v1H22zM12 13h1v1H12zM19 13h1v1H19zM2 15h1v1H2zM29 15h1v1H29zM3 16h1v1H3zM15 16h1v1H15zM16 16h1v1H16zM28 16h1v1H28zM2 17h1v1H2zM3 17h1v1H3zM28 17h1v1H28zM29 17h1v1H29zM10 18h1v1H10zM21 18h1v1H21zM2 19h1v1H2zM29 19h1v1H29zM15 25h1v1H15zM16 25h1v1H16zM9 26h1v1H9zM22 26h1v1H22zM9 27h1v1H9zM13 27h1v1H13zM18 27h1v1H18zM22 27h1v1H22zM14 28h1v1H14zM17 28h1v1H17z"/><path fill="#9a9494" d="M14 1h1v1H14zM15 1h1v1H15zM16 2h1v1H16zM17 2h1v1H17zM4 9h1v1H4zM8 9h1v1H8zM23 9h1v1H23zM27 9h1v1H27zM2 16h1v1H2zM29 16h1v1H29zM1 18h1v1H1zM2 18h1v1H2zM29 18h1v1H29zM30 18h1v1H30zM1 23h1v1H1zM30 23h1v1H30zM1 24h1v1H1zM30 24h1v1H30zM8 27h1v1H8zM23 27h1v1H23z"/><path fill="#565356" d="M14 2h1v1H14zM15 2h1v1H15zM16 3h1v1H16zM15 4h1v1H15zM17 4h1v1H17zM14 5h1v1H14zM15 5h1v1H15zM16 5h1v1H16zM17 5h1v1H17zM9 6h1v1H9zM10 6h1v1H10zM13 6h1v1H13zM14 6h1v1H14zM16 6h1v1H16zM21 6h1v1H21zM22 6h1v1H22zM10 7h1v1H10zM12 7h1v1H12zM13 7h1v1H13zM15 7h1v1H15zM21 7h1v1H21zM5 8h1v1H5zM9 8h1v1H9zM11 8h1v1H11zM20 8h1v1H20zM22 8h1v1H22zM26 8h1v1H26zM5 9h1v1H5zM9 9h1v1H9zM22 9h1v1H22zM26 9h1v1H26zM4 10h1v1H4zM15 10h1v1H15zM16 10h1v1H16zM27 10h1v1H27zM3 11h1v1H3zM4 11h1v1H4zM5 11h1v1H5zM14 11h1v1H14zM17 11h1v1H17zM26 11h1v1H26zM27 11h1v1H27zM28 11h1v1H28zM6 12h1v1H6zM8 12h1v1H8zM10 12h1v1H10zM12 12h1v1H12zM19 12h1v1H19zM21 12h1v1H21zM23 12h1v1H23zM25 12h1v1H25zM3 13h1v1H3zM5 13h1v1H5zM6 13h1v1H6zM13 13h1v1H13zM18 13h1v1H18zM25 13h1v1H25zM26 13h1v1H26zM28 13h1v1H28zM4 14h1v1H4zM5 14h1v1H5zM6 14h1v1H6zM13 14h1v1H13zM18 14h1v1H18zM25 14h1v1H25zM26 14h1v1H26zM27 14h1v1H27zM6 15h1v1H6zM14 15h1v1H14zM17 15h1v1H17zM25 15h1v1H25zM3 18h1v1H3zM28 18h1v1H28zM1 19h1v1H1zM3 19h1v1H3zM4 19h1v1H4zM8 19h1v1H8zM10 19h1v1H10zM21 19h1v1H21zM23 19h1v1H23zM27 19h1v1H27zM28 19h1v1H28zM30 19h1v1H30zM1 20h1v1H1zM2 20h1v1H2zM3 20h1v1H3zM4 20h1v1H4zM27 20h1v1H27zM28 20h1v1H28zM29 20h1v1H29zM30 20h1v1H30zM4 21h1v1H4zM13 21h1v1H13zM18 21h1v1H18zM27 21h1v1H27zM9 23h1v1H9zM22 23h1v1H22zM2 24h1v1H2zM10 24h1v1H10zM14 24h1v1H14zM15 24h1v1H15zM16 24h1v1H16zM17 24h1v1H17zM21 24h1v1H21zM29 24h1v1H29zM1 25h1v1H1zM2 25h1v1H2zM11 25h1v1H11zM12 25h1v1H12zM19 25h1v1H19zM20 25h1v1H20zM29 25h1v1H29zM30 25h1v1H30zM8 26h1v1H8zM14 26h1v1H14zM17 26h1v1H17zM23 26h1v1H23zM8 29h1v1H8zM15 29h1v1H15zM16 29h1v1H16zM23 29h1v1H23z"/><path fill="#2e2e2f" d="M15 3h1v1H15zM16 4h1v1H16zM15 6h1v1H15zM17 6h1v1H17zM18 6h1v1H18zM14 7h1v1H14zM16 7h1v1H16zM17 7h1v1H17zM10 8h1v1H10zM12 8h1v1H12zM13 8h1v1H13zM15 8h1v1H15zM16 8h1v1H16zM21 8h1v1H21zM10 9h1v1H10zM21 9h1v1H21zM9 10h1v1H9zM12 10h1v1H12zM13 10h1v1H13zM14 10h1v1H14zM17 10h1v1H17zM18 10h1v1H18zM19 10h1v1H19zM22 10h1v1H22zM2 11h1v1H2zM7 11h1v1H7zM10 11h1v1H10zM11 11h1v1H11zM13 11h1v1H13zM18 11h1v1H18zM20 11h1v1H20zM21 11h1v1H21zM24 11h1v1H24zM29 11h1v1H29zM4 12h1v1H4zM5 12h1v1H5zM7 12h1v1H7zM11 12h1v1H11zM20 12h1v1H20zM24 12h1v1H24zM26 12h1v1H26zM27 12h1v1H27zM4 13h1v1H4zM7 13h1v1H7zM8 13h1v1H8zM9 13h1v1H9zM10 13h1v1H10zM11 13h1v1H11zM20 13h1v1H20zM21 13h1v1H21zM22 13h1v1H22zM23 13h1v1H23zM24 13h1v1H24zM27 13h1v1H27zM8 14h1v1H8zM10 14h1v1H10zM21 14h1v1H21zM23 14h1v1H23zM9 15h1v1H9zM12 15h1v1H12zM19 15h1v1H19zM22 15h1v1H22zM9 16h1v1H9zM14 16h1v1H14zM17 16h1v1H17zM22 16h1v1H22zM15 17h1v1H15zM16 17h1v1H16zM5 18h1v1H5zM26 18h1v1H26zM5 19h1v1H5zM26 19h1v1H26zM7 20h1v1H7zM8 20h1v1H8zM23 20h1v1H23zM24 20h1v1H24zM2 21h1v1H2zM29 21h1v1H29zM3 22h1v1H3zM4 22h1v1H4zM9 22h1v1H9zM22 22h1v1H22zM27 22h1v1H27zM28 22h1v1H28zM5 23h1v1H5zM10 23h1v1H10zM21 23h1v1H21zM26 23h1v1H26zM4 24h1v1H4zM9 24h1v1H9zM11 24h1v1H11zM20 24h1v1H20zM22 24h1v1H22zM27 24h1v1H27zM4 25h1v1H4zM13 25h1v1H13zM14 25h1v1H14zM17 25h1v1H17zM18 25h1v1H18zM27 25h1v1H27zM7 26h1v1H7zM24 26h1v1H24zM2 27h1v1H2zM3 27h1v1H3zM7 27h1v1H7zM24 27h1v1H24zM28 27h1v1H28zM29 27h1v1H29zM3 28h1v1H3zM5 28h1v1H5zM9 28h1v1H9zM22 28h1v1H22zM26 28h1v1H26zM28 28h1v1H28zM10 29h1v1H10zM11 29h1v1H11zM20 29h1v1H20zM21 29h1v1H21zM5 30h1v1H5zM26 30h1v1H26z"/><path fill="#1e1e1e" d="M14 8h1v1H14zM11 9h1v1H11zM12 9h1v1H12zM13 9h1v1H13zM18 9h1v1H18zM19 9h1v1H19zM20 9h1v1H20zM10 10h1v1H10zM11 10h1v1H11zM20 10h1v1H20zM21 10h1v1H21zM12 11h1v1H12zM19 11h1v1H19zM7 14h1v1H7zM9 14h1v1H9zM12 14h1v1H12zM19 14h1v1H19zM22 14h1v1H22zM24 14h1v1H24zM5 15h1v1H5zM7 15h1v1H7zM8 15h1v1H8zM13 15h1v1H13zM18 15h1v1H18zM23 15h1v1H23zM24 15h1v1H24zM26 15h1v1H26zM5 16h1v1H5zM6 16h1v1H6zM7 16h1v1H7zM24 16h1v1H24zM25 16h1v1H25zM26 16h1v1H26zM4 17h1v1H4zM5 17h1v1H5zM6 17h1v1H6zM25 17h1v1H25zM26 17h1v1H26zM27 17h1v1H27zM4 18h1v1H4zM6 18h1v1H6zM25 18h1v1H25zM27 18h1v1H27zM6 19h1v1H6zM25 19h1v1H25zM5 20h1v1H5zM6 20h1v1H6zM10 20h1v1H10zM21 20h1v1H21zM25 20h1v1H25zM26 20h1v1H26zM3 21h1v1H3zM6 21h1v1H6zM25 21h1v1H25zM28 21h1v1H28zM6 22h1v1H6zM25 22h1v1H25zM4 23h1v1H4zM6 23h1v1H6zM25 23h1v1H25zM27 23h1v1H27zM5 24h1v1H5zM26 24h1v1H26zM3 25h1v1H3zM5 25h1v1H5zM26 25h1v1H26zM28 25h1v1H28zM2 26h1v1H2zM3 26h1v1H3zM4 26h1v1H4zM12 26h1v1H12zM13 26h1v1H13zM18 26h1v1H18zM19 26h1v1H19zM27 26h1v1H27zM28 26h1v1H28zM29 26h1v1H29zM4 27h1v1H4zM12 27h1v1H12zM19 27h1v1H19zM27 27h1v1H27zM4 28h1v1H4zM7 28h1v1H7zM24 28h1v1H24zM27 28h1v1H27zM4 29h1v1H4zM5 29h1v1H5zM7 29h1v1H7zM24 29h1v1H24zM26 29h1v1H26zM27 29h1v1H27zM6 30h1v1H6zM7 30h1v1H7zM8 30h1v1H8zM9 30h1v1H9zM10 30h1v1H10zM11 30h1v1H11zM12 30h1v1H12zM15 30h1v1H15zM16 30h1v1H16zM19 30h1v1H19zM20 30h1v1H20zM21 30h1v1H21zM22 30h1v1H22zM23 30h1v1H23zM24 30h1v1H24zM25 30h1v1H25z"/><path fill="#433f44" d="M14 9h1v1H14zM17 9h1v1H17zM3 12h1v1H3zM28 12h1v1H28zM14 14h1v1H14zM17 14h1v1H17zM7 19h1v1H7zM24 19h1v1H24zM5 21h1v1H5zM7 21h1v1H7zM24 21h1v1H24zM26 21h1v1H26zM5 22h1v1H5zM26 22h1v1H26zM10 25h1v1H10zM21 25h1v1H21zM8 28h1v1H8zM10 28h1v1H10zM21 28h1v1H21zM23 28h1v1H23zM9 29h1v1H9zM22 29h1v1H22z"/><path fill="#da121e" d="M15 11h1v1H15zM14 12h1v1H14zM17 12h1v1H17zM15 14h1v1H15zM16 14h1v1H16zM15 26h1v1H15zM15 28h1v1H15z"/><path fill="#940915" d="M16 11h1v1H16zM16 12h1v1H16zM16 13h1v1H16zM16 26h1v1H16zM16 28h1v1H16z"/><path fill="#fdf2f2" d="M15 12h1v1H15zM15 13h1v1H15zM15 27h1v1H15z"/><path fill="#4e1715" d="M14 13h1v1H14zM17 13h1v1H17zM15 15h1v1H15zM16 15h1v1H16zM8 16h1v1H8zM23 16h1v1H23zM7 17h1v1H7zM24 17h1v1H24zM6 24h1v1H6zM25 24h1v1H25zM6 26h1v1H6zM11 26h1v1H11zM20 26h1v1H20zM25 26h1v1H25zM6 27h1v1H6zM14 27h1v1H14zM17 27h1v1H17zM25 27h1v1H25zM13 28h1v1H13zM18 28h1v1H18zM6 29h1v1H6zM14 29h1v1H14zM17 29h1v1H17zM25 29h1v1H25z"/><path fill="#ad1512" d="M11 14h1v1H11zM20 14h1v1H20zM10 15h1v1H10zM11 15h1v1H11zM20 15h1v1H20zM21 15h1v1H21zM7 18h1v1H7zM8 18h1v1H8zM23 18h1v1H23zM24 18h1v1H24zM8 21h1v1H8zM23 21h1v1H23zM7 22h1v1H7zM8 22h1v1H8zM23 22h1v1H23zM24 22h1v1H24zM6 25h1v1H6zM7 25h1v1H7zM9 25h1v1H9zM22 25h1v1H22zM24 25h1v1H24zM25 25h1v1H25zM5 26h1v1H5zM26 26h1v1H26zM10 27h1v1H10zM11 27h1v1H11zM20 27h1v1H20zM21 27h1v1H21zM6 28h1v1H6zM11 28h1v1H11zM20 28h1v1H20zM25 28h1v1H25zM12 29h1v1H12zM19 29h1v1H19zM13 30h1v1H13zM14 30h1v1H14zM17 30h1v1H17zM18 30h1v1H18z"/><path fill="#000000" d="M10 16h1v1H10zM11 16h1v1H11zM12 16h1v1H12zM13 16h1v1H13zM18 16h1v1H18zM19 16h1v1H19zM20 16h1v1H20zM21 16h1v1H21zM9 17h1v1H9zM10 17h1v1H10zM13 17h1v1H13zM14 17h1v1H14zM17 17h1v1H17zM18 17h1v1H18zM21 17h1v1H21zM22 17h1v1H22zM9 18h1v1H9zM14 18h1v1H14zM15 18h1v1H15zM16 18h1v1H16zM17 18h1v1H17zM22 18h1v1H22zM9 19h1v1H9zM13 19h1v1H13zM14 19h1v1H14zM15 19h1v1H15zM16 19h1v1H16zM17 19h1v1H17zM18 19h1v1H18zM22 19h1v1H22zM9 20h1v1H9zM13 20h1v1H13zM14 20h1v1H14zM15 20h1v1H15zM16 20h1v1H16zM17 20h1v1H17zM18 20h1v1H18zM22 20h1v1H22zM9 21h1v1H9zM10 21h1v1H10zM14 21h1v1H14zM15 21h1v1H15zM16 21h1v1H16zM17 21h1v1H17zM21 21h1v1H21zM22 21h1v1H22zM10 22h1v1H10zM11 22h1v1H11zM14 22h1v1H14zM15 22h1v1H15zM16 22h1v1H16zM17 22h1v1H17zM20 22h1v1H20zM21 22h1v1H21zM11 23h1v1H11zM12 23h1v1H12zM13 23h1v1H13zM14 23h1v1H14zM15 23h1v1H15zM16 23h1v1H16zM17 23h1v1H17zM18 23h1v1H18zM19 23h1v1H19zM20 23h1v1H20zM12 24h1v1H12zM13 24h1v1H13zM18 24h1v1H18zM19 24h1v1H19z"/><path fill="#bd352c" d="M8 17h1v1H8zM23 17h1v1H23zM7 23h1v1H7zM8 23h1v1H8zM23 23h1v1H23zM24 23h1v1H24zM7 24h1v1H7zM8 24h1v1H8zM23 24h1v1H23zM24 24h1v1H24zM8 25h1v1H8zM23 25h1v1H23zM10 26h1v1H10zM21 26h1v1H21zM5 27h1v1H5zM16 27h1v1H16zM26 27h1v1H26zM12 28h1v1H12zM19 28h1v1H19zM13 29h1v1H13zM18 29h1v1H18z"/><path fill="#ffffff" d="M11 17h1v1H11zM12 17h1v1H12zM19 17h1v1H19zM20 17h1v1H20zM11 18h1v1H11zM12 18h1v1H12zM13 18h1v1H13zM18 18h1v1H18zM19 18h1v1H19zM20 18h1v1H20zM11 19h1v1H11zM12 19h1v1H12zM19 19h1v1H19zM20 19h1v1H20zM11 20h1v1H11zM12 20h1v1H12zM19 20h1v1H19zM20 20h1v1H20zM11 21h1v1H11zM12 21h1v1H12zM19 21h1v1H19zM20 21h1v1H20zM12 22h1v1H12zM13 22h1v1H13zM18 22h1v1H18zM19 22h1v1H19z"/></svg>
