<svg xmlns="http://www.w3.org/2000/svg" viewBox="0 0 32 32" shape-rendering="crispEdges"><path fill="#3f3230" d="M6 3h1v1H6zM7 3h1v1H7zM10 3h1v1H10zM11 3h1v1H11zM12 3h1v1H12zM13 3h1v1H13zM14 3h1v1H14zM15 3h1v1H15zM16 3h1v1H16zM17 3h1v1H17zM18 3h1v1H18zM19 3h1v1H19zM20 3h1v1H20zM21 3h1v1H21zM24 3h1v1H24zM25 3h1v1H25zM5 4h1v1H5zM8 4h1v1H8zM9 4h1v1H9zM22 4h1v1H22zM23 4h1v1H23zM26 4h1v1H26zM9 5h1v1H9zM22 5h1v1H22zM26 5h1v1H26zM6 6h1v1H6zM25 6h1v1H25zM26 6h1v1H26zM8 7h1v1H8zM9 7h1v1H9zM22 7h1v1H22zM23 7h1v1H23zM10 8h1v1H10zM11 8h1v1H11zM12 8h1v1H12zM13 8h1v1H13zM14 8h1v1H14zM17 8h1v1H17zM18 8h1v1H18zM19 8h1v1H19zM20 8h1v1H20zM21 8h1v1H21zM13 10h1v1H13zM18 10h1v1H18zM5 11h1v1H5zM12 11h1v1H12zM19 11h1v1H19zM13 12h1v1H13zM18 12h1v1H18zM7 13h1v1H7zM24 13h1v1H24zM6 14h1v1H6zM25 14h1v1H25zM6 15h1v1H6zM25 15h1v1H25zM3 21h1v1H3zM4 21h1v1H4zM27 21h1v1H27zM28 21h1v1H28zM4 22h1v1H4zM27 22h1v1H27zM3 23h1v1H3zM28 23h1v1H28zM11 24h1v1H11zM12 24h1v1H12zM19 24h1v1H19zM14 25h1v1H14zM15 25h1v1H15zM16 25h1v1H16zM17 25h1v1H17zM13 26h1v1H13zM18 26h1v1H18zM8 28h1v1H8zM9 28h1v1H9zM12 28h1v1H12zM19 28h1v1H19zM22 28h1v1H22zM23 28h1v1H23z"/><path fill="#66534c" d="M8 3h1v1H8zM9 3h1v1H9zM22 3h1v1H22zM23 3h1v1H23zM7 4h1v1H7zM24 4h1v1H24zM6 5h1v1H6zM8 5h1v1H8zM23 5h1v1H23zM25 5h1v1H25zM7 6h1v1H7zM10 6h1v1H10zM21 6h1v1H21zM24 6h1v1H24zM14 9h1v1H14zM16 9h1v1H16zM17 9h1v1H17zM14 10h1v1H14zM17 10h1v1H17zM4 11h1v1H4zM18 11h1v1H18zM27 11h1v1H27zM6 12h1v1H6zM12 12h1v1H12zM19 12h1v1H19zM25 12h1v1H25zM6 13h1v1H6zM13 13h1v1H13zM25 13h1v1H25zM5 14h1v1H5zM26 14h1v1H26zM13 25h1v1H13zM18 25h1v1H18zM5 26h1v1H5zM26 26h1v1H26z"/><path fill="#9a6d5c" d="M6 4h1v1H6zM25 4h1v1H25zM7 5h1v1H7zM24 5h1v1H24zM8 6h1v1H8zM9 6h1v1H9zM22 6h1v1H22zM23 6h1v1H23zM10 7h1v1H10zM11 7h1v1H11zM12 7h1v1H12zM13 7h1v1H13zM14 7h1v1H14zM15 7h1v1H15zM16 7h1v1H16zM17 7h1v1H17zM18 7h1v1H18zM19 7h1v1H19zM20 7h1v1H20zM21 7h1v1H21zM15 8h1v1H15zM16 8h1v1H16zM15 9h1v1H15zM13 11h1v1H13zM4 12h1v1H4zM5 12h1v1H5zM26 12h1v1H26zM27 12h1v1H27zM4 13h1v1H4zM5 13h1v1H5zM18 13h1v1H18zM26 13h1v1H26zM27 13h1v1H27zM3 19h1v1H3zM4 19h1v1H4zM27 19h1v1H27zM28 19h1v1H28zM3 20h1v1H3zM4 20h1v1H4zM27 20h1v1H27zM28 20h1v1H28zM4 23h1v1H4zM6 23h1v1H6zM25 23h1v1H25zM27 23h1v1H27zM14 24h1v1H14zM15 24h1v1H15zM16 24h1v1H16zM17 24h1v1H17z"/><path fill="#46271f" d="M10 4h1v1H10zM21 4h1v1H21zM5 8h1v1H5zM26 8h1v1H26zM4 10h1v1H4zM27 10h1v1H27zM3 11h1v1H3zM8 11h1v1H8zM23 11h1v1H23zM26 11h1v1H26zM14 13h1v1H14zM5 15h1v1H5zM26 15h1v1H26zM12 27h1v1H12zM19 27h1v1H19z"/><path fill="#7f3620" d="M11 4h1v1H11zM15 4h1v1H15zM16 4h1v1H16zM17 4h1v1H17zM20 4h1v1H20zM12 5h1v1H12zM13 5h1v1H13zM18 5h1v1H18zM19 5h1v1H19zM11 6h1v1H11zM20 6h1v1H20zM6 10h1v1H6zM11 10h1v1H11zM20 10h1v1H20zM25 10h1v1H25zM10 12h1v1H10zM21 12h1v1H21zM10 13h1v1H10zM21 13h1v1H21zM8 14h1v1H8zM14 14h1v1H14zM17 14h1v1H17zM23 14h1v1H23zM15 15h1v1H15zM16 15h1v1H16zM8 16h1v1H8zM8 17h1v1H8zM23 17h1v1H23zM4 24h1v1H4zM5 24h1v1H5zM25 24h1v1H25zM26 24h1v1H26zM4 25h1v1H4zM5 25h1v1H5zM25 25h1v1H25zM26 25h1v1H26z"/><path fill="#603a2f" d="M12 4h1v1H12zM13 4h1v1H13zM14 4h1v1H14zM18 4h1v1H18zM19 4h1v1H19zM7 12h1v1H7zM8 12h1v1H8zM23 12h1v1H23zM24 12h1v1H24zM20 24h1v1H20zM12 26h1v1H12zM19 26h1v1H19z"/><path fill="#242324" d="M5 5h1v1H5zM11 9h1v1H11zM3 14h1v1H3zM4 14h1v1H4zM27 14h1v1H27zM3 15h1v1H3zM4 15h1v1H4zM27 15h1v1H27zM3 16h1v1H3zM27 17h1v1H27zM3 22h1v1H3zM28 22h1v1H28zM3 28h1v1H3zM9 29h1v1H9zM22 29h1v1H22z"/><path fill="#2c110c" d="M10 5h1v1H10zM21 5h1v1H21zM11 11h1v1H11zM20 11h1v1H20zM11 12h1v1H11zM10 14h1v1H10zM13 14h1v1H13zM18 14h1v1H18zM20 14h1v1H20zM21 14h1v1H21zM14 15h1v1H14zM17 15h1v1H17zM5 17h1v1H5zM26 17h1v1H26zM5 21h1v1H5zM8 21h1v1H8zM26 21h1v1H26zM18 29h1v1H18z"/><path fill="#632214" d="M11 5h1v1H11zM20 5h1v1H20zM9 9h1v1H9zM22 9h1v1H22zM15 10h1v1H15zM16 10h1v1H16zM8 13h1v1H8zM9 13h1v1H9zM12 13h1v1H12zM19 13h1v1H19zM22 13h1v1H22zM23 13h1v1H23zM15 14h1v1H15zM16 14h1v1H16zM8 15h1v1H8zM7 16h1v1H7zM23 16h1v1H23zM24 16h1v1H24zM5 18h1v1H5zM26 18h1v1H26zM10 19h1v1H10zM21 19h1v1H21zM13 21h1v1H13zM18 21h1v1H18zM7 24h1v1H7zM24 24h1v1H24zM4 26h1v1H4zM6 26h1v1H6zM15 26h1v1H15zM16 26h1v1H16zM25 26h1v1H25zM27 26h1v1H27zM4 27h1v1H4zM6 27h1v1H6zM25 27h1v1H25zM27 27h1v1H27z"/><path fill="#a53d25" d="M14 5h1v1H14zM17 5h1v1H17zM13 6h1v1H13zM14 6h1v1H14zM17 6h1v1H17zM18 6h1v1H18zM8 9h1v1H8zM23 9h1v1H23zM9 10h1v1H9zM21 10h1v1H21zM22 10h1v1H22zM16 11h1v1H16zM15 12h1v1H15zM16 12h1v1H16zM15 13h1v1H15zM16 13h1v1H16zM7 17h1v1H7zM24 17h1v1H24zM6 18h1v1H6zM7 18h1v1H7zM10 18h1v1H10zM21 18h1v1H21zM24 18h1v1H24zM25 18h1v1H25zM6 19h1v1H6zM7 19h1v1H7zM24 19h1v1H24zM25 19h1v1H25zM6 20h1v1H6zM7 20h1v1H7zM24 20h1v1H24zM25 20h1v1H25zM7 22h1v1H7zM24 22h1v1H24zM8 23h1v1H8zM23 23h1v1H23zM6 24h1v1H6zM8 24h1v1H8zM10 24h1v1H10zM21 24h1v1H21zM23 24h1v1H23zM27 24h1v1H27zM6 25h1v1H6zM27 25h1v1H27zM11 26h1v1H11zM20 26h1v1H20zM10 27h1v1H10zM11 27h1v1H11zM14 27h1v1H14zM15 27h1v1H15zM16 27h1v1H16zM17 27h1v1H17zM20 27h1v1H20zM21 27h1v1H21zM14 28h1v1H14zM17 28h1v1H17zM15 29h1v1H15zM16 29h1v1H16z"/><path fill="#a6563a" d="M15 5h1v1H15zM16 5h1v1H16zM15 6h1v1H15zM16 6h1v1H16zM5 9h1v1H5zM26 9h1v1H26zM5 10h1v1H5zM10 10h1v1H10zM26 10h1v1H26zM6 11h1v1H6zM7 11h1v1H7zM15 11h1v1H15zM24 11h1v1H24zM25 11h1v1H25zM9 12h1v1H9zM22 12h1v1H22zM11 13h1v1H11zM20 13h1v1H20zM7 21h1v1H7zM24 21h1v1H24zM5 23h1v1H5zM7 23h1v1H7zM24 23h1v1H24zM26 23h1v1H26zM9 24h1v1H9zM22 24h1v1H22zM10 25h1v1H10zM21 25h1v1H21zM10 26h1v1H10zM21 26h1v1H21zM15 28h1v1H15zM16 28h1v1H16z"/><path fill="#2a1e1c" d="M5 6h1v1H5zM6 7h1v1H6zM7 7h1v1H7zM24 7h1v1H24zM9 8h1v1H9zM25 8h1v1H25zM20 9h1v1H20zM12 10h1v1H12zM19 10h1v1H19zM3 12h1v1H3zM24 14h1v1H24zM5 16h1v1H5zM26 16h1v1H26zM5 22h1v1H5zM11 23h1v1H11zM13 24h1v1H13zM18 24h1v1H18zM8 25h1v1H8zM12 25h1v1H12zM19 25h1v1H19zM23 25h1v1H23zM9 26h1v1H9zM13 27h1v1H13zM18 27h1v1H18zM28 28h1v1H28z"/><path fill="#650d0c" d="M12 6h1v1H12zM19 6h1v1H19zM14 11h1v1H14zM17 11h1v1H17zM14 12h1v1H14zM17 12h1v1H17zM6 21h1v1H6zM25 21h1v1H25zM8 22h1v1H8zM23 22h1v1H23zM9 23h1v1H9zM22 23h1v1H22zM22 25h1v1H22zM14 26h1v1H14zM17 26h1v1H17z"/><path fill="#1e1a19" d="M25 7h1v1H25zM12 9h1v1H12zM13 9h1v1H13zM18 9h1v1H18zM19 9h1v1H19zM3 13h1v1H3zM28 13h1v1H28zM28 14h1v1H28zM28 15h1v1H28zM4 16h1v1H4zM27 16h1v1H27zM28 16h1v1H28zM4 17h1v1H4zM4 18h1v1H4zM27 18h1v1H27zM12 23h1v1H12zM19 23h1v1H19zM8 26h1v1H8zM23 26h1v1H23zM8 27h1v1H8zM9 27h1v1H9zM22 27h1v1H22zM23 27h1v1H23zM7 28h1v1H7zM10 28h1v1H10zM11 28h1v1H11zM20 28h1v1H20zM21 28h1v1H21zM24 28h1v1H24zM7 29h1v1H7zM8 29h1v1H8zM12 29h1v1H12zM13 29h1v1H13zM19 29h1v1H19zM23 29h1v1H23zM24 29h1v1H24z"/><path fill="#311913" d="M6 8h1v1H6zM22 8h1v1H22zM10 9h1v1H10zM21 9h1v1H21zM7 10h1v1H7zM24 10h1v1H24zM9 11h1v1H9zM10 11h1v1H10zM21 11h1v1H21zM22 11h1v1H22zM20 12h1v1H20zM28 12h1v1H28zM7 14h1v1H7zM10 20h1v1H10zM21 20h1v1H21zM23 21h1v1H23zM26 22h1v1H26zM10 23h1v1H10zM20 23h1v1H20zM21 23h1v1H21zM28 24h1v1H28zM28 25h1v1H28zM3 26h1v1H3zM7 26h1v1H7zM22 26h1v1H22zM3 27h1v1H3zM7 27h1v1H7zM24 27h1v1H24zM28 27h1v1H28zM4 28h1v1H4zM13 28h1v1H13zM18 28h1v1H18z"/><path fill="#441810" d="M7 8h1v1H7zM8 8h1v1H8zM23 8h1v1H23zM24 8h1v1H24zM7 9h1v1H7zM24 9h1v1H24zM8 10h1v1H8zM23 10h1v1H23zM9 14h1v1H9zM11 14h1v1H11zM12 14h1v1H12zM19 14h1v1H19zM22 14h1v1H22zM23 15h1v1H23zM6 17h1v1H6zM25 17h1v1H25zM8 18h1v1H8zM23 18h1v1H23zM5 19h1v1H5zM8 19h1v1H8zM23 19h1v1H23zM26 19h1v1H26zM5 20h1v1H5zM8 20h1v1H8zM23 20h1v1H23zM26 20h1v1H26zM6 22h1v1H6zM25 22h1v1H25zM7 25h1v1H7zM9 25h1v1H9zM11 25h1v1H11zM20 25h1v1H20zM14 29h1v1H14zM17 29h1v1H17z"/><path fill="#431d13" d="M4 9h1v1H4zM6 9h1v1H6zM25 9h1v1H25zM27 9h1v1H27zM28 11h1v1H28zM17 13h1v1H17zM7 15h1v1H7zM24 15h1v1H24zM6 16h1v1H6zM25 16h1v1H25zM3 24h1v1H3zM3 25h1v1H3zM24 25h1v1H24zM24 26h1v1H24zM28 26h1v1H28zM5 27h1v1H5zM26 27h1v1H26zM5 28h1v1H5zM6 28h1v1H6zM25 28h1v1H25zM26 28h1v1H26zM27 28h1v1H27z"/><path fill="#000000" d="M9 15h1v1H9zM10 15h1v1H10zM11 15h1v1H11zM12 15h1v1H12zM13 15h1v1H13zM18 15h1v1H18zM19 15h1v1H19zM20 15h1v1H20zM21 15h1v1H21zM22 15h1v1H22zM9 16h1v1H9zM10 16h1v1H10zM11 16h1v1H11zM12 16h1v1H12zM13 16h1v1H13zM14 16h1v1H14zM15 16h1v1H15zM16 16h1v1H16zM17 16h1v1H17zM18 16h1v1H18zM19 16h1v1H19zM20 16h1v1H20zM21 16h1v1H21zM22 16h1v1H22zM9 17h1v1H9zM10 17h1v1H10zM13 17h1v1H13zM14 17h1v1H14zM15 17h1v1H15zM16 17h1v1H16zM17 17h1v1H17zM18 17h1v1H18zM21 17h1v1H21zM22 17h1v1H22zM9 18h1v1H9zM14 18h1v1H14zM15 18h1v1H15zM16 18h1v1H16zM17 18h1v1H17zM22 18h1v1H22zM9 19h1v1H9zM13 19h1v1H13zM14 19h1v1H14zM15 19h1v1H15zM16 19h1v1H16zM17 19h1v1H17zM18 19h1v1H18zM22 19h1v1H22zM9 20h1v1H9zM13 20h1v1H13zM14 20h1v1H14zM15 20h1v1H15zM16 20h1v1H16zM17 20h1v1H17zM18 20h1v1H18zM22 20h1v1H22zM9 21h1v1H9zM10 21h1v1H10zM14 21h1v1H14zM15 21h1v1H15zM16 21h1v1H16zM17 21h1v1H17zM21 21h1v1H21zM22 21h1v1H22zM9 22h1v1H9zM10 22h1v1H10zM11 22h1v1H11zM14 22h1v1H14zM15 22h1v1H15zM16 22h1v1H16zM17 22h1v1H17zM20 22h1v1H20zM21 22h1v1H21zM22 22h1v1H22zM13 23h1v1H13zM14 23h1v1H14zM15 23h1v1H15zM16 23h1v1H16zM17 23h1v1H17zM18 23h1v1H18z"/><path fill="#ffffff" d="M11 17h1v1H11zM12 17h1v1H12zM19 17h1v1H19zM20 17h1v1H20zM11 18h1v1H11zM12 18h1v1H12zM13 18h1v1H13zM18 18h1v1H18zM19 18h1v1H19zM20 18h1v1H20zM11 19h1v1H11zM12 19h1v1H12zM19 19h1v1H19zM20 19h1v1H20zM11 20h1v1H11zM12 20h1v1H12zM19 20h1v1H19zM20 20h1v1H20zM11 21h1v1H11zM12 21h1v1H12zM19 21h1v1H19zM20 21h1v1H20zM12 22h1v1H12zM13 22h1v1H13zM18 22h1v1H18zM19 22h1v1H19z"/></svg>
