<svg xmlns="http://www.w3.org/2000/svg" viewBox="0 0 32 32" shape-rendering="crispEdges"><path fill="#5a7f33" d="M5 2h1v1H5zM6 2h1v1H6zM7 2h1v1H7zM8 2h1v1H8zM23 2h1v1H23zM24 2h1v1H24zM25 2h1v1H25zM26 2h1v1H26zM3 3h1v1H3zM4 3h1v1H4zM5 3h1v1H5zM6 3h1v1H6zM7 3h1v1H7zM8 3h1v1H8zM9 3h1v1H9zM11 3h1v1H11zM12 3h1v1H12zM13 3h1v1H13zM18 3h1v1H18zM19 3h1v1H19zM20 3h1v1H20zM22 3h1v1H22zM23 3h1v1H23zM24 3h1v1H24zM25 3h1v1H25zM26 3h1v1H26zM27 3h1v1H27zM28 3h1v1H28zM3 4h1v1H3zM4 4h1v1H4zM5 4h1v1H5zM6 4h1v1H6zM7 4h1v1H7zM8 4h1v1H8zM9 4h1v1H9zM10 4h1v1H10zM11 4h1v1H11zM12 4h1v1H12zM13 4h1v1H13zM14 4h1v1H14zM17 4h1v1H17zM18 4h1v1H18zM19 4h1v1H19zM20 4h1v1H20zM21 4h1v1H21zM22 4h1v1H22zM23 4h1v1H23zM24 4h1v1H24zM25 4h1v1H25zM26 4h1v1H26zM27 4h1v1H27zM28 4h1v1H28zM2 5h1v1H2zM3 5h1v1H3zM4 5h1v1H4zM7 5h1v1H7zM8 5h1v1H8zM9 5h1v1H9zM10 5h1v1H10zM15 5h1v1H15zM16 5h1v1H16zM21 5h1v1H21zM22 5h1v1H22zM23 5h1v1H23zM24 5h1v1H24zM27 5h1v1H27zM28 5h1v1H28zM29 5h1v1H29zM2 6h1v1H2zM3 6h1v1H3zM7 6h1v1H7zM8 6h1v1H8zM23 6h1v1H23zM24 6h1v1H24zM28 6h1v1H28zM29 6h1v1H29zM2 7h1v1H2zM3 7h1v1H3zM28 7h1v1H28zM29 7h1v1H29zM2 8h1v1H2zM29 8h1v1H29zM2 9h1v1H2zM12 9h1v1H12zM19 9h1v1H19zM29 9h1v1H29zM1 10h1v1H1zM12 10h1v1H12zM19 10h1v1H19zM30 10h1v1H30zM1 11h1v1H1zM12 11h1v1H12zM19 11h1v1H19zM30 11h1v1H30zM1 12h1v1H1zM30 12h1v1H30zM1 13h1v1H1zM30 13h1v1H30zM1 14h1v1H1zM30 14h1v1H30zM1 15h1v1H1zM30 15h1v1H30zM1 16h1v1H1zM30 16h1v1H30zM1 17h1v1H1zM30 17h1v1H30z"/><path fill="#999999" d="M15 4h1v1H15zM16 4h1v1H16zM5 5h1v1H5zM6 5h1v1H6zM25 5h1v1H25zM26 5h1v1H26zM5 6h1v1H5zM6 6h1v1H6zM25 6h1v1H25zM26 6h1v1H26zM11 13h1v1H11zM12 13h1v1H12zM19 13h1v1H19zM20 13h1v1H20zM5 15h1v1H5zM26 15h1v1H26zM5 16h1v1H5zM26 16h1v1H26zM5 17h1v1H5zM26 17h1v1H26zM5 18h1v1H5zM26 18h1v1H26zM5 19h1v1H5zM26 19h1v1H26zM5 20h1v1H5zM26 20h1v1H26zM5 21h1v1H5zM9 21h1v1H9zM22 21h1v1H22zM26 21h1v1H26zM5 22h1v1H5zM9 22h1v1H9zM22 22h1v1H22zM26 22h1v1H26zM9 23h1v1H9zM22 23h1v1H22zM8 24h1v1H8zM9 24h1v1H9zM22 24h1v1H22zM23 24h1v1H23zM8 25h1v1H8zM9 25h1v1H9zM22 25h1v1H22zM23 25h1v1H23zM8 26h1v1H8zM9 26h1v1H9zM22 26h1v1H22zM23 26h1v1H23z"/><path fill="#a5ce4b" d="M11 5h1v1H11zM12 5h1v1H12zM13 5h1v1H13zM14 5h1v1H14zM17 5h1v1H17zM18 5h1v1H18zM19 5h1v1H19zM20 5h1v1H20zM11 6h1v1H11zM12 6h1v1H12zM13 6h1v1H13zM14 6h1v1H14zM15 6h1v1H15zM16 6h1v1H16zM17 6h1v1H17zM18 6h1v1H18zM19 6h1v1H19zM20 6h1v1H20zM8 7h1v1H8zM11 7h1v1H11zM12 7h1v1H12zM13 7h1v1H13zM14 7h1v1H14zM15 7h1v1H15zM16 7h1v1H16zM17 7h1v1H17zM18 7h1v1H18zM19 7h1v1H19zM20 7h1v1H20zM23 7h1v1H23zM7 8h1v1H7zM8 8h1v1H8zM9 8h1v1H9zM10 8h1v1H10zM11 8h1v1H11zM13 8h1v1H13zM14 8h1v1H14zM15 8h1v1H15zM16 8h1v1H16zM17 8h1v1H17zM18 8h1v1H18zM20 8h1v1H20zM21 8h1v1H21zM22 8h1v1H22zM23 8h1v1H23zM24 8h1v1H24zM7 9h1v1H7zM9 9h1v1H9zM10 9h1v1H10zM11 9h1v1H11zM13 9h1v1H13zM14 9h1v1H14zM17 9h1v1H17zM18 9h1v1H18zM20 9h1v1H20zM21 9h1v1H21zM22 9h1v1H22zM24 9h1v1H24zM7 10h1v1H7zM8 10h1v1H8zM9 10h1v1H9zM10 10h1v1H10zM11 10h1v1H11zM13 10h1v1H13zM18 10h1v1H18zM20 10h1v1H20zM21 10h1v1H21zM22 10h1v1H22zM23 10h1v1H23zM24 10h1v1H24zM8 11h1v1H8zM9 11h1v1H9zM10 11h1v1H10zM13 11h1v1H13zM18 11h1v1H18zM21 11h1v1H21zM22 11h1v1H22zM23 11h1v1H23zM8 12h1v1H8zM9 12h1v1H9zM10 12h1v1H10zM13 12h1v1H13zM14 12h1v1H14zM17 12h1v1H17zM18 12h1v1H18zM21 12h1v1H21zM22 12h1v1H22zM23 12h1v1H23zM6 13h1v1H6zM7 13h1v1H7zM8 13h1v1H8zM9 13h1v1H9zM13 13h1v1H13zM14 13h1v1H14zM15 13h1v1H15zM16 13h1v1H16zM17 13h1v1H17zM18 13h1v1H18zM22 13h1v1H22zM23 13h1v1H23zM24 13h1v1H24zM25 13h1v1H25zM6 14h1v1H6zM8 14h1v1H8zM9 14h1v1H9zM14 14h1v1H14zM15 14h1v1H15zM16 14h1v1H16zM17 14h1v1H17zM22 14h1v1H22zM23 14h1v1H23zM25 14h1v1H25zM6 15h1v1H6zM7 15h1v1H7zM8 15h1v1H8zM9 15h1v1H9zM14 15h1v1H14zM15 15h1v1H15zM16 15h1v1H16zM17 15h1v1H17zM22 15h1v1H22zM23 15h1v1H23zM24 15h1v1H24zM25 15h1v1H25zM6 16h1v1H6zM7 16h1v1H7zM8 16h1v1H8zM14 16h1v1H14zM15 16h1v1H15zM16 16h1v1H16zM17 16h1v1H17zM23 16h1v1H23zM24 16h1v1H24zM25 16h1v1H25zM6 17h1v1H6zM7 17h1v1H7zM8 17h1v1H8zM14 17h1v1H14zM15 17h1v1H15zM16 17h1v1H16zM17 17h1v1H17zM23 17h1v1H23zM24 17h1v1H24zM25 17h1v1H25zM8 18h1v1H8zM14 18h1v1H14zM15 18h1v1H15zM16 18h1v1H16zM17 18h1v1H17zM23 18h1v1H23zM14 19h1v1H14zM15 19h1v1H15zM16 19h1v1H16zM17 19h1v1H17zM14 20h1v1H14zM17 20h1v1H17zM14 21h1v1H14zM17 21h1v1H17zM14 22h1v1H14zM15 22h1v1H15zM16 22h1v1H16zM17 22h1v1H17zM8 23h1v1H8zM15 23h1v1H15zM16 23h1v1H16zM23 23h1v1H23zM7 24h1v1H7zM15 24h1v1H15zM16 24h1v1H16zM24 24h1v1H24zM7 25h1v1H7zM15 25h1v1H15zM16 25h1v1H16zM24 25h1v1H24z"/><path fill="#747474" d="M4 6h1v1H4zM27 6h1v1H27zM4 7h1v1H4zM27 7h1v1H27zM5 12h1v1H5zM26 12h1v1H26zM10 14h1v1H10zM11 14h1v1H11zM12 14h1v1H12zM19 14h1v1H19zM20 14h1v1H20zM21 14h1v1H21zM6 25h1v1H6zM25 25h1v1H25z"/><path fill="#bbe75c" d="M9 6h1v1H9zM10 6h1v1H10zM21 6h1v1H21zM22 6h1v1H22zM9 7h1v1H9zM10 7h1v1H10zM21 7h1v1H21zM22 7h1v1H22zM8 9h1v1H8zM15 9h1v1H15zM16 9h1v1H16zM23 9h1v1H23zM14 10h1v1H14zM15 10h1v1H15zM16 10h1v1H16zM17 10h1v1H17zM6 11h1v1H6zM7 11h1v1H7zM14 11h1v1H14zM15 11h1v1H15zM16 11h1v1H16zM17 11h1v1H17zM24 11h1v1H24zM25 11h1v1H25zM6 12h1v1H6zM7 12h1v1H7zM15 12h1v1H15zM16 12h1v1H16zM24 12h1v1H24zM25 12h1v1H25zM7 14h1v1H7zM24 14h1v1H24zM6 18h1v1H6zM7 18h1v1H7zM24 18h1v1H24zM25 18h1v1H25zM6 19h1v1H6zM7 19h1v1H7zM8 19h1v1H8zM23 19h1v1H23zM24 19h1v1H24zM25 19h1v1H25zM6 20h1v1H6zM7 20h1v1H7zM8 20h1v1H8zM15 20h1v1H15zM16 20h1v1H16zM23 20h1v1H23zM24 20h1v1H24zM25 20h1v1H25zM6 21h1v1H6zM7 21h1v1H7zM8 21h1v1H8zM15 21h1v1H15zM16 21h1v1H16zM23 21h1v1H23zM24 21h1v1H24zM25 21h1v1H25zM6 22h1v1H6zM7 22h1v1H7zM8 22h1v1H8zM23 22h1v1H23zM24 22h1v1H24zM25 22h1v1H25zM6 23h1v1H6zM7 23h1v1H7zM24 23h1v1H24zM25 23h1v1H25zM7 26h1v1H7zM15 26h1v1H15zM24 26h1v1H24zM7 27h1v1H7zM15 27h1v1H15zM24 27h1v1H24z"/><path fill="#6d9640" d="M5 7h1v1H5zM6 7h1v1H6zM7 7h1v1H7zM24 7h1v1H24zM25 7h1v1H25zM26 7h1v1H26zM5 8h1v1H5zM6 8h1v1H6zM12 8h1v1H12zM19 8h1v1H19zM25 8h1v1H25zM26 8h1v1H26zM5 9h1v1H5zM6 9h1v1H6zM25 9h1v1H25zM26 9h1v1H26zM4 10h1v1H4zM5 10h1v1H5zM6 10h1v1H6zM25 10h1v1H25zM26 10h1v1H26zM27 10h1v1H27zM4 11h1v1H4zM5 11h1v1H5zM11 11h1v1H11zM20 11h1v1H20zM26 11h1v1H26zM27 11h1v1H27zM4 12h1v1H4zM27 12h1v1H27zM4 13h1v1H4zM10 13h1v1H10zM21 13h1v1H21zM27 13h1v1H27zM4 14h1v1H4zM13 14h1v1H13zM18 14h1v1H18zM27 14h1v1H27zM4 15h1v1H4zM27 15h1v1H27zM2 16h1v1H2zM3 16h1v1H3zM4 16h1v1H4zM9 16h1v1H9zM22 16h1v1H22zM27 16h1v1H27zM28 16h1v1H28zM29 16h1v1H29zM4 17h1v1H4zM27 17h1v1H27zM2 19h1v1H2zM3 19h1v1H3zM28 19h1v1H28zM29 19h1v1H29zM2 20h1v1H2zM3 20h1v1H3zM28 20h1v1H28zM29 20h1v1H29zM2 21h1v1H2zM3 21h1v1H3zM28 21h1v1H28zM29 21h1v1H29zM3 22h1v1H3zM28 22h1v1H28zM3 23h1v1H3zM14 23h1v1H14zM17 23h1v1H17zM28 23h1v1H28z"/><path fill="#9dc849" d="M3 8h1v1H3zM4 8h1v1H4zM27 8h1v1H27zM28 8h1v1H28zM3 9h1v1H3zM4 9h1v1H4zM27 9h1v1H27zM28 9h1v1H28zM2 10h1v1H2zM3 10h1v1H3zM28 10h1v1H28zM29 10h1v1H29zM2 11h1v1H2zM3 11h1v1H3zM28 11h1v1H28zM29 11h1v1H29zM2 12h1v1H2zM3 12h1v1H3zM28 12h1v1H28zM29 12h1v1H29zM2 13h1v1H2zM3 13h1v1H3zM28 13h1v1H28zM29 13h1v1H29zM2 14h1v1H2zM3 14h1v1H3zM28 14h1v1H28zM29 14h1v1H29zM2 15h1v1H2zM3 15h1v1H3zM28 15h1v1H28zM29 15h1v1H29zM2 17h1v1H2zM3 17h1v1H3zM28 17h1v1H28zM29 17h1v1H29zM2 18h1v1H2zM3 18h1v1H3zM28 18h1v1H28zM29 18h1v1H29z"/><path fill="#d5d5d5" d="M11 12h1v1H11zM12 12h1v1H12zM19 12h1v1H19zM20 12h1v1H20zM10 16h1v1H10zM11 16h1v1H11zM12 16h1v1H12zM13 16h1v1H13zM18 16h1v1H18zM19 16h1v1H19zM20 16h1v1H20zM21 16h1v1H21zM9 17h1v1H9zM10 17h1v1H10zM11 17h1v1H11zM20 17h1v1H20zM21 17h1v1H21zM22 17h1v1H22zM9 18h1v1H9zM10 18h1v1H10zM21 18h1v1H21zM22 18h1v1H22zM9 19h1v1H9zM10 19h1v1H10zM21 19h1v1H21zM22 19h1v1H22zM9 20h1v1H9zM10 20h1v1H10zM21 20h1v1H21zM22 20h1v1H22zM10 21h1v1H10zM11 21h1v1H11zM12 21h1v1H12zM13 21h1v1H13zM18 21h1v1H18zM19 21h1v1H19zM20 21h1v1H20zM21 21h1v1H21zM10 22h1v1H10zM11 22h1v1H11zM12 22h1v1H12zM13 22h1v1H13zM18 22h1v1H18zM19 22h1v1H19zM20 22h1v1H20zM21 22h1v1H21zM10 23h1v1H10zM11 23h1v1H11zM12 23h1v1H12zM13 23h1v1H13zM18 23h1v1H18zM19 23h1v1H19zM20 23h1v1H20zM21 23h1v1H21zM10 24h1v1H10zM11 24h1v1H11zM12 24h1v1H12zM13 24h1v1H13zM14 24h1v1H14zM17 24h1v1H17zM18 24h1v1H18zM19 24h1v1H19zM20 24h1v1H20zM21 24h1v1H21zM10 25h1v1H10zM11 25h1v1H11zM12 25h1v1H12zM13 25h1v1H13zM14 25h1v1H14zM17 25h1v1H17zM18 25h1v1H18zM19 25h1v1H19zM20 25h1v1H20zM21 25h1v1H21zM10 26h1v1H10zM11 26h1v1H11zM12 26h1v1H12zM13 26h1v1H13zM14 26h1v1H14zM16 26h1v1H16zM17 26h1v1H17zM18 26h1v1H18zM19 26h1v1H19zM20 26h1v1H20zM21 26h1v1H21z"/><path fill="#828282" d="M5 13h1v1H5zM26 13h1v1H26zM5 14h1v1H5zM26 14h1v1H26zM10 15h1v1H10zM11 15h1v1H11zM12 15h1v1H12zM13 15h1v1H13zM18 15h1v1H18zM19 15h1v1H19zM20 15h1v1H20zM21 15h1v1H21zM6 24h1v1H6zM25 24h1v1H25z"/><path fill="#ffffff" d="M12 17h1v1H12zM18 17h1v1H18zM11 18h1v1H11zM13 18h1v1H13zM19 18h1v1H19zM20 18h1v1H20zM11 19h1v1H11zM20 19h1v1H20zM11 20h1v1H11zM20 20h1v1H20z"/><path fill="#0e0e14" d="M13 17h1v1H13zM19 17h1v1H19zM12 18h1v1H12zM18 18h1v1H18zM12 19h1v1H12zM13 19h1v1H13zM18 19h1v1H18zM19 19h1v1H19zM12 20h1v1H12zM13 20h1v1H13zM18 20h1v1H18zM19 20h1v1H19z"/></svg>
