<svg xmlns="http://www.w3.org/2000/svg" viewBox="0 0 32 32" shape-rendering="crispEdges"><path fill="#ffffff" d="M8 3h1v1H8zM9 3h1v1H9zM10 3h1v1H10zM21 3h1v1H21zM22 3h1v1H22zM23 3h1v1H23zM20 7h1v1H20zM21 7h1v1H21zM22 7h1v1H22zM23 7h1v1H23zM15 8h1v1H15zM16 8h1v1H16zM17 8h1v1H17zM18 8h1v1H18zM19 8h1v1H19zM20 8h1v1H20zM21 8h1v1H21zM22 8h1v1H22zM23 8h1v1H23zM11 9h1v1H11zM12 9h1v1H12zM13 9h1v1H13zM14 9h1v1H14zM15 9h1v1H15zM16 9h1v1H16zM17 9h1v1H17zM18 9h1v1H18zM19 9h1v1H19zM20 9h1v1H20zM3 10h1v1H3zM8 10h1v1H8zM9 10h1v1H9zM10 10h1v1H10zM11 10h1v1H11zM12 10h1v1H12zM13 10h1v1H13zM14 10h1v1H14zM15 10h1v1H15zM28 10h1v1H28zM3 11h1v1H3zM8 11h1v1H8zM9 11h1v1H9zM10 11h1v1H10zM11 11h1v1H11zM28 11h1v1H28zM8 13h1v1H8zM9 13h1v1H9zM12 13h1v1H12zM19 13h1v1H19zM22 13h1v1H22zM23 13h1v1H23zM21 14h1v1H21zM22 14h1v1H22zM9 15h1v1H9zM10 15h1v1H10zM20 15h1v1H20zM21 15h1v1H21zM22 15h1v1H22zM25 15h1v1H25zM6 16h1v1H6zM8 16h1v1H8zM9 16h1v1H9zM10 16h1v1H10zM18 16h1v1H18zM19 16h1v1H19zM20 16h1v1H20zM21 16h1v1H21zM22 16h1v1H22zM24 16h1v1H24zM25 16h1v1H25zM6 17h1v1H6zM8 17h1v1H8zM9 17h1v1H9zM12 17h1v1H12zM17 17h1v1H17zM18 17h1v1H18zM20 17h1v1H20zM22 17h1v1H22zM23 17h1v1H23zM24 17h1v1H24zM25 17h1v1H25zM6 18h1v1H6zM11 18h1v1H11zM13 18h1v1H13zM16 18h1v1H16zM17 18h1v1H17zM19 18h1v1H19zM20 18h1v1H20zM22 18h1v1H22zM23 18h1v1H23zM25 18h1v1H25zM6 19h1v1H6zM11 19h1v1H11zM16 19h1v1H16zM17 19h1v1H17zM20 19h1v1H20zM21 19h1v1H21zM22 19h1v1H22zM25 19h1v1H25zM6 20h1v1H6zM10 20h1v1H10zM11 20h1v1H11zM20 20h1v1H20zM25 20h1v1H25zM6 21h1v1H6zM9 21h1v1H9zM10 21h1v1H10zM11 21h1v1H11zM14 21h1v1H14zM21 21h1v1H21zM22 21h1v1H22zM25 21h1v1H25zM6 22h1v1H6zM8 22h1v1H8zM9 22h1v1H9zM10 22h1v1H10zM11 22h1v1H11zM13 22h1v1H13zM14 22h1v1H14zM20 22h1v1H20zM21 22h1v1H21zM22 22h1v1H22zM25 22h1v1H25zM6 23h1v1H6zM7 23h1v1H7zM8 23h1v1H8zM9 23h1v1H9zM11 23h1v1H11zM12 23h1v1H12zM13 23h1v1H13zM20 23h1v1H20zM21 23h1v1H21zM25 23h1v1H25zM7 24h1v1H7zM11 24h1v1H11zM12 24h1v1H12zM24 24h1v1H24zM7 25h1v1H7zM8 25h1v1H8zM9 25h1v1H9zM10 25h1v1H10zM11 25h1v1H11zM12 25h1v1H12zM14 25h1v1H14zM15 25h1v1H15zM16 25h1v1H16zM17 25h1v1H17zM19 25h1v1H19zM20 25h1v1H20zM21 25h1v1H21zM22 25h1v1H22zM23 25h1v1H23zM24 25h1v1H24zM11 27h1v1H11zM20 27h1v1H20zM8 28h1v1H8zM9 28h1v1H9zM22 28h1v1H22zM23 28h1v1H23z"/><path fill="#f3f55c" d="M7 4h1v1H7zM24 4h1v1H24zM4 12h1v1H4zM27 12h1v1H27zM7 20h1v1H7zM24 20h1v1H24zM13 26h1v1H13zM18 26h1v1H18zM6 27h1v1H6zM12 27h1v1H12zM19 27h1v1H19zM25 27h1v1H25zM7 28h1v1H7zM10 28h1v1H10zM21 28h1v1H21zM24 28h1v1H24z"/><path fill="#f2c717" d="M11 4h1v1H11zM20 4h1v1H20zM5 8h1v1H5zM26 8h1v1H26zM4 9h1v1H4zM27 9h1v1H27zM4 13h1v1H4zM27 13h1v1H27zM14 23h1v1H14zM15 23h1v1H15zM16 23h1v1H16zM17 23h1v1H17zM14 24h1v1H14zM17 24h1v1H17zM13 25h1v1H13zM18 25h1v1H18zM5 26h1v1H5zM26 26h1v1H26z"/><path fill="#f86f0d" d="M6 5h1v1H6zM25 5h1v1H25zM6 12h1v1H6zM25 12h1v1H25zM5 13h1v1H5zM6 13h1v1H6zM25 13h1v1H25zM26 13h1v1H26zM5 14h1v1H5zM26 14h1v1H26zM5 15h1v1H5zM26 15h1v1H26zM4 16h1v1H4zM27 16h1v1H27zM4 17h1v1H4zM27 17h1v1H27zM4 18h1v1H4zM27 18h1v1H27zM5 19h1v1H5zM26 19h1v1H26zM5 24h1v1H5zM26 24h1v1H26zM4 25h1v1H4zM27 25h1v1H27z"/><path fill="#f1d01c" d="M7 5h1v1H7zM24 5h1v1H24zM6 10h1v1H6zM25 10h1v1H25zM6 25h1v1H6zM25 25h1v1H25z"/><path fill="#fae167" d="M8 5h1v1H8zM9 5h1v1H9zM10 5h1v1H10zM11 5h1v1H11zM12 5h1v1H12zM13 5h1v1H13zM14 5h1v1H14zM15 5h1v1H15zM16 5h1v1H16zM17 5h1v1H17zM18 5h1v1H18zM19 5h1v1H19zM20 5h1v1H20zM21 5h1v1H21zM22 5h1v1H22zM23 5h1v1H23zM6 6h1v1H6zM25 6h1v1H25zM6 7h1v1H6zM25 7h1v1H25zM6 8h1v1H6zM25 8h1v1H25zM6 9h1v1H6zM25 9h1v1H25zM6 14h1v1H6zM25 14h1v1H25zM6 15h1v1H6zM6 24h1v1H6zM25 24h1v1H25z"/><path fill="#fdf1a8" d="M7 6h1v1H7zM8 6h1v1H8zM9 6h1v1H9zM10 6h1v1H10zM11 6h1v1H11zM12 6h1v1H12zM13 6h1v1H13zM14 6h1v1H14zM15 6h1v1H15zM16 6h1v1H16zM17 6h1v1H17zM18 6h1v1H18zM19 6h1v1H19zM20 6h1v1H20zM21 6h1v1H21zM22 6h1v1H22zM23 6h1v1H23zM24 6h1v1H24zM7 7h1v1H7zM24 7h1v1H24zM7 8h1v1H7zM24 8h1v1H24zM7 9h1v1H7zM24 9h1v1H24zM7 10h1v1H7zM24 10h1v1H24zM7 11h1v1H7zM24 11h1v1H24zM7 12h1v1H7zM8 12h1v1H8zM9 12h1v1H9zM10 12h1v1H10zM11 12h1v1H11zM12 12h1v1H12zM13 12h1v1H13zM14 12h1v1H14zM15 12h1v1H15zM16 12h1v1H16zM17 12h1v1H17zM18 12h1v1H18zM19 12h1v1H19zM20 12h1v1H20zM21 12h1v1H21zM22 12h1v1H22zM23 12h1v1H23zM24 12h1v1H24z"/><path fill="#fef1c0" d="M8 7h1v1H8zM9 7h1v1H9zM10 7h1v1H10zM11 7h1v1H11zM12 7h1v1H12zM13 7h1v1H13zM14 7h1v1H14zM15 7h1v1H15zM16 7h1v1H16zM17 7h1v1H17zM18 7h1v1H18zM8 8h1v1H8zM9 8h1v1H9zM10 8h1v1H10zM11 8h1v1H11zM12 8h1v1H12zM13 8h1v1H13zM8 9h1v1H8zM9 9h1v1H9zM22 9h1v1H22zM23 9h1v1H23zM17 10h1v1H17zM18 10h1v1H18zM19 10h1v1H19zM20 10h1v1H20zM21 10h1v1H21zM22 10h1v1H22zM23 10h1v1H23zM13 11h1v1H13zM14 11h1v1H14zM15 11h1v1H15zM16 11h1v1H16zM17 11h1v1H17zM18 11h1v1H18zM19 11h1v1H19zM20 11h1v1H20zM21 11h1v1H21zM22 11h1v1H22zM23 11h1v1H23zM7 14h1v1H7zM8 14h1v1H8zM23 14h1v1H23zM24 14h1v1H24zM7 15h1v1H7zM23 15h1v1H23zM24 15h1v1H24zM7 16h1v1H7zM7 17h1v1H7zM7 18h1v1H7zM24 18h1v1H24zM7 19h1v1H7zM24 19h1v1H24zM7 21h1v1H7zM24 21h1v1H24zM7 22h1v1H7zM24 22h1v1H24zM24 23h1v1H24z"/><path fill="#fef7dc" d="M19 7h1v1H19zM14 8h1v1H14zM10 9h1v1H10zM21 9h1v1H21zM16 10h1v1H16zM12 11h1v1H12zM8 15h1v1H8z"/><path fill="#fef6c3" d="M6 11h1v1H6zM25 11h1v1H25z"/><path fill="#fef7d8" d="M7 13h1v1H7zM10 13h1v1H10zM11 13h1v1H11zM13 13h1v1H13zM14 13h1v1H14zM15 13h1v1H15zM16 13h1v1H16zM17 13h1v1H17zM18 13h1v1H18zM20 13h1v1H20zM21 13h1v1H21zM24 13h1v1H24z"/><path fill="#ffc703" d="M9 14h1v1H9zM10 14h1v1H10zM11 14h1v1H11zM12 14h1v1H12zM13 14h1v1H13zM14 14h1v1H14zM18 14h1v1H18zM19 14h1v1H19zM20 14h1v1H20z"/><path fill="#ffed12" d="M15 14h1v1H15zM16 14h1v1H16zM17 14h1v1H17z"/><path fill="#fff47c" d="M11 15h1v1H11zM20 21h1v1H20z"/><path fill="#ffc700" d="M12 15h1v1H12zM11 16h1v1H11zM23 16h1v1H23zM9 18h1v1H9zM10 18h1v1H10zM8 19h1v1H8zM10 19h1v1H10zM21 20h1v1H21zM22 20h1v1H22zM12 21h1v1H12zM12 22h1v1H12zM23 23h1v1H23zM13 24h1v1H13zM15 24h1v1H15zM16 24h1v1H16zM20 24h1v1H20zM23 24h1v1H23z"/><path fill="#ffec0e" d="M13 15h1v1H13zM14 15h1v1H14zM17 15h1v1H17zM18 15h1v1H18zM19 15h1v1H19zM12 16h1v1H12zM13 16h1v1H13zM14 16h1v1H14zM15 16h1v1H15zM16 16h1v1H16zM17 16h1v1H17zM11 17h1v1H11zM15 17h1v1H15zM16 17h1v1H16zM21 17h1v1H21zM8 18h1v1H8zM21 18h1v1H21zM9 19h1v1H9zM23 19h1v1H23zM9 20h1v1H9zM23 20h1v1H23z"/><path fill="#ff6800" d="M15 15h1v1H15zM16 15h1v1H16zM8 20h1v1H8zM8 21h1v1H8zM23 22h1v1H23zM10 23h1v1H10zM8 24h1v1H8zM9 24h1v1H9zM10 24h1v1H10zM21 24h1v1H21zM22 24h1v1H22z"/><path fill="#ffe075" d="M10 17h1v1H10z"/><path fill="#0e0e14" d="M13 17h1v1H13zM19 17h1v1H19zM12 18h1v1H12zM18 18h1v1H18zM12 19h1v1H12zM13 19h1v1H13zM18 19h1v1H18zM19 19h1v1H19zM12 20h1v1H12zM13 20h1v1H13zM18 20h1v1H18zM19 20h1v1H19z"/><path fill="#fff67f" d="M14 17h1v1H14zM14 18h1v1H14zM13 21h1v1H13zM17 21h1v1H17zM18 21h1v1H18zM19 21h1v1H19zM15 22h1v1H15zM16 22h1v1H16z"/><path fill="#fffeeb" d="M15 18h1v1H15zM14 19h1v1H14zM15 19h1v1H15zM14 20h1v1H14zM15 20h1v1H15zM16 20h1v1H16zM17 20h1v1H17zM15 21h1v1H15zM16 21h1v1H16z"/><path fill="#ffad75" d="M23 21h1v1H23zM22 23h1v1H22z"/><path fill="#ffe503" d="M17 22h1v1H17zM18 22h1v1H18zM19 22h1v1H19zM18 24h1v1H18zM19 24h1v1H19z"/><path fill="#ffb800" d="M18 23h1v1H18z"/><path fill="#ffd875" d="M19 23h1v1H19z"/><path fill="#fae370" d="M7 26h1v1H7zM8 26h1v1H8zM9 26h1v1H9zM10 26h1v1H10zM11 26h1v1H11zM12 26h1v1H12zM14 26h1v1H14zM15 26h1v1H15zM16 26h1v1H16zM17 26h1v1H17zM19 26h1v1H19zM20 26h1v1H20zM21 26h1v1H21zM22 26h1v1H22zM23 26h1v1H23zM24 26h1v1H24z"/></svg>
