<svg xmlns="http://www.w3.org/2000/svg" viewBox="0 0 32 32" shape-rendering="crispEdges"><path fill="#068ca5" d="M7 5h1v1H7zM24 5h1v1H24zM6 13h1v1H6zM25 13h1v1H25zM6 25h1v1H6zM25 25h1v1H25z"/><path fill="#458ce8" d="M8 5h1v1H8zM9 5h1v1H9zM10 5h1v1H10zM19 5h1v1H19zM8 6h1v1H8zM15 6h1v1H15zM16 6h1v1H16zM19 6h1v1H19zM20 6h1v1H20zM8 7h1v1H8zM11 7h1v1H11zM12 7h1v1H12zM13 7h1v1H13zM15 7h1v1H15zM16 7h1v1H16zM17 7h1v1H17zM18 7h1v1H18zM19 7h1v1H19zM20 7h1v1H20zM8 8h1v1H8zM11 8h1v1H11zM12 8h1v1H12zM13 8h1v1H13zM17 8h1v1H17zM18 8h1v1H18zM19 8h1v1H19zM20 8h1v1H20zM23 8h1v1H23zM24 8h1v1H24zM7 9h1v1H7zM8 9h1v1H8zM11 9h1v1H11zM12 9h1v1H12zM13 9h1v1H13zM17 9h1v1H17zM18 9h1v1H18zM19 9h1v1H19zM20 9h1v1H20zM22 9h1v1H22zM23 9h1v1H23zM24 9h1v1H24zM25 9h1v1H25zM7 10h1v1H7zM8 10h1v1H8zM11 10h1v1H11zM12 10h1v1H12zM13 10h1v1H13zM22 10h1v1H22zM23 10h1v1H23zM25 10h1v1H25zM8 11h1v1H8zM9 11h1v1H9zM10 11h1v1H10zM11 11h1v1H11zM15 11h1v1H15zM16 11h1v1H16zM17 11h1v1H17zM22 11h1v1H22zM23 11h1v1H23zM14 12h1v1H14zM17 12h1v1H17zM18 12h1v1H18zM20 12h1v1H20zM21 12h1v1H21zM22 12h1v1H22zM23 12h1v1H23zM24 13h1v1H24z"/><path fill="#5bfef7" d="M11 5h1v1H11zM12 5h1v1H12zM13 5h1v1H13zM14 5h1v1H14zM15 5h1v1H15zM16 5h1v1H16zM17 5h1v1H17zM18 5h1v1H18zM20 5h1v1H20zM21 5h1v1H21zM22 5h1v1H22zM23 5h1v1H23zM7 6h1v1H7zM9 6h1v1H9zM10 6h1v1H10zM11 6h1v1H11zM12 6h1v1H12zM13 6h1v1H13zM14 6h1v1H14zM17 6h1v1H17zM18 6h1v1H18zM21 6h1v1H21zM22 6h1v1H22zM23 6h1v1H23zM24 6h1v1H24zM6 7h1v1H6zM7 7h1v1H7zM9 7h1v1H9zM10 7h1v1H10zM14 7h1v1H14zM21 7h1v1H21zM22 7h1v1H22zM23 7h1v1H23zM24 7h1v1H24zM25 7h1v1H25zM6 8h1v1H6zM7 8h1v1H7zM14 8h1v1H14zM15 8h1v1H15zM16 8h1v1H16zM21 8h1v1H21zM22 8h1v1H22zM25 8h1v1H25zM6 9h1v1H6zM14 9h1v1H14zM15 9h1v1H15zM16 9h1v1H16zM21 9h1v1H21zM6 10h1v1H6zM9 10h1v1H9zM10 10h1v1H10zM14 10h1v1H14zM15 10h1v1H15zM16 10h1v1H16zM17 10h1v1H17zM18 10h1v1H18zM19 10h1v1H19zM20 10h1v1H20zM21 10h1v1H21zM24 10h1v1H24zM26 10h1v1H26zM27 10h1v1H27zM4 11h1v1H4zM5 11h1v1H5zM6 11h1v1H6zM7 11h1v1H7zM12 11h1v1H12zM13 11h1v1H13zM14 11h1v1H14zM18 11h1v1H18zM19 11h1v1H19zM20 11h1v1H20zM21 11h1v1H21zM24 11h1v1H24zM25 11h1v1H25zM26 11h1v1H26zM27 11h1v1H27zM4 12h1v1H4zM5 12h1v1H5zM7 12h1v1H7zM8 12h1v1H8zM9 12h1v1H9zM10 12h1v1H10zM11 12h1v1H11zM12 12h1v1H12zM13 12h1v1H13zM16 12h1v1H16zM19 12h1v1H19zM24 12h1v1H24zM7 13h1v1H7zM10 13h1v1H10zM11 13h1v1H11zM20 13h1v1H20zM21 13h1v1H21zM8 14h1v1H8zM9 14h1v1H9zM20 14h1v1H20zM8 15h1v1H8zM9 15h1v1H9zM8 16h1v1H8zM9 16h1v1H9zM8 17h1v1H8zM9 17h1v1H9zM20 17h1v1H20zM21 17h1v1H21zM8 18h1v1H8zM9 18h1v1H9zM21 18h1v1H21zM25 18h1v1H25zM26 18h1v1H26zM8 19h1v1H8zM9 19h1v1H9zM24 19h1v1H24zM25 19h1v1H25zM21 20h1v1H21zM22 20h1v1H22zM23 20h1v1H23zM24 20h1v1H24zM25 20h1v1H25zM21 21h1v1H21zM22 21h1v1H22zM26 21h1v1H26zM27 21h1v1H27zM5 23h1v1H5zM6 23h1v1H6zM8 24h1v1H8zM9 24h1v1H9zM23 24h1v1H23zM24 24h1v1H24zM23 25h1v1H23zM24 25h1v1H24zM8 27h1v1H8zM9 27h1v1H9zM19 27h1v1H19zM20 27h1v1H20zM23 28h1v1H23zM24 28h1v1H24z"/><path fill="#0fb4cc" d="M6 6h1v1H6zM25 6h1v1H25zM6 14h1v1H6zM7 14h1v1H7zM24 14h1v1H24zM25 14h1v1H25zM6 15h1v1H6zM25 15h1v1H25zM6 24h1v1H6zM25 24h1v1H25z"/><path fill="#ffffff" d="M9 8h1v1H9zM10 8h1v1H10zM26 8h1v1H26zM27 8h1v1H27zM4 9h1v1H4zM5 9h1v1H5zM9 9h1v1H9zM10 9h1v1H10zM26 9h1v1H26zM27 9h1v1H27zM4 10h1v1H4zM5 10h1v1H5zM6 12h1v1H6zM25 12h1v1H25zM8 13h1v1H8zM9 13h1v1H9zM12 13h1v1H12zM13 13h1v1H13zM14 13h1v1H14zM15 13h1v1H15zM16 13h1v1H16zM17 13h1v1H17zM18 13h1v1H18zM19 13h1v1H19zM22 13h1v1H22zM23 13h1v1H23zM21 14h1v1H21zM22 14h1v1H22zM10 15h1v1H10zM11 15h1v1H11zM20 15h1v1H20zM21 15h1v1H21zM22 15h1v1H22zM6 16h1v1H6zM7 16h1v1H7zM10 16h1v1H10zM11 16h1v1H11zM20 16h1v1H20zM21 16h1v1H21zM6 17h1v1H6zM7 17h1v1H7zM12 17h1v1H12zM18 17h1v1H18zM11 18h1v1H11zM13 18h1v1H13zM19 18h1v1H19zM20 18h1v1H20zM23 18h1v1H23zM24 18h1v1H24zM11 19h1v1H11zM20 19h1v1H20zM26 19h1v1H26zM27 19h1v1H27zM7 20h1v1H7zM8 20h1v1H8zM11 20h1v1H11zM20 20h1v1H20zM26 20h1v1H26zM27 20h1v1H27zM5 21h1v1H5zM6 21h1v1H6zM7 21h1v1H7zM8 21h1v1H8zM9 21h1v1H9zM5 22h1v1H5zM6 22h1v1H6zM8 22h1v1H8zM9 22h1v1H9zM23 22h1v1H23zM24 22h1v1H24zM23 23h1v1H23zM24 23h1v1H24zM8 25h1v1H8zM9 25h1v1H9zM19 25h1v1H19zM20 25h1v1H20zM8 26h1v1H8zM9 26h1v1H9zM19 26h1v1H19zM20 26h1v1H20zM23 27h1v1H23zM24 27h1v1H24z"/><path fill="#f2cbff" d="M15 12h1v1H15zM11 14h1v1H11zM12 14h1v1H12zM12 15h1v1H12zM14 15h1v1H14zM15 15h1v1H15zM16 15h1v1H16zM18 15h1v1H18zM19 15h1v1H19zM13 16h1v1H13zM14 16h1v1H14zM15 16h1v1H15zM16 16h1v1H16zM17 16h1v1H17zM18 16h1v1H18zM19 16h1v1H19zM22 16h1v1H22zM23 16h1v1H23zM11 17h1v1H11zM14 17h1v1H14zM15 17h1v1H15zM16 17h1v1H16zM17 17h1v1H17zM22 17h1v1H22zM23 17h1v1H23zM10 18h1v1H10zM15 18h1v1H15zM16 18h1v1H16zM17 18h1v1H17zM22 18h1v1H22zM7 19h1v1H7zM10 19h1v1H10zM17 19h1v1H17zM23 19h1v1H23zM9 20h1v1H9zM10 20h1v1H10zM10 21h1v1H10zM11 21h1v1H11zM12 21h1v1H12zM13 21h1v1H13zM18 21h1v1H18zM19 21h1v1H19zM20 21h1v1H20zM10 22h1v1H10zM13 22h1v1H13zM14 22h1v1H14zM19 22h1v1H19zM20 22h1v1H20zM21 22h1v1H21zM9 23h1v1H9zM13 23h1v1H13zM14 23h1v1H14zM15 23h1v1H15zM16 23h1v1H16zM19 23h1v1H19zM20 23h1v1H20zM21 23h1v1H21zM22 23h1v1H22zM12 24h1v1H12zM13 24h1v1H13zM14 24h1v1H14zM15 24h1v1H15zM18 24h1v1H18zM19 24h1v1H19zM20 24h1v1H20z"/><path fill="#378fff" d="M10 14h1v1H10zM13 14h1v1H13zM14 14h1v1H14zM18 14h1v1H18zM19 14h1v1H19zM13 15h1v1H13zM17 15h1v1H17zM24 15h1v1H24zM12 16h1v1H12zM24 16h1v1H24zM25 16h1v1H25zM24 17h1v1H24zM6 18h1v1H6zM21 19h1v1H21zM22 19h1v1H22zM23 21h1v1H23zM24 21h1v1H24zM22 22h1v1H22zM7 23h1v1H7zM8 23h1v1H8zM10 24h1v1H10zM11 24h1v1H11zM16 24h1v1H16zM17 24h1v1H17zM21 24h1v1H21zM22 24h1v1H22zM10 25h1v1H10zM12 25h1v1H12zM13 25h1v1H13zM14 25h1v1H14zM15 25h1v1H15zM16 25h1v1H16zM21 25h1v1H21zM22 25h1v1H22zM7 26h1v1H7zM13 26h1v1H13zM16 26h1v1H16zM17 26h1v1H17zM21 26h1v1H21zM22 26h1v1H22zM23 26h1v1H23zM24 26h1v1H24z"/><path fill="#25d8ee" d="M15 14h1v1H15zM16 14h1v1H16zM17 14h1v1H17zM23 14h1v1H23zM7 15h1v1H7zM23 15h1v1H23zM10 17h1v1H10zM25 17h1v1H25zM7 18h1v1H7zM6 19h1v1H6zM6 20h1v1H6zM25 21h1v1H25zM7 22h1v1H7zM25 22h1v1H25zM10 23h1v1H10zM25 23h1v1H25zM7 24h1v1H7zM7 25h1v1H7zM11 25h1v1H11zM17 25h1v1H17zM18 25h1v1H18zM10 26h1v1H10zM11 26h1v1H11zM12 26h1v1H12zM14 26h1v1H14zM15 26h1v1H15zM18 26h1v1H18zM25 26h1v1H25zM7 27h1v1H7zM10 27h1v1H10zM18 27h1v1H18zM21 27h1v1H21zM22 27h1v1H22zM25 27h1v1H25zM8 28h1v1H8zM9 28h1v1H9zM19 28h1v1H19zM20 28h1v1H20zM22 28h1v1H22zM25 28h1v1H25zM23 29h1v1H23zM24 29h1v1H24z"/><path fill="#0e0e14" d="M13 17h1v1H13zM19 17h1v1H19zM12 18h1v1H12zM18 18h1v1H18zM12 19h1v1H12zM13 19h1v1H13zM18 19h1v1H18zM19 19h1v1H19zM12 20h1v1H12zM13 20h1v1H13zM18 20h1v1H18zM19 20h1v1H19z"/><path fill="#fffbfd" d="M14 18h1v1H14zM14 19h1v1H14zM15 19h1v1H15zM16 19h1v1H16zM14 20h1v1H14zM15 20h1v1H15zM16 20h1v1H16zM17 20h1v1H17zM14 21h1v1H14zM15 21h1v1H15zM16 21h1v1H16zM17 21h1v1H17zM11 22h1v1H11zM12 22h1v1H12zM15 22h1v1H15zM16 22h1v1H16zM17 22h1v1H17zM18 22h1v1H18zM11 23h1v1H11zM12 23h1v1H12zM17 23h1v1H17zM18 23h1v1H18z"/></svg>
