<svg xmlns="http://www.w3.org/2000/svg" viewBox="0 0 32 32" shape-rendering="crispEdges"><path fill="#3da2ec" d="M15 2h1v1H15zM16 2h1v1H16zM9 3h1v1H9zM10 3h1v1H10zM21 3h1v1H21zM22 3h1v1H22zM8 4h1v1H8zM10 4h1v1H10zM21 4h1v1H21zM23 4h1v1H23zM7 5h1v1H7zM24 5h1v1H24zM8 6h1v1H8zM10 6h1v1H10zM21 6h1v1H21zM23 6h1v1H23zM14 7h1v1H14zM17 7h1v1H17zM7 8h1v1H7zM8 8h1v1H8zM23 8h1v1H23zM24 8h1v1H24zM6 9h1v1H6zM8 9h1v1H8zM13 9h1v1H13zM18 9h1v1H18zM23 9h1v1H23zM25 9h1v1H25zM5 10h1v1H5zM12 10h1v1H12zM19 10h1v1H19zM26 10h1v1H26zM6 11h1v1H6zM25 11h1v1H25zM2 13h1v1H2zM6 13h1v1H6zM25 13h1v1H25zM29 13h1v1H29zM1 14h1v1H1zM30 14h1v1H30zM1 15h1v1H1zM10 15h1v1H10zM21 15h1v1H21zM30 15h1v1H30zM1 16h1v1H1zM30 16h1v1H30zM1 17h1v1H1zM30 17h1v1H30zM3 18h1v1H3zM28 18h1v1H28zM1 19h1v1H1zM3 19h1v1H3zM28 19h1v1H28zM30 19h1v1H30zM1 20h1v1H1zM3 20h1v1H3zM28 20h1v1H28zM30 20h1v1H30zM3 22h1v1H3zM6 22h1v1H6zM25 22h1v1H25zM28 22h1v1H28zM2 23h1v1H2zM6 23h1v1H6zM25 23h1v1H25zM29 23h1v1H29zM7 24h1v1H7zM24 24h1v1H24zM9 25h1v1H9zM10 25h1v1H10zM12 25h1v1H12zM14 25h1v1H14zM17 25h1v1H17zM19 25h1v1H19zM21 25h1v1H21zM22 25h1v1H22zM15 28h1v1H15zM16 28h1v1H16z"/><path fill="#c6f4fc" d="M14 3h1v1H14zM17 3h1v1H17zM9 5h1v1H9zM22 5h1v1H22zM12 6h1v1H12zM14 6h1v1H14zM17 6h1v1H17zM19 6h1v1H19zM11 7h1v1H11zM15 7h1v1H15zM16 7h1v1H16zM20 7h1v1H20zM10 8h1v1H10zM21 8h1v1H21zM11 9h1v1H11zM20 9h1v1H20zM7 10h1v1H7zM15 10h1v1H15zM16 10h1v1H16zM24 10h1v1H24zM9 11h1v1H9zM14 11h1v1H14zM17 11h1v1H17zM22 11h1v1H22zM10 12h1v1H10zM13 12h1v1H13zM16 12h1v1H16zM17 12h1v1H17zM18 12h1v1H18zM21 12h1v1H21zM5 13h1v1H5zM8 13h1v1H8zM9 13h1v1H9zM16 13h1v1H16zM22 13h1v1H22zM23 13h1v1H23zM26 13h1v1H26zM2 14h1v1H2zM5 14h1v1H5zM9 14h1v1H9zM13 14h1v1H13zM15 14h1v1H15zM16 14h1v1H16zM18 14h1v1H18zM22 14h1v1H22zM26 14h1v1H26zM29 14h1v1H29zM5 15h1v1H5zM26 15h1v1H26zM5 16h1v1H5zM15 16h1v1H15zM16 16h1v1H16zM26 16h1v1H26zM3 17h1v1H3zM5 17h1v1H5zM26 17h1v1H26zM28 17h1v1H28zM2 20h1v1H2zM5 20h1v1H5zM26 20h1v1H26zM29 20h1v1H29zM5 21h1v1H5zM26 21h1v1H26zM5 22h1v1H5zM26 22h1v1H26zM10 24h1v1H10zM21 24h1v1H21zM6 25h1v1H6zM25 25h1v1H25zM15 27h1v1H15zM16 27h1v1H16z"/><path fill="#fefefe" d="M15 3h1v1H15zM16 3h1v1H16zM15 5h1v1H15zM16 5h1v1H16zM15 6h1v1H15zM16 6h1v1H16zM9 8h1v1H9zM22 8h1v1H22zM12 9h1v1H12zM19 9h1v1H19zM9 10h1v1H9zM22 10h1v1H22zM12 11h1v1H12zM19 11h1v1H19zM6 12h1v1H6zM7 12h1v1H7zM12 12h1v1H12zM19 12h1v1H19zM24 12h1v1H24zM25 12h1v1H25zM10 13h1v1H10zM12 13h1v1H12zM19 13h1v1H19zM21 13h1v1H21zM2 15h1v1H2zM12 15h1v1H12zM19 15h1v1H19zM29 15h1v1H29zM3 16h1v1H3zM28 16h1v1H28zM4 18h1v1H4zM27 18h1v1H27zM8 23h1v1H8zM23 23h1v1H23zM6 24h1v1H6zM13 24h1v1H13zM18 24h1v1H18zM25 24h1v1H25zM7 25h1v1H7zM24 25h1v1H24zM14 26h1v1H14zM15 26h1v1H15zM16 26h1v1H16zM17 26h1v1H17zM13 27h1v1H13zM18 27h1v1H18z"/><path fill="#fdfdfd" d="M9 4h1v1H9zM15 4h1v1H15zM16 4h1v1H16zM22 4h1v1H22zM8 5h1v1H8zM14 5h1v1H14zM17 5h1v1H17zM23 5h1v1H23zM5 9h1v1H5zM7 9h1v1H7zM10 9h1v1H10zM21 9h1v1H21zM24 9h1v1H24zM26 9h1v1H26zM6 10h1v1H6zM13 10h1v1H13zM18 10h1v1H18zM25 10h1v1H25zM10 11h1v1H10zM13 11h1v1H13zM18 11h1v1H18zM21 11h1v1H21zM14 12h1v1H14zM15 12h1v1H15zM14 13h1v1H14zM15 13h1v1H15zM17 13h1v1H17zM13 16h1v1H13zM18 16h1v1H18zM15 18h1v1H15zM16 18h1v1H16zM7 22h1v1H7zM24 22h1v1H24zM9 23h1v1H9zM10 23h1v1H10zM21 23h1v1H21zM22 23h1v1H22zM12 24h1v1H12zM15 24h1v1H15zM16 24h1v1H16zM19 24h1v1H19z"/><path fill="#2173b5" d="M14 4h1v1H14zM17 4h1v1H17zM13 5h1v1H13zM18 5h1v1H18zM6 6h1v1H6zM13 6h1v1H13zM18 6h1v1H18zM25 6h1v1H25zM4 11h1v1H4zM11 11h1v1H11zM20 11h1v1H20zM27 11h1v1H27zM4 12h1v1H4zM11 12h1v1H11zM20 12h1v1H20zM27 12h1v1H27zM4 13h1v1H4zM7 13h1v1H7zM24 13h1v1H24zM27 13h1v1H27zM3 15h1v1H3zM11 15h1v1H11zM20 15h1v1H20zM28 15h1v1H28zM7 16h1v1H7zM24 16h1v1H24zM2 18h1v1H2zM29 18h1v1H29zM4 20h1v1H4zM27 20h1v1H27zM2 21h1v1H2zM29 21h1v1H29zM2 22h1v1H2zM29 22h1v1H29zM1 23h1v1H1zM30 23h1v1H30zM5 25h1v1H5zM8 25h1v1H8zM23 25h1v1H23zM26 25h1v1H26zM6 26h1v1H6zM8 26h1v1H8zM9 26h1v1H9zM10 26h1v1H10zM11 26h1v1H11zM12 26h1v1H12zM19 26h1v1H19zM20 26h1v1H20zM21 26h1v1H21zM22 26h1v1H22zM23 26h1v1H23zM25 26h1v1H25zM7 27h1v1H7zM11 27h1v1H11zM20 27h1v1H20zM24 27h1v1H24z"/><path fill="#96e9fb" d="M10 5h1v1H10zM21 5h1v1H21zM9 6h1v1H9zM11 6h1v1H11zM20 6h1v1H20zM22 6h1v1H22zM6 7h1v1H6zM7 7h1v1H7zM8 7h1v1H8zM9 7h1v1H9zM10 7h1v1H10zM12 7h1v1H12zM13 7h1v1H13zM18 7h1v1H18zM19 7h1v1H19zM21 7h1v1H21zM22 7h1v1H22zM23 7h1v1H23zM24 7h1v1H24zM25 7h1v1H25zM5 8h1v1H5zM6 8h1v1H6zM11 8h1v1H11zM12 8h1v1H12zM13 8h1v1H13zM14 8h1v1H14zM15 8h1v1H15zM16 8h1v1H16zM17 8h1v1H17zM18 8h1v1H18zM19 8h1v1H19zM20 8h1v1H20zM25 8h1v1H25zM26 8h1v1H26zM9 9h1v1H9zM14 9h1v1H14zM15 9h1v1H15zM16 9h1v1H16zM17 9h1v1H17zM22 9h1v1H22zM10 10h1v1H10zM11 10h1v1H11zM20 10h1v1H20zM21 10h1v1H21zM9 12h1v1H9zM22 12h1v1H22zM13 13h1v1H13zM18 13h1v1H18zM6 14h1v1H6zM8 14h1v1H8zM14 14h1v1H14zM17 14h1v1H17zM23 14h1v1H23zM25 14h1v1H25zM6 15h1v1H6zM14 15h1v1H14zM15 15h1v1H15zM16 15h1v1H16zM17 15h1v1H17zM25 15h1v1H25zM2 16h1v1H2zM6 16h1v1H6zM25 16h1v1H25zM29 16h1v1H29zM2 17h1v1H2zM6 17h1v1H6zM15 17h1v1H15zM16 17h1v1H16zM25 17h1v1H25zM29 17h1v1H29zM5 18h1v1H5zM6 18h1v1H6zM25 18h1v1H25zM26 18h1v1H26zM4 19h1v1H4zM5 19h1v1H5zM6 19h1v1H6zM25 19h1v1H25zM26 19h1v1H26zM27 19h1v1H27zM6 20h1v1H6zM25 20h1v1H25zM3 21h1v1H3zM6 21h1v1H6zM25 21h1v1H25zM28 21h1v1H28zM7 23h1v1H7zM24 23h1v1H24zM5 24h1v1H5zM8 24h1v1H8zM9 24h1v1H9zM22 24h1v1H22zM23 24h1v1H23zM26 24h1v1H26zM13 25h1v1H13zM15 25h1v1H15zM16 25h1v1H16zM18 25h1v1H18zM7 26h1v1H7zM24 26h1v1H24zM14 27h1v1H14zM17 27h1v1H17z"/><path fill="#07467f" d="M11 5h1v1H11zM20 5h1v1H20zM7 6h1v1H7zM24 6h1v1H24zM8 10h1v1H8zM14 10h1v1H14zM17 10h1v1H17zM23 10h1v1H23zM5 11h1v1H5zM7 11h1v1H7zM8 11h1v1H8zM15 11h1v1H15zM16 11h1v1H16zM23 11h1v1H23zM24 11h1v1H24zM26 11h1v1H26zM11 13h1v1H11zM20 13h1v1H20zM4 14h1v1H4zM10 14h1v1H10zM12 14h1v1H12zM19 14h1v1H19zM21 14h1v1H21zM27 14h1v1H27zM4 15h1v1H4zM8 15h1v1H8zM9 15h1v1H9zM13 15h1v1H13zM18 15h1v1H18zM22 15h1v1H22zM23 15h1v1H23zM27 15h1v1H27zM4 16h1v1H4zM14 16h1v1H14zM17 16h1v1H17zM27 16h1v1H27zM4 17h1v1H4zM27 17h1v1H27zM4 21h1v1H4zM27 21h1v1H27zM4 22h1v1H4zM27 22h1v1H27zM4 23h1v1H4zM27 23h1v1H27zM4 24h1v1H4zM27 24h1v1H27zM13 26h1v1H13zM18 26h1v1H18zM12 27h1v1H12zM19 27h1v1H19zM14 28h1v1H14zM17 28h1v1H17zM15 29h1v1H15zM16 29h1v1H16z"/><path fill="#f3fbfd" d="M5 12h1v1H5zM8 12h1v1H8zM23 12h1v1H23zM26 12h1v1H26zM7 14h1v1H7zM11 14h1v1H11zM20 14h1v1H20zM24 14h1v1H24zM7 15h1v1H7zM24 15h1v1H24zM14 17h1v1H14zM17 17h1v1H17zM2 19h1v1H2zM29 19h1v1H29zM5 23h1v1H5zM26 23h1v1H26zM11 24h1v1H11zM14 24h1v1H14zM17 24h1v1H17zM20 24h1v1H20zM11 25h1v1H11zM20 25h1v1H20z"/><path fill="#000000" d="M8 16h1v1H8zM9 16h1v1H9zM10 16h1v1H10zM11 16h1v1H11zM12 16h1v1H12zM19 16h1v1H19zM20 16h1v1H20zM21 16h1v1H21zM22 16h1v1H22zM23 16h1v1H23zM7 17h1v1H7zM8 17h1v1H8zM9 17h1v1H9zM10 17h1v1H10zM13 17h1v1H13zM18 17h1v1H18zM21 17h1v1H21zM22 17h1v1H22zM23 17h1v1H23zM24 17h1v1H24zM7 18h1v1H7zM8 18h1v1H8zM9 18h1v1H9zM14 18h1v1H14zM17 18h1v1H17zM22 18h1v1H22zM23 18h1v1H23zM24 18h1v1H24zM7 19h1v1H7zM8 19h1v1H8zM9 19h1v1H9zM13 19h1v1H13zM14 19h1v1H14zM15 19h1v1H15zM16 19h1v1H16zM17 19h1v1H17zM18 19h1v1H18zM22 19h1v1H22zM23 19h1v1H23zM24 19h1v1H24zM7 20h1v1H7zM8 20h1v1H8zM9 20h1v1H9zM13 20h1v1H13zM14 20h1v1H14zM15 20h1v1H15zM16 20h1v1H16zM17 20h1v1H17zM18 20h1v1H18zM22 20h1v1H22zM23 20h1v1H23zM24 20h1v1H24zM7 21h1v1H7zM8 21h1v1H8zM9 21h1v1H9zM10 21h1v1H10zM14 21h1v1H14zM15 21h1v1H15zM16 21h1v1H16zM17 21h1v1H17zM21 21h1v1H21zM22 21h1v1H22zM23 21h1v1H23zM24 21h1v1H24zM8 22h1v1H8zM9 22h1v1H9zM10 22h1v1H10zM11 22h1v1H11zM14 22h1v1H14zM15 22h1v1H15zM16 22h1v1H16zM17 22h1v1H17zM20 22h1v1H20zM21 22h1v1H21zM22 22h1v1H22zM23 22h1v1H23zM11 23h1v1H11zM12 23h1v1H12zM13 23h1v1H13zM14 23h1v1H14zM15 23h1v1H15zM16 23h1v1H16zM17 23h1v1H17zM18 23h1v1H18zM19 23h1v1H19zM20 23h1v1H20z"/><path fill="#ffffff" d="M11 17h1v1H11zM12 17h1v1H12zM19 17h1v1H19zM20 17h1v1H20zM11 18h1v1H11zM12 18h1v1H12zM13 18h1v1H13zM18 18h1v1H18zM19 18h1v1H19zM20 18h1v1H20zM11 19h1v1H11zM12 19h1v1H12zM19 19h1v1H19zM20 19h1v1H20zM11 20h1v1H11zM12 20h1v1H12zM19 20h1v1H19zM20 20h1v1H20zM11 21h1v1H11zM12 21h1v1H12zM19 21h1v1H19zM20 21h1v1H20zM12 22h1v1H12zM13 22h1v1H13zM18 22h1v1H18zM19 22h1v1H19z"/><path fill="#92ecfb" d="M10 18h1v1H10zM21 18h1v1H21z"/><path fill="#56bdee" d="M10 19h1v1H10zM21 19h1v1H21zM13 21h1v1H13zM18 21h1v1H18z"/><path fill="#0a54a2" d="M10 20h1v1H10zM21 20h1v1H21z"/></svg>
