<svg xmlns="http://www.w3.org/2000/svg" viewBox="0 0 32 32" shape-rendering="crispEdges"><path fill="#0234bc" d="M15 1h1v1H15zM16 1h1v1H16zM13 6h1v1H13zM18 6h1v1H18zM14 14h1v1H14zM13 16h1v1H13zM18 16h1v1H18zM14 17h1v1H14zM17 17h1v1H17zM2 18h1v1H2zM15 18h1v1H15zM16 18h1v1H16zM29 18h1v1H29zM3 22h1v1H3zM28 22h1v1H28zM3 23h1v1H3zM6 23h1v1H6zM25 23h1v1H25zM28 23h1v1H28zM3 24h1v1H3zM4 24h1v1H4zM7 24h1v1H7zM24 24h1v1H24zM27 24h1v1H27zM28 24h1v1H28zM9 26h1v1H9zM10 26h1v1H10zM11 26h1v1H11zM20 26h1v1H20zM21 26h1v1H21zM22 26h1v1H22zM7 27h1v1H7zM12 27h1v1H12zM14 27h1v1H14zM17 27h1v1H17zM19 27h1v1H19zM24 27h1v1H24z"/><path fill="#042579" d="M14 2h1v1H14zM17 2h1v1H17zM13 7h1v1H13zM14 7h1v1H14zM17 7h1v1H17zM18 7h1v1H18zM14 8h1v1H14zM17 8h1v1H17zM6 12h1v1H6zM17 12h1v1H17zM25 12h1v1H25zM17 14h1v1H17zM5 24h1v1H5zM26 24h1v1H26zM5 25h1v1H5zM26 25h1v1H26zM19 26h1v1H19zM15 28h1v1H15zM16 28h1v1H16z"/><path fill="#f0f9fd" d="M15 2h1v1H15zM16 2h1v1H16zM14 3h1v1H14zM15 3h1v1H15zM16 3h1v1H16zM8 4h1v1H8zM15 4h1v1H15zM16 4h1v1H16zM23 4h1v1H23zM7 5h1v1H7zM8 5h1v1H8zM15 5h1v1H15zM18 5h1v1H18zM23 5h1v1H23zM24 5h1v1H24zM7 6h1v1H7zM12 6h1v1H12zM24 6h1v1H24zM6 8h1v1H6zM25 8h1v1H25zM7 9h1v1H7zM8 9h1v1H8zM23 9h1v1H23zM24 9h1v1H24zM3 11h1v1H3zM14 11h1v1H14zM28 11h1v1H28zM7 12h1v1H7zM13 12h1v1H13zM15 12h1v1H15zM16 12h1v1H16zM18 12h1v1H18zM24 12h1v1H24zM6 13h1v1H6zM15 13h1v1H15zM16 13h1v1H16zM25 13h1v1H25zM6 14h1v1H6zM25 14h1v1H25zM6 15h1v1H6zM25 15h1v1H25zM4 16h1v1H4zM6 16h1v1H6zM25 16h1v1H25zM27 16h1v1H27zM6 17h1v1H6zM25 17h1v1H25zM6 18h1v1H6zM25 18h1v1H25zM6 19h1v1H6zM25 19h1v1H25zM6 20h1v1H6zM25 20h1v1H25zM6 21h1v1H6zM25 21h1v1H25zM4 22h1v1H4zM27 22h1v1H27zM9 24h1v1H9zM10 24h1v1H10zM11 24h1v1H11zM12 24h1v1H12zM13 24h1v1H13zM15 24h1v1H15zM16 24h1v1H16zM18 24h1v1H18zM19 24h1v1H19zM20 24h1v1H20zM21 24h1v1H21zM22 24h1v1H22zM7 25h1v1H7zM14 25h1v1H14zM17 25h1v1H17zM24 25h1v1H24zM8 26h1v1H8zM13 26h1v1H13zM18 26h1v1H18zM23 26h1v1H23z"/><path fill="#0247d4" d="M8 3h1v1H8zM23 3h1v1H23zM7 4h1v1H7zM24 4h1v1H24zM10 5h1v1H10zM21 5h1v1H21zM6 6h1v1H6zM9 6h1v1H9zM22 6h1v1H22zM25 6h1v1H25zM8 7h1v1H8zM12 7h1v1H12zM19 7h1v1H19zM23 7h1v1H23zM4 9h1v1H4zM27 9h1v1H27zM3 10h1v1H3zM28 10h1v1H28zM2 11h1v1H2zM29 11h1v1H29zM9 12h1v1H9zM10 12h1v1H10zM21 12h1v1H21zM22 12h1v1H22zM11 13h1v1H11zM17 13h1v1H17zM20 13h1v1H20zM3 16h1v1H3zM28 16h1v1H28zM2 17h1v1H2zM29 17h1v1H29zM10 20h1v1H10zM21 20h1v1H21zM6 24h1v1H6zM8 24h1v1H8zM23 24h1v1H23zM25 24h1v1H25zM6 25h1v1H6zM25 25h1v1H25zM6 26h1v1H6zM25 26h1v1H25zM8 27h1v1H8zM23 27h1v1H23z"/><path fill="#01164b" d="M13 3h1v1H13zM18 3h1v1H18zM12 4h1v1H12zM19 4h1v1H19zM6 5h1v1H6zM12 5h1v1H12zM19 5h1v1H19zM25 5h1v1H25zM6 7h1v1H6zM7 7h1v1H7zM24 7h1v1H24zM25 7h1v1H25zM19 8h1v1H19zM13 9h1v1H13zM14 9h1v1H14zM17 9h1v1H17zM18 9h1v1H18zM15 10h1v1H15zM16 10h1v1H16zM13 11h1v1H13zM18 11h1v1H18zM12 12h1v1H12zM19 12h1v1H19zM5 13h1v1H5zM7 13h1v1H7zM12 13h1v1H12zM19 13h1v1H19zM24 13h1v1H24zM26 13h1v1H26zM5 14h1v1H5zM12 14h1v1H12zM19 14h1v1H19zM26 14h1v1H26zM14 15h1v1H14zM17 15h1v1H17zM15 16h1v1H15zM16 16h1v1H16zM5 22h1v1H5zM26 22h1v1H26zM5 23h1v1H5zM26 23h1v1H26zM5 26h1v1H5zM12 26h1v1H12zM26 26h1v1H26zM6 27h1v1H6zM9 27h1v1H9zM10 27h1v1H10zM11 27h1v1H11zM13 27h1v1H13zM18 27h1v1H18zM20 27h1v1H20zM21 27h1v1H21zM22 27h1v1H22zM25 27h1v1H25zM7 28h1v1H7zM8 28h1v1H8zM14 28h1v1H14zM17 28h1v1H17zM21 28h1v1H21zM22 28h1v1H22zM23 28h1v1H23zM24 28h1v1H24zM15 29h1v1H15zM16 29h1v1H16z"/><path fill="#0b5ae9" d="M17 3h1v1H17zM17 4h1v1H17zM18 4h1v1H18zM11 5h1v1H11zM17 5h1v1H17zM20 5h1v1H20zM10 6h1v1H10zM17 6h1v1H17zM21 6h1v1H21zM9 7h1v1H9zM11 7h1v1H11zM20 7h1v1H20zM22 7h1v1H22zM5 8h1v1H5zM13 8h1v1H13zM15 8h1v1H15zM16 8h1v1H16zM18 8h1v1H18zM26 8h1v1H26zM5 9h1v1H5zM15 9h1v1H15zM16 9h1v1H16zM26 9h1v1H26zM5 10h1v1H5zM6 10h1v1H6zM12 10h1v1H12zM14 10h1v1H14zM17 10h1v1H17zM19 10h1v1H19zM25 10h1v1H25zM26 10h1v1H26zM5 11h1v1H5zM7 11h1v1H7zM8 11h1v1H8zM9 11h1v1H9zM10 11h1v1H10zM11 11h1v1H11zM12 11h1v1H12zM19 11h1v1H19zM20 11h1v1H20zM21 11h1v1H21zM22 11h1v1H22zM23 11h1v1H23zM24 11h1v1H24zM26 11h1v1H26zM2 12h1v1H2zM5 12h1v1H5zM14 12h1v1H14zM26 12h1v1H26zM29 12h1v1H29zM3 13h1v1H3zM4 13h1v1H4zM8 13h1v1H8zM9 13h1v1H9zM10 13h1v1H10zM21 13h1v1H21zM22 13h1v1H22zM23 13h1v1H23zM27 13h1v1H27zM28 13h1v1H28zM5 15h1v1H5zM13 15h1v1H13zM18 15h1v1H18zM26 15h1v1H26zM3 19h1v1H3zM4 19h1v1H4zM27 19h1v1H27zM28 19h1v1H28zM4 21h1v1H4zM5 21h1v1H5zM26 21h1v1H26zM27 21h1v1H27zM4 23h1v1H4zM27 23h1v1H27zM8 25h1v1H8zM9 25h1v1H9zM13 25h1v1H13zM18 25h1v1H18zM22 25h1v1H22zM23 25h1v1H23zM17 26h1v1H17z"/><path fill="#9fe5fd" d="M13 4h1v1H13zM14 4h1v1H14zM13 5h1v1H13zM14 5h1v1H14zM14 6h1v1H14zM15 7h1v1H15zM16 7h1v1H16zM7 8h1v1H7zM24 8h1v1H24zM9 9h1v1H9zM10 9h1v1H10zM11 9h1v1H11zM20 9h1v1H20zM21 9h1v1H21zM22 9h1v1H22zM6 11h1v1H6zM17 11h1v1H17zM25 11h1v1H25zM11 12h1v1H11zM20 12h1v1H20zM13 13h1v1H13zM13 14h1v1H13zM4 15h1v1H4zM15 15h1v1H15zM16 15h1v1H16zM27 15h1v1H27zM10 18h1v1H10zM21 18h1v1H21zM6 22h1v1H6zM7 22h1v1H7zM24 22h1v1H24zM25 22h1v1H25zM7 23h1v1H7zM8 23h1v1H8zM23 23h1v1H23zM24 23h1v1H24zM14 24h1v1H14zM17 24h1v1H17z"/><path fill="#2894fb" d="M9 5h1v1H9zM16 5h1v1H16zM22 5h1v1H22zM8 6h1v1H8zM11 6h1v1H11zM15 6h1v1H15zM16 6h1v1H16zM19 6h1v1H19zM20 6h1v1H20zM23 6h1v1H23zM10 7h1v1H10zM21 7h1v1H21zM8 8h1v1H8zM9 8h1v1H9zM10 8h1v1H10zM11 8h1v1H11zM20 8h1v1H20zM21 8h1v1H21zM22 8h1v1H22zM23 8h1v1H23zM6 9h1v1H6zM12 9h1v1H12zM19 9h1v1H19zM25 9h1v1H25zM4 10h1v1H4zM7 10h1v1H7zM8 10h1v1H8zM9 10h1v1H9zM10 10h1v1H10zM11 10h1v1H11zM13 10h1v1H13zM18 10h1v1H18zM20 10h1v1H20zM21 10h1v1H21zM22 10h1v1H22zM23 10h1v1H23zM24 10h1v1H24zM27 10h1v1H27zM4 11h1v1H4zM15 11h1v1H15zM16 11h1v1H16zM27 11h1v1H27zM3 12h1v1H3zM4 12h1v1H4zM8 12h1v1H8zM23 12h1v1H23zM27 12h1v1H27zM28 12h1v1H28zM14 13h1v1H14zM18 13h1v1H18zM7 14h1v1H7zM11 14h1v1H11zM15 14h1v1H15zM16 14h1v1H16zM18 14h1v1H18zM20 14h1v1H20zM24 14h1v1H24zM12 15h1v1H12zM19 15h1v1H19zM5 16h1v1H5zM14 16h1v1H14zM17 16h1v1H17zM26 16h1v1H26zM3 17h1v1H3zM4 17h1v1H4zM5 17h1v1H5zM15 17h1v1H15zM16 17h1v1H16zM26 17h1v1H26zM27 17h1v1H27zM28 17h1v1H28zM3 18h1v1H3zM4 18h1v1H4zM5 18h1v1H5zM26 18h1v1H26zM27 18h1v1H27zM28 18h1v1H28zM5 19h1v1H5zM10 19h1v1H10zM21 19h1v1H21zM26 19h1v1H26zM5 20h1v1H5zM26 20h1v1H26zM13 21h1v1H13zM18 21h1v1H18zM10 25h1v1H10zM11 25h1v1H11zM12 25h1v1H12zM15 25h1v1H15zM16 25h1v1H16zM19 25h1v1H19zM20 25h1v1H20zM21 25h1v1H21zM7 26h1v1H7zM14 26h1v1H14zM15 26h1v1H15zM16 26h1v1H16zM24 26h1v1H24zM15 27h1v1H15zM16 27h1v1H16z"/><path fill="#040914" d="M12 8h1v1H12z"/><path fill="#000000" d="M8 14h1v1H8zM9 14h1v1H9zM10 14h1v1H10zM21 14h1v1H21zM22 14h1v1H22zM23 14h1v1H23zM7 15h1v1H7zM8 15h1v1H8zM9 15h1v1H9zM10 15h1v1H10zM11 15h1v1H11zM20 15h1v1H20zM21 15h1v1H21zM22 15h1v1H22zM23 15h1v1H23zM24 15h1v1H24zM7 16h1v1H7zM8 16h1v1H8zM9 16h1v1H9zM10 16h1v1H10zM11 16h1v1H11zM12 16h1v1H12zM19 16h1v1H19zM20 16h1v1H20zM21 16h1v1H21zM22 16h1v1H22zM23 16h1v1H23zM24 16h1v1H24zM7 17h1v1H7zM8 17h1v1H8zM9 17h1v1H9zM10 17h1v1H10zM13 17h1v1H13zM18 17h1v1H18zM21 17h1v1H21zM22 17h1v1H22zM23 17h1v1H23zM24 17h1v1H24zM7 18h1v1H7zM8 18h1v1H8zM9 18h1v1H9zM14 18h1v1H14zM17 18h1v1H17zM22 18h1v1H22zM23 18h1v1H23zM24 18h1v1H24zM7 19h1v1H7zM8 19h1v1H8zM9 19h1v1H9zM13 19h1v1H13zM14 19h1v1H14zM15 19h1v1H15zM16 19h1v1H16zM17 19h1v1H17zM18 19h1v1H18zM22 19h1v1H22zM23 19h1v1H23zM24 19h1v1H24zM7 20h1v1H7zM8 20h1v1H8zM9 20h1v1H9zM13 20h1v1H13zM14 20h1v1H14zM15 20h1v1H15zM16 20h1v1H16zM17 20h1v1H17zM18 20h1v1H18zM22 20h1v1H22zM23 20h1v1H23zM24 20h1v1H24zM7 21h1v1H7zM8 21h1v1H8zM9 21h1v1H9zM10 21h1v1H10zM14 21h1v1H14zM15 21h1v1H15zM16 21h1v1H16zM17 21h1v1H17zM21 21h1v1H21zM22 21h1v1H22zM23 21h1v1H23zM24 21h1v1H24zM8 22h1v1H8zM9 22h1v1H9zM10 22h1v1H10zM11 22h1v1H11zM14 22h1v1H14zM15 22h1v1H15zM16 22h1v1H16zM17 22h1v1H17zM20 22h1v1H20zM21 22h1v1H21zM22 22h1v1H22zM23 22h1v1H23zM9 23h1v1H9zM10 23h1v1H10zM11 23h1v1H11zM12 23h1v1H12zM13 23h1v1H13zM14 23h1v1H14zM15 23h1v1H15zM16 23h1v1H16zM17 23h1v1H17zM18 23h1v1H18zM19 23h1v1H19zM20 23h1v1H20zM21 23h1v1H21zM22 23h1v1H22z"/><path fill="#ffffff" d="M11 17h1v1H11zM12 17h1v1H12zM19 17h1v1H19zM20 17h1v1H20zM11 18h1v1H11zM12 18h1v1H12zM13 18h1v1H13zM18 18h1v1H18zM19 18h1v1H19zM20 18h1v1H20zM11 19h1v1H11zM12 19h1v1H12zM19 19h1v1H19zM20 19h1v1H20zM11 20h1v1H11zM12 20h1v1H12zM19 20h1v1H19zM20 20h1v1H20zM11 21h1v1H11zM12 21h1v1H12zM19 21h1v1H19zM20 21h1v1H20zM12 22h1v1H12zM13 22h1v1H13zM18 22h1v1H18zM19 22h1v1H19z"/></svg>
