<svg xmlns="http://www.w3.org/2000/svg" viewBox="0 0 32 32" shape-rendering="crispEdges"><path fill="#2b5a35" d="M3 2h1v1H3zM4 2h1v1H4zM5 2h1v1H5zM26 2h1v1H26zM27 2h1v1H27zM28 2h1v1H28zM2 3h1v1H2zM4 3h1v1H4zM5 3h1v1H5zM6 3h1v1H6zM25 3h1v1H25zM26 3h1v1H26zM27 3h1v1H27zM29 3h1v1H29zM5 4h1v1H5zM6 4h1v1H6zM25 4h1v1H25zM26 4h1v1H26zM6 5h1v1H6zM14 5h1v1H14zM25 5h1v1H25zM3 9h1v1H3zM12 9h1v1H12zM15 9h1v1H15zM19 9h1v1H19zM28 9h1v1H28zM13 10h1v1H13zM18 10h1v1H18zM7 11h1v1H7zM14 11h1v1H14zM15 11h1v1H15zM16 11h1v1H16zM17 11h1v1H17zM24 11h1v1H24zM8 12h1v1H8zM23 12h1v1H23zM27 12h1v1H27zM4 18h1v1H4zM5 18h1v1H5zM26 18h1v1H26zM27 18h1v1H27zM2 20h1v1H2zM29 20h1v1H29zM5 23h1v1H5zM26 23h1v1H26zM5 24h1v1H5zM26 24h1v1H26zM4 25h1v1H4zM5 25h1v1H5zM6 25h1v1H6zM25 25h1v1H25zM26 25h1v1H26zM27 25h1v1H27zM1 26h1v1H1zM3 26h1v1H3zM4 26h1v1H4zM5 26h1v1H5zM26 26h1v1H26zM27 26h1v1H27zM28 26h1v1H28zM30 26h1v1H30zM2 27h1v1H2zM3 27h1v1H3zM4 27h1v1H4zM27 27h1v1H27zM28 27h1v1H28zM29 27h1v1H29z"/><path fill="#4e8f45" d="M3 3h1v1H3zM28 3h1v1H28zM2 4h1v1H2zM4 4h1v1H4zM27 4h1v1H27zM29 4h1v1H29zM4 5h1v1H4zM5 5h1v1H5zM26 5h1v1H26zM27 5h1v1H27zM3 6h1v1H3zM4 6h1v1H4zM5 6h1v1H5zM26 6h1v1H26zM27 6h1v1H27zM28 6h1v1H28zM3 7h1v1H3zM4 7h1v1H4zM5 7h1v1H5zM26 7h1v1H26zM27 7h1v1H27zM28 7h1v1H28zM3 8h1v1H3zM4 8h1v1H4zM5 8h1v1H5zM26 8h1v1H26zM27 8h1v1H27zM28 8h1v1H28zM4 9h1v1H4zM5 9h1v1H5zM10 9h1v1H10zM11 9h1v1H11zM20 9h1v1H20zM21 9h1v1H21zM26 9h1v1H26zM27 9h1v1H27zM4 10h1v1H4zM5 10h1v1H5zM11 10h1v1H11zM12 10h1v1H12zM19 10h1v1H19zM20 10h1v1H20zM26 10h1v1H26zM27 10h1v1H27zM5 11h1v1H5zM12 11h1v1H12zM13 11h1v1H13zM18 11h1v1H18zM19 11h1v1H19zM26 11h1v1H26zM10 14h1v1H10zM11 14h1v1H11zM12 14h1v1H12zM13 14h1v1H13zM14 14h1v1H14zM15 14h1v1H15zM16 14h1v1H16zM17 14h1v1H17zM18 14h1v1H18zM19 14h1v1H19zM20 14h1v1H20zM21 14h1v1H21zM10 15h1v1H10zM11 15h1v1H11zM12 15h1v1H12zM13 15h1v1H13zM14 15h1v1H14zM15 15h1v1H15zM16 15h1v1H16zM17 15h1v1H17zM18 15h1v1H18zM19 15h1v1H19zM20 15h1v1H20zM21 15h1v1H21zM9 16h1v1H9zM10 16h1v1H10zM11 16h1v1H11zM12 16h1v1H12zM13 16h1v1H13zM14 16h1v1H14zM15 16h1v1H15zM16 16h1v1H16zM17 16h1v1H17zM18 16h1v1H18zM19 16h1v1H19zM20 16h1v1H20zM21 16h1v1H21zM22 16h1v1H22zM8 17h1v1H8zM9 17h1v1H9zM10 17h1v1H10zM11 17h1v1H11zM14 17h1v1H14zM15 17h1v1H15zM16 17h1v1H16zM17 17h1v1H17zM20 17h1v1H20zM21 17h1v1H21zM22 17h1v1H22zM23 17h1v1H23zM6 18h1v1H6zM7 18h1v1H7zM8 18h1v1H8zM9 18h1v1H9zM10 18h1v1H10zM14 18h1v1H14zM15 18h1v1H15zM16 18h1v1H16zM17 18h1v1H17zM21 18h1v1H21zM22 18h1v1H22zM23 18h1v1H23zM24 18h1v1H24zM25 18h1v1H25zM3 19h1v1H3zM4 19h1v1H4zM6 19h1v1H6zM7 19h1v1H7zM8 19h1v1H8zM9 19h1v1H9zM10 19h1v1H10zM14 19h1v1H14zM15 19h1v1H15zM16 19h1v1H16zM17 19h1v1H17zM21 19h1v1H21zM22 19h1v1H22zM23 19h1v1H23zM24 19h1v1H24zM25 19h1v1H25zM27 19h1v1H27zM28 19h1v1H28zM3 20h1v1H3zM4 20h1v1H4zM9 20h1v1H9zM10 20h1v1H10zM14 20h1v1H14zM15 20h1v1H15zM16 20h1v1H16zM17 20h1v1H17zM21 20h1v1H21zM22 20h1v1H22zM27 20h1v1H27zM28 20h1v1H28zM2 21h1v1H2zM3 21h1v1H3zM28 21h1v1H28zM29 21h1v1H29zM2 22h1v1H2zM29 22h1v1H29zM2 23h1v1H2zM3 23h1v1H3zM6 23h1v1H6zM7 23h1v1H7zM24 23h1v1H24zM25 23h1v1H25zM28 23h1v1H28zM29 23h1v1H29zM3 24h1v1H3zM4 24h1v1H4zM8 24h1v1H8zM9 24h1v1H9zM22 24h1v1H22zM23 24h1v1H23zM27 24h1v1H27zM28 24h1v1H28zM1 25h1v1H1zM3 25h1v1H3zM10 25h1v1H10zM12 25h1v1H12zM19 25h1v1H19zM21 25h1v1H21zM28 25h1v1H28zM30 25h1v1H30zM2 26h1v1H2zM7 26h1v1H7zM13 26h1v1H13zM14 26h1v1H14zM15 26h1v1H15zM16 26h1v1H16zM17 26h1v1H17zM18 26h1v1H18zM24 26h1v1H24zM29 26h1v1H29z"/><path fill="#3fd068" d="M14 3h1v1H14zM15 3h1v1H15zM16 3h1v1H16zM17 3h1v1H17zM13 4h1v1H13zM14 4h1v1H14zM17 4h1v1H17zM18 4h1v1H18zM12 5h1v1H12zM13 5h1v1H13zM17 5h1v1H17zM18 5h1v1H18zM12 6h1v1H12zM13 6h1v1H13zM15 6h1v1H15zM16 6h1v1H16zM17 6h1v1H17zM18 6h1v1H18zM12 7h1v1H12zM13 7h1v1H13zM16 7h1v1H16zM5 12h1v1H5zM26 12h1v1H26zM4 13h1v1H4zM27 13h1v1H27zM7 14h1v1H7zM24 14h1v1H24z"/><path fill="#ffffff" d="M15 4h1v1H15zM16 4h1v1H16zM15 5h1v1H15zM16 5h1v1H16zM6 12h1v1H6zM7 12h1v1H7zM24 12h1v1H24zM25 12h1v1H25zM6 13h1v1H6zM7 13h1v1H7zM24 13h1v1H24zM25 13h1v1H25zM12 17h1v1H12zM18 17h1v1H18zM11 18h1v1H11zM13 18h1v1H13zM19 18h1v1H19zM20 18h1v1H20zM11 19h1v1H11zM20 19h1v1H20zM11 20h1v1H11zM20 20h1v1H20z"/><path fill="#479e5a" d="M7 5h1v1H7zM24 5h1v1H24z"/><path fill="#7ac85a" d="M8 5h1v1H8zM9 5h1v1H9zM10 5h1v1H10zM11 5h1v1H11zM20 5h1v1H20zM21 5h1v1H21zM22 5h1v1H22zM23 5h1v1H23zM6 6h1v1H6zM7 6h1v1H7zM8 6h1v1H8zM9 6h1v1H9zM10 6h1v1H10zM11 6h1v1H11zM20 6h1v1H20zM21 6h1v1H21zM22 6h1v1H22zM23 6h1v1H23zM24 6h1v1H24zM25 6h1v1H25zM6 7h1v1H6zM7 7h1v1H7zM8 7h1v1H8zM9 7h1v1H9zM10 7h1v1H10zM11 7h1v1H11zM20 7h1v1H20zM21 7h1v1H21zM22 7h1v1H22zM23 7h1v1H23zM24 7h1v1H24zM25 7h1v1H25zM6 8h1v1H6zM7 8h1v1H7zM8 8h1v1H8zM9 8h1v1H9zM10 8h1v1H10zM11 8h1v1H11zM20 8h1v1H20zM21 8h1v1H21zM22 8h1v1H22zM23 8h1v1H23zM24 8h1v1H24zM25 8h1v1H25zM7 9h1v1H7zM8 9h1v1H8zM9 9h1v1H9zM22 9h1v1H22zM23 9h1v1H23zM24 9h1v1H24zM9 10h1v1H9zM10 10h1v1H10zM21 10h1v1H21zM22 10h1v1H22zM10 11h1v1H10zM11 11h1v1H11zM20 11h1v1H20zM21 11h1v1H21zM10 12h1v1H10zM11 12h1v1H11zM12 12h1v1H12zM13 12h1v1H13zM14 12h1v1H14zM15 12h1v1H15zM16 12h1v1H16zM17 12h1v1H17zM18 12h1v1H18zM19 12h1v1H19zM20 12h1v1H20zM21 12h1v1H21zM11 13h1v1H11zM20 13h1v1H20zM4 21h1v1H4zM27 21h1v1H27zM3 22h1v1H3zM4 22h1v1H4zM5 22h1v1H5zM26 22h1v1H26zM27 22h1v1H27zM28 22h1v1H28zM4 23h1v1H4zM27 23h1v1H27z"/><path fill="#44ac4a" d="M19 5h1v1H19zM19 6h1v1H19zM17 7h1v1H17zM18 7h1v1H18zM19 7h1v1H19zM12 8h1v1H12zM13 8h1v1H13zM16 8h1v1H16zM17 8h1v1H17zM18 8h1v1H18zM19 8h1v1H19zM13 9h1v1H13zM14 9h1v1H14zM16 9h1v1H16zM17 9h1v1H17zM18 9h1v1H18zM14 10h1v1H14zM15 10h1v1H15zM16 10h1v1H16zM17 10h1v1H17zM8 13h1v1H8zM23 13h1v1H23zM8 14h1v1H8zM23 14h1v1H23zM6 15h1v1H6zM7 15h1v1H7zM8 15h1v1H8zM23 15h1v1H23zM24 15h1v1H24zM25 15h1v1H25zM5 16h1v1H5zM6 16h1v1H6zM7 16h1v1H7zM24 16h1v1H24zM25 16h1v1H25zM26 16h1v1H26z"/><path fill="#0e0e14" d="M14 6h1v1H14zM14 7h1v1H14zM15 7h1v1H15zM14 8h1v1H14zM15 8h1v1H15zM5 13h1v1H5zM26 13h1v1H26zM4 14h1v1H4zM5 14h1v1H5zM6 14h1v1H6zM25 14h1v1H25zM26 14h1v1H26zM27 14h1v1H27zM4 15h1v1H4zM5 15h1v1H5zM26 15h1v1H26zM27 15h1v1H27zM13 17h1v1H13zM19 17h1v1H19zM12 18h1v1H12zM18 18h1v1H18zM12 19h1v1H12zM13 19h1v1H13zM18 19h1v1H18zM19 19h1v1H19zM12 20h1v1H12zM13 20h1v1H13zM18 20h1v1H18zM19 20h1v1H19z"/><path fill="#bff0a8" d="M6 9h1v1H6zM25 9h1v1H25zM6 10h1v1H6zM7 10h1v1H7zM8 10h1v1H8zM23 10h1v1H23zM24 10h1v1H24zM25 10h1v1H25zM8 11h1v1H8zM9 11h1v1H9zM22 11h1v1H22zM23 11h1v1H23zM9 12h1v1H9zM22 12h1v1H22zM9 13h1v1H9zM10 13h1v1H10zM12 13h1v1H12zM13 13h1v1H13zM14 13h1v1H14zM15 13h1v1H15zM16 13h1v1H16zM17 13h1v1H17zM18 13h1v1H18zM19 13h1v1H19zM21 13h1v1H21zM22 13h1v1H22zM9 14h1v1H9zM22 14h1v1H22zM9 15h1v1H9zM22 15h1v1H22zM13 25h1v1H13zM14 25h1v1H14zM15 25h1v1H15zM16 25h1v1H16zM17 25h1v1H17zM18 25h1v1H18z"/><path fill="#357142" d="M6 11h1v1H6zM25 11h1v1H25zM8 16h1v1H8zM23 16h1v1H23zM6 17h1v1H6zM7 17h1v1H7zM24 17h1v1H24zM25 17h1v1H25zM7 20h1v1H7zM8 20h1v1H8zM23 20h1v1H23zM24 20h1v1H24zM9 21h1v1H9zM10 21h1v1H10zM11 21h1v1H11zM12 21h1v1H12zM13 21h1v1H13zM14 21h1v1H14zM15 21h1v1H15zM16 21h1v1H16zM17 21h1v1H17zM18 21h1v1H18zM19 21h1v1H19zM20 21h1v1H20zM21 21h1v1H21zM22 21h1v1H22zM10 22h1v1H10zM12 22h1v1H12zM13 22h1v1H13zM14 22h1v1H14zM15 22h1v1H15zM16 22h1v1H16zM17 22h1v1H17zM18 22h1v1H18zM19 22h1v1H19zM21 22h1v1H21zM6 24h1v1H6zM7 24h1v1H7zM24 24h1v1H24zM25 24h1v1H25zM7 25h1v1H7zM8 25h1v1H8zM9 25h1v1H9zM11 25h1v1H11zM20 25h1v1H20zM22 25h1v1H22zM23 25h1v1H23zM24 25h1v1H24zM8 26h1v1H8zM9 26h1v1H9zM10 26h1v1H10zM11 26h1v1H11zM12 26h1v1H12zM19 26h1v1H19zM20 26h1v1H20zM21 26h1v1H21zM22 26h1v1H22zM23 26h1v1H23z"/><path fill="#87721c" d="M5 19h1v1H5zM26 19h1v1H26zM5 20h1v1H5zM26 20h1v1H26zM8 21h1v1H8zM23 21h1v1H23zM8 22h1v1H8zM11 22h1v1H11zM20 22h1v1H20zM23 22h1v1H23zM11 23h1v1H11zM12 23h1v1H12zM19 23h1v1H19zM20 23h1v1H20zM12 24h1v1H12zM19 24h1v1H19z"/><path fill="#664a0d" d="M6 20h1v1H6zM25 20h1v1H25zM5 21h1v1H5zM6 21h1v1H6zM25 21h1v1H25zM26 21h1v1H26zM9 22h1v1H9zM22 22h1v1H22zM8 23h1v1H8zM9 23h1v1H9zM13 23h1v1H13zM18 23h1v1H18zM22 23h1v1H22zM23 23h1v1H23zM11 24h1v1H11zM13 24h1v1H13zM18 24h1v1H18zM20 24h1v1H20z"/><path fill="#171212" d="M7 21h1v1H7zM24 21h1v1H24zM6 22h1v1H6zM7 22h1v1H7zM24 22h1v1H24zM25 22h1v1H25zM10 23h1v1H10zM14 23h1v1H14zM15 23h1v1H15zM16 23h1v1H16zM17 23h1v1H17zM21 23h1v1H21zM10 24h1v1H10zM14 24h1v1H14zM15 24h1v1H15zM16 24h1v1H16zM17 24h1v1H17zM21 24h1v1H21z"/></svg>
