<svg xmlns="http://www.w3.org/2000/svg" viewBox="0 0 32 32" shape-rendering="crispEdges"><path fill="#42f263" d="M7 5h1v1H7zM24 5h1v1H24z"/><path fill="#62ff78" d="M8 5h1v1H8zM23 5h1v1H23zM6 6h1v1H6zM25 6h1v1H25zM6 7h1v1H6zM25 7h1v1H25zM14 8h1v1H14zM15 8h1v1H15zM16 8h1v1H16zM25 8h1v1H25zM12 9h1v1H12zM13 9h1v1H13zM14 9h1v1H14zM15 9h1v1H15zM16 9h1v1H16zM17 9h1v1H17zM18 9h1v1H18zM25 9h1v1H25zM8 10h1v1H8zM12 10h1v1H12zM13 10h1v1H13zM14 10h1v1H14zM15 10h1v1H15zM16 10h1v1H16zM17 10h1v1H17zM18 10h1v1H18zM19 10h1v1H19zM25 10h1v1H25zM7 11h1v1H7zM8 11h1v1H8zM12 11h1v1H12zM13 11h1v1H13zM14 11h1v1H14zM15 11h1v1H15zM16 11h1v1H16zM24 11h1v1H24zM25 11h1v1H25zM7 12h1v1H7zM8 12h1v1H8zM9 12h1v1H9zM14 12h1v1H14zM15 12h1v1H15zM16 12h1v1H16zM17 12h1v1H17zM18 12h1v1H18zM24 12h1v1H24zM7 13h1v1H7zM10 13h1v1H10zM11 13h1v1H11zM20 13h1v1H20zM21 13h1v1H21zM24 13h1v1H24z"/><path fill="#aeffb7" d="M9 5h1v1H9zM7 6h1v1H7zM24 6h1v1H24zM6 8h1v1H6zM13 8h1v1H13zM17 8h1v1H17zM19 9h1v1H19zM7 10h1v1H7zM11 10h1v1H11zM17 11h1v1H17zM13 12h1v1H13zM19 12h1v1H19zM23 12h1v1H23z"/><path fill="#effff1" d="M10 5h1v1H10zM11 5h1v1H11zM12 5h1v1H12zM13 5h1v1H13zM14 5h1v1H14zM15 5h1v1H15zM16 5h1v1H16zM17 5h1v1H17zM18 5h1v1H18zM19 5h1v1H19zM20 5h1v1H20zM21 5h1v1H21zM22 5h1v1H22zM8 6h1v1H8zM9 6h1v1H9zM10 6h1v1H10zM11 6h1v1H11zM12 6h1v1H12zM13 6h1v1H13zM14 6h1v1H14zM15 6h1v1H15zM16 6h1v1H16zM17 6h1v1H17zM18 6h1v1H18zM19 6h1v1H19zM20 6h1v1H20zM21 6h1v1H21zM22 6h1v1H22zM23 6h1v1H23zM7 7h1v1H7zM8 7h1v1H8zM9 7h1v1H9zM10 7h1v1H10zM11 7h1v1H11zM12 7h1v1H12zM13 7h1v1H13zM14 7h1v1H14zM15 7h1v1H15zM16 7h1v1H16zM17 7h1v1H17zM18 7h1v1H18zM19 7h1v1H19zM20 7h1v1H20zM21 7h1v1H21zM22 7h1v1H22zM23 7h1v1H23zM24 7h1v1H24zM7 8h1v1H7zM8 8h1v1H8zM9 8h1v1H9zM10 8h1v1H10zM11 8h1v1H11zM12 8h1v1H12zM18 8h1v1H18zM19 8h1v1H19zM20 8h1v1H20zM21 8h1v1H21zM22 8h1v1H22zM23 8h1v1H23zM24 8h1v1H24zM6 9h1v1H6zM7 9h1v1H7zM8 9h1v1H8zM9 9h1v1H9zM10 9h1v1H10zM11 9h1v1H11zM20 9h1v1H20zM21 9h1v1H21zM22 9h1v1H22zM23 9h1v1H23zM24 9h1v1H24zM6 10h1v1H6zM9 10h1v1H9zM10 10h1v1H10zM20 10h1v1H20zM21 10h1v1H21zM22 10h1v1H22zM23 10h1v1H23zM24 10h1v1H24zM9 11h1v1H9zM10 11h1v1H10zM11 11h1v1H11zM18 11h1v1H18zM19 11h1v1H19zM20 11h1v1H20zM21 11h1v1H21zM22 11h1v1H22zM23 11h1v1H23zM6 12h1v1H6zM10 12h1v1H10zM11 12h1v1H11zM12 12h1v1H12zM20 12h1v1H20zM21 12h1v1H21zM22 12h1v1H22zM25 12h1v1H25zM8 13h1v1H8zM9 13h1v1H9zM12 13h1v1H12zM13 13h1v1H13zM14 13h1v1H14zM15 13h1v1H15zM16 13h1v1H16zM17 13h1v1H17zM18 13h1v1H18zM19 13h1v1H19zM22 13h1v1H22zM23 13h1v1H23z"/><path fill="#b2ffbd" d="M6 11h1v1H6z"/><path fill="#313131" d="M5 13h1v1H5zM26 13h1v1H26zM4 14h1v1H4zM5 14h1v1H5zM26 14h1v1H26zM27 14h1v1H27zM4 15h1v1H4zM5 15h1v1H5zM6 15h1v1H6zM25 15h1v1H25zM26 15h1v1H26zM27 15h1v1H27zM5 16h1v1H5zM6 16h1v1H6zM25 16h1v1H25zM26 16h1v1H26zM6 17h1v1H6zM8 17h1v1H8zM9 17h1v1H9zM22 17h1v1H22zM23 17h1v1H23zM25 17h1v1H25zM8 18h1v1H8zM23 18h1v1H23zM8 20h1v1H8zM9 20h1v1H9zM22 20h1v1H22zM23 20h1v1H23zM5 21h1v1H5zM8 21h1v1H8zM23 21h1v1H23zM26 21h1v1H26zM4 22h1v1H4zM7 22h1v1H7zM24 22h1v1H24zM27 22h1v1H27zM7 23h1v1H7zM12 23h1v1H12zM19 23h1v1H19zM24 23h1v1H24zM7 24h1v1H7zM8 24h1v1H8zM11 24h1v1H11zM12 24h1v1H12zM13 24h1v1H13zM18 24h1v1H18zM19 24h1v1H19zM20 24h1v1H20zM23 24h1v1H23zM24 24h1v1H24zM3 25h1v1H3zM4 25h1v1H4zM8 25h1v1H8zM23 25h1v1H23zM27 25h1v1H27zM28 25h1v1H28zM3 26h1v1H3zM28 26h1v1H28zM10 27h1v1H10zM21 27h1v1H21zM7 28h1v1H7zM24 28h1v1H24zM6 29h1v1H6zM7 29h1v1H7zM24 29h1v1H24zM25 29h1v1H25z"/><path fill="#2f8348" d="M6 13h1v1H6zM25 13h1v1H25z"/><path fill="#35c45b" d="M6 14h1v1H6zM7 14h1v1H7zM24 14h1v1H24zM25 14h1v1H25z"/><path fill="#44f25e" d="M8 14h1v1H8zM9 14h1v1H9zM10 14h1v1H10zM11 14h1v1H11zM12 14h1v1H12zM13 14h1v1H13zM14 14h1v1H14zM15 14h1v1H15zM16 14h1v1H16zM17 14h1v1H17zM18 14h1v1H18zM19 14h1v1H19zM20 14h1v1H20zM21 14h1v1H21zM22 14h1v1H22zM23 14h1v1H23zM8 15h1v1H8zM9 15h1v1H9zM14 15h1v1H14zM15 15h1v1H15zM16 15h1v1H16zM17 15h1v1H17zM22 15h1v1H22zM23 15h1v1H23zM6 18h1v1H6zM7 18h1v1H7zM15 18h1v1H15zM16 18h1v1H16zM24 18h1v1H24zM25 18h1v1H25zM6 19h1v1H6zM7 19h1v1H7zM14 19h1v1H14zM15 19h1v1H15zM16 19h1v1H16zM17 19h1v1H17zM24 19h1v1H24zM25 19h1v1H25zM14 20h1v1H14zM17 20h1v1H17zM8 22h1v1H8zM3 23h1v1H3zM4 23h1v1H4zM27 23h1v1H27zM28 23h1v1H28zM3 24h1v1H3zM4 24h1v1H4zM10 24h1v1H10zM27 24h1v1H27zM28 24h1v1H28zM6 25h1v1H6zM7 25h1v1H7zM9 25h1v1H9zM10 25h1v1H10zM11 25h1v1H11zM12 25h1v1H12zM13 25h1v1H13zM14 25h1v1H14zM15 25h1v1H15zM16 25h1v1H16zM17 25h1v1H17zM18 25h1v1H18zM19 25h1v1H19zM20 25h1v1H20zM21 25h1v1H21zM22 25h1v1H22zM24 25h1v1H24zM25 25h1v1H25zM6 26h1v1H6zM7 26h1v1H7zM24 26h1v1H24zM25 26h1v1H25zM11 27h1v1H11zM20 27h1v1H20zM10 29h1v1H10zM21 29h1v1H21z"/><path fill="#454545" d="M7 15h1v1H7zM24 15h1v1H24zM3 16h1v1H3zM4 16h1v1H4zM7 16h1v1H7zM8 16h1v1H8zM23 16h1v1H23zM24 16h1v1H24zM27 16h1v1H27zM28 16h1v1H28zM3 17h1v1H3zM7 17h1v1H7zM24 17h1v1H24zM28 17h1v1H28zM2 18h1v1H2zM3 18h1v1H3zM9 18h1v1H9zM10 18h1v1H10zM21 18h1v1H21zM22 18h1v1H22zM28 18h1v1H28zM29 18h1v1H29zM2 19h1v1H2zM9 19h1v1H9zM10 19h1v1H10zM21 19h1v1H21zM22 19h1v1H22zM29 19h1v1H29zM2 20h1v1H2zM7 20h1v1H7zM24 20h1v1H24zM29 20h1v1H29zM4 21h1v1H4zM6 21h1v1H6zM7 21h1v1H7zM9 21h1v1H9zM10 21h1v1H10zM21 21h1v1H21zM22 21h1v1H22zM24 21h1v1H24zM25 21h1v1H25zM27 21h1v1H27zM9 22h1v1H9zM10 22h1v1H10zM11 22h1v1H11zM20 22h1v1H20zM21 22h1v1H21zM22 22h1v1H22zM10 23h1v1H10zM11 23h1v1H11zM20 23h1v1H20zM21 23h1v1H21zM2 24h1v1H2zM5 24h1v1H5zM6 24h1v1H6zM25 24h1v1H25zM26 24h1v1H26zM29 24h1v1H29zM4 26h1v1H4zM5 26h1v1H5zM8 26h1v1H8zM9 26h1v1H9zM22 26h1v1H22zM23 26h1v1H23zM26 26h1v1H26zM27 26h1v1H27zM4 27h1v1H4zM5 27h1v1H5zM6 27h1v1H6zM8 27h1v1H8zM9 27h1v1H9zM22 27h1v1H22zM23 27h1v1H23zM25 27h1v1H25zM26 27h1v1H26zM27 27h1v1H27zM5 28h1v1H5zM6 28h1v1H6zM25 28h1v1H25zM26 28h1v1H26z"/><path fill="#3edc5c" d="M10 15h1v1H10zM13 15h1v1H13zM18 15h1v1H18zM21 15h1v1H21zM15 16h1v1H15zM16 16h1v1H16zM14 18h1v1H14zM17 18h1v1H17z"/><path fill="#217035" d="M11 15h1v1H11zM12 15h1v1H12zM19 15h1v1H19zM20 15h1v1H20zM9 16h1v1H9zM10 16h1v1H10zM11 16h1v1H11zM12 16h1v1H12zM13 16h1v1H13zM14 16h1v1H14zM17 16h1v1H17zM18 16h1v1H18zM19 16h1v1H19zM20 16h1v1H20zM21 16h1v1H21zM22 16h1v1H22zM10 17h1v1H10zM11 17h1v1H11zM14 17h1v1H14zM15 17h1v1H15zM16 17h1v1H16zM17 17h1v1H17zM20 17h1v1H20zM21 17h1v1H21zM8 19h1v1H8zM23 19h1v1H23zM10 20h1v1H10zM15 20h1v1H15zM16 20h1v1H16zM21 20h1v1H21zM12 21h1v1H12zM13 21h1v1H13zM14 21h1v1H14zM15 21h1v1H15zM16 21h1v1H16zM17 21h1v1H17zM18 21h1v1H18zM19 21h1v1H19zM12 22h1v1H12zM13 22h1v1H13zM14 22h1v1H14zM15 22h1v1H15zM16 22h1v1H16zM17 22h1v1H17zM18 22h1v1H18zM19 22h1v1H19zM23 22h1v1H23zM8 23h1v1H8zM9 23h1v1H9zM13 23h1v1H13zM14 23h1v1H14zM15 23h1v1H15zM16 23h1v1H16zM17 23h1v1H17zM18 23h1v1H18zM22 23h1v1H22zM23 23h1v1H23zM9 24h1v1H9zM14 24h1v1H14zM15 24h1v1H15zM16 24h1v1H16zM17 24h1v1H17zM21 24h1v1H21zM22 24h1v1H22z"/><path fill="#636363" d="M4 17h1v1H4zM5 17h1v1H5zM26 17h1v1H26zM27 17h1v1H27zM4 18h1v1H4zM5 18h1v1H5zM26 18h1v1H26zM27 18h1v1H27zM3 19h1v1H3zM4 19h1v1H4zM27 19h1v1H27zM28 19h1v1H28zM3 20h1v1H3zM4 20h1v1H4zM27 20h1v1H27zM28 20h1v1H28zM2 21h1v1H2zM3 21h1v1H3zM28 21h1v1H28zM29 21h1v1H29zM8 29h1v1H8zM23 29h1v1H23z"/><path fill="#ffffff" d="M12 17h1v1H12zM18 17h1v1H18zM11 18h1v1H11zM13 18h1v1H13zM19 18h1v1H19zM20 18h1v1H20zM11 19h1v1H11zM20 19h1v1H20zM11 20h1v1H11zM20 20h1v1H20z"/><path fill="#0e0e14" d="M13 17h1v1H13zM19 17h1v1H19zM12 18h1v1H12zM18 18h1v1H18zM12 19h1v1H12zM13 19h1v1H13zM18 19h1v1H18zM19 19h1v1H19zM12 20h1v1H12zM13 20h1v1H13zM18 20h1v1H18zM19 20h1v1H19z"/><path fill="#30be38" d="M5 19h1v1H5zM26 19h1v1H26zM5 20h1v1H5zM6 20h1v1H6zM25 20h1v1H25zM26 20h1v1H26zM11 21h1v1H11zM20 21h1v1H20zM2 22h1v1H2zM3 22h1v1H3zM5 22h1v1H5zM6 22h1v1H6zM25 22h1v1H25zM26 22h1v1H26zM28 22h1v1H28zM29 22h1v1H29zM2 23h1v1H2zM5 23h1v1H5zM6 23h1v1H6zM25 23h1v1H25zM26 23h1v1H26zM29 23h1v1H29zM3 27h1v1H3zM28 27h1v1H28zM3 29h1v1H3zM9 29h1v1H9zM22 29h1v1H22zM28 29h1v1H28z"/><path fill="#358d4c" d="M10 26h1v1H10zM11 26h1v1H11zM12 26h1v1H12zM13 26h1v1H13zM14 26h1v1H14zM15 26h1v1H15zM16 26h1v1H16zM17 26h1v1H17zM18 26h1v1H18zM19 26h1v1H19zM20 26h1v1H20zM21 26h1v1H21z"/></svg>
