<svg xmlns="http://www.w3.org/2000/svg" viewBox="0 0 32 32" shape-rendering="crispEdges"><path fill="#d32843" d="M8 4h1v1H8zM10 4h1v1H10zM14 4h1v1H14zM17 4h1v1H17zM21 4h1v1H21zM23 4h1v1H23zM8 5h1v1H8zM13 5h1v1H13zM18 5h1v1H18zM23 5h1v1H23zM5 6h1v1H5zM26 6h1v1H26zM7 7h1v1H7zM15 7h1v1H15zM16 7h1v1H16zM24 7h1v1H24zM5 8h1v1H5zM14 8h1v1H14zM17 8h1v1H17zM26 8h1v1H26zM15 9h1v1H15zM16 9h1v1H16zM5 10h1v1H5zM7 10h1v1H7zM13 10h1v1H13zM18 10h1v1H18zM24 10h1v1H24zM26 10h1v1H26zM15 11h1v1H15zM16 11h1v1H16zM5 12h1v1H5zM12 12h1v1H12zM15 12h1v1H15zM16 12h1v1H16zM19 12h1v1H19zM26 12h1v1H26zM13 13h1v1H13zM14 13h1v1H14zM15 13h1v1H15zM16 13h1v1H16zM17 13h1v1H17zM18 13h1v1H18zM11 14h1v1H11zM20 14h1v1H20zM5 17h1v1H5zM26 17h1v1H26zM4 18h1v1H4zM6 18h1v1H6zM25 18h1v1H25zM27 18h1v1H27zM5 19h1v1H5zM26 19h1v1H26zM9 21h1v1H9zM22 21h1v1H22zM8 22h1v1H8zM10 22h1v1H10zM21 22h1v1H21zM23 22h1v1H23zM9 23h1v1H9zM22 23h1v1H22z"/><path fill="#ed3e4c" d="M9 4h1v1H9zM13 4h1v1H13zM18 4h1v1H18zM22 4h1v1H22zM9 5h1v1H9zM22 5h1v1H22zM6 6h1v1H6zM25 6h1v1H25zM5 7h1v1H5zM6 7h1v1H6zM25 7h1v1H25zM26 7h1v1H26zM6 8h1v1H6zM25 8h1v1H25zM6 10h1v1H6zM25 10h1v1H25zM5 11h1v1H5zM6 11h1v1H6zM7 11h1v1H7zM13 11h1v1H13zM14 11h1v1H14zM17 11h1v1H17zM18 11h1v1H18zM24 11h1v1H24zM25 11h1v1H25zM26 11h1v1H26zM6 12h1v1H6zM7 12h1v1H7zM10 12h1v1H10zM11 12h1v1H11zM13 12h1v1H13zM14 12h1v1H14zM17 12h1v1H17zM18 12h1v1H18zM20 12h1v1H20zM21 12h1v1H21zM24 12h1v1H24zM25 12h1v1H25zM11 13h1v1H11zM12 13h1v1H12zM19 13h1v1H19zM20 13h1v1H20zM12 14h1v1H12zM19 14h1v1H19z"/><path fill="#ab203b" d="M11 4h1v1H11zM15 4h1v1H15zM16 4h1v1H16zM20 4h1v1H20zM10 5h1v1H10zM14 5h1v1H14zM15 5h1v1H15zM16 5h1v1H16zM17 5h1v1H17zM21 5h1v1H21zM7 6h1v1H7zM13 6h1v1H13zM18 6h1v1H18zM24 6h1v1H24zM4 8h1v1H4zM7 8h1v1H7zM24 8h1v1H24zM27 8h1v1H27zM4 9h1v1H4zM7 9h1v1H7zM24 9h1v1H24zM27 9h1v1H27zM14 10h1v1H14zM17 10h1v1H17zM4 11h1v1H4zM10 11h1v1H10zM11 11h1v1H11zM12 11h1v1H12zM19 11h1v1H19zM20 11h1v1H20zM21 11h1v1H21zM27 11h1v1H27zM4 12h1v1H4zM27 12h1v1H27zM3 13h1v1H3zM4 13h1v1H4zM5 13h1v1H5zM6 13h1v1H6zM7 13h1v1H7zM10 13h1v1H10zM21 13h1v1H21zM24 13h1v1H24zM25 13h1v1H25zM26 13h1v1H26zM27 13h1v1H27zM28 13h1v1H28zM3 14h1v1H3zM4 14h1v1H4zM5 14h1v1H5zM6 14h1v1H6zM13 14h1v1H13zM14 14h1v1H14zM17 14h1v1H17zM18 14h1v1H18zM25 14h1v1H25zM26 14h1v1H26zM27 14h1v1H27zM28 14h1v1H28zM4 15h1v1H4zM5 15h1v1H5zM12 15h1v1H12zM13 15h1v1H13zM18 15h1v1H18zM19 15h1v1H19zM26 15h1v1H26zM27 15h1v1H27z"/><path fill="#5e0726" d="M7 5h1v1H7zM24 5h1v1H24zM5 9h1v1H5zM8 9h1v1H8zM12 9h1v1H12zM19 9h1v1H19zM23 9h1v1H23zM26 9h1v1H26zM4 10h1v1H4zM8 10h1v1H8zM9 10h1v1H9zM11 10h1v1H11zM20 10h1v1H20zM22 10h1v1H22zM23 10h1v1H23zM27 10h1v1H27z"/><path fill="#7f173a" d="M11 5h1v1H11zM12 5h1v1H12zM19 5h1v1H19zM20 5h1v1H20zM12 6h1v1H12zM14 6h1v1H14zM15 6h1v1H15zM16 6h1v1H16zM17 6h1v1H17zM19 6h1v1H19zM13 7h1v1H13zM14 7h1v1H14zM17 7h1v1H17zM18 7h1v1H18zM3 8h1v1H3zM13 8h1v1H13zM15 8h1v1H15zM16 8h1v1H16zM18 8h1v1H18zM28 8h1v1H28zM3 9h1v1H3zM6 9h1v1H6zM13 9h1v1H13zM14 9h1v1H14zM17 9h1v1H17zM18 9h1v1H18zM25 9h1v1H25zM28 9h1v1H28zM12 10h1v1H12zM15 10h1v1H15zM16 10h1v1H16zM19 10h1v1H19zM8 11h1v1H8zM9 11h1v1H9zM22 11h1v1H22zM23 11h1v1H23zM8 12h1v1H8zM9 12h1v1H9zM22 12h1v1H22zM23 12h1v1H23zM8 13h1v1H8zM23 13h1v1H23zM7 14h1v1H7zM10 14h1v1H10zM21 14h1v1H21zM24 14h1v1H24zM11 15h1v1H11zM20 15h1v1H20z"/><path fill="#a74941" d="M8 6h1v1H8zM11 6h1v1H11zM20 6h1v1H20zM23 6h1v1H23zM12 7h1v1H12zM19 7h1v1H19zM12 8h1v1H12zM19 8h1v1H19zM11 9h1v1H11zM20 9h1v1H20zM10 10h1v1H10zM21 10h1v1H21z"/><path fill="#cf7554" d="M9 6h1v1H9zM22 6h1v1H22zM8 7h1v1H8zM23 7h1v1H23zM9 9h1v1H9zM22 9h1v1H22z"/><path fill="#ffc77d" d="M10 6h1v1H10zM21 6h1v1H21zM11 7h1v1H11zM20 7h1v1H20zM9 8h1v1H9zM22 8h1v1H22zM10 9h1v1H10zM21 9h1v1H21z"/><path fill="#f4a362" d="M9 7h1v1H9zM10 7h1v1H10zM21 7h1v1H21zM22 7h1v1H22zM8 8h1v1H8zM10 8h1v1H10zM11 8h1v1H11zM20 8h1v1H20zM21 8h1v1H21zM23 8h1v1H23zM5 18h1v1H5zM26 18h1v1H26zM9 22h1v1H9zM22 22h1v1H22z"/><path fill="#bff0a8" d="M9 13h1v1H9zM22 13h1v1H22z"/><path fill="#699737" d="M8 14h1v1H8zM9 14h1v1H9zM22 14h1v1H22zM23 14h1v1H23zM7 15h1v1H7zM8 15h1v1H8zM23 15h1v1H23zM24 15h1v1H24zM6 16h1v1H6zM10 16h1v1H10zM21 16h1v1H21zM25 16h1v1H25zM6 17h1v1H6zM9 17h1v1H9zM10 17h1v1H10zM11 17h1v1H11zM14 17h1v1H14zM15 17h1v1H15zM16 17h1v1H16zM17 17h1v1H17zM20 17h1v1H20zM21 17h1v1H21zM22 17h1v1H22zM25 17h1v1H25zM10 18h1v1H10zM21 18h1v1H21zM10 19h1v1H10zM21 19h1v1H21zM5 20h1v1H5zM9 20h1v1H9zM10 20h1v1H10zM21 20h1v1H21zM22 20h1v1H22zM26 20h1v1H26zM6 21h1v1H6zM7 21h1v1H7zM15 21h1v1H15zM16 21h1v1H16zM24 21h1v1H24zM25 21h1v1H25zM7 22h1v1H7zM11 22h1v1H11zM12 22h1v1H12zM19 22h1v1H19zM20 22h1v1H20zM24 22h1v1H24zM6 23h1v1H6zM10 23h1v1H10zM12 23h1v1H12zM13 23h1v1H13zM18 23h1v1H18zM19 23h1v1H19zM21 23h1v1H21zM25 23h1v1H25zM6 24h1v1H6zM9 24h1v1H9zM13 24h1v1H13zM18 24h1v1H18zM22 24h1v1H22zM25 24h1v1H25zM4 25h1v1H4zM5 25h1v1H5zM7 25h1v1H7zM11 25h1v1H11zM14 25h1v1H14zM17 25h1v1H17zM20 25h1v1H20zM24 25h1v1H24zM26 25h1v1H26zM27 25h1v1H27zM4 26h1v1H4zM7 26h1v1H7zM8 26h1v1H8zM12 26h1v1H12zM19 26h1v1H19zM23 26h1v1H23zM24 26h1v1H24zM27 26h1v1H27zM8 27h1v1H8zM23 27h1v1H23zM8 28h1v1H8zM23 28h1v1H23z"/><path fill="#396e3f" d="M15 14h1v1H15zM16 14h1v1H16zM6 15h1v1H6zM9 15h1v1H9zM10 15h1v1H10zM14 15h1v1H14zM15 15h1v1H15zM16 15h1v1H16zM17 15h1v1H17zM21 15h1v1H21zM22 15h1v1H22zM25 15h1v1H25zM8 16h1v1H8zM9 16h1v1H9zM11 16h1v1H11zM12 16h1v1H12zM13 16h1v1H13zM14 16h1v1H14zM15 16h1v1H15zM16 16h1v1H16zM17 16h1v1H17zM18 16h1v1H18zM19 16h1v1H19zM20 16h1v1H20zM22 16h1v1H22zM23 16h1v1H23zM6 19h1v1H6zM25 19h1v1H25zM6 20h1v1H6zM7 20h1v1H7zM24 20h1v1H24zM25 20h1v1H25zM8 21h1v1H8zM10 21h1v1H10zM12 21h1v1H12zM14 21h1v1H14zM17 21h1v1H17zM19 21h1v1H19zM21 21h1v1H21zM23 21h1v1H23zM13 22h1v1H13zM14 22h1v1H14zM15 22h1v1H15zM16 22h1v1H16zM17 22h1v1H17zM18 22h1v1H18zM14 23h1v1H14zM15 23h1v1H15zM16 23h1v1H16zM17 23h1v1H17zM10 24h1v1H10zM14 24h1v1H14zM15 24h1v1H15zM16 24h1v1H16zM17 24h1v1H17zM21 24h1v1H21zM6 25h1v1H6zM9 25h1v1H9zM10 25h1v1H10zM15 25h1v1H15zM16 25h1v1H16zM21 25h1v1H21zM22 25h1v1H22zM25 25h1v1H25zM3 26h1v1H3zM5 26h1v1H5zM6 26h1v1H6zM9 26h1v1H9zM11 26h1v1H11zM14 26h1v1H14zM15 26h1v1H15zM16 26h1v1H16zM17 26h1v1H17zM20 26h1v1H20zM22 26h1v1H22zM25 26h1v1H25zM26 26h1v1H26zM28 26h1v1H28zM7 27h1v1H7zM24 27h1v1H24z"/><path fill="#8fc258" d="M7 16h1v1H7zM24 16h1v1H24zM7 17h1v1H7zM8 17h1v1H8zM23 17h1v1H23zM24 17h1v1H24zM7 18h1v1H7zM8 18h1v1H8zM9 18h1v1H9zM14 18h1v1H14zM15 18h1v1H15zM16 18h1v1H16zM17 18h1v1H17zM22 18h1v1H22zM23 18h1v1H23zM24 18h1v1H24zM7 19h1v1H7zM8 19h1v1H8zM9 19h1v1H9zM14 19h1v1H14zM15 19h1v1H15zM16 19h1v1H16zM17 19h1v1H17zM22 19h1v1H22zM23 19h1v1H23zM24 19h1v1H24zM8 20h1v1H8zM14 20h1v1H14zM15 20h1v1H15zM16 20h1v1H16zM17 20h1v1H17zM23 20h1v1H23zM5 21h1v1H5zM13 21h1v1H13zM18 21h1v1H18zM26 21h1v1H26zM5 22h1v1H5zM6 22h1v1H6zM25 22h1v1H25zM26 22h1v1H26zM5 23h1v1H5zM7 23h1v1H7zM8 23h1v1H8zM23 23h1v1H23zM24 23h1v1H24zM26 23h1v1H26zM4 24h1v1H4zM5 24h1v1H5zM7 24h1v1H7zM8 24h1v1H8zM11 24h1v1H11zM12 24h1v1H12zM19 24h1v1H19zM20 24h1v1H20zM23 24h1v1H23zM24 24h1v1H24zM26 24h1v1H26zM27 24h1v1H27zM8 25h1v1H8zM12 25h1v1H12zM13 25h1v1H13zM18 25h1v1H18zM19 25h1v1H19zM23 25h1v1H23zM13 26h1v1H13zM18 26h1v1H18z"/><path fill="#ffffff" d="M12 17h1v1H12zM18 17h1v1H18zM11 18h1v1H11zM13 18h1v1H13zM19 18h1v1H19zM20 18h1v1H20zM11 19h1v1H11zM20 19h1v1H20zM11 20h1v1H11zM20 20h1v1H20z"/><path fill="#0e0e14" d="M13 17h1v1H13zM19 17h1v1H19zM12 18h1v1H12zM18 18h1v1H18zM12 19h1v1H12zM13 19h1v1H13zM18 19h1v1H18zM19 19h1v1H19zM12 20h1v1H12zM13 20h1v1H13zM18 20h1v1H18zM19 20h1v1H19z"/><path fill="#23433f" d="M11 21h1v1H11zM20 21h1v1H20zM11 23h1v1H11zM20 23h1v1H20zM10 26h1v1H10zM21 26h1v1H21zM6 27h1v1H6zM25 27h1v1H25z"/></svg>
