<svg xmlns="http://www.w3.org/2000/svg" viewBox="0 0 32 32" shape-rendering="crispEdges"><path fill="#2b4755" d="M8 4h1v1H8zM9 4h1v1H9zM10 4h1v1H10zM12 4h1v1H12zM13 4h1v1H13zM14 4h1v1H14zM15 4h1v1H15zM16 4h1v1H16zM17 4h1v1H17zM18 4h1v1H18zM20 4h1v1H20zM21 4h1v1H21zM22 4h1v1H22zM23 4h1v1H23zM6 5h1v1H6zM7 5h1v1H7zM8 5h1v1H8zM9 5h1v1H9zM10 5h1v1H10zM12 5h1v1H12zM13 5h1v1H13zM14 5h1v1H14zM15 5h1v1H15zM16 5h1v1H16zM17 5h1v1H17zM18 5h1v1H18zM20 5h1v1H20zM21 5h1v1H21zM22 5h1v1H22zM23 5h1v1H23zM24 5h1v1H24zM25 5h1v1H25zM5 6h1v1H5zM6 6h1v1H6zM7 6h1v1H7zM8 6h1v1H8zM9 6h1v1H9zM10 6h1v1H10zM12 6h1v1H12zM13 6h1v1H13zM14 6h1v1H14zM15 6h1v1H15zM16 6h1v1H16zM17 6h1v1H17zM18 6h1v1H18zM20 6h1v1H20zM21 6h1v1H21zM22 6h1v1H22zM23 6h1v1H23zM24 6h1v1H24zM25 6h1v1H25zM26 6h1v1H26zM4 7h1v1H4zM5 7h1v1H5zM6 7h1v1H6zM7 7h1v1H7zM8 7h1v1H8zM9 7h1v1H9zM16 7h1v1H16zM22 7h1v1H22zM23 7h1v1H23zM24 7h1v1H24zM25 7h1v1H25zM26 7h1v1H26zM27 7h1v1H27zM3 8h1v1H3zM4 8h1v1H4zM5 8h1v1H5zM26 8h1v1H26zM27 8h1v1H27zM28 8h1v1H28zM3 9h1v1H3zM4 9h1v1H4zM27 9h1v1H27zM28 9h1v1H28zM3 10h1v1H3zM28 10h1v1H28zM3 11h1v1H3zM28 11h1v1H28z"/><path fill="#233f40" d="M11 5h1v1H11zM19 5h1v1H19zM11 6h1v1H11zM19 6h1v1H19zM6 8h1v1H6zM7 8h1v1H7zM24 8h1v1H24zM25 8h1v1H25zM5 9h1v1H5zM6 9h1v1H6zM7 9h1v1H7zM24 9h1v1H24zM25 9h1v1H25zM26 9h1v1H26zM4 10h1v1H4zM5 10h1v1H5zM26 10h1v1H26zM27 10h1v1H27zM4 11h1v1H4zM27 11h1v1H27z"/><path fill="#34565c" d="M10 7h1v1H10zM11 7h1v1H11zM12 7h1v1H12zM13 7h1v1H13zM14 7h1v1H14zM15 7h1v1H15zM17 7h1v1H17zM18 7h1v1H18zM19 7h1v1H19zM20 7h1v1H20zM21 7h1v1H21zM8 8h1v1H8zM9 8h1v1H9zM10 8h1v1H10zM11 8h1v1H11zM12 8h1v1H12zM13 8h1v1H13zM14 8h1v1H14zM15 8h1v1H15zM17 8h1v1H17zM18 8h1v1H18zM19 8h1v1H19zM20 8h1v1H20zM21 8h1v1H21zM22 8h1v1H22zM23 8h1v1H23zM8 9h1v1H8zM9 9h1v1H9zM10 9h1v1H10zM11 9h1v1H11zM12 9h1v1H12zM13 9h1v1H13zM14 9h1v1H14zM15 9h1v1H15zM17 9h1v1H17zM18 9h1v1H18zM19 9h1v1H19zM20 9h1v1H20zM21 9h1v1H21zM22 9h1v1H22zM23 9h1v1H23zM6 10h1v1H6zM8 10h1v1H8zM9 10h1v1H9zM22 10h1v1H22zM23 10h1v1H23zM25 10h1v1H25zM5 11h1v1H5zM6 11h1v1H6zM25 11h1v1H25zM26 11h1v1H26zM4 12h1v1H4zM5 12h1v1H5zM26 12h1v1H26zM27 12h1v1H27zM4 13h1v1H4zM27 13h1v1H27zM3 17h1v1H3zM4 17h1v1H4zM5 17h1v1H5zM26 17h1v1H26zM27 17h1v1H27zM28 17h1v1H28zM3 18h1v1H3zM4 18h1v1H4zM5 18h1v1H5zM26 18h1v1H26zM27 18h1v1H27zM28 18h1v1H28zM3 19h1v1H3zM4 19h1v1H4zM5 19h1v1H5zM26 19h1v1H26zM27 19h1v1H27zM28 19h1v1H28zM3 22h1v1H3zM4 22h1v1H4zM5 22h1v1H5zM26 22h1v1H26zM27 22h1v1H27zM28 22h1v1H28zM3 23h1v1H3zM4 23h1v1H4zM5 23h1v1H5zM26 23h1v1H26zM27 23h1v1H27zM28 23h1v1H28zM3 24h1v1H3zM4 24h1v1H4zM5 24h1v1H5zM26 24h1v1H26zM27 24h1v1H27zM28 24h1v1H28zM3 25h1v1H3zM4 25h1v1H4zM5 25h1v1H5zM6 25h1v1H6zM25 25h1v1H25zM26 25h1v1H26zM27 25h1v1H27zM28 25h1v1H28zM4 26h1v1H4zM5 26h1v1H5zM6 26h1v1H6zM8 26h1v1H8zM9 26h1v1H9zM22 26h1v1H22zM23 26h1v1H23zM25 26h1v1H25zM26 26h1v1H26zM27 26h1v1H27zM5 27h1v1H5zM6 27h1v1H6zM8 27h1v1H8zM9 27h1v1H9zM12 27h1v1H12zM15 27h1v1H15zM18 27h1v1H18zM19 27h1v1H19zM22 27h1v1H22zM23 27h1v1H23zM25 27h1v1H25zM26 27h1v1H26zM8 28h1v1H8zM9 28h1v1H9zM11 28h1v1H11zM12 28h1v1H12zM15 28h1v1H15zM18 28h1v1H18zM19 28h1v1H19zM20 28h1v1H20zM22 28h1v1H22zM23 28h1v1H23zM10 29h1v1H10zM11 29h1v1H11zM12 29h1v1H12zM13 29h1v1H13zM14 29h1v1H14zM15 29h1v1H15zM17 29h1v1H17zM18 29h1v1H18zM19 29h1v1H19zM20 29h1v1H20zM21 29h1v1H21z"/><path fill="#202d36" d="M16 8h1v1H16zM16 9h1v1H16zM7 10h1v1H7zM24 10h1v1H24zM7 11h1v1H7zM24 11h1v1H24zM4 16h1v1H4zM5 16h1v1H5zM26 16h1v1H26zM27 16h1v1H27zM4 21h1v1H4zM5 21h1v1H5zM26 21h1v1H26zM27 21h1v1H27zM7 26h1v1H7zM24 26h1v1H24zM7 27h1v1H7zM24 27h1v1H24zM16 28h1v1H16zM16 29h1v1H16z"/><path fill="#354d55" d="M10 10h1v1H10zM11 10h1v1H11zM12 10h1v1H12zM13 10h1v1H13zM14 10h1v1H14zM15 10h1v1H15zM17 10h1v1H17zM18 10h1v1H18zM19 10h1v1H19zM20 10h1v1H20zM21 10h1v1H21zM8 11h1v1H8zM9 11h1v1H9zM10 11h1v1H10zM11 11h1v1H11zM12 11h1v1H12zM13 11h1v1H13zM14 11h1v1H14zM15 11h1v1H15zM17 11h1v1H17zM18 11h1v1H18zM19 11h1v1H19zM20 11h1v1H20zM21 11h1v1H21zM22 11h1v1H22zM23 11h1v1H23zM6 12h1v1H6zM8 12h1v1H8zM9 12h1v1H9zM10 12h1v1H10zM11 12h1v1H11zM12 12h1v1H12zM13 12h1v1H13zM14 12h1v1H14zM15 12h1v1H15zM17 12h1v1H17zM18 12h1v1H18zM19 12h1v1H19zM20 12h1v1H20zM21 12h1v1H21zM22 12h1v1H22zM23 12h1v1H23zM25 12h1v1H25zM5 13h1v1H5zM6 13h1v1H6zM7 13h1v1H7zM8 13h1v1H8zM9 13h1v1H9zM22 13h1v1H22zM23 13h1v1H23zM24 13h1v1H24zM25 13h1v1H25zM26 13h1v1H26zM4 14h1v1H4zM5 14h1v1H5zM6 14h1v1H6zM7 14h1v1H7zM24 14h1v1H24zM25 14h1v1H25zM26 14h1v1H26zM27 14h1v1H27zM4 15h1v1H4zM5 15h1v1H5zM6 15h1v1H6zM25 15h1v1H25zM26 15h1v1H26zM27 15h1v1H27zM6 17h1v1H6zM25 17h1v1H25zM6 18h1v1H6zM25 18h1v1H25zM6 19h1v1H6zM25 19h1v1H25zM3 20h1v1H3zM4 20h1v1H4zM5 20h1v1H5zM6 20h1v1H6zM25 20h1v1H25zM26 20h1v1H26zM27 20h1v1H27zM28 20h1v1H28zM6 23h1v1H6zM25 23h1v1H25zM6 24h1v1H6zM7 24h1v1H7zM24 24h1v1H24zM25 24h1v1H25zM8 25h1v1H8zM9 25h1v1H9zM22 25h1v1H22zM23 25h1v1H23zM12 26h1v1H12zM13 26h1v1H13zM14 26h1v1H14zM15 26h1v1H15zM18 26h1v1H18zM19 26h1v1H19z"/><path fill="#253642" d="M16 10h1v1H16zM16 11h1v1H16zM7 12h1v1H7zM16 12h1v1H16zM24 12h1v1H24zM10 13h1v1H10zM11 13h1v1H11zM12 13h1v1H12zM13 13h1v1H13zM14 13h1v1H14zM15 13h1v1H15zM17 13h1v1H17zM18 13h1v1H18zM19 13h1v1H19zM20 13h1v1H20zM21 13h1v1H21zM8 14h1v1H8zM9 14h1v1H9zM22 14h1v1H22zM23 14h1v1H23zM7 15h1v1H7zM24 15h1v1H24zM6 16h1v1H6zM25 16h1v1H25zM6 21h1v1H6zM25 21h1v1H25zM6 22h1v1H6zM7 22h1v1H7zM24 22h1v1H24zM25 22h1v1H25zM7 23h1v1H7zM8 23h1v1H8zM9 23h1v1H9zM22 23h1v1H22zM23 23h1v1H23zM24 23h1v1H24zM8 24h1v1H8zM9 24h1v1H9zM10 24h1v1H10zM15 24h1v1H15zM16 24h1v1H16zM17 24h1v1H17zM18 24h1v1H18zM21 24h1v1H21zM22 24h1v1H22zM23 24h1v1H23zM7 25h1v1H7zM12 25h1v1H12zM15 25h1v1H15zM18 25h1v1H18zM19 25h1v1H19zM24 25h1v1H24zM16 27h1v1H16z"/><path fill="#0f1623" d="M16 13h1v1H16zM10 14h1v1H10zM11 14h1v1H11zM12 14h1v1H12zM13 14h1v1H13zM14 14h1v1H14zM15 14h1v1H15zM16 14h1v1H16zM17 14h1v1H17zM18 14h1v1H18zM19 14h1v1H19zM20 14h1v1H20zM21 14h1v1H21zM8 15h1v1H8zM9 15h1v1H9zM10 15h1v1H10zM11 15h1v1H11zM12 15h1v1H12zM13 15h1v1H13zM14 15h1v1H14zM15 15h1v1H15zM16 15h1v1H16zM17 15h1v1H17zM18 15h1v1H18zM19 15h1v1H19zM20 15h1v1H20zM21 15h1v1H21zM22 15h1v1H22zM23 15h1v1H23zM8 16h1v1H8zM9 16h1v1H9zM10 16h1v1H10zM11 16h1v1H11zM12 16h1v1H12zM13 16h1v1H13zM14 16h1v1H14zM15 16h1v1H15zM16 16h1v1H16zM17 16h1v1H17zM18 16h1v1H18zM19 16h1v1H19zM20 16h1v1H20zM21 16h1v1H21zM22 16h1v1H22zM23 16h1v1H23zM8 17h1v1H8zM9 17h1v1H9zM10 17h1v1H10zM11 17h1v1H11zM14 17h1v1H14zM15 17h1v1H15zM16 17h1v1H16zM17 17h1v1H17zM20 17h1v1H20zM21 17h1v1H21zM22 17h1v1H22zM23 17h1v1H23zM8 18h1v1H8zM9 18h1v1H9zM10 18h1v1H10zM14 18h1v1H14zM15 18h1v1H15zM16 18h1v1H16zM17 18h1v1H17zM21 18h1v1H21zM22 18h1v1H22zM23 18h1v1H23zM8 19h1v1H8zM9 19h1v1H9zM10 19h1v1H10zM14 19h1v1H14zM15 19h1v1H15zM16 19h1v1H16zM17 19h1v1H17zM21 19h1v1H21zM22 19h1v1H22zM23 19h1v1H23zM9 20h1v1H9zM10 20h1v1H10zM14 20h1v1H14zM15 20h1v1H15zM16 20h1v1H16zM17 20h1v1H17zM21 20h1v1H21zM22 20h1v1H22zM10 21h1v1H10zM11 21h1v1H11zM12 21h1v1H12zM13 21h1v1H13zM14 21h1v1H14zM15 21h1v1H15zM16 21h1v1H16zM17 21h1v1H17zM18 21h1v1H18zM19 21h1v1H19zM20 21h1v1H20zM21 21h1v1H21z"/><path fill="#162034" d="M7 16h1v1H7zM24 16h1v1H24zM7 17h1v1H7zM24 17h1v1H24zM7 18h1v1H7zM24 18h1v1H24zM7 19h1v1H7zM24 19h1v1H24zM7 20h1v1H7zM8 20h1v1H8zM23 20h1v1H23zM24 20h1v1H24zM7 21h1v1H7zM8 21h1v1H8zM9 21h1v1H9zM22 21h1v1H22zM23 21h1v1H23zM24 21h1v1H24zM8 22h1v1H8zM9 22h1v1H9zM10 22h1v1H10zM11 22h1v1H11zM20 22h1v1H20zM21 22h1v1H21zM22 22h1v1H22zM23 22h1v1H23zM10 23h1v1H10zM21 23h1v1H21z"/><path fill="#ffffff" d="M12 17h1v1H12zM18 17h1v1H18zM11 18h1v1H11zM13 18h1v1H13zM19 18h1v1H19zM20 18h1v1H20zM11 19h1v1H11zM20 19h1v1H20zM11 20h1v1H11zM20 20h1v1H20z"/><path fill="#0e0e14" d="M13 17h1v1H13zM19 17h1v1H19zM12 18h1v1H12zM18 18h1v1H18zM12 19h1v1H12zM13 19h1v1H13zM18 19h1v1H18zM19 19h1v1H19zM12 20h1v1H12zM13 20h1v1H13zM18 20h1v1H18zM19 20h1v1H19z"/><path fill="#0b2403" d="M12 22h1v1H12zM13 22h1v1H13zM14 22h1v1H14zM15 22h1v1H15zM16 22h1v1H16zM17 22h1v1H17zM18 22h1v1H18zM19 22h1v1H19zM11 23h1v1H11zM12 23h1v1H12zM13 23h1v1H13zM14 23h1v1H14zM15 23h1v1H15zM16 23h1v1H16zM17 23h1v1H17zM18 23h1v1H18zM19 23h1v1H19zM20 23h1v1H20z"/><path fill="#1b5009" d="M11 24h1v1H11zM12 24h1v1H12zM13 24h1v1H13zM14 24h1v1H14zM19 24h1v1H19zM20 24h1v1H20zM10 25h1v1H10zM11 25h1v1H11zM13 25h1v1H13zM14 25h1v1H14zM16 25h1v1H16zM17 25h1v1H17zM20 25h1v1H20zM21 25h1v1H21z"/><path fill="#256a0d" d="M10 26h1v1H10zM11 26h1v1H11zM16 26h1v1H16zM17 26h1v1H17zM20 26h1v1H20zM21 26h1v1H21z"/><path fill="#329211" d="M10 27h1v1H10zM11 27h1v1H11zM13 27h1v1H13zM14 27h1v1H14zM17 27h1v1H17zM20 27h1v1H20zM21 27h1v1H21zM10 28h1v1H10zM13 28h1v1H13zM14 28h1v1H14zM17 28h1v1H17zM21 28h1v1H21zM13 30h1v1H13zM14 30h1v1H14zM17 30h1v1H17z"/></svg>
