<svg xmlns="http://www.w3.org/2000/svg" viewBox="0 0 32 32" shape-rendering="crispEdges"><path fill="#3b2516" d="M11 2h1v1H11zM12 2h1v1H12zM13 2h1v1H13zM14 2h1v1H14zM9 3h1v1H9zM10 3h1v1H10zM15 3h1v1H15zM16 3h1v1H16zM22 3h1v1H22zM23 3h1v1H23zM7 4h1v1H7zM8 4h1v1H8zM17 4h1v1H17zM24 4h1v1H24zM6 5h1v1H6zM4 6h1v1H4zM4 7h1v1H4zM3 8h1v1H3zM3 9h1v1H3z"/><path fill="#735327" d="M11 3h1v1H11zM12 3h1v1H12zM12 4h1v1H12zM23 4h1v1H23zM4 8h1v1H4z"/><path fill="#4e3320" d="M13 3h1v1H13zM14 3h1v1H14zM13 4h1v1H13zM14 4h1v1H14zM15 4h1v1H15zM16 4h1v1H16zM5 6h1v1H5z"/><path fill="#2e7345" d="M9 4h1v1H9zM10 4h1v1H10zM21 4h1v1H21zM22 4h1v1H22zM8 5h1v1H8zM9 5h1v1H9zM10 5h1v1H10zM21 5h1v1H21zM22 5h1v1H22zM23 5h1v1H23zM10 6h1v1H10zM12 6h1v1H12zM14 6h1v1H14zM17 6h1v1H17zM21 6h1v1H21zM8 7h1v1H8zM9 7h1v1H9zM11 7h1v1H11zM18 7h1v1H18zM19 7h1v1H19zM20 7h1v1H20zM22 7h1v1H22zM23 7h1v1H23zM7 8h1v1H7zM8 8h1v1H8zM11 8h1v1H11zM18 8h1v1H18zM19 8h1v1H19zM20 8h1v1H20zM23 8h1v1H23zM24 8h1v1H24zM7 9h1v1H7zM11 9h1v1H11zM12 9h1v1H12zM19 9h1v1H19zM20 9h1v1H20zM24 9h1v1H24zM6 10h1v1H6zM12 10h1v1H12zM20 10h1v1H20zM25 10h1v1H25zM5 11h1v1H5zM26 11h1v1H26zM5 12h1v1H5zM11 12h1v1H11zM12 12h1v1H12zM13 12h1v1H13zM19 12h1v1H19zM20 12h1v1H20zM26 12h1v1H26zM4 13h1v1H4zM11 13h1v1H11zM12 13h1v1H12zM13 13h1v1H13zM14 13h1v1H14zM15 13h1v1H15zM16 13h1v1H16zM17 13h1v1H17zM18 13h1v1H18zM19 13h1v1H19zM20 13h1v1H20zM27 13h1v1H27zM7 14h1v1H7zM8 14h1v1H8zM9 14h1v1H9zM22 14h1v1H22zM23 14h1v1H23zM24 14h1v1H24zM6 15h1v1H6zM7 15h1v1H7zM10 15h1v1H10zM11 15h1v1H11zM20 15h1v1H20zM21 15h1v1H21zM24 15h1v1H24zM25 15h1v1H25zM6 16h1v1H6zM10 16h1v1H10zM11 16h1v1H11zM20 16h1v1H20zM21 16h1v1H21zM25 16h1v1H25zM26 16h1v1H26zM6 17h1v1H6zM10 17h1v1H10zM21 17h1v1H21zM25 17h1v1H25zM26 17h1v1H26zM21 18h1v1H21zM8 19h1v1H8zM10 19h1v1H10zM8 20h1v1H8zM10 20h1v1H10zM9 21h1v1H9zM12 21h1v1H12zM13 21h1v1H13zM25 21h1v1H25zM9 22h1v1H9zM10 22h1v1H10zM11 22h1v1H11zM12 22h1v1H12zM13 22h1v1H13zM15 22h1v1H15zM19 22h1v1H19zM20 22h1v1H20zM24 22h1v1H24zM10 23h1v1H10zM11 23h1v1H11zM13 23h1v1H13zM15 23h1v1H15zM18 23h1v1H18zM19 23h1v1H19zM20 23h1v1H20zM23 23h1v1H23zM24 23h1v1H24zM8 24h1v1H8zM11 24h1v1H11zM14 24h1v1H14zM18 24h1v1H18zM20 24h1v1H20zM22 24h1v1H22zM23 24h1v1H23zM7 25h1v1H7zM10 25h1v1H10zM12 25h1v1H12zM13 25h1v1H13zM17 25h1v1H17zM21 25h1v1H21zM24 25h1v1H24zM9 26h1v1H9zM12 26h1v1H12zM13 26h1v1H13zM14 26h1v1H14zM17 26h1v1H17zM21 26h1v1H21zM22 26h1v1H22zM23 26h1v1H23zM24 26h1v1H24zM7 27h1v1H7zM8 27h1v1H8zM9 27h1v1H9zM12 27h1v1H12zM14 27h1v1H14zM17 27h1v1H17zM21 27h1v1H21zM22 27h1v1H22zM24 27h1v1H24zM8 28h1v1H8zM9 28h1v1H9zM22 28h1v1H22z"/><path fill="#4b8a34" d="M11 4h1v1H11zM20 4h1v1H20zM9 6h1v1H9zM11 6h1v1H11zM13 6h1v1H13zM18 6h1v1H18zM20 6h1v1H20zM22 6h1v1H22zM7 7h1v1H7zM10 7h1v1H10zM12 7h1v1H12zM13 7h1v1H13zM21 7h1v1H21zM24 7h1v1H24zM6 8h1v1H6zM10 8h1v1H10zM12 8h1v1H12zM13 8h1v1H13zM14 8h1v1H14zM21 8h1v1H21zM25 8h1v1H25zM8 9h1v1H8zM9 9h1v1H9zM13 9h1v1H13zM14 9h1v1H14zM17 9h1v1H17zM18 9h1v1H18zM22 9h1v1H22zM23 9h1v1H23zM8 10h1v1H8zM9 10h1v1H9zM14 10h1v1H14zM17 10h1v1H17zM18 10h1v1H18zM22 10h1v1H22zM23 10h1v1H23zM6 11h1v1H6zM17 11h1v1H17zM25 11h1v1H25zM6 12h1v1H6zM25 12h1v1H25zM11 14h1v1H11zM13 14h1v1H13zM17 14h1v1H17zM18 14h1v1H18zM20 14h1v1H20zM14 15h1v1H14zM15 15h1v1H15zM16 15h1v1H16zM17 15h1v1H17zM18 15h1v1H18zM7 16h1v1H7zM14 16h1v1H14zM15 16h1v1H15zM17 16h1v1H17zM24 16h1v1H24zM7 17h1v1H7zM8 17h1v1H8zM15 17h1v1H15zM17 17h1v1H17zM23 17h1v1H23zM24 17h1v1H24zM5 18h1v1H5zM6 18h1v1H6zM7 18h1v1H7zM8 18h1v1H8zM15 18h1v1H15zM23 18h1v1H23zM24 18h1v1H24zM25 18h1v1H25zM5 19h1v1H5zM6 19h1v1H6zM9 19h1v1H9zM21 19h1v1H21zM25 19h1v1H25zM26 19h1v1H26zM6 20h1v1H6zM9 20h1v1H9zM21 20h1v1H21zM25 20h1v1H25zM26 20h1v1H26zM6 21h1v1H6zM8 21h1v1H8zM10 21h1v1H10zM18 21h1v1H18zM19 21h1v1H19zM20 21h1v1H20zM22 21h1v1H22zM23 21h1v1H23zM5 22h1v1H5zM6 22h1v1H6zM7 22h1v1H7zM8 22h1v1H8zM14 22h1v1H14zM18 22h1v1H18zM22 22h1v1H22zM23 22h1v1H23zM5 23h1v1H5zM6 23h1v1H6zM7 23h1v1H7zM8 23h1v1H8zM9 23h1v1H9zM14 23h1v1H14zM21 23h1v1H21zM25 23h1v1H25zM7 24h1v1H7zM10 24h1v1H10zM13 24h1v1H13zM21 24h1v1H21zM24 24h1v1H24zM8 25h1v1H8zM9 25h1v1H9zM11 25h1v1H11zM18 25h1v1H18zM20 25h1v1H20zM22 25h1v1H22zM8 26h1v1H8zM10 26h1v1H10zM20 27h1v1H20zM10 28h1v1H10z"/><path fill="#5c3c26" d="M18 4h1v1H18zM19 4h1v1H19zM15 6h1v1H15zM14 7h1v1H14zM17 8h1v1H17zM5 9h1v1H5zM26 9h1v1H26zM27 9h1v1H27zM3 10h1v1H3zM10 10h1v1H10zM11 10h1v1H11zM15 10h1v1H15zM16 10h1v1H16zM21 10h1v1H21zM28 10h1v1H28zM3 11h1v1H3zM12 11h1v1H12zM15 11h1v1H15zM20 11h1v1H20zM22 11h1v1H22zM28 11h1v1H28zM3 12h1v1H3zM23 12h1v1H23zM28 12h1v1H28zM4 14h1v1H4zM27 14h1v1H27zM4 15h1v1H4zM5 15h1v1H5zM26 15h1v1H26zM27 15h1v1H27z"/><path fill="#2e4d45" d="M7 5h1v1H7zM11 5h1v1H11zM12 5h1v1H12zM13 5h1v1H13zM14 5h1v1H14zM15 5h1v1H15zM16 5h1v1H16zM17 5h1v1H17zM18 5h1v1H18zM19 5h1v1H19zM20 5h1v1H20zM24 5h1v1H24zM7 6h1v1H7zM8 6h1v1H8zM19 6h1v1H19zM23 6h1v1H23zM24 6h1v1H24zM5 7h1v1H5zM6 7h1v1H6zM25 7h1v1H25zM26 7h1v1H26zM5 8h1v1H5zM27 8h1v1H27zM4 9h1v1H4zM6 9h1v1H6zM25 9h1v1H25zM7 10h1v1H7zM24 10h1v1H24zM7 11h1v1H7zM8 11h1v1H8zM16 11h1v1H16zM18 11h1v1H18zM19 11h1v1H19zM23 11h1v1H23zM24 11h1v1H24zM14 12h1v1H14zM15 12h1v1H15zM16 12h1v1H16zM17 12h1v1H17zM18 12h1v1H18zM6 14h1v1H6zM14 14h1v1H14zM15 14h1v1H15zM16 14h1v1H16zM19 14h1v1H19zM25 14h1v1H25zM8 15h1v1H8zM9 15h1v1H9zM22 15h1v1H22zM23 15h1v1H23zM7 19h1v1H7zM7 20h1v1H7zM23 20h1v1H23zM24 20h1v1H24zM7 21h1v1H7zM11 21h1v1H11zM14 21h1v1H14zM15 21h1v1H15zM24 21h1v1H24zM25 22h1v1H25zM12 23h1v1H12zM6 24h1v1H6zM9 24h1v1H9zM12 24h1v1H12zM15 24h1v1H15zM16 24h1v1H16zM19 24h1v1H19zM25 24h1v1H25zM14 25h1v1H14zM15 25h1v1H15zM16 25h1v1H16zM19 25h1v1H19zM23 25h1v1H23zM7 26h1v1H7zM11 26h1v1H11zM15 26h1v1H15zM16 26h1v1H16zM18 26h1v1H18zM19 26h1v1H19zM20 26h1v1H20zM10 27h1v1H10z"/><path fill="#352e4d" d="M6 6h1v1H6zM25 6h1v1H25zM6 13h1v1H6zM25 13h1v1H25zM6 25h1v1H6zM25 25h1v1H25z"/><path fill="#8b602d" d="M16 6h1v1H16zM15 7h1v1H15zM16 7h1v1H16zM17 7h1v1H17zM22 8h1v1H22zM26 8h1v1H26zM10 9h1v1H10zM21 9h1v1H21zM13 10h1v1H13zM4 12h1v1H4zM24 12h1v1H24zM27 12h1v1H27zM5 20h1v1H5z"/><path fill="#9b7035" d="M9 8h1v1H9zM15 8h1v1H15zM16 8h1v1H16zM15 9h1v1H15zM4 10h1v1H4zM5 10h1v1H5zM26 10h1v1H26zM27 10h1v1H27zM4 11h1v1H4zM13 11h1v1H13zM14 11h1v1H14zM27 11h1v1H27zM5 13h1v1H5zM26 13h1v1H26zM5 17h1v1H5zM26 18h1v1H26z"/><path fill="#b48a42" d="M16 9h1v1H16zM19 10h1v1H19zM8 13h1v1H8zM9 13h1v1H9zM22 13h1v1H22zM23 13h1v1H23zM5 14h1v1H5zM26 14h1v1H26z"/><path fill="#331e10" d="M9 11h1v1H9zM10 11h1v1H10zM11 11h1v1H11zM21 11h1v1H21zM7 12h1v1H7zM8 12h1v1H8zM9 12h1v1H9zM10 12h1v1H10zM21 12h1v1H21zM22 12h1v1H22zM7 13h1v1H7zM24 13h1v1H24zM26 23h1v1H26zM26 24h1v1H26z"/><path fill="#674025" d="M10 13h1v1H10zM21 13h1v1H21zM5 16h1v1H5zM4 17h1v1H4zM27 17h1v1H27zM4 18h1v1H4zM27 18h1v1H27zM4 19h1v1H4zM27 19h1v1H27zM4 20h1v1H4zM27 20h1v1H27zM5 21h1v1H5zM26 21h1v1H26z"/><path fill="#009d76" d="M10 14h1v1H10zM12 14h1v1H12zM21 14h1v1H21zM12 15h1v1H12zM13 15h1v1H13zM12 16h1v1H12zM13 16h1v1H13zM11 17h1v1H11zM14 18h1v1H14zM14 19h1v1H14zM15 19h1v1H15zM16 19h1v1H16zM17 19h1v1H17zM24 19h1v1H24zM15 20h1v1H15zM16 20h1v1H16z"/><path fill="#007a5b" d="M19 15h1v1H19zM17 20h1v1H17z"/><path fill="#51ffae" d="M8 16h1v1H8zM9 16h1v1H9zM16 16h1v1H16zM22 16h1v1H22zM23 16h1v1H23zM16 17h1v1H16zM22 17h1v1H22zM22 18h1v1H22zM16 21h1v1H16z"/><path fill="#00635c" d="M18 16h1v1H18zM19 16h1v1H19zM9 17h1v1H9zM14 17h1v1H14zM20 17h1v1H20zM10 18h1v1H10zM16 18h1v1H16zM17 18h1v1H17zM22 19h1v1H22zM22 20h1v1H22z"/><path fill="#ffffff" d="M12 17h1v1H12zM18 17h1v1H18zM11 18h1v1H11zM13 18h1v1H13zM19 18h1v1H19zM20 18h1v1H20zM11 19h1v1H11zM20 19h1v1H20zM11 20h1v1H11zM20 20h1v1H20z"/><path fill="#0e0e14" d="M13 17h1v1H13zM19 17h1v1H19zM12 18h1v1H12zM18 18h1v1H18zM12 19h1v1H12zM13 19h1v1H13zM18 19h1v1H18zM19 19h1v1H19zM12 20h1v1H12zM13 20h1v1H13zM18 20h1v1H18zM19 20h1v1H19z"/><path fill="#003834" d="M9 18h1v1H9zM23 19h1v1H23zM14 20h1v1H14zM17 21h1v1H17zM21 21h1v1H21zM16 22h1v1H16zM17 22h1v1H17zM21 22h1v1H21zM16 23h1v1H16zM17 23h1v1H17zM22 23h1v1H22zM17 24h1v1H17z"/></svg>
