<svg xmlns="http://www.w3.org/2000/svg" viewBox="0 0 32 32" shape-rendering="crispEdges"><path fill="#2dab81" d="M15 2h1v1H15zM16 2h1v1H16zM14 3h1v1H14zM17 3h1v1H17zM9 4h1v1H9zM22 4h1v1H22zM8 5h1v1H8zM23 5h1v1H23zM6 6h1v1H6zM7 6h1v1H7zM24 6h1v1H24zM25 6h1v1H25zM6 7h1v1H6zM7 7h1v1H7zM8 7h1v1H8zM23 7h1v1H23zM24 7h1v1H24zM25 7h1v1H25zM7 8h1v1H7zM8 8h1v1H8zM9 8h1v1H9zM10 8h1v1H10zM21 8h1v1H21zM22 8h1v1H22zM23 8h1v1H23zM24 8h1v1H24zM8 9h1v1H8zM9 9h1v1H9zM10 9h1v1H10zM11 9h1v1H11zM12 9h1v1H12zM19 9h1v1H19zM20 9h1v1H20zM21 9h1v1H21zM22 9h1v1H22zM23 9h1v1H23zM10 10h1v1H10zM11 10h1v1H11zM13 10h1v1H13zM18 10h1v1H18zM20 10h1v1H20zM21 10h1v1H21zM3 13h1v1H3zM4 13h1v1H4zM27 13h1v1H27zM28 13h1v1H28zM8 22h1v1H8zM23 22h1v1H23zM11 23h1v1H11zM13 23h1v1H13zM14 23h1v1H14zM15 23h1v1H15zM16 23h1v1H16zM17 23h1v1H17zM18 23h1v1H18zM20 23h1v1H20zM8 24h1v1H8zM9 24h1v1H9zM22 24h1v1H22zM23 24h1v1H23zM7 25h1v1H7zM15 25h1v1H15zM16 25h1v1H16zM24 25h1v1H24zM14 26h1v1H14zM17 26h1v1H17zM14 27h1v1H14zM17 27h1v1H17zM15 28h1v1H15zM16 28h1v1H16z"/><path fill="#01514c" d="M7 3h1v1H7zM8 3h1v1H8zM9 3h1v1H9zM22 3h1v1H22zM23 3h1v1H23zM24 3h1v1H24zM10 4h1v1H10zM21 4h1v1H21zM5 5h1v1H5zM26 5h1v1H26zM5 6h1v1H5zM26 6h1v1H26zM5 7h1v1H5zM26 7h1v1H26zM2 9h1v1H2zM6 9h1v1H6zM25 9h1v1H25zM29 9h1v1H29zM2 10h1v1H2zM8 10h1v1H8zM23 10h1v1H23zM29 10h1v1H29zM10 11h1v1H10zM21 11h1v1H21zM1 13h1v1H1zM6 13h1v1H6zM25 13h1v1H25zM30 13h1v1H30zM1 14h1v1H1zM30 14h1v1H30zM7 16h1v1H7zM24 16h1v1H24zM7 17h1v1H7zM24 17h1v1H24zM7 18h1v1H7zM24 18h1v1H24zM7 19h1v1H7zM24 19h1v1H24zM7 20h1v1H7zM24 20h1v1H24zM7 21h1v1H7zM24 21h1v1H24zM9 22h1v1H9zM22 22h1v1H22zM7 23h1v1H7zM8 23h1v1H8zM9 23h1v1H9zM22 23h1v1H22zM23 23h1v1H23zM24 23h1v1H24zM1 25h1v1H1zM30 25h1v1H30zM1 26h1v1H1zM30 26h1v1H30z"/><path fill="#fbfdfe" d="M15 3h1v1H15zM16 3h1v1H16zM15 4h1v1H15zM16 4h1v1H16zM14 8h1v1H14zM15 8h1v1H15zM16 8h1v1H16zM17 8h1v1H17zM14 9h1v1H14zM17 9h1v1H17zM14 10h1v1H14zM15 10h1v1H15zM17 10h1v1H17zM15 11h1v1H15zM16 12h1v1H16zM14 13h1v1H14zM16 13h1v1H16zM17 13h1v1H17zM14 14h1v1H14zM16 14h1v1H16zM17 14h1v1H17zM4 16h1v1H4zM5 16h1v1H5zM6 16h1v1H6zM25 16h1v1H25zM26 16h1v1H26zM27 16h1v1H27zM3 17h1v1H3zM4 17h1v1H4zM5 17h1v1H5zM26 17h1v1H26zM27 17h1v1H27zM28 17h1v1H28zM3 18h1v1H3zM28 18h1v1H28zM3 19h1v1H3zM28 19h1v1H28zM3 20h1v1H3zM28 20h1v1H28zM3 21h1v1H3zM28 21h1v1H28zM2 25h1v1H2zM3 25h1v1H3zM28 25h1v1H28zM29 25h1v1H29zM3 26h1v1H3zM4 26h1v1H4zM5 26h1v1H5zM26 26h1v1H26zM27 26h1v1H27zM28 26h1v1H28zM8 27h1v1H8zM23 27h1v1H23z"/><path fill="#04574c" d="M6 4h1v1H6zM25 4h1v1H25zM9 7h1v1H9zM10 7h1v1H10zM11 7h1v1H11zM20 7h1v1H20zM21 7h1v1H21zM22 7h1v1H22z"/><path fill="#5ec5b1" d="M7 4h1v1H7zM8 4h1v1H8zM23 4h1v1H23zM24 4h1v1H24zM6 5h1v1H6zM7 5h1v1H7zM24 5h1v1H24zM25 5h1v1H25z"/><path fill="#2aa181" d="M13 4h1v1H13zM18 4h1v1H18zM5 9h1v1H5zM26 9h1v1H26zM6 10h1v1H6zM7 10h1v1H7zM24 10h1v1H24zM25 10h1v1H25zM2 24h1v1H2zM29 24h1v1H29z"/><path fill="#5bddc2" d="M14 4h1v1H14zM17 4h1v1H17zM14 6h1v1H14zM15 6h1v1H15zM16 6h1v1H16zM17 6h1v1H17zM4 9h1v1H4zM27 9h1v1H27zM5 10h1v1H5zM26 10h1v1H26zM5 11h1v1H5zM7 11h1v1H7zM8 11h1v1H8zM9 11h1v1H9zM22 11h1v1H22zM23 11h1v1H23zM24 11h1v1H24zM26 11h1v1H26zM6 12h1v1H6zM7 12h1v1H7zM8 12h1v1H8zM9 12h1v1H9zM10 12h1v1H10zM11 12h1v1H11zM12 12h1v1H12zM19 12h1v1H19zM20 12h1v1H20zM21 12h1v1H21zM22 12h1v1H22zM23 12h1v1H23zM24 12h1v1H24zM25 12h1v1H25zM8 13h1v1H8zM9 13h1v1H9zM22 13h1v1H22zM23 13h1v1H23zM10 18h1v1H10zM21 18h1v1H21zM14 25h1v1H14zM17 25h1v1H17zM8 26h1v1H8zM9 26h1v1H9zM22 26h1v1H22zM23 26h1v1H23zM9 27h1v1H9zM13 27h1v1H13zM15 27h1v1H15zM16 27h1v1H16zM18 27h1v1H18zM22 27h1v1H22zM14 28h1v1H14zM17 28h1v1H17zM15 29h1v1H15zM16 29h1v1H16z"/><path fill="#03685f" d="M9 5h1v1H9zM22 5h1v1H22zM12 6h1v1H12zM19 6h1v1H19zM6 8h1v1H6zM25 8h1v1H25zM2 12h1v1H2zM3 12h1v1H3zM4 12h1v1H4zM5 12h1v1H5zM13 12h1v1H13zM18 12h1v1H18zM26 12h1v1H26zM27 12h1v1H27zM28 12h1v1H28zM29 12h1v1H29zM13 13h1v1H13zM18 13h1v1H18zM6 14h1v1H6zM12 14h1v1H12zM19 14h1v1H19zM25 14h1v1H25zM2 15h1v1H2zM8 15h1v1H8zM13 15h1v1H13zM18 15h1v1H18zM23 15h1v1H23zM29 15h1v1H29zM8 16h1v1H8zM23 16h1v1H23zM8 17h1v1H8zM15 17h1v1H15zM23 17h1v1H23zM8 18h1v1H8zM23 18h1v1H23zM8 19h1v1H8zM23 19h1v1H23zM8 20h1v1H8zM23 20h1v1H23zM8 21h1v1H8zM23 21h1v1H23zM10 24h1v1H10zM21 24h1v1H21zM12 25h1v1H12zM19 25h1v1H19zM7 26h1v1H7zM24 26h1v1H24zM12 28h1v1H12zM19 28h1v1H19z"/><path fill="#014744" d="M10 5h1v1H10zM21 5h1v1H21zM5 8h1v1H5zM26 8h1v1H26zM13 9h1v1H13zM18 9h1v1H18zM2 11h1v1H2zM29 11h1v1H29zM7 14h1v1H7zM24 14h1v1H24zM3 15h1v1H3zM4 15h1v1H4zM5 15h1v1H5zM6 15h1v1H6zM7 15h1v1H7zM24 15h1v1H24zM25 15h1v1H25zM26 15h1v1H26zM27 15h1v1H27zM28 15h1v1H28zM10 20h1v1H10zM21 20h1v1H21zM7 24h1v1H7zM24 24h1v1H24zM6 25h1v1H6zM25 25h1v1H25z"/><path fill="#1e9278" d="M13 5h1v1H13zM18 5h1v1H18zM11 8h1v1H11zM20 8h1v1H20zM12 10h1v1H12zM19 10h1v1H19zM3 11h1v1H3zM28 11h1v1H28zM2 18h1v1H2zM29 18h1v1H29zM2 19h1v1H2zM29 19h1v1H29zM2 20h1v1H2zM29 20h1v1H29zM2 21h1v1H2zM29 21h1v1H29zM2 22h1v1H2zM29 22h1v1H29zM10 25h1v1H10zM21 25h1v1H21z"/><path fill="#c9f7f0" d="M14 5h1v1H14zM15 5h1v1H15zM16 5h1v1H16zM17 5h1v1H17zM3 9h1v1H3zM28 9h1v1H28zM4 10h1v1H4zM27 10h1v1H27zM6 11h1v1H6zM25 11h1v1H25zM14 24h1v1H14zM15 24h1v1H15zM16 24h1v1H16zM17 24h1v1H17zM13 26h1v1H13zM15 26h1v1H15zM16 26h1v1H16zM18 26h1v1H18z"/><path fill="#015b56" d="M8 6h1v1H8zM23 6h1v1H23zM12 8h1v1H12zM19 8h1v1H19zM7 9h1v1H7zM24 9h1v1H24zM9 10h1v1H9zM22 10h1v1H22zM11 11h1v1H11zM12 11h1v1H12zM19 11h1v1H19zM20 11h1v1H20zM2 13h1v1H2zM5 13h1v1H5zM26 13h1v1H26zM29 13h1v1H29zM10 19h1v1H10zM21 19h1v1H21zM13 21h1v1H13zM18 21h1v1H18zM7 22h1v1H7zM24 22h1v1H24zM8 25h1v1H8zM9 25h1v1H9zM22 25h1v1H22zM23 25h1v1H23zM10 26h1v1H10zM12 26h1v1H12zM19 26h1v1H19zM21 26h1v1H21zM7 27h1v1H7zM10 27h1v1H10zM21 27h1v1H21zM24 27h1v1H24zM7 28h1v1H7zM8 28h1v1H8zM9 28h1v1H9zM10 28h1v1H10zM21 28h1v1H21zM22 28h1v1H22zM23 28h1v1H23zM24 28h1v1H24z"/><path fill="#083d3e" d="M9 6h1v1H9zM22 6h1v1H22zM1 15h1v1H1zM30 15h1v1H30zM1 16h1v1H1zM2 16h1v1H2zM29 16h1v1H29zM30 16h1v1H30zM2 17h1v1H2zM29 17h1v1H29zM6 26h1v1H6zM11 26h1v1H11zM20 26h1v1H20zM25 26h1v1H25zM1 27h1v1H1zM11 27h1v1H11zM12 27h1v1H12zM19 27h1v1H19zM20 27h1v1H20zM30 27h1v1H30zM1 28h1v1H1zM11 28h1v1H11zM13 28h1v1H13zM18 28h1v1H18zM20 28h1v1H20zM30 28h1v1H30z"/><path fill="#4cac9c" d="M13 6h1v1H13zM18 6h1v1H18z"/><path fill="#037b71" d="M12 7h1v1H12zM19 7h1v1H19zM13 8h1v1H13zM18 8h1v1H18zM2 14h1v1H2zM3 14h1v1H3zM4 14h1v1H4zM5 14h1v1H5zM26 14h1v1H26zM27 14h1v1H27zM28 14h1v1H28zM29 14h1v1H29zM1 23h1v1H1zM2 23h1v1H2zM29 23h1v1H29zM30 23h1v1H30zM1 24h1v1H1zM11 24h1v1H11zM12 24h1v1H12zM13 24h1v1H13zM18 24h1v1H18zM19 24h1v1H19zM20 24h1v1H20zM30 24h1v1H30z"/><path fill="#91e1f9" d="M13 7h1v1H13zM14 7h1v1H14zM15 7h1v1H15zM16 7h1v1H16zM17 7h1v1H17zM18 7h1v1H18z"/><path fill="#41bfaa" d="M3 8h1v1H3zM4 8h1v1H4zM27 8h1v1H27zM28 8h1v1H28zM3 10h1v1H3zM28 10h1v1H28zM4 11h1v1H4zM27 11h1v1H27zM7 13h1v1H7zM10 13h1v1H10zM11 13h1v1H11zM12 13h1v1H12zM19 13h1v1H19zM20 13h1v1H20zM21 13h1v1H21zM24 13h1v1H24zM8 14h1v1H8zM9 14h1v1H9zM13 14h1v1H13zM18 14h1v1H18zM22 14h1v1H22zM23 14h1v1H23zM15 15h1v1H15zM14 16h1v1H14zM15 16h1v1H15zM17 16h1v1H17zM16 17h1v1H16z"/><path fill="#7edaf6" d="M15 9h1v1H15zM16 9h1v1H16zM16 10h1v1H16zM16 11h1v1H16zM15 12h1v1H15zM15 13h1v1H15zM15 14h1v1H15zM16 15h1v1H16zM16 16h1v1H16zM6 18h1v1H6zM25 18h1v1H25zM5 19h1v1H5zM6 19h1v1H6zM25 19h1v1H25zM26 19h1v1H26zM4 20h1v1H4zM5 20h1v1H5zM6 20h1v1H6zM25 20h1v1H25zM26 20h1v1H26zM27 20h1v1H27zM4 21h1v1H4zM6 21h1v1H6zM25 21h1v1H25zM27 21h1v1H27zM4 22h1v1H4zM6 22h1v1H6zM25 22h1v1H25zM27 22h1v1H27zM4 23h1v1H4zM6 23h1v1H6zM25 23h1v1H25zM27 23h1v1H27zM3 24h1v1H3zM4 24h1v1H4zM6 24h1v1H6zM25 24h1v1H25zM27 24h1v1H27zM28 24h1v1H28zM4 25h1v1H4zM27 25h1v1H27zM2 27h1v1H2zM29 27h1v1H29zM2 28h1v1H2zM3 28h1v1H3zM4 28h1v1H4zM5 28h1v1H5zM26 28h1v1H26zM27 28h1v1H27zM28 28h1v1H28zM29 28h1v1H29z"/><path fill="#0f776b" d="M13 11h1v1H13zM18 11h1v1H18z"/><path fill="#bbedfc" d="M14 11h1v1H14zM17 11h1v1H17zM14 12h1v1H14zM17 12h1v1H17zM14 15h1v1H14zM17 15h1v1H17zM3 16h1v1H3zM28 16h1v1H28zM6 17h1v1H6zM25 17h1v1H25zM4 18h1v1H4zM5 18h1v1H5zM26 18h1v1H26zM27 18h1v1H27zM4 19h1v1H4zM27 19h1v1H27zM5 21h1v1H5zM26 21h1v1H26zM3 22h1v1H3zM5 22h1v1H5zM26 22h1v1H26zM28 22h1v1H28zM3 23h1v1H3zM5 23h1v1H5zM26 23h1v1H26zM28 23h1v1H28zM5 24h1v1H5zM26 24h1v1H26zM5 25h1v1H5zM26 25h1v1H26zM2 26h1v1H2zM29 26h1v1H29zM3 27h1v1H3zM4 27h1v1H4zM5 27h1v1H5zM26 27h1v1H26zM27 27h1v1H27zM28 27h1v1H28z"/><path fill="#000000" d="M10 14h1v1H10zM11 14h1v1H11zM20 14h1v1H20zM21 14h1v1H21zM9 15h1v1H9zM10 15h1v1H10zM11 15h1v1H11zM12 15h1v1H12zM19 15h1v1H19zM20 15h1v1H20zM21 15h1v1H21zM22 15h1v1H22zM9 16h1v1H9zM10 16h1v1H10zM11 16h1v1H11zM12 16h1v1H12zM13 16h1v1H13zM18 16h1v1H18zM19 16h1v1H19zM20 16h1v1H20zM21 16h1v1H21zM22 16h1v1H22zM9 17h1v1H9zM10 17h1v1H10zM13 17h1v1H13zM14 17h1v1H14zM17 17h1v1H17zM18 17h1v1H18zM21 17h1v1H21zM22 17h1v1H22zM9 18h1v1H9zM14 18h1v1H14zM15 18h1v1H15zM16 18h1v1H16zM17 18h1v1H17zM22 18h1v1H22zM9 19h1v1H9zM14 19h1v1H14zM15 19h1v1H15zM16 19h1v1H16zM17 19h1v1H17zM22 19h1v1H22zM9 20h1v1H9zM14 20h1v1H14zM15 20h1v1H15zM16 20h1v1H16zM17 20h1v1H17zM22 20h1v1H22zM9 21h1v1H9zM10 21h1v1H10zM14 21h1v1H14zM15 21h1v1H15zM16 21h1v1H16zM17 21h1v1H17zM21 21h1v1H21zM22 21h1v1H22zM10 22h1v1H10zM11 22h1v1H11zM14 22h1v1H14zM15 22h1v1H15zM16 22h1v1H16zM17 22h1v1H17zM20 22h1v1H20zM21 22h1v1H21z"/><path fill="#ffffff" d="M11 17h1v1H11zM12 17h1v1H12zM19 17h1v1H19zM20 17h1v1H20zM11 18h1v1H11zM12 18h1v1H12zM13 18h1v1H13zM18 18h1v1H18zM19 18h1v1H19zM20 18h1v1H20zM11 19h1v1H11zM12 19h1v1H12zM19 19h1v1H19zM20 19h1v1H20zM11 20h1v1H11zM12 20h1v1H12zM19 20h1v1H19zM20 20h1v1H20zM11 21h1v1H11zM12 21h1v1H12zM19 21h1v1H19zM20 21h1v1H20zM12 22h1v1H12zM13 22h1v1H13zM18 22h1v1H18zM19 22h1v1H19z"/><path fill="#070303" d="M13 19h1v1H13zM18 19h1v1H18zM13 20h1v1H13zM18 20h1v1H18z"/><path fill="#277970" d="M10 23h1v1H10zM12 23h1v1H12zM19 23h1v1H19zM21 23h1v1H21z"/><path fill="#174747" d="M11 25h1v1H11zM20 25h1v1H20z"/><path fill="#eefcfc" d="M13 25h1v1H13zM18 25h1v1H18z"/><path fill="#022f31" d="M6 27h1v1H6zM25 27h1v1H25zM6 28h1v1H6zM25 28h1v1H25zM2 29h1v1H2zM3 29h1v1H3zM4 29h1v1H4zM5 29h1v1H5zM6 29h1v1H6zM7 29h1v1H7zM8 29h1v1H8zM9 29h1v1H9zM10 29h1v1H10zM11 29h1v1H11zM12 29h1v1H12zM13 29h1v1H13zM14 29h1v1H14zM17 29h1v1H17zM18 29h1v1H18zM19 29h1v1H19zM20 29h1v1H20zM21 29h1v1H21zM22 29h1v1H22zM23 29h1v1H23zM24 29h1v1H24zM25 29h1v1H25zM26 29h1v1H26zM27 29h1v1H27zM28 29h1v1H28zM29 29h1v1H29z"/></svg>
