<svg xmlns="http://www.w3.org/2000/svg" viewBox="0 0 32 32" shape-rendering="crispEdges"><path fill="#1f0b4e" d="M15 1h1v1H15zM16 1h1v1H16zM10 2h1v1H10zM11 2h1v1H11zM20 2h1v1H20zM21 2h1v1H21zM9 3h1v1H9zM12 3h1v1H12zM19 3h1v1H19zM22 3h1v1H22zM13 5h1v1H13zM18 5h1v1H18zM7 6h1v1H7zM8 6h1v1H8zM23 6h1v1H23zM24 6h1v1H24zM4 8h1v1H4zM27 8h1v1H27zM4 9h1v1H4zM27 9h1v1H27zM5 12h1v1H5zM26 12h1v1H26zM3 13h1v1H3zM28 13h1v1H28zM3 14h1v1H3zM28 14h1v1H28zM2 18h1v1H2zM29 18h1v1H29zM2 19h1v1H2zM29 19h1v1H29zM4 20h1v1H4zM13 20h1v1H13zM18 20h1v1H18zM27 20h1v1H27zM3 21h1v1H3zM4 21h1v1H4zM15 21h1v1H15zM16 21h1v1H16zM27 21h1v1H27zM28 21h1v1H28zM2 22h1v1H2zM5 22h1v1H5zM26 22h1v1H26zM29 22h1v1H29zM6 23h1v1H6zM25 23h1v1H25zM7 24h1v1H7zM24 24h1v1H24zM4 25h1v1H4zM8 25h1v1H8zM9 25h1v1H9zM22 25h1v1H22zM23 25h1v1H23zM27 25h1v1H27zM5 26h1v1H5zM6 26h1v1H6zM7 26h1v1H7zM8 26h1v1H8zM23 26h1v1H23zM24 26h1v1H24zM25 26h1v1H25zM26 26h1v1H26zM4 27h1v1H4zM8 27h1v1H8zM10 27h1v1H10zM21 27h1v1H21zM23 27h1v1H23zM27 27h1v1H27zM4 28h1v1H4zM27 28h1v1H27zM4 29h1v1H4zM27 29h1v1H27zM5 30h1v1H5zM26 30h1v1H26z"/><path fill="#18053a" d="M14 2h1v1H14zM17 2h1v1H17zM13 3h1v1H13zM18 3h1v1H18zM8 4h1v1H8zM13 4h1v1H13zM18 4h1v1H18zM23 4h1v1H23zM8 5h1v1H8zM23 5h1v1H23zM9 6h1v1H9zM12 6h1v1H12zM13 6h1v1H13zM14 6h1v1H14zM17 6h1v1H17zM18 6h1v1H18zM19 6h1v1H19zM22 6h1v1H22zM10 7h1v1H10zM11 7h1v1H11zM13 7h1v1H13zM18 7h1v1H18zM20 7h1v1H20zM21 7h1v1H21zM9 9h1v1H9zM11 9h1v1H11zM14 9h1v1H14zM17 9h1v1H17zM20 9h1v1H20zM22 9h1v1H22zM4 10h1v1H4zM8 10h1v1H8zM12 10h1v1H12zM13 10h1v1H13zM18 10h1v1H18zM19 10h1v1H19zM23 10h1v1H23zM27 10h1v1H27zM5 11h1v1H5zM7 11h1v1H7zM13 11h1v1H13zM18 11h1v1H18zM24 11h1v1H24zM26 11h1v1H26zM6 12h1v1H6zM9 12h1v1H9zM10 12h1v1H10zM11 12h1v1H11zM13 12h1v1H13zM18 12h1v1H18zM20 12h1v1H20zM21 12h1v1H21zM22 12h1v1H22zM25 12h1v1H25zM6 13h1v1H6zM8 13h1v1H8zM14 13h1v1H14zM17 13h1v1H17zM23 13h1v1H23zM25 13h1v1H25zM6 14h1v1H6zM25 14h1v1H25zM3 15h1v1H3zM6 15h1v1H6zM25 15h1v1H25zM28 15h1v1H28zM4 16h1v1H4zM5 16h1v1H5zM6 16h1v1H6zM10 16h1v1H10zM21 16h1v1H21zM25 16h1v1H25zM26 16h1v1H26zM27 16h1v1H27zM6 18h1v1H6zM25 18h1v1H25zM3 20h1v1H3zM28 20h1v1H28zM6 21h1v1H6zM25 21h1v1H25zM7 22h1v1H7zM24 22h1v1H24zM1 23h1v1H1zM9 23h1v1H9zM22 23h1v1H22zM30 23h1v1H30zM1 24h1v1H1zM5 24h1v1H5zM11 24h1v1H11zM20 24h1v1H20zM26 24h1v1H26zM30 24h1v1H30zM2 25h1v1H2zM29 25h1v1H29zM10 26h1v1H10zM12 26h1v1H12zM19 26h1v1H19zM21 26h1v1H21zM13 27h1v1H13zM18 27h1v1H18zM9 28h1v1H9zM11 28h1v1H11zM12 28h1v1H12zM19 28h1v1H19zM20 28h1v1H20zM22 28h1v1H22zM9 29h1v1H9zM13 29h1v1H13zM14 29h1v1H14zM17 29h1v1H17zM18 29h1v1H18zM22 29h1v1H22zM8 30h1v1H8zM9 30h1v1H9zM10 30h1v1H10zM11 30h1v1H11zM20 30h1v1H20zM21 30h1v1H21zM22 30h1v1H22zM23 30h1v1H23z"/><path fill="#c732ca" d="M15 2h1v1H15zM11 3h1v1H11zM15 3h1v1H15zM16 3h1v1H16zM20 3h1v1H20zM10 5h1v1H10zM11 5h1v1H11zM20 5h1v1H20zM21 5h1v1H21zM7 8h1v1H7zM24 8h1v1H24zM13 9h1v1H13zM15 9h1v1H15zM16 9h1v1H16zM18 9h1v1H18zM9 10h1v1H9zM22 10h1v1H22zM8 11h1v1H8zM23 11h1v1H23zM7 12h1v1H7zM24 12h1v1H24zM7 13h1v1H7zM13 13h1v1H13zM18 13h1v1H18zM24 13h1v1H24zM14 14h1v1H14zM15 14h1v1H15zM17 14h1v1H17zM4 15h1v1H4zM27 15h1v1H27zM7 17h1v1H7zM24 17h1v1H24zM4 18h1v1H4zM27 18h1v1H27zM4 22h1v1H4zM27 22h1v1H27zM5 23h1v1H5zM26 23h1v1H26zM2 24h1v1H2zM3 24h1v1H3zM12 24h1v1H12zM16 24h1v1H16zM19 24h1v1H19zM28 24h1v1H28zM29 24h1v1H29zM12 25h1v1H12zM15 25h1v1H15zM16 25h1v1H16zM19 25h1v1H19zM6 27h1v1H6zM14 27h1v1H14zM17 27h1v1H17zM25 27h1v1H25zM5 29h1v1H5zM6 29h1v1H6zM25 29h1v1H25zM26 29h1v1H26z"/><path fill="#ffe8e8" d="M16 2h1v1H16zM10 4h1v1H10zM21 4h1v1H21zM15 6h1v1H15zM12 8h1v1H12zM19 8h1v1H19zM6 9h1v1H6zM25 9h1v1H25zM14 10h1v1H14zM15 10h1v1H15zM14 11h1v1H14zM15 11h1v1H15zM5 14h1v1H5zM26 14h1v1H26zM11 16h1v1H11zM12 16h1v1H12zM19 16h1v1H19zM20 16h1v1H20zM11 17h1v1H11zM13 17h1v1H13zM18 17h1v1H18zM20 17h1v1H20zM11 18h1v1H11zM20 18h1v1H20zM4 19h1v1H4zM10 19h1v1H10zM11 19h1v1H11zM20 19h1v1H20zM21 19h1v1H21zM27 19h1v1H27zM10 20h1v1H10zM11 20h1v1H11zM20 20h1v1H20zM21 20h1v1H21zM11 21h1v1H11zM12 21h1v1H12zM19 21h1v1H19zM20 21h1v1H20zM12 22h1v1H12zM13 22h1v1H13zM18 22h1v1H18zM19 22h1v1H19zM3 23h1v1H3zM14 23h1v1H14zM15 23h1v1H15zM28 23h1v1H28zM14 24h1v1H14zM15 24h1v1H15zM5 28h1v1H5zM26 28h1v1H26z"/><path fill="#fb70ff" d="M10 3h1v1H10zM21 3h1v1H21zM11 4h1v1H11zM20 4h1v1H20zM6 8h1v1H6zM13 8h1v1H13zM18 8h1v1H18zM25 8h1v1H25zM17 10h1v1H17zM15 16h1v1H15zM16 16h1v1H16zM15 18h1v1H15zM16 18h1v1H16zM3 22h1v1H3zM28 22h1v1H28zM4 23h1v1H4zM27 23h1v1H27zM5 27h1v1H5zM7 27h1v1H7zM24 27h1v1H24zM26 27h1v1H26zM6 28h1v1H6zM7 28h1v1H7zM24 28h1v1H24zM25 28h1v1H25z"/><path fill="#6225be" d="M14 3h1v1H14zM17 3h1v1H17zM12 4h1v1H12zM15 4h1v1H15zM16 4h1v1H16zM19 4h1v1H19zM9 5h1v1H9zM12 5h1v1H12zM19 5h1v1H19zM22 5h1v1H22zM5 8h1v1H5zM26 8h1v1H26zM8 9h1v1H8zM12 9h1v1H12zM19 9h1v1H19zM23 9h1v1H23zM6 11h1v1H6zM25 11h1v1H25zM14 15h1v1H14zM17 15h1v1H17zM15 17h1v1H15zM16 17h1v1H16zM16 23h1v1H16zM4 24h1v1H4zM27 24h1v1H27zM3 25h1v1H3zM17 25h1v1H17zM28 25h1v1H28zM15 26h1v1H15zM7 29h1v1H7zM8 29h1v1H8zM23 29h1v1H23zM24 29h1v1H24zM7 30h1v1H7zM24 30h1v1H24z"/><path fill="#fb65ff" d="M9 4h1v1H9zM22 4h1v1H22zM4 13h1v1H4zM5 13h1v1H5zM26 13h1v1H26zM27 13h1v1H27zM3 18h1v1H3zM28 18h1v1H28zM2 23h1v1H2zM29 23h1v1H29z"/><path fill="#7a28a6" d="M14 4h1v1H14zM17 4h1v1H17zM15 5h1v1H15zM16 5h1v1H16zM14 8h1v1H14zM17 8h1v1H17zM5 10h1v1H5zM26 10h1v1H26zM9 11h1v1H9zM10 11h1v1H10zM21 11h1v1H21zM22 11h1v1H22zM8 12h1v1H8zM14 12h1v1H14zM17 12h1v1H17zM23 12h1v1H23zM10 13h1v1H10zM21 13h1v1H21zM8 14h1v1H8zM13 14h1v1H13zM16 14h1v1H16zM18 14h1v1H18zM23 14h1v1H23zM15 15h1v1H15zM16 15h1v1H16zM5 17h1v1H5zM10 17h1v1H10zM21 17h1v1H21zM26 17h1v1H26zM15 20h1v1H15zM16 20h1v1H16zM7 21h1v1H7zM24 21h1v1H24zM10 23h1v1H10zM17 23h1v1H17zM21 23h1v1H21zM17 24h1v1H17zM14 25h1v1H14zM16 26h1v1H16zM9 27h1v1H9zM22 27h1v1H22z"/><path fill="#511090" d="M14 5h1v1H14zM17 5h1v1H17zM10 6h1v1H10zM11 6h1v1H11zM16 6h1v1H16zM20 6h1v1H20zM21 6h1v1H21zM5 7h1v1H5zM6 7h1v1H6zM7 7h1v1H7zM15 7h1v1H15zM16 7h1v1H16zM24 7h1v1H24zM25 7h1v1H25zM26 7h1v1H26zM8 8h1v1H8zM15 8h1v1H15zM16 8h1v1H16zM23 8h1v1H23zM7 9h1v1H7zM24 9h1v1H24zM6 10h1v1H6zM7 10h1v1H7zM16 10h1v1H16zM24 10h1v1H24zM25 10h1v1H25zM16 11h1v1H16zM17 11h1v1H17zM4 12h1v1H4zM15 12h1v1H15zM16 12h1v1H16zM27 12h1v1H27zM15 13h1v1H15zM16 13h1v1H16zM3 17h1v1H3zM4 17h1v1H4zM27 17h1v1H27zM28 17h1v1H28zM12 19h1v1H12zM19 19h1v1H19zM15 22h1v1H15zM16 22h1v1H16zM13 24h1v1H13zM18 24h1v1H18zM7 25h1v1H7zM13 25h1v1H13zM18 25h1v1H18zM24 25h1v1H24zM9 26h1v1H9zM14 26h1v1H14zM17 26h1v1H17zM22 26h1v1H22zM8 28h1v1H8zM15 28h1v1H15zM16 28h1v1H16zM23 28h1v1H23zM12 29h1v1H12zM19 29h1v1H19zM6 30h1v1H6zM25 30h1v1H25z"/><path fill="#9e3cd3" d="M8 7h1v1H8zM23 7h1v1H23zM7 19h1v1H7zM24 19h1v1H24zM8 23h1v1H8zM23 23h1v1H23z"/><path fill="#d0e757" d="M9 7h1v1H9zM22 7h1v1H22zM10 8h1v1H10zM21 8h1v1H21zM5 18h1v1H5zM7 18h1v1H7zM24 18h1v1H24zM26 18h1v1H26zM6 19h1v1H6zM25 19h1v1H25zM5 21h1v1H5zM26 21h1v1H26zM7 23h1v1H7zM24 23h1v1H24zM6 24h1v1H6zM9 24h1v1H9zM22 24h1v1H22zM25 24h1v1H25zM11 26h1v1H11zM20 26h1v1H20zM13 28h1v1H13zM18 28h1v1H18z"/><path fill="#f856fc" d="M12 7h1v1H12zM14 7h1v1H14zM17 7h1v1H17zM19 7h1v1H19zM11 8h1v1H11zM20 8h1v1H20zM5 9h1v1H5zM26 9h1v1H26zM4 14h1v1H4zM27 14h1v1H27zM3 19h1v1H3zM28 19h1v1H28zM9 22h1v1H9zM22 22h1v1H22z"/><path fill="#57731a" d="M9 8h1v1H9zM22 8h1v1H22zM10 10h1v1H10zM21 10h1v1H21zM11 11h1v1H11zM20 11h1v1H20zM12 12h1v1H12zM19 12h1v1H19zM6 17h1v1H6zM25 17h1v1H25zM5 19h1v1H5zM26 19h1v1H26zM6 20h1v1H6zM25 20h1v1H25zM10 25h1v1H10zM21 25h1v1H21zM3 26h1v1H3zM28 26h1v1H28zM3 27h1v1H3zM28 27h1v1H28zM10 29h1v1H10zM11 29h1v1H11zM15 29h1v1H15zM16 29h1v1H16zM20 29h1v1H20zM21 29h1v1H21z"/><path fill="#b6da34" d="M10 9h1v1H10zM21 9h1v1H21zM11 10h1v1H11zM20 10h1v1H20zM12 11h1v1H12zM19 11h1v1H19zM5 20h1v1H5zM26 20h1v1H26zM6 22h1v1H6zM25 22h1v1H25zM8 24h1v1H8zM10 24h1v1H10zM21 24h1v1H21zM23 24h1v1H23zM5 25h1v1H5zM6 25h1v1H6zM11 25h1v1H11zM20 25h1v1H20zM25 25h1v1H25zM26 25h1v1H26zM4 26h1v1H4zM27 26h1v1H27zM10 28h1v1H10zM14 28h1v1H14zM17 28h1v1H17zM21 28h1v1H21z"/><path fill="#fa82ff" d="M9 13h1v1H9zM22 13h1v1H22zM7 14h1v1H7zM24 14h1v1H24zM5 15h1v1H5zM7 15h1v1H7zM24 15h1v1H24zM26 15h1v1H26zM7 16h1v1H7zM8 16h1v1H8zM23 16h1v1H23zM24 16h1v1H24zM8 17h1v1H8zM23 17h1v1H23zM8 18h1v1H8zM23 18h1v1H23zM8 19h1v1H8zM23 19h1v1H23zM8 20h1v1H8zM23 20h1v1H23zM13 21h1v1H13zM18 21h1v1H18zM13 26h1v1H13zM18 26h1v1H18zM15 27h1v1H15zM16 27h1v1H16z"/><path fill="#da46e2" d="M11 13h1v1H11zM12 13h1v1H12zM19 13h1v1H19zM20 13h1v1H20zM9 14h1v1H9zM22 14h1v1H22zM8 15h1v1H8zM23 15h1v1H23zM10 18h1v1H10zM21 18h1v1H21zM15 19h1v1H15zM16 19h1v1H16zM12 20h1v1H12zM19 20h1v1H19zM8 21h1v1H8zM23 21h1v1H23z"/><path fill="#0d0c0c" d="M10 14h1v1H10zM11 14h1v1H11zM12 14h1v1H12zM19 14h1v1H19zM20 14h1v1H20zM21 14h1v1H21zM9 15h1v1H9zM10 15h1v1H10zM11 15h1v1H11zM12 15h1v1H12zM13 15h1v1H13zM18 15h1v1H18zM19 15h1v1H19zM20 15h1v1H20zM21 15h1v1H21zM22 15h1v1H22zM9 16h1v1H9zM14 16h1v1H14zM17 16h1v1H17zM22 16h1v1H22zM9 17h1v1H9zM14 17h1v1H14zM17 17h1v1H17zM22 17h1v1H22zM9 18h1v1H9zM14 18h1v1H14zM17 18h1v1H17zM22 18h1v1H22zM9 19h1v1H9zM14 19h1v1H14zM17 19h1v1H17zM22 19h1v1H22zM9 20h1v1H9zM14 20h1v1H14zM17 20h1v1H17zM22 20h1v1H22zM9 21h1v1H9zM10 21h1v1H10zM14 21h1v1H14zM17 21h1v1H17zM21 21h1v1H21zM22 21h1v1H22zM10 22h1v1H10zM11 22h1v1H11zM14 22h1v1H14zM17 22h1v1H17zM20 22h1v1H20zM21 22h1v1H21zM12 23h1v1H12zM13 23h1v1H13zM18 23h1v1H18zM19 23h1v1H19z"/><path fill="#000011" d="M13 16h1v1H13zM18 16h1v1H18zM12 17h1v1H12zM19 17h1v1H19zM12 18h1v1H12zM13 18h1v1H13zM18 18h1v1H18zM19 18h1v1H19zM13 19h1v1H13zM18 19h1v1H18z"/><path fill="#b9cf4f" d="M7 20h1v1H7zM24 20h1v1H24zM8 22h1v1H8zM23 22h1v1H23zM11 23h1v1H11zM20 23h1v1H20z"/><path fill="#c0d64e" d="M11 27h1v1H11zM12 27h1v1H12zM19 27h1v1H19zM20 27h1v1H20z"/></svg>
