<svg xmlns="http://www.w3.org/2000/svg" viewBox="0 0 32 32" shape-rendering="crispEdges"><path fill="#da8f44" d="M7 5h1v1H7zM24 5h1v1H24zM5 10h1v1H5zM26 10h1v1H26zM6 14h1v1H6zM25 14h1v1H25zM16 15h1v1H16zM15 16h1v1H15zM16 16h1v1H16zM17 16h1v1H17zM10 17h1v1H10zM14 17h1v1H14zM15 17h1v1H15zM16 17h1v1H16zM10 18h1v1H10zM14 18h1v1H14zM15 18h1v1H15zM10 19h1v1H10zM14 19h1v1H14zM15 19h1v1H15zM16 19h1v1H16zM14 20h1v1H14zM15 20h1v1H15zM16 20h1v1H16zM17 20h1v1H17zM27 20h1v1H27zM28 20h1v1H28zM13 21h1v1H13zM14 21h1v1H14zM15 21h1v1H15zM16 21h1v1H16zM17 21h1v1H17zM4 22h1v1H4zM6 22h1v1H6zM7 22h1v1H7zM15 22h1v1H15zM16 22h1v1H16zM17 22h1v1H17zM18 22h1v1H18zM19 22h1v1H19zM20 22h1v1H20zM25 22h1v1H25zM5 23h1v1H5zM26 23h1v1H26zM4 24h1v1H4zM16 25h1v1H16z"/><path fill="#ffea90" d="M8 5h1v1H8zM9 5h1v1H9zM10 5h1v1H10zM13 5h1v1H13zM14 5h1v1H14zM15 5h1v1H15zM16 5h1v1H16zM17 5h1v1H17zM20 5h1v1H20zM21 5h1v1H21zM17 6h1v1H17zM12 7h1v1H12zM23 7h1v1H23zM24 7h1v1H24zM6 8h1v1H6zM10 8h1v1H10zM11 8h1v1H11zM12 8h1v1H12zM15 8h1v1H15zM16 8h1v1H16zM23 8h1v1H23zM24 8h1v1H24zM25 8h1v1H25zM5 9h1v1H5zM8 9h1v1H8zM9 9h1v1H9zM10 9h1v1H10zM24 9h1v1H24zM25 9h1v1H25zM26 9h1v1H26zM13 10h1v1H13zM24 10h1v1H24zM5 11h1v1H5zM12 11h1v1H12zM13 11h1v1H13zM20 11h1v1H20zM26 11h1v1H26zM5 12h1v1H5zM13 12h1v1H13zM14 12h1v1H14zM20 12h1v1H20zM24 12h1v1H24zM26 12h1v1H26zM13 13h1v1H13zM16 13h1v1H16zM19 13h1v1H19z"/><path fill="#fffc9e" d="M11 5h1v1H11zM12 5h1v1H12zM18 5h1v1H18zM19 5h1v1H19zM22 5h1v1H22zM23 5h1v1H23zM6 6h1v1H6zM7 6h1v1H7zM8 6h1v1H8zM9 6h1v1H9zM10 6h1v1H10zM11 6h1v1H11zM12 6h1v1H12zM13 6h1v1H13zM14 6h1v1H14zM15 6h1v1H15zM16 6h1v1H16zM18 6h1v1H18zM19 6h1v1H19zM20 6h1v1H20zM21 6h1v1H21zM22 6h1v1H22zM23 6h1v1H23zM24 6h1v1H24zM25 6h1v1H25zM6 7h1v1H6zM7 7h1v1H7zM8 7h1v1H8zM9 7h1v1H9zM10 7h1v1H10zM11 7h1v1H11zM13 7h1v1H13zM14 7h1v1H14zM15 7h1v1H15zM16 7h1v1H16zM17 7h1v1H17zM18 7h1v1H18zM19 7h1v1H19zM20 7h1v1H20zM21 7h1v1H21zM22 7h1v1H22zM25 7h1v1H25zM7 8h1v1H7zM8 8h1v1H8zM9 8h1v1H9zM13 8h1v1H13zM14 8h1v1H14zM17 8h1v1H17zM18 8h1v1H18zM19 8h1v1H19zM20 8h1v1H20zM11 9h1v1H11zM12 9h1v1H12zM13 9h1v1H13zM14 9h1v1H14zM15 9h1v1H15zM16 9h1v1H16zM17 9h1v1H17zM18 9h1v1H18zM19 9h1v1H19zM20 9h1v1H20zM21 9h1v1H21zM6 10h1v1H6zM9 10h1v1H9zM10 10h1v1H10zM11 10h1v1H11zM12 10h1v1H12zM14 10h1v1H14zM15 10h1v1H15zM16 10h1v1H16zM17 10h1v1H17zM18 10h1v1H18zM19 10h1v1H19zM20 10h1v1H20zM21 10h1v1H21zM22 10h1v1H22zM23 10h1v1H23zM25 10h1v1H25zM7 11h1v1H7zM8 11h1v1H8zM9 11h1v1H9zM10 11h1v1H10zM11 11h1v1H11zM14 11h1v1H14zM15 11h1v1H15zM16 11h1v1H16zM17 11h1v1H17zM18 11h1v1H18zM19 11h1v1H19zM21 11h1v1H21zM22 11h1v1H22zM23 11h1v1H23zM24 11h1v1H24zM6 12h1v1H6zM7 12h1v1H7zM8 12h1v1H8zM9 12h1v1H9zM10 12h1v1H10zM11 12h1v1H11zM12 12h1v1H12zM15 12h1v1H15zM16 12h1v1H16zM17 12h1v1H17zM18 12h1v1H18zM19 12h1v1H19zM21 12h1v1H21zM22 12h1v1H22zM23 12h1v1H23zM25 12h1v1H25zM5 13h1v1H5zM6 13h1v1H6zM7 13h1v1H7zM8 13h1v1H8zM9 13h1v1H9zM10 13h1v1H10zM11 13h1v1H11zM12 13h1v1H12zM14 13h1v1H14zM15 13h1v1H15zM17 13h1v1H17zM18 13h1v1H18zM20 13h1v1H20zM21 13h1v1H21zM22 13h1v1H22zM23 13h1v1H23zM24 13h1v1H24zM25 13h1v1H25zM26 13h1v1H26zM5 14h1v1H5zM8 14h1v1H8zM9 14h1v1H9zM10 14h1v1H10zM11 14h1v1H11zM14 14h1v1H14zM15 14h1v1H15zM19 14h1v1H19zM21 14h1v1H21zM23 14h1v1H23zM24 14h1v1H24zM26 14h1v1H26zM6 15h1v1H6zM14 15h1v1H14zM19 15h1v1H19zM7 16h1v1H7zM8 16h1v1H8zM11 16h1v1H11zM21 16h1v1H21zM24 16h1v1H24zM7 17h1v1H7zM8 17h1v1H8zM5 18h1v1H5zM7 19h1v1H7z"/><path fill="#f2c56d" d="M5 8h1v1H5zM21 8h1v1H21zM22 8h1v1H22zM26 8h1v1H26zM6 9h1v1H6zM7 9h1v1H7zM22 9h1v1H22zM23 9h1v1H23zM7 10h1v1H7zM8 10h1v1H8zM7 14h1v1H7zM12 14h1v1H12zM13 14h1v1H13zM16 14h1v1H16zM17 14h1v1H17zM18 14h1v1H18zM20 14h1v1H20zM22 14h1v1H22zM7 15h1v1H7zM8 15h1v1H8zM9 15h1v1H9zM10 15h1v1H10zM11 15h1v1H11zM12 15h1v1H12zM13 15h1v1H13zM15 15h1v1H15zM17 15h1v1H17zM18 15h1v1H18zM20 15h1v1H20zM21 15h1v1H21zM22 15h1v1H22zM23 15h1v1H23zM24 15h1v1H24zM25 15h1v1H25zM6 16h1v1H6zM9 16h1v1H9zM10 16h1v1H10zM12 16h1v1H12zM13 16h1v1H13zM18 16h1v1H18zM19 16h1v1H19zM20 16h1v1H20zM23 16h1v1H23zM25 16h1v1H25zM6 17h1v1H6zM11 17h1v1H11zM17 17h1v1H17zM20 17h1v1H20zM23 17h1v1H23zM24 17h1v1H24zM25 17h1v1H25zM6 18h1v1H6zM7 18h1v1H7zM8 18h1v1H8zM9 18h1v1H9zM16 18h1v1H16zM17 18h1v1H17zM21 18h1v1H21zM25 18h1v1H25zM26 18h1v1H26zM5 19h1v1H5zM6 19h1v1H6zM8 19h1v1H8zM17 19h1v1H17zM21 19h1v1H21zM24 19h1v1H24zM25 19h1v1H25zM26 19h1v1H26zM27 19h1v1H27zM4 20h1v1H4zM5 20h1v1H5zM6 20h1v1H6zM7 20h1v1H7zM8 20h1v1H8zM9 20h1v1H9zM10 20h1v1H10zM23 20h1v1H23zM24 20h1v1H24zM25 20h1v1H25zM26 20h1v1H26zM3 21h1v1H3zM4 21h1v1H4zM5 21h1v1H5zM6 21h1v1H6zM8 21h1v1H8zM9 21h1v1H9zM10 21h1v1H10zM11 21h1v1H11zM12 21h1v1H12zM19 21h1v1H19zM20 21h1v1H20zM25 21h1v1H25zM26 21h1v1H26zM27 21h1v1H27zM3 22h1v1H3zM5 22h1v1H5zM8 22h1v1H8zM9 22h1v1H9zM10 22h1v1H10zM11 22h1v1H11zM12 22h1v1H12zM26 22h1v1H26zM4 23h1v1H4zM9 23h1v1H9zM10 23h1v1H10zM11 23h1v1H11zM12 23h1v1H12zM13 23h1v1H13zM14 23h1v1H14zM17 23h1v1H17zM18 23h1v1H18zM19 23h1v1H19zM20 23h1v1H20zM9 24h1v1H9zM10 24h1v1H10zM11 24h1v1H11zM12 24h1v1H12zM13 24h1v1H13zM14 24h1v1H14zM16 24h1v1H16zM17 24h1v1H17zM18 24h1v1H18zM19 24h1v1H19zM20 24h1v1H20zM11 25h1v1H11zM12 25h1v1H12zM13 25h1v1H13zM17 25h1v1H17zM18 25h1v1H18zM19 25h1v1H19z"/><path fill="#fff397" d="M6 11h1v1H6zM25 11h1v1H25z"/><path fill="#bb6f24" d="M5 15h1v1H5zM26 15h1v1H26zM5 16h1v1H5zM26 16h1v1H26zM5 17h1v1H5zM26 17h1v1H26zM28 23h1v1H28zM6 25h1v1H6zM7 25h1v1H7zM8 25h1v1H8zM9 25h1v1H9zM14 25h1v1H14zM15 25h1v1H15zM22 25h1v1H22zM23 25h1v1H23zM24 25h1v1H24zM25 25h1v1H25zM3 26h1v1H3zM7 26h1v1H7zM8 26h1v1H8zM9 26h1v1H9zM10 26h1v1H10zM11 26h1v1H11zM12 26h1v1H12zM13 26h1v1H13zM14 26h1v1H14zM15 26h1v1H15zM16 26h1v1H16zM17 26h1v1H17zM18 26h1v1H18zM19 26h1v1H19zM20 26h1v1H20zM21 26h1v1H21zM22 26h1v1H22zM23 26h1v1H23zM24 26h1v1H24z"/><path fill="#e6aa59" d="M14 16h1v1H14zM9 17h1v1H9zM9 19h1v1H9zM13 22h1v1H13zM14 22h1v1H14z"/><path fill="#cd7d2e" d="M22 16h1v1H22zM22 17h1v1H22zM22 18h1v1H22zM23 18h1v1H23zM22 19h1v1H22zM23 19h1v1H23zM22 20h1v1H22zM21 21h1v1H21zM22 21h1v1H22zM23 21h1v1H23zM21 22h1v1H21zM22 22h1v1H22zM23 22h1v1H23zM24 22h1v1H24zM7 23h1v1H7zM8 23h1v1H8zM15 23h1v1H15zM16 23h1v1H16zM22 23h1v1H22zM23 23h1v1H23zM24 23h1v1H24zM6 24h1v1H6zM7 24h1v1H7zM8 24h1v1H8zM15 24h1v1H15zM21 24h1v1H21zM22 24h1v1H22zM23 24h1v1H23zM24 24h1v1H24zM25 24h1v1H25zM20 25h1v1H20z"/><path fill="#ffffff" d="M12 17h1v1H12zM18 17h1v1H18zM11 18h1v1H11zM13 18h1v1H13zM19 18h1v1H19zM20 18h1v1H20zM11 19h1v1H11zM20 19h1v1H20zM11 20h1v1H11zM20 20h1v1H20z"/><path fill="#0e0e14" d="M13 17h1v1H13zM19 17h1v1H19zM12 18h1v1H12zM18 18h1v1H18zM12 19h1v1H12zM13 19h1v1H13zM18 19h1v1H18zM19 19h1v1H19zM12 20h1v1H12zM13 20h1v1H13zM18 20h1v1H18zM19 20h1v1H19z"/><path fill="#d5883b" d="M21 17h1v1H21zM24 18h1v1H24zM21 20h1v1H21z"/><path fill="#e5a958" d="M7 21h1v1H7zM18 21h1v1H18zM24 21h1v1H24z"/><path fill="#d48639" d="M6 23h1v1H6zM21 23h1v1H21zM25 23h1v1H25z"/><path fill="#955413" d="M5 24h1v1H5zM26 24h1v1H26z"/><path fill="#c37529" d="M10 25h1v1H10zM21 25h1v1H21z"/></svg>
