<svg xmlns="http://www.w3.org/2000/svg" viewBox="0 0 32 32" shape-rendering="crispEdges"><path fill="#ac0617" d="M7 1h1v1H7zM24 1h1v1H24zM2 3h1v1H2zM10 3h1v1H10zM21 3h1v1H21zM29 3h1v1H29zM5 4h1v1H5zM12 4h1v1H12zM19 4h1v1H19zM26 4h1v1H26zM7 5h1v1H7zM8 5h1v1H8zM11 5h1v1H11zM12 5h1v1H12zM13 5h1v1H13zM14 5h1v1H14zM15 5h1v1H15zM16 5h1v1H16zM17 5h1v1H17zM18 5h1v1H18zM19 5h1v1H19zM20 5h1v1H20zM23 5h1v1H23zM24 5h1v1H24zM4 6h1v1H4zM5 6h1v1H5zM8 6h1v1H8zM13 6h1v1H13zM18 6h1v1H18zM23 6h1v1H23zM26 6h1v1H26zM27 6h1v1H27zM5 7h1v1H5zM6 7h1v1H6zM25 7h1v1H25zM26 7h1v1H26zM5 8h1v1H5zM6 8h1v1H6zM25 8h1v1H25zM26 8h1v1H26zM4 9h1v1H4zM5 9h1v1H5zM26 9h1v1H26zM27 9h1v1H27zM1 10h1v1H1zM30 10h1v1H30zM5 11h1v1H5zM6 11h1v1H6zM25 11h1v1H25zM26 11h1v1H26zM7 12h1v1H7z"/><path fill="#ce0a1f" d="M7 2h1v1H7zM8 2h1v1H8zM23 2h1v1H23zM24 2h1v1H24zM3 3h1v1H3zM8 3h1v1H8zM9 3h1v1H9zM22 3h1v1H22zM23 3h1v1H23zM28 3h1v1H28zM3 4h1v1H3zM4 4h1v1H4zM8 4h1v1H8zM9 4h1v1H9zM10 4h1v1H10zM11 4h1v1H11zM20 4h1v1H20zM21 4h1v1H21zM22 4h1v1H22zM23 4h1v1H23zM27 4h1v1H27zM28 4h1v1H28zM4 5h1v1H4zM5 5h1v1H5zM6 5h1v1H6zM9 5h1v1H9zM10 5h1v1H10zM21 5h1v1H21zM22 5h1v1H22zM25 5h1v1H25zM26 5h1v1H26zM27 5h1v1H27zM6 6h1v1H6zM7 6h1v1H7zM9 6h1v1H9zM10 6h1v1H10zM11 6h1v1H11zM12 6h1v1H12zM14 6h1v1H14zM15 6h1v1H15zM16 6h1v1H16zM17 6h1v1H17zM19 6h1v1H19zM20 6h1v1H20zM21 6h1v1H21zM22 6h1v1H22zM24 6h1v1H24zM25 6h1v1H25zM7 7h1v1H7zM8 7h1v1H8zM9 7h1v1H9zM10 7h1v1H10zM12 7h1v1H12zM13 7h1v1H13zM14 7h1v1H14zM15 7h1v1H15zM16 7h1v1H16zM17 7h1v1H17zM18 7h1v1H18zM19 7h1v1H19zM21 7h1v1H21zM22 7h1v1H22zM23 7h1v1H23zM24 7h1v1H24zM7 8h1v1H7zM8 8h1v1H8zM9 8h1v1H9zM13 8h1v1H13zM14 8h1v1H14zM15 8h1v1H15zM16 8h1v1H16zM17 8h1v1H17zM18 8h1v1H18zM22 8h1v1H22zM23 8h1v1H23zM24 8h1v1H24zM3 9h1v1H3zM6 9h1v1H6zM7 9h1v1H7zM24 9h1v1H24zM25 9h1v1H25zM28 9h1v1H28zM2 10h1v1H2zM3 10h1v1H3zM4 10h1v1H4zM5 10h1v1H5zM6 10h1v1H6zM7 10h1v1H7zM8 10h1v1H8zM9 10h1v1H9zM10 10h1v1H10zM21 10h1v1H21zM22 10h1v1H22zM23 10h1v1H23zM24 10h1v1H24zM25 10h1v1H25zM26 10h1v1H26zM27 10h1v1H27zM28 10h1v1H28zM29 10h1v1H29zM4 11h1v1H4zM7 11h1v1H7zM8 11h1v1H8zM14 11h1v1H14zM15 11h1v1H15zM16 11h1v1H16zM17 11h1v1H17zM18 11h1v1H18zM23 11h1v1H23zM24 11h1v1H24zM27 11h1v1H27zM8 12h1v1H8zM9 12h1v1H9zM10 12h1v1H10zM11 12h1v1H11zM12 12h1v1H12zM13 12h1v1H13zM14 12h1v1H14zM15 12h1v1H15zM16 12h1v1H16zM17 12h1v1H17zM18 12h1v1H18zM19 12h1v1H19zM20 12h1v1H20zM21 12h1v1H21zM22 12h1v1H22zM23 12h1v1H23zM24 12h1v1H24zM7 13h1v1H7zM10 13h1v1H10zM11 13h1v1H11zM16 13h1v1H16zM20 13h1v1H20zM21 13h1v1H21zM24 13h1v1H24zM7 14h1v1H7zM8 14h1v1H8zM9 14h1v1H9zM22 14h1v1H22zM23 14h1v1H23zM24 14h1v1H24zM27 14h1v1H27zM8 15h1v1H8zM12 15h1v1H12zM13 15h1v1H13zM19 15h1v1H19zM23 15h1v1H23zM28 15h1v1H28zM8 16h1v1H8zM10 16h1v1H10zM16 16h1v1H16zM23 16h1v1H23zM27 16h1v1H27zM28 16h1v1H28zM8 17h1v1H8zM10 17h1v1H10zM16 17h1v1H16zM21 17h1v1H21zM22 17h1v1H22zM23 17h1v1H23zM24 17h1v1H24zM27 17h1v1H27zM28 17h1v1H28zM8 18h1v1H8zM10 18h1v1H10zM21 18h1v1H21zM22 18h1v1H22zM23 18h1v1H23zM24 18h1v1H24zM27 18h1v1H27zM7 19h1v1H7zM8 19h1v1H8zM9 19h1v1H9zM10 19h1v1H10zM16 19h1v1H16zM21 19h1v1H21zM23 19h1v1H23zM7 20h1v1H7zM8 20h1v1H8zM9 20h1v1H9zM10 20h1v1H10zM21 20h1v1H21zM28 20h1v1H28zM8 21h1v1H8zM10 21h1v1H10zM21 21h1v1H21zM21 22h1v1H21zM22 22h1v1H22zM10 23h1v1H10zM21 23h1v1H21zM22 23h1v1H22zM21 25h1v1H21zM8 27h1v1H8zM11 27h1v1H11zM12 27h1v1H12zM22 27h1v1H22zM23 27h1v1H23z"/><path fill="#eb0d25" d="M11 7h1v1H11zM20 7h1v1H20zM10 8h1v1H10zM11 8h1v1H11zM12 8h1v1H12zM19 8h1v1H19zM20 8h1v1H20zM21 8h1v1H21zM8 9h1v1H8zM9 9h1v1H9zM10 9h1v1H10zM11 9h1v1H11zM12 9h1v1H12zM13 9h1v1H13zM14 9h1v1H14zM15 9h1v1H15zM16 9h1v1H16zM17 9h1v1H17zM18 9h1v1H18zM19 9h1v1H19zM20 9h1v1H20zM21 9h1v1H21zM22 9h1v1H22zM23 9h1v1H23zM11 10h1v1H11zM12 10h1v1H12zM13 10h1v1H13zM14 10h1v1H14zM15 10h1v1H15zM16 10h1v1H16zM17 10h1v1H17zM18 10h1v1H18zM19 10h1v1H19zM20 10h1v1H20zM9 11h1v1H9zM10 11h1v1H10zM11 11h1v1H11zM12 11h1v1H12zM13 11h1v1H13zM19 11h1v1H19zM20 11h1v1H20zM21 11h1v1H21zM22 11h1v1H22z"/><path fill="#ff041f" d="M6 12h1v1H6zM25 12h1v1H25zM8 13h1v1H8zM9 13h1v1H9zM12 13h1v1H12zM13 13h1v1H13zM14 13h1v1H14zM15 13h1v1H15zM17 13h1v1H17zM18 13h1v1H18zM19 13h1v1H19zM22 13h1v1H22zM23 13h1v1H23zM11 14h1v1H11zM12 14h1v1H12zM13 14h1v1H13zM14 14h1v1H14zM15 14h1v1H15zM16 14h1v1H16zM17 14h1v1H17zM18 14h1v1H18zM19 14h1v1H19zM20 14h1v1H20zM21 14h1v1H21zM14 15h1v1H14zM18 15h1v1H18zM14 16h1v1H14z"/><path fill="#bc110f" d="M6 13h1v1H6z"/><path fill="#4d0508" d="M25 13h1v1H25zM6 25h1v1H6zM25 25h1v1H25zM15 27h1v1H15zM16 27h1v1H16zM17 27h1v1H17zM18 27h1v1H18zM16 28h1v1H16z"/><path fill="#9c101f" d="M4 14h1v1H4zM3 15h1v1H3zM4 15h1v1H4zM6 15h1v1H6zM10 15h1v1H10zM11 15h1v1H11zM15 15h1v1H15zM17 15h1v1H17zM20 15h1v1H20zM21 15h1v1H21zM22 15h1v1H22zM24 15h1v1H24zM25 15h1v1H25zM3 16h1v1H3zM6 16h1v1H6zM7 16h1v1H7zM9 16h1v1H9zM11 16h1v1H11zM12 16h1v1H12zM13 16h1v1H13zM15 16h1v1H15zM17 16h1v1H17zM18 16h1v1H18zM19 16h1v1H19zM20 16h1v1H20zM21 16h1v1H21zM25 16h1v1H25zM6 17h1v1H6zM7 17h1v1H7zM9 17h1v1H9zM11 17h1v1H11zM14 17h1v1H14zM15 17h1v1H15zM17 17h1v1H17zM20 17h1v1H20zM25 17h1v1H25zM3 18h1v1H3zM6 18h1v1H6zM14 18h1v1H14zM15 18h1v1H15zM16 18h1v1H16zM17 18h1v1H17zM25 18h1v1H25zM6 19h1v1H6zM14 19h1v1H14zM15 19h1v1H15zM17 19h1v1H17zM22 19h1v1H22zM24 19h1v1H24zM25 19h1v1H25zM6 20h1v1H6zM14 20h1v1H14zM15 20h1v1H15zM16 20h1v1H16zM17 20h1v1H17zM22 20h1v1H22zM23 20h1v1H23zM24 20h1v1H24zM25 20h1v1H25zM6 21h1v1H6zM7 21h1v1H7zM9 21h1v1H9zM14 21h1v1H14zM15 21h1v1H15zM16 21h1v1H16zM17 21h1v1H17zM22 21h1v1H22zM23 21h1v1H23zM24 21h1v1H24zM25 21h1v1H25zM6 22h1v1H6zM7 22h1v1H7zM8 22h1v1H8zM9 22h1v1H9zM10 22h1v1H10zM11 22h1v1H11zM12 22h1v1H12zM13 22h1v1H13zM14 22h1v1H14zM15 22h1v1H15zM16 22h1v1H16zM17 22h1v1H17zM18 22h1v1H18zM19 22h1v1H19zM20 22h1v1H20zM23 22h1v1H23zM24 22h1v1H24zM25 22h1v1H25zM6 23h1v1H6zM7 23h1v1H7zM8 23h1v1H8zM9 23h1v1H9zM11 23h1v1H11zM12 23h1v1H12zM13 23h1v1H13zM14 23h1v1H14zM15 23h1v1H15zM16 23h1v1H16zM17 23h1v1H17zM18 23h1v1H18zM19 23h1v1H19zM20 23h1v1H20zM23 23h1v1H23zM24 23h1v1H24zM25 23h1v1H25zM7 24h1v1H7zM8 24h1v1H8zM9 24h1v1H9zM10 24h1v1H10zM11 24h1v1H11zM12 24h1v1H12zM13 24h1v1H13zM14 24h1v1H14zM15 24h1v1H15zM16 24h1v1H16zM17 24h1v1H17zM18 24h1v1H18zM19 24h1v1H19zM20 24h1v1H20zM21 24h1v1H21zM22 24h1v1H22zM23 24h1v1H23zM24 24h1v1H24zM7 25h1v1H7zM8 25h1v1H8zM9 25h1v1H9zM10 25h1v1H10zM11 25h1v1H11zM12 25h1v1H12zM13 25h1v1H13zM14 25h1v1H14zM15 25h1v1H15zM16 25h1v1H16zM17 25h1v1H17zM18 25h1v1H18zM19 25h1v1H19zM20 25h1v1H20zM22 25h1v1H22zM23 25h1v1H23zM24 25h1v1H24zM7 26h1v1H7zM8 26h1v1H8zM9 26h1v1H9zM10 26h1v1H10zM11 26h1v1H11zM12 26h1v1H12zM13 26h1v1H13zM14 26h1v1H14zM15 26h1v1H15zM16 26h1v1H16zM17 26h1v1H17zM18 26h1v1H18zM19 26h1v1H19zM20 26h1v1H20zM21 26h1v1H21zM22 26h1v1H22zM23 26h1v1H23zM24 26h1v1H24zM8 28h1v1H8zM11 28h1v1H11zM12 28h1v1H12zM22 28h1v1H22zM23 28h1v1H23zM11 29h1v1H11zM12 29h1v1H12zM23 29h1v1H23zM11 30h1v1H11z"/><path fill="#700c19" d="M6 14h1v1H6zM10 14h1v1H10zM25 14h1v1H25zM7 15h1v1H7zM9 15h1v1H9zM16 15h1v1H16zM22 16h1v1H22zM24 16h1v1H24zM7 18h1v1H7zM9 18h1v1H9zM11 21h1v1H11zM12 21h1v1H12zM13 21h1v1H13zM18 21h1v1H18zM19 21h1v1H19zM20 21h1v1H20zM7 27h1v1H7zM10 27h1v1H10zM13 27h1v1H13zM21 27h1v1H21zM24 27h1v1H24z"/><path fill="#ffffff" d="M12 17h1v1H12zM18 17h1v1H18zM11 18h1v1H11zM13 18h1v1H13zM19 18h1v1H19zM20 18h1v1H20zM11 19h1v1H11zM20 19h1v1H20zM11 20h1v1H11zM20 20h1v1H20z"/><path fill="#0e0e14" d="M13 17h1v1H13zM19 17h1v1H19zM12 18h1v1H12zM18 18h1v1H18zM12 19h1v1H12zM13 19h1v1H13zM18 19h1v1H18zM19 19h1v1H19zM12 20h1v1H12zM13 20h1v1H13zM18 20h1v1H18zM19 20h1v1H19z"/><path fill="#ae1315" d="M6 24h1v1H6zM25 24h1v1H25z"/></svg>
