<svg xmlns="http://www.w3.org/2000/svg" viewBox="0 0 32 32" shape-rendering="crispEdges"><path fill="#4f0412" d="M14 2h1v1H14zM15 2h1v1H15zM14 3h1v1H14zM15 9h1v1H15zM15 10h1v1H15zM16 10h1v1H16z"/><path fill="#33300b" d="M21 2h1v1H21zM22 2h1v1H22zM23 2h1v1H23zM24 2h1v1H24zM25 2h1v1H25zM19 3h1v1H19zM20 3h1v1H20zM25 3h1v1H25zM18 4h1v1H18zM25 4h1v1H25zM17 5h1v1H17z"/><path fill="#620529" d="M15 3h1v1H15zM15 4h1v1H15zM15 5h1v1H15zM16 5h1v1H16zM15 6h1v1H15zM16 6h1v1H16zM15 7h1v1H15zM16 7h1v1H16zM16 8h1v1H16zM16 9h1v1H16z"/><path fill="#568821" d="M21 3h1v1H21zM22 3h1v1H22zM19 4h1v1H19zM20 4h1v1H20zM21 4h1v1H21zM18 5h1v1H18zM19 5h1v1H19zM22 5h1v1H22zM20 6h1v1H20zM21 6h1v1H21zM18 7h1v1H18zM17 8h1v1H17z"/><path fill="#2d3e10" d="M23 3h1v1H23zM24 3h1v1H24zM17 7h1v1H17z"/><path fill="#366905" d="M22 4h1v1H22zM23 4h1v1H23zM24 4h1v1H24zM20 5h1v1H20zM21 5h1v1H21zM17 6h1v1H17zM18 6h1v1H18zM19 6h1v1H19z"/><path fill="#ff5009" d="M7 5h1v1H7z"/><path fill="#ed1d04" d="M8 5h1v1H8zM10 5h1v1H10zM11 5h1v1H11zM12 5h1v1H12zM13 5h1v1H13zM14 5h1v1H14zM7 6h1v1H7zM11 6h1v1H11zM12 6h1v1H12zM23 6h1v1H23zM24 6h1v1H24zM7 7h1v1H7zM21 7h1v1H21zM22 7h1v1H22zM7 8h1v1H7zM22 8h1v1H22zM23 8h1v1H23zM24 8h1v1H24zM8 9h1v1H8zM9 9h1v1H9zM10 9h1v1H10zM11 9h1v1H11zM17 9h1v1H17zM20 9h1v1H20zM21 9h1v1H21zM24 9h1v1H24zM7 10h1v1H7zM8 10h1v1H8zM11 10h1v1H11zM12 10h1v1H12zM13 10h1v1H13zM18 10h1v1H18zM19 10h1v1H19zM24 10h1v1H24zM7 11h1v1H7zM8 11h1v1H8zM14 11h1v1H14zM17 11h1v1H17zM18 11h1v1H18zM19 11h1v1H19zM23 11h1v1H23zM24 11h1v1H24zM7 12h1v1H7zM8 12h1v1H8zM9 12h1v1H9zM14 12h1v1H14zM17 12h1v1H17zM18 12h1v1H18zM19 12h1v1H19zM20 12h1v1H20zM21 12h1v1H21zM22 12h1v1H22zM23 12h1v1H23zM24 12h1v1H24zM7 13h1v1H7zM10 13h1v1H10zM11 13h1v1H11zM20 13h1v1H20zM21 13h1v1H21zM24 13h1v1H24zM3 14h1v1H3zM28 14h1v1H28zM3 15h1v1H3zM4 15h1v1H4zM9 15h1v1H9zM10 15h1v1H10zM11 15h1v1H11zM19 15h1v1H19zM20 15h1v1H20zM21 15h1v1H21zM22 15h1v1H22zM27 15h1v1H27zM3 16h1v1H3zM18 16h1v1H18zM19 16h1v1H19zM20 16h1v1H20zM21 16h1v1H21zM28 16h1v1H28zM3 17h1v1H3zM7 17h1v1H7zM20 17h1v1H20zM24 17h1v1H24zM28 17h1v1H28zM7 18h1v1H7zM8 18h1v1H8zM4 19h1v1H4zM5 19h1v1H5zM6 19h1v1H6zM7 19h1v1H7zM26 19h1v1H26zM27 19h1v1H27zM3 20h1v1H3zM28 20h1v1H28zM19 21h1v1H19zM20 21h1v1H20zM21 21h1v1H21zM9 22h1v1H9zM19 22h1v1H19zM20 22h1v1H20zM21 22h1v1H21zM9 23h1v1H9zM10 23h1v1H10zM19 23h1v1H19zM20 23h1v1H20zM21 23h1v1H21zM22 23h1v1H22zM10 24h1v1H10zM11 24h1v1H11zM19 24h1v1H19zM20 24h1v1H20zM21 24h1v1H21z"/><path fill="#ffedcf" d="M9 5h1v1H9zM8 6h1v1H8zM9 6h1v1H9zM10 6h1v1H10zM8 7h1v1H8zM9 7h1v1H9z"/><path fill="#7da124" d="M23 5h1v1H23zM22 6h1v1H22z"/><path fill="#ffc40f" d="M24 5h1v1H24zM19 7h1v1H19zM18 8h1v1H18zM8 14h1v1H8zM23 14h1v1H23zM5 15h1v1H5zM7 15h1v1H7zM24 15h1v1H24zM26 15h1v1H26zM4 16h1v1H4zM5 16h1v1H5zM8 16h1v1H8zM9 16h1v1H9zM22 16h1v1H22zM23 16h1v1H23zM26 16h1v1H26zM27 16h1v1H27zM4 17h1v1H4zM5 17h1v1H5zM8 17h1v1H8zM23 17h1v1H23zM26 17h1v1H26zM27 17h1v1H27zM4 18h1v1H4zM5 18h1v1H5zM9 18h1v1H9zM10 18h1v1H10zM21 18h1v1H21zM22 18h1v1H22zM25 18h1v1H25zM26 18h1v1H26zM27 18h1v1H27zM3 19h1v1H3zM9 19h1v1H9zM10 19h1v1H10zM21 19h1v1H21zM22 19h1v1H22zM25 19h1v1H25zM28 19h1v1H28zM5 20h1v1H5zM7 20h1v1H7zM24 20h1v1H24zM26 20h1v1H26zM4 21h1v1H4zM7 21h1v1H7zM24 21h1v1H24zM27 21h1v1H27zM5 22h1v1H5zM6 22h1v1H6zM7 22h1v1H7zM8 22h1v1H8zM23 22h1v1H23zM24 22h1v1H24zM25 22h1v1H25zM26 22h1v1H26zM5 23h1v1H5zM14 23h1v1H14zM17 23h1v1H17zM26 23h1v1H26zM14 24h1v1H14zM15 24h1v1H15zM16 24h1v1H16zM17 24h1v1H17zM9 25h1v1H9zM12 25h1v1H12zM13 25h1v1H13zM14 25h1v1H14zM15 25h1v1H15zM16 25h1v1H16zM17 25h1v1H17zM18 25h1v1H18zM19 25h1v1H19zM22 25h1v1H22zM8 26h1v1H8zM9 26h1v1H9zM12 26h1v1H12zM13 26h1v1H13zM14 26h1v1H14zM15 26h1v1H15zM16 26h1v1H16zM17 26h1v1H17zM18 26h1v1H18zM19 26h1v1H19zM22 26h1v1H22zM23 26h1v1H23zM10 27h1v1H10zM11 27h1v1H11zM12 27h1v1H12zM13 27h1v1H13zM15 27h1v1H15zM16 27h1v1H16zM18 27h1v1H18zM19 27h1v1H19zM20 27h1v1H20zM21 27h1v1H21zM12 28h1v1H12zM13 28h1v1H13zM18 28h1v1H18zM19 28h1v1H19z"/><path fill="#ffe446" d="M6 6h1v1H6zM25 6h1v1H25zM6 7h1v1H6zM25 7h1v1H25zM6 8h1v1H6zM25 8h1v1H25zM6 9h1v1H6zM25 9h1v1H25zM6 11h1v1H6zM25 11h1v1H25zM6 12h1v1H6zM25 12h1v1H25z"/><path fill="#9a0706" d="M13 6h1v1H13zM14 6h1v1H14zM10 7h1v1H10zM11 7h1v1H11zM12 7h1v1H12zM13 7h1v1H13zM14 7h1v1H14zM23 7h1v1H23zM24 7h1v1H24zM8 8h1v1H8zM9 8h1v1H9zM10 8h1v1H10zM11 8h1v1H11zM20 8h1v1H20zM21 8h1v1H21z"/><path fill="#ff781a" d="M20 7h1v1H20z"/><path fill="#70030b" d="M12 8h1v1H12zM13 8h1v1H13zM14 8h1v1H14zM15 8h1v1H15zM19 8h1v1H19zM12 9h1v1H12zM13 9h1v1H13zM14 9h1v1H14zM18 9h1v1H18zM19 9h1v1H19zM14 10h1v1H14zM17 10h1v1H17z"/><path fill="#ff4c1f" d="M7 9h1v1H7z"/><path fill="#ff7f3d" d="M22 9h1v1H22zM23 9h1v1H23zM9 10h1v1H9zM10 10h1v1H10zM20 10h1v1H20zM23 10h1v1H23zM9 11h1v1H9zM20 11h1v1H20z"/><path fill="#ffffff" d="M6 10h1v1H6zM25 10h1v1H25zM6 13h1v1H6zM8 13h1v1H8zM9 13h1v1H9zM12 13h1v1H12zM13 13h1v1H13zM14 13h1v1H14zM15 13h1v1H15zM16 13h1v1H16zM17 13h1v1H17zM18 13h1v1H18zM19 13h1v1H19zM22 13h1v1H22zM23 13h1v1H23zM25 13h1v1H25zM6 14h1v1H6zM25 14h1v1H25zM9 17h1v1H9zM12 17h1v1H12zM18 17h1v1H18zM22 17h1v1H22zM11 18h1v1H11zM13 18h1v1H13zM19 18h1v1H19zM20 18h1v1H20zM11 19h1v1H11zM20 19h1v1H20zM8 20h1v1H8zM9 20h1v1H9zM11 20h1v1H11zM20 20h1v1H20zM22 20h1v1H22zM23 20h1v1H23zM5 21h1v1H5zM8 21h1v1H8zM9 21h1v1H9zM22 21h1v1H22zM23 21h1v1H23zM26 21h1v1H26zM6 23h1v1H6zM7 23h1v1H7zM8 23h1v1H8zM15 23h1v1H15zM16 23h1v1H16zM23 23h1v1H23zM24 23h1v1H24zM25 23h1v1H25zM6 24h1v1H6zM7 24h1v1H7zM8 24h1v1H8zM23 24h1v1H23zM24 24h1v1H24zM25 24h1v1H25zM7 25h1v1H7zM8 25h1v1H8zM10 25h1v1H10zM11 25h1v1H11zM20 25h1v1H20zM21 25h1v1H21zM23 25h1v1H23zM24 25h1v1H24zM10 26h1v1H10zM11 26h1v1H11zM20 26h1v1H20zM21 26h1v1H21z"/><path fill="#ffdba4" d="M21 10h1v1H21zM22 10h1v1H22zM10 11h1v1H10zM11 11h1v1H11zM21 11h1v1H21zM22 11h1v1H22zM10 12h1v1H10zM11 12h1v1H11z"/><path fill="#ff8924" d="M12 11h1v1H12zM13 11h1v1H13zM15 11h1v1H15zM16 11h1v1H16z"/><path fill="#ffa328" d="M12 12h1v1H12zM13 12h1v1H13zM15 12h1v1H15zM16 12h1v1H16z"/><path fill="#da0500" d="M7 14h1v1H7zM24 14h1v1H24zM6 15h1v1H6zM25 15h1v1H25z"/><path fill="#8c0204" d="M9 14h1v1H9zM10 14h1v1H10zM11 14h1v1H11zM12 14h1v1H12zM13 14h1v1H13zM18 14h1v1H18zM19 14h1v1H19zM20 14h1v1H20zM21 14h1v1H21zM22 14h1v1H22zM8 15h1v1H8zM23 15h1v1H23zM6 16h1v1H6zM25 16h1v1H25zM6 17h1v1H6zM6 18h1v1H6zM16 18h1v1H16zM17 18h1v1H17zM15 19h1v1H15zM16 19h1v1H16zM17 19h1v1H17zM6 20h1v1H6zM15 20h1v1H15zM16 20h1v1H16zM17 20h1v1H17zM15 21h1v1H15zM16 21h1v1H16zM17 21h1v1H17zM18 21h1v1H18zM15 22h1v1H15zM16 22h1v1H16zM17 22h1v1H17zM18 23h1v1H18z"/><path fill="#db0e06" d="M14 14h1v1H14zM15 14h1v1H15zM16 14h1v1H16zM17 14h1v1H17zM12 15h1v1H12zM13 15h1v1H13zM14 15h1v1H14zM15 15h1v1H15zM16 15h1v1H16zM17 15h1v1H17zM18 15h1v1H18zM12 16h1v1H12zM13 16h1v1H13zM14 16h1v1H14zM15 16h1v1H15zM16 16h1v1H16zM17 16h1v1H17zM14 17h1v1H14zM15 17h1v1H15zM16 17h1v1H16zM17 17h1v1H17zM14 18h1v1H14zM15 18h1v1H15zM14 19h1v1H14zM14 20h1v1H14zM10 21h1v1H10zM11 21h1v1H11zM12 21h1v1H12zM13 21h1v1H13zM14 21h1v1H14zM10 22h1v1H10zM11 22h1v1H11zM12 22h1v1H12zM14 22h1v1H14zM11 23h1v1H11zM12 23h1v1H12zM13 23h1v1H13zM12 24h1v1H12z"/><path fill="#e50705" d="M28 15h1v1H28z"/><path fill="#fd710a" d="M7 16h1v1H7zM24 16h1v1H24zM10 17h1v1H10zM21 17h1v1H21zM25 17h1v1H25zM3 18h1v1H3zM23 18h1v1H23zM24 18h1v1H24zM28 18h1v1H28zM8 19h1v1H8zM23 19h1v1H23zM24 19h1v1H24zM10 20h1v1H10zM21 20h1v1H21zM25 20h1v1H25zM6 21h1v1H6zM25 21h1v1H25zM4 22h1v1H4zM13 22h1v1H13zM18 22h1v1H18zM22 22h1v1H22zM27 22h1v1H27zM9 24h1v1H9zM13 24h1v1H13zM18 24h1v1H18zM22 24h1v1H22zM7 26h1v1H7zM24 26h1v1H24zM9 27h1v1H9zM14 27h1v1H14zM17 27h1v1H17zM22 27h1v1H22zM11 28h1v1H11zM20 28h1v1H20z"/><path fill="#da0516" d="M10 16h1v1H10zM11 16h1v1H11zM11 17h1v1H11z"/><path fill="#0e0e14" d="M13 17h1v1H13zM19 17h1v1H19zM12 18h1v1H12zM18 18h1v1H18zM12 19h1v1H12zM13 19h1v1H13zM18 19h1v1H18zM19 19h1v1H19zM12 20h1v1H12zM13 20h1v1H13zM18 20h1v1H18zM19 20h1v1H19z"/><path fill="#fa4306" d="M4 20h1v1H4zM27 20h1v1H27z"/><path fill="#ffba00" d="M6 25h1v1H6zM25 25h1v1H25z"/></svg>
