<svg xmlns="http://www.w3.org/2000/svg" viewBox="0 0 32 32" shape-rendering="crispEdges"><path fill="#812600" d="M7 5h1v1H7zM24 5h1v1H24z"/><path fill="#6d1e00" d="M8 5h1v1H8zM9 5h1v1H9zM15 5h1v1H15zM16 5h1v1H16zM17 5h1v1H17zM18 5h1v1H18zM19 5h1v1H19zM6 6h1v1H6zM7 6h1v1H7zM8 6h1v1H8zM16 6h1v1H16zM17 6h1v1H17zM18 6h1v1H18zM24 6h1v1H24zM25 6h1v1H25zM6 7h1v1H6zM18 7h1v1H18zM23 7h1v1H23zM24 7h1v1H24zM25 7h1v1H25zM12 8h1v1H12zM13 8h1v1H13zM19 8h1v1H19zM23 8h1v1H23zM13 9h1v1H13zM14 9h1v1H14zM15 9h1v1H15zM6 10h1v1H6zM14 10h1v1H14zM22 10h1v1H22zM7 11h1v1H7zM22 11h1v1H22zM7 12h1v1H7zM8 12h1v1H8zM9 12h1v1H9zM10 12h1v1H10zM11 12h1v1H11zM12 12h1v1H12zM13 12h1v1H13zM21 12h1v1H21zM22 12h1v1H22zM23 12h1v1H23zM24 12h1v1H24zM7 13h1v1H7zM10 13h1v1H10zM11 13h1v1H11zM20 13h1v1H20zM21 13h1v1H21zM24 13h1v1H24z"/><path fill="#a63f0a" d="M10 5h1v1H10zM11 5h1v1H11zM12 5h1v1H12zM13 5h1v1H13zM14 5h1v1H14zM22 5h1v1H22zM23 5h1v1H23zM10 6h1v1H10zM13 6h1v1H13zM22 6h1v1H22zM7 7h1v1H7zM8 7h1v1H8zM6 8h1v1H6zM7 8h1v1H7zM24 8h1v1H24zM25 8h1v1H25zM6 9h1v1H6zM7 9h1v1H7zM9 9h1v1H9zM10 9h1v1H10zM19 9h1v1H19zM20 9h1v1H20zM24 9h1v1H24zM25 9h1v1H25zM7 10h1v1H7zM10 10h1v1H10zM18 10h1v1H18zM19 10h1v1H19zM20 10h1v1H20zM21 10h1v1H21zM25 10h1v1H25zM20 11h1v1H20zM21 11h1v1H21zM20 12h1v1H20z"/><path fill="#be4f12" d="M20 5h1v1H20zM21 5h1v1H21zM11 6h1v1H11zM12 6h1v1H12zM14 6h1v1H14zM15 6h1v1H15zM20 6h1v1H20zM21 6h1v1H21zM23 6h1v1H23zM11 7h1v1H11zM12 7h1v1H12zM13 7h1v1H13zM14 7h1v1H14zM15 7h1v1H15zM21 7h1v1H21zM22 7h1v1H22zM17 8h1v1H17zM18 8h1v1H18zM11 9h1v1H11zM12 9h1v1H12zM16 9h1v1H16zM17 9h1v1H17zM18 9h1v1H18zM23 9h1v1H23zM8 10h1v1H8zM9 10h1v1H9zM11 10h1v1H11zM12 10h1v1H12zM15 10h1v1H15zM16 10h1v1H16zM17 10h1v1H17zM23 10h1v1H23zM24 10h1v1H24zM8 11h1v1H8zM9 11h1v1H9zM10 11h1v1H10zM11 11h1v1H11zM15 11h1v1H15zM16 11h1v1H16zM17 11h1v1H17zM18 11h1v1H18zM19 11h1v1H19zM23 11h1v1H23zM24 11h1v1H24zM15 12h1v1H15zM16 12h1v1H16zM17 12h1v1H17zM18 12h1v1H18zM19 12h1v1H19z"/><path fill="#923206" d="M9 6h1v1H9zM19 6h1v1H19zM9 7h1v1H9zM10 7h1v1H10zM16 7h1v1H16zM17 7h1v1H17zM19 7h1v1H19zM20 7h1v1H20zM8 8h1v1H8zM9 8h1v1H9zM10 8h1v1H10zM11 8h1v1H11zM14 8h1v1H14zM15 8h1v1H15zM16 8h1v1H16zM20 8h1v1H20zM21 8h1v1H21zM22 8h1v1H22zM8 9h1v1H8zM21 9h1v1H21zM22 9h1v1H22zM13 10h1v1H13zM12 11h1v1H12zM13 11h1v1H13zM14 11h1v1H14zM14 12h1v1H14z"/><path fill="#a54e1b" d="M6 11h1v1H6zM25 11h1v1H25z"/><path fill="#ba6e3d" d="M6 12h1v1H6zM25 12h1v1H25zM8 13h1v1H8zM9 13h1v1H9zM12 13h1v1H12zM13 13h1v1H13zM14 13h1v1H14zM15 13h1v1H15zM16 13h1v1H16zM17 13h1v1H17zM18 13h1v1H18zM19 13h1v1H19zM22 13h1v1H22zM23 13h1v1H23z"/><path fill="#3c1300" d="M6 13h1v1H6zM25 13h1v1H25zM6 25h1v1H6zM25 25h1v1H25z"/><path fill="#491500" d="M6 14h1v1H6zM7 14h1v1H7zM24 14h1v1H24zM25 14h1v1H25zM6 15h1v1H6zM25 15h1v1H25zM6 24h1v1H6zM25 24h1v1H25z"/><path fill="#722600" d="M8 14h1v1H8zM9 14h1v1H9zM10 14h1v1H10zM11 14h1v1H11zM12 14h1v1H12zM21 14h1v1H21zM22 14h1v1H22zM23 14h1v1H23zM7 15h1v1H7zM8 15h1v1H8zM9 15h1v1H9zM12 15h1v1H12zM13 15h1v1H13zM20 15h1v1H20zM21 15h1v1H21zM24 15h1v1H24zM7 16h1v1H7zM15 17h1v1H15zM16 17h1v1H16zM20 17h1v1H20zM7 18h1v1H7zM8 18h1v1H8zM16 18h1v1H16zM7 19h1v1H7zM8 19h1v1H8zM9 19h1v1H9zM24 19h1v1H24zM8 20h1v1H8zM9 20h1v1H9zM24 20h1v1H24zM9 21h1v1H9zM10 21h1v1H10zM9 22h1v1H9zM23 23h1v1H23zM24 23h1v1H24zM15 24h1v1H15zM22 24h1v1H22zM23 24h1v1H23zM24 24h1v1H24zM14 25h1v1H14zM15 25h1v1H15zM21 25h1v1H21zM22 25h1v1H22zM23 25h1v1H23zM24 25h1v1H24zM14 26h1v1H14zM15 26h1v1H15zM16 26h1v1H16zM17 26h1v1H17zM18 26h1v1H18zM19 26h1v1H19zM20 26h1v1H20zM21 26h1v1H21zM22 26h1v1H22zM23 26h1v1H23zM24 26h1v1H24z"/><path fill="#5e1c00" d="M13 14h1v1H13zM14 14h1v1H14zM19 14h1v1H19zM20 14h1v1H20zM10 15h1v1H10zM11 15h1v1H11zM14 15h1v1H14zM18 15h1v1H18zM19 15h1v1H19zM22 15h1v1H22zM23 15h1v1H23zM6 16h1v1H6zM8 16h1v1H8zM9 16h1v1H9zM10 16h1v1H10zM11 16h1v1H11zM14 16h1v1H14zM15 16h1v1H15zM16 16h1v1H16zM17 16h1v1H17zM18 16h1v1H18zM19 16h1v1H19zM20 16h1v1H20zM21 16h1v1H21zM24 16h1v1H24zM25 16h1v1H25zM6 17h1v1H6zM7 17h1v1H7zM8 17h1v1H8zM9 17h1v1H9zM10 17h1v1H10zM17 17h1v1H17zM25 17h1v1H25zM6 18h1v1H6zM9 18h1v1H9zM17 18h1v1H17zM25 18h1v1H25zM6 19h1v1H6zM17 19h1v1H17zM21 19h1v1H21zM25 19h1v1H25zM6 20h1v1H6zM16 20h1v1H16zM17 20h1v1H17zM21 20h1v1H21zM22 20h1v1H22zM23 20h1v1H23zM25 20h1v1H25zM6 21h1v1H6zM15 21h1v1H15zM16 21h1v1H16zM17 21h1v1H17zM18 21h1v1H18zM19 21h1v1H19zM20 21h1v1H20zM21 21h1v1H21zM22 21h1v1H22zM23 21h1v1H23zM24 21h1v1H24zM25 21h1v1H25zM6 22h1v1H6zM10 22h1v1H10zM11 22h1v1H11zM14 22h1v1H14zM15 22h1v1H15zM16 22h1v1H16zM17 22h1v1H17zM23 22h1v1H23zM24 22h1v1H24zM25 22h1v1H25zM6 23h1v1H6zM9 23h1v1H9zM10 23h1v1H10zM11 23h1v1H11zM12 23h1v1H12zM13 23h1v1H13zM14 23h1v1H14zM15 23h1v1H15zM16 23h1v1H16zM25 23h1v1H25zM8 24h1v1H8zM9 24h1v1H9zM12 24h1v1H12zM13 24h1v1H13zM14 24h1v1H14zM16 24h1v1H16zM7 25h1v1H7zM8 25h1v1H8zM16 25h1v1H16zM17 25h1v1H17zM7 26h1v1H7zM8 26h1v1H8z"/><path fill="#7b2b00" d="M15 14h1v1H15zM16 14h1v1H16zM17 14h1v1H17zM18 14h1v1H18zM12 16h1v1H12zM13 16h1v1H13zM22 16h1v1H22zM23 16h1v1H23zM11 17h1v1H11zM14 17h1v1H14zM21 17h1v1H21zM22 17h1v1H22zM23 17h1v1H23zM24 17h1v1H24zM10 18h1v1H10zM14 18h1v1H14zM15 18h1v1H15zM21 18h1v1H21zM22 18h1v1H22zM23 18h1v1H23zM24 18h1v1H24zM14 19h1v1H14zM15 19h1v1H15zM16 19h1v1H16zM22 19h1v1H22zM23 19h1v1H23zM7 20h1v1H7zM14 20h1v1H14zM15 20h1v1H15zM7 21h1v1H7zM8 21h1v1H8zM14 21h1v1H14zM7 22h1v1H7zM18 22h1v1H18zM19 22h1v1H19zM20 22h1v1H20zM21 22h1v1H21zM22 22h1v1H22zM17 23h1v1H17zM18 23h1v1H18zM19 23h1v1H19zM20 23h1v1H20zM10 24h1v1H10zM11 24h1v1H11zM17 24h1v1H17zM18 24h1v1H18zM19 24h1v1H19zM9 25h1v1H9zM10 25h1v1H10zM18 25h1v1H18zM9 26h1v1H9zM13 26h1v1H13z"/><path fill="#913600" d="M15 15h1v1H15zM16 15h1v1H16zM17 15h1v1H17zM10 19h1v1H10zM10 20h1v1H10zM11 21h1v1H11zM12 21h1v1H12zM13 21h1v1H13zM8 22h1v1H8zM12 22h1v1H12zM13 22h1v1H13zM7 23h1v1H7zM8 23h1v1H8zM21 23h1v1H21zM22 23h1v1H22zM7 24h1v1H7zM20 24h1v1H20zM21 24h1v1H21zM11 25h1v1H11zM12 25h1v1H12zM13 25h1v1H13zM19 25h1v1H19zM20 25h1v1H20zM10 26h1v1H10zM11 26h1v1H11zM12 26h1v1H12z"/><path fill="#ffffff" d="M12 17h1v1H12zM18 17h1v1H18zM11 18h1v1H11zM13 18h1v1H13zM19 18h1v1H19zM20 18h1v1H20zM11 19h1v1H11zM20 19h1v1H20zM11 20h1v1H11zM20 20h1v1H20z"/><path fill="#0e0e14" d="M13 17h1v1H13zM19 17h1v1H19zM12 18h1v1H12zM18 18h1v1H18zM12 19h1v1H12zM13 19h1v1H13zM18 19h1v1H18zM19 19h1v1H19zM12 20h1v1H12zM13 20h1v1H13zM18 20h1v1H18zM19 20h1v1H19z"/></svg>
