<svg xmlns="http://www.w3.org/2000/svg" viewBox="0 0 32 32" shape-rendering="crispEdges"><path fill="#e2fff9" d="M15 1h1v1H15zM14 3h1v1H14zM16 3h1v1H16zM15 5h1v1H15zM14 6h1v1H14zM17 6h1v1H17zM16 7h1v1H16zM16 12h1v1H16zM2 22h1v1H2zM29 22h1v1H29zM15 24h1v1H15zM15 25h1v1H15zM15 26h1v1H15zM16 26h1v1H16z"/><path fill="#ffffff" d="M16 1h1v1H16zM15 2h1v1H15zM16 2h1v1H16zM9 3h1v1H9zM15 3h1v1H15zM17 3h1v1H17zM22 3h1v1H22zM9 4h1v1H9zM10 4h1v1H10zM14 4h1v1H14zM15 4h1v1H15zM17 4h1v1H17zM21 4h1v1H21zM22 4h1v1H22zM10 5h1v1H10zM11 5h1v1H11zM17 5h1v1H17zM20 5h1v1H20zM21 5h1v1H21zM10 6h1v1H10zM11 6h1v1H11zM15 6h1v1H15zM16 6h1v1H16zM20 6h1v1H20zM6 7h1v1H6zM7 7h1v1H7zM10 7h1v1H10zM11 7h1v1H11zM12 7h1v1H12zM19 7h1v1H19zM20 7h1v1H20zM21 7h1v1H21zM24 7h1v1H24zM25 7h1v1H25zM6 8h1v1H6zM8 8h1v1H8zM11 8h1v1H11zM13 8h1v1H13zM20 8h1v1H20zM13 9h1v1H13zM7 10h1v1H7zM15 10h1v1H15zM16 10h1v1H16zM24 10h1v1H24zM10 11h1v1H10zM15 11h1v1H15zM21 11h1v1H21zM2 12h1v1H2zM8 12h1v1H8zM11 12h1v1H11zM15 12h1v1H15zM20 12h1v1H20zM23 12h1v1H23zM29 12h1v1H29zM2 13h1v1H2zM3 13h1v1H3zM8 13h1v1H8zM9 13h1v1H9zM12 13h1v1H12zM13 13h1v1H13zM19 13h1v1H19zM22 13h1v1H22zM23 13h1v1H23zM28 13h1v1H28zM29 13h1v1H29zM2 14h1v1H2zM3 14h1v1H3zM4 14h1v1H4zM8 14h1v1H8zM9 14h1v1H9zM10 14h1v1H10zM13 14h1v1H13zM18 14h1v1H18zM21 14h1v1H21zM22 14h1v1H22zM23 14h1v1H23zM27 14h1v1H27zM28 14h1v1H28zM29 14h1v1H29zM2 15h1v1H2zM5 15h1v1H5zM14 15h1v1H14zM17 15h1v1H17zM26 15h1v1H26zM29 15h1v1H29zM2 16h1v1H2zM4 16h1v1H4zM6 16h1v1H6zM11 16h1v1H11zM12 16h1v1H12zM15 16h1v1H15zM16 16h1v1H16zM19 16h1v1H19zM20 16h1v1H20zM25 16h1v1H25zM27 16h1v1H27zM29 16h1v1H29zM2 17h1v1H2zM4 17h1v1H4zM5 17h1v1H5zM6 17h1v1H6zM7 17h1v1H7zM11 17h1v1H11zM20 17h1v1H20zM24 17h1v1H24zM25 17h1v1H25zM26 17h1v1H26zM27 17h1v1H27zM29 17h1v1H29zM3 18h1v1H3zM5 18h1v1H5zM6 18h1v1H6zM11 18h1v1H11zM20 18h1v1H20zM25 18h1v1H25zM26 18h1v1H26zM28 18h1v1H28zM3 19h1v1H3zM6 19h1v1H6zM10 19h1v1H10zM11 19h1v1H11zM20 19h1v1H20zM21 19h1v1H21zM25 19h1v1H25zM28 19h1v1H28zM4 20h1v1H4zM7 20h1v1H7zM10 20h1v1H10zM11 20h1v1H11zM20 20h1v1H20zM21 20h1v1H21zM24 20h1v1H24zM27 20h1v1H27zM2 21h1v1H2zM4 21h1v1H4zM6 21h1v1H6zM11 21h1v1H11zM12 21h1v1H12zM19 21h1v1H19zM20 21h1v1H20zM25 21h1v1H25zM27 21h1v1H27zM29 21h1v1H29zM6 22h1v1H6zM9 22h1v1H9zM10 22h1v1H10zM12 22h1v1H12zM13 22h1v1H13zM18 22h1v1H18zM19 22h1v1H19zM21 22h1v1H21zM22 22h1v1H22zM25 22h1v1H25zM4 23h1v1H4zM7 23h1v1H7zM9 23h1v1H9zM10 23h1v1H10zM15 23h1v1H15zM16 23h1v1H16zM21 23h1v1H21zM22 23h1v1H22zM24 23h1v1H24zM27 23h1v1H27zM5 24h1v1H5zM8 24h1v1H8zM12 24h1v1H12zM14 24h1v1H14zM17 24h1v1H17zM19 24h1v1H19zM23 24h1v1H23zM26 24h1v1H26zM16 25h1v1H16zM10 26h1v1H10zM21 26h1v1H21zM6 27h1v1H6zM13 27h1v1H13zM14 27h1v1H14zM17 27h1v1H17zM18 27h1v1H18zM24 27h1v1H24zM25 27h1v1H25zM11 28h1v1H11zM12 28h1v1H12zM13 28h1v1H13zM14 28h1v1H14zM17 28h1v1H17zM18 28h1v1H18zM19 28h1v1H19zM20 28h1v1H20zM12 29h1v1H12zM13 29h1v1H13zM18 29h1v1H18zM19 29h1v1H19z"/><path fill="#b4fffa" d="M8 3h1v1H8zM23 3h1v1H23zM8 4h1v1H8zM23 4h1v1H23zM5 6h1v1H5zM6 6h1v1H6zM25 6h1v1H25zM26 6h1v1H26zM5 7h1v1H5zM15 7h1v1H15zM26 7h1v1H26zM8 22h1v1H8zM23 22h1v1H23zM3 23h1v1H3zM8 23h1v1H8zM23 23h1v1H23zM28 23h1v1H28zM4 24h1v1H4zM9 24h1v1H9zM22 24h1v1H22zM27 24h1v1H27zM5 28h1v1H5zM6 28h1v1H6zM7 28h1v1H7zM24 28h1v1H24zM25 28h1v1H25zM26 28h1v1H26z"/><path fill="#ebf2fb" d="M16 4h1v1H16zM9 5h1v1H9zM14 5h1v1H14zM22 5h1v1H22zM9 6h1v1H9zM21 6h1v1H21zM22 6h1v1H22zM18 8h1v1H18zM23 8h1v1H23zM25 8h1v1H25zM8 9h1v1H8zM18 9h1v1H18zM23 9h1v1H23zM8 10h1v1H8zM13 10h1v1H13zM18 10h1v1H18zM23 10h1v1H23zM9 11h1v1H9zM16 11h1v1H16zM18 11h1v1H18zM22 11h1v1H22zM18 13h1v1H18zM5 16h1v1H5zM26 16h1v1H26zM10 18h1v1H10zM21 18h1v1H21zM5 19h1v1H5zM26 19h1v1H26zM27 19h1v1H27zM3 20h1v1H3zM28 20h1v1H28zM13 21h1v1H13zM18 21h1v1H18zM3 22h1v1H3zM28 22h1v1H28zM16 24h1v1H16zM7 27h1v1H7zM15 27h1v1H15zM9 28h1v1H9zM21 28h1v1H21zM22 28h1v1H22zM11 29h1v1H11zM20 29h1v1H20z"/><path fill="#69e3ff" d="M8 5h1v1H8zM23 5h1v1H23zM14 7h1v1H14zM17 7h1v1H17zM5 8h1v1H5zM15 8h1v1H15zM16 8h1v1H16zM26 8h1v1H26zM11 10h1v1H11zM20 10h1v1H20zM16 13h1v1H16zM9 21h1v1H9zM22 21h1v1H22zM11 23h1v1H11zM20 23h1v1H20zM11 24h1v1H11zM20 24h1v1H20zM5 25h1v1H5zM12 25h1v1H12zM19 25h1v1H19zM26 25h1v1H26zM6 29h1v1H6zM25 29h1v1H25z"/><path fill="#d5d8e3" d="M16 5h1v1H16zM7 8h1v1H7zM12 8h1v1H12zM19 8h1v1H19zM24 8h1v1H24zM7 9h1v1H7zM11 9h1v1H11zM20 9h1v1H20zM24 9h1v1H24zM22 10h1v1H22zM7 11h1v1H7zM13 11h1v1H13zM24 11h1v1H24zM15 13h1v1H15zM7 18h1v1H7zM24 18h1v1H24zM26 20h1v1H26zM24 21h1v1H24zM16 27h1v1H16zM10 28h1v1H10z"/><path fill="#1892dd" d="M8 6h1v1H8zM23 6h1v1H23zM8 7h1v1H8zM23 7h1v1H23zM9 8h1v1H9zM14 8h1v1H14zM17 8h1v1H17zM22 8h1v1H22zM5 9h1v1H5zM10 9h1v1H10zM14 9h1v1H14zM17 9h1v1H17zM21 9h1v1H21zM26 9h1v1H26zM5 10h1v1H5zM6 10h1v1H6zM10 10h1v1H10zM21 10h1v1H21zM25 10h1v1H25zM26 10h1v1H26zM6 11h1v1H6zM25 11h1v1H25zM6 12h1v1H6zM7 12h1v1H7zM24 12h1v1H24zM25 12h1v1H25zM7 13h1v1H7zM24 13h1v1H24zM2 23h1v1H2zM29 23h1v1H29zM3 24h1v1H3zM6 24h1v1H6zM25 24h1v1H25zM28 24h1v1H28zM4 25h1v1H4zM27 25h1v1H27zM5 26h1v1H5zM26 26h1v1H26z"/><path fill="#25dcc2" d="M9 7h1v1H9zM22 7h1v1H22zM10 8h1v1H10zM21 8h1v1H21zM6 9h1v1H6zM25 9h1v1H25zM10 24h1v1H10zM21 24h1v1H21zM6 25h1v1H6zM11 25h1v1H11zM20 25h1v1H20zM25 25h1v1H25zM12 26h1v1H12zM19 26h1v1H19zM5 27h1v1H5zM26 27h1v1H26zM7 29h1v1H7zM24 29h1v1H24z"/><path fill="#b9bece" d="M9 9h1v1H9zM12 9h1v1H12zM19 9h1v1H19zM22 9h1v1H22zM9 10h1v1H9zM23 11h1v1H23zM8 15h1v1H8zM18 15h1v1H18zM23 15h1v1H23zM8 16h1v1H8zM23 16h1v1H23zM10 17h1v1H10zM21 17h1v1H21zM8 18h1v1H8zM23 18h1v1H23zM29 18h1v1H29zM4 19h1v1H4zM8 19h1v1H8zM15 19h1v1H15zM16 19h1v1H16zM23 19h1v1H23zM5 20h1v1H5zM8 20h1v1H8zM12 20h1v1H12zM15 20h1v1H15zM16 20h1v1H16zM19 20h1v1H19zM23 20h1v1H23zM7 21h1v1H7zM8 21h1v1H8zM23 21h1v1H23zM7 22h1v1H7zM24 22h1v1H24zM8 27h1v1H8zM23 27h1v1H23zM9 29h1v1H9zM10 29h1v1H10zM21 29h1v1H21zM22 29h1v1H22z"/><path fill="#ffe67a" d="M15 9h1v1H15zM16 9h1v1H16zM14 12h1v1H14zM17 12h1v1H17z"/><path fill="#4a5265" d="M12 10h1v1H12zM19 10h1v1H19zM11 11h1v1H11zM20 11h1v1H20zM11 13h1v1H11zM20 13h1v1H20zM7 14h1v1H7zM14 14h1v1H14zM17 14h1v1H17zM24 14h1v1H24zM9 15h1v1H9zM15 15h1v1H15zM16 15h1v1H16zM22 15h1v1H22zM8 17h1v1H8zM23 17h1v1H23zM1 21h1v1H1zM30 21h1v1H30zM1 22h1v1H1zM15 22h1v1H15zM16 22h1v1H16zM30 22h1v1H30zM13 24h1v1H13zM18 24h1v1H18zM6 26h1v1H6zM25 26h1v1H25zM12 27h1v1H12zM19 27h1v1H19zM23 29h1v1H23zM9 30h1v1H9zM10 30h1v1H10zM12 30h1v1H12zM13 30h1v1H13zM18 30h1v1H18zM19 30h1v1H19zM21 30h1v1H21zM22 30h1v1H22z"/><path fill="#fff0b9" d="M14 10h1v1H14zM17 10h1v1H17zM14 11h1v1H14zM17 11h1v1H17zM8 25h1v1H8zM9 25h1v1H9zM22 25h1v1H22zM23 25h1v1H23zM8 26h1v1H8zM23 26h1v1H23z"/><path fill="#5e6479" d="M2 11h1v1H2zM29 11h1v1H29zM10 12h1v1H10zM21 12h1v1H21zM4 13h1v1H4zM27 13h1v1H27zM6 15h1v1H6zM25 15h1v1H25zM2 19h1v1H2zM29 19h1v1H29zM13 20h1v1H13zM18 20h1v1H18zM5 23h1v1H5zM26 23h1v1H26zM8 28h1v1H8zM15 28h1v1H15zM16 28h1v1H16zM23 28h1v1H23zM14 29h1v1H14zM17 29h1v1H17z"/><path fill="#878da0" d="M3 11h1v1H3zM28 11h1v1H28zM3 12h1v1H3zM4 12h1v1H4zM27 12h1v1H27zM28 12h1v1H28zM5 13h1v1H5zM26 13h1v1H26zM5 14h1v1H5zM6 14h1v1H6zM25 14h1v1H25zM26 14h1v1H26zM7 15h1v1H7zM24 15h1v1H24zM7 16h1v1H7zM10 16h1v1H10zM21 16h1v1H21zM24 16h1v1H24zM12 19h1v1H12zM19 19h1v1H19zM5 21h1v1H5zM15 21h1v1H15zM16 21h1v1H16zM5 22h1v1H5zM26 22h1v1H26zM6 23h1v1H6zM25 23h1v1H25zM14 25h1v1H14zM17 25h1v1H17zM17 26h1v1H17zM7 30h1v1H7z"/><path fill="#042440" d="M4 11h1v1H4zM27 11h1v1H27zM5 12h1v1H5zM12 12h1v1H12zM19 12h1v1H19zM26 12h1v1H26zM6 13h1v1H6zM25 13h1v1H25zM17 16h1v1H17zM15 18h1v1H15zM16 18h1v1H16zM2 20h1v1H2zM29 20h1v1H29zM3 21h1v1H3zM28 21h1v1H28zM4 22h1v1H4zM27 22h1v1H27zM3 25h1v1H3zM10 25h1v1H10zM13 25h1v1H13zM18 25h1v1H18zM21 25h1v1H21zM28 25h1v1H28zM7 26h1v1H7zM24 26h1v1H24zM4 27h1v1H4zM27 27h1v1H27zM4 28h1v1H4zM27 28h1v1H27zM5 29h1v1H5zM8 29h1v1H8z"/><path fill="#9fa4b9" d="M8 11h1v1H8zM12 14h1v1H12zM19 14h1v1H19zM2 18h1v1H2zM24 30h1v1H24z"/><path fill="#dfb131" d="M12 11h1v1H12zM19 11h1v1H19zM13 12h1v1H13zM18 12h1v1H18zM14 13h1v1H14zM17 13h1v1H17zM15 14h1v1H15zM16 14h1v1H16zM7 24h1v1H7zM24 24h1v1H24zM9 27h1v1H9zM10 27h1v1H10zM11 27h1v1H11zM20 27h1v1H20zM21 27h1v1H21zM22 27h1v1H22z"/><path fill="#000000" d="M9 12h1v1H9zM22 12h1v1H22zM10 13h1v1H10zM21 13h1v1H21zM11 14h1v1H11zM20 14h1v1H20zM10 15h1v1H10zM11 15h1v1H11zM12 15h1v1H12zM13 15h1v1H13zM19 15h1v1H19zM20 15h1v1H20zM21 15h1v1H21zM9 16h1v1H9zM13 16h1v1H13zM14 16h1v1H14zM18 16h1v1H18zM22 16h1v1H22zM9 17h1v1H9zM12 17h1v1H12zM14 17h1v1H14zM17 17h1v1H17zM19 17h1v1H19zM22 17h1v1H22zM9 18h1v1H9zM12 18h1v1H12zM13 18h1v1H13zM14 18h1v1H14zM17 18h1v1H17zM18 18h1v1H18zM19 18h1v1H19zM22 18h1v1H22zM9 19h1v1H9zM13 19h1v1H13zM14 19h1v1H14zM17 19h1v1H17zM18 19h1v1H18zM22 19h1v1H22zM9 20h1v1H9zM14 20h1v1H14zM17 20h1v1H17zM22 20h1v1H22zM10 21h1v1H10zM14 21h1v1H14zM17 21h1v1H17zM21 21h1v1H21zM11 22h1v1H11zM14 22h1v1H14zM17 22h1v1H17zM20 22h1v1H20zM12 23h1v1H12zM13 23h1v1H13zM14 23h1v1H14zM17 23h1v1H17zM18 23h1v1H18zM19 23h1v1H19zM11 26h1v1H11zM13 26h1v1H13zM18 26h1v1H18zM20 26h1v1H20zM26 29h1v1H26zM14 30h1v1H14zM17 30h1v1H17z"/><path fill="#e3e6f3" d="M3 15h1v1H3zM4 15h1v1H4zM27 15h1v1H27zM28 15h1v1H28zM3 16h1v1H3zM28 16h1v1H28zM3 17h1v1H3zM28 17h1v1H28zM4 18h1v1H4zM27 18h1v1H27zM7 19h1v1H7zM24 19h1v1H24zM6 20h1v1H6zM25 20h1v1H25z"/><path fill="#fffcfe" d="M13 17h1v1H13zM18 17h1v1H18z"/><path fill="#72788d" d="M15 17h1v1H15zM16 17h1v1H16zM26 21h1v1H26zM14 26h1v1H14zM8 30h1v1H8zM11 30h1v1H11zM15 30h1v1H15zM16 30h1v1H16zM20 30h1v1H20zM23 30h1v1H23z"/><path fill="#fcdc5e" d="M7 25h1v1H7zM24 25h1v1H24zM9 26h1v1H9zM22 26h1v1H22z"/><path fill="#ffefb0" d="M15 29h1v1H15zM16 29h1v1H16z"/></svg>
