<svg xmlns="http://www.w3.org/2000/svg" viewBox="0 0 32 32" shape-rendering="crispEdges"><path fill="#fee213" d="M6 0h1v1H6zM7 0h1v1H7zM15 0h1v1H15zM16 0h1v1H16zM24 0h1v1H24zM25 0h1v1H25zM4 1h1v1H4zM7 1h1v1H7zM15 1h1v1H15zM16 1h1v1H16zM24 1h1v1H24zM27 1h1v1H27zM4 2h1v1H4zM5 2h1v1H5zM7 2h1v1H7zM8 2h1v1H8zM9 2h1v1H9zM22 2h1v1H22zM23 2h1v1H23zM24 2h1v1H24zM26 2h1v1H26zM27 2h1v1H27zM5 3h1v1H5zM8 3h1v1H8zM9 3h1v1H9zM22 3h1v1H22zM23 3h1v1H23zM26 3h1v1H26zM2 4h1v1H2zM5 4h1v1H5zM6 4h1v1H6zM9 4h1v1H9zM14 4h1v1H14zM17 4h1v1H17zM22 4h1v1H22zM25 4h1v1H25zM26 4h1v1H26zM29 4h1v1H29zM3 5h1v1H3zM6 5h1v1H6zM10 5h1v1H10zM15 5h1v1H15zM16 5h1v1H16zM21 5h1v1H21zM25 5h1v1H25zM28 5h1v1H28zM4 6h1v1H4zM7 6h1v1H7zM10 6h1v1H10zM14 6h1v1H14zM15 6h1v1H15zM16 6h1v1H16zM17 6h1v1H17zM21 6h1v1H21zM24 6h1v1H24zM27 6h1v1H27zM4 7h1v1H4zM5 7h1v1H5zM6 7h1v1H6zM8 7h1v1H8zM11 7h1v1H11zM20 7h1v1H20zM23 7h1v1H23zM25 7h1v1H25zM26 7h1v1H26zM27 7h1v1H27zM5 8h1v1H5zM6 8h1v1H6zM9 8h1v1H9zM12 8h1v1H12zM19 8h1v1H19zM22 8h1v1H22zM25 8h1v1H25zM26 8h1v1H26zM7 9h1v1H7zM10 9h1v1H10zM13 9h1v1H13zM18 9h1v1H18zM21 9h1v1H21zM24 9h1v1H24zM7 10h1v1H7zM8 10h1v1H8zM13 10h1v1H13zM18 10h1v1H18zM23 10h1v1H23zM24 10h1v1H24zM8 11h1v1H8zM9 11h1v1H9zM11 11h1v1H11zM14 11h1v1H14zM17 11h1v1H17zM20 11h1v1H20zM22 11h1v1H22zM23 11h1v1H23zM2 12h1v1H2zM3 12h1v1H3zM9 12h1v1H9zM10 12h1v1H10zM12 12h1v1H12zM15 12h1v1H15zM16 12h1v1H16zM19 12h1v1H19zM21 12h1v1H21zM22 12h1v1H22zM28 12h1v1H28zM29 12h1v1H29zM2 13h1v1H2zM11 13h1v1H11zM13 13h1v1H13zM18 13h1v1H18zM20 13h1v1H20zM29 13h1v1H29zM3 14h1v1H3zM5 14h1v1H5zM12 14h1v1H12zM19 14h1v1H19zM26 14h1v1H26zM28 14h1v1H28zM13 15h1v1H13zM14 15h1v1H14zM17 15h1v1H17zM18 15h1v1H18zM6 16h1v1H6zM15 16h1v1H15zM16 16h1v1H16zM25 16h1v1H25zM15 17h1v1H15zM16 17h1v1H16zM7 18h1v1H7zM24 18h1v1H24zM8 20h1v1H8zM15 20h1v1H15zM16 20h1v1H16zM23 20h1v1H23zM7 21h1v1H7zM24 21h1v1H24zM4 22h1v1H4zM10 22h1v1H10zM21 22h1v1H21zM27 22h1v1H27zM11 23h1v1H11zM20 23h1v1H20zM8 25h1v1H8zM9 25h1v1H9zM22 25h1v1H22zM23 25h1v1H23zM1 26h1v1H1zM7 26h1v1H7zM10 26h1v1H10zM14 26h1v1H14zM17 26h1v1H17zM21 26h1v1H21zM24 26h1v1H24zM30 26h1v1H30zM2 27h1v1H2zM3 27h1v1H3zM6 27h1v1H6zM25 27h1v1H25zM28 27h1v1H28zM29 27h1v1H29zM2 28h1v1H2zM5 28h1v1H5zM26 28h1v1H26zM29 28h1v1H29zM4 29h1v1H4zM27 29h1v1H27z"/><path fill="#fc9701" d="M8 0h1v1H8zM23 0h1v1H23zM10 2h1v1H10zM14 2h1v1H14zM17 2h1v1H17zM21 2h1v1H21zM4 3h1v1H4zM27 3h1v1H27zM5 5h1v1H5zM9 5h1v1H9zM13 5h1v1H13zM18 5h1v1H18zM22 5h1v1H22zM26 5h1v1H26zM3 6h1v1H3zM28 6h1v1H28zM6 9h1v1H6zM25 9h1v1H25zM3 15h1v1H3zM28 15h1v1H28zM6 18h1v1H6zM25 18h1v1H25zM6 20h1v1H6zM25 20h1v1H25zM3 23h1v1H3zM28 23h1v1H28zM16 24h1v1H16zM9 26h1v1H9zM22 26h1v1H22zM15 28h1v1H15zM3 29h1v1H3zM12 29h1v1H12zM19 29h1v1H19zM28 29h1v1H28z"/><path fill="#ffffff" d="M8 1h1v1H8zM23 1h1v1H23zM15 2h1v1H15zM16 2h1v1H16zM10 3h1v1H10zM14 3h1v1H14zM15 3h1v1H15zM16 3h1v1H16zM17 3h1v1H17zM21 3h1v1H21zM11 4h1v1H11zM13 4h1v1H13zM15 4h1v1H15zM16 4h1v1H16zM18 4h1v1H18zM20 4h1v1H20zM2 5h1v1H2zM14 5h1v1H14zM17 5h1v1H17zM29 5h1v1H29zM3 7h1v1H3zM7 7h1v1H7zM24 7h1v1H24zM28 7h1v1H28zM2 8h1v1H2zM4 8h1v1H4zM7 8h1v1H7zM8 8h1v1H8zM15 8h1v1H15zM16 8h1v1H16zM23 8h1v1H23zM24 8h1v1H24zM27 8h1v1H27zM29 8h1v1H29zM3 9h1v1H3zM5 9h1v1H5zM15 9h1v1H15zM16 9h1v1H16zM26 9h1v1H26zM28 9h1v1H28zM3 10h1v1H3zM6 10h1v1H6zM10 10h1v1H10zM21 10h1v1H21zM25 10h1v1H25zM28 10h1v1H28zM10 11h1v1H10zM21 11h1v1H21zM11 12h1v1H11zM20 12h1v1H20zM3 13h1v1H3zM12 13h1v1H12zM19 13h1v1H19zM28 13h1v1H28zM4 14h1v1H4zM8 14h1v1H8zM13 14h1v1H13zM18 14h1v1H18zM23 14h1v1H23zM27 14h1v1H27zM2 15h1v1H2zM4 15h1v1H4zM5 15h1v1H5zM26 15h1v1H26zM27 15h1v1H27zM29 15h1v1H29zM1 16h1v1H1zM5 16h1v1H5zM11 16h1v1H11zM12 16h1v1H12zM19 16h1v1H19zM20 16h1v1H20zM26 16h1v1H26zM30 16h1v1H30zM1 17h1v1H1zM6 17h1v1H6zM8 17h1v1H8zM11 17h1v1H11zM13 17h1v1H13zM18 17h1v1H18zM20 17h1v1H20zM23 17h1v1H23zM25 17h1v1H25zM30 17h1v1H30zM1 18h1v1H1zM11 18h1v1H11zM15 18h1v1H15zM16 18h1v1H16zM20 18h1v1H20zM30 18h1v1H30zM9 19h1v1H9zM10 19h1v1H10zM11 19h1v1H11zM15 19h1v1H15zM16 19h1v1H16zM20 19h1v1H20zM21 19h1v1H21zM22 19h1v1H22zM3 20h1v1H3zM7 20h1v1H7zM10 20h1v1H10zM11 20h1v1H11zM20 20h1v1H20zM21 20h1v1H21zM24 20h1v1H24zM28 20h1v1H28zM2 21h1v1H2zM8 21h1v1H8zM9 21h1v1H9zM11 21h1v1H11zM12 21h1v1H12zM19 21h1v1H19zM20 21h1v1H20zM22 21h1v1H22zM23 21h1v1H23zM29 21h1v1H29zM1 22h1v1H1zM2 22h1v1H2zM8 22h1v1H8zM9 22h1v1H9zM12 22h1v1H12zM13 22h1v1H13zM18 22h1v1H18zM19 22h1v1H19zM22 22h1v1H22zM23 22h1v1H23zM29 22h1v1H29zM30 22h1v1H30zM1 23h1v1H1zM4 23h1v1H4zM10 23h1v1H10zM21 23h1v1H21zM27 23h1v1H27zM30 23h1v1H30zM12 24h1v1H12zM19 24h1v1H19zM3 25h1v1H3zM15 25h1v1H15zM28 25h1v1H28zM11 26h1v1H11zM15 26h1v1H15zM16 26h1v1H16zM20 26h1v1H20zM11 27h1v1H11zM16 27h1v1H16zM20 27h1v1H20zM3 28h1v1H3zM4 28h1v1H4zM12 28h1v1H12zM19 28h1v1H19zM27 28h1v1H27zM28 28h1v1H28zM13 29h1v1H13zM18 29h1v1H18z"/><path fill="#cf5d00" d="M9 1h1v1H9zM22 1h1v1H22zM7 4h1v1H7zM8 4h1v1H8zM23 4h1v1H23zM24 4h1v1H24zM7 5h1v1H7zM8 5h1v1H8zM12 5h1v1H12zM19 5h1v1H19zM23 5h1v1H23zM24 5h1v1H24zM5 6h1v1H5zM26 6h1v1H26zM7 11h1v1H7zM13 11h1v1H13zM18 11h1v1H18zM24 11h1v1H24zM8 12h1v1H8zM14 12h1v1H14zM17 12h1v1H17zM23 12h1v1H23zM10 13h1v1H10zM15 13h1v1H15zM16 13h1v1H16zM21 13h1v1H21zM11 14h1v1H11zM20 14h1v1H20zM4 16h1v1H4zM27 16h1v1H27zM5 17h1v1H5zM26 17h1v1H26zM10 27h1v1H10zM21 27h1v1H21zM11 28h1v1H11zM20 28h1v1H20zM5 29h1v1H5zM26 29h1v1H26z"/><path fill="#4ee2ff" d="M10 4h1v1H10zM21 4h1v1H21zM2 6h1v1H2zM12 6h1v1H12zM13 6h1v1H13zM18 6h1v1H18zM19 6h1v1H19zM29 6h1v1H29zM2 7h1v1H2zM12 7h1v1H12zM15 7h1v1H15zM16 7h1v1H16zM19 7h1v1H19zM29 7h1v1H29zM3 8h1v1H3zM28 8h1v1H28zM2 9h1v1H2zM4 9h1v1H4zM27 9h1v1H27zM29 9h1v1H29zM5 10h1v1H5zM26 10h1v1H26zM6 11h1v1H6zM25 11h1v1H25zM8 15h1v1H8zM23 15h1v1H23zM2 16h1v1H2zM8 16h1v1H8zM23 16h1v1H23zM29 16h1v1H29zM2 17h1v1H2zM9 17h1v1H9zM22 17h1v1H22zM29 17h1v1H29zM9 18h1v1H9zM10 18h1v1H10zM21 18h1v1H21zM22 18h1v1H22zM2 19h1v1H2zM29 19h1v1H29zM6 21h1v1H6zM13 21h1v1H13zM18 21h1v1H18zM25 21h1v1H25zM5 22h1v1H5zM6 22h1v1H6zM15 22h1v1H15zM16 22h1v1H16zM25 22h1v1H25zM26 22h1v1H26zM8 23h1v1H8zM9 23h1v1H9zM14 23h1v1H14zM17 23h1v1H17zM22 23h1v1H22zM23 23h1v1H23zM1 24h1v1H1zM8 24h1v1H8zM9 24h1v1H9zM13 24h1v1H13zM18 24h1v1H18zM22 24h1v1H22zM23 24h1v1H23zM30 24h1v1H30z"/><path fill="#03b3fe" d="M11 5h1v1H11zM20 5h1v1H20zM11 6h1v1H11zM20 6h1v1H20zM13 7h1v1H13zM14 7h1v1H14zM17 7h1v1H17zM18 7h1v1H18zM13 8h1v1H13zM14 8h1v1H14zM17 8h1v1H17zM18 8h1v1H18zM14 9h1v1H14zM17 9h1v1H17zM4 10h1v1H4zM27 10h1v1H27zM4 11h1v1H4zM5 11h1v1H5zM26 11h1v1H26zM27 11h1v1H27zM5 12h1v1H5zM6 12h1v1H6zM25 12h1v1H25zM26 12h1v1H26zM6 13h1v1H6zM7 13h1v1H7zM24 13h1v1H24zM25 13h1v1H25zM7 14h1v1H7zM24 14h1v1H24zM1 15h1v1H1zM30 15h1v1H30zM0 16h1v1H0zM31 16h1v1H31zM0 17h1v1H0zM10 17h1v1H10zM21 17h1v1H21zM31 17h1v1H31zM2 20h1v1H2zM4 20h1v1H4zM12 20h1v1H12zM19 20h1v1H19zM27 20h1v1H27zM29 20h1v1H29zM1 21h1v1H1zM3 21h1v1H3zM4 21h1v1H4zM5 21h1v1H5zM26 21h1v1H26zM27 21h1v1H27zM28 21h1v1H28zM30 21h1v1H30zM0 22h1v1H0zM3 22h1v1H3zM7 22h1v1H7zM24 22h1v1H24zM28 22h1v1H28zM31 22h1v1H31zM0 23h1v1H0zM2 23h1v1H2zM7 23h1v1H7zM24 23h1v1H24zM29 23h1v1H29zM31 23h1v1H31zM10 24h1v1H10zM11 24h1v1H11zM20 24h1v1H20zM21 24h1v1H21zM10 25h1v1H10zM11 25h1v1H11zM12 25h1v1H12zM19 25h1v1H19zM20 25h1v1H20zM21 25h1v1H21zM12 26h1v1H12zM19 26h1v1H19z"/><path fill="#fef1bb" d="M6 6h1v1H6zM25 6h1v1H25zM8 9h1v1H8zM9 9h1v1H9zM22 9h1v1H22zM23 9h1v1H23zM9 10h1v1H9zM15 10h1v1H15zM16 10h1v1H16zM22 10h1v1H22zM6 19h1v1H6zM7 19h1v1H7zM24 19h1v1H24zM25 19h1v1H25zM3 24h1v1H3zM28 24h1v1H28zM3 26h1v1H3zM28 26h1v1H28z"/><path fill="#3a4657" d="M8 6h1v1H8zM9 6h1v1H9zM22 6h1v1H22zM23 6h1v1H23zM4 13h1v1H4zM8 13h1v1H8zM23 13h1v1H23zM27 13h1v1H27zM6 14h1v1H6zM10 14h1v1H10zM14 14h1v1H14zM17 14h1v1H17zM21 14h1v1H21zM25 14h1v1H25zM12 15h1v1H12zM15 15h1v1H15zM16 15h1v1H16zM19 15h1v1H19zM3 16h1v1H3zM14 16h1v1H14zM17 16h1v1H17zM28 16h1v1H28zM4 17h1v1H4zM7 17h1v1H7zM24 17h1v1H24zM27 17h1v1H27zM2 18h1v1H2zM5 18h1v1H5zM26 18h1v1H26zM29 18h1v1H29zM5 20h1v1H5zM26 20h1v1H26zM7 24h1v1H7zM24 24h1v1H24zM7 25h1v1H7zM24 25h1v1H24zM6 26h1v1H6zM8 26h1v1H8zM23 26h1v1H23zM25 26h1v1H25zM4 27h1v1H4zM5 27h1v1H5zM26 27h1v1H26zM27 27h1v1H27zM14 28h1v1H14zM16 28h1v1H16zM17 28h1v1H17zM15 29h1v1H15zM16 29h1v1H16z"/><path fill="#59748a" d="M9 7h1v1H9zM10 7h1v1H10zM21 7h1v1H21zM22 7h1v1H22zM10 8h1v1H10zM11 8h1v1H11zM20 8h1v1H20zM21 8h1v1H21zM11 9h1v1H11zM20 9h1v1H20zM12 11h1v1H12zM19 11h1v1H19zM13 12h1v1H13zM18 12h1v1H18zM9 13h1v1H9zM14 13h1v1H14zM17 13h1v1H17zM22 13h1v1H22zM11 15h1v1H11zM20 15h1v1H20zM3 17h1v1H3zM28 17h1v1H28zM4 18h1v1H4zM27 18h1v1H27zM5 19h1v1H5zM26 19h1v1H26zM6 23h1v1H6zM25 23h1v1H25zM6 24h1v1H6zM25 24h1v1H25zM4 25h1v1H4zM5 25h1v1H5zM26 25h1v1H26zM27 25h1v1H27zM7 27h1v1H7zM9 27h1v1H9zM22 27h1v1H22zM24 27h1v1H24zM10 28h1v1H10zM21 28h1v1H21z"/><path fill="#db7301" d="M12 9h1v1H12zM19 9h1v1H19zM12 10h1v1H12zM19 10h1v1H19z"/><path fill="#007dfc" d="M2 10h1v1H2zM14 10h1v1H14zM17 10h1v1H17zM29 10h1v1H29zM3 11h1v1H3zM15 11h1v1H15zM16 11h1v1H16zM28 11h1v1H28zM4 12h1v1H4zM27 12h1v1H27zM10 16h1v1H10zM21 16h1v1H21zM0 18h1v1H0zM31 18h1v1H31zM1 19h1v1H1zM30 19h1v1H30zM0 24h1v1H0zM2 24h1v1H2zM29 24h1v1H29zM31 24h1v1H31zM1 25h1v1H1zM2 25h1v1H2zM29 25h1v1H29zM30 25h1v1H30zM2 26h1v1H2zM29 26h1v1H29zM12 27h1v1H12zM19 27h1v1H19zM13 28h1v1H13zM18 28h1v1H18zM14 29h1v1H14zM17 29h1v1H17z"/><path fill="#2c3846" d="M11 10h1v1H11zM20 10h1v1H20zM5 13h1v1H5zM26 13h1v1H26zM15 14h1v1H15zM16 14h1v1H16zM8 19h1v1H8zM23 19h1v1H23zM9 20h1v1H9zM22 20h1v1H22zM10 21h1v1H10zM21 21h1v1H21zM11 22h1v1H11zM20 22h1v1H20zM12 23h1v1H12zM13 23h1v1H13zM18 23h1v1H18zM19 23h1v1H19zM6 25h1v1H6zM13 25h1v1H13zM14 25h1v1H14zM16 25h1v1H16zM17 25h1v1H17zM18 25h1v1H18zM25 25h1v1H25zM5 26h1v1H5zM13 26h1v1H13zM18 26h1v1H18zM26 26h1v1H26zM6 29h1v1H6zM10 29h1v1H10zM11 29h1v1H11zM20 29h1v1H20zM21 29h1v1H21zM25 29h1v1H25zM7 30h1v1H7zM9 30h1v1H9zM22 30h1v1H22zM24 30h1v1H24z"/><path fill="#2e2b2b" d="M7 12h1v1H7zM24 12h1v1H24z"/><path fill="#5a626f" d="M2 14h1v1H2zM29 14h1v1H29zM15 21h1v1H15zM16 21h1v1H16z"/><path fill="#151a21" d="M9 14h1v1H9zM22 14h1v1H22zM6 15h1v1H6zM7 15h1v1H7zM9 15h1v1H9zM10 15h1v1H10zM21 15h1v1H21zM22 15h1v1H22zM24 15h1v1H24zM25 15h1v1H25zM7 16h1v1H7zM9 16h1v1H9zM22 16h1v1H22zM24 16h1v1H24zM14 17h1v1H14zM17 17h1v1H17zM8 18h1v1H8zM14 18h1v1H14zM17 18h1v1H17zM23 18h1v1H23zM14 19h1v1H14zM17 19h1v1H17zM14 20h1v1H14zM17 20h1v1H17zM14 21h1v1H14zM17 21h1v1H17zM14 22h1v1H14zM17 22h1v1H17z"/><path fill="#000000" d="M13 16h1v1H13zM18 16h1v1H18zM12 17h1v1H12zM19 17h1v1H19zM12 18h1v1H12zM13 18h1v1H13zM18 18h1v1H18zM19 18h1v1H19zM13 19h1v1H13zM18 19h1v1H18z"/><path fill="#78a0c0" d="M3 18h1v1H3zM28 18h1v1H28zM3 19h1v1H3zM4 19h1v1H4zM27 19h1v1H27zM28 19h1v1H28zM5 23h1v1H5zM15 23h1v1H15zM16 23h1v1H16zM26 23h1v1H26zM4 24h1v1H4zM5 24h1v1H5zM14 24h1v1H14zM15 24h1v1H15zM17 24h1v1H17zM26 24h1v1H26zM27 24h1v1H27zM8 27h1v1H8zM23 27h1v1H23zM7 28h1v1H7zM8 28h1v1H8zM9 28h1v1H9zM22 28h1v1H22zM23 28h1v1H23zM24 28h1v1H24zM8 29h1v1H8zM23 29h1v1H23z"/><path fill="#004387" d="M12 19h1v1H12zM19 19h1v1H19z"/><path fill="#0056ad" d="M13 20h1v1H13zM18 20h1v1H18z"/><path fill="#40556b" d="M4 26h1v1H4zM27 26h1v1H27zM13 27h1v1H13zM14 27h1v1H14zM15 27h1v1H15zM17 27h1v1H17zM18 27h1v1H18zM6 28h1v1H6zM25 28h1v1H25zM7 29h1v1H7zM9 29h1v1H9zM22 29h1v1H22zM24 29h1v1H24zM8 30h1v1H8zM23 30h1v1H23z"/></svg>
