<svg xmlns="http://www.w3.org/2000/svg" viewBox="0 0 32 32" shape-rendering="crispEdges"><path fill="#577f1f" d="M4 1h1v1H4zM27 1h1v1H27zM10 2h1v1H10zM21 2h1v1H21zM2 4h1v1H2zM29 4h1v1H29zM8 7h1v1H8zM11 7h1v1H11zM12 7h1v1H12zM19 7h1v1H19zM20 7h1v1H20zM23 7h1v1H23zM3 9h1v1H3zM5 9h1v1H5zM15 9h1v1H15zM16 9h1v1H16zM26 9h1v1H26zM28 9h1v1H28zM3 10h1v1H3zM10 10h1v1H10zM21 10h1v1H21zM28 10h1v1H28zM15 11h1v1H15zM16 11h1v1H16zM1 12h1v1H1zM5 12h1v1H5zM8 12h1v1H8zM23 12h1v1H23zM26 12h1v1H26zM30 12h1v1H30zM1 13h1v1H1zM5 13h1v1H5zM26 13h1v1H26zM30 13h1v1H30zM1 14h1v1H1zM2 14h1v1H2zM13 14h1v1H13zM18 14h1v1H18zM29 14h1v1H29zM30 14h1v1H30zM14 15h1v1H14zM15 15h1v1H15zM16 15h1v1H16zM17 15h1v1H17zM9 16h1v1H9zM15 16h1v1H15zM16 16h1v1H16zM22 16h1v1H22zM3 17h1v1H3zM8 17h1v1H8zM9 17h1v1H9zM22 17h1v1H22zM23 17h1v1H23zM28 17h1v1H28zM2 18h1v1H2zM8 18h1v1H8zM23 18h1v1H23zM29 18h1v1H29zM8 19h1v1H8zM10 19h1v1H10zM21 19h1v1H21zM23 19h1v1H23zM8 20h1v1H8zM23 20h1v1H23zM13 21h1v1H13zM18 21h1v1H18zM5 23h1v1H5zM6 23h1v1H6zM25 23h1v1H25zM26 23h1v1H26zM5 24h1v1H5zM6 24h1v1H6zM11 24h1v1H11zM20 24h1v1H20zM25 24h1v1H25zM26 24h1v1H26zM6 25h1v1H6zM7 25h1v1H7zM12 25h1v1H12zM19 25h1v1H19zM24 25h1v1H24zM25 25h1v1H25zM3 26h1v1H3zM4 26h1v1H4zM6 26h1v1H6zM7 26h1v1H7zM15 26h1v1H15zM16 26h1v1H16zM24 26h1v1H24zM25 26h1v1H25zM27 26h1v1H27zM28 26h1v1H28zM3 27h1v1H3zM4 27h1v1H4zM5 27h1v1H5zM6 27h1v1H6zM8 27h1v1H8zM9 27h1v1H9zM12 27h1v1H12zM19 27h1v1H19zM22 27h1v1H22zM23 27h1v1H23zM25 27h1v1H25zM26 27h1v1H26zM27 27h1v1H27zM28 27h1v1H28zM8 28h1v1H8zM9 28h1v1H9zM13 28h1v1H13zM18 28h1v1H18zM22 28h1v1H22zM23 28h1v1H23z"/><path fill="#c0d875" d="M4 2h1v1H4zM27 2h1v1H27zM9 7h1v1H9zM22 7h1v1H22zM10 9h1v1H10zM21 9h1v1H21zM5 10h1v1H5zM6 10h1v1H6zM8 10h1v1H8zM23 10h1v1H23zM25 10h1v1H25zM26 10h1v1H26zM5 11h1v1H5zM6 11h1v1H6zM7 11h1v1H7zM8 11h1v1H8zM23 11h1v1H23zM24 11h1v1H24zM25 11h1v1H25zM26 11h1v1H26zM6 12h1v1H6zM7 12h1v1H7zM24 12h1v1H24zM25 12h1v1H25zM7 13h1v1H7zM8 13h1v1H8zM10 13h1v1H10zM11 13h1v1H11zM12 13h1v1H12zM19 13h1v1H19zM20 13h1v1H20zM21 13h1v1H21zM23 13h1v1H23zM24 13h1v1H24zM7 14h1v1H7zM8 14h1v1H8zM11 14h1v1H11zM12 14h1v1H12zM15 14h1v1H15zM16 14h1v1H16zM19 14h1v1H19zM20 14h1v1H20zM23 14h1v1H23zM24 14h1v1H24zM12 15h1v1H12zM13 15h1v1H13zM18 15h1v1H18zM19 15h1v1H19zM14 16h1v1H14zM17 16h1v1H17zM15 17h1v1H15zM16 17h1v1H16zM10 18h1v1H10zM21 18h1v1H21zM5 21h1v1H5zM26 21h1v1H26zM15 25h1v1H15zM16 25h1v1H16z"/><path fill="#3d5818" d="M5 2h1v1H5zM26 2h1v1H26zM1 3h1v1H1zM5 3h1v1H5zM26 3h1v1H26zM30 3h1v1H30zM1 4h1v1H1zM8 4h1v1H8zM23 4h1v1H23zM30 4h1v1H30zM2 5h1v1H2zM29 5h1v1H29zM8 6h1v1H8zM9 6h1v1H9zM11 6h1v1H11zM12 6h1v1H12zM19 6h1v1H19zM20 6h1v1H20zM22 6h1v1H22zM23 6h1v1H23zM5 7h1v1H5zM10 7h1v1H10zM13 7h1v1H13zM18 7h1v1H18zM21 7h1v1H21zM26 7h1v1H26zM6 8h1v1H6zM14 8h1v1H14zM17 8h1v1H17zM25 8h1v1H25zM6 9h1v1H6zM11 9h1v1H11zM20 9h1v1H20zM25 9h1v1H25zM11 10h1v1H11zM14 10h1v1H14zM17 10h1v1H17zM20 10h1v1H20zM14 11h1v1H14zM17 11h1v1H17zM11 12h1v1H11zM15 12h1v1H15zM16 12h1v1H16zM20 12h1v1H20zM6 13h1v1H6zM9 13h1v1H9zM14 13h1v1H14zM17 13h1v1H17zM22 13h1v1H22zM25 13h1v1H25zM10 14h1v1H10zM21 14h1v1H21zM1 15h1v1H1zM9 15h1v1H9zM22 15h1v1H22zM30 15h1v1H30zM3 16h1v1H3zM8 16h1v1H8zM23 16h1v1H23zM28 16h1v1H28zM6 17h1v1H6zM25 17h1v1H25zM5 18h1v1H5zM26 18h1v1H26zM8 22h1v1H8zM23 22h1v1H23zM8 23h1v1H8zM9 23h1v1H9zM22 23h1v1H22zM23 23h1v1H23zM7 24h1v1H7zM10 24h1v1H10zM21 24h1v1H21zM24 24h1v1H24zM5 25h1v1H5zM26 25h1v1H26zM5 26h1v1H5zM8 26h1v1H8zM9 26h1v1H9zM22 26h1v1H22zM23 26h1v1H23zM26 26h1v1H26zM7 27h1v1H7zM10 27h1v1H10zM11 27h1v1H11zM14 27h1v1H14zM17 27h1v1H17zM20 27h1v1H20zM21 27h1v1H21zM24 27h1v1H24zM6 28h1v1H6zM11 28h1v1H11zM12 28h1v1H12zM15 28h1v1H15zM16 28h1v1H16zM19 28h1v1H19zM20 28h1v1H20zM25 28h1v1H25z"/><path fill="#724627" d="M7 2h1v1H7zM24 2h1v1H24zM6 3h1v1H6zM8 3h1v1H8zM23 3h1v1H23zM25 3h1v1H25zM5 4h1v1H5zM6 4h1v1H6zM25 4h1v1H25zM26 4h1v1H26zM3 5h1v1H3zM6 5h1v1H6zM25 5h1v1H25zM28 5h1v1H28zM4 6h1v1H4zM6 6h1v1H6zM25 6h1v1H25zM27 6h1v1H27zM6 7h1v1H6zM25 7h1v1H25zM7 8h1v1H7zM24 8h1v1H24zM2 15h1v1H2zM3 15h1v1H3zM28 15h1v1H28zM29 15h1v1H29zM4 16h1v1H4zM11 16h1v1H11zM13 16h1v1H13zM18 16h1v1H18zM20 16h1v1H20zM27 16h1v1H27zM5 17h1v1H5zM26 17h1v1H26zM6 18h1v1H6zM25 18h1v1H25zM5 19h1v1H5zM6 19h1v1H6zM25 19h1v1H25zM26 19h1v1H26zM25 20h1v1H25zM4 21h1v1H4zM27 21h1v1H27zM4 22h1v1H4zM27 22h1v1H27zM14 26h1v1H14zM17 26h1v1H17z"/><path fill="#9eb143" d="M2 3h1v1H2zM4 3h1v1H4zM10 3h1v1H10zM21 3h1v1H21zM27 3h1v1H27zM29 3h1v1H29zM10 8h1v1H10zM13 8h1v1H13zM18 8h1v1H18zM21 8h1v1H21zM7 10h1v1H7zM9 10h1v1H9zM22 10h1v1H22zM24 10h1v1H24zM9 11h1v1H9zM10 11h1v1H10zM21 11h1v1H21zM22 11h1v1H22zM9 12h1v1H9zM10 12h1v1H10zM21 12h1v1H21zM22 12h1v1H22zM2 13h1v1H2zM29 13h1v1H29zM5 14h1v1H5zM6 14h1v1H6zM25 14h1v1H25zM26 14h1v1H26zM7 15h1v1H7zM24 15h1v1H24zM2 17h1v1H2zM14 17h1v1H14zM17 17h1v1H17zM29 17h1v1H29zM4 20h1v1H4zM27 20h1v1H27zM8 21h1v1H8zM23 21h1v1H23zM6 22h1v1H6zM9 22h1v1H9zM22 22h1v1H22zM25 22h1v1H25zM8 24h1v1H8zM9 24h1v1H9zM22 24h1v1H22zM23 24h1v1H23zM8 25h1v1H8zM9 25h1v1H9zM10 25h1v1H10zM11 25h1v1H11zM20 25h1v1H20zM21 25h1v1H21zM22 25h1v1H22zM23 25h1v1H23zM10 26h1v1H10zM11 26h1v1H11zM12 26h1v1H12zM19 26h1v1H19zM20 26h1v1H20zM21 26h1v1H21z"/><path fill="#632f18" d="M7 3h1v1H7zM24 3h1v1H24zM5 6h1v1H5zM26 6h1v1H26zM5 16h1v1H5zM12 16h1v1H12zM19 16h1v1H19zM26 16h1v1H26zM13 17h1v1H13zM18 17h1v1H18zM6 20h1v1H6zM15 27h1v1H15zM16 27h1v1H16z"/><path fill="#263b15" d="M9 3h1v1H9zM22 3h1v1H22zM7 9h1v1H7zM8 9h1v1H8zM9 9h1v1H9zM22 9h1v1H22zM23 9h1v1H23zM24 9h1v1H24zM9 14h1v1H9zM14 14h1v1H14zM17 14h1v1H17zM22 14h1v1H22zM8 15h1v1H8zM23 15h1v1H23zM10 20h1v1H10zM21 20h1v1H21zM10 23h1v1H10zM21 23h1v1H21zM13 25h1v1H13zM18 25h1v1H18zM13 26h1v1H13zM18 26h1v1H18zM13 27h1v1H13zM18 27h1v1H18zM5 28h1v1H5zM7 28h1v1H7zM14 28h1v1H14zM17 28h1v1H17zM24 28h1v1H24zM26 28h1v1H26zM12 29h1v1H12zM13 29h1v1H13zM14 29h1v1H14zM15 29h1v1H15zM16 29h1v1H16zM17 29h1v1H17zM18 29h1v1H18zM19 29h1v1H19z"/><path fill="#242e12" d="M7 4h1v1H7zM24 4h1v1H24zM7 5h1v1H7zM24 5h1v1H24zM3 6h1v1H3zM7 6h1v1H7zM24 6h1v1H24zM28 6h1v1H28zM4 7h1v1H4zM7 7h1v1H7zM24 7h1v1H24zM27 7h1v1H27zM5 8h1v1H5zM8 8h1v1H8zM23 8h1v1H23zM26 8h1v1H26zM4 11h1v1H4zM27 11h1v1H27zM4 12h1v1H4zM27 12h1v1H27zM4 13h1v1H4zM27 13h1v1H27zM5 15h1v1H5zM26 15h1v1H26zM6 16h1v1H6zM25 16h1v1H25zM4 17h1v1H4zM27 17h1v1H27zM4 18h1v1H4zM7 18h1v1H7zM24 18h1v1H24zM27 18h1v1H27zM4 19h1v1H4zM7 19h1v1H7zM24 19h1v1H24zM27 19h1v1H27zM5 20h1v1H5zM26 20h1v1H26zM6 21h1v1H6zM25 21h1v1H25zM5 22h1v1H5zM26 22h1v1H26zM4 23h1v1H4zM27 23h1v1H27zM4 24h1v1H4zM27 24h1v1H27z"/><path fill="#0b240c" d="M15 5h1v1H15zM16 5h1v1H16zM14 6h1v1H14zM17 6h1v1H17zM14 7h1v1H14zM17 7h1v1H17zM9 8h1v1H9zM11 8h1v1H11zM12 8h1v1H12zM19 8h1v1H19zM20 8h1v1H20zM22 8h1v1H22zM4 9h1v1H4zM13 9h1v1H13zM18 9h1v1H18zM27 9h1v1H27zM4 10h1v1H4zM27 10h1v1H27zM11 11h1v1H11zM20 11h1v1H20zM12 12h1v1H12zM19 12h1v1H19zM13 13h1v1H13zM18 13h1v1H18zM4 14h1v1H4zM27 14h1v1H27zM4 15h1v1H4zM27 15h1v1H27zM7 17h1v1H7zM24 17h1v1H24zM7 20h1v1H7zM24 20h1v1H24zM7 21h1v1H7zM24 21h1v1H24zM4 25h1v1H4zM27 25h1v1H27z"/><path fill="#ffffff" d="M15 6h1v1H15zM16 6h1v1H16zM12 9h1v1H12zM19 9h1v1H19zM15 10h1v1H15zM16 10h1v1H16zM11 17h1v1H11zM12 17h1v1H12zM19 17h1v1H19zM20 17h1v1H20zM11 18h1v1H11zM12 18h1v1H12zM13 18h1v1H13zM18 18h1v1H18zM19 18h1v1H19zM20 18h1v1H20zM11 19h1v1H11zM12 19h1v1H12zM19 19h1v1H19zM20 19h1v1H20zM11 20h1v1H11zM12 20h1v1H12zM19 20h1v1H19zM20 20h1v1H20zM11 21h1v1H11zM12 21h1v1H12zM19 21h1v1H19zM20 21h1v1H20zM12 22h1v1H12zM13 22h1v1H13zM18 22h1v1H18zM19 22h1v1H19z"/><path fill="#c4ff0c" d="M15 7h1v1H15zM16 7h1v1H16zM15 8h1v1H15zM16 8h1v1H16zM12 10h1v1H12zM13 10h1v1H13zM18 10h1v1H18zM19 10h1v1H19zM12 11h1v1H12zM13 11h1v1H13zM18 11h1v1H18zM19 11h1v1H19z"/><path fill="#ab843c" d="M14 9h1v1H14zM17 9h1v1H17zM14 12h1v1H14zM17 12h1v1H17zM6 15h1v1H6zM10 15h1v1H10zM11 15h1v1H11zM20 15h1v1H20zM21 15h1v1H21zM25 15h1v1H25zM7 16h1v1H7zM24 16h1v1H24zM7 22h1v1H7zM24 22h1v1H24zM7 23h1v1H7zM24 23h1v1H24zM14 25h1v1H14zM17 25h1v1H17z"/><path fill="#b6e034" d="M13 12h1v1H13zM18 12h1v1H18zM15 13h1v1H15zM16 13h1v1H16z"/><path fill="#000000" d="M10 16h1v1H10zM21 16h1v1H21zM10 17h1v1H10zM21 17h1v1H21zM9 18h1v1H9zM14 18h1v1H14zM15 18h1v1H15zM16 18h1v1H16zM17 18h1v1H17zM22 18h1v1H22zM9 19h1v1H9zM13 19h1v1H13zM14 19h1v1H14zM15 19h1v1H15zM16 19h1v1H16zM17 19h1v1H17zM18 19h1v1H18zM22 19h1v1H22zM9 20h1v1H9zM13 20h1v1H13zM14 20h1v1H14zM15 20h1v1H15zM16 20h1v1H16zM17 20h1v1H17zM18 20h1v1H18zM22 20h1v1H22zM9 21h1v1H9zM10 21h1v1H10zM14 21h1v1H14zM15 21h1v1H15zM16 21h1v1H16zM17 21h1v1H17zM21 21h1v1H21zM22 21h1v1H22zM10 22h1v1H10zM11 22h1v1H11zM14 22h1v1H14zM15 22h1v1H15zM16 22h1v1H16zM17 22h1v1H17zM20 22h1v1H20zM21 22h1v1H21zM11 23h1v1H11zM12 23h1v1H12zM13 23h1v1H13zM14 23h1v1H14zM15 23h1v1H15zM16 23h1v1H16zM17 23h1v1H17zM18 23h1v1H18zM19 23h1v1H19zM20 23h1v1H20zM12 24h1v1H12zM13 24h1v1H13zM14 24h1v1H14zM15 24h1v1H15zM16 24h1v1H16zM17 24h1v1H17zM18 24h1v1H18zM19 24h1v1H19z"/></svg>
