<svg xmlns="http://www.w3.org/2000/svg" viewBox="0 0 32 32" shape-rendering="crispEdges"><path fill="#92d112" d="M14 1h1v1H14zM17 1h1v1H17zM6 2h1v1H6zM12 2h1v1H12zM19 2h1v1H19zM25 2h1v1H25zM6 3h1v1H6zM7 3h1v1H7zM10 3h1v1H10zM15 3h1v1H15zM16 3h1v1H16zM21 3h1v1H21zM25 3h1v1H25zM26 3h1v1H26zM11 4h1v1H11zM20 4h1v1H20zM6 5h1v1H6zM9 5h1v1H9zM13 5h1v1H13zM18 5h1v1H18zM22 5h1v1H22zM25 5h1v1H25zM7 6h1v1H7zM12 6h1v1H12zM13 6h1v1H13zM18 6h1v1H18zM19 6h1v1H19zM24 6h1v1H24zM4 7h1v1H4zM8 7h1v1H8zM10 7h1v1H10zM12 7h1v1H12zM19 7h1v1H19zM21 7h1v1H21zM23 7h1v1H23zM27 7h1v1H27zM5 8h1v1H5zM9 8h1v1H9zM11 8h1v1H11zM20 8h1v1H20zM22 8h1v1H22zM26 8h1v1H26zM9 10h1v1H9zM22 10h1v1H22zM3 11h1v1H3zM11 11h1v1H11zM20 11h1v1H20zM30 11h1v1H30zM2 12h1v1H2zM29 12h1v1H29zM3 13h1v1H3zM28 13h1v1H28zM3 14h1v1H3zM4 14h1v1H4zM27 14h1v1H27zM28 14h1v1H28zM2 15h1v1H2zM8 15h1v1H8zM23 15h1v1H23zM29 15h1v1H29zM3 16h1v1H3zM8 16h1v1H8zM23 16h1v1H23zM28 16h1v1H28zM8 17h1v1H8zM23 17h1v1H23zM2 21h1v1H2zM3 21h1v1H3zM28 21h1v1H28zM29 21h1v1H29zM7 24h1v1H7zM24 24h1v1H24zM6 25h1v1H6zM8 25h1v1H8zM13 25h1v1H13zM18 25h1v1H18zM23 25h1v1H23zM25 25h1v1H25zM5 26h1v1H5zM26 26h1v1H26z"/><path fill="#489a16" d="M14 2h1v1H14zM17 2h1v1H17zM14 3h1v1H14zM17 3h1v1H17zM5 4h1v1H5zM13 4h1v1H13zM15 4h1v1H15zM16 4h1v1H16zM18 4h1v1H18zM26 4h1v1H26zM8 5h1v1H8zM11 5h1v1H11zM15 5h1v1H15zM16 5h1v1H16zM20 5h1v1H20zM23 5h1v1H23zM9 6h1v1H9zM10 6h1v1H10zM14 6h1v1H14zM17 6h1v1H17zM21 6h1v1H21zM22 6h1v1H22zM7 7h1v1H7zM13 7h1v1H13zM18 7h1v1H18zM24 7h1v1H24zM8 8h1v1H8zM10 8h1v1H10zM21 8h1v1H21zM23 8h1v1H23zM6 9h1v1H6zM7 9h1v1H7zM8 9h1v1H8zM12 9h1v1H12zM15 9h1v1H15zM16 9h1v1H16zM19 9h1v1H19zM23 9h1v1H23zM24 9h1v1H24zM25 9h1v1H25zM8 10h1v1H8zM23 10h1v1H23zM9 11h1v1H9zM15 11h1v1H15zM16 11h1v1H16zM22 11h1v1H22zM12 12h1v1H12zM19 12h1v1H19zM2 13h1v1H2zM5 13h1v1H5zM12 13h1v1H12zM19 13h1v1H19zM26 13h1v1H26zM29 13h1v1H29zM1 14h1v1H1zM5 14h1v1H5zM11 14h1v1H11zM13 14h1v1H13zM18 14h1v1H18zM20 14h1v1H20zM26 14h1v1H26zM30 14h1v1H30zM7 15h1v1H7zM10 15h1v1H10zM13 15h1v1H13zM18 15h1v1H18zM21 15h1v1H21zM24 15h1v1H24zM7 16h1v1H7zM16 16h1v1H16zM24 16h1v1H24zM16 17h1v1H16zM5 19h1v1H5zM7 19h1v1H7zM24 19h1v1H24zM26 19h1v1H26zM4 20h1v1H4zM27 20h1v1H27zM8 21h1v1H8zM23 21h1v1H23zM2 22h1v1H2zM9 22h1v1H9zM22 22h1v1H22zM29 22h1v1H29zM10 23h1v1H10zM21 23h1v1H21zM12 24h1v1H12zM14 24h1v1H14zM17 24h1v1H17zM19 24h1v1H19zM15 25h1v1H15zM16 25h1v1H16zM13 26h1v1H13zM18 26h1v1H18zM4 27h1v1H4zM27 27h1v1H27zM8 28h1v1H8zM13 28h1v1H13zM18 28h1v1H18zM23 28h1v1H23z"/><path fill="#0e5216" d="M13 3h1v1H13zM18 3h1v1H18zM7 4h1v1H7zM10 4h1v1H10zM12 4h1v1H12zM19 4h1v1H19zM21 4h1v1H21zM24 4h1v1H24zM5 5h1v1H5zM7 5h1v1H7zM10 5h1v1H10zM12 5h1v1H12zM19 5h1v1H19zM21 5h1v1H21zM24 5h1v1H24zM26 5h1v1H26zM5 6h1v1H5zM8 6h1v1H8zM23 6h1v1H23zM26 6h1v1H26zM5 7h1v1H5zM6 7h1v1H6zM9 7h1v1H9zM14 7h1v1H14zM17 7h1v1H17zM22 7h1v1H22zM25 7h1v1H25zM26 7h1v1H26zM13 8h1v1H13zM18 8h1v1H18zM13 9h1v1H13zM18 9h1v1H18zM10 10h1v1H10zM13 10h1v1H13zM18 10h1v1H18zM21 10h1v1H21zM10 11h1v1H10zM12 11h1v1H12zM13 11h1v1H13zM18 11h1v1H18zM19 11h1v1H19zM21 11h1v1H21zM6 15h1v1H6zM9 15h1v1H9zM22 15h1v1H22zM25 15h1v1H25zM5 20h1v1H5zM26 20h1v1H26zM7 23h1v1H7zM8 23h1v1H8zM23 23h1v1H23zM24 23h1v1H24zM8 24h1v1H8zM13 24h1v1H13zM18 24h1v1H18zM23 24h1v1H23zM14 25h1v1H14zM17 25h1v1H17zM7 28h1v1H7zM24 28h1v1H24z"/><path fill="#176c1a" d="M6 4h1v1H6zM9 4h1v1H9zM14 4h1v1H14zM17 4h1v1H17zM22 4h1v1H22zM25 4h1v1H25zM14 5h1v1H14zM17 5h1v1H17zM6 6h1v1H6zM11 6h1v1H11zM15 6h1v1H15zM16 6h1v1H16zM20 6h1v1H20zM25 6h1v1H25zM11 7h1v1H11zM20 7h1v1H20zM4 8h1v1H4zM6 8h1v1H6zM7 8h1v1H7zM12 8h1v1H12zM19 8h1v1H19zM24 8h1v1H24zM25 8h1v1H25zM27 8h1v1H27zM9 9h1v1H9zM10 9h1v1H10zM11 9h1v1H11zM20 9h1v1H20zM21 9h1v1H21zM22 9h1v1H22zM7 10h1v1H7zM11 10h1v1H11zM12 10h1v1H12zM15 10h1v1H15zM16 10h1v1H16zM19 10h1v1H19zM20 10h1v1H20zM24 10h1v1H24zM11 12h1v1H11zM13 12h1v1H13zM15 12h1v1H15zM16 12h1v1H16zM18 12h1v1H18zM20 12h1v1H20zM4 13h1v1H4zM27 13h1v1H27zM2 14h1v1H2zM7 14h1v1H7zM24 14h1v1H24zM29 14h1v1H29zM3 15h1v1H3zM14 15h1v1H14zM17 15h1v1H17zM28 15h1v1H28zM2 16h1v1H2zM9 16h1v1H9zM15 16h1v1H15zM22 16h1v1H22zM29 16h1v1H29zM3 22h1v1H3zM8 22h1v1H8zM23 22h1v1H23zM28 22h1v1H28zM9 23h1v1H9zM22 23h1v1H22zM7 25h1v1H7zM12 25h1v1H12zM19 25h1v1H19zM24 25h1v1H24zM6 26h1v1H6zM8 26h1v1H8zM23 26h1v1H23zM25 26h1v1H25z"/><path fill="#a5a549" d="M15 7h1v1H15zM16 7h1v1H16zM14 8h1v1H14zM17 8h1v1H17zM5 9h1v1H5zM26 9h1v1H26zM6 11h1v1H6zM8 11h1v1H8zM23 11h1v1H23zM25 11h1v1H25zM7 12h1v1H7zM10 12h1v1H10zM14 12h1v1H14zM17 12h1v1H17zM21 12h1v1H21zM24 12h1v1H24zM8 13h1v1H8zM9 13h1v1H9zM14 13h1v1H14zM17 13h1v1H17zM22 13h1v1H22zM23 13h1v1H23zM10 14h1v1H10zM12 14h1v1H12zM19 14h1v1H19zM21 14h1v1H21zM2 17h1v1H2zM29 17h1v1H29zM2 18h1v1H2zM29 18h1v1H29zM8 19h1v1H8zM23 19h1v1H23zM2 20h1v1H2zM29 20h1v1H29zM4 23h1v1H4zM27 23h1v1H27zM3 24h1v1H3zM11 24h1v1H11zM20 24h1v1H20zM28 24h1v1H28zM7 26h1v1H7zM10 26h1v1H10zM21 26h1v1H21zM24 26h1v1H24zM5 27h1v1H5zM13 27h1v1H13zM14 27h1v1H14zM17 27h1v1H17zM18 27h1v1H18zM26 27h1v1H26z"/><path fill="#e0e393" d="M15 8h1v1H15zM16 8h1v1H16zM14 9h1v1H14zM17 9h1v1H17zM5 10h1v1H5zM14 10h1v1H14zM17 10h1v1H17zM26 10h1v1H26zM7 11h1v1H7zM24 11h1v1H24zM8 12h1v1H8zM9 12h1v1H9zM22 12h1v1H22zM23 12h1v1H23zM10 13h1v1H10zM11 13h1v1H11zM20 13h1v1H20zM21 13h1v1H21zM15 14h1v1H15zM16 14h1v1H16zM3 17h1v1H3zM7 17h1v1H7zM24 17h1v1H24zM28 17h1v1H28zM3 18h1v1H3zM8 18h1v1H8zM23 18h1v1H23zM28 18h1v1H28zM2 19h1v1H2zM3 19h1v1H3zM28 19h1v1H28zM29 19h1v1H29zM8 20h1v1H8zM23 20h1v1H23zM8 27h1v1H8zM23 27h1v1H23z"/><path fill="#493218" d="M4 9h1v1H4zM27 9h1v1H27zM4 11h1v1H4zM27 11h1v1H27zM8 14h1v1H8zM23 14h1v1H23zM15 15h1v1H15zM16 15h1v1H16zM5 16h1v1H5zM26 16h1v1H26zM5 17h1v1H5zM26 17h1v1H26zM1 18h1v1H1zM30 18h1v1H30zM1 19h1v1H1zM4 19h1v1H4zM27 19h1v1H27zM30 19h1v1H30zM1 20h1v1H1zM30 20h1v1H30zM1 21h1v1H1zM6 21h1v1H6zM25 21h1v1H25zM30 21h1v1H30zM4 22h1v1H4zM5 22h1v1H5zM26 22h1v1H26zM27 22h1v1H27zM3 23h1v1H3zM5 23h1v1H5zM26 23h1v1H26zM28 23h1v1H28zM2 24h1v1H2zM4 24h1v1H4zM10 24h1v1H10zM15 24h1v1H15zM16 24h1v1H16zM21 24h1v1H21zM27 24h1v1H27zM29 24h1v1H29zM3 25h1v1H3zM11 25h1v1H11zM20 25h1v1H20zM28 25h1v1H28zM9 26h1v1H9zM15 26h1v1H15zM16 26h1v1H16zM22 26h1v1H22zM6 27h1v1H6zM9 27h1v1H9zM12 27h1v1H12zM15 27h1v1H15zM16 27h1v1H16zM19 27h1v1H19zM22 27h1v1H22zM25 27h1v1H25zM5 28h1v1H5zM12 28h1v1H12zM19 28h1v1H19zM26 28h1v1H26zM13 29h1v1H13zM18 29h1v1H18z"/><path fill="#654c29" d="M4 10h1v1H4zM6 10h1v1H6zM25 10h1v1H25zM27 10h1v1H27zM5 11h1v1H5zM14 11h1v1H14zM17 11h1v1H17zM26 11h1v1H26zM6 12h1v1H6zM25 12h1v1H25zM7 13h1v1H7zM13 13h1v1H13zM15 13h1v1H15zM16 13h1v1H16zM18 13h1v1H18zM24 13h1v1H24zM9 14h1v1H9zM14 14h1v1H14zM17 14h1v1H17zM22 14h1v1H22zM4 15h1v1H4zM27 15h1v1H27zM4 16h1v1H4zM27 16h1v1H27zM4 17h1v1H4zM27 17h1v1H27zM4 18h1v1H4zM7 18h1v1H7zM24 18h1v1H24zM27 18h1v1H27zM3 20h1v1H3zM6 20h1v1H6zM25 20h1v1H25zM28 20h1v1H28zM4 21h1v1H4zM27 21h1v1H27zM11 27h1v1H11zM20 27h1v1H20zM9 28h1v1H9zM14 28h1v1H14zM17 28h1v1H17zM22 28h1v1H22zM14 29h1v1H14zM17 29h1v1H17z"/><path fill="#252812" d="M5 12h1v1H5zM26 12h1v1H26zM6 13h1v1H6zM25 13h1v1H25zM6 14h1v1H6zM25 14h1v1H25zM5 15h1v1H5zM26 15h1v1H26zM6 16h1v1H6zM25 16h1v1H25zM1 17h1v1H1zM6 17h1v1H6zM25 17h1v1H25zM30 17h1v1H30zM5 18h1v1H5zM6 18h1v1H6zM25 18h1v1H25zM26 18h1v1H26zM6 19h1v1H6zM25 19h1v1H25zM7 20h1v1H7zM24 20h1v1H24zM5 21h1v1H5zM7 21h1v1H7zM24 21h1v1H24zM26 21h1v1H26zM1 22h1v1H1zM6 22h1v1H6zM7 22h1v1H7zM24 22h1v1H24zM25 22h1v1H25zM30 22h1v1H30zM2 23h1v1H2zM6 23h1v1H6zM25 23h1v1H25zM29 23h1v1H29zM5 24h1v1H5zM6 24h1v1H6zM9 24h1v1H9zM22 24h1v1H22zM25 24h1v1H25zM26 24h1v1H26zM2 25h1v1H2zM4 25h1v1H4zM5 25h1v1H5zM9 25h1v1H9zM10 25h1v1H10zM21 25h1v1H21zM22 25h1v1H22zM26 25h1v1H26zM27 25h1v1H27zM29 25h1v1H29zM4 26h1v1H4zM11 26h1v1H11zM12 26h1v1H12zM14 26h1v1H14zM17 26h1v1H17zM19 26h1v1H19zM20 26h1v1H20zM27 26h1v1H27zM7 27h1v1H7zM10 27h1v1H10zM21 27h1v1H21zM24 27h1v1H24zM4 28h1v1H4zM6 28h1v1H6zM11 28h1v1H11zM15 28h1v1H15zM16 28h1v1H16zM20 28h1v1H20zM25 28h1v1H25zM27 28h1v1H27z"/><path fill="#000000" d="M11 15h1v1H11zM12 15h1v1H12zM19 15h1v1H19zM20 15h1v1H20zM10 16h1v1H10zM11 16h1v1H11zM12 16h1v1H12zM13 16h1v1H13zM14 16h1v1H14zM17 16h1v1H17zM18 16h1v1H18zM19 16h1v1H19zM20 16h1v1H20zM21 16h1v1H21zM9 17h1v1H9zM10 17h1v1H10zM13 17h1v1H13zM14 17h1v1H14zM15 17h1v1H15zM17 17h1v1H17zM18 17h1v1H18zM21 17h1v1H21zM22 17h1v1H22zM9 18h1v1H9zM14 18h1v1H14zM15 18h1v1H15zM16 18h1v1H16zM17 18h1v1H17zM22 18h1v1H22zM9 19h1v1H9zM13 19h1v1H13zM14 19h1v1H14zM15 19h1v1H15zM16 19h1v1H16zM17 19h1v1H17zM18 19h1v1H18zM22 19h1v1H22zM9 20h1v1H9zM13 20h1v1H13zM14 20h1v1H14zM15 20h1v1H15zM16 20h1v1H16zM17 20h1v1H17zM18 20h1v1H18zM22 20h1v1H22zM9 21h1v1H9zM10 21h1v1H10zM14 21h1v1H14zM15 21h1v1H15zM16 21h1v1H16zM17 21h1v1H17zM21 21h1v1H21zM22 21h1v1H22zM10 22h1v1H10zM11 22h1v1H11zM14 22h1v1H14zM15 22h1v1H15zM16 22h1v1H16zM17 22h1v1H17zM20 22h1v1H20zM21 22h1v1H21zM11 23h1v1H11zM12 23h1v1H12zM13 23h1v1H13zM14 23h1v1H14zM15 23h1v1H15zM16 23h1v1H16zM17 23h1v1H17zM18 23h1v1H18zM19 23h1v1H19zM20 23h1v1H20z"/><path fill="#ffffff" d="M11 17h1v1H11zM12 17h1v1H12zM19 17h1v1H19zM20 17h1v1H20zM11 18h1v1H11zM12 18h1v1H12zM13 18h1v1H13zM18 18h1v1H18zM19 18h1v1H19zM20 18h1v1H20zM11 19h1v1H11zM12 19h1v1H12zM19 19h1v1H19zM20 19h1v1H20zM11 20h1v1H11zM12 20h1v1H12zM19 20h1v1H19zM20 20h1v1H20zM11 21h1v1H11zM12 21h1v1H12zM19 21h1v1H19zM20 21h1v1H20zM12 22h1v1H12zM13 22h1v1H13zM18 22h1v1H18zM19 22h1v1H19z"/><path fill="#8dc619" d="M10 18h1v1H10zM21 18h1v1H21z"/><path fill="#1a671c" d="M10 19h1v1H10zM21 19h1v1H21zM13 21h1v1H13zM18 21h1v1H18z"/><path fill="#104e17" d="M10 20h1v1H10zM21 20h1v1H21z"/></svg>
