<svg xmlns="http://www.w3.org/2000/svg" viewBox="0 0 32 32" shape-rendering="crispEdges"><path fill="#f9e072" d="M5 1h1v1H5zM9 1h1v1H9zM22 1h1v1H22zM26 1h1v1H26zM4 2h1v1H4zM9 2h1v1H9zM22 2h1v1H22zM27 2h1v1H27zM4 3h1v1H4zM27 3h1v1H27zM15 4h1v1H15zM16 4h1v1H16zM6 5h1v1H6zM25 5h1v1H25zM8 11h1v1H8zM9 11h1v1H9zM22 11h1v1H22zM23 11h1v1H23zM8 12h1v1H8zM23 12h1v1H23zM15 23h1v1H15zM16 23h1v1H16zM15 25h1v1H15zM16 25h1v1H16z"/><path fill="#2b1001" d="M6 1h1v1H6zM25 1h1v1H25zM6 2h1v1H6zM25 2h1v1H25zM12 5h1v1H12zM19 5h1v1H19zM10 6h1v1H10zM21 6h1v1H21zM12 10h1v1H12zM19 10h1v1H19zM8 15h1v1H8zM13 15h1v1H13zM18 15h1v1H18zM23 15h1v1H23zM8 16h1v1H8zM23 16h1v1H23zM15 18h1v1H15zM16 18h1v1H16zM15 19h1v1H15zM16 19h1v1H16zM15 22h1v1H15zM16 22h1v1H16zM4 27h1v1H4zM8 27h1v1H8zM23 27h1v1H23zM27 27h1v1H27zM5 28h1v1H5zM8 28h1v1H8zM23 28h1v1H23zM26 28h1v1H26zM6 29h1v1H6zM7 29h1v1H7zM24 29h1v1H24zM25 29h1v1H25z"/><path fill="#f4c064" d="M10 1h1v1H10zM21 1h1v1H21zM5 2h1v1H5zM26 2h1v1H26z"/><path fill="#1b0a01" d="M11 1h1v1H11zM20 1h1v1H20zM11 2h1v1H11zM20 2h1v1H20zM6 3h1v1H6zM25 3h1v1H25zM4 4h1v1H4zM6 4h1v1H6zM12 4h1v1H12zM19 4h1v1H19zM25 4h1v1H25zM27 4h1v1H27zM4 5h1v1H4zM7 5h1v1H7zM9 5h1v1H9zM22 5h1v1H22zM24 5h1v1H24zM27 5h1v1H27zM8 7h1v1H8zM15 7h1v1H15zM16 7h1v1H16zM23 7h1v1H23zM4 8h1v1H4zM9 8h1v1H9zM22 8h1v1H22zM27 8h1v1H27zM10 9h1v1H10zM11 9h1v1H11zM12 9h1v1H12zM19 9h1v1H19zM20 9h1v1H20zM21 9h1v1H21zM6 10h1v1H6zM7 10h1v1H7zM11 10h1v1H11zM20 10h1v1H20zM24 10h1v1H24zM25 10h1v1H25zM10 11h1v1H10zM21 11h1v1H21zM15 14h1v1H15zM16 14h1v1H16zM2 15h1v1H2zM6 15h1v1H6zM25 15h1v1H25zM29 15h1v1H29zM3 16h1v1H3zM6 16h1v1H6zM9 16h1v1H9zM22 16h1v1H22zM25 16h1v1H25zM28 16h1v1H28zM9 17h1v1H9zM22 17h1v1H22zM9 18h1v1H9zM22 18h1v1H22zM9 19h1v1H9zM22 19h1v1H22zM9 20h1v1H9zM15 20h1v1H15zM16 20h1v1H16zM22 20h1v1H22zM9 21h1v1H9zM15 21h1v1H15zM16 21h1v1H16zM22 21h1v1H22zM3 25h1v1H3zM7 25h1v1H7zM24 25h1v1H24zM28 25h1v1H28zM3 26h1v1H3zM28 26h1v1H28zM6 28h1v1H6zM7 28h1v1H7zM24 28h1v1H24zM25 28h1v1H25zM8 30h1v1H8zM10 30h1v1H10zM21 30h1v1H21zM23 30h1v1H23z"/><path fill="#ffffff" d="M15 1h1v1H15zM16 1h1v1H16zM15 10h1v1H15zM16 10h1v1H16zM15 11h1v1H15zM16 11h1v1H16zM4 21h1v1H4zM27 21h1v1H27z"/><path fill="#ad5b27" d="M10 2h1v1H10zM21 2h1v1H21zM5 3h1v1H5zM9 3h1v1H9zM10 3h1v1H10zM21 3h1v1H21zM22 3h1v1H22zM26 3h1v1H26zM5 4h1v1H5zM26 4h1v1H26zM6 7h1v1H6zM7 7h1v1H7zM24 7h1v1H24zM25 7h1v1H25zM8 13h1v1H8zM23 13h1v1H23zM8 14h1v1H8zM23 14h1v1H23zM7 17h1v1H7zM24 17h1v1H24zM8 18h1v1H8zM23 18h1v1H23zM9 22h1v1H9zM22 22h1v1H22zM13 24h1v1H13zM18 24h1v1H18zM14 25h1v1H14zM17 25h1v1H17zM13 26h1v1H13zM18 26h1v1H18z"/><path fill="#f03720" d="M15 2h1v1H15zM16 2h1v1H16zM14 10h1v1H14zM17 10h1v1H17zM14 11h1v1H14zM17 11h1v1H17zM5 21h1v1H5zM13 21h1v1H13zM18 21h1v1H18zM26 21h1v1H26zM5 22h1v1H5zM26 22h1v1H26z"/><path fill="#5f250a" d="M11 3h1v1H11zM20 3h1v1H20zM9 4h1v1H9zM10 4h1v1H10zM11 4h1v1H11zM20 4h1v1H20zM21 4h1v1H21zM22 4h1v1H22zM5 5h1v1H5zM10 5h1v1H10zM11 5h1v1H11zM20 5h1v1H20zM21 5h1v1H21zM26 5h1v1H26zM5 6h1v1H5zM6 6h1v1H6zM11 6h1v1H11zM20 6h1v1H20zM25 6h1v1H25zM26 6h1v1H26zM11 7h1v1H11zM20 7h1v1H20zM7 8h1v1H7zM8 8h1v1H8zM23 8h1v1H23zM24 8h1v1H24zM8 9h1v1H8zM9 9h1v1H9zM22 9h1v1H22zM23 9h1v1H23zM9 10h1v1H9zM10 10h1v1H10zM21 10h1v1H21zM22 10h1v1H22z"/><path fill="#890106" d="M15 3h1v1H15zM16 3h1v1H16zM13 10h1v1H13zM18 10h1v1H18zM15 13h1v1H15zM16 13h1v1H16zM12 19h1v1H12zM19 19h1v1H19zM2 21h1v1H2zM29 21h1v1H29zM6 22h1v1H6zM25 22h1v1H25zM3 23h1v1H3zM6 23h1v1H6zM25 23h1v1H25zM28 23h1v1H28zM4 24h1v1H4zM5 24h1v1H5zM26 24h1v1H26zM27 24h1v1H27z"/><path fill="#b80211" d="M14 4h1v1H14zM17 4h1v1H17zM15 9h1v1H15zM16 9h1v1H16zM14 12h1v1H14zM17 12h1v1H17zM10 17h1v1H10zM21 17h1v1H21zM4 23h1v1H4zM5 23h1v1H5zM26 23h1v1H26zM27 23h1v1H27z"/><path fill="#610100" d="M14 5h1v1H14zM17 5h1v1H17zM13 11h1v1H13zM18 11h1v1H18zM13 12h1v1H13zM18 12h1v1H18zM14 13h1v1H14zM17 13h1v1H17zM10 16h1v1H10zM21 16h1v1H21zM13 20h1v1H13zM18 20h1v1H18zM2 22h1v1H2zM7 22h1v1H7zM24 22h1v1H24zM29 22h1v1H29zM2 23h1v1H2zM7 23h1v1H7zM24 23h1v1H24zM29 23h1v1H29zM3 24h1v1H3zM6 24h1v1H6zM25 24h1v1H25zM28 24h1v1H28z"/><path fill="#ed671e" d="M15 5h1v1H15zM16 5h1v1H16zM3 14h1v1H3zM28 14h1v1H28zM4 15h1v1H4zM27 15h1v1H27zM5 16h1v1H5zM26 16h1v1H26zM4 26h1v1H4zM7 26h1v1H7zM24 26h1v1H24zM27 26h1v1H27zM5 27h1v1H5zM26 27h1v1H26z"/><path fill="#260e01" d="M4 6h1v1H4zM7 6h1v1H7zM24 6h1v1H24zM27 6h1v1H27zM5 7h1v1H5zM26 7h1v1H26zM6 8h1v1H6zM25 8h1v1H25zM7 9h1v1H7zM24 9h1v1H24zM6 17h1v1H6zM25 17h1v1H25zM6 18h1v1H6zM25 18h1v1H25z"/><path fill="#3b5506" d="M12 6h1v1H12zM13 6h1v1H13zM18 6h1v1H18zM19 6h1v1H19zM1 7h1v1H1zM2 7h1v1H2zM12 7h1v1H12zM19 7h1v1H19zM29 7h1v1H29zM30 7h1v1H30zM1 8h1v1H1zM30 8h1v1H30zM2 9h1v1H2zM13 9h1v1H13zM18 9h1v1H18zM29 9h1v1H29zM2 10h1v1H2zM29 10h1v1H29zM3 11h1v1H3zM6 11h1v1H6zM11 11h1v1H11zM12 11h1v1H12zM19 11h1v1H19zM20 11h1v1H20zM25 11h1v1H25zM28 11h1v1H28zM4 12h1v1H4zM5 12h1v1H5zM10 12h1v1H10zM21 12h1v1H21zM26 12h1v1H26zM27 12h1v1H27zM4 13h1v1H4zM9 13h1v1H9zM22 13h1v1H22zM27 13h1v1H27zM9 14h1v1H9zM12 14h1v1H12zM13 14h1v1H13zM18 14h1v1H18zM19 14h1v1H19zM22 14h1v1H22zM14 15h1v1H14zM17 15h1v1H17zM15 16h1v1H15zM16 16h1v1H16zM1 19h1v1H1zM4 19h1v1H4zM27 19h1v1H27zM30 19h1v1H30zM2 20h1v1H2zM29 20h1v1H29zM8 25h1v1H8zM23 25h1v1H23zM9 26h1v1H9zM22 26h1v1H22zM11 27h1v1H11zM20 27h1v1H20z"/><path fill="#172001" d="M14 6h1v1H14zM17 6h1v1H17zM3 7h1v1H3zM28 7h1v1H28zM12 8h1v1H12zM19 8h1v1H19zM1 9h1v1H1zM30 9h1v1H30zM1 10h1v1H1zM30 10h1v1H30zM5 13h1v1H5zM26 13h1v1H26zM5 18h1v1H5zM26 18h1v1H26zM6 19h1v1H6zM25 19h1v1H25zM6 20h1v1H6zM25 20h1v1H25zM8 23h1v1H8zM9 23h1v1H9zM22 23h1v1H22zM23 23h1v1H23zM8 24h1v1H8zM23 24h1v1H23zM8 26h1v1H8zM12 26h1v1H12zM19 26h1v1H19zM23 26h1v1H23zM9 27h1v1H9zM22 27h1v1H22zM10 28h1v1H10zM21 28h1v1H21z"/><path fill="#380c01" d="M15 6h1v1H15zM16 6h1v1H16z"/><path fill="#84ae10" d="M13 7h1v1H13zM14 7h1v1H14zM17 7h1v1H17zM18 7h1v1H18zM2 8h1v1H2zM3 8h1v1H3zM14 8h1v1H14zM17 8h1v1H17zM28 8h1v1H28zM29 8h1v1H29zM3 9h1v1H3zM4 9h1v1H4zM27 9h1v1H27zM28 9h1v1H28zM5 10h1v1H5zM26 10h1v1H26zM6 12h1v1H6zM25 12h1v1H25zM6 13h1v1H6zM10 13h1v1H10zM21 13h1v1H21zM25 13h1v1H25zM10 14h1v1H10zM11 14h1v1H11zM20 14h1v1H20zM21 14h1v1H21zM14 16h1v1H14zM17 16h1v1H17zM15 17h1v1H15zM16 17h1v1H16zM3 18h1v1H3zM28 18h1v1H28zM2 19h1v1H2zM29 19h1v1H29zM9 24h1v1H9zM10 24h1v1H10zM21 24h1v1H21zM22 24h1v1H22zM9 25h1v1H9zM10 25h1v1H10zM21 25h1v1H21zM22 25h1v1H22zM12 27h1v1H12zM19 27h1v1H19zM11 28h1v1H11zM12 28h1v1H12zM19 28h1v1H19zM20 28h1v1H20z"/><path fill="#64830e" d="M13 8h1v1H13zM15 8h1v1H15zM16 8h1v1H16zM18 8h1v1H18zM14 9h1v1H14zM17 9h1v1H17zM3 10h1v1H3zM4 10h1v1H4zM27 10h1v1H27zM28 10h1v1H28zM4 11h1v1H4zM5 11h1v1H5zM26 11h1v1H26zM27 11h1v1H27zM11 12h1v1H11zM20 12h1v1H20zM11 13h1v1H11zM12 13h1v1H12zM19 13h1v1H19zM20 13h1v1H20zM2 18h1v1H2zM4 18h1v1H4zM27 18h1v1H27zM29 18h1v1H29zM3 19h1v1H3zM5 19h1v1H5zM26 19h1v1H26zM28 19h1v1H28zM11 25h1v1H11zM20 25h1v1H20zM10 26h1v1H10zM11 26h1v1H11zM20 26h1v1H20zM21 26h1v1H21zM10 27h1v1H10zM21 27h1v1H21z"/><path fill="#4e2607" d="M5 9h1v1H5zM26 9h1v1H26zM2 13h1v1H2zM29 13h1v1H29zM2 14h1v1H2zM29 14h1v1H29z"/><path fill="#2e1101" d="M8 10h1v1H8zM23 10h1v1H23zM14 29h1v1H14zM17 29h1v1H17z"/><path fill="#131801" d="M2 11h1v1H2zM7 11h1v1H7zM24 11h1v1H24zM29 11h1v1H29zM3 12h1v1H3zM7 12h1v1H7zM12 12h1v1H12zM19 12h1v1H19zM24 12h1v1H24zM28 12h1v1H28zM7 13h1v1H7zM13 13h1v1H13zM18 13h1v1H18zM24 13h1v1H24zM5 14h1v1H5zM6 14h1v1H6zM14 14h1v1H14zM17 14h1v1H17zM25 14h1v1H25zM26 14h1v1H26zM15 15h1v1H15zM16 15h1v1H16zM7 19h1v1H7zM24 19h1v1H24zM1 20h1v1H1zM5 20h1v1H5zM7 20h1v1H7zM24 20h1v1H24zM26 20h1v1H26zM30 20h1v1H30zM6 21h1v1H6zM7 21h1v1H7zM24 21h1v1H24zM25 21h1v1H25zM13 27h1v1H13zM18 27h1v1H18zM13 28h1v1H13zM18 28h1v1H18zM11 29h1v1H11zM12 29h1v1H12zM13 29h1v1H13zM18 29h1v1H18zM19 29h1v1H19zM20 29h1v1H20z"/><path fill="#1e0d01" d="M2 12h1v1H2zM29 12h1v1H29z"/><path fill="#fdb83d" d="M9 12h1v1H9zM22 12h1v1H22zM7 14h1v1H7zM24 14h1v1H24zM8 21h1v1H8zM23 21h1v1H23zM10 23h1v1H10zM21 23h1v1H21zM12 24h1v1H12zM14 24h1v1H14zM15 24h1v1H15zM16 24h1v1H16zM17 24h1v1H17zM19 24h1v1H19zM15 27h1v1H15zM16 27h1v1H16zM14 28h1v1H14zM15 28h1v1H15zM16 28h1v1H16zM17 28h1v1H17zM15 29h1v1H15zM16 29h1v1H16z"/><path fill="#ea1c1c" d="M15 12h1v1H15zM16 12h1v1H16zM10 18h1v1H10zM21 18h1v1H21zM12 20h1v1H12zM19 20h1v1H19zM3 21h1v1H3zM28 21h1v1H28zM3 22h1v1H3zM4 22h1v1H4zM27 22h1v1H27zM28 22h1v1H28z"/><path fill="#c83211" d="M3 13h1v1H3zM28 13h1v1H28zM4 14h1v1H4zM27 14h1v1H27zM5 15h1v1H5zM26 15h1v1H26zM4 25h1v1H4zM27 25h1v1H27zM5 26h1v1H5zM26 26h1v1H26zM6 27h1v1H6zM25 27h1v1H25z"/><path fill="#b6290c" d="M3 15h1v1H3zM28 15h1v1H28zM4 16h1v1H4zM27 16h1v1H27zM5 17h1v1H5zM26 17h1v1H26z"/><path fill="#cd7434" d="M7 15h1v1H7zM24 15h1v1H24zM7 16h1v1H7zM24 16h1v1H24zM9 28h1v1H9zM22 28h1v1H22zM8 29h1v1H8zM10 29h1v1H10zM21 29h1v1H21zM23 29h1v1H23zM9 30h1v1H9zM22 30h1v1H22z"/><path fill="#401703" d="M9 15h1v1H9zM22 15h1v1H22zM7 18h1v1H7zM24 18h1v1H24zM8 19h1v1H8zM23 19h1v1H23zM8 20h1v1H8zM23 20h1v1H23z"/><path fill="#0d0500" d="M10 15h1v1H10zM11 15h1v1H11zM12 15h1v1H12zM19 15h1v1H19zM20 15h1v1H20zM21 15h1v1H21zM14 17h1v1H14zM17 17h1v1H17zM14 18h1v1H14zM17 18h1v1H17zM14 19h1v1H14zM17 19h1v1H17zM14 20h1v1H14zM17 20h1v1H17zM10 21h1v1H10zM14 21h1v1H14zM17 21h1v1H17zM21 21h1v1H21zM10 22h1v1H10zM11 22h1v1H11zM14 22h1v1H14zM17 22h1v1H17zM20 22h1v1H20zM21 22h1v1H21zM11 23h1v1H11zM12 23h1v1H12zM13 23h1v1H13zM14 23h1v1H14zM17 23h1v1H17zM18 23h1v1H18zM19 23h1v1H19zM20 23h1v1H20z"/><path fill="#fafafa" d="M11 16h1v1H11zM12 16h1v1H12zM19 16h1v1H19zM20 16h1v1H20zM11 17h1v1H11zM13 17h1v1H13zM18 17h1v1H18zM20 17h1v1H20zM11 18h1v1H11zM20 18h1v1H20zM10 19h1v1H10zM11 19h1v1H11zM20 19h1v1H20zM21 19h1v1H21zM10 20h1v1H10zM11 20h1v1H11zM20 20h1v1H20zM21 20h1v1H21zM11 21h1v1H11zM12 21h1v1H12zM19 21h1v1H19zM20 21h1v1H20zM12 22h1v1H12zM13 22h1v1H13zM18 22h1v1H18zM19 22h1v1H19z"/><path fill="#000004" d="M13 16h1v1H13zM18 16h1v1H18zM12 17h1v1H12zM19 17h1v1H19zM12 18h1v1H12zM13 18h1v1H13zM18 18h1v1H18zM19 18h1v1H19zM13 19h1v1H13zM18 19h1v1H18z"/><path fill="#263501" d="M2 17h1v1H2zM3 17h1v1H3zM4 17h1v1H4zM27 17h1v1H27zM28 17h1v1H28zM29 17h1v1H29zM1 18h1v1H1zM30 18h1v1H30z"/><path fill="#e0ae59" d="M8 17h1v1H8zM23 17h1v1H23zM8 22h1v1H8zM23 22h1v1H23zM7 24h1v1H7zM24 24h1v1H24z"/><path fill="#8b100c" d="M3 20h1v1H3zM4 20h1v1H4zM27 20h1v1H27zM28 20h1v1H28z"/><path fill="#e79444" d="M11 24h1v1H11zM20 24h1v1H20zM12 25h1v1H12zM13 25h1v1H13zM18 25h1v1H18zM19 25h1v1H19zM15 26h1v1H15zM16 26h1v1H16zM9 29h1v1H9zM22 29h1v1H22z"/><path fill="#feaa3a" d="M5 25h1v1H5zM26 25h1v1H26zM6 26h1v1H6zM25 26h1v1H25zM7 27h1v1H7zM24 27h1v1H24z"/><path fill="#bd300c" d="M6 25h1v1H6zM25 25h1v1H25z"/><path fill="#6b2e0f" d="M14 26h1v1H14zM17 26h1v1H17z"/><path fill="#ba5310" d="M14 27h1v1H14zM17 27h1v1H17z"/></svg>
