<svg xmlns="http://www.w3.org/2000/svg" viewBox="0 0 32 32" shape-rendering="crispEdges"><path fill="#e5e4e4" d="M15 1h1v1H15zM16 1h1v1H16zM14 2h1v1H14zM15 2h1v1H15zM14 3h1v1H14zM15 3h1v1H15zM14 4h1v1H14zM14 6h1v1H14zM13 7h1v1H13zM14 7h1v1H14zM13 8h1v1H13zM14 8h1v1H14zM15 8h1v1H15zM13 9h1v1H13zM8 24h1v1H8zM11 24h1v1H11zM12 24h1v1H12zM19 24h1v1H19zM20 24h1v1H20zM23 24h1v1H23zM8 25h1v1H8zM10 25h1v1H10zM11 25h1v1H11zM20 25h1v1H20zM21 25h1v1H21zM23 25h1v1H23zM9 26h1v1H9zM22 26h1v1H22z"/><path fill="#585960" d="M16 2h1v1H16zM17 2h1v1H17zM16 3h1v1H16zM17 3h1v1H17zM17 4h1v1H17zM10 8h1v1H10zM21 8h1v1H21zM6 15h1v1H6zM25 15h1v1H25zM1 18h1v1H1zM30 18h1v1H30zM10 20h1v1H10zM21 20h1v1H21zM3 23h1v1H3zM8 23h1v1H8zM23 23h1v1H23zM28 23h1v1H28zM1 25h1v1H1zM30 25h1v1H30zM2 26h1v1H2zM11 26h1v1H11zM12 26h1v1H12zM19 26h1v1H19zM20 26h1v1H20zM29 26h1v1H29zM2 27h1v1H2zM29 27h1v1H29zM7 28h1v1H7zM24 28h1v1H24z"/><path fill="#272831" d="M13 4h1v1H13zM18 4h1v1H18zM10 6h1v1H10zM21 6h1v1H21zM8 7h1v1H8zM23 7h1v1H23zM7 8h1v1H7zM12 8h1v1H12zM19 8h1v1H19zM24 8h1v1H24zM7 9h1v1H7zM10 9h1v1H10zM21 9h1v1H21zM24 9h1v1H24zM5 13h1v1H5zM26 13h1v1H26zM5 14h1v1H5zM15 14h1v1H15zM16 14h1v1H16zM26 14h1v1H26zM0 17h1v1H0zM31 17h1v1H31zM0 19h1v1H0zM31 19h1v1H31zM0 20h1v1H0zM31 20h1v1H31zM0 21h1v1H0zM31 21h1v1H31z"/><path fill="#4c4c56" d="M15 4h1v1H15zM14 5h1v1H14zM13 6h1v1H13zM7 25h1v1H7zM24 25h1v1H24zM7 26h1v1H7zM24 26h1v1H24zM15 29h1v1H15zM16 29h1v1H16z"/><path fill="#47474f" d="M16 4h1v1H16zM17 5h1v1H17zM18 6h1v1H18zM11 7h1v1H11zM20 7h1v1H20zM14 24h1v1H14zM17 24h1v1H17zM12 27h1v1H12zM19 27h1v1H19zM14 28h1v1H14zM17 28h1v1H17z"/><path fill="#202028" d="M12 5h1v1H12zM19 5h1v1H19zM12 6h1v1H12zM19 6h1v1H19zM12 7h1v1H12zM19 7h1v1H19zM11 9h1v1H11zM12 9h1v1H12zM19 9h1v1H19zM20 9h1v1H20z"/><path fill="#ababaf" d="M13 5h1v1H13zM16 5h1v1H16zM18 5h1v1H18zM16 6h1v1H16zM17 6h1v1H17zM9 7h1v1H9zM16 7h1v1H16zM17 7h1v1H17zM18 7h1v1H18zM22 7h1v1H22zM8 8h1v1H8zM9 8h1v1H9zM16 8h1v1H16zM17 8h1v1H17zM18 8h1v1H18zM22 8h1v1H22zM23 8h1v1H23zM8 9h1v1H8zM9 9h1v1H9zM18 9h1v1H18zM22 9h1v1H22zM23 9h1v1H23zM9 10h1v1H9zM10 10h1v1H10zM11 10h1v1H11zM20 10h1v1H20zM21 10h1v1H21zM22 10h1v1H22zM9 11h1v1H9zM10 11h1v1H10zM11 11h1v1H11zM12 11h1v1H12zM19 11h1v1H19zM20 11h1v1H20zM21 11h1v1H21zM22 11h1v1H22zM11 12h1v1H11zM12 12h1v1H12zM19 12h1v1H19zM20 12h1v1H20zM7 13h1v1H7zM24 13h1v1H24zM8 14h1v1H8zM23 14h1v1H23zM7 15h1v1H7zM8 15h1v1H8zM23 15h1v1H23zM24 15h1v1H24zM7 16h1v1H7zM24 16h1v1H24zM10 19h1v1H10zM21 19h1v1H21zM13 21h1v1H13zM18 21h1v1H18zM10 28h1v1H10zM11 28h1v1H11zM20 28h1v1H20zM21 28h1v1H21zM9 29h1v1H9zM10 29h1v1H10zM21 29h1v1H21zM22 29h1v1H22z"/><path fill="#fafafa" d="M15 5h1v1H15zM15 6h1v1H15zM15 7h1v1H15zM15 9h1v1H15zM16 9h1v1H16zM15 10h1v1H15zM16 10h1v1H16zM8 12h1v1H8zM9 12h1v1H9zM22 12h1v1H22zM23 12h1v1H23zM8 13h1v1H8zM9 13h1v1H9zM10 13h1v1H10zM11 13h1v1H11zM12 13h1v1H12zM13 13h1v1H13zM15 13h1v1H15zM16 13h1v1H16zM18 13h1v1H18zM19 13h1v1H19zM20 13h1v1H20zM21 13h1v1H21zM22 13h1v1H22zM23 13h1v1H23zM9 14h1v1H9zM10 14h1v1H10zM21 14h1v1H21zM22 14h1v1H22zM2 15h1v1H2zM3 15h1v1H3zM4 15h1v1H4zM9 15h1v1H9zM22 15h1v1H22zM27 15h1v1H27zM28 15h1v1H28zM29 15h1v1H29zM3 16h1v1H3zM4 16h1v1H4zM5 16h1v1H5zM8 16h1v1H8zM23 16h1v1H23zM26 16h1v1H26zM27 16h1v1H27zM28 16h1v1H28zM3 17h1v1H3zM4 17h1v1H4zM5 17h1v1H5zM6 17h1v1H6zM8 17h1v1H8zM23 17h1v1H23zM25 17h1v1H25zM26 17h1v1H26zM27 17h1v1H27zM28 17h1v1H28zM4 18h1v1H4zM5 18h1v1H5zM6 18h1v1H6zM8 18h1v1H8zM10 18h1v1H10zM21 18h1v1H21zM23 18h1v1H23zM25 18h1v1H25zM26 18h1v1H26zM27 18h1v1H27zM3 19h1v1H3zM8 19h1v1H8zM23 19h1v1H23zM28 19h1v1H28zM2 20h1v1H2zM3 20h1v1H3zM8 20h1v1H8zM23 20h1v1H23zM28 20h1v1H28zM29 20h1v1H29zM3 21h1v1H3zM8 21h1v1H8zM23 21h1v1H23zM28 21h1v1H28zM5 22h1v1H5zM6 22h1v1H6zM9 22h1v1H9zM22 22h1v1H22zM25 22h1v1H25zM26 22h1v1H26zM5 23h1v1H5zM6 23h1v1H6zM9 23h1v1H9zM22 23h1v1H22zM25 23h1v1H25zM26 23h1v1H26zM6 24h1v1H6zM15 24h1v1H15zM16 24h1v1H16zM25 24h1v1H25zM4 25h1v1H4zM5 25h1v1H5zM13 25h1v1H13zM18 25h1v1H18zM26 25h1v1H26zM27 25h1v1H27zM15 26h1v1H15zM16 26h1v1H16zM15 27h1v1H15zM16 27h1v1H16z"/><path fill="#40414a" d="M11 6h1v1H11zM20 6h1v1H20zM11 8h1v1H11zM20 8h1v1H20zM14 13h1v1H14zM17 13h1v1H17zM6 16h1v1H6zM25 16h1v1H25zM3 28h1v1H3zM28 28h1v1H28z"/><path fill="#64656e" d="M10 7h1v1H10zM21 7h1v1H21zM8 10h1v1H8zM23 10h1v1H23zM7 27h1v1H7zM24 27h1v1H24zM6 28h1v1H6zM13 28h1v1H13zM18 28h1v1H18zM25 28h1v1H25zM14 29h1v1H14zM17 29h1v1H17z"/><path fill="#45464f" d="M14 9h1v1H14zM17 9h1v1H17zM13 10h1v1H13zM18 10h1v1H18zM13 12h1v1H13zM18 12h1v1H18zM5 15h1v1H5zM26 15h1v1H26zM7 19h1v1H7zM24 19h1v1H24zM7 20h1v1H7zM24 20h1v1H24zM7 21h1v1H7zM24 21h1v1H24zM3 22h1v1H3zM7 22h1v1H7zM24 22h1v1H24zM28 22h1v1H28zM7 23h1v1H7zM24 23h1v1H24zM5 27h1v1H5zM26 27h1v1H26zM6 29h1v1H6zM25 29h1v1H25z"/><path fill="#34363f" d="M6 10h1v1H6zM25 10h1v1H25zM0 24h1v1H0zM31 24h1v1H31z"/><path fill="#2b2d36" d="M7 10h1v1H7zM24 10h1v1H24z"/><path fill="#c0bfc1" d="M12 10h1v1H12zM19 10h1v1H19zM13 11h1v1H13zM18 11h1v1H18zM10 12h1v1H10zM14 12h1v1H14zM17 12h1v1H17zM21 12h1v1H21zM1 16h1v1H1zM2 16h1v1H2zM29 16h1v1H29zM30 16h1v1H30zM2 17h1v1H2zM29 17h1v1H29zM5 19h1v1H5zM6 19h1v1H6zM25 19h1v1H25zM26 19h1v1H26zM5 20h1v1H5zM6 20h1v1H6zM25 20h1v1H25zM26 20h1v1H26zM5 21h1v1H5zM6 21h1v1H6zM25 21h1v1H25zM26 21h1v1H26zM4 22h1v1H4zM27 22h1v1H27zM4 23h1v1H4zM27 23h1v1H27zM3 24h1v1H3zM4 24h1v1H4zM27 24h1v1H27zM28 24h1v1H28zM14 25h1v1H14zM15 25h1v1H15zM16 25h1v1H16zM17 25h1v1H17zM8 26h1v1H8zM14 26h1v1H14zM17 26h1v1H17zM23 26h1v1H23zM8 27h1v1H8zM9 27h1v1H9zM10 27h1v1H10zM11 27h1v1H11zM20 27h1v1H20zM21 27h1v1H21zM22 27h1v1H22zM23 27h1v1H23zM15 28h1v1H15zM16 28h1v1H16z"/><path fill="#828289" d="M14 10h1v1H14zM17 10h1v1H17zM2 18h1v1H2zM29 18h1v1H29zM1 19h1v1H1zM30 19h1v1H30zM1 21h1v1H1zM30 21h1v1H30zM1 22h1v1H1zM2 22h1v1H2zM29 22h1v1H29zM30 22h1v1H30zM2 23h1v1H2zM15 23h1v1H15zM16 23h1v1H16zM29 23h1v1H29zM1 24h1v1H1zM2 24h1v1H2zM5 24h1v1H5zM10 24h1v1H10zM13 24h1v1H13zM18 24h1v1H18zM21 24h1v1H21zM26 24h1v1H26zM29 24h1v1H29zM30 24h1v1H30zM2 25h1v1H2zM3 25h1v1H3zM9 25h1v1H9zM12 25h1v1H12zM19 25h1v1H19zM22 25h1v1H22zM28 25h1v1H28zM29 25h1v1H29zM3 27h1v1H3zM4 27h1v1H4zM14 27h1v1H14zM17 27h1v1H17zM27 27h1v1H27zM28 27h1v1H28zM5 28h1v1H5zM8 28h1v1H8zM9 28h1v1H9zM22 28h1v1H22zM23 28h1v1H23zM26 28h1v1H26zM5 29h1v1H5zM8 29h1v1H8zM23 29h1v1H23zM26 29h1v1H26z"/><path fill="#2e2e38" d="M5 11h1v1H5zM26 11h1v1H26zM0 16h1v1H0zM31 16h1v1H31zM2 28h1v1H2zM29 28h1v1H29z"/><path fill="#5d5d67" d="M6 11h1v1H6zM7 11h1v1H7zM15 11h1v1H15zM16 11h1v1H16zM24 11h1v1H24zM25 11h1v1H25zM6 12h1v1H6zM7 12h1v1H7zM24 12h1v1H24zM25 12h1v1H25zM6 13h1v1H6zM25 13h1v1H25zM6 14h1v1H6zM7 14h1v1H7zM24 14h1v1H24zM25 14h1v1H25zM1 17h1v1H1zM30 17h1v1H30zM3 18h1v1H3zM28 18h1v1H28zM4 19h1v1H4zM27 19h1v1H27zM4 20h1v1H4zM27 20h1v1H27zM4 21h1v1H4zM27 21h1v1H27zM4 26h1v1H4zM5 26h1v1H5zM10 26h1v1H10zM21 26h1v1H21zM26 26h1v1H26zM27 26h1v1H27zM11 29h1v1H11zM13 29h1v1H13zM18 29h1v1H18zM20 29h1v1H20z"/><path fill="#494a54" d="M8 11h1v1H8zM23 11h1v1H23zM2 19h1v1H2zM29 19h1v1H29zM1 20h1v1H1zM30 20h1v1H30zM2 21h1v1H2zM29 21h1v1H29zM3 26h1v1H3zM6 26h1v1H6zM25 26h1v1H25zM28 26h1v1H28zM13 27h1v1H13zM18 27h1v1H18zM7 29h1v1H7zM24 29h1v1H24z"/><path fill="#393942" d="M14 11h1v1H14zM17 11h1v1H17zM12 28h1v1H12zM19 28h1v1H19z"/><path fill="#2a2a33" d="M5 12h1v1H5zM26 12h1v1H26zM0 18h1v1H0zM7 18h1v1H7zM24 18h1v1H24zM31 18h1v1H31zM0 22h1v1H0zM31 22h1v1H31z"/><path fill="#51515b" d="M15 12h1v1H15zM16 12h1v1H16zM9 24h1v1H9zM22 24h1v1H22zM6 27h1v1H6zM25 27h1v1H25zM4 28h1v1H4zM27 28h1v1H27z"/><path fill="#000000" d="M11 14h1v1H11zM12 14h1v1H12zM13 14h1v1H13zM14 14h1v1H14zM17 14h1v1H17zM18 14h1v1H18zM19 14h1v1H19zM20 14h1v1H20zM10 15h1v1H10zM11 15h1v1H11zM12 15h1v1H12zM13 15h1v1H13zM14 15h1v1H14zM15 15h1v1H15zM16 15h1v1H16zM17 15h1v1H17zM18 15h1v1H18zM19 15h1v1H19zM20 15h1v1H20zM21 15h1v1H21zM9 16h1v1H9zM10 16h1v1H10zM11 16h1v1H11zM12 16h1v1H12zM13 16h1v1H13zM14 16h1v1H14zM15 16h1v1H15zM16 16h1v1H16zM17 16h1v1H17zM18 16h1v1H18zM19 16h1v1H19zM20 16h1v1H20zM21 16h1v1H21zM22 16h1v1H22zM9 17h1v1H9zM10 17h1v1H10zM13 17h1v1H13zM14 17h1v1H14zM15 17h1v1H15zM16 17h1v1H16zM17 17h1v1H17zM18 17h1v1H18zM21 17h1v1H21zM22 17h1v1H22zM9 18h1v1H9zM14 18h1v1H14zM15 18h1v1H15zM16 18h1v1H16zM17 18h1v1H17zM22 18h1v1H22zM9 19h1v1H9zM13 19h1v1H13zM14 19h1v1H14zM15 19h1v1H15zM16 19h1v1H16zM17 19h1v1H17zM18 19h1v1H18zM22 19h1v1H22zM9 20h1v1H9zM13 20h1v1H13zM14 20h1v1H14zM15 20h1v1H15zM16 20h1v1H16zM17 20h1v1H17zM18 20h1v1H18zM22 20h1v1H22zM9 21h1v1H9zM10 21h1v1H10zM14 21h1v1H14zM15 21h1v1H15zM16 21h1v1H16zM17 21h1v1H17zM21 21h1v1H21zM22 21h1v1H22zM10 22h1v1H10zM11 22h1v1H11zM14 22h1v1H14zM15 22h1v1H15zM16 22h1v1H16zM17 22h1v1H17zM20 22h1v1H20zM21 22h1v1H21zM10 23h1v1H10zM11 23h1v1H11zM12 23h1v1H12zM13 23h1v1H13zM14 23h1v1H14zM17 23h1v1H17zM18 23h1v1H18zM19 23h1v1H19zM20 23h1v1H20zM21 23h1v1H21z"/><path fill="#4e4e58" d="M1 15h1v1H1zM30 15h1v1H30zM1 23h1v1H1zM30 23h1v1H30z"/><path fill="#303039" d="M7 17h1v1H7zM24 17h1v1H24zM0 23h1v1H0zM31 23h1v1H31zM13 26h1v1H13zM18 26h1v1H18zM4 29h1v1H4zM12 29h1v1H12zM19 29h1v1H19zM27 29h1v1H27z"/><path fill="#ffffff" d="M11 17h1v1H11zM12 17h1v1H12zM19 17h1v1H19zM20 17h1v1H20zM11 18h1v1H11zM12 18h1v1H12zM13 18h1v1H13zM18 18h1v1H18zM19 18h1v1H19zM20 18h1v1H20zM11 19h1v1H11zM12 19h1v1H12zM19 19h1v1H19zM20 19h1v1H20zM11 20h1v1H11zM12 20h1v1H12zM19 20h1v1H19zM20 20h1v1H20zM11 21h1v1H11zM12 21h1v1H12zM19 21h1v1H19zM20 21h1v1H20zM12 22h1v1H12zM13 22h1v1H13zM18 22h1v1H18zM19 22h1v1H19z"/><path fill="#55555f" d="M8 22h1v1H8zM23 22h1v1H23zM7 24h1v1H7zM24 24h1v1H24zM6 25h1v1H6zM25 25h1v1H25z"/><path fill="#32333c" d="M1 26h1v1H1zM30 26h1v1H30z"/></svg>
