<svg xmlns="http://www.w3.org/2000/svg" viewBox="0 0 32 32" shape-rendering="crispEdges"><path fill="#56c0f9" d="M15 0h1v1H15zM16 0h1v1H16zM13 3h1v1H13zM16 3h1v1H16zM12 4h1v1H12zM16 4h1v1H16zM17 4h1v1H17zM18 4h1v1H18zM12 5h1v1H12zM12 7h1v1H12zM3 9h1v1H3zM9 9h1v1H9zM22 9h1v1H22zM28 9h1v1H28zM5 21h1v1H5zM26 21h1v1H26z"/><path fill="#5fd1fb" d="M14 1h1v1H14zM17 1h1v1H17zM18 5h1v1H18zM17 6h1v1H17zM1 8h1v1H1zM12 8h1v1H12zM30 8h1v1H30z"/><path fill="#9be8fd" d="M15 1h1v1H15zM14 2h1v1H14zM16 2h1v1H16zM17 2h1v1H17zM17 3h1v1H17zM13 4h1v1H13zM14 5h1v1H14zM16 5h1v1H16zM13 6h1v1H13zM11 9h1v1H11zM13 9h1v1H13zM14 9h1v1H14zM20 9h1v1H20zM10 10h1v1H10zM11 10h1v1H11zM18 10h1v1H18zM20 10h1v1H20zM21 10h1v1H21zM14 11h1v1H14zM17 11h1v1H17zM15 12h1v1H15zM16 12h1v1H16zM7 13h1v1H7zM24 13h1v1H24zM8 14h1v1H8zM10 14h1v1H10zM11 14h1v1H11zM14 14h1v1H14zM17 14h1v1H17zM20 14h1v1H20zM21 14h1v1H21zM23 14h1v1H23zM8 15h1v1H8zM9 15h1v1H9zM10 15h1v1H10zM21 15h1v1H21zM22 15h1v1H22zM23 15h1v1H23zM9 16h1v1H9zM22 16h1v1H22zM10 18h1v1H10zM21 18h1v1H21zM5 20h1v1H5zM26 20h1v1H26zM4 21h1v1H4zM27 21h1v1H27zM4 23h1v1H4zM27 23h1v1H27zM13 25h1v1H13zM14 25h1v1H14zM17 25h1v1H17zM18 25h1v1H18zM14 27h1v1H14zM17 27h1v1H17zM14 29h1v1H14zM17 29h1v1H17z"/><path fill="#f7f5fe" d="M16 1h1v1H16zM14 6h1v1H14zM15 7h1v1H15zM15 8h1v1H15zM10 9h1v1H10zM15 9h1v1H15zM21 9h1v1H21zM4 11h1v1H4zM27 11h1v1H27zM5 12h1v1H5zM26 12h1v1H26zM3 13h1v1H3zM4 13h1v1H4zM27 13h1v1H27zM28 13h1v1H28zM4 14h1v1H4zM9 14h1v1H9zM22 14h1v1H22zM27 14h1v1H27zM15 15h1v1H15zM16 15h1v1H16zM4 18h1v1H4zM27 18h1v1H27zM2 19h1v1H2zM5 19h1v1H5zM26 19h1v1H26zM29 19h1v1H29zM3 20h1v1H3zM28 20h1v1H28zM12 25h1v1H12zM19 25h1v1H19zM15 26h1v1H15zM16 26h1v1H16zM15 29h1v1H15zM16 29h1v1H16z"/><path fill="#fefefe" d="M15 2h1v1H15zM14 3h1v1H14zM15 4h1v1H15zM13 5h1v1H13zM15 6h1v1H15zM9 7h1v1H9zM14 7h1v1H14zM22 7h1v1H22zM9 8h1v1H9zM10 8h1v1H10zM21 8h1v1H21zM22 8h1v1H22zM2 10h1v1H2zM29 10h1v1H29zM3 11h1v1H3zM8 11h1v1H8zM9 11h1v1H9zM22 11h1v1H22zM23 11h1v1H23zM28 11h1v1H28zM3 12h1v1H3zM8 12h1v1H8zM9 12h1v1H9zM10 12h1v1H10zM21 12h1v1H21zM22 12h1v1H22zM23 12h1v1H23zM28 12h1v1H28zM10 13h1v1H10zM11 13h1v1H11zM20 13h1v1H20zM21 13h1v1H21zM2 17h1v1H2zM29 17h1v1H29zM2 18h1v1H2zM29 18h1v1H29zM4 20h1v1H4zM27 20h1v1H27zM4 24h1v1H4zM5 24h1v1H5zM12 24h1v1H12zM19 24h1v1H19zM26 24h1v1H26zM27 24h1v1H27z"/><path fill="#2e96f1" d="M18 2h1v1H18zM18 3h1v1H18zM19 4h1v1H19zM8 6h1v1H8zM18 6h1v1H18zM23 6h1v1H23zM1 11h1v1H1zM30 11h1v1H30zM13 12h1v1H13zM18 12h1v1H18zM15 13h1v1H15zM16 13h1v1H16zM2 16h1v1H2zM29 16h1v1H29zM4 17h1v1H4zM27 17h1v1H27zM1 18h1v1H1zM30 18h1v1H30zM11 23h1v1H11zM20 23h1v1H20z"/><path fill="#f8fdfe" d="M15 3h1v1H15zM13 8h1v1H13zM12 13h1v1H12zM19 13h1v1H19zM3 19h1v1H3zM28 19h1v1H28zM10 23h1v1H10zM21 23h1v1H21zM10 24h1v1H10zM11 24h1v1H11zM20 24h1v1H20zM21 24h1v1H21zM11 25h1v1H11zM20 25h1v1H20z"/><path fill="#cbf5fd" d="M14 4h1v1H14zM15 5h1v1H15zM10 7h1v1H10zM13 7h1v1H13zM21 7h1v1H21zM11 8h1v1H11zM20 8h1v1H20zM2 9h1v1H2zM29 9h1v1H29zM3 10h1v1H3zM28 10h1v1H28zM2 11h1v1H2zM29 11h1v1H29zM2 12h1v1H2zM4 12h1v1H4zM11 12h1v1H11zM20 12h1v1H20zM27 12h1v1H27zM29 12h1v1H29zM5 13h1v1H5zM13 13h1v1H13zM18 13h1v1H18zM26 13h1v1H26zM5 14h1v1H5zM12 14h1v1H12zM19 14h1v1H19zM26 14h1v1H26zM2 15h1v1H2zM4 15h1v1H4zM5 15h1v1H5zM26 15h1v1H26zM27 15h1v1H27zM29 15h1v1H29zM8 16h1v1H8zM23 16h1v1H23zM3 17h1v1H3zM8 17h1v1H8zM23 17h1v1H23zM28 17h1v1H28zM3 18h1v1H3zM8 18h1v1H8zM23 18h1v1H23zM28 18h1v1H28zM4 19h1v1H4zM8 19h1v1H8zM23 19h1v1H23zM27 19h1v1H27zM8 20h1v1H8zM23 20h1v1H23zM5 23h1v1H5zM26 23h1v1H26zM8 25h1v1H8zM15 25h1v1H15zM16 25h1v1H16zM23 25h1v1H23zM14 26h1v1H14zM17 26h1v1H17z"/><path fill="#f9d863" d="M3 5h1v1H3zM4 5h1v1H4zM27 5h1v1H27zM28 5h1v1H28zM5 6h1v1H5zM26 6h1v1H26zM6 7h1v1H6zM17 7h1v1H17zM25 7h1v1H25zM7 8h1v1H7zM18 8h1v1H18zM24 8h1v1H24zM7 9h1v1H7zM24 9h1v1H24zM6 10h1v1H6zM25 10h1v1H25zM5 11h1v1H5zM7 11h1v1H7zM24 11h1v1H24zM26 11h1v1H26zM7 12h1v1H7zM24 12h1v1H24zM6 19h1v1H6zM25 19h1v1H25zM6 26h1v1H6zM25 26h1v1H25zM6 27h1v1H6zM7 27h1v1H7zM24 27h1v1H24zM25 27h1v1H25zM7 28h1v1H7zM24 28h1v1H24z"/><path fill="#2178e2" d="M17 5h1v1H17zM19 5h1v1H19zM9 6h1v1H9zM10 6h1v1H10zM12 6h1v1H12zM19 6h1v1H19zM21 6h1v1H21zM22 6h1v1H22zM11 7h1v1H11zM20 7h1v1H20zM19 8h1v1H19zM1 9h1v1H1zM8 9h1v1H8zM23 9h1v1H23zM30 9h1v1H30zM1 10h1v1H1zM12 10h1v1H12zM30 10h1v1H30zM13 11h1v1H13zM18 11h1v1H18zM1 12h1v1H1zM12 12h1v1H12zM19 12h1v1H19zM30 12h1v1H30zM6 13h1v1H6zM14 13h1v1H14zM17 13h1v1H17zM25 13h1v1H25zM6 14h1v1H6zM25 14h1v1H25zM6 15h1v1H6zM25 15h1v1H25zM3 16h1v1H3zM4 16h1v1H4zM5 16h1v1H5zM6 16h1v1H6zM25 16h1v1H25zM26 16h1v1H26zM27 16h1v1H27zM28 16h1v1H28zM1 17h1v1H1zM5 17h1v1H5zM6 17h1v1H6zM25 17h1v1H25zM26 17h1v1H26zM30 17h1v1H30zM1 19h1v1H1zM30 19h1v1H30zM6 21h1v1H6zM25 21h1v1H25zM4 22h1v1H4zM6 22h1v1H6zM7 22h1v1H7zM24 22h1v1H24zM25 22h1v1H25zM27 22h1v1H27zM6 23h1v1H6zM7 23h1v1H7zM24 23h1v1H24zM25 23h1v1H25zM6 24h1v1H6zM25 24h1v1H25zM7 25h1v1H7zM24 25h1v1H24zM4 26h1v1H4zM5 26h1v1H5zM26 26h1v1H26zM27 26h1v1H27zM12 28h1v1H12zM19 28h1v1H19zM13 29h1v1H13zM18 29h1v1H18z"/><path fill="#f4c43c" d="M3 6h1v1H3zM28 6h1v1H28zM4 7h1v1H4zM27 7h1v1H27zM5 9h1v1H5zM26 9h1v1H26zM7 21h1v1H7zM24 21h1v1H24z"/><path fill="#f8e9a7" d="M4 6h1v1H4zM16 6h1v1H16zM27 6h1v1H27zM18 7h1v1H18zM6 8h1v1H6zM25 8h1v1H25zM6 9h1v1H6zM25 9h1v1H25zM7 10h1v1H7zM24 10h1v1H24zM15 30h1v1H15zM16 30h1v1H16z"/><path fill="#eca61f" d="M3 7h1v1H3zM28 7h1v1H28zM3 8h1v1H3zM4 8h1v1H4zM27 8h1v1H27zM28 8h1v1H28zM4 9h1v1H4zM27 9h1v1H27zM4 10h1v1H4zM5 10h1v1H5zM26 10h1v1H26zM27 10h1v1H27zM6 11h1v1H6zM25 11h1v1H25zM6 12h1v1H6zM25 12h1v1H25zM7 26h1v1H7zM24 26h1v1H24zM5 27h1v1H5zM26 27h1v1H26zM5 28h1v1H5zM26 28h1v1H26z"/><path fill="#f9f3bc" d="M5 7h1v1H5zM26 7h1v1H26zM5 8h1v1H5zM26 8h1v1H26zM6 18h1v1H6zM25 18h1v1H25zM7 19h1v1H7zM24 19h1v1H24zM7 20h1v1H7zM24 20h1v1H24zM8 21h1v1H8zM23 21h1v1H23z"/><path fill="#53abf6" d="M8 7h1v1H8zM23 7h1v1H23zM9 10h1v1H9zM13 10h1v1H13zM19 10h1v1H19zM22 10h1v1H22zM10 11h1v1H10zM11 11h1v1H11zM20 11h1v1H20zM21 11h1v1H21zM13 14h1v1H13zM18 14h1v1H18zM14 15h1v1H14zM17 15h1v1H17zM15 16h1v1H15zM16 16h1v1H16zM9 26h1v1H9zM10 26h1v1H10zM13 26h1v1H13zM18 26h1v1H18zM21 26h1v1H21zM22 26h1v1H22z"/><path fill="#d77cf2" d="M16 7h1v1H16zM16 8h1v1H16zM16 9h1v1H16zM17 9h1v1H17zM18 9h1v1H18zM14 10h1v1H14zM15 10h1v1H15zM15 11h1v1H15zM2 14h1v1H2zM3 14h1v1H3zM28 14h1v1H28zM29 14h1v1H29zM3 15h1v1H3zM28 15h1v1H28zM10 19h1v1H10zM21 19h1v1H21zM2 20h1v1H2zM6 20h1v1H6zM25 20h1v1H25zM29 20h1v1H29zM2 21h1v1H2zM3 21h1v1H3zM13 21h1v1H13zM18 21h1v1H18zM28 21h1v1H28zM29 21h1v1H29zM8 22h1v1H8zM9 22h1v1H9zM22 22h1v1H22zM23 22h1v1H23zM3 24h1v1H3zM9 24h1v1H9zM22 24h1v1H22zM28 24h1v1H28zM4 25h1v1H4zM5 25h1v1H5zM9 25h1v1H9zM10 25h1v1H10zM21 25h1v1H21zM22 25h1v1H22zM26 25h1v1H26zM27 25h1v1H27zM8 27h1v1H8zM15 27h1v1H15zM16 27h1v1H16zM23 27h1v1H23zM15 28h1v1H15zM16 28h1v1H16zM14 30h1v1H14zM17 30h1v1H17z"/><path fill="#2a84ec" d="M19 7h1v1H19zM8 8h1v1H8zM23 8h1v1H23zM19 9h1v1H19zM8 26h1v1H8zM23 26h1v1H23z"/><path fill="#f8faf7" d="M14 8h1v1H14zM8 13h1v1H8zM9 13h1v1H9zM22 13h1v1H22zM23 13h1v1H23z"/><path fill="#efaea5" d="M17 8h1v1H17z"/><path fill="#4699ef" d="M12 9h1v1H12zM8 10h1v1H8zM23 10h1v1H23zM5 18h1v1H5zM26 18h1v1H26zM5 22h1v1H5zM26 22h1v1H26zM11 26h1v1H11zM20 26h1v1H20zM14 28h1v1H14zM17 28h1v1H17z"/><path fill="#9c54dc" d="M16 10h1v1H16zM17 10h1v1H17zM16 11h1v1H16zM2 13h1v1H2zM29 13h1v1H29zM10 20h1v1H10zM21 20h1v1H21zM3 23h1v1H3zM8 23h1v1H8zM9 23h1v1H9zM22 23h1v1H22zM23 23h1v1H23zM28 23h1v1H28zM2 24h1v1H2zM8 24h1v1H8zM23 24h1v1H23zM29 24h1v1H29z"/><path fill="#5ab6f9" d="M12 11h1v1H12zM19 11h1v1H19zM14 12h1v1H14zM17 12h1v1H17zM7 14h1v1H7zM15 14h1v1H15zM16 14h1v1H16zM24 14h1v1H24zM7 15h1v1H7zM24 15h1v1H24zM7 16h1v1H7zM24 16h1v1H24zM7 17h1v1H7zM24 17h1v1H24zM7 18h1v1H7zM24 18h1v1H24zM7 24h1v1H7zM24 24h1v1H24zM12 26h1v1H12zM19 26h1v1H19zM13 28h1v1H13zM18 28h1v1H18z"/><path fill="#114ca9" d="M1 13h1v1H1zM30 13h1v1H30zM1 14h1v1H1zM30 14h1v1H30zM1 20h1v1H1zM30 20h1v1H30zM1 21h1v1H1zM30 21h1v1H30zM2 22h1v1H2zM3 22h1v1H3zM28 22h1v1H28zM29 22h1v1H29zM6 25h1v1H6zM25 25h1v1H25zM9 27h1v1H9zM10 27h1v1H10zM11 27h1v1H11zM12 27h1v1H12zM13 27h1v1H13zM18 27h1v1H18zM19 27h1v1H19zM20 27h1v1H20zM21 27h1v1H21zM22 27h1v1H22z"/><path fill="#000000" d="M11 15h1v1H11zM12 15h1v1H12zM13 15h1v1H13zM18 15h1v1H18zM19 15h1v1H19zM20 15h1v1H20zM10 16h1v1H10zM11 16h1v1H11zM12 16h1v1H12zM13 16h1v1H13zM14 16h1v1H14zM17 16h1v1H17zM18 16h1v1H18zM19 16h1v1H19zM20 16h1v1H20zM21 16h1v1H21zM9 17h1v1H9zM10 17h1v1H10zM13 17h1v1H13zM14 17h1v1H14zM15 17h1v1H15zM16 17h1v1H16zM17 17h1v1H17zM18 17h1v1H18zM21 17h1v1H21zM22 17h1v1H22zM9 18h1v1H9zM14 18h1v1H14zM15 18h1v1H15zM16 18h1v1H16zM17 18h1v1H17zM22 18h1v1H22zM9 19h1v1H9zM14 19h1v1H14zM15 19h1v1H15zM16 19h1v1H16zM17 19h1v1H17zM22 19h1v1H22zM9 20h1v1H9zM14 20h1v1H14zM15 20h1v1H15zM16 20h1v1H16zM17 20h1v1H17zM22 20h1v1H22zM9 21h1v1H9zM10 21h1v1H10zM14 21h1v1H14zM15 21h1v1H15zM16 21h1v1H16zM17 21h1v1H17zM21 21h1v1H21zM22 21h1v1H22zM10 22h1v1H10zM11 22h1v1H11zM14 22h1v1H14zM15 22h1v1H15zM16 22h1v1H16zM17 22h1v1H17zM20 22h1v1H20zM21 22h1v1H21zM12 23h1v1H12zM13 23h1v1H13zM14 23h1v1H14zM15 23h1v1H15zM16 23h1v1H16zM17 23h1v1H17zM18 23h1v1H18zM19 23h1v1H19zM13 24h1v1H13zM14 24h1v1H14zM15 24h1v1H15zM16 24h1v1H16zM17 24h1v1H17zM18 24h1v1H18z"/><path fill="#fdfcfc" d="M11 17h1v1H11zM12 17h1v1H12zM19 17h1v1H19zM20 17h1v1H20zM11 18h1v1H11zM12 18h1v1H12zM13 18h1v1H13zM18 18h1v1H18zM19 18h1v1H19zM20 18h1v1H20zM11 19h1v1H11zM12 19h1v1H12zM19 19h1v1H19zM20 19h1v1H20zM11 20h1v1H11zM12 20h1v1H12zM19 20h1v1H19zM20 20h1v1H20zM11 21h1v1H11zM12 21h1v1H12zM19 21h1v1H19zM20 21h1v1H20zM12 22h1v1H12zM13 22h1v1H13zM18 22h1v1H18zM19 22h1v1H19z"/><path fill="#040101" d="M13 19h1v1H13zM18 19h1v1H18zM13 20h1v1H13zM18 20h1v1H18z"/><path fill="#f7dcae" d="M6 28h1v1H6zM25 28h1v1H25z"/></svg>
