<svg xmlns="http://www.w3.org/2000/svg" viewBox="0 0 32 32" shape-rendering="crispEdges"><path fill="#e9defa" d="M10 0h1v1H10zM21 0h1v1H21zM7 3h1v1H7zM8 3h1v1H8zM23 3h1v1H23zM24 3h1v1H24zM7 7h1v1H7zM24 7h1v1H24zM3 8h1v1H3zM6 8h1v1H6zM25 8h1v1H25zM28 8h1v1H28zM4 9h1v1H4zM27 9h1v1H27zM12 10h1v1H12zM15 10h1v1H15zM16 10h1v1H16zM19 10h1v1H19zM10 11h1v1H10zM13 11h1v1H13zM18 11h1v1H18zM21 11h1v1H21zM12 12h1v1H12zM19 12h1v1H19zM6 13h1v1H6zM15 13h1v1H15zM16 13h1v1H16zM25 13h1v1H25zM7 14h1v1H7zM9 14h1v1H9zM10 14h1v1H10zM14 14h1v1H14zM15 14h1v1H15zM16 14h1v1H16zM17 14h1v1H17zM21 14h1v1H21zM22 14h1v1H22zM24 14h1v1H24zM7 15h1v1H7zM11 15h1v1H11zM20 15h1v1H20zM24 15h1v1H24zM6 16h1v1H6zM7 16h1v1H7zM24 16h1v1H24zM25 16h1v1H25zM6 17h1v1H6zM25 17h1v1H25zM2 18h1v1H2zM6 18h1v1H6zM25 18h1v1H25zM29 18h1v1H29zM2 19h1v1H2zM29 19h1v1H29zM2 20h1v1H2zM29 20h1v1H29zM6 25h1v1H6zM25 25h1v1H25zM15 26h1v1H15zM16 26h1v1H16zM6 27h1v1H6zM15 27h1v1H15zM16 27h1v1H16zM25 27h1v1H25zM9 28h1v1H9zM22 28h1v1H22z"/><path fill="#aa99e4" d="M9 1h1v1H9zM10 1h1v1H10zM21 1h1v1H21zM22 1h1v1H22zM10 2h1v1H10zM21 2h1v1H21zM9 3h1v1H9zM22 3h1v1H22zM8 4h1v1H8zM23 4h1v1H23zM5 5h1v1H5zM26 5h1v1H26zM2 7h1v1H2zM29 7h1v1H29zM2 8h1v1H2zM29 8h1v1H29zM2 9h1v1H2zM6 9h1v1H6zM25 9h1v1H25zM29 9h1v1H29zM7 10h1v1H7zM24 10h1v1H24zM8 11h1v1H8zM23 11h1v1H23zM11 14h1v1H11zM20 14h1v1H20zM7 26h1v1H7zM8 26h1v1H8zM23 26h1v1H23zM24 26h1v1H24zM12 28h1v1H12zM19 28h1v1H19zM15 29h1v1H15zM16 29h1v1H16z"/><path fill="#cab8f0" d="M8 2h1v1H8zM9 2h1v1H9zM22 2h1v1H22zM23 2h1v1H23zM7 4h1v1H7zM24 4h1v1H24zM3 9h1v1H3zM12 9h1v1H12zM19 9h1v1H19zM28 9h1v1H28zM9 11h1v1H9zM22 11h1v1H22zM10 12h1v1H10zM21 12h1v1H21zM9 15h1v1H9zM10 15h1v1H10zM21 15h1v1H21zM22 15h1v1H22zM13 28h1v1H13zM18 28h1v1H18zM12 29h1v1H12zM13 29h1v1H13zM18 29h1v1H18zM19 29h1v1H19z"/><path fill="#33a1f5" d="M14 2h1v1H14zM17 2h1v1H17zM10 5h1v1H10zM12 5h1v1H12zM19 5h1v1H19zM21 5h1v1H21zM10 7h1v1H10zM21 7h1v1H21zM10 8h1v1H10zM21 8h1v1H21zM1 15h1v1H1zM30 15h1v1H30zM1 18h1v1H1zM8 18h1v1H8zM23 18h1v1H23zM30 18h1v1H30zM8 19h1v1H8zM10 19h1v1H10zM21 19h1v1H21zM23 19h1v1H23zM8 20h1v1H8zM23 20h1v1H23zM8 21h1v1H8zM13 21h1v1H13zM18 21h1v1H18zM23 21h1v1H23zM8 22h1v1H8zM23 22h1v1H23zM7 24h1v1H7zM9 24h1v1H9zM22 24h1v1H22zM24 24h1v1H24zM8 25h1v1H8zM23 25h1v1H23zM10 26h1v1H10zM21 26h1v1H21z"/><path fill="#30b1fa" d="M15 2h1v1H15zM16 2h1v1H16zM17 4h1v1H17zM18 4h1v1H18zM18 5h1v1H18zM12 6h1v1H12zM13 6h1v1H13zM18 6h1v1H18zM19 6h1v1H19zM20 6h1v1H20zM13 7h1v1H13zM14 7h1v1H14zM15 7h1v1H15zM16 7h1v1H16zM17 7h1v1H17zM18 7h1v1H18zM11 26h1v1H11zM12 26h1v1H12zM13 26h1v1H13zM18 26h1v1H18zM19 26h1v1H19zM20 26h1v1H20z"/><path fill="#f7f2fd" d="M6 3h1v1H6zM14 3h1v1H14zM15 3h1v1H15zM16 3h1v1H16zM25 3h1v1H25zM6 4h1v1H6zM12 4h1v1H12zM13 4h1v1H13zM14 4h1v1H14zM25 4h1v1H25zM6 5h1v1H6zM11 5h1v1H11zM13 5h1v1H13zM14 5h1v1H14zM25 5h1v1H25zM6 6h1v1H6zM11 6h1v1H11zM25 6h1v1H25zM6 7h1v1H6zM25 7h1v1H25zM7 8h1v1H7zM8 8h1v1H8zM12 8h1v1H12zM19 8h1v1H19zM23 8h1v1H23zM24 8h1v1H24zM7 9h1v1H7zM8 9h1v1H8zM9 9h1v1H9zM15 9h1v1H15zM16 9h1v1H16zM22 9h1v1H22zM23 9h1v1H23zM24 9h1v1H24zM4 10h1v1H4zM5 10h1v1H5zM8 10h1v1H8zM9 10h1v1H9zM14 10h1v1H14zM17 10h1v1H17zM22 10h1v1H22zM23 10h1v1H23zM26 10h1v1H26zM27 10h1v1H27zM5 11h1v1H5zM6 11h1v1H6zM7 11h1v1H7zM14 11h1v1H14zM17 11h1v1H17zM24 11h1v1H24zM25 11h1v1H25zM26 11h1v1H26zM6 12h1v1H6zM7 12h1v1H7zM8 12h1v1H8zM13 12h1v1H13zM18 12h1v1H18zM23 12h1v1H23zM24 12h1v1H24zM25 12h1v1H25zM7 13h1v1H7zM8 13h1v1H8zM9 13h1v1H9zM13 13h1v1H13zM18 13h1v1H18zM22 13h1v1H22zM23 13h1v1H23zM24 13h1v1H24zM2 14h1v1H2zM8 14h1v1H8zM23 14h1v1H23zM29 14h1v1H29zM8 15h1v1H8zM23 15h1v1H23zM2 16h1v1H2zM3 16h1v1H3zM28 16h1v1H28zM29 16h1v1H29zM2 17h1v1H2zM3 17h1v1H3zM28 17h1v1H28zM29 17h1v1H29zM6 22h1v1H6zM25 22h1v1H25zM6 23h1v1H6zM25 23h1v1H25zM6 24h1v1H6zM25 24h1v1H25zM6 26h1v1H6zM25 26h1v1H25zM7 27h1v1H7zM8 27h1v1H8zM23 27h1v1H23zM24 27h1v1H24zM7 28h1v1H7zM8 28h1v1H8zM10 28h1v1H10zM21 28h1v1H21zM23 28h1v1H23zM24 28h1v1H24zM14 29h1v1H14zM17 29h1v1H17z"/><path fill="#49379f" d="M10 3h1v1H10zM21 3h1v1H21zM8 6h1v1H8zM23 6h1v1H23zM5 9h1v1H5zM26 9h1v1H26zM6 10h1v1H6zM25 10h1v1H25zM5 13h1v1H5zM26 13h1v1H26zM7 29h1v1H7zM8 29h1v1H8zM9 29h1v1H9zM10 29h1v1H10zM21 29h1v1H21zM22 29h1v1H22zM23 29h1v1H23zM24 29h1v1H24z"/><path fill="#37bbfa" d="M11 3h1v1H11zM20 3h1v1H20zM11 7h1v1H11zM20 7h1v1H20zM8 23h1v1H8zM23 23h1v1H23z"/><path fill="#3bc8fc" d="M12 3h1v1H12zM19 3h1v1H19zM15 4h1v1H15zM16 4h1v1H16zM20 5h1v1H20zM14 6h1v1H14zM17 6h1v1H17zM12 7h1v1H12zM19 7h1v1H19zM4 17h1v1H4zM8 17h1v1H8zM23 17h1v1H23zM27 17h1v1H27zM4 18h1v1H4zM27 18h1v1H27zM4 19h1v1H4zM27 19h1v1H27zM3 20h1v1H3zM28 20h1v1H28zM3 21h1v1H3zM28 21h1v1H28zM2 22h1v1H2zM29 22h1v1H29zM2 25h1v1H2zM29 25h1v1H29zM9 26h1v1H9zM22 26h1v1H22z"/><path fill="#a2eafd" d="M13 3h1v1H13zM18 3h1v1H18zM13 8h1v1H13zM18 8h1v1H18zM13 9h1v1H13zM18 9h1v1H18zM3 14h1v1H3zM28 14h1v1H28zM3 15h1v1H3zM28 15h1v1H28zM7 18h1v1H7zM10 18h1v1H10zM21 18h1v1H21zM24 18h1v1H24zM7 19h1v1H7zM24 19h1v1H24zM7 20h1v1H7zM24 20h1v1H24zM7 21h1v1H7zM24 21h1v1H24zM8 24h1v1H8zM23 24h1v1H23z"/><path fill="#7be7fd" d="M17 3h1v1H17zM11 4h1v1H11zM20 4h1v1H20zM14 8h1v1H14zM17 8h1v1H17zM7 22h1v1H7zM24 22h1v1H24z"/><path fill="#5745ac" d="M9 4h1v1H9zM22 4h1v1H22zM8 7h1v1H8zM23 7h1v1H23zM9 8h1v1H9zM22 8h1v1H22zM2 10h1v1H2zM29 10h1v1H29zM12 14h1v1H12zM19 14h1v1H19zM13 15h1v1H13zM18 15h1v1H18zM14 16h1v1H14zM17 16h1v1H17zM15 17h1v1H15zM16 17h1v1H16zM11 29h1v1H11zM20 29h1v1H20z"/><path fill="#3bdbfd" d="M19 4h1v1H19zM15 5h1v1H15zM16 5h1v1H16zM17 5h1v1H17zM15 6h1v1H15zM16 6h1v1H16z"/><path fill="#9c89de" d="M7 5h1v1H7zM24 5h1v1H24zM5 6h1v1H5zM7 6h1v1H7zM24 6h1v1H24zM26 6h1v1H26zM4 11h1v1H4zM27 11h1v1H27zM12 13h1v1H12zM19 13h1v1H19zM13 14h1v1H13zM18 14h1v1H18zM14 15h1v1H14zM17 15h1v1H17zM13 27h1v1H13zM18 27h1v1H18zM14 28h1v1H14zM17 28h1v1H17z"/><path fill="#4d3fab" d="M8 5h1v1H8zM23 5h1v1H23zM5 8h1v1H5zM26 8h1v1H26zM9 27h1v1H9zM22 27h1v1H22z"/><path fill="#1c7bdb" d="M10 6h1v1H10zM21 6h1v1H21zM11 11h1v1H11zM20 11h1v1H20zM1 16h1v1H1zM30 16h1v1H30z"/><path fill="#8576cc" d="M5 7h1v1H5zM26 7h1v1H26zM11 12h1v1H11zM20 12h1v1H20zM10 13h1v1H10zM21 13h1v1H21zM6 14h1v1H6zM25 14h1v1H25z"/><path fill="#2b4abf" d="M9 7h1v1H9zM22 7h1v1H22zM1 20h1v1H1zM4 20h1v1H4zM27 20h1v1H27zM30 20h1v1H30zM3 22h1v1H3zM28 22h1v1H28zM2 23h1v1H2zM29 23h1v1H29zM3 26h1v1H3zM28 26h1v1H28zM2 27h1v1H2zM29 27h1v1H29z"/><path fill="#caacf1" d="M11 8h1v1H11zM20 8h1v1H20zM11 9h1v1H11zM20 9h1v1H20zM15 15h1v1H15zM16 15h1v1H16zM15 16h1v1H15zM16 16h1v1H16zM3 19h1v1H3zM28 19h1v1H28zM1 26h1v1H1zM30 26h1v1H30z"/><path fill="#77a2f1" d="M15 8h1v1H15zM16 8h1v1H16zM14 9h1v1H14zM17 9h1v1H17zM11 10h1v1H11zM13 10h1v1H13zM18 10h1v1H18zM20 10h1v1H20zM12 11h1v1H12zM19 11h1v1H19zM2 21h1v1H2zM29 21h1v1H29z"/><path fill="#2660ce" d="M10 9h1v1H10zM21 9h1v1H21zM3 13h1v1H3zM28 13h1v1H28zM4 16h1v1H4zM27 16h1v1H27zM1 17h1v1H1zM30 17h1v1H30zM10 27h1v1H10zM11 27h1v1H11zM12 27h1v1H12zM19 27h1v1H19zM20 27h1v1H20zM21 27h1v1H21z"/><path fill="#917cda" d="M3 10h1v1H3zM10 10h1v1H10zM21 10h1v1H21zM28 10h1v1H28zM5 12h1v1H5zM9 12h1v1H9zM22 12h1v1H22zM26 12h1v1H26zM15 25h1v1H15zM16 25h1v1H16zM14 26h1v1H14zM17 26h1v1H17z"/><path fill="#614db8" d="M3 11h1v1H3zM28 11h1v1H28zM4 12h1v1H4zM27 12h1v1H27zM11 13h1v1H11zM20 13h1v1H20zM6 15h1v1H6zM12 15h1v1H12zM19 15h1v1H19zM25 15h1v1H25zM8 16h1v1H8zM9 16h1v1H9zM22 16h1v1H22zM23 16h1v1H23zM7 17h1v1H7zM24 17h1v1H24zM1 19h1v1H1zM6 19h1v1H6zM25 19h1v1H25zM30 19h1v1H30zM6 20h1v1H6zM25 20h1v1H25zM7 23h1v1H7zM24 23h1v1H24zM5 25h1v1H5zM7 25h1v1H7zM24 25h1v1H24zM26 25h1v1H26zM5 26h1v1H5zM26 26h1v1H26zM5 27h1v1H5zM14 27h1v1H14zM17 27h1v1H17zM26 27h1v1H26zM6 28h1v1H6zM11 28h1v1H11zM15 28h1v1H15zM16 28h1v1H16zM20 28h1v1H20zM25 28h1v1H25z"/><path fill="#c770ec" d="M15 11h1v1H15zM16 11h1v1H16zM14 12h1v1H14zM17 12h1v1H17zM14 13h1v1H14zM17 13h1v1H17zM10 20h1v1H10zM21 20h1v1H21zM6 21h1v1H6zM25 21h1v1H25z"/><path fill="#7b50c8" d="M15 12h1v1H15zM16 12h1v1H16z"/><path fill="#c7e1fa" d="M2 13h1v1H2zM29 13h1v1H29zM9 25h1v1H9zM10 25h1v1H10zM11 25h1v1H11zM12 25h1v1H12zM13 25h1v1H13zM14 25h1v1H14zM17 25h1v1H17zM18 25h1v1H18zM19 25h1v1H19zM20 25h1v1H20zM21 25h1v1H21zM22 25h1v1H22z"/><path fill="#d6f6fe" d="M2 15h1v1H2zM29 15h1v1H29zM3 18h1v1H3zM28 18h1v1H28zM2 26h1v1H2zM29 26h1v1H29z"/><path fill="#000000" d="M10 16h1v1H10zM11 16h1v1H11zM12 16h1v1H12zM13 16h1v1H13zM18 16h1v1H18zM19 16h1v1H19zM20 16h1v1H20zM21 16h1v1H21zM9 17h1v1H9zM10 17h1v1H10zM13 17h1v1H13zM14 17h1v1H14zM17 17h1v1H17zM18 17h1v1H18zM21 17h1v1H21zM22 17h1v1H22zM9 18h1v1H9zM14 18h1v1H14zM15 18h1v1H15zM16 18h1v1H16zM17 18h1v1H17zM22 18h1v1H22zM9 19h1v1H9zM14 19h1v1H14zM15 19h1v1H15zM16 19h1v1H16zM17 19h1v1H17zM22 19h1v1H22zM9 20h1v1H9zM14 20h1v1H14zM15 20h1v1H15zM16 20h1v1H16zM17 20h1v1H17zM22 20h1v1H22zM9 21h1v1H9zM10 21h1v1H10zM14 21h1v1H14zM15 21h1v1H15zM16 21h1v1H16zM17 21h1v1H17zM21 21h1v1H21zM22 21h1v1H22zM10 22h1v1H10zM11 22h1v1H11zM14 22h1v1H14zM15 22h1v1H15zM16 22h1v1H16zM17 22h1v1H17zM20 22h1v1H20zM21 22h1v1H21zM11 23h1v1H11zM12 23h1v1H12zM13 23h1v1H13zM14 23h1v1H14zM15 23h1v1H15zM16 23h1v1H16zM17 23h1v1H17zM18 23h1v1H18zM19 23h1v1H19zM20 23h1v1H20z"/><path fill="#fdfcfc" d="M11 17h1v1H11zM12 17h1v1H12zM19 17h1v1H19zM20 17h1v1H20zM11 18h1v1H11zM12 18h1v1H12zM13 18h1v1H13zM18 18h1v1H18zM19 18h1v1H19zM20 18h1v1H20zM11 19h1v1H11zM12 19h1v1H12zM19 19h1v1H19zM20 19h1v1H20zM11 20h1v1H11zM12 20h1v1H12zM19 20h1v1H19zM20 20h1v1H20zM11 21h1v1H11zM12 21h1v1H12zM19 21h1v1H19zM20 21h1v1H20zM12 22h1v1H12zM13 22h1v1H13zM18 22h1v1H18zM19 22h1v1H19z"/><path fill="#040101" d="M13 19h1v1H13zM18 19h1v1H18zM13 20h1v1H13zM18 20h1v1H18z"/><path fill="#1f4691" d="M1 21h1v1H1zM30 21h1v1H30zM10 24h1v1H10zM11 24h1v1H11zM12 24h1v1H12zM13 24h1v1H13zM14 24h1v1H14zM15 24h1v1H15zM16 24h1v1H16zM17 24h1v1H17zM18 24h1v1H18zM19 24h1v1H19zM20 24h1v1H20zM21 24h1v1H21z"/><path fill="#35339e" d="M4 21h1v1H4zM27 21h1v1H27z"/><path fill="#251e6a" d="M9 22h1v1H9zM22 22h1v1H22zM9 23h1v1H9zM10 23h1v1H10zM21 23h1v1H21zM22 23h1v1H22z"/></svg>
