<svg xmlns="http://www.w3.org/2000/svg" viewBox="0 0 32 32" shape-rendering="crispEdges"><path fill="#3be9fb" d="M8 1h1v1H8zM9 1h1v1H9zM22 1h1v1H22zM23 1h1v1H23zM9 2h1v1H9zM10 2h1v1H10zM21 2h1v1H21zM22 2h1v1H22zM9 3h1v1H9zM10 3h1v1H10zM21 3h1v1H21zM22 3h1v1H22zM8 4h1v1H8zM9 4h1v1H9zM22 4h1v1H22zM23 4h1v1H23zM7 5h1v1H7zM8 5h1v1H8zM23 5h1v1H23zM24 5h1v1H24zM4 6h1v1H4zM7 6h1v1H7zM24 6h1v1H24zM27 6h1v1H27zM4 7h1v1H4zM8 7h1v1H8zM10 7h1v1H10zM21 7h1v1H21zM23 7h1v1H23zM27 7h1v1H27zM4 8h1v1H4zM27 8h1v1H27zM3 11h1v1H3zM28 11h1v1H28zM4 12h1v1H4zM27 12h1v1H27zM5 13h1v1H5zM26 13h1v1H26zM5 15h1v1H5zM26 15h1v1H26zM4 16h1v1H4zM27 16h1v1H27zM3 17h1v1H3zM28 17h1v1H28zM3 18h1v1H3zM28 18h1v1H28zM2 19h1v1H2zM29 19h1v1H29zM2 20h1v1H2zM29 20h1v1H29zM1 21h1v1H1zM30 21h1v1H30zM1 22h1v1H1zM4 22h1v1H4zM27 22h1v1H27zM30 22h1v1H30zM1 23h1v1H1zM3 23h1v1H3zM28 23h1v1H28zM30 23h1v1H30zM1 24h1v1H1zM2 24h1v1H2zM3 24h1v1H3zM28 24h1v1H28zM29 24h1v1H29zM30 24h1v1H30z"/><path fill="#3066c9" d="M8 2h1v1H8zM23 2h1v1H23zM5 14h1v1H5zM26 14h1v1H26zM4 15h1v1H4zM27 15h1v1H27zM2 17h1v1H2zM29 17h1v1H29zM1 19h1v1H1zM30 19h1v1H30z"/><path fill="#fcfcfd" d="M15 3h1v1H15zM15 4h1v1H15zM15 5h1v1H15zM15 6h1v1H15zM14 7h1v1H14zM13 8h1v1H13zM16 9h1v1H16zM19 9h1v1H19zM13 10h1v1H13zM16 10h1v1H16zM18 10h1v1H18zM14 11h1v1H14zM16 11h1v1H16zM17 11h1v1H17zM8 12h1v1H8zM9 12h1v1H9zM15 12h1v1H15zM16 12h1v1H16zM22 12h1v1H22zM23 12h1v1H23zM8 13h1v1H8zM9 13h1v1H9zM10 13h1v1H10zM12 13h1v1H12zM16 13h1v1H16zM19 13h1v1H19zM21 13h1v1H21zM22 13h1v1H22zM23 13h1v1H23zM8 14h1v1H8zM9 14h1v1H9zM10 14h1v1H10zM17 14h1v1H17zM21 14h1v1H21zM22 14h1v1H22zM23 14h1v1H23zM8 15h1v1H8zM14 15h1v1H14zM17 15h1v1H17zM23 15h1v1H23zM8 16h1v1H8zM23 16h1v1H23zM8 17h1v1H8zM23 17h1v1H23zM7 18h1v1H7zM8 18h1v1H8zM23 18h1v1H23zM24 18h1v1H24zM8 19h1v1H8zM23 19h1v1H23zM8 20h1v1H8zM23 20h1v1H23z"/><path fill="#1055cc" d="M16 3h1v1H16zM14 4h1v1H14zM17 4h1v1H17zM13 5h1v1H13zM18 5h1v1H18zM12 6h1v1H12zM19 6h1v1H19zM11 7h1v1H11zM20 7h1v1H20zM12 10h1v1H12zM19 10h1v1H19zM7 13h1v1H7zM24 13h1v1H24zM7 14h1v1H7zM24 14h1v1H24zM7 15h1v1H7zM24 15h1v1H24z"/><path fill="#0b60d1" d="M10 4h1v1H10zM21 4h1v1H21zM9 5h1v1H9zM22 5h1v1H22zM6 6h1v1H6zM25 6h1v1H25zM4 9h1v1H4zM27 9h1v1H27zM3 10h1v1H3zM28 10h1v1H28zM7 11h1v1H7zM24 11h1v1H24zM4 13h1v1H4zM27 13h1v1H27zM7 16h1v1H7zM24 16h1v1H24zM4 23h1v1H4zM27 23h1v1H27z"/><path fill="#056cdb" d="M16 4h1v1H16zM14 5h1v1H14zM17 5h1v1H17zM13 6h1v1H13zM18 6h1v1H18zM12 7h1v1H12zM19 7h1v1H19zM7 8h1v1H7zM24 8h1v1H24zM11 9h1v1H11zM20 9h1v1H20zM14 28h1v1H14zM17 28h1v1H17z"/><path fill="#0d81df" d="M16 5h1v1H16zM14 6h1v1H14zM17 6h1v1H17zM13 7h1v1H13zM18 7h1v1H18zM12 8h1v1H12zM19 8h1v1H19zM2 25h1v1H2zM29 25h1v1H29zM13 28h1v1H13zM18 28h1v1H18z"/><path fill="#12a2ed" d="M8 6h1v1H8zM23 6h1v1H23zM7 7h1v1H7zM24 7h1v1H24zM9 8h1v1H9zM22 8h1v1H22zM13 27h1v1H13zM18 27h1v1H18zM14 29h1v1H14zM17 29h1v1H17z"/><path fill="#78e8fd" d="M16 6h1v1H16zM18 8h1v1H18z"/><path fill="#41a5f7" d="M3 7h1v1H3zM28 7h1v1H28zM3 8h1v1H3zM28 8h1v1H28zM2 9h1v1H2zM3 9h1v1H3zM28 9h1v1H28zM29 9h1v1H29zM1 10h1v1H1zM2 10h1v1H2zM29 10h1v1H29zM30 10h1v1H30zM1 11h1v1H1zM30 11h1v1H30z"/><path fill="#163b99" d="M6 7h1v1H6zM25 7h1v1H25zM5 22h1v1H5zM26 22h1v1H26zM5 23h1v1H5zM26 23h1v1H26zM5 24h1v1H5zM26 24h1v1H26zM1 25h1v1H1zM30 25h1v1H30z"/><path fill="#116fdc" d="M9 7h1v1H9zM22 7h1v1H22zM10 9h1v1H10zM21 9h1v1H21zM7 12h1v1H7zM24 12h1v1H24zM15 13h1v1H15z"/><path fill="#7b48e6" d="M15 7h1v1H15zM16 7h1v1H16zM14 8h1v1H14zM15 8h1v1H15zM16 8h1v1H16zM17 8h1v1H17zM5 16h1v1H5zM26 16h1v1H26zM4 17h1v1H4zM5 17h1v1H5zM26 17h1v1H26zM27 17h1v1H27zM5 18h1v1H5zM26 18h1v1H26zM10 19h1v1H10zM21 19h1v1H21zM13 21h1v1H13zM18 21h1v1H18zM14 25h1v1H14zM15 25h1v1H15zM16 25h1v1H16zM17 25h1v1H17z"/><path fill="#8c6cf1" d="M17 7h1v1H17zM7 10h1v1H7zM24 10h1v1H24zM10 11h1v1H10zM11 11h1v1H11zM20 11h1v1H20zM21 11h1v1H21zM3 12h1v1H3zM12 12h1v1H12zM19 12h1v1H19zM28 12h1v1H28zM4 18h1v1H4zM27 18h1v1H27zM3 19h1v1H3zM4 19h1v1H4zM5 19h1v1H5zM26 19h1v1H26zM27 19h1v1H27zM28 19h1v1H28zM5 20h1v1H5zM26 20h1v1H26zM8 24h1v1H8zM15 24h1v1H15zM16 24h1v1H16zM23 24h1v1H23zM14 26h1v1H14zM17 26h1v1H17z"/><path fill="#b1c6f5" d="M8 8h1v1H8zM23 8h1v1H23zM8 9h1v1H8zM9 9h1v1H9zM12 9h1v1H12zM22 9h1v1H22zM23 9h1v1H23zM10 10h1v1H10zM11 10h1v1H11zM20 10h1v1H20zM21 10h1v1H21zM12 11h1v1H12zM19 11h1v1H19zM10 12h1v1H10zM21 12h1v1H21zM11 13h1v1H11zM20 13h1v1H20zM12 14h1v1H12zM19 14h1v1H19zM9 22h1v1H9zM22 22h1v1H22zM15 23h1v1H15zM16 23h1v1H16zM11 24h1v1H11zM14 24h1v1H14zM17 24h1v1H17zM20 24h1v1H20z"/><path fill="#3638b8" d="M10 8h1v1H10zM21 8h1v1H21zM7 22h1v1H7zM24 22h1v1H24zM9 25h1v1H9zM10 25h1v1H10zM11 25h1v1H11zM12 25h1v1H12zM19 25h1v1H19zM20 25h1v1H20zM21 25h1v1H21zM22 25h1v1H22z"/><path fill="#073ca6" d="M11 8h1v1H11zM20 8h1v1H20zM6 11h1v1H6zM25 11h1v1H25z"/><path fill="#283696" d="M6 9h1v1H6zM25 9h1v1H25zM6 10h1v1H6zM25 10h1v1H25zM6 21h1v1H6zM25 21h1v1H25zM7 23h1v1H7zM24 23h1v1H24zM8 27h1v1H8zM12 27h1v1H12zM19 27h1v1H19zM23 27h1v1H23zM9 28h1v1H9zM11 28h1v1H11zM20 28h1v1H20zM22 28h1v1H22zM10 29h1v1H10zM21 29h1v1H21z"/><path fill="#ce69f3" d="M7 9h1v1H7zM13 9h1v1H13zM14 9h1v1H14zM15 9h1v1H15zM17 9h1v1H17zM18 9h1v1H18zM24 9h1v1H24zM8 10h1v1H8zM9 10h1v1H9zM22 10h1v1H22zM23 10h1v1H23zM8 11h1v1H8zM9 11h1v1H9zM22 11h1v1H22zM23 11h1v1H23zM11 12h1v1H11zM20 12h1v1H20zM6 18h1v1H6zM25 18h1v1H25zM6 19h1v1H6zM25 19h1v1H25zM6 20h1v1H6zM7 20h1v1H7zM24 20h1v1H24zM25 20h1v1H25zM7 21h1v1H7zM24 21h1v1H24zM8 23h1v1H8zM23 23h1v1H23zM7 24h1v1H7zM9 24h1v1H9zM22 24h1v1H22zM24 24h1v1H24zM6 25h1v1H6zM7 25h1v1H7zM8 25h1v1H8zM23 25h1v1H23zM24 25h1v1H24zM25 25h1v1H25zM7 26h1v1H7zM24 26h1v1H24zM10 28h1v1H10zM21 28h1v1H21z"/><path fill="#e5c7f6" d="M14 10h1v1H14zM17 10h1v1H17zM13 25h1v1H13zM18 25h1v1H18z"/><path fill="#e5d9f7" d="M15 10h1v1H15zM15 11h1v1H15zM6 16h1v1H6zM25 16h1v1H25zM6 17h1v1H6zM7 17h1v1H7zM24 17h1v1H24zM25 17h1v1H25zM7 19h1v1H7zM24 19h1v1H24zM8 21h1v1H8zM23 21h1v1H23zM8 22h1v1H8zM23 22h1v1H23zM9 23h1v1H9zM22 23h1v1H22zM10 24h1v1H10zM21 24h1v1H21z"/><path fill="#a0a7f4" d="M2 11h1v1H2zM29 11h1v1H29zM10 23h1v1H10zM21 23h1v1H21z"/><path fill="#0e47b2" d="M13 11h1v1H13zM18 11h1v1H18zM3 16h1v1H3zM28 16h1v1H28zM2 18h1v1H2zM29 18h1v1H29zM1 20h1v1H1zM30 20h1v1H30zM14 27h1v1H14zM17 27h1v1H17zM15 28h1v1H15zM16 28h1v1H16z"/><path fill="#0e3295" d="M2 12h1v1H2zM6 12h1v1H6zM25 12h1v1H25zM29 12h1v1H29zM3 13h1v1H3zM6 13h1v1H6zM25 13h1v1H25zM28 13h1v1H28zM4 14h1v1H4zM6 14h1v1H6zM25 14h1v1H25zM27 14h1v1H27zM6 15h1v1H6zM25 15h1v1H25zM10 20h1v1H10zM21 20h1v1H21zM8 26h1v1H8zM9 26h1v1H9zM10 26h1v1H10zM11 26h1v1H11zM12 26h1v1H12zM13 26h1v1H13zM18 26h1v1H18zM19 26h1v1H19zM20 26h1v1H20zM21 26h1v1H21zM22 26h1v1H22zM23 26h1v1H23z"/><path fill="#5f68d2" d="M13 12h1v1H13zM18 12h1v1H18zM13 13h1v1H13zM18 13h1v1H18zM13 14h1v1H13zM18 14h1v1H18zM16 15h1v1H16zM15 16h1v1H15zM16 16h1v1H16z"/><path fill="#0754ca" d="M14 12h1v1H14zM17 12h1v1H17zM14 13h1v1H14zM17 13h1v1H17zM14 14h1v1H14z"/><path fill="#000000" d="M11 14h1v1H11zM20 14h1v1H20zM9 15h1v1H9zM10 15h1v1H10zM11 15h1v1H11zM12 15h1v1H12zM13 15h1v1H13zM18 15h1v1H18zM19 15h1v1H19zM20 15h1v1H20zM21 15h1v1H21zM22 15h1v1H22zM9 16h1v1H9zM10 16h1v1H10zM11 16h1v1H11zM12 16h1v1H12zM13 16h1v1H13zM14 16h1v1H14zM17 16h1v1H17zM18 16h1v1H18zM19 16h1v1H19zM20 16h1v1H20zM21 16h1v1H21zM22 16h1v1H22zM9 17h1v1H9zM10 17h1v1H10zM13 17h1v1H13zM14 17h1v1H14zM15 17h1v1H15zM16 17h1v1H16zM17 17h1v1H17zM18 17h1v1H18zM21 17h1v1H21zM22 17h1v1H22zM9 18h1v1H9zM14 18h1v1H14zM15 18h1v1H15zM16 18h1v1H16zM17 18h1v1H17zM22 18h1v1H22zM9 19h1v1H9zM14 19h1v1H14zM15 19h1v1H15zM16 19h1v1H16zM17 19h1v1H17zM22 19h1v1H22zM9 20h1v1H9zM14 20h1v1H14zM15 20h1v1H15zM16 20h1v1H16zM17 20h1v1H17zM22 20h1v1H22zM9 21h1v1H9zM10 21h1v1H10zM14 21h1v1H14zM15 21h1v1H15zM16 21h1v1H16zM17 21h1v1H17zM21 21h1v1H21zM22 21h1v1H22zM10 22h1v1H10zM11 22h1v1H11zM14 22h1v1H14zM15 22h1v1H15zM16 22h1v1H16zM17 22h1v1H17zM20 22h1v1H20zM21 22h1v1H21zM11 23h1v1H11zM12 23h1v1H12zM13 23h1v1H13zM14 23h1v1H14zM17 23h1v1H17zM18 23h1v1H18zM19 23h1v1H19zM20 23h1v1H20z"/><path fill="#82bffb" d="M15 14h1v1H15zM16 14h1v1H16zM15 15h1v1H15zM15 27h1v1H15zM16 27h1v1H16z"/><path fill="#fdfcfc" d="M11 17h1v1H11zM12 17h1v1H12zM19 17h1v1H19zM20 17h1v1H20zM11 18h1v1H11zM12 18h1v1H12zM13 18h1v1H13zM18 18h1v1H18zM19 18h1v1H19zM20 18h1v1H20zM11 19h1v1H11zM12 19h1v1H12zM19 19h1v1H19zM20 19h1v1H20zM11 20h1v1H11zM12 20h1v1H12zM19 20h1v1H19zM20 20h1v1H20zM11 21h1v1H11zM12 21h1v1H12zM19 21h1v1H19zM20 21h1v1H20zM12 22h1v1H12zM13 22h1v1H13zM18 22h1v1H18zM19 22h1v1H19z"/><path fill="#14e1fa" d="M10 18h1v1H10zM21 18h1v1H21zM6 22h1v1H6zM25 22h1v1H25zM6 23h1v1H6zM25 23h1v1H25zM6 24h1v1H6zM25 24h1v1H25zM5 25h1v1H5zM26 25h1v1H26zM6 26h1v1H6zM25 26h1v1H25zM7 27h1v1H7zM24 27h1v1H24z"/><path fill="#040101" d="M13 19h1v1H13zM18 19h1v1H18zM13 20h1v1H13zM18 20h1v1H18z"/><path fill="#bf85f9" d="M3 20h1v1H3zM4 20h1v1H4zM27 20h1v1H27zM28 20h1v1H28zM3 21h1v1H3zM4 21h1v1H4zM27 21h1v1H27zM28 21h1v1H28zM15 26h1v1H15zM16 26h1v1H16z"/><path fill="#daa1fc" d="M2 21h1v1H2zM29 21h1v1H29zM2 22h1v1H2zM3 22h1v1H3zM28 22h1v1H28zM29 22h1v1H29zM2 23h1v1H2zM29 23h1v1H29z"/><path fill="#1dc1f6" d="M5 21h1v1H5zM26 21h1v1H26zM15 29h1v1H15zM16 29h1v1H16z"/><path fill="#7a8de5" d="M12 24h1v1H12zM13 24h1v1H13zM18 24h1v1H18zM19 24h1v1H19z"/><path fill="#4f43b9" d="M9 27h1v1H9zM10 27h1v1H10zM11 27h1v1H11zM20 27h1v1H20zM21 27h1v1H21zM22 27h1v1H22z"/><path fill="#2a4fab" d="M15 30h1v1H15zM16 30h1v1H16z"/></svg>
