<svg xmlns="http://www.w3.org/2000/svg" viewBox="0 0 32 32" shape-rendering="crispEdges"><path fill="#3e590e" d="M14 2h1v1H14zM15 2h1v1H15zM16 2h1v1H16zM17 2h1v1H17zM10 5h1v1H10zM21 5h1v1H21zM13 7h1v1H13zM18 7h1v1H18zM6 10h1v1H6zM7 10h1v1H7zM8 10h1v1H8zM11 10h1v1H11zM20 10h1v1H20zM23 10h1v1H23zM24 10h1v1H24zM25 10h1v1H25zM6 11h1v1H6zM25 11h1v1H25zM7 13h1v1H7zM14 13h1v1H14zM17 13h1v1H17zM24 13h1v1H24zM10 20h1v1H10zM21 20h1v1H21zM8 24h1v1H8zM23 24h1v1H23zM13 27h1v1H13zM18 27h1v1H18zM14 28h1v1H14zM17 28h1v1H17zM15 29h1v1H15zM16 29h1v1H16z"/><path fill="#547711" d="M13 3h1v1H13zM18 3h1v1H18zM11 4h1v1H11zM14 4h1v1H14zM17 4h1v1H17zM19 4h1v1H19zM20 4h1v1H20zM8 6h1v1H8zM10 6h1v1H10zM21 6h1v1H21zM23 6h1v1H23zM7 7h1v1H7zM11 7h1v1H11zM20 7h1v1H20zM24 7h1v1H24zM7 8h1v1H7zM24 8h1v1H24zM5 9h1v1H5zM6 9h1v1H6zM7 9h1v1H7zM12 9h1v1H12zM13 9h1v1H13zM18 9h1v1H18zM19 9h1v1H19zM24 9h1v1H24zM25 9h1v1H25zM26 9h1v1H26zM3 10h1v1H3zM10 10h1v1H10zM14 10h1v1H14zM17 10h1v1H17zM21 10h1v1H21zM28 10h1v1H28zM7 11h1v1H7zM9 11h1v1H9zM15 11h1v1H15zM16 11h1v1H16zM22 11h1v1H22zM24 11h1v1H24zM1 12h1v1H1zM3 12h1v1H3zM7 12h1v1H7zM13 12h1v1H13zM18 12h1v1H18zM24 12h1v1H24zM28 12h1v1H28zM30 12h1v1H30zM1 13h1v1H1zM2 13h1v1H2zM13 13h1v1H13zM18 13h1v1H18zM29 13h1v1H29zM30 13h1v1H30zM1 14h1v1H1zM3 14h1v1H3zM8 14h1v1H8zM15 14h1v1H15zM16 14h1v1H16zM23 14h1v1H23zM28 14h1v1H28zM30 14h1v1H30zM1 15h1v1H1zM4 15h1v1H4zM27 15h1v1H27zM30 15h1v1H30zM2 16h1v1H2zM4 16h1v1H4zM27 16h1v1H27zM29 16h1v1H29zM2 17h1v1H2zM3 17h1v1H3zM4 17h1v1H4zM27 17h1v1H27zM28 17h1v1H28zM29 17h1v1H29zM7 18h1v1H7zM24 18h1v1H24zM7 20h1v1H7zM24 20h1v1H24zM4 23h1v1H4zM9 23h1v1H9zM22 23h1v1H22zM27 23h1v1H27zM5 24h1v1H5zM26 24h1v1H26zM6 25h1v1H6zM7 25h1v1H7zM13 25h1v1H13zM18 25h1v1H18zM24 25h1v1H24zM25 25h1v1H25zM13 26h1v1H13zM18 26h1v1H18zM11 27h1v1H11zM12 27h1v1H12zM19 27h1v1H19zM20 27h1v1H20zM9 28h1v1H9zM10 28h1v1H10zM12 28h1v1H12zM13 28h1v1H13zM18 28h1v1H18zM19 28h1v1H19zM21 28h1v1H21zM22 28h1v1H22zM13 29h1v1H13zM14 29h1v1H14zM17 29h1v1H17zM18 29h1v1H18z"/><path fill="#719418" d="M14 3h1v1H14zM15 3h1v1H15zM16 3h1v1H16zM17 3h1v1H17zM12 4h1v1H12zM13 4h1v1H13zM18 4h1v1H18zM11 5h1v1H11zM13 5h1v1H13zM14 5h1v1H14zM15 5h1v1H15zM16 5h1v1H16zM17 5h1v1H17zM18 5h1v1H18zM20 5h1v1H20zM9 6h1v1H9zM14 6h1v1H14zM17 6h1v1H17zM22 6h1v1H22zM8 7h1v1H8zM23 7h1v1H23zM12 8h1v1H12zM19 8h1v1H19zM8 9h1v1H8zM23 9h1v1H23zM9 10h1v1H9zM12 10h1v1H12zM13 10h1v1H13zM18 10h1v1H18zM19 10h1v1H19zM22 10h1v1H22zM10 11h1v1H10zM12 11h1v1H12zM19 11h1v1H19zM21 11h1v1H21zM5 12h1v1H5zM8 12h1v1H8zM14 12h1v1H14zM17 12h1v1H17zM23 12h1v1H23zM26 12h1v1H26zM5 13h1v1H5zM11 13h1v1H11zM15 13h1v1H15zM16 13h1v1H16zM20 13h1v1H20zM26 13h1v1H26zM10 14h1v1H10zM21 14h1v1H21zM2 15h1v1H2zM3 15h1v1H3zM28 15h1v1H28zM29 15h1v1H29zM9 22h1v1H9zM22 22h1v1H22zM8 23h1v1H8zM23 23h1v1H23zM11 24h1v1H11zM12 24h1v1H12zM14 24h1v1H14zM17 24h1v1H17zM19 24h1v1H19zM20 24h1v1H20zM8 27h1v1H8zM23 27h1v1H23z"/><path fill="#607f16" d="M15 4h1v1H15zM16 4h1v1H16zM11 9h1v1H11zM20 9h1v1H20zM8 11h1v1H8zM23 11h1v1H23zM11 12h1v1H11zM20 12h1v1H20zM9 13h1v1H9zM22 13h1v1H22zM8 21h1v1H8zM23 21h1v1H23zM4 22h1v1H4zM27 22h1v1H27z"/><path fill="#e2e869" d="M12 5h1v1H12zM19 5h1v1H19zM11 6h1v1H11zM13 6h1v1H13zM15 6h1v1H15zM16 6h1v1H16zM18 6h1v1H18zM20 6h1v1H20zM9 7h1v1H9zM12 7h1v1H12zM15 7h1v1H15zM16 7h1v1H16zM19 7h1v1H19zM22 7h1v1H22zM8 8h1v1H8zM10 8h1v1H10zM14 8h1v1H14zM17 8h1v1H17zM21 8h1v1H21zM23 8h1v1H23zM9 9h1v1H9zM22 9h1v1H22zM12 13h1v1H12zM19 13h1v1H19zM8 15h1v1H8zM23 15h1v1H23zM10 18h1v1H10zM21 18h1v1H21zM6 21h1v1H6zM7 21h1v1H7zM24 21h1v1H24zM25 21h1v1H25zM5 22h1v1H5zM26 22h1v1H26zM11 23h1v1H11zM15 23h1v1H15zM16 23h1v1H16zM20 23h1v1H20zM6 24h1v1H6zM13 24h1v1H13zM18 24h1v1H18zM25 24h1v1H25zM10 25h1v1H10zM15 25h1v1H15zM16 25h1v1H16zM21 25h1v1H21zM14 26h1v1H14zM17 26h1v1H17zM15 27h1v1H15zM16 27h1v1H16z"/><path fill="#fafeb0" d="M12 6h1v1H12zM19 6h1v1H19zM9 8h1v1H9zM15 8h1v1H15zM16 8h1v1H16zM22 8h1v1H22zM15 9h1v1H15zM16 9h1v1H16zM6 22h1v1H6zM7 22h1v1H7zM24 22h1v1H24zM25 22h1v1H25zM6 23h1v1H6zM7 23h1v1H7zM24 23h1v1H24zM25 23h1v1H25zM9 25h1v1H9zM22 25h1v1H22zM9 26h1v1H9zM10 26h1v1H10zM15 26h1v1H15zM16 26h1v1H16zM21 26h1v1H21zM22 26h1v1H22z"/><path fill="#a2c223" d="M10 7h1v1H10zM14 7h1v1H14zM17 7h1v1H17zM21 7h1v1H21zM13 8h1v1H13zM18 8h1v1H18zM10 9h1v1H10zM14 9h1v1H14zM17 9h1v1H17zM21 9h1v1H21zM15 10h1v1H15zM16 10h1v1H16zM2 14h1v1H2zM29 14h1v1H29zM8 22h1v1H8zM23 22h1v1H23zM5 23h1v1H5zM10 23h1v1H10zM21 23h1v1H21zM26 23h1v1H26zM7 24h1v1H7zM10 24h1v1H10zM21 24h1v1H21zM24 24h1v1H24zM14 25h1v1H14zM17 25h1v1H17zM9 27h1v1H9zM10 27h1v1H10zM14 27h1v1H14zM17 27h1v1H17zM21 27h1v1H21zM22 27h1v1H22zM15 28h1v1H15zM16 28h1v1H16z"/><path fill="#744e25" d="M4 8h1v1H4zM27 8h1v1H27zM4 9h1v1H4zM27 9h1v1H27zM4 10h1v1H4zM5 10h1v1H5zM26 10h1v1H26zM27 10h1v1H27zM6 13h1v1H6zM25 13h1v1H25zM6 16h1v1H6zM8 16h1v1H8zM23 16h1v1H23zM25 16h1v1H25zM5 17h1v1H5zM6 17h1v1H6zM25 17h1v1H25zM26 17h1v1H26zM1 19h1v1H1zM30 19h1v1H30zM8 20h1v1H8zM23 20h1v1H23zM2 21h1v1H2zM29 21h1v1H29zM2 22h1v1H2zM3 22h1v1H3zM28 22h1v1H28zM29 22h1v1H29zM2 24h1v1H2zM29 24h1v1H29zM2 25h1v1H2zM4 25h1v1H4zM27 25h1v1H27zM29 25h1v1H29zM3 26h1v1H3zM4 26h1v1H4zM27 26h1v1H27zM28 26h1v1H28zM4 27h1v1H4zM27 27h1v1H27z"/><path fill="#3c4a19" d="M6 8h1v1H6zM25 8h1v1H25zM3 11h1v1H3zM28 11h1v1H28zM1 16h1v1H1zM30 16h1v1H30zM9 21h1v1H9zM22 21h1v1H22zM10 22h1v1H10zM21 22h1v1H21z"/><path fill="#90af24" d="M11 8h1v1H11zM20 8h1v1H20zM11 11h1v1H11zM13 11h1v1H13zM14 11h1v1H14zM17 11h1v1H17zM18 11h1v1H18zM20 11h1v1H20zM9 12h1v1H9zM10 12h1v1H10zM15 12h1v1H15zM16 12h1v1H16zM21 12h1v1H21zM22 12h1v1H22zM8 13h1v1H8zM23 13h1v1H23zM3 16h1v1H3zM28 16h1v1H28zM10 19h1v1H10zM21 19h1v1H21zM13 21h1v1H13zM18 21h1v1H18zM9 24h1v1H9zM15 24h1v1H15zM16 24h1v1H16zM22 24h1v1H22zM8 25h1v1H8zM11 25h1v1H11zM12 25h1v1H12zM19 25h1v1H19zM20 25h1v1H20zM23 25h1v1H23zM8 26h1v1H8zM11 26h1v1H11zM12 26h1v1H12zM19 26h1v1H19zM20 26h1v1H20zM23 26h1v1H23z"/><path fill="#5e3f21" d="M4 11h1v1H4zM5 11h1v1H5zM26 11h1v1H26zM27 11h1v1H27zM4 12h1v1H4zM6 12h1v1H6zM12 12h1v1H12zM19 12h1v1H19zM25 12h1v1H25zM27 12h1v1H27zM10 13h1v1H10zM21 13h1v1H21zM9 14h1v1H9zM14 14h1v1H14zM17 14h1v1H17zM22 14h1v1H22zM6 15h1v1H6zM9 15h1v1H9zM22 15h1v1H22zM25 15h1v1H25zM8 17h1v1H8zM23 17h1v1H23zM2 18h1v1H2zM6 18h1v1H6zM8 18h1v1H8zM23 18h1v1H23zM25 18h1v1H25zM29 18h1v1H29zM7 19h1v1H7zM8 19h1v1H8zM23 19h1v1H23zM24 19h1v1H24zM1 20h1v1H1zM2 20h1v1H2zM6 20h1v1H6zM25 20h1v1H25zM29 20h1v1H29zM30 20h1v1H30zM3 21h1v1H3zM4 21h1v1H4zM5 21h1v1H5zM26 21h1v1H26zM27 21h1v1H27zM28 21h1v1H28zM2 23h1v1H2zM3 23h1v1H3zM28 23h1v1H28zM29 23h1v1H29zM3 24h1v1H3zM4 24h1v1H4zM27 24h1v1H27zM28 24h1v1H28zM3 25h1v1H3zM28 25h1v1H28zM2 26h1v1H2zM29 26h1v1H29zM2 27h1v1H2zM29 27h1v1H29zM3 28h1v1H3zM4 28h1v1H4zM8 28h1v1H8zM23 28h1v1H23zM27 28h1v1H27zM28 28h1v1H28zM8 29h1v1H8zM9 29h1v1H9zM10 29h1v1H10zM21 29h1v1H21zM22 29h1v1H22zM23 29h1v1H23z"/><path fill="#2f2212" d="M4 13h1v1H4zM27 13h1v1H27zM4 14h1v1H4zM7 14h1v1H7zM24 14h1v1H24zM27 14h1v1H27zM7 15h1v1H7zM24 15h1v1H24zM5 16h1v1H5zM7 16h1v1H7zM24 16h1v1H24zM26 16h1v1H26zM7 17h1v1H7zM24 17h1v1H24zM1 22h1v1H1zM30 22h1v1H30zM1 23h1v1H1zM30 23h1v1H30zM1 24h1v1H1zM30 24h1v1H30zM1 25h1v1H1zM5 25h1v1H5zM26 25h1v1H26zM30 25h1v1H30zM1 26h1v1H1zM6 26h1v1H6zM7 26h1v1H7zM24 26h1v1H24zM25 26h1v1H25zM30 26h1v1H30zM1 27h1v1H1zM5 27h1v1H5zM6 27h1v1H6zM7 27h1v1H7zM24 27h1v1H24zM25 27h1v1H25zM26 27h1v1H26zM30 27h1v1H30zM6 28h1v1H6zM7 28h1v1H7zM24 28h1v1H24zM25 28h1v1H25zM2 29h1v1H2zM3 29h1v1H3zM4 29h1v1H4zM5 29h1v1H5zM6 29h1v1H6zM7 29h1v1H7zM12 29h1v1H12zM19 29h1v1H19zM24 29h1v1H24zM25 29h1v1H25zM26 29h1v1H26zM27 29h1v1H27zM28 29h1v1H28zM29 29h1v1H29z"/><path fill="#4f3319" d="M5 14h1v1H5zM6 14h1v1H6zM25 14h1v1H25zM26 14h1v1H26zM5 15h1v1H5zM15 15h1v1H15zM16 15h1v1H16zM26 15h1v1H26zM1 21h1v1H1zM30 21h1v1H30zM5 26h1v1H5zM26 26h1v1H26zM3 27h1v1H3zM28 27h1v1H28zM2 28h1v1H2zM5 28h1v1H5zM11 28h1v1H11zM20 28h1v1H20zM26 28h1v1H26zM29 28h1v1H29zM11 29h1v1H11zM20 29h1v1H20z"/><path fill="#030202" d="M11 14h1v1H11zM12 14h1v1H12zM13 14h1v1H13zM18 14h1v1H18zM19 14h1v1H19zM20 14h1v1H20zM10 15h1v1H10zM11 15h1v1H11zM12 15h1v1H12zM13 15h1v1H13zM14 15h1v1H14zM17 15h1v1H17zM18 15h1v1H18zM19 15h1v1H19zM20 15h1v1H20zM21 15h1v1H21zM9 16h1v1H9zM10 16h1v1H10zM11 16h1v1H11zM12 16h1v1H12zM13 16h1v1H13zM14 16h1v1H14zM15 16h1v1H15zM16 16h1v1H16zM17 16h1v1H17zM18 16h1v1H18zM19 16h1v1H19zM20 16h1v1H20zM21 16h1v1H21zM22 16h1v1H22zM9 17h1v1H9zM10 17h1v1H10zM13 17h1v1H13zM14 17h1v1H14zM15 17h1v1H15zM16 17h1v1H16zM17 17h1v1H17zM18 17h1v1H18zM21 17h1v1H21zM22 17h1v1H22zM9 18h1v1H9zM14 18h1v1H14zM15 18h1v1H15zM16 18h1v1H16zM17 18h1v1H17zM22 18h1v1H22zM9 19h1v1H9zM13 19h1v1H13zM14 19h1v1H14zM15 19h1v1H15zM16 19h1v1H16zM17 19h1v1H17zM18 19h1v1H18zM22 19h1v1H22zM9 20h1v1H9zM13 20h1v1H13zM14 20h1v1H14zM15 20h1v1H15zM16 20h1v1H16zM17 20h1v1H17zM18 20h1v1H18zM22 20h1v1H22zM10 21h1v1H10zM14 21h1v1H14zM15 21h1v1H15zM16 21h1v1H16zM17 21h1v1H17zM21 21h1v1H21zM11 22h1v1H11zM14 22h1v1H14zM15 22h1v1H15zM16 22h1v1H16zM17 22h1v1H17zM20 22h1v1H20zM12 23h1v1H12zM13 23h1v1H13zM14 23h1v1H14zM17 23h1v1H17zM18 23h1v1H18zM19 23h1v1H19z"/><path fill="#ffffff" d="M11 17h1v1H11zM12 17h1v1H12zM19 17h1v1H19zM20 17h1v1H20zM11 18h1v1H11zM12 18h1v1H12zM13 18h1v1H13zM18 18h1v1H18zM19 18h1v1H19zM20 18h1v1H20zM11 19h1v1H11zM12 19h1v1H12zM19 19h1v1H19zM20 19h1v1H20zM11 20h1v1H11zM12 20h1v1H12zM19 20h1v1H19zM20 20h1v1H20zM11 21h1v1H11zM12 21h1v1H12zM19 21h1v1H19zM20 21h1v1H20zM12 22h1v1H12zM13 22h1v1H13zM18 22h1v1H18zM19 22h1v1H19z"/><path fill="#d9ac5d" d="M3 18h1v1H3zM4 18h1v1H4zM27 18h1v1H27zM28 18h1v1H28zM2 19h1v1H2zM5 19h1v1H5zM26 19h1v1H26zM29 19h1v1H29zM3 20h1v1H3zM4 20h1v1H4zM27 20h1v1H27zM28 20h1v1H28z"/><path fill="#ac8243" d="M5 18h1v1H5zM26 18h1v1H26zM3 19h1v1H3zM4 19h1v1H4zM6 19h1v1H6zM25 19h1v1H25zM27 19h1v1H27zM28 19h1v1H28zM5 20h1v1H5zM26 20h1v1H26z"/><path fill="#31321b" d="M1 28h1v1H1zM30 28h1v1H30z"/></svg>
