<svg xmlns="http://www.w3.org/2000/svg" viewBox="0 0 32 32" shape-rendering="crispEdges"><path fill="#723e16" d="M12 1h1v1H12zM13 1h1v1H13zM14 1h1v1H14zM13 2h1v1H13zM14 2h1v1H14zM15 2h1v1H15zM14 3h1v1H14zM15 3h1v1H15zM14 4h1v1H14zM15 4h1v1H15zM15 5h1v1H15zM11 6h1v1H11zM2 15h1v1H2zM5 15h1v1H5zM14 15h1v1H14zM26 15h1v1H26zM26 16h1v1H26zM3 17h1v1H3zM27 17h1v1H27zM28 17h1v1H28zM19 26h1v1H19zM10 27h1v1H10zM13 27h1v1H13zM21 27h1v1H21zM8 28h1v1H8zM23 28h1v1H23z"/><path fill="#64791a" d="M19 1h1v1H19zM8 2h1v1H8zM22 2h1v1H22zM8 3h1v1H8zM9 3h1v1H9zM20 3h1v1H20zM21 3h1v1H21zM22 3h1v1H22zM9 4h1v1H9zM10 4h1v1H10zM19 4h1v1H19zM20 4h1v1H20zM21 4h1v1H21zM10 5h1v1H10zM12 5h1v1H12zM19 5h1v1H19zM20 5h1v1H20zM13 7h1v1H13zM14 8h1v1H14zM15 8h1v1H15zM4 18h1v1H4zM27 18h1v1H27zM4 19h1v1H4zM5 19h1v1H5zM26 19h1v1H26zM27 19h1v1H27zM3 20h1v1H3zM4 20h1v1H4zM27 20h1v1H27zM28 20h1v1H28zM2 21h1v1H2zM3 21h1v1H3zM28 21h1v1H28zM29 21h1v1H29z"/><path fill="#9aac2e" d="M20 1h1v1H20zM21 1h1v1H21zM22 1h1v1H22zM9 2h1v1H9zM10 2h1v1H10zM19 2h1v1H19zM20 2h1v1H20zM21 2h1v1H21zM10 3h1v1H10zM11 3h1v1H11zM18 3h1v1H18zM19 3h1v1H19zM11 4h1v1H11zM12 4h1v1H12zM17 4h1v1H17zM18 4h1v1H18zM14 7h1v1H14zM2 18h1v1H2zM3 18h1v1H3zM28 18h1v1H28zM29 18h1v1H29zM1 19h1v1H1zM2 19h1v1H2zM3 19h1v1H3zM28 19h1v1H28zM29 19h1v1H29zM30 19h1v1H30zM1 20h1v1H1zM2 20h1v1H2zM29 20h1v1H29zM30 20h1v1H30z"/><path fill="#393e23" d="M23 1h1v1H23zM18 2h1v1H18zM23 2h1v1H23zM17 3h1v1H17zM23 3h1v1H23zM8 4h1v1H8zM13 4h1v1H13zM22 4h1v1H22zM11 5h1v1H11zM17 5h1v1H17zM18 5h1v1H18zM21 5h1v1H21zM12 6h1v1H12zM13 8h1v1H13zM14 9h1v1H14zM5 20h1v1H5zM26 20h1v1H26zM4 21h1v1H4zM27 21h1v1H27z"/><path fill="#5f2110" d="M12 2h1v1H12zM13 3h1v1H13zM16 4h1v1H16zM9 5h1v1H9zM14 5h1v1H14zM22 5h1v1H22zM4 6h1v1H4zM10 6h1v1H10zM15 6h1v1H15zM15 7h1v1H15zM16 7h1v1H16zM28 7h1v1H28zM16 8h1v1H16zM3 13h1v1H3zM28 13h1v1H28zM15 16h1v1H15zM16 16h1v1H16zM4 17h1v1H4zM7 19h1v1H7zM24 19h1v1H24zM7 20h1v1H7zM24 20h1v1H24zM7 22h1v1H7zM24 22h1v1H24zM30 26h1v1H30zM9 28h1v1H9zM22 28h1v1H22z"/><path fill="#8b100c" d="M5 5h1v1H5zM6 5h1v1H6zM24 5h1v1H24zM25 5h1v1H25zM26 5h1v1H26zM9 6h1v1H9zM22 6h1v1H22zM27 6h1v1H27zM4 7h1v1H4zM11 7h1v1H11zM19 7h1v1H19zM27 7h1v1H27zM4 8h1v1H4zM12 8h1v1H12zM18 8h1v1H18zM27 8h1v1H27zM4 9h1v1H4zM13 9h1v1H13zM17 9h1v1H17zM27 9h1v1H27zM4 10h1v1H4zM13 10h1v1H13zM18 10h1v1H18zM27 10h1v1H27zM4 11h1v1H4zM5 11h1v1H5zM12 11h1v1H12zM13 11h1v1H13zM18 11h1v1H18zM19 11h1v1H19zM26 11h1v1H26zM27 11h1v1H27zM5 12h1v1H5zM6 12h1v1H6zM11 12h1v1H11zM14 12h1v1H14zM17 12h1v1H17zM20 12h1v1H20zM26 12h1v1H26zM7 13h1v1H7zM8 13h1v1H8zM23 13h1v1H23zM24 13h1v1H24zM4 14h1v1H4zM8 14h1v1H8zM20 14h1v1H20zM21 14h1v1H21zM22 14h1v1H22zM23 14h1v1H23zM27 14h1v1H27zM3 15h1v1H3zM7 15h1v1H7zM24 15h1v1H24zM28 15h1v1H28zM29 15h1v1H29zM2 16h1v1H2zM5 16h1v1H5zM29 16h1v1H29zM5 17h1v1H5zM6 17h1v1H6zM25 17h1v1H25zM26 17h1v1H26zM6 18h1v1H6zM25 18h1v1H25zM5 21h1v1H5zM26 21h1v1H26zM4 22h1v1H4zM27 22h1v1H27zM2 23h1v1H2zM8 23h1v1H8zM16 23h1v1H16zM23 23h1v1H23zM28 23h1v1H28zM29 23h1v1H29zM6 24h1v1H6zM13 24h1v1H13zM18 24h1v1H18zM25 24h1v1H25zM5 25h1v1H5zM7 25h1v1H7zM10 25h1v1H10zM12 25h1v1H12zM19 25h1v1H19zM21 25h1v1H21zM24 25h1v1H24zM26 25h1v1H26zM30 25h1v1H30zM2 26h1v1H2zM3 26h1v1H3zM8 26h1v1H8zM12 26h1v1H12zM13 26h1v1H13zM18 26h1v1H18zM23 26h1v1H23zM27 26h1v1H27zM29 26h1v1H29zM2 27h1v1H2zM3 27h1v1H3zM11 27h1v1H11zM14 27h1v1H14zM17 27h1v1H17zM18 27h1v1H18zM20 27h1v1H20z"/><path fill="#6d0907" d="M7 5h1v1H7zM8 5h1v1H8zM23 5h1v1H23zM21 6h1v1H21zM12 7h1v1H12zM18 7h1v1H18zM3 8h1v1H3zM17 8h1v1H17zM28 8h1v1H28zM3 9h1v1H3zM28 9h1v1H28zM3 10h1v1H3zM28 10h1v1H28zM3 11h1v1H3zM28 11h1v1H28zM11 13h1v1H11zM20 13h1v1H20zM3 14h1v1H3zM9 14h1v1H9zM10 14h1v1H10zM11 14h1v1H11zM12 14h1v1H12zM19 14h1v1H19zM28 14h1v1H28zM2 17h1v1H2zM29 17h1v1H29zM15 23h1v1H15zM1 24h1v1H1zM1 25h1v1H1zM8 25h1v1H8zM9 25h1v1H9zM22 25h1v1H22zM23 25h1v1H23zM1 26h1v1H1zM4 26h1v1H4zM5 26h1v1H5zM7 26h1v1H7zM24 26h1v1H24zM26 26h1v1H26zM4 27h1v1H4zM5 27h1v1H5zM26 27h1v1H26zM27 27h1v1H27zM28 27h1v1H28zM11 28h1v1H11zM14 28h1v1H14zM15 28h1v1H15zM16 28h1v1H16zM17 28h1v1H17zM20 28h1v1H20z"/><path fill="#470a06" d="M13 5h1v1H13zM16 5h1v1H16zM13 6h1v1H13zM14 6h1v1H14zM16 6h1v1H16zM17 6h1v1H17zM18 6h1v1H18zM19 6h1v1H19zM20 6h1v1H20zM3 7h1v1H3zM17 7h1v1H17zM8 15h1v1H8zM9 15h1v1H9zM10 15h1v1H10zM11 15h1v1H11zM12 15h1v1H12zM13 15h1v1H13zM18 15h1v1H18zM19 15h1v1H19zM20 15h1v1H20zM21 15h1v1H21zM22 15h1v1H22zM23 15h1v1H23zM7 16h1v1H7zM24 16h1v1H24zM7 17h1v1H7zM24 17h1v1H24zM5 18h1v1H5zM7 18h1v1H7zM24 18h1v1H24zM26 18h1v1H26zM7 21h1v1H7zM24 21h1v1H24zM2 22h1v1H2zM3 22h1v1H3zM28 22h1v1H28zM29 22h1v1H29zM9 23h1v1H9zM10 23h1v1H10zM11 23h1v1H11zM12 23h1v1H12zM13 23h1v1H13zM14 23h1v1H14zM17 23h1v1H17zM18 23h1v1H18zM19 23h1v1H19zM20 23h1v1H20zM21 23h1v1H21zM22 23h1v1H22zM12 24h1v1H12zM19 24h1v1H19zM11 25h1v1H11zM20 25h1v1H20zM25 25h1v1H25zM6 26h1v1H6zM11 26h1v1H11zM20 26h1v1H20zM25 26h1v1H25zM1 27h1v1H1zM6 27h1v1H6zM7 27h1v1H7zM12 27h1v1H12zM19 27h1v1H19zM24 27h1v1H24zM25 27h1v1H25zM29 27h1v1H29zM30 27h1v1H30zM2 28h1v1H2zM3 28h1v1H3zM4 28h1v1H4zM5 28h1v1H5zM6 28h1v1H6zM7 28h1v1H7zM10 28h1v1H10zM13 28h1v1H13zM18 28h1v1H18zM21 28h1v1H21zM24 28h1v1H24zM25 28h1v1H25zM26 28h1v1H26zM27 28h1v1H27zM28 28h1v1H28zM29 28h1v1H29zM3 29h1v1H3zM4 29h1v1H4zM5 29h1v1H5zM6 29h1v1H6zM7 29h1v1H7zM8 29h1v1H8zM9 29h1v1H9zM10 29h1v1H10zM11 29h1v1H11zM12 29h1v1H12zM13 29h1v1H13zM14 29h1v1H14zM15 29h1v1H15zM16 29h1v1H16zM17 29h1v1H17zM18 29h1v1H18zM19 29h1v1H19zM20 29h1v1H20zM21 29h1v1H21zM22 29h1v1H22zM23 29h1v1H23zM24 29h1v1H24zM25 29h1v1H25zM26 29h1v1H26zM27 29h1v1H27zM28 29h1v1H28z"/><path fill="#e0ae59" d="M5 6h1v1H5zM7 6h1v1H7zM24 6h1v1H24zM26 6h1v1H26zM5 7h1v1H5zM6 7h1v1H6zM7 7h1v1H7zM24 7h1v1H24zM25 7h1v1H25zM26 7h1v1H26zM5 8h1v1H5zM6 8h1v1H6zM25 8h1v1H25zM26 8h1v1H26zM15 9h1v1H15zM16 9h1v1H16zM7 10h1v1H7zM8 10h1v1H8zM15 10h1v1H15zM16 10h1v1H16zM23 10h1v1H23zM24 10h1v1H24zM7 11h1v1H7zM8 11h1v1H8zM9 11h1v1H9zM15 11h1v1H15zM16 11h1v1H16zM22 11h1v1H22zM23 11h1v1H23zM8 12h1v1H8zM9 12h1v1H9zM10 12h1v1H10zM12 12h1v1H12zM13 12h1v1H13zM15 12h1v1H15zM16 12h1v1H16zM18 12h1v1H18zM19 12h1v1H19zM21 12h1v1H21zM22 12h1v1H22zM23 12h1v1H23zM4 13h1v1H4zM6 13h1v1H6zM9 13h1v1H9zM13 13h1v1H13zM15 13h1v1H15zM16 13h1v1H16zM18 13h1v1H18zM22 13h1v1H22zM25 13h1v1H25zM27 13h1v1H27zM5 14h1v1H5zM6 14h1v1H6zM13 14h1v1H13zM14 14h1v1H14zM15 14h1v1H15zM16 14h1v1H16zM17 14h1v1H17zM24 14h1v1H24zM25 14h1v1H25zM26 14h1v1H26zM6 15h1v1H6zM15 15h1v1H15zM16 15h1v1H16zM17 15h1v1H17zM25 15h1v1H25zM5 22h1v1H5zM6 22h1v1H6zM25 22h1v1H25zM26 22h1v1H26zM6 23h1v1H6zM3 24h1v1H3zM4 24h1v1H4zM5 24h1v1H5zM8 24h1v1H8zM15 24h1v1H15zM23 24h1v1H23zM26 24h1v1H26zM27 24h1v1H27zM28 24h1v1H28zM14 25h1v1H14zM16 25h1v1H16zM17 25h1v1H17zM9 26h1v1H9zM16 26h1v1H16zM17 26h1v1H17zM22 26h1v1H22z"/><path fill="#f2dfbd" d="M6 6h1v1H6zM25 6h1v1H25zM5 13h1v1H5zM26 13h1v1H26zM14 24h1v1H14z"/><path fill="#df452f" d="M8 6h1v1H8zM23 6h1v1H23zM8 7h1v1H8zM23 7h1v1H23zM7 8h1v1H7zM8 8h1v1H8zM9 8h1v1H9zM10 8h1v1H10zM20 8h1v1H20zM21 8h1v1H21zM22 8h1v1H22zM23 8h1v1H23zM24 8h1v1H24zM5 9h1v1H5zM6 9h1v1H6zM7 9h1v1H7zM8 9h1v1H8zM9 9h1v1H9zM10 9h1v1H10zM11 9h1v1H11zM12 9h1v1H12zM19 9h1v1H19zM20 9h1v1H20zM21 9h1v1H21zM22 9h1v1H22zM23 9h1v1H23zM24 9h1v1H24zM25 9h1v1H25zM26 9h1v1H26zM6 10h1v1H6zM9 10h1v1H9zM10 10h1v1H10zM11 10h1v1H11zM20 10h1v1H20zM21 10h1v1H21zM22 10h1v1H22zM25 10h1v1H25zM10 11h1v1H10zM21 11h1v1H21zM3 16h1v1H3zM28 16h1v1H28zM6 19h1v1H6zM2 24h1v1H2zM29 24h1v1H29zM2 25h1v1H2zM3 25h1v1H3zM18 25h1v1H18zM28 25h1v1H28z"/><path fill="#b32519" d="M9 7h1v1H9zM10 7h1v1H10zM20 7h1v1H20zM21 7h1v1H21zM22 7h1v1H22zM11 8h1v1H11zM19 8h1v1H19zM18 9h1v1H18zM5 10h1v1H5zM12 10h1v1H12zM19 10h1v1H19zM26 10h1v1H26zM6 11h1v1H6zM11 11h1v1H11zM20 11h1v1H20zM25 11h1v1H25zM7 12h1v1H7zM24 12h1v1H24zM25 12h1v1H25zM4 15h1v1H4zM27 15h1v1H27zM4 16h1v1H4zM27 16h1v1H27zM25 19h1v1H25zM6 20h1v1H6zM25 20h1v1H25zM6 21h1v1H6zM25 21h1v1H25zM3 23h1v1H3zM4 23h1v1H4zM5 23h1v1H5zM26 23h1v1H26zM27 23h1v1H27zM16 24h1v1H16zM17 24h1v1H17zM6 25h1v1H6zM13 25h1v1H13zM15 25h1v1H15zM29 25h1v1H29zM14 26h1v1H14zM15 26h1v1H15zM28 26h1v1H28zM15 27h1v1H15zM16 27h1v1H16z"/><path fill="#cd7434" d="M14 10h1v1H14zM17 10h1v1H17zM14 11h1v1H14zM17 11h1v1H17zM24 11h1v1H24zM3 12h1v1H3zM4 12h1v1H4zM27 12h1v1H27zM28 12h1v1H28zM10 13h1v1H10zM12 13h1v1H12zM14 13h1v1H14zM17 13h1v1H17zM19 13h1v1H19zM21 13h1v1H21zM7 14h1v1H7zM18 14h1v1H18zM6 16h1v1H6zM25 16h1v1H25zM7 23h1v1H7zM24 23h1v1H24zM25 23h1v1H25zM7 24h1v1H7zM9 24h1v1H9zM10 24h1v1H10zM11 24h1v1H11zM20 24h1v1H20zM21 24h1v1H21zM22 24h1v1H22zM24 24h1v1H24zM4 25h1v1H4zM27 25h1v1H27zM10 26h1v1H10zM21 26h1v1H21zM8 27h1v1H8zM9 27h1v1H9zM22 27h1v1H22zM23 27h1v1H23zM12 28h1v1H12zM19 28h1v1H19z"/><path fill="#000000" d="M8 16h1v1H8zM9 16h1v1H9zM10 16h1v1H10zM11 16h1v1H11zM12 16h1v1H12zM13 16h1v1H13zM14 16h1v1H14zM17 16h1v1H17zM18 16h1v1H18zM19 16h1v1H19zM20 16h1v1H20zM21 16h1v1H21zM22 16h1v1H22zM23 16h1v1H23zM8 17h1v1H8zM9 17h1v1H9zM10 17h1v1H10zM13 17h1v1H13zM14 17h1v1H14zM15 17h1v1H15zM16 17h1v1H16zM17 17h1v1H17zM18 17h1v1H18zM21 17h1v1H21zM22 17h1v1H22zM23 17h1v1H23zM8 18h1v1H8zM9 18h1v1H9zM14 18h1v1H14zM15 18h1v1H15zM16 18h1v1H16zM17 18h1v1H17zM22 18h1v1H22zM23 18h1v1H23zM8 19h1v1H8zM9 19h1v1H9zM13 19h1v1H13zM14 19h1v1H14zM15 19h1v1H15zM16 19h1v1H16zM17 19h1v1H17zM18 19h1v1H18zM22 19h1v1H22zM23 19h1v1H23zM8 20h1v1H8zM9 20h1v1H9zM13 20h1v1H13zM14 20h1v1H14zM15 20h1v1H15zM16 20h1v1H16zM17 20h1v1H17zM18 20h1v1H18zM22 20h1v1H22zM23 20h1v1H23zM8 21h1v1H8zM9 21h1v1H9zM10 21h1v1H10zM14 21h1v1H14zM15 21h1v1H15zM16 21h1v1H16zM17 21h1v1H17zM21 21h1v1H21zM22 21h1v1H22zM23 21h1v1H23zM8 22h1v1H8zM9 22h1v1H9zM10 22h1v1H10zM11 22h1v1H11zM14 22h1v1H14zM15 22h1v1H15zM16 22h1v1H16zM17 22h1v1H17zM20 22h1v1H20zM21 22h1v1H21zM22 22h1v1H22zM23 22h1v1H23z"/><path fill="#ffffff" d="M11 17h1v1H11zM12 17h1v1H12zM19 17h1v1H19zM20 17h1v1H20zM11 18h1v1H11zM12 18h1v1H12zM13 18h1v1H13zM18 18h1v1H18zM19 18h1v1H19zM20 18h1v1H20zM11 19h1v1H11zM12 19h1v1H12zM19 19h1v1H19zM20 19h1v1H20zM11 20h1v1H11zM12 20h1v1H12zM19 20h1v1H19zM20 20h1v1H20zM11 21h1v1H11zM12 21h1v1H12zM19 21h1v1H19zM20 21h1v1H20zM12 22h1v1H12zM13 22h1v1H13zM18 22h1v1H18zM19 22h1v1H19z"/><path fill="#9f6935" d="M10 18h1v1H10zM21 18h1v1H21z"/><path fill="#7b4820" d="M10 19h1v1H10zM21 19h1v1H21zM13 21h1v1H13zM18 21h1v1H18z"/><path fill="#2b1a0b" d="M10 20h1v1H10zM21 20h1v1H21z"/></svg>
