<svg xmlns="http://www.w3.org/2000/svg" viewBox="0 0 32 32" shape-rendering="crispEdges"><path fill="#fee8d3" d="M15 0h1v1H15zM16 0h1v1H16zM7 2h1v1H7zM8 2h1v1H8zM9 2h1v1H9zM22 2h1v1H22zM23 2h1v1H23zM24 2h1v1H24zM5 4h1v1H5zM6 4h1v1H6zM13 4h1v1H13zM18 4h1v1H18zM25 4h1v1H25zM26 4h1v1H26zM4 5h1v1H4zM7 5h1v1H7zM12 5h1v1H12zM19 5h1v1H19zM24 5h1v1H24zM27 5h1v1H27zM4 6h1v1H4zM7 6h1v1H7zM8 6h1v1H8zM15 6h1v1H15zM16 6h1v1H16zM23 6h1v1H23zM24 6h1v1H24zM27 6h1v1H27zM3 7h1v1H3zM8 7h1v1H8zM9 7h1v1H9zM14 7h1v1H14zM17 7h1v1H17zM22 7h1v1H22zM23 7h1v1H23zM28 7h1v1H28zM10 8h1v1H10zM13 8h1v1H13zM18 8h1v1H18zM21 8h1v1H21zM2 10h1v1H2zM3 10h1v1H3zM28 10h1v1H28zM29 10h1v1H29zM1 11h1v1H1zM30 11h1v1H30zM1 12h1v1H1zM4 12h1v1H4zM27 12h1v1H27zM30 12h1v1H30zM0 13h1v1H0zM5 13h1v1H5zM26 13h1v1H26zM31 13h1v1H31zM15 14h1v1H15zM16 14h1v1H16zM15 15h1v1H15zM16 15h1v1H16zM15 16h1v1H15zM16 16h1v1H16zM3 17h1v1H3zM7 17h1v1H7zM24 17h1v1H24zM28 17h1v1H28zM2 18h1v1H2zM4 18h1v1H4zM8 18h1v1H8zM23 18h1v1H23zM27 18h1v1H27zM29 18h1v1H29zM1 19h1v1H1zM5 19h1v1H5zM8 19h1v1H8zM23 19h1v1H23zM26 19h1v1H26zM30 19h1v1H30zM15 22h1v1H15zM16 22h1v1H16zM5 23h1v1H5zM6 23h1v1H6zM7 23h1v1H7zM14 23h1v1H14zM17 23h1v1H17zM24 23h1v1H24zM25 23h1v1H25zM26 23h1v1H26zM4 24h1v1H4zM8 24h1v1H8zM13 24h1v1H13zM18 24h1v1H18zM23 24h1v1H23zM27 24h1v1H27zM3 25h1v1H3zM9 25h1v1H9zM12 25h1v1H12zM19 25h1v1H19zM22 25h1v1H22zM28 25h1v1H28zM3 26h1v1H3zM9 26h1v1H9zM12 26h1v1H12zM19 26h1v1H19zM22 26h1v1H22zM28 26h1v1H28zM3 27h1v1H3zM8 27h1v1H8zM9 27h1v1H9zM22 27h1v1H22zM23 27h1v1H23zM28 27h1v1H28zM5 28h1v1H5zM6 28h1v1H6zM7 28h1v1H7zM24 28h1v1H24zM25 28h1v1H25zM26 28h1v1H26z"/><path fill="#ef2259" d="M15 1h1v1H15zM16 1h1v1H16zM15 3h1v1H15zM16 3h1v1H16zM10 4h1v1H10zM15 4h1v1H15zM16 4h1v1H16zM21 4h1v1H21zM5 5h1v1H5zM10 5h1v1H10zM11 5h1v1H11zM20 5h1v1H20zM21 5h1v1H21zM26 5h1v1H26zM6 6h1v1H6zM10 6h1v1H10zM12 6h1v1H12zM13 6h1v1H13zM18 6h1v1H18zM19 6h1v1H19zM21 6h1v1H21zM25 6h1v1H25zM11 7h1v1H11zM20 7h1v1H20zM4 8h1v1H4zM6 8h1v1H6zM25 8h1v1H25zM27 8h1v1H27zM5 9h1v1H5zM6 9h1v1H6zM7 9h1v1H7zM24 9h1v1H24zM25 9h1v1H25zM26 9h1v1H26zM6 10h1v1H6zM7 10h1v1H7zM24 10h1v1H24zM25 10h1v1H25zM2 11h1v1H2zM4 11h1v1H4zM6 11h1v1H6zM25 11h1v1H25zM27 11h1v1H27zM29 11h1v1H29zM3 12h1v1H3zM10 12h1v1H10zM13 12h1v1H13zM18 12h1v1H18zM21 12h1v1H21zM28 12h1v1H28zM4 13h1v1H4zM9 13h1v1H9zM11 13h1v1H11zM14 13h1v1H14zM17 13h1v1H17zM20 13h1v1H20zM22 13h1v1H22zM27 13h1v1H27zM2 14h1v1H2zM3 14h1v1H3zM4 14h1v1H4zM8 14h1v1H8zM12 14h1v1H12zM19 14h1v1H19zM23 14h1v1H23zM27 14h1v1H27zM28 14h1v1H28zM29 14h1v1H29zM3 15h1v1H3zM14 15h1v1H14zM17 15h1v1H17zM28 15h1v1H28zM10 18h1v1H10zM21 18h1v1H21zM2 20h1v1H2zM4 20h1v1H4zM5 20h1v1H5zM12 20h1v1H12zM19 20h1v1H19zM26 20h1v1H26zM27 20h1v1H27zM29 20h1v1H29zM3 21h1v1H3zM4 21h1v1H4zM27 21h1v1H27zM28 21h1v1H28zM6 24h1v1H6zM7 24h1v1H7zM24 24h1v1H24zM25 24h1v1H25zM8 25h1v1H8zM23 25h1v1H23zM8 26h1v1H8zM13 26h1v1H13zM18 26h1v1H18zM23 26h1v1H23z"/><path fill="#fdbda6" d="M14 2h1v1H14zM17 2h1v1H17zM7 3h1v1H7zM10 3h1v1H10zM14 3h1v1H14zM17 3h1v1H17zM21 3h1v1H21zM24 3h1v1H24zM11 4h1v1H11zM20 4h1v1H20zM6 5h1v1H6zM25 5h1v1H25zM3 8h1v1H3zM9 8h1v1H9zM22 8h1v1H22zM28 8h1v1H28zM3 9h1v1H3zM9 9h1v1H9zM22 9h1v1H22zM28 9h1v1H28zM3 11h1v1H3zM13 11h1v1H13zM18 11h1v1H18zM28 11h1v1H28zM0 14h1v1H0zM6 14h1v1H6zM25 14h1v1H25zM31 14h1v1H31zM1 15h1v1H1zM30 15h1v1H30zM15 17h1v1H15zM16 17h1v1H16zM15 18h1v1H15zM16 18h1v1H16zM1 20h1v1H1zM6 20h1v1H6zM8 20h1v1H8zM23 20h1v1H23zM25 20h1v1H25zM30 20h1v1H30zM1 21h1v1H1zM6 21h1v1H6zM8 21h1v1H8zM23 21h1v1H23zM25 21h1v1H25zM30 21h1v1H30zM9 22h1v1H9zM22 22h1v1H22zM8 23h1v1H8zM10 23h1v1H10zM21 23h1v1H21zM23 23h1v1H23zM9 24h1v1H9zM11 24h1v1H11zM20 24h1v1H20zM22 24h1v1H22zM10 25h1v1H10zM21 25h1v1H21zM10 26h1v1H10zM21 26h1v1H21zM12 27h1v1H12zM19 27h1v1H19zM4 28h1v1H4zM8 28h1v1H8zM13 28h1v1H13zM18 28h1v1H18zM23 28h1v1H23zM27 28h1v1H27z"/><path fill="#ffffff" d="M15 2h1v1H15zM16 2h1v1H16zM8 3h1v1H8zM9 3h1v1H9zM22 3h1v1H22zM23 3h1v1H23zM8 4h1v1H8zM9 4h1v1H9zM14 4h1v1H14zM17 4h1v1H17zM22 4h1v1H22zM23 4h1v1H23zM9 5h1v1H9zM14 5h1v1H14zM17 5h1v1H17zM22 5h1v1H22zM5 6h1v1H5zM11 6h1v1H11zM20 6h1v1H20zM26 6h1v1H26zM4 7h1v1H4zM5 7h1v1H5zM6 7h1v1H6zM12 7h1v1H12zM19 7h1v1H19zM25 7h1v1H25zM26 7h1v1H26zM27 7h1v1H27zM5 8h1v1H5zM26 8h1v1H26zM10 9h1v1H10zM13 9h1v1H13zM18 9h1v1H18zM21 9h1v1H21zM10 10h1v1H10zM13 10h1v1H13zM18 10h1v1H18zM21 10h1v1H21zM9 11h1v1H9zM11 11h1v1H11zM14 11h1v1H14zM17 11h1v1H17zM20 11h1v1H20zM22 11h1v1H22zM2 12h1v1H2zM9 12h1v1H9zM12 12h1v1H12zM15 12h1v1H15zM16 12h1v1H16zM19 12h1v1H19zM22 12h1v1H22zM29 12h1v1H29zM1 13h1v1H1zM2 13h1v1H2zM3 13h1v1H3zM7 13h1v1H7zM8 13h1v1H8zM13 13h1v1H13zM18 13h1v1H18zM23 13h1v1H23zM24 13h1v1H24zM28 13h1v1H28zM29 13h1v1H29zM30 13h1v1H30zM7 14h1v1H7zM14 14h1v1H14zM17 14h1v1H17zM24 14h1v1H24zM7 15h1v1H7zM24 15h1v1H24zM7 16h1v1H7zM11 16h1v1H11zM12 16h1v1H12zM19 16h1v1H19zM20 16h1v1H20zM24 16h1v1H24zM4 17h1v1H4zM8 17h1v1H8zM11 17h1v1H11zM13 17h1v1H13zM18 17h1v1H18zM20 17h1v1H20zM23 17h1v1H23zM27 17h1v1H27zM3 18h1v1H3zM5 18h1v1H5zM11 18h1v1H11zM20 18h1v1H20zM26 18h1v1H26zM28 18h1v1H28zM2 19h1v1H2zM3 19h1v1H3zM6 19h1v1H6zM10 19h1v1H10zM11 19h1v1H11zM20 19h1v1H20zM21 19h1v1H21zM25 19h1v1H25zM28 19h1v1H28zM29 19h1v1H29zM3 20h1v1H3zM10 20h1v1H10zM11 20h1v1H11zM20 20h1v1H20zM21 20h1v1H21zM28 20h1v1H28zM11 21h1v1H11zM12 21h1v1H12zM19 21h1v1H19zM20 21h1v1H20zM6 22h1v1H6zM12 22h1v1H12zM13 22h1v1H13zM18 22h1v1H18zM19 22h1v1H19zM25 22h1v1H25zM4 27h1v1H4zM13 27h1v1H13zM18 27h1v1H18zM27 27h1v1H27zM14 28h1v1H14zM17 28h1v1H17zM15 29h1v1H15zM16 29h1v1H16z"/><path fill="#69012c" d="M7 4h1v1H7zM24 4h1v1H24zM13 5h1v1H13zM18 5h1v1H18z"/><path fill="#ffcbd4" d="M8 5h1v1H8zM15 5h1v1H15zM16 5h1v1H16zM23 5h1v1H23zM9 6h1v1H9zM14 6h1v1H14zM17 6h1v1H17zM22 6h1v1H22zM10 7h1v1H10zM21 7h1v1H21zM14 9h1v1H14zM15 10h1v1H15zM16 10h1v1H16zM10 11h1v1H10zM21 11h1v1H21zM12 13h1v1H12zM19 13h1v1H19zM13 14h1v1H13zM18 14h1v1H18zM14 25h1v1H14zM16 25h1v1H16zM6 26h1v1H6zM16 26h1v1H16zM25 26h1v1H25zM15 27h1v1H15z"/><path fill="#ef7393" d="M7 7h1v1H7zM24 7h1v1H24zM7 8h1v1H7zM8 8h1v1H8zM23 8h1v1H23zM24 8h1v1H24zM8 9h1v1H8zM23 9h1v1H23zM5 12h1v1H5zM11 12h1v1H11zM20 12h1v1H20zM26 12h1v1H26zM6 13h1v1H6zM25 13h1v1H25zM10 14h1v1H10zM21 14h1v1H21zM4 19h1v1H4zM27 19h1v1H27z"/><path fill="#900539" d="M13 7h1v1H13zM18 7h1v1H18zM11 8h1v1H11zM20 8h1v1H20zM4 9h1v1H4zM27 9h1v1H27zM8 10h1v1H8zM23 10h1v1H23zM10 13h1v1H10zM21 13h1v1H21zM1 14h1v1H1zM5 14h1v1H5zM9 14h1v1H9zM11 14h1v1H11zM20 14h1v1H20zM22 14h1v1H22zM26 14h1v1H26zM30 14h1v1H30zM8 15h1v1H8zM23 15h1v1H23zM6 16h1v1H6zM8 16h1v1H8zM23 16h1v1H23zM25 16h1v1H25zM10 17h1v1H10zM21 17h1v1H21zM6 18h1v1H6zM25 18h1v1H25zM12 19h1v1H12zM19 19h1v1H19zM2 21h1v1H2zM5 21h1v1H5zM26 21h1v1H26zM29 21h1v1H29zM11 26h1v1H11zM20 26h1v1H20zM10 27h1v1H10zM21 27h1v1H21z"/><path fill="#fe6185" d="M15 7h1v1H15zM16 7h1v1H16zM14 8h1v1H14zM17 8h1v1H17zM17 9h1v1H17zM15 23h1v1H15zM16 23h1v1H16zM14 24h1v1H14zM17 24h1v1H17z"/><path fill="#4c032e" d="M12 8h1v1H12zM19 8h1v1H19zM11 9h1v1H11zM12 9h1v1H12zM19 9h1v1H19zM20 9h1v1H20zM11 10h1v1H11zM12 10h1v1H12zM19 10h1v1H19zM20 10h1v1H20zM12 11h1v1H12zM19 11h1v1H19zM10 16h1v1H10zM21 16h1v1H21zM5 17h1v1H5zM6 17h1v1H6zM25 17h1v1H25zM26 17h1v1H26zM7 18h1v1H7zM24 18h1v1H24zM7 19h1v1H7zM24 19h1v1H24zM7 20h1v1H7zM13 20h1v1H13zM18 20h1v1H18zM24 20h1v1H24zM7 21h1v1H7zM24 21h1v1H24zM7 22h1v1H7zM24 22h1v1H24zM11 27h1v1H11zM20 27h1v1H20zM9 28h1v1H9zM10 28h1v1H10zM12 28h1v1H12zM19 28h1v1H19zM21 28h1v1H21zM22 28h1v1H22zM13 29h1v1H13zM18 29h1v1H18zM14 30h1v1H14zM17 30h1v1H17z"/><path fill="#fefefe" d="M15 8h1v1H15zM16 8h1v1H16zM13 23h1v1H13zM18 23h1v1H18zM12 24h1v1H12zM15 24h1v1H15zM19 24h1v1H19zM5 25h1v1H5zM26 25h1v1H26z"/><path fill="#feb4c1" d="M15 9h1v1H15zM16 9h1v1H16zM15 25h1v1H15zM5 26h1v1H5zM26 26h1v1H26z"/><path fill="#a7615d" d="M4 10h1v1H4zM9 10h1v1H9zM22 10h1v1H22zM27 10h1v1H27zM5 11h1v1H5zM26 11h1v1H26zM6 12h1v1H6zM7 12h1v1H7zM8 12h1v1H8zM14 12h1v1H14zM17 12h1v1H17zM23 12h1v1H23zM24 12h1v1H24zM25 12h1v1H25zM15 13h1v1H15zM16 13h1v1H16zM6 15h1v1H6zM25 15h1v1H25zM2 16h1v1H2zM3 16h1v1H3zM4 16h1v1H4zM5 16h1v1H5zM26 16h1v1H26zM27 16h1v1H27zM28 16h1v1H28zM29 16h1v1H29zM15 19h1v1H15zM16 19h1v1H16zM15 20h1v1H15zM16 20h1v1H16zM3 22h1v1H3zM4 22h1v1H4zM5 22h1v1H5zM8 22h1v1H8zM23 22h1v1H23zM26 22h1v1H26zM27 22h1v1H27zM28 22h1v1H28zM9 23h1v1H9zM22 23h1v1H22zM10 24h1v1H10zM21 24h1v1H21zM11 25h1v1H11zM20 25h1v1H20zM14 29h1v1H14zM17 29h1v1H17zM15 30h1v1H15zM16 30h1v1H16z"/><path fill="#a60d42" d="M5 10h1v1H5zM26 10h1v1H26zM7 11h1v1H7zM8 11h1v1H8zM23 11h1v1H23zM24 11h1v1H24zM2 15h1v1H2zM4 15h1v1H4zM5 15h1v1H5zM26 15h1v1H26zM27 15h1v1H27zM29 15h1v1H29z"/><path fill="#db164b" d="M14 10h1v1H14zM14 27h1v1H14zM17 27h1v1H17z"/><path fill="#df174e" d="M17 10h1v1H17z"/><path fill="#e91d53" d="M15 11h1v1H15zM16 11h1v1H16zM15 28h1v1H15zM16 28h1v1H16z"/><path fill="#1e0014" d="M9 15h1v1H9zM10 15h1v1H10zM11 15h1v1H11zM12 15h1v1H12zM13 15h1v1H13zM18 15h1v1H18zM19 15h1v1H19zM20 15h1v1H20zM21 15h1v1H21zM22 15h1v1H22zM9 16h1v1H9zM22 16h1v1H22zM9 17h1v1H9zM22 17h1v1H22zM9 18h1v1H9zM22 18h1v1H22zM9 19h1v1H9zM22 19h1v1H22zM9 20h1v1H9zM22 20h1v1H22zM9 21h1v1H9zM10 21h1v1H10zM21 21h1v1H21zM22 21h1v1H22zM10 22h1v1H10zM11 22h1v1H11zM20 22h1v1H20zM21 22h1v1H21zM11 23h1v1H11zM12 23h1v1H12zM19 23h1v1H19zM20 23h1v1H20z"/><path fill="#000000" d="M13 16h1v1H13zM14 16h1v1H14zM17 16h1v1H17zM18 16h1v1H18zM12 17h1v1H12zM14 17h1v1H14zM17 17h1v1H17zM19 17h1v1H19zM12 18h1v1H12zM13 18h1v1H13zM14 18h1v1H14zM17 18h1v1H17zM18 18h1v1H18zM19 18h1v1H19zM13 19h1v1H13zM14 19h1v1H14zM17 19h1v1H17zM18 19h1v1H18zM14 20h1v1H14zM17 20h1v1H17zM14 21h1v1H14zM17 21h1v1H17z"/><path fill="#fd6897" d="M13 21h1v1H13zM18 21h1v1H18zM7 25h1v1H7zM13 25h1v1H13zM18 25h1v1H18zM24 25h1v1H24zM7 26h1v1H7zM15 26h1v1H15zM24 26h1v1H24zM5 27h1v1H5zM6 27h1v1H6zM16 27h1v1H16zM25 27h1v1H25zM26 27h1v1H26z"/><path fill="#fefdfd" d="M15 21h1v1H15zM16 21h1v1H16z"/><path fill="#fafdfb" d="M14 22h1v1H14zM17 22h1v1H17z"/><path fill="#eb1f55" d="M5 24h1v1H5zM26 24h1v1H26zM4 25h1v1H4zM27 25h1v1H27zM4 26h1v1H4zM27 26h1v1H27zM7 27h1v1H7zM24 27h1v1H24z"/><path fill="#feecf0" d="M16 24h1v1H16zM6 25h1v1H6zM17 25h1v1H17zM25 25h1v1H25z"/><path fill="#fd90a0" d="M14 26h1v1H14z"/><path fill="#ffb8c8" d="M17 26h1v1H17z"/></svg>
