<svg xmlns="http://www.w3.org/2000/svg" viewBox="0 0 32 32" shape-rendering="crispEdges"><path fill="#471400" d="M5 1h1v1H5zM6 1h1v1H6zM25 1h1v1H25zM26 1h1v1H26zM5 2h1v1H5zM7 2h1v1H7zM24 2h1v1H24zM26 2h1v1H26zM7 3h1v1H7zM24 3h1v1H24zM3 4h1v1H3zM28 4h1v1H28zM3 6h1v1H3zM28 6h1v1H28zM5 7h1v1H5zM26 7h1v1H26zM2 11h1v1H2zM29 11h1v1H29zM3 15h1v1H3zM28 15h1v1H28zM4 17h1v1H4zM27 17h1v1H27z"/><path fill="#92d112" d="M15 1h1v1H15zM16 1h1v1H16zM13 6h1v1H13zM18 6h1v1H18zM3 8h1v1H3zM28 8h1v1H28zM13 10h1v1H13zM18 10h1v1H18zM15 13h1v1H15zM16 13h1v1H16zM3 18h1v1H3zM8 18h1v1H8zM23 18h1v1H23zM28 18h1v1H28zM3 19h1v1H3zM8 19h1v1H8zM23 19h1v1H23zM28 19h1v1H28zM3 20h1v1H3zM4 20h1v1H4zM8 20h1v1H8zM23 20h1v1H23zM27 20h1v1H27zM28 20h1v1H28zM4 21h1v1H4zM5 21h1v1H5zM6 21h1v1H6zM8 21h1v1H8zM23 21h1v1H23zM25 21h1v1H25zM26 21h1v1H26zM27 21h1v1H27zM6 23h1v1H6zM7 23h1v1H7zM24 23h1v1H24zM25 23h1v1H25zM7 24h1v1H7zM24 24h1v1H24zM3 25h1v1H3zM9 25h1v1H9zM10 25h1v1H10zM21 25h1v1H21zM22 25h1v1H22zM28 25h1v1H28zM13 26h1v1H13zM15 26h1v1H15zM18 26h1v1H18zM15 27h1v1H15zM16 27h1v1H16z"/><path fill="#d0a74c" d="M6 2h1v1H6zM25 2h1v1H25z"/><path fill="#0e5216" d="M9 2h1v1H9zM10 2h1v1H10zM21 2h1v1H21zM22 2h1v1H22zM9 3h1v1H9zM22 3h1v1H22zM15 4h1v1H15zM16 4h1v1H16zM7 5h1v1H7zM8 5h1v1H8zM23 5h1v1H23zM24 5h1v1H24zM7 6h1v1H7zM24 6h1v1H24zM2 7h1v1H2zM3 7h1v1H3zM12 7h1v1H12zM13 7h1v1H13zM18 7h1v1H18zM19 7h1v1H19zM28 7h1v1H28zM29 7h1v1H29zM2 8h1v1H2zM4 8h1v1H4zM27 8h1v1H27zM29 8h1v1H29zM5 9h1v1H5zM26 9h1v1H26zM6 11h1v1H6zM25 11h1v1H25zM10 12h1v1H10zM21 12h1v1H21zM9 13h1v1H9zM22 13h1v1H22zM8 14h1v1H8zM23 14h1v1H23zM2 17h1v1H2zM29 17h1v1H29zM2 18h1v1H2zM29 18h1v1H29zM2 19h1v1H2zM29 19h1v1H29zM4 22h1v1H4zM27 22h1v1H27zM6 24h1v1H6zM25 24h1v1H25zM8 26h1v1H8zM23 26h1v1H23zM7 27h1v1H7zM8 27h1v1H8zM9 27h1v1H9zM13 27h1v1H13zM14 27h1v1H14zM18 27h1v1H18zM22 27h1v1H22zM23 27h1v1H23zM24 27h1v1H24zM6 28h1v1H6zM7 28h1v1H7zM15 28h1v1H15zM24 28h1v1H24zM25 28h1v1H25zM10 29h1v1H10zM21 29h1v1H21z"/><path fill="#263b15" d="M14 2h1v1H14zM17 2h1v1H17zM11 3h1v1H11zM14 3h1v1H14zM17 3h1v1H17zM20 3h1v1H20zM9 4h1v1H9zM12 4h1v1H12zM13 4h1v1H13zM18 4h1v1H18zM19 4h1v1H19zM22 4h1v1H22zM15 5h1v1H15zM16 5h1v1H16zM7 7h1v1H7zM24 7h1v1H24zM2 9h1v1H2zM29 9h1v1H29zM6 10h1v1H6zM14 10h1v1H14zM17 10h1v1H17zM25 10h1v1H25zM6 12h1v1H6zM25 12h1v1H25zM14 14h1v1H14zM17 14h1v1H17zM15 16h1v1H15zM16 16h1v1H16zM16 17h1v1H16zM15 21h1v1H15zM16 21h1v1H16zM7 22h1v1H7zM24 22h1v1H24zM12 24h1v1H12zM19 24h1v1H19z"/><path fill="#fcfa6d" d="M15 2h1v1H15zM16 2h1v1H16zM11 5h1v1H11zM20 5h1v1H20zM15 6h1v1H15zM16 6h1v1H16zM14 8h1v1H14zM17 8h1v1H17z"/><path fill="#724627" d="M5 3h1v1H5zM26 3h1v1H26zM6 4h1v1H6zM25 4h1v1H25zM3 5h1v1H3zM6 5h1v1H6zM25 5h1v1H25zM28 5h1v1H28zM4 6h1v1H4zM5 6h1v1H5zM6 6h1v1H6zM25 6h1v1H25zM26 6h1v1H26zM27 6h1v1H27zM2 13h1v1H2zM3 13h1v1H3zM4 13h1v1H4zM27 13h1v1H27zM28 13h1v1H28zM29 13h1v1H29zM3 14h1v1H3zM15 14h1v1H15zM16 14h1v1H16zM28 14h1v1H28zM5 16h1v1H5zM26 16h1v1H26zM7 18h1v1H7zM24 18h1v1H24zM5 20h1v1H5zM26 20h1v1H26zM3 22h1v1H3zM28 22h1v1H28zM3 23h1v1H3zM15 23h1v1H15zM16 23h1v1H16zM28 23h1v1H28zM14 24h1v1H14zM17 24h1v1H17zM11 25h1v1H11zM13 25h1v1H13zM18 25h1v1H18zM20 25h1v1H20zM14 28h1v1H14zM17 28h1v1H17zM4 29h1v1H4zM5 29h1v1H5zM15 29h1v1H15zM16 29h1v1H16zM26 29h1v1H26zM27 29h1v1H27z"/><path fill="#be7c37" d="M6 3h1v1H6zM25 3h1v1H25zM6 7h1v1H6zM25 7h1v1H25zM2 12h1v1H2zM29 12h1v1H29zM5 13h1v1H5zM26 13h1v1H26zM4 14h1v1H4zM5 14h1v1H5zM26 14h1v1H26zM27 14h1v1H27zM4 15h1v1H4zM5 15h1v1H5zM26 15h1v1H26zM27 15h1v1H27zM4 16h1v1H4zM27 16h1v1H27zM8 22h1v1H8zM23 22h1v1H23zM4 23h1v1H4zM9 23h1v1H9zM10 23h1v1H10zM21 23h1v1H21zM22 23h1v1H22zM27 23h1v1H27zM4 24h1v1H4zM5 24h1v1H5zM11 24h1v1H11zM20 24h1v1H20zM26 24h1v1H26zM27 24h1v1H27zM5 25h1v1H5zM12 25h1v1H12zM19 25h1v1H19zM26 25h1v1H26zM6 26h1v1H6zM25 26h1v1H25zM8 28h1v1H8zM23 28h1v1H23zM8 29h1v1H8zM9 29h1v1H9zM22 29h1v1H22zM23 29h1v1H23z"/><path fill="#fdfdcc" d="M10 3h1v1H10zM15 3h1v1H15zM16 3h1v1H16zM21 3h1v1H21zM8 6h1v1H8zM23 6h1v1H23zM9 8h1v1H9zM10 8h1v1H10zM21 8h1v1H21zM22 8h1v1H22zM9 9h1v1H9zM10 9h1v1H10zM21 9h1v1H21zM22 9h1v1H22zM11 10h1v1H11zM12 10h1v1H12zM19 10h1v1H19zM20 10h1v1H20zM8 11h1v1H8zM11 11h1v1H11zM12 11h1v1H12zM19 11h1v1H19zM20 11h1v1H20zM23 11h1v1H23zM7 13h1v1H7zM24 13h1v1H24zM6 15h1v1H6zM7 15h1v1H7zM24 15h1v1H24zM25 15h1v1H25zM6 16h1v1H6zM7 16h1v1H7zM24 16h1v1H24zM25 16h1v1H25zM4 18h1v1H4zM5 18h1v1H5zM26 18h1v1H26zM27 18h1v1H27zM4 19h1v1H4zM5 19h1v1H5zM26 19h1v1H26zM27 19h1v1H27zM5 22h1v1H5zM26 22h1v1H26zM3 26h1v1H3zM28 26h1v1H28z"/><path fill="#1d0a01" d="M7 4h1v1H7zM24 4h1v1H24zM6 17h1v1H6zM25 17h1v1H25zM6 18h1v1H6zM25 18h1v1H25zM7 20h1v1H7zM24 20h1v1H24zM7 21h1v1H7zM24 21h1v1H24zM4 25h1v1H4zM27 25h1v1H27zM6 27h1v1H6zM25 27h1v1H25zM13 28h1v1H13zM18 28h1v1H18zM14 29h1v1H14zM17 29h1v1H17zM15 30h1v1H15zM16 30h1v1H16z"/><path fill="#cdf138" d="M10 4h1v1H10zM11 4h1v1H11zM14 4h1v1H14zM17 4h1v1H17zM20 4h1v1H20zM21 4h1v1H21zM12 5h1v1H12zM19 5h1v1H19zM12 6h1v1H12zM19 6h1v1H19zM8 7h1v1H8zM9 7h1v1H9zM22 7h1v1H22zM23 7h1v1H23zM8 8h1v1H8zM23 8h1v1H23zM4 9h1v1H4zM11 9h1v1H11zM20 9h1v1H20zM27 9h1v1H27zM5 10h1v1H5zM10 10h1v1H10zM21 10h1v1H21zM26 10h1v1H26zM5 11h1v1H5zM26 11h1v1H26zM13 12h1v1H13zM18 12h1v1H18zM14 13h1v1H14zM17 13h1v1H17zM7 14h1v1H7zM24 14h1v1H24zM8 24h1v1H8zM23 24h1v1H23zM8 25h1v1H8zM16 25h1v1H16zM23 25h1v1H23zM4 26h1v1H4zM10 26h1v1H10zM11 26h1v1H11zM12 26h1v1H12zM17 26h1v1H17zM19 26h1v1H19zM20 26h1v1H20zM21 26h1v1H21zM27 26h1v1H27zM3 27h1v1H3zM10 27h1v1H10zM21 27h1v1H21zM28 27h1v1H28zM11 28h1v1H11zM20 28h1v1H20z"/><path fill="#3c1b01" d="M4 5h1v1H4zM27 5h1v1H27zM9 6h1v1H9zM22 6h1v1H22zM10 7h1v1H10zM21 7h1v1H21zM5 8h1v1H5zM11 8h1v1H11zM20 8h1v1H20zM26 8h1v1H26zM12 9h1v1H12zM19 9h1v1H19zM8 10h1v1H8zM23 10h1v1H23zM13 11h1v1H13zM18 11h1v1H18zM6 13h1v1H6zM25 13h1v1H25zM6 14h1v1H6zM25 14h1v1H25zM15 22h1v1H15zM16 22h1v1H16zM8 23h1v1H8zM14 23h1v1H14zM17 23h1v1H17zM23 23h1v1H23zM9 24h1v1H9zM13 24h1v1H13zM18 24h1v1H18zM22 24h1v1H22zM2 27h1v1H2zM29 27h1v1H29zM9 28h1v1H9zM22 28h1v1H22zM6 29h1v1H6zM13 29h1v1H13zM18 29h1v1H18zM25 29h1v1H25zM7 30h1v1H7zM8 30h1v1H8zM11 30h1v1H11zM14 30h1v1H14zM17 30h1v1H17zM20 30h1v1H20zM23 30h1v1H23zM24 30h1v1H24z"/><path fill="#001c05" d="M9 5h1v1H9zM13 5h1v1H13zM18 5h1v1H18zM22 5h1v1H22zM10 6h1v1H10zM21 6h1v1H21zM11 7h1v1H11zM14 7h1v1H14zM15 7h1v1H15zM16 7h1v1H16zM17 7h1v1H17zM20 7h1v1H20zM7 8h1v1H7zM12 8h1v1H12zM13 8h1v1H13zM18 8h1v1H18zM19 8h1v1H19zM24 8h1v1H24zM8 9h1v1H8zM14 9h1v1H14zM17 9h1v1H17zM23 9h1v1H23zM2 10h1v1H2zM29 10h1v1H29zM3 11h1v1H3zM7 11h1v1H7zM10 11h1v1H10zM21 11h1v1H21zM24 11h1v1H24zM28 11h1v1H28zM3 12h1v1H3zM4 12h1v1H4zM7 12h1v1H7zM14 12h1v1H14zM15 12h1v1H15zM16 12h1v1H16zM17 12h1v1H17zM24 12h1v1H24zM27 12h1v1H27zM28 12h1v1H28zM3 17h1v1H3zM28 17h1v1H28zM2 20h1v1H2zM29 20h1v1H29zM2 21h1v1H2zM3 21h1v1H3zM28 21h1v1H28zM29 21h1v1H29z"/><path fill="#21aa38" d="M10 5h1v1H10zM14 5h1v1H14zM17 5h1v1H17zM21 5h1v1H21zM11 6h1v1H11zM20 6h1v1H20zM15 8h1v1H15zM16 8h1v1H16zM6 9h1v1H6zM25 9h1v1H25zM3 10h1v1H3zM7 10h1v1H7zM24 10h1v1H24zM28 10h1v1H28zM4 11h1v1H4zM9 11h1v1H9zM22 11h1v1H22zM27 11h1v1H27zM5 12h1v1H5zM8 12h1v1H8zM9 12h1v1H9zM11 12h1v1H11zM12 12h1v1H12zM19 12h1v1H19zM20 12h1v1H20zM22 12h1v1H22zM23 12h1v1H23zM26 12h1v1H26zM8 13h1v1H8zM13 13h1v1H13zM18 13h1v1H18zM23 13h1v1H23zM15 15h1v1H15zM16 15h1v1H16zM15 18h1v1H15zM15 19h1v1H15zM16 19h1v1H16zM6 22h1v1H6zM9 22h1v1H9zM22 22h1v1H22zM25 22h1v1H25zM10 24h1v1H10zM21 24h1v1H21zM11 29h1v1H11zM20 29h1v1H20z"/><path fill="#176c1a" d="M14 6h1v1H14zM17 6h1v1H17zM9 10h1v1H9zM22 10h1v1H22zM15 11h1v1H15zM16 11h1v1H16zM7 17h1v1H7zM24 17h1v1H24zM5 23h1v1H5zM26 23h1v1H26zM2 26h1v1H2zM9 26h1v1H9zM22 26h1v1H22zM29 26h1v1H29zM4 27h1v1H4zM11 27h1v1H11zM12 27h1v1H12zM19 27h1v1H19zM20 27h1v1H20zM27 27h1v1H27zM5 28h1v1H5zM10 28h1v1H10zM21 28h1v1H21zM26 28h1v1H26z"/><path fill="#290e00" d="M6 8h1v1H6zM25 8h1v1H25zM1 13h1v1H1zM30 13h1v1H30zM2 14h1v1H2zM29 14h1v1H29zM3 16h1v1H3zM28 16h1v1H28zM7 19h1v1H7zM24 19h1v1H24z"/><path fill="#fcfdb0" d="M3 9h1v1H3zM28 9h1v1H28zM4 10h1v1H4zM27 10h1v1H27z"/><path fill="#461b01" d="M7 9h1v1H7zM24 9h1v1H24zM1 12h1v1H1zM30 12h1v1H30zM5 17h1v1H5zM26 17h1v1H26zM5 26h1v1H5zM7 26h1v1H7zM24 26h1v1H24zM26 26h1v1H26zM4 28h1v1H4zM27 28h1v1H27zM7 29h1v1H7zM24 29h1v1H24z"/><path fill="#eef75e" d="M13 9h1v1H13zM18 9h1v1H18zM14 11h1v1H14zM17 11h1v1H17zM15 25h1v1H15zM14 26h1v1H14z"/><path fill="#ffffff" d="M15 9h1v1H15zM16 9h1v1H16zM11 16h1v1H11zM12 16h1v1H12zM19 16h1v1H19zM20 16h1v1H20zM11 17h1v1H11zM13 17h1v1H13zM18 17h1v1H18zM20 17h1v1H20zM11 18h1v1H11zM20 18h1v1H20zM10 19h1v1H10zM11 19h1v1H11zM20 19h1v1H20zM21 19h1v1H21zM10 20h1v1H10zM11 20h1v1H11zM20 20h1v1H20zM21 20h1v1H21zM11 21h1v1H11zM12 21h1v1H12zM19 21h1v1H19zM20 21h1v1H20zM12 22h1v1H12zM13 22h1v1H13zM18 22h1v1H18zM19 22h1v1H19zM15 24h1v1H15zM16 24h1v1H16zM14 25h1v1H14zM17 25h1v1H17zM16 26h1v1H16z"/><path fill="#49d86e" d="M15 10h1v1H15zM16 10h1v1H16zM15 20h1v1H15zM16 20h1v1H16z"/><path fill="#020204" d="M10 13h1v1H10zM11 13h1v1H11zM12 13h1v1H12zM19 13h1v1H19zM20 13h1v1H20zM21 13h1v1H21zM9 14h1v1H9zM10 14h1v1H10zM11 14h1v1H11zM12 14h1v1H12zM13 14h1v1H13zM18 14h1v1H18zM19 14h1v1H19zM20 14h1v1H20zM21 14h1v1H21zM22 14h1v1H22zM8 15h1v1H8zM9 15h1v1H9zM10 15h1v1H10zM11 15h1v1H11zM12 15h1v1H12zM13 15h1v1H13zM14 15h1v1H14zM17 15h1v1H17zM18 15h1v1H18zM19 15h1v1H19zM20 15h1v1H20zM21 15h1v1H21zM22 15h1v1H22zM23 15h1v1H23zM8 16h1v1H8zM9 16h1v1H9zM14 16h1v1H14zM17 16h1v1H17zM22 16h1v1H22zM23 16h1v1H23zM8 17h1v1H8zM9 17h1v1H9zM14 17h1v1H14zM15 17h1v1H15zM17 17h1v1H17zM22 17h1v1H22zM23 17h1v1H23zM9 18h1v1H9zM14 18h1v1H14zM16 18h1v1H16zM17 18h1v1H17zM22 18h1v1H22zM9 19h1v1H9zM14 19h1v1H14zM17 19h1v1H17zM22 19h1v1H22zM9 20h1v1H9zM14 20h1v1H14zM17 20h1v1H17zM22 20h1v1H22zM9 21h1v1H9zM10 21h1v1H10zM14 21h1v1H14zM17 21h1v1H17zM21 21h1v1H21zM22 21h1v1H22zM10 22h1v1H10zM11 22h1v1H11zM14 22h1v1H14zM17 22h1v1H17zM20 22h1v1H20zM21 22h1v1H21zM11 23h1v1H11zM12 23h1v1H12zM13 23h1v1H13zM18 23h1v1H18zM19 23h1v1H19zM20 23h1v1H20z"/><path fill="#028536" d="M10 16h1v1H10zM21 16h1v1H21z"/><path fill="#000000" d="M13 16h1v1H13zM18 16h1v1H18zM12 17h1v1H12zM19 17h1v1H19zM12 18h1v1H12zM13 18h1v1H13zM18 18h1v1H18zM19 18h1v1H19zM13 19h1v1H13zM18 19h1v1H18z"/><path fill="#06ba4b" d="M10 17h1v1H10zM21 17h1v1H21zM13 20h1v1H13zM18 20h1v1H18z"/><path fill="#1bcc59" d="M10 18h1v1H10zM21 18h1v1H21zM13 21h1v1H13zM18 21h1v1H18z"/><path fill="#1f0e02" d="M6 19h1v1H6zM25 19h1v1H25zM6 20h1v1H6zM25 20h1v1H25zM6 25h1v1H6zM25 25h1v1H25zM5 27h1v1H5zM26 27h1v1H26zM12 28h1v1H12zM19 28h1v1H19zM12 29h1v1H12zM19 29h1v1H19zM10 30h1v1H10zM21 30h1v1H21z"/><path fill="#013815" d="M12 19h1v1H12zM19 19h1v1H19z"/><path fill="#039138" d="M12 20h1v1H12zM19 20h1v1H19z"/><path fill="#291200" d="M2 23h1v1H2zM29 23h1v1H29zM2 24h1v1H2zM3 24h1v1H3zM28 24h1v1H28zM29 24h1v1H29zM2 25h1v1H2zM29 25h1v1H29zM2 28h1v1H2zM3 28h1v1H3zM28 28h1v1H28zM29 28h1v1H29zM3 29h1v1H3zM28 29h1v1H28z"/><path fill="#160a02" d="M7 25h1v1H7zM24 25h1v1H24zM6 30h1v1H6zM9 30h1v1H9zM22 30h1v1H22zM25 30h1v1H25z"/><path fill="#012507" d="M17 27h1v1H17zM16 28h1v1H16z"/></svg>
