<svg xmlns="http://www.w3.org/2000/svg" viewBox="0 0 32 32" shape-rendering="crispEdges"><path fill="#086765" d="M14 1h1v1H14zM15 1h1v1H15zM16 1h1v1H16zM17 1h1v1H17zM2 2h1v1H2zM29 2h1v1H29zM3 3h1v1H3zM29 4h1v1H29zM2 5h1v1H2zM6 5h1v1H6zM25 5h1v1H25zM29 5h1v1H29zM2 6h1v1H2zM7 6h1v1H7zM13 6h1v1H13zM18 6h1v1H18zM29 6h1v1H29zM3 7h1v1H3zM7 7h1v1H7zM8 7h1v1H8zM14 7h1v1H14zM24 7h1v1H24zM28 7h1v1H28zM8 8h1v1H8zM17 8h1v1H17zM24 8h1v1H24zM4 9h1v1H4zM13 9h1v1H13zM27 9h1v1H27zM5 10h1v1H5zM9 10h1v1H9zM10 10h1v1H10zM14 10h1v1H14zM17 10h1v1H17zM21 10h1v1H21zM22 10h1v1H22zM26 10h1v1H26zM18 11h1v1H18zM4 12h1v1H4zM18 12h1v1H18zM27 12h1v1H27zM11 14h1v1H11zM12 14h1v1H12zM19 14h1v1H19zM20 14h1v1H20zM15 15h1v1H15zM16 15h1v1H16zM3 18h1v1H3zM4 18h1v1H4zM5 18h1v1H5zM26 18h1v1H26zM27 18h1v1H27zM28 18h1v1H28zM2 19h1v1H2zM29 19h1v1H29zM1 20h1v1H1zM30 20h1v1H30zM1 21h1v1H1zM30 21h1v1H30zM1 22h1v1H1zM30 22h1v1H30zM2 23h1v1H2zM29 23h1v1H29zM3 24h1v1H3zM15 24h1v1H15zM28 24h1v1H28zM17 25h1v1H17zM4 26h1v1H4zM18 26h1v1H18zM27 26h1v1H27zM5 27h1v1H5zM13 27h1v1H13zM18 27h1v1H18zM26 27h1v1H26zM8 28h1v1H8zM14 28h1v1H14zM17 28h1v1H17zM15 29h1v1H15zM16 29h1v1H16z"/><path fill="#044b46" d="M13 2h1v1H13zM18 2h1v1H18zM12 3h1v1H12zM19 3h1v1H19zM28 3h1v1H28zM10 4h1v1H10zM11 4h1v1H11zM12 4h1v1H12zM19 4h1v1H19zM20 4h1v1H20zM21 4h1v1H21zM9 5h1v1H9zM22 5h1v1H22zM8 6h1v1H8zM23 6h1v1H23zM24 6h1v1H24zM23 7h1v1H23zM3 8h1v1H3zM6 8h1v1H6zM15 8h1v1H15zM16 8h1v1H16zM25 8h1v1H25zM28 8h1v1H28zM5 9h1v1H5zM8 9h1v1H8zM14 9h1v1H14zM17 9h1v1H17zM18 9h1v1H18zM23 9h1v1H23zM26 9h1v1H26zM4 11h1v1H4zM27 11h1v1H27zM4 13h1v1H4zM13 13h1v1H13zM18 13h1v1H18zM27 13h1v1H27zM4 14h1v1H4zM14 14h1v1H14zM17 14h1v1H17zM27 14h1v1H27zM4 15h1v1H4zM27 15h1v1H27zM4 16h1v1H4zM27 16h1v1H27zM4 17h1v1H4zM27 17h1v1H27zM7 20h1v1H7zM8 20h1v1H8zM10 20h1v1H10zM21 20h1v1H21zM23 20h1v1H23zM24 20h1v1H24zM9 21h1v1H9zM22 21h1v1H22zM9 22h1v1H9zM22 22h1v1H22zM11 23h1v1H11zM12 23h1v1H12zM13 23h1v1H13zM18 23h1v1H18zM19 23h1v1H19zM20 23h1v1H20zM5 24h1v1H5zM10 24h1v1H10zM16 24h1v1H16zM21 24h1v1H21zM26 24h1v1H26zM4 25h1v1H4zM10 25h1v1H10zM14 25h1v1H14zM21 25h1v1H21zM27 25h1v1H27zM11 26h1v1H11zM20 26h1v1H20zM4 27h1v1H4zM12 27h1v1H12zM19 27h1v1H19zM27 27h1v1H27zM5 28h1v1H5zM9 28h1v1H9zM13 28h1v1H13zM18 28h1v1H18zM22 28h1v1H22zM26 28h1v1H26zM5 29h1v1H5zM6 29h1v1H6zM7 29h1v1H7zM8 29h1v1H8zM23 29h1v1H23zM24 29h1v1H24zM25 29h1v1H25zM26 29h1v1H26z"/><path fill="#dafaf3" d="M14 2h1v1H14zM3 4h1v1H3zM5 4h1v1H5zM28 4h1v1H28zM4 5h1v1H4zM10 5h1v1H10zM26 5h1v1H26zM27 5h1v1H27zM5 6h1v1H5zM9 6h1v1H9zM26 6h1v1H26zM18 7h1v1H18zM15 9h1v1H15zM16 9h1v1H16zM6 10h1v1H6zM25 10h1v1H25zM6 11h1v1H6zM25 11h1v1H25zM8 12h1v1H8zM12 12h1v1H12zM19 12h1v1H19zM23 12h1v1H23zM6 15h1v1H6zM25 15h1v1H25zM6 16h1v1H6zM25 16h1v1H25zM6 17h1v1H6zM25 17h1v1H25zM6 18h1v1H6zM25 18h1v1H25zM5 20h1v1H5zM26 20h1v1H26zM2 21h1v1H2zM29 21h1v1H29zM8 23h1v1H8zM10 23h1v1H10zM14 23h1v1H14zM17 23h1v1H17zM21 23h1v1H21zM23 23h1v1H23zM7 24h1v1H7zM9 24h1v1H9zM18 24h1v1H18zM22 24h1v1H22zM24 24h1v1H24zM24 28h1v1H24z"/><path fill="#fafefd" d="M15 2h1v1H15zM16 2h1v1H16zM14 3h1v1H14zM17 4h1v1H17zM11 5h1v1H11zM19 5h1v1H19zM20 5h1v1H20zM10 6h1v1H10zM19 6h1v1H19zM9 7h1v1H9zM21 7h1v1H21zM7 10h1v1H7zM16 10h1v1H16zM24 10h1v1H24zM15 11h1v1H15zM6 12h1v1H6zM7 12h1v1H7zM9 12h1v1H9zM10 12h1v1H10zM11 12h1v1H11zM14 12h1v1H14zM20 12h1v1H20zM21 12h1v1H21zM22 12h1v1H22zM24 12h1v1H24zM25 12h1v1H25zM6 13h1v1H6zM7 13h1v1H7zM24 13h1v1H24zM25 13h1v1H25zM7 16h1v1H7zM8 16h1v1H8zM23 16h1v1H23zM24 16h1v1H24zM7 17h1v1H7zM8 17h1v1H8zM23 17h1v1H23zM24 17h1v1H24zM3 19h1v1H3zM28 19h1v1H28zM3 20h1v1H3zM28 20h1v1H28zM6 21h1v1H6zM25 21h1v1H25zM5 23h1v1H5zM26 23h1v1H26zM16 25h1v1H16zM25 25h1v1H25zM8 26h1v1H8zM15 26h1v1H15zM23 26h1v1H23zM24 26h1v1H24zM7 28h1v1H7z"/><path fill="#74ebdc" d="M17 2h1v1H17zM18 3h1v1H18zM18 4h1v1H18zM3 5h1v1H3zM28 5h1v1H28zM4 6h1v1H4zM27 6h1v1H27zM6 7h1v1H6zM22 7h1v1H22zM25 7h1v1H25zM8 10h1v1H8zM15 10h1v1H15zM23 10h1v1H23zM14 11h1v1H14zM16 11h1v1H16zM5 12h1v1H5zM15 12h1v1H15zM26 12h1v1H26zM6 14h1v1H6zM25 14h1v1H25zM10 18h1v1H10zM21 18h1v1H21zM4 20h1v1H4zM27 20h1v1H27zM3 21h1v1H3zM4 21h1v1H4zM5 21h1v1H5zM26 21h1v1H26zM27 21h1v1H27zM28 21h1v1H28zM2 22h1v1H2zM4 22h1v1H4zM6 22h1v1H6zM27 22h1v1H27zM29 22h1v1H29zM3 23h1v1H3zM9 23h1v1H9zM22 23h1v1H22zM28 23h1v1H28zM8 24h1v1H8zM20 24h1v1H20zM23 24h1v1H23zM6 25h1v1H6zM19 25h1v1H19zM24 25h1v1H24zM16 26h1v1H16z"/><path fill="#0f9787" d="M2 3h1v1H2zM29 3h1v1H29zM2 4h1v1H2zM17 7h1v1H17zM4 8h1v1H4zM5 8h1v1H5zM7 8h1v1H7zM26 8h1v1H26zM27 8h1v1H27zM13 11h1v1H13zM13 12h1v1H13zM5 13h1v1H5zM14 13h1v1H14zM17 13h1v1H17zM26 13h1v1H26zM16 14h1v1H16zM6 19h1v1H6zM10 19h1v1H10zM21 19h1v1H21zM25 19h1v1H25zM13 21h1v1H13zM18 21h1v1H18zM6 23h1v1H6zM7 23h1v1H7zM24 23h1v1H24zM25 23h1v1H25zM4 24h1v1H4zM14 24h1v1H14zM27 24h1v1H27zM11 25h1v1H11zM13 25h1v1H13zM18 25h1v1H18zM20 25h1v1H20zM6 26h1v1H6zM12 26h1v1H12zM13 26h1v1H13zM19 26h1v1H19zM22 26h1v1H22zM25 26h1v1H25zM6 27h1v1H6zM7 27h1v1H7zM9 27h1v1H9zM10 27h1v1H10zM11 27h1v1H11zM20 27h1v1H20zM21 27h1v1H21zM22 27h1v1H22zM24 27h1v1H24zM25 27h1v1H25zM23 28h1v1H23z"/><path fill="#b0f5eb" d="M13 3h1v1H13zM15 3h1v1H15zM16 3h1v1H16zM17 3h1v1H17zM13 4h1v1H13zM14 4h1v1H14zM15 4h1v1H15zM16 4h1v1H16zM5 5h1v1H5zM12 5h1v1H12zM14 5h1v1H14zM15 5h1v1H15zM16 5h1v1H16zM17 5h1v1H17zM21 5h1v1H21zM11 6h1v1H11zM12 6h1v1H12zM15 6h1v1H15zM16 6h1v1H16zM20 6h1v1H20zM21 6h1v1H21zM10 7h1v1H10zM11 7h1v1H11zM12 7h1v1H12zM13 7h1v1H13zM19 7h1v1H19zM20 7h1v1H20zM9 8h1v1H9zM10 8h1v1H10zM11 8h1v1H11zM12 8h1v1H12zM19 8h1v1H19zM20 8h1v1H20zM21 8h1v1H21zM7 9h1v1H7zM10 9h1v1H10zM11 9h1v1H11zM19 9h1v1H19zM20 9h1v1H20zM21 9h1v1H21zM24 9h1v1H24zM13 10h1v1H13zM18 10h1v1H18zM5 11h1v1H5zM8 11h1v1H8zM9 11h1v1H9zM10 11h1v1H10zM11 11h1v1H11zM12 11h1v1H12zM19 11h1v1H19zM20 11h1v1H20zM21 11h1v1H21zM22 11h1v1H22zM23 11h1v1H23zM26 11h1v1H26zM12 13h1v1H12zM19 13h1v1H19zM13 14h1v1H13zM18 14h1v1H18zM14 15h1v1H14zM17 15h1v1H17zM15 16h1v1H15zM16 16h1v1H16zM4 19h1v1H4zM27 19h1v1H27zM2 20h1v1H2zM6 20h1v1H6zM25 20h1v1H25zM29 20h1v1H29zM25 22h1v1H25zM15 23h1v1H15zM16 23h1v1H16zM7 25h1v1H7zM12 25h1v1H12z"/><path fill="#4bd8ba" d="M4 4h1v1H4zM27 4h1v1H27zM22 6h1v1H22zM4 7h1v1H4zM27 7h1v1H27zM7 11h1v1H7zM17 11h1v1H17zM24 11h1v1H24zM17 12h1v1H17zM9 13h1v1H9zM10 13h1v1H10zM11 13h1v1H11zM15 13h1v1H15zM20 13h1v1H20zM21 13h1v1H21zM22 13h1v1H22zM5 14h1v1H5zM10 14h1v1H10zM21 14h1v1H21zM26 14h1v1H26zM5 15h1v1H5zM26 15h1v1H26zM5 16h1v1H5zM26 16h1v1H26zM5 17h1v1H5zM26 17h1v1H26zM7 18h1v1H7zM24 18h1v1H24zM7 19h1v1H7zM24 19h1v1H24zM7 21h1v1H7zM8 21h1v1H8zM23 21h1v1H23zM24 21h1v1H24zM7 22h1v1H7zM8 22h1v1H8zM10 22h1v1H10zM21 22h1v1H21zM23 22h1v1H23zM24 22h1v1H24zM6 24h1v1H6zM11 24h1v1H11zM12 24h1v1H12zM13 24h1v1H13zM17 24h1v1H17zM19 24h1v1H19zM25 24h1v1H25zM8 25h1v1H8zM9 25h1v1H9zM15 25h1v1H15zM22 25h1v1H22zM23 25h1v1H23zM5 26h1v1H5zM7 26h1v1H7zM26 26h1v1H26zM8 27h1v1H8zM15 27h1v1H15zM23 27h1v1H23z"/><path fill="#16c6bd" d="M13 5h1v1H13zM18 5h1v1H18zM3 6h1v1H3zM6 6h1v1H6zM14 6h1v1H14zM17 6h1v1H17zM25 6h1v1H25zM28 6h1v1H28zM5 7h1v1H5zM15 7h1v1H15zM16 7h1v1H16zM26 7h1v1H26zM13 8h1v1H13zM14 8h1v1H14zM18 8h1v1H18zM22 8h1v1H22zM6 9h1v1H6zM9 9h1v1H9zM12 9h1v1H12zM22 9h1v1H22zM25 9h1v1H25zM11 10h1v1H11zM12 10h1v1H12zM19 10h1v1H19zM20 10h1v1H20zM16 12h1v1H16zM16 13h1v1H16zM15 14h1v1H15zM13 15h1v1H13zM18 15h1v1H18zM14 16h1v1H14zM17 16h1v1H17zM5 19h1v1H5zM26 19h1v1H26zM3 22h1v1H3zM5 22h1v1H5zM26 22h1v1H26zM28 22h1v1H28zM4 23h1v1H4zM27 23h1v1H27zM5 25h1v1H5zM26 25h1v1H26zM9 26h1v1H9zM10 26h1v1H10zM14 26h1v1H14zM17 26h1v1H17zM21 26h1v1H21zM14 27h1v1H14zM16 27h1v1H16zM17 27h1v1H17zM6 28h1v1H6zM15 28h1v1H15zM16 28h1v1H16zM25 28h1v1H25z"/><path fill="#051312" d="M23 8h1v1H23z"/><path fill="#000000" d="M8 13h1v1H8zM23 13h1v1H23zM7 14h1v1H7zM8 14h1v1H8zM9 14h1v1H9zM22 14h1v1H22zM23 14h1v1H23zM24 14h1v1H24zM7 15h1v1H7zM8 15h1v1H8zM9 15h1v1H9zM10 15h1v1H10zM11 15h1v1H11zM12 15h1v1H12zM19 15h1v1H19zM20 15h1v1H20zM21 15h1v1H21zM22 15h1v1H22zM23 15h1v1H23zM24 15h1v1H24zM9 16h1v1H9zM10 16h1v1H10zM11 16h1v1H11zM12 16h1v1H12zM13 16h1v1H13zM18 16h1v1H18zM19 16h1v1H19zM20 16h1v1H20zM21 16h1v1H21zM22 16h1v1H22zM9 17h1v1H9zM10 17h1v1H10zM13 17h1v1H13zM14 17h1v1H14zM15 17h1v1H15zM16 17h1v1H16zM17 17h1v1H17zM18 17h1v1H18zM21 17h1v1H21zM22 17h1v1H22zM8 18h1v1H8zM9 18h1v1H9zM14 18h1v1H14zM15 18h1v1H15zM16 18h1v1H16zM17 18h1v1H17zM22 18h1v1H22zM23 18h1v1H23zM8 19h1v1H8zM9 19h1v1H9zM13 19h1v1H13zM14 19h1v1H14zM15 19h1v1H15zM16 19h1v1H16zM17 19h1v1H17zM18 19h1v1H18zM22 19h1v1H22zM23 19h1v1H23zM9 20h1v1H9zM13 20h1v1H13zM14 20h1v1H14zM15 20h1v1H15zM16 20h1v1H16zM17 20h1v1H17zM18 20h1v1H18zM22 20h1v1H22zM10 21h1v1H10zM14 21h1v1H14zM15 21h1v1H15zM16 21h1v1H16zM17 21h1v1H17zM21 21h1v1H21zM11 22h1v1H11zM14 22h1v1H14zM15 22h1v1H15zM16 22h1v1H16zM17 22h1v1H17zM20 22h1v1H20z"/><path fill="#ffffff" d="M11 17h1v1H11zM12 17h1v1H12zM19 17h1v1H19zM20 17h1v1H20zM11 18h1v1H11zM12 18h1v1H12zM13 18h1v1H13zM18 18h1v1H18zM19 18h1v1H19zM20 18h1v1H20zM11 19h1v1H11zM12 19h1v1H12zM19 19h1v1H19zM20 19h1v1H20zM11 20h1v1H11zM12 20h1v1H12zM19 20h1v1H19zM20 20h1v1H20zM11 21h1v1H11zM12 21h1v1H12zM19 21h1v1H19zM20 21h1v1H20zM12 22h1v1H12zM13 22h1v1H13zM18 22h1v1H18zM19 22h1v1H19z"/></svg>
