<svg xmlns="http://www.w3.org/2000/svg" viewBox="0 0 32 32" shape-rendering="crispEdges"><path fill="#088fcf" d="M15 0h1v1H15zM16 0h1v1H16zM6 3h1v1H6zM25 3h1v1H25zM3 7h1v1H3zM28 7h1v1H28zM4 8h1v1H4zM8 8h1v1H8zM23 8h1v1H23zM27 8h1v1H27zM7 9h1v1H7zM9 9h1v1H9zM22 9h1v1H22zM24 9h1v1H24zM7 10h1v1H7zM24 10h1v1H24zM4 11h1v1H4zM27 11h1v1H27zM4 12h1v1H4zM6 12h1v1H6zM25 12h1v1H25zM27 12h1v1H27zM4 13h1v1H4zM6 13h1v1H6zM8 13h1v1H8zM9 13h1v1H9zM10 13h1v1H10zM20 13h1v1H20zM21 13h1v1H21zM22 13h1v1H22zM23 13h1v1H23zM25 13h1v1H25zM27 13h1v1H27zM6 14h1v1H6zM12 14h1v1H12zM19 14h1v1H19zM25 14h1v1H25zM6 15h1v1H6zM25 15h1v1H25zM14 16h1v1H14zM17 16h1v1H17zM6 18h1v1H6zM25 18h1v1H25zM2 19h1v1H2zM4 19h1v1H4zM6 19h1v1H6zM10 19h1v1H10zM21 19h1v1H21zM25 19h1v1H25zM27 19h1v1H27zM29 19h1v1H29zM6 20h1v1H6zM25 20h1v1H25zM6 21h1v1H6zM13 21h1v1H13zM18 21h1v1H18zM25 21h1v1H25zM8 24h1v1H8zM23 24h1v1H23zM12 26h1v1H12zM13 26h1v1H13zM18 26h1v1H18zM19 26h1v1H19zM4 28h1v1H4zM14 28h1v1H14zM17 28h1v1H17zM27 28h1v1H27z"/><path fill="#0669a9" d="M14 1h1v1H14zM17 1h1v1H17zM4 4h1v1H4zM6 4h1v1H6zM7 4h1v1H7zM24 4h1v1H24zM25 4h1v1H25zM27 4h1v1H27zM6 5h1v1H6zM25 5h1v1H25zM6 6h1v1H6zM13 6h1v1H13zM18 6h1v1H18zM25 6h1v1H25zM13 7h1v1H13zM18 7h1v1H18zM7 8h1v1H7zM14 8h1v1H14zM17 8h1v1H17zM24 8h1v1H24zM3 10h1v1H3zM28 10h1v1H28zM14 11h1v1H14zM17 11h1v1H17zM5 12h1v1H5zM20 12h1v1H20zM26 12h1v1H26zM2 13h1v1H2zM5 13h1v1H5zM11 13h1v1H11zM26 13h1v1H26zM29 13h1v1H29zM3 17h1v1H3zM4 17h1v1H4zM27 17h1v1H27zM28 17h1v1H28zM5 19h1v1H5zM26 19h1v1H26zM4 20h1v1H4zM5 20h1v1H5zM10 20h1v1H10zM21 20h1v1H21zM26 20h1v1H26zM27 20h1v1H27zM7 24h1v1H7zM24 24h1v1H24zM2 25h1v1H2zM29 25h1v1H29zM7 26h1v1H7zM8 26h1v1H8zM9 26h1v1H9zM22 26h1v1H22zM23 26h1v1H23zM24 26h1v1H24zM6 27h1v1H6zM8 27h1v1H8zM13 27h1v1H13zM18 27h1v1H18zM23 27h1v1H23zM25 27h1v1H25zM3 28h1v1H3zM5 28h1v1H5zM6 28h1v1H6zM25 28h1v1H25zM26 28h1v1H26zM28 28h1v1H28zM15 29h1v1H15zM16 29h1v1H16z"/><path fill="#fcfefe" d="M15 1h1v1H15zM16 1h1v1H16zM14 2h1v1H14zM15 2h1v1H15zM16 2h1v1H16zM17 2h1v1H17zM15 3h1v1H15zM16 3h1v1H16zM5 4h1v1H5zM26 4h1v1H26zM4 5h1v1H4zM12 5h1v1H12zM19 5h1v1H19zM27 5h1v1H27zM5 10h1v1H5zM10 10h1v1H10zM21 10h1v1H21zM26 10h1v1H26zM6 11h1v1H6zM25 11h1v1H25zM8 12h1v1H8zM9 12h1v1H9zM10 12h1v1H10zM15 12h1v1H15zM16 12h1v1H16zM21 12h1v1H21zM22 12h1v1H22zM23 12h1v1H23zM3 13h1v1H3zM28 13h1v1H28zM4 14h1v1H4zM9 14h1v1H9zM22 14h1v1H22zM27 14h1v1H27zM6 17h1v1H6zM25 17h1v1H25zM4 18h1v1H4zM27 18h1v1H27zM3 19h1v1H3zM28 19h1v1H28zM3 20h1v1H3zM28 20h1v1H28zM6 22h1v1H6zM25 22h1v1H25zM4 25h1v1H4zM10 25h1v1H10zM11 25h1v1H11zM12 25h1v1H12zM13 25h1v1H13zM14 25h1v1H14zM15 25h1v1H15zM16 25h1v1H16zM17 25h1v1H17zM18 25h1v1H18zM19 25h1v1H19zM20 25h1v1H20zM21 25h1v1H21zM27 25h1v1H27zM5 26h1v1H5zM26 26h1v1H26zM15 27h1v1H15zM16 27h1v1H16z"/><path fill="#03497b" d="M13 2h1v1H13zM18 2h1v1H18zM13 3h1v1H13zM18 3h1v1H18zM12 4h1v1H12zM19 4h1v1H19zM3 5h1v1H3zM11 5h1v1H11zM20 5h1v1H20zM28 5h1v1H28zM3 6h1v1H3zM7 6h1v1H7zM8 6h1v1H8zM9 6h1v1H9zM10 6h1v1H10zM11 6h1v1H11zM20 6h1v1H20zM21 6h1v1H21zM22 6h1v1H22zM23 6h1v1H23zM24 6h1v1H24zM28 6h1v1H28zM6 7h1v1H6zM11 7h1v1H11zM20 7h1v1H20zM25 7h1v1H25zM3 8h1v1H3zM12 8h1v1H12zM19 8h1v1H19zM28 8h1v1H28zM3 9h1v1H3zM13 9h1v1H13zM14 9h1v1H14zM17 9h1v1H17zM18 9h1v1H18zM28 9h1v1H28zM4 10h1v1H4zM27 10h1v1H27zM2 11h1v1H2zM3 11h1v1H3zM5 11h1v1H5zM26 11h1v1H26zM28 11h1v1H28zM29 11h1v1H29zM2 12h1v1H2zM7 12h1v1H7zM12 12h1v1H12zM19 12h1v1H19zM24 12h1v1H24zM29 12h1v1H29zM12 13h1v1H12zM19 13h1v1H19zM2 14h1v1H2zM13 14h1v1H13zM18 14h1v1H18zM29 14h1v1H29zM2 15h1v1H2zM8 15h1v1H8zM14 15h1v1H14zM17 15h1v1H17zM23 15h1v1H23zM29 15h1v1H29zM3 16h1v1H3zM15 16h1v1H15zM16 16h1v1H16zM28 16h1v1H28zM5 17h1v1H5zM26 17h1v1H26zM3 22h1v1H3zM28 22h1v1H28zM3 23h1v1H3zM4 23h1v1H4zM5 23h1v1H5zM26 23h1v1H26zM27 23h1v1H27zM28 23h1v1H28zM3 24h1v1H3zM5 24h1v1H5zM26 24h1v1H26zM28 24h1v1H28zM6 25h1v1H6zM8 25h1v1H8zM23 25h1v1H23zM25 25h1v1H25zM2 26h1v1H2zM6 26h1v1H6zM25 26h1v1H25zM29 26h1v1H29zM2 27h1v1H2zM7 27h1v1H7zM9 27h1v1H9zM10 27h1v1H10zM11 27h1v1H11zM12 27h1v1H12zM19 27h1v1H19zM20 27h1v1H20zM21 27h1v1H21zM22 27h1v1H22zM24 27h1v1H24zM29 27h1v1H29zM2 28h1v1H2zM13 28h1v1H13zM18 28h1v1H18zM29 28h1v1H29zM14 29h1v1H14zM17 29h1v1H17z"/><path fill="#c3fbfd" d="M5 3h1v1H5zM14 3h1v1H14zM17 3h1v1H17zM26 3h1v1H26zM13 4h1v1H13zM15 4h1v1H15zM16 4h1v1H16zM18 4h1v1H18zM15 5h1v1H15zM16 5h1v1H16zM12 6h1v1H12zM15 6h1v1H15zM16 6h1v1H16zM19 6h1v1H19zM7 7h1v1H7zM24 7h1v1H24zM4 9h1v1H4zM27 9h1v1H27zM9 10h1v1H9zM22 10h1v1H22zM8 11h1v1H8zM23 11h1v1H23zM13 12h1v1H13zM14 12h1v1H14zM17 12h1v1H17zM18 12h1v1H18zM7 13h1v1H7zM13 13h1v1H13zM15 13h1v1H15zM16 13h1v1H16zM18 13h1v1H18zM24 13h1v1H24zM5 14h1v1H5zM7 14h1v1H7zM14 14h1v1H14zM17 14h1v1H17zM24 14h1v1H24zM26 14h1v1H26zM7 15h1v1H7zM24 15h1v1H24zM6 16h1v1H6zM7 16h1v1H7zM24 16h1v1H24zM25 16h1v1H25zM7 17h1v1H7zM24 17h1v1H24zM5 18h1v1H5zM7 18h1v1H7zM10 18h1v1H10zM21 18h1v1H21zM24 18h1v1H24zM26 18h1v1H26zM7 19h1v1H7zM24 19h1v1H24zM7 20h1v1H7zM8 20h1v1H8zM23 20h1v1H23zM24 20h1v1H24zM4 21h1v1H4zM7 21h1v1H7zM8 21h1v1H8zM23 21h1v1H23zM24 21h1v1H24zM27 21h1v1H27zM5 22h1v1H5zM26 22h1v1H26zM6 23h1v1H6zM10 23h1v1H10zM11 23h1v1H11zM20 23h1v1H20zM21 23h1v1H21zM25 23h1v1H25zM10 24h1v1H10zM11 24h1v1H11zM20 24h1v1H20zM21 24h1v1H21zM9 25h1v1H9zM22 25h1v1H22zM14 26h1v1H14zM17 26h1v1H17z"/><path fill="#1bb4e6" d="M14 4h1v1H14zM17 4h1v1H17zM5 5h1v1H5zM14 5h1v1H14zM17 5h1v1H17zM26 5h1v1H26zM5 6h1v1H5zM26 6h1v1H26zM4 7h1v1H4zM5 7h1v1H5zM14 7h1v1H14zM17 7h1v1H17zM26 7h1v1H26zM27 7h1v1H27zM6 8h1v1H6zM25 8h1v1H25zM8 9h1v1H8zM15 9h1v1H15zM16 9h1v1H16zM23 9h1v1H23zM8 10h1v1H8zM11 10h1v1H11zM12 10h1v1H12zM13 10h1v1H13zM15 10h1v1H15zM16 10h1v1H16zM18 10h1v1H18zM19 10h1v1H19zM20 10h1v1H20zM23 10h1v1H23zM13 11h1v1H13zM18 11h1v1H18zM14 13h1v1H14zM17 13h1v1H17zM3 14h1v1H3zM15 14h1v1H15zM16 14h1v1H16zM28 14h1v1H28zM13 15h1v1H13zM18 15h1v1H18zM4 16h1v1H4zM27 16h1v1H27zM2 21h1v1H2zM29 21h1v1H29zM4 22h1v1H4zM27 22h1v1H27zM6 24h1v1H6zM25 24h1v1H25zM3 26h1v1H3zM10 26h1v1H10zM11 26h1v1H11zM20 26h1v1H20zM21 26h1v1H21zM28 26h1v1H28zM3 27h1v1H3zM28 27h1v1H28z"/><path fill="#3ce2fa" d="M13 5h1v1H13zM18 5h1v1H18zM12 7h1v1H12zM19 7h1v1H19zM5 8h1v1H5zM9 8h1v1H9zM10 8h1v1H10zM11 8h1v1H11zM13 8h1v1H13zM15 8h1v1H15zM16 8h1v1H16zM18 8h1v1H18zM20 8h1v1H20zM21 8h1v1H21zM22 8h1v1H22zM26 8h1v1H26zM5 9h1v1H5zM6 9h1v1H6zM25 9h1v1H25zM26 9h1v1H26zM6 10h1v1H6zM25 10h1v1H25zM7 11h1v1H7zM9 11h1v1H9zM22 11h1v1H22zM24 11h1v1H24zM8 14h1v1H8zM11 14h1v1H11zM20 14h1v1H20zM23 14h1v1H23zM5 16h1v1H5zM26 16h1v1H26zM3 18h1v1H3zM28 18h1v1H28zM5 21h1v1H5zM26 21h1v1H26zM7 22h1v1H7zM24 22h1v1H24zM7 23h1v1H7zM24 23h1v1H24zM4 24h1v1H4zM27 24h1v1H27zM7 25h1v1H7zM24 25h1v1H24zM15 26h1v1H15zM16 26h1v1H16zM4 27h1v1H4zM5 27h1v1H5zM26 27h1v1H26zM27 27h1v1H27zM15 28h1v1H15zM16 28h1v1H16z"/><path fill="#77f3fc" d="M4 6h1v1H4zM14 6h1v1H14zM17 6h1v1H17zM27 6h1v1H27zM8 7h1v1H8zM9 7h1v1H9zM10 7h1v1H10zM15 7h1v1H15zM16 7h1v1H16zM21 7h1v1H21zM22 7h1v1H22zM23 7h1v1H23zM10 9h1v1H10zM11 9h1v1H11zM12 9h1v1H12zM19 9h1v1H19zM20 9h1v1H20zM21 9h1v1H21zM14 10h1v1H14zM17 10h1v1H17zM10 11h1v1H10zM11 11h1v1H11zM12 11h1v1H12zM15 11h1v1H15zM16 11h1v1H16zM19 11h1v1H19zM20 11h1v1H20zM21 11h1v1H21zM3 12h1v1H3zM11 12h1v1H11zM28 12h1v1H28zM10 14h1v1H10zM21 14h1v1H21zM3 15h1v1H3zM4 15h1v1H4zM5 15h1v1H5zM12 15h1v1H12zM15 15h1v1H15zM16 15h1v1H16zM19 15h1v1H19zM26 15h1v1H26zM27 15h1v1H27zM28 15h1v1H28zM13 16h1v1H13zM18 16h1v1H18zM15 17h1v1H15zM16 17h1v1H16zM2 20h1v1H2zM29 20h1v1H29zM3 21h1v1H3zM28 21h1v1H28zM8 22h1v1H8zM9 22h1v1H9zM22 22h1v1H22zM23 22h1v1H23zM8 23h1v1H8zM9 23h1v1H9zM22 23h1v1H22zM23 23h1v1H23zM9 24h1v1H9zM12 24h1v1H12zM13 24h1v1H13zM14 24h1v1H14zM15 24h1v1H15zM16 24h1v1H16zM17 24h1v1H17zM18 24h1v1H18zM19 24h1v1H19zM22 24h1v1H22zM3 25h1v1H3zM5 25h1v1H5zM26 25h1v1H26zM28 25h1v1H28zM4 26h1v1H4zM27 26h1v1H27zM14 27h1v1H14zM17 27h1v1H17z"/><path fill="#000000" d="M9 15h1v1H9zM10 15h1v1H10zM11 15h1v1H11zM20 15h1v1H20zM21 15h1v1H21zM22 15h1v1H22zM8 16h1v1H8zM9 16h1v1H9zM10 16h1v1H10zM11 16h1v1H11zM12 16h1v1H12zM19 16h1v1H19zM20 16h1v1H20zM21 16h1v1H21zM22 16h1v1H22zM23 16h1v1H23zM8 17h1v1H8zM9 17h1v1H9zM10 17h1v1H10zM13 17h1v1H13zM14 17h1v1H14zM17 17h1v1H17zM18 17h1v1H18zM21 17h1v1H21zM22 17h1v1H22zM23 17h1v1H23zM8 18h1v1H8zM9 18h1v1H9zM14 18h1v1H14zM15 18h1v1H15zM16 18h1v1H16zM17 18h1v1H17zM22 18h1v1H22zM23 18h1v1H23zM8 19h1v1H8zM9 19h1v1H9zM13 19h1v1H13zM14 19h1v1H14zM15 19h1v1H15zM16 19h1v1H16zM17 19h1v1H17zM18 19h1v1H18zM22 19h1v1H22zM23 19h1v1H23zM9 20h1v1H9zM13 20h1v1H13zM14 20h1v1H14zM15 20h1v1H15zM16 20h1v1H16zM17 20h1v1H17zM18 20h1v1H18zM22 20h1v1H22zM9 21h1v1H9zM10 21h1v1H10zM14 21h1v1H14zM15 21h1v1H15zM16 21h1v1H16zM17 21h1v1H17zM21 21h1v1H21zM22 21h1v1H22zM10 22h1v1H10zM11 22h1v1H11zM14 22h1v1H14zM15 22h1v1H15zM16 22h1v1H16zM17 22h1v1H17zM20 22h1v1H20zM21 22h1v1H21zM12 23h1v1H12zM13 23h1v1H13zM14 23h1v1H14zM15 23h1v1H15zM16 23h1v1H16zM17 23h1v1H17zM18 23h1v1H18zM19 23h1v1H19z"/><path fill="#ffffff" d="M11 17h1v1H11zM12 17h1v1H12zM19 17h1v1H19zM20 17h1v1H20zM11 18h1v1H11zM12 18h1v1H12zM13 18h1v1H13zM18 18h1v1H18zM19 18h1v1H19zM20 18h1v1H20zM11 19h1v1H11zM12 19h1v1H12zM19 19h1v1H19zM20 19h1v1H20zM11 20h1v1H11zM12 20h1v1H12zM19 20h1v1H19zM20 20h1v1H20zM11 21h1v1H11zM12 21h1v1H12zM19 21h1v1H19zM20 21h1v1H20zM12 22h1v1H12zM13 22h1v1H13zM18 22h1v1H18zM19 22h1v1H19z"/></svg>
