<svg xmlns="http://www.w3.org/2000/svg" viewBox="0 0 32 32" shape-rendering="crispEdges"><path fill="#9f4714" d="M14 2h1v1H14zM15 2h1v1H15zM16 2h1v1H16zM17 2h1v1H17zM9 5h1v1H9zM24 5h1v1H24zM9 6h1v1H9zM24 6h1v1H24zM7 7h1v1H7zM22 7h1v1H22zM5 10h1v1H5zM8 11h1v1H8zM13 11h1v1H13zM23 11h1v1H23zM1 12h1v1H1zM14 12h1v1H14zM17 12h1v1H17zM30 12h1v1H30zM1 13h1v1H1zM3 13h1v1H3zM28 13h1v1H28zM30 13h1v1H30zM1 14h1v1H1zM8 14h1v1H8zM23 14h1v1H23zM30 14h1v1H30zM1 15h1v1H1zM30 15h1v1H30zM5 16h1v1H5zM7 16h1v1H7zM24 16h1v1H24zM26 16h1v1H26zM6 17h1v1H6zM25 17h1v1H25zM4 18h1v1H4zM27 18h1v1H27zM5 21h1v1H5zM26 21h1v1H26zM6 22h1v1H6zM25 22h1v1H25zM8 24h1v1H8zM23 24h1v1H23zM5 25h1v1H5zM13 25h1v1H13zM18 25h1v1H18zM26 25h1v1H26zM11 26h1v1H11zM20 26h1v1H20z"/><path fill="#5d2702" d="M13 3h1v1H13zM18 3h1v1H18zM13 4h1v1H13zM18 4h1v1H18zM13 5h1v1H13zM18 5h1v1H18zM6 6h1v1H6zM10 6h1v1H10zM11 6h1v1H11zM12 6h1v1H12zM19 6h1v1H19zM20 6h1v1H20zM21 6h1v1H21zM25 6h1v1H25zM8 16h1v1H8zM13 16h1v1H13zM18 16h1v1H18zM23 16h1v1H23zM7 17h1v1H7zM24 17h1v1H24zM7 18h1v1H7zM24 18h1v1H24zM7 19h1v1H7zM24 19h1v1H24zM2 20h1v1H2zM7 20h1v1H7zM24 20h1v1H24zM29 20h1v1H29zM2 21h1v1H2zM7 21h1v1H7zM24 21h1v1H24zM29 21h1v1H29zM3 22h1v1H3zM4 22h1v1H4zM5 22h1v1H5zM26 22h1v1H26zM27 22h1v1H27zM28 22h1v1H28zM5 23h1v1H5zM8 23h1v1H8zM23 23h1v1H23zM26 23h1v1H26zM9 26h1v1H9zM22 26h1v1H22zM11 27h1v1H11zM13 27h1v1H13zM18 27h1v1H18zM20 27h1v1H20zM15 29h1v1H15z"/><path fill="#c06733" d="M14 3h1v1H14zM7 5h1v1H7zM8 5h1v1H8zM22 5h1v1H22zM23 5h1v1H23zM7 6h1v1H7zM8 6h1v1H8zM22 6h1v1H22zM23 6h1v1H23zM12 9h1v1H12zM14 9h1v1H14zM17 9h1v1H17zM19 9h1v1H19zM8 10h1v1H8zM23 10h1v1H23zM5 11h1v1H5zM26 11h1v1H26zM5 12h1v1H5zM7 12h1v1H7zM24 12h1v1H24zM26 12h1v1H26zM5 13h1v1H5zM26 13h1v1H26zM5 14h1v1H5zM6 14h1v1H6zM25 14h1v1H25zM26 14h1v1H26zM7 23h1v1H7zM24 23h1v1H24zM6 24h1v1H6zM25 24h1v1H25zM6 25h1v1H6zM7 25h1v1H7zM16 25h1v1H16zM24 25h1v1H24zM25 25h1v1H25zM16 27h1v1H16z"/><path fill="#dd8945" d="M15 3h1v1H15zM16 3h1v1H16zM17 3h1v1H17zM14 6h1v1H14zM15 6h1v1H15zM16 6h1v1H16zM17 6h1v1H17zM10 7h1v1H10zM14 7h1v1H14zM17 7h1v1H17zM21 7h1v1H21zM5 8h1v1H5zM6 8h1v1H6zM7 8h1v1H7zM8 8h1v1H8zM9 8h1v1H9zM12 8h1v1H12zM13 8h1v1H13zM15 8h1v1H15zM16 8h1v1H16zM18 8h1v1H18zM19 8h1v1H19zM22 8h1v1H22zM23 8h1v1H23zM24 8h1v1H24zM25 8h1v1H25zM26 8h1v1H26zM5 9h1v1H5zM6 9h1v1H6zM25 9h1v1H25zM26 9h1v1H26zM13 10h1v1H13zM18 10h1v1H18zM14 11h1v1H14zM17 11h1v1H17zM2 12h1v1H2zM15 12h1v1H15zM16 12h1v1H16zM29 12h1v1H29zM3 16h1v1H3zM28 16h1v1H28zM4 20h1v1H4zM27 20h1v1H27zM3 21h1v1H3zM28 21h1v1H28zM6 23h1v1H6zM25 23h1v1H25zM14 25h1v1H14zM17 25h1v1H17zM10 26h1v1H10zM14 26h1v1H14zM17 26h1v1H17zM21 26h1v1H21zM15 27h1v1H15z"/><path fill="#ec9d51" d="M14 4h1v1H14zM17 4h1v1H17zM14 5h1v1H14zM17 5h1v1H17zM11 7h1v1H11zM12 7h1v1H12zM15 7h1v1H15zM19 7h1v1H19zM20 7h1v1H20zM10 8h1v1H10zM11 8h1v1H11zM20 8h1v1H20zM21 8h1v1H21zM7 9h1v1H7zM8 9h1v1H8zM9 9h1v1H9zM10 9h1v1H10zM11 9h1v1H11zM13 9h1v1H13zM18 9h1v1H18zM20 9h1v1H20zM21 9h1v1H21zM22 9h1v1H22zM23 9h1v1H23zM24 9h1v1H24zM6 10h1v1H6zM7 10h1v1H7zM9 10h1v1H9zM10 10h1v1H10zM11 10h1v1H11zM14 10h1v1H14zM16 10h1v1H16zM17 10h1v1H17zM20 10h1v1H20zM21 10h1v1H21zM22 10h1v1H22zM24 10h1v1H24zM25 10h1v1H25zM9 11h1v1H9zM10 11h1v1H10zM11 11h1v1H11zM12 11h1v1H12zM15 11h1v1H15zM16 11h1v1H16zM19 11h1v1H19zM20 11h1v1H20zM21 11h1v1H21zM22 11h1v1H22zM9 12h1v1H9zM10 12h1v1H10zM11 12h1v1H11zM12 12h1v1H12zM19 12h1v1H19zM20 12h1v1H20zM21 12h1v1H21zM22 12h1v1H22zM2 13h1v1H2zM6 13h1v1H6zM7 13h1v1H7zM24 13h1v1H24zM25 13h1v1H25zM29 13h1v1H29zM7 14h1v1H7zM24 14h1v1H24zM3 15h1v1H3zM28 15h1v1H28zM6 16h1v1H6zM25 16h1v1H25zM2 18h1v1H2zM29 18h1v1H29zM2 19h1v1H2zM3 19h1v1H3zM28 19h1v1H28zM29 19h1v1H29zM3 20h1v1H3zM28 20h1v1H28zM15 24h1v1H15zM16 24h1v1H16zM10 25h1v1H10zM15 25h1v1H15zM21 25h1v1H21zM16 26h1v1H16z"/><path fill="#f56e01" d="M15 4h1v1H15zM16 4h1v1H16zM15 5h1v1H15zM16 5h1v1H16zM6 7h1v1H6zM25 7h1v1H25zM14 8h1v1H14zM15 9h1v1H15zM16 9h1v1H16zM7 11h1v1H7zM24 11h1v1H24zM8 12h1v1H8zM13 12h1v1H13zM18 12h1v1H18zM23 12h1v1H23zM9 13h1v1H9zM10 13h1v1H10zM11 13h1v1H11zM12 13h1v1H12zM13 13h1v1H13zM14 13h1v1H14zM17 13h1v1H17zM18 13h1v1H18zM19 13h1v1H19zM20 13h1v1H20zM21 13h1v1H21zM22 13h1v1H22zM2 14h1v1H2zM3 14h1v1H3zM9 14h1v1H9zM10 14h1v1H10zM11 14h1v1H11zM12 14h1v1H12zM13 14h1v1H13zM14 14h1v1H14zM15 14h1v1H15zM16 14h1v1H16zM17 14h1v1H17zM18 14h1v1H18zM19 14h1v1H19zM20 14h1v1H20zM21 14h1v1H21zM22 14h1v1H22zM28 14h1v1H28zM29 14h1v1H29zM2 15h1v1H2zM6 15h1v1H6zM7 15h1v1H7zM13 15h1v1H13zM14 15h1v1H14zM15 15h1v1H15zM16 15h1v1H16zM17 15h1v1H17zM18 15h1v1H18zM24 15h1v1H24zM25 15h1v1H25zM29 15h1v1H29zM15 16h1v1H15zM16 16h1v1H16zM15 23h1v1H15zM16 23h1v1H16zM10 24h1v1H10zM12 24h1v1H12zM13 24h1v1H13zM18 24h1v1H18zM19 24h1v1H19zM21 24h1v1H21zM8 25h1v1H8zM11 25h1v1H11zM12 25h1v1H12zM19 25h1v1H19zM20 25h1v1H20zM23 25h1v1H23zM6 26h1v1H6zM7 26h1v1H7zM24 26h1v1H24zM25 26h1v1H25zM14 27h1v1H14zM17 27h1v1H17z"/><path fill="#75320d" d="M13 6h1v1H13zM18 6h1v1H18zM5 7h1v1H5zM8 7h1v1H8zM9 7h1v1H9zM13 7h1v1H13zM18 7h1v1H18zM23 7h1v1H23zM24 7h1v1H24zM26 7h1v1H26zM12 10h1v1H12zM19 10h1v1H19zM26 10h1v1H26zM2 11h1v1H2zM18 11h1v1H18zM29 11h1v1H29zM15 13h1v1H15zM16 13h1v1H16zM8 15h1v1H8zM23 15h1v1H23zM2 16h1v1H2zM29 16h1v1H29zM5 17h1v1H5zM26 17h1v1H26zM5 18h1v1H5zM26 18h1v1H26zM5 19h1v1H5zM26 19h1v1H26zM5 20h1v1H5zM26 20h1v1H26zM7 22h1v1H7zM24 22h1v1H24zM9 24h1v1H9zM11 24h1v1H11zM20 24h1v1H20zM22 24h1v1H22zM9 25h1v1H9zM22 25h1v1H22zM5 26h1v1H5zM13 26h1v1H13zM18 26h1v1H18zM26 26h1v1H26zM6 27h1v1H6zM7 27h1v1H7zM8 27h1v1H8zM9 27h1v1H9zM12 27h1v1H12zM19 27h1v1H19zM22 27h1v1H22zM23 27h1v1H23zM24 27h1v1H24zM25 27h1v1H25zM14 28h1v1H14zM17 28h1v1H17z"/><path fill="#f6d0a3" d="M16 7h1v1H16zM15 10h1v1H15zM6 12h1v1H6zM25 12h1v1H25zM7 24h1v1H7zM24 24h1v1H24zM15 26h1v1H15z"/><path fill="#b9500e" d="M17 8h1v1H17zM6 11h1v1H6zM25 11h1v1H25zM8 13h1v1H8zM23 13h1v1H23zM5 15h1v1H5zM9 15h1v1H9zM10 15h1v1H10zM11 15h1v1H11zM12 15h1v1H12zM19 15h1v1H19zM20 15h1v1H20zM21 15h1v1H21zM22 15h1v1H22zM26 15h1v1H26zM14 16h1v1H14zM17 16h1v1H17zM15 17h1v1H15zM16 17h1v1H16zM6 18h1v1H6zM25 18h1v1H25zM6 19h1v1H6zM25 19h1v1H25zM6 20h1v1H6zM25 20h1v1H25zM4 21h1v1H4zM6 21h1v1H6zM25 21h1v1H25zM27 21h1v1H27zM5 24h1v1H5zM14 24h1v1H14zM17 24h1v1H17zM26 24h1v1H26zM8 26h1v1H8zM12 26h1v1H12zM19 26h1v1H19zM23 26h1v1H23zM15 28h1v1H15zM16 28h1v1H16z"/><path fill="#431b00" d="M4 14h1v1H4zM27 14h1v1H27zM4 15h1v1H4zM27 15h1v1H27zM4 16h1v1H4zM27 16h1v1H27zM2 17h1v1H2zM3 17h1v1H3zM4 17h1v1H4zM14 17h1v1H14zM17 17h1v1H17zM27 17h1v1H27zM28 17h1v1H28zM29 17h1v1H29zM3 18h1v1H3zM28 18h1v1H28zM4 19h1v1H4zM27 19h1v1H27zM4 23h1v1H4zM27 23h1v1H27zM5 27h1v1H5zM26 27h1v1H26zM7 28h1v1H7zM8 28h1v1H8zM9 28h1v1H9zM22 28h1v1H22zM23 28h1v1H23zM24 28h1v1H24zM16 29h1v1H16z"/><path fill="#000000" d="M9 16h1v1H9zM10 16h1v1H10zM11 16h1v1H11zM12 16h1v1H12zM19 16h1v1H19zM20 16h1v1H20zM21 16h1v1H21zM22 16h1v1H22zM8 17h1v1H8zM9 17h1v1H9zM10 17h1v1H10zM13 17h1v1H13zM18 17h1v1H18zM21 17h1v1H21zM22 17h1v1H22zM23 17h1v1H23zM8 18h1v1H8zM9 18h1v1H9zM14 18h1v1H14zM15 18h1v1H15zM16 18h1v1H16zM17 18h1v1H17zM22 18h1v1H22zM23 18h1v1H23zM8 19h1v1H8zM9 19h1v1H9zM13 19h1v1H13zM14 19h1v1H14zM15 19h1v1H15zM16 19h1v1H16zM17 19h1v1H17zM18 19h1v1H18zM22 19h1v1H22zM23 19h1v1H23zM8 20h1v1H8zM9 20h1v1H9zM13 20h1v1H13zM14 20h1v1H14zM15 20h1v1H15zM16 20h1v1H16zM17 20h1v1H17zM18 20h1v1H18zM22 20h1v1H22zM23 20h1v1H23zM8 21h1v1H8zM9 21h1v1H9zM10 21h1v1H10zM14 21h1v1H14zM15 21h1v1H15zM16 21h1v1H16zM17 21h1v1H17zM21 21h1v1H21zM22 21h1v1H22zM23 21h1v1H23zM8 22h1v1H8zM9 22h1v1H9zM10 22h1v1H10zM11 22h1v1H11zM14 22h1v1H14zM15 22h1v1H15zM16 22h1v1H16zM17 22h1v1H17zM20 22h1v1H20zM21 22h1v1H21zM22 22h1v1H22zM23 22h1v1H23zM9 23h1v1H9zM10 23h1v1H10zM11 23h1v1H11zM12 23h1v1H12zM13 23h1v1H13zM14 23h1v1H14zM17 23h1v1H17zM18 23h1v1H18zM19 23h1v1H19zM20 23h1v1H20zM21 23h1v1H21zM22 23h1v1H22zM10 27h1v1H10zM21 27h1v1H21zM5 28h1v1H5zM6 28h1v1H6zM10 28h1v1H10zM21 28h1v1H21zM25 28h1v1H25zM26 28h1v1H26z"/><path fill="#ffffff" d="M11 17h1v1H11zM12 17h1v1H12zM19 17h1v1H19zM20 17h1v1H20zM11 18h1v1H11zM12 18h1v1H12zM13 18h1v1H13zM18 18h1v1H18zM19 18h1v1H19zM20 18h1v1H20zM11 19h1v1H11zM12 19h1v1H12zM19 19h1v1H19zM20 19h1v1H20zM11 20h1v1H11zM12 20h1v1H12zM19 20h1v1H19zM20 20h1v1H20zM11 21h1v1H11zM12 21h1v1H12zM19 21h1v1H19zM20 21h1v1H20zM12 22h1v1H12zM13 22h1v1H13zM18 22h1v1H18zM19 22h1v1H19z"/><path fill="#f2f5f4" d="M10 18h1v1H10zM21 18h1v1H21z"/><path fill="#d7dfe6" d="M10 19h1v1H10zM21 19h1v1H21zM13 21h1v1H13zM18 21h1v1H18z"/><path fill="#97bbd1" d="M10 20h1v1H10zM21 20h1v1H21z"/></svg>
