<svg xmlns="http://www.w3.org/2000/svg" viewBox="0 0 32 32" shape-rendering="crispEdges"><path fill="#79100a" d="M13 1h1v1H13zM14 1h1v1H14zM15 2h1v1H15zM14 3h1v1H14zM15 6h1v1H15zM13 7h1v1H13zM13 8h1v1H13zM13 9h1v1H13zM26 9h1v1H26zM8 23h1v1H8zM23 23h1v1H23zM8 24h1v1H8zM23 24h1v1H23zM6 27h1v1H6zM14 27h1v1H14zM17 27h1v1H17zM25 27h1v1H25zM4 28h1v1H4zM5 28h1v1H5zM9 28h1v1H9zM22 28h1v1H22zM26 28h1v1H26zM27 28h1v1H27zM7 29h1v1H7zM8 29h1v1H8zM12 29h1v1H12zM13 29h1v1H13zM14 29h1v1H14zM17 29h1v1H17zM18 29h1v1H18zM19 29h1v1H19zM23 29h1v1H23zM24 29h1v1H24z"/><path fill="#415b15" d="M18 1h1v1H18zM19 1h1v1H19zM20 1h1v1H20zM21 1h1v1H21zM22 1h1v1H22zM22 2h1v1H22zM21 3h1v1H21zM22 3h1v1H22z"/><path fill="#b11707" d="M13 2h1v1H13zM14 2h1v1H14zM7 4h1v1H7zM8 4h1v1H8zM9 4h1v1H9zM10 4h1v1H10zM11 4h1v1H11zM12 4h1v1H12zM22 4h1v1H22zM23 4h1v1H23zM24 4h1v1H24zM12 5h1v1H12zM21 5h1v1H21zM22 5h1v1H22zM25 5h1v1H25zM5 6h1v1H5zM12 6h1v1H12zM22 6h1v1H22zM26 6h1v1H26zM5 7h1v1H5zM10 7h1v1H10zM11 7h1v1H11zM12 7h1v1H12zM19 7h1v1H19zM20 7h1v1H20zM21 7h1v1H21zM26 7h1v1H26zM5 8h1v1H5zM8 8h1v1H8zM9 8h1v1H9zM10 8h1v1H10zM11 8h1v1H11zM12 8h1v1H12zM18 8h1v1H18zM19 8h1v1H19zM20 8h1v1H20zM21 8h1v1H21zM22 8h1v1H22zM26 8h1v1H26zM5 9h1v1H5zM12 9h1v1H12zM18 9h1v1H18zM19 9h1v1H19zM26 10h1v1H26zM4 13h1v1H4zM27 13h1v1H27zM2 15h1v1H2zM3 15h1v1H3zM9 15h1v1H9zM10 15h1v1H10zM11 15h1v1H11zM12 15h1v1H12zM13 15h1v1H13zM14 15h1v1H14zM17 15h1v1H17zM18 15h1v1H18zM19 15h1v1H19zM20 15h1v1H20zM21 15h1v1H21zM22 15h1v1H22zM28 15h1v1H28zM29 15h1v1H29zM4 16h1v1H4zM5 16h1v1H5zM14 16h1v1H14zM15 16h1v1H15zM16 16h1v1H16zM17 16h1v1H17zM26 16h1v1H26zM27 16h1v1H27zM5 17h1v1H5zM26 17h1v1H26zM0 19h1v1H0zM1 19h1v1H1zM30 19h1v1H30zM31 19h1v1H31zM0 20h1v1H0zM1 20h1v1H1zM2 20h1v1H2zM29 20h1v1H29zM30 20h1v1H30zM31 20h1v1H31zM0 21h1v1H0zM3 21h1v1H3zM28 21h1v1H28zM31 21h1v1H31zM1 22h1v1H1zM6 22h1v1H6zM7 22h1v1H7zM24 22h1v1H24zM25 22h1v1H25zM30 22h1v1H30zM2 23h1v1H2zM6 23h1v1H6zM25 23h1v1H25zM29 23h1v1H29zM3 24h1v1H3zM28 24h1v1H28zM3 25h1v1H3zM4 25h1v1H4zM27 25h1v1H27zM28 25h1v1H28zM6 26h1v1H6zM9 26h1v1H9zM13 26h1v1H13zM14 26h1v1H14zM17 26h1v1H17zM18 26h1v1H18zM22 26h1v1H22zM25 26h1v1H25zM3 27h1v1H3zM5 27h1v1H5zM7 27h1v1H7zM8 27h1v1H8zM9 27h1v1H9zM10 27h1v1H10zM15 27h1v1H15zM16 27h1v1H16zM21 27h1v1H21zM22 27h1v1H22zM23 27h1v1H23zM24 27h1v1H24zM26 27h1v1H26zM28 27h1v1H28zM7 28h1v1H7zM8 28h1v1H8zM11 28h1v1H11zM12 28h1v1H12zM14 28h1v1H14zM17 28h1v1H17zM19 28h1v1H19zM20 28h1v1H20zM23 28h1v1H23zM24 28h1v1H24z"/><path fill="#547b19" d="M17 2h1v1H17zM16 3h1v1H16zM16 4h1v1H16zM21 4h1v1H21zM16 5h1v1H16zM20 5h1v1H20zM17 6h1v1H17zM18 6h1v1H18zM19 6h1v1H19z"/><path fill="#83b136" d="M18 2h1v1H18zM19 2h1v1H19zM20 2h1v1H20zM21 2h1v1H21zM17 3h1v1H17zM18 3h1v1H18zM20 3h1v1H20zM17 4h1v1H17zM19 4h1v1H19zM20 4h1v1H20zM18 5h1v1H18zM19 5h1v1H19z"/><path fill="#3b060a" d="M13 3h1v1H13zM15 3h1v1H15zM13 4h1v1H13zM15 4h1v1H15zM13 5h1v1H13zM15 5h1v1H15zM13 6h1v1H13zM16 6h1v1H16zM14 7h1v1H14z"/><path fill="#5d871f" d="M19 3h1v1H19zM18 4h1v1H18zM17 5h1v1H17z"/><path fill="#5a0d0b" d="M14 4h1v1H14zM14 5h1v1H14zM14 6h1v1H14zM20 6h1v1H20zM21 6h1v1H21zM17 7h1v1H17zM18 7h1v1H18zM9 24h1v1H9zM14 24h1v1H14zM17 24h1v1H17zM22 24h1v1H22zM6 28h1v1H6zM10 28h1v1H10zM15 28h1v1H15zM16 28h1v1H16zM21 28h1v1H21zM25 28h1v1H25zM9 29h1v1H9zM10 29h1v1H10zM11 29h1v1H11zM15 29h1v1H15zM16 29h1v1H16zM20 29h1v1H20zM21 29h1v1H21zM22 29h1v1H22z"/><path fill="#db2e0a" d="M6 5h1v1H6zM9 5h1v1H9zM10 5h1v1H10zM11 6h1v1H11zM9 7h1v1H9zM22 7h1v1H22zM6 9h1v1H6zM25 9h1v1H25zM5 10h1v1H5zM4 11h1v1H4zM27 11h1v1H27zM4 12h1v1H4zM9 12h1v1H9zM10 12h1v1H10zM11 12h1v1H11zM20 12h1v1H20zM21 12h1v1H21zM22 12h1v1H22zM27 12h1v1H27zM9 13h1v1H9zM10 13h1v1H10zM11 13h1v1H11zM12 13h1v1H12zM13 13h1v1H13zM18 13h1v1H18zM19 13h1v1H19zM20 13h1v1H20zM21 13h1v1H21zM22 13h1v1H22zM5 14h1v1H5zM8 14h1v1H8zM9 14h1v1H9zM10 14h1v1H10zM11 14h1v1H11zM12 14h1v1H12zM13 14h1v1H13zM18 14h1v1H18zM19 14h1v1H19zM20 14h1v1H20zM21 14h1v1H21zM22 14h1v1H22zM23 14h1v1H23zM26 14h1v1H26zM1 15h1v1H1zM5 15h1v1H5zM26 15h1v1H26zM30 15h1v1H30zM1 16h1v1H1zM3 16h1v1H3zM28 16h1v1H28zM30 16h1v1H30zM1 17h1v1H1zM30 17h1v1H30zM1 18h1v1H1zM5 18h1v1H5zM26 18h1v1H26zM30 18h1v1H30zM6 19h1v1H6zM25 19h1v1H25zM6 20h1v1H6zM25 20h1v1H25zM6 21h1v1H6zM25 21h1v1H25zM14 25h1v1H14zM17 25h1v1H17zM15 26h1v1H15zM16 26h1v1H16zM11 27h1v1H11zM20 27h1v1H20z"/><path fill="#f16a1d" d="M7 5h1v1H7zM8 5h1v1H8zM11 5h1v1H11zM23 5h1v1H23zM24 5h1v1H24zM6 6h1v1H6zM7 6h1v1H7zM8 6h1v1H8zM9 6h1v1H9zM10 6h1v1H10zM23 6h1v1H23zM24 6h1v1H24zM25 6h1v1H25zM6 7h1v1H6zM15 7h1v1H15zM16 7h1v1H16zM23 8h1v1H23zM25 8h1v1H25zM7 9h1v1H7zM8 9h1v1H8zM9 9h1v1H9zM10 9h1v1H10zM11 9h1v1H11zM14 9h1v1H14zM17 9h1v1H17zM20 9h1v1H20zM21 9h1v1H21zM22 9h1v1H22zM23 9h1v1H23zM24 9h1v1H24zM6 10h1v1H6zM9 10h1v1H9zM10 10h1v1H10zM21 10h1v1H21zM22 10h1v1H22zM25 10h1v1H25zM5 11h1v1H5zM10 11h1v1H10zM15 11h1v1H15zM16 11h1v1H16zM21 11h1v1H21zM22 11h1v1H22zM26 11h1v1H26zM5 12h1v1H5zM8 12h1v1H8zM12 12h1v1H12zM19 12h1v1H19zM23 12h1v1H23zM26 12h1v1H26zM5 13h1v1H5zM6 13h1v1H6zM7 13h1v1H7zM8 13h1v1H8zM14 13h1v1H14zM17 13h1v1H17zM23 13h1v1H23zM24 13h1v1H24zM25 13h1v1H25zM26 13h1v1H26zM4 14h1v1H4zM6 14h1v1H6zM14 14h1v1H14zM17 14h1v1H17zM25 14h1v1H25zM27 14h1v1H27zM4 15h1v1H4zM6 15h1v1H6zM25 15h1v1H25zM27 15h1v1H27zM2 16h1v1H2zM6 16h1v1H6zM25 16h1v1H25zM29 16h1v1H29zM3 17h1v1H3zM4 17h1v1H4zM6 17h1v1H6zM25 17h1v1H25zM27 17h1v1H27zM28 17h1v1H28zM4 18h1v1H4zM6 18h1v1H6zM25 18h1v1H25zM27 18h1v1H27zM4 19h1v1H4zM5 19h1v1H5zM26 19h1v1H26zM27 19h1v1H27zM5 20h1v1H5zM26 20h1v1H26zM5 21h1v1H5zM26 21h1v1H26zM4 22h1v1H4zM5 22h1v1H5zM26 22h1v1H26zM27 22h1v1H27zM3 23h1v1H3zM4 23h1v1H4zM5 23h1v1H5zM26 23h1v1H26zM27 23h1v1H27zM28 23h1v1H28zM7 24h1v1H7zM15 24h1v1H15zM16 24h1v1H16zM24 24h1v1H24zM7 25h1v1H7zM9 25h1v1H9zM12 25h1v1H12zM13 25h1v1H13zM18 25h1v1H18zM19 25h1v1H19zM22 25h1v1H22zM24 25h1v1H24zM3 26h1v1H3zM5 26h1v1H5zM7 26h1v1H7zM8 26h1v1H8zM12 26h1v1H12zM19 26h1v1H19zM23 26h1v1H23zM24 26h1v1H24zM26 26h1v1H26zM28 26h1v1H28zM4 27h1v1H4zM12 27h1v1H12zM13 27h1v1H13zM18 27h1v1H18zM19 27h1v1H19zM27 27h1v1H27zM13 28h1v1H13zM18 28h1v1H18z"/><path fill="#f2bb53" d="M7 7h1v1H7zM8 7h1v1H8zM23 7h1v1H23zM24 7h1v1H24zM25 7h1v1H25zM6 8h1v1H6zM7 8h1v1H7zM14 8h1v1H14zM17 8h1v1H17zM24 8h1v1H24zM7 10h1v1H7zM8 10h1v1H8zM11 10h1v1H11zM15 10h1v1H15zM16 10h1v1H16zM20 10h1v1H20zM23 10h1v1H23zM24 10h1v1H24zM8 11h1v1H8zM9 11h1v1H9zM11 11h1v1H11zM14 11h1v1H14zM17 11h1v1H17zM20 11h1v1H20zM23 11h1v1H23zM13 12h1v1H13zM15 12h1v1H15zM16 12h1v1H16zM18 12h1v1H18zM7 14h1v1H7zM24 14h1v1H24zM15 15h1v1H15zM16 15h1v1H16zM2 17h1v1H2zM7 17h1v1H7zM24 17h1v1H24zM29 17h1v1H29zM2 18h1v1H2zM3 18h1v1H3zM7 18h1v1H7zM24 18h1v1H24zM28 18h1v1H28zM29 18h1v1H29zM2 19h1v1H2zM3 19h1v1H3zM7 19h1v1H7zM24 19h1v1H24zM28 19h1v1H28zM29 19h1v1H29zM3 20h1v1H3zM4 20h1v1H4zM27 20h1v1H27zM28 20h1v1H28zM1 21h1v1H1zM2 21h1v1H2zM4 21h1v1H4zM27 21h1v1H27zM29 21h1v1H29zM30 21h1v1H30zM2 22h1v1H2zM3 22h1v1H3zM28 22h1v1H28zM29 22h1v1H29zM4 24h1v1H4zM5 24h1v1H5zM6 24h1v1H6zM25 24h1v1H25zM26 24h1v1H26zM27 24h1v1H27zM5 25h1v1H5zM6 25h1v1H6zM8 25h1v1H8zM10 25h1v1H10zM11 25h1v1H11zM15 25h1v1H15zM16 25h1v1H16zM20 25h1v1H20zM21 25h1v1H21zM23 25h1v1H23zM25 25h1v1H25zM26 25h1v1H26zM4 26h1v1H4zM10 26h1v1H10zM11 26h1v1H11zM20 26h1v1H20zM21 26h1v1H21zM27 26h1v1H27z"/><path fill="#f9e3af" d="M15 8h1v1H15zM16 8h1v1H16zM15 9h1v1H15zM16 9h1v1H16zM12 10h1v1H12zM13 10h1v1H13zM14 10h1v1H14zM17 10h1v1H17zM18 10h1v1H18zM19 10h1v1H19zM6 11h1v1H6zM7 11h1v1H7zM12 11h1v1H12zM13 11h1v1H13zM18 11h1v1H18zM19 11h1v1H19zM24 11h1v1H24zM25 11h1v1H25zM6 12h1v1H6zM7 12h1v1H7zM14 12h1v1H14zM17 12h1v1H17zM24 12h1v1H24zM25 12h1v1H25zM15 13h1v1H15zM16 13h1v1H16zM15 14h1v1H15zM16 14h1v1H16zM7 15h1v1H7zM8 15h1v1H8zM23 15h1v1H23zM24 15h1v1H24zM7 16h1v1H7zM8 16h1v1H8zM23 16h1v1H23zM24 16h1v1H24zM7 20h1v1H7zM24 20h1v1H24zM7 21h1v1H7zM24 21h1v1H24zM7 23h1v1H7zM24 23h1v1H24z"/><path fill="#000000" d="M9 16h1v1H9zM10 16h1v1H10zM11 16h1v1H11zM12 16h1v1H12zM13 16h1v1H13zM18 16h1v1H18zM19 16h1v1H19zM20 16h1v1H20zM21 16h1v1H21zM22 16h1v1H22zM8 17h1v1H8zM9 17h1v1H9zM10 17h1v1H10zM13 17h1v1H13zM14 17h1v1H14zM15 17h1v1H15zM16 17h1v1H16zM17 17h1v1H17zM18 17h1v1H18zM21 17h1v1H21zM22 17h1v1H22zM23 17h1v1H23zM8 18h1v1H8zM9 18h1v1H9zM14 18h1v1H14zM15 18h1v1H15zM16 18h1v1H16zM17 18h1v1H17zM22 18h1v1H22zM23 18h1v1H23zM8 19h1v1H8zM9 19h1v1H9zM13 19h1v1H13zM14 19h1v1H14zM15 19h1v1H15zM16 19h1v1H16zM17 19h1v1H17zM18 19h1v1H18zM22 19h1v1H22zM23 19h1v1H23zM8 20h1v1H8zM9 20h1v1H9zM13 20h1v1H13zM14 20h1v1H14zM15 20h1v1H15zM16 20h1v1H16zM17 20h1v1H17zM18 20h1v1H18zM22 20h1v1H22zM23 20h1v1H23zM8 21h1v1H8zM9 21h1v1H9zM10 21h1v1H10zM14 21h1v1H14zM15 21h1v1H15zM16 21h1v1H16zM17 21h1v1H17zM21 21h1v1H21zM22 21h1v1H22zM23 21h1v1H23zM8 22h1v1H8zM9 22h1v1H9zM10 22h1v1H10zM11 22h1v1H11zM14 22h1v1H14zM15 22h1v1H15zM16 22h1v1H16zM17 22h1v1H17zM20 22h1v1H20zM21 22h1v1H21zM22 22h1v1H22zM23 22h1v1H23zM9 23h1v1H9zM10 23h1v1H10zM11 23h1v1H11zM12 23h1v1H12zM13 23h1v1H13zM14 23h1v1H14zM15 23h1v1H15zM16 23h1v1H16zM17 23h1v1H17zM18 23h1v1H18zM19 23h1v1H19zM20 23h1v1H20zM21 23h1v1H21zM22 23h1v1H22zM10 24h1v1H10zM11 24h1v1H11zM12 24h1v1H12zM13 24h1v1H13zM18 24h1v1H18zM19 24h1v1H19zM20 24h1v1H20zM21 24h1v1H21z"/><path fill="#ffffff" d="M11 17h1v1H11zM12 17h1v1H12zM19 17h1v1H19zM20 17h1v1H20zM11 18h1v1H11zM12 18h1v1H12zM13 18h1v1H13zM18 18h1v1H18zM19 18h1v1H19zM20 18h1v1H20zM11 19h1v1H11zM12 19h1v1H12zM19 19h1v1H19zM20 19h1v1H20zM11 20h1v1H11zM12 20h1v1H12zM19 20h1v1H19zM20 20h1v1H20zM11 21h1v1H11zM12 21h1v1H12zM19 21h1v1H19zM20 21h1v1H20zM12 22h1v1H12zM13 22h1v1H13zM18 22h1v1H18zM19 22h1v1H19z"/><path fill="#f5a563" d="M10 18h1v1H10zM21 18h1v1H21z"/><path fill="#dd5f2e" d="M10 19h1v1H10zM21 19h1v1H21zM13 21h1v1H13zM18 21h1v1H18z"/><path fill="#722811" d="M10 20h1v1H10zM21 20h1v1H21z"/></svg>
