<svg xmlns="http://www.w3.org/2000/svg" viewBox="0 0 32 32" shape-rendering="crispEdges"><path fill="#000000" d="M14 0h1v1H14zM15 0h1v1H15zM17 0h1v1H17zM12 1h1v1H12zM13 1h1v1H13zM18 1h1v1H18zM19 1h1v1H19zM15 2h1v1H15zM21 2h1v1H21zM7 3h1v1H7zM8 3h1v1H8zM18 3h1v1H18zM20 3h1v1H20zM23 3h1v1H23zM11 4h1v1H11zM20 5h1v1H20zM6 6h1v1H6zM11 6h1v1H11zM25 6h1v1H25zM3 7h1v1H3zM8 7h1v1H8zM9 7h1v1H9zM22 7h1v1H22zM23 7h1v1H23zM28 7h1v1H28zM3 8h1v1H3zM28 8h1v1H28zM2 9h1v1H2zM20 9h1v1H20zM25 9h1v1H25zM5 10h1v1H5zM9 10h1v1H9zM10 10h1v1H10zM11 10h1v1H11zM20 10h1v1H20zM22 10h1v1H22zM24 10h1v1H24zM26 10h1v1H26zM5 11h1v1H5zM6 11h1v1H6zM8 11h1v1H8zM10 11h1v1H10zM14 11h1v1H14zM17 11h1v1H17zM21 11h1v1H21zM23 11h1v1H23zM25 11h1v1H25zM26 11h1v1H26zM6 12h1v1H6zM25 12h1v1H25zM8 13h1v1H8zM12 13h1v1H12zM15 13h1v1H15zM23 13h1v1H23zM7 14h1v1H7zM8 14h1v1H8zM11 14h1v1H11zM20 14h1v1H20zM23 14h1v1H23zM24 14h1v1H24zM1 15h1v1H1zM2 15h1v1H2zM3 15h1v1H3zM10 15h1v1H10zM11 15h1v1H11zM12 15h1v1H12zM17 15h1v1H17zM19 15h1v1H19zM20 15h1v1H20zM21 15h1v1H21zM28 15h1v1H28zM29 15h1v1H29zM30 15h1v1H30zM2 16h1v1H2zM3 16h1v1H3zM13 16h1v1H13zM15 16h1v1H15zM18 16h1v1H18zM28 16h1v1H28zM29 16h1v1H29zM9 17h1v1H9zM12 17h1v1H12zM14 17h1v1H14zM17 17h1v1H17zM19 17h1v1H19zM22 17h1v1H22zM9 18h1v1H9zM12 18h1v1H12zM13 18h1v1H13zM14 18h1v1H14zM17 18h1v1H17zM18 18h1v1H18zM19 18h1v1H19zM22 18h1v1H22zM9 19h1v1H9zM13 19h1v1H13zM14 19h1v1H14zM15 19h1v1H15zM17 19h1v1H17zM18 19h1v1H18zM22 19h1v1H22zM9 20h1v1H9zM14 20h1v1H14zM17 20h1v1H17zM22 20h1v1H22zM9 21h1v1H9zM10 21h1v1H10zM14 21h1v1H14zM17 21h1v1H17zM21 21h1v1H21zM22 21h1v1H22zM10 22h1v1H10zM11 22h1v1H11zM14 22h1v1H14zM17 22h1v1H17zM20 22h1v1H20zM21 22h1v1H21zM12 23h1v1H12zM13 23h1v1H13zM18 23h1v1H18zM19 23h1v1H19zM15 26h1v1H15zM16 26h1v1H16zM14 27h1v1H14zM15 27h1v1H15zM16 27h1v1H16zM17 27h1v1H17zM15 28h1v1H15zM16 28h1v1H16zM20 30h1v1H20z"/><path fill="#181a20" d="M16 0h1v1H16zM10 2h1v1H10zM17 2h1v1H17zM9 3h1v1H9zM22 3h1v1H22zM25 5h1v1H25zM7 7h1v1H7zM20 7h1v1H20zM4 8h1v1H4zM5 8h1v1H5zM6 8h1v1H6zM7 8h1v1H7zM25 8h1v1H25zM26 8h1v1H26zM3 9h1v1H3zM4 9h1v1H4zM5 9h1v1H5zM6 9h1v1H6zM11 9h1v1H11zM21 9h1v1H21zM26 9h1v1H26zM27 9h1v1H27zM7 10h1v1H7zM19 13h1v1H19zM14 15h1v1H14zM23 15h1v1H23zM12 19h1v1H12zM19 19h1v1H19zM20 25h1v1H20z"/><path fill="#2e3440" d="M14 1h1v1H14zM14 2h1v1H14zM13 3h1v1H13zM14 3h1v1H14zM17 3h1v1H17zM21 3h1v1H21zM6 4h1v1H6zM12 4h1v1H12zM13 4h1v1H13zM18 4h1v1H18zM25 4h1v1H25zM26 4h1v1H26zM18 5h1v1H18zM19 6h1v1H19zM4 7h1v1H4zM10 7h1v1H10zM27 7h1v1H27zM21 8h1v1H21zM24 8h1v1H24zM27 10h1v1H27zM9 11h1v1H9zM22 11h1v1H22zM6 15h1v1H6zM25 15h1v1H25zM0 16h1v1H0zM4 16h1v1H4zM10 16h1v1H10zM21 16h1v1H21zM27 16h1v1H27zM31 16h1v1H31zM0 17h1v1H0zM4 17h1v1H4zM27 17h1v1H27zM31 17h1v1H31zM5 18h1v1H5zM26 18h1v1H26zM4 19h1v1H4zM27 19h1v1H27zM13 20h1v1H13zM18 20h1v1H18zM14 23h1v1H14zM15 23h1v1H15zM16 23h1v1H16zM17 23h1v1H17zM13 24h1v1H13zM18 24h1v1H18zM12 25h1v1H12zM19 25h1v1H19z"/><path fill="#b8a56a" d="M15 1h1v1H15zM17 1h1v1H17zM8 2h1v1H8zM22 2h1v1H22zM23 2h1v1H23zM21 4h1v1H21zM15 5h1v1H15zM16 5h1v1H16zM15 6h1v1H15zM16 6h1v1H16zM22 6h1v1H22zM6 7h1v1H6zM11 7h1v1H11zM16 7h1v1H16zM15 8h1v1H15zM9 9h1v1H9zM14 9h1v1H14zM17 9h1v1H17zM22 9h1v1H22zM6 10h1v1H6zM25 10h1v1H25zM10 12h1v1H10zM20 12h1v1H20zM21 12h1v1H21zM15 14h1v1H15zM17 14h1v1H17zM8 15h1v1H8zM15 17h1v1H15zM24 17h1v1H24zM8 24h1v1H8zM23 24h1v1H23z"/><path fill="#ffffff" d="M16 1h1v1H16zM13 2h1v1H13zM19 2h1v1H19zM8 4h1v1H8zM9 4h1v1H9zM22 4h1v1H22zM8 5h1v1H8zM10 5h1v1H10zM23 5h1v1H23zM23 6h1v1H23zM8 8h1v1H8zM23 8h1v1H23zM23 9h1v1H23zM28 9h1v1H28zM11 16h1v1H11zM12 16h1v1H12zM19 16h1v1H19zM20 16h1v1H20zM11 17h1v1H11zM13 17h1v1H13zM18 17h1v1H18zM20 17h1v1H20zM11 18h1v1H11zM20 18h1v1H20zM10 19h1v1H10zM11 19h1v1H11zM20 19h1v1H20zM21 19h1v1H21zM10 20h1v1H10zM11 20h1v1H11zM20 20h1v1H20zM21 20h1v1H21zM11 21h1v1H11zM12 21h1v1H12zM19 21h1v1H19zM20 21h1v1H20zM12 22h1v1H12zM13 22h1v1H13zM18 22h1v1H18zM19 22h1v1H19zM20 23h1v1H20zM8 30h1v1H8zM23 30h1v1H23z"/><path fill="#7a6b45" d="M9 2h1v1H9zM19 3h1v1H19zM5 7h1v1H5zM25 7h1v1H25zM26 7h1v1H26zM9 8h1v1H9zM14 8h1v1H14zM17 8h1v1H17zM22 8h1v1H22zM29 9h1v1H29zM2 10h1v1H2zM3 10h1v1H3zM13 10h1v1H13zM14 10h1v1H14zM17 10h1v1H17zM18 10h1v1H18zM28 10h1v1H28zM29 10h1v1H29zM4 11h1v1H4zM27 11h1v1H27zM4 12h1v1H4zM13 12h1v1H13zM18 12h1v1H18zM27 12h1v1H27zM5 13h1v1H5zM14 13h1v1H14zM26 13h1v1H26zM6 18h1v1H6zM25 18h1v1H25zM16 20h1v1H16z"/><path fill="#5f6573" d="M11 2h1v1H11zM18 2h1v1H18zM20 2h1v1H20zM12 3h1v1H12zM27 6h1v1H27zM2 11h1v1H2zM29 11h1v1H29zM1 12h1v1H1zM30 12h1v1H30zM0 13h1v1H0zM31 13h1v1H31zM1 14h1v1H1zM2 14h1v1H2zM3 14h1v1H3zM28 14h1v1H28zM29 14h1v1H29zM30 14h1v1H30zM0 15h1v1H0zM4 15h1v1H4zM27 15h1v1H27zM31 15h1v1H31zM5 16h1v1H5zM26 16h1v1H26zM5 17h1v1H5zM26 17h1v1H26zM4 18h1v1H4zM27 18h1v1H27zM14 24h1v1H14zM15 24h1v1H15zM16 24h1v1H16zM17 24h1v1H17zM13 25h1v1H13zM18 25h1v1H18zM12 26h1v1H12zM14 26h1v1H14zM17 26h1v1H17zM19 26h1v1H19zM12 27h1v1H12zM19 27h1v1H19zM12 28h1v1H12zM19 28h1v1H19z"/><path fill="#f6e8b8" d="M12 2h1v1H12zM10 4h1v1H10zM15 4h1v1H15zM16 4h1v1H16zM23 4h1v1H23zM5 5h1v1H5zM9 5h1v1H9zM21 5h1v1H21zM22 5h1v1H22zM26 5h1v1H26zM8 6h1v1H8zM15 7h1v1H15zM19 8h1v1H19zM8 9h1v1H8zM13 11h1v1H13zM2 18h1v1H2zM3 18h1v1H3zM16 18h1v1H16zM28 18h1v1H28zM29 18h1v1H29zM11 23h1v1H11z"/><path fill="#535e3f" d="M16 2h1v1H16zM5 4h1v1H5zM19 4h1v1H19zM11 5h1v1H11zM13 5h1v1H13zM4 6h1v1H4zM5 6h1v1H5zM24 6h1v1H24zM7 9h1v1H7zM24 9h1v1H24zM8 10h1v1H8zM15 10h1v1H15zM16 10h1v1H16zM21 10h1v1H21zM23 10h1v1H23zM6 13h1v1H6zM17 13h1v1H17zM25 13h1v1H25zM10 14h1v1H10zM21 14h1v1H21zM16 15h1v1H16zM14 16h1v1H14zM16 19h1v1H16zM9 22h1v1H9zM22 22h1v1H22zM10 23h1v1H10zM12 24h1v1H12z"/><path fill="#1d281e" d="M10 3h1v1H10zM7 4h1v1H7zM20 4h1v1H20zM24 4h1v1H24zM6 5h1v1H6zM20 6h1v1H20zM19 7h1v1H19zM24 7h1v1H24zM10 8h1v1H10zM27 8h1v1H27zM10 13h1v1H10zM21 13h1v1H21z"/><path fill="#35442c" d="M11 3h1v1H11zM24 3h1v1H24zM12 5h1v1H12zM19 5h1v1H19zM7 6h1v1H7zM10 6h1v1H10zM21 6h1v1H21zM26 6h1v1H26zM16 8h1v1H16zM10 9h1v1H10zM15 9h1v1H15zM16 9h1v1H16zM4 10h1v1H4zM6 14h1v1H6zM12 14h1v1H12zM19 14h1v1H19zM25 14h1v1H25zM16 17h1v1H16zM15 20h1v1H15zM19 24h1v1H19zM11 25h1v1H11zM11 30h1v1H11z"/><path fill="#4e2b16" d="M15 3h1v1H15zM16 3h1v1H16zM14 4h1v1H14zM17 4h1v1H17zM12 11h1v1H12zM19 11h1v1H19zM12 12h1v1H12zM19 12h1v1H19zM5 19h1v1H5zM26 19h1v1H26zM7 20h1v1H7zM24 20h1v1H24zM5 21h1v1H5zM7 21h1v1H7zM24 21h1v1H24zM26 21h1v1H26zM6 22h1v1H6zM7 22h1v1H7zM24 22h1v1H24zM25 22h1v1H25zM2 23h1v1H2zM7 23h1v1H7zM8 23h1v1H8zM23 23h1v1H23zM24 23h1v1H24zM29 23h1v1H29zM2 24h1v1H2zM3 24h1v1H3zM5 24h1v1H5zM7 24h1v1H7zM9 24h1v1H9zM10 24h1v1H10zM21 24h1v1H21zM22 24h1v1H22zM24 24h1v1H24zM26 24h1v1H26zM28 24h1v1H28zM29 24h1v1H29zM5 25h1v1H5zM7 25h1v1H7zM24 25h1v1H24zM26 25h1v1H26zM5 26h1v1H5zM6 26h1v1H6zM10 26h1v1H10zM21 26h1v1H21zM25 26h1v1H25zM26 26h1v1H26zM6 27h1v1H6zM10 27h1v1H10zM21 27h1v1H21zM24 27h1v1H24zM25 27h1v1H25zM6 28h1v1H6zM9 28h1v1H9zM11 28h1v1H11zM20 28h1v1H20zM22 28h1v1H22zM10 29h1v1H10zM12 29h1v1H12zM19 29h1v1H19zM21 29h1v1H21zM26 29h1v1H26zM2 30h1v1H2zM5 30h1v1H5zM7 30h1v1H7zM10 30h1v1H10zM12 30h1v1H12zM19 30h1v1H19zM21 30h1v1H21zM29 30h1v1H29z"/><path fill="#d2d5de" d="M7 5h1v1H7zM24 5h1v1H24zM27 5h1v1H27zM12 6h1v1H12zM2 13h1v1H2zM3 13h1v1H3zM28 13h1v1H28zM29 13h1v1H29zM4 14h1v1H4zM27 14h1v1H27zM10 18h1v1H10zM21 18h1v1H21zM13 21h1v1H13zM18 21h1v1H18zM14 25h1v1H14zM15 25h1v1H15zM16 25h1v1H16zM17 25h1v1H17zM13 26h1v1H13zM18 26h1v1H18zM13 27h1v1H13zM18 27h1v1H18z"/><path fill="#6b3f1d" d="M14 5h1v1H14zM17 5h1v1H17zM14 6h1v1H14zM17 6h1v1H17zM14 7h1v1H14zM17 7h1v1H17zM13 9h1v1H13zM18 9h1v1H18zM13 13h1v1H13zM18 13h1v1H18zM14 14h1v1H14zM7 15h1v1H7zM24 15h1v1H24zM6 19h1v1H6zM25 19h1v1H25zM5 20h1v1H5zM26 20h1v1H26zM4 21h1v1H4zM27 21h1v1H27zM15 22h1v1H15zM3 23h1v1H3zM4 23h1v1H4zM27 23h1v1H27zM28 23h1v1H28zM4 24h1v1H4zM27 24h1v1H27zM8 25h1v1H8zM9 25h1v1H9zM22 25h1v1H22zM23 25h1v1H23zM4 26h1v1H4zM7 26h1v1H7zM9 26h1v1H9zM22 26h1v1H22zM24 26h1v1H24zM27 26h1v1H27zM4 27h1v1H4zM7 27h1v1H7zM27 27h1v1H27zM2 28h1v1H2zM4 28h1v1H4zM10 28h1v1H10zM13 28h1v1H13zM18 28h1v1H18zM21 28h1v1H21zM27 28h1v1H27zM29 28h1v1H29zM2 29h1v1H2zM5 29h1v1H5zM7 29h1v1H7zM9 29h1v1H9zM13 29h1v1H13zM18 29h1v1H18zM22 29h1v1H22zM24 29h1v1H24zM29 29h1v1H29z"/><path fill="#9ea4b3" d="M9 6h1v1H9zM5 12h1v1H5zM26 12h1v1H26zM1 13h1v1H1zM30 13h1v1H30zM0 14h1v1H0zM31 14h1v1H31zM5 15h1v1H5zM26 15h1v1H26zM10 17h1v1H10zM21 17h1v1H21zM12 20h1v1H12zM19 20h1v1H19zM8 22h1v1H8zM23 22h1v1H23zM9 23h1v1H9zM22 23h1v1H22z"/><path fill="#67813f" d="M13 6h1v1H13zM21 7h1v1H21zM13 8h1v1H13zM11 11h1v1H11zM20 11h1v1H20zM13 15h1v1H13zM18 15h1v1H18zM15 18h1v1H15zM15 21h1v1H15zM16 21h1v1H16zM21 23h1v1H21zM14 29h1v1H14zM17 29h1v1H17z"/><path fill="#9ddb00" d="M18 6h1v1H18zM12 9h1v1H12zM19 9h1v1H19zM12 10h1v1H12zM7 12h1v1H7zM9 12h1v1H9zM15 12h1v1H15zM16 12h1v1H16zM22 12h1v1H22zM24 12h1v1H24zM9 13h1v1H9zM16 13h1v1H16zM22 13h1v1H22zM7 17h1v1H7zM2 19h1v1H2zM3 19h1v1H3zM8 19h1v1H8zM23 19h1v1H23zM28 19h1v1H28zM29 19h1v1H29zM8 20h1v1H8zM23 20h1v1H23zM14 31h1v1H14z"/><path fill="#d8c78f" d="M12 7h1v1H12zM3 11h1v1H3zM18 11h1v1H18zM28 11h1v1H28zM2 12h1v1H2zM3 12h1v1H3zM28 12h1v1H28zM29 12h1v1H29zM4 13h1v1H4zM27 13h1v1H27zM5 14h1v1H5zM26 14h1v1H26zM16 22h1v1H16zM10 25h1v1H10zM21 25h1v1H21zM3 29h1v1H3zM28 29h1v1H28z"/><path fill="#7db100" d="M13 7h1v1H13zM18 7h1v1H18zM18 8h1v1H18zM19 10h1v1H19zM7 11h1v1H7zM24 11h1v1H24zM8 12h1v1H8zM11 12h1v1H11zM17 12h1v1H17zM23 12h1v1H23zM1 17h1v1H1zM30 17h1v1H30zM1 18h1v1H1zM7 18h1v1H7zM24 18h1v1H24zM30 18h1v1H30zM13 30h1v1H13zM14 30h1v1H14zM17 30h1v1H17zM18 30h1v1H18zM12 31h1v1H12zM16 31h1v1H16zM19 31h1v1H19z"/><path fill="#5a8400" d="M11 8h1v1H11zM14 12h1v1H14zM8 16h1v1H8zM23 16h1v1H23z"/><path fill="#d9ff00" d="M12 8h1v1H12zM15 11h1v1H15zM16 11h1v1H16zM7 13h1v1H7zM11 13h1v1H11zM20 13h1v1H20zM24 13h1v1H24zM9 14h1v1H9zM16 14h1v1H16zM22 14h1v1H22zM9 15h1v1H9zM22 15h1v1H22zM6 16h1v1H6zM9 16h1v1H9zM22 16h1v1H22zM25 16h1v1H25zM8 17h1v1H8zM23 17h1v1H23zM8 18h1v1H8zM23 18h1v1H23zM3 21h1v1H3zM8 21h1v1H8zM23 21h1v1H23zM28 21h1v1H28zM15 30h1v1H15zM16 30h1v1H16zM13 31h1v1H13zM15 31h1v1H15zM17 31h1v1H17zM18 31h1v1H18z"/><path fill="#365400" d="M20 8h1v1H20zM1 16h1v1H1zM17 16h1v1H17zM30 16h1v1H30zM2 17h1v1H2zM3 17h1v1H3zM6 17h1v1H6zM25 17h1v1H25zM28 17h1v1H28zM29 17h1v1H29zM1 19h1v1H1zM30 19h1v1H30zM1 20h1v1H1zM30 20h1v1H30zM14 28h1v1H14zM17 28h1v1H17zM15 29h1v1H15zM16 29h1v1H16z"/><path fill="#1b2d05" d="M13 14h1v1H13zM18 14h1v1H18zM11 24h1v1H11zM20 24h1v1H20z"/><path fill="#8a5523" d="M15 15h1v1H15zM16 16h1v1H16z"/><path fill="#2f1c0f" d="M7 16h1v1H7zM24 16h1v1H24zM7 19h1v1H7zM24 19h1v1H24zM2 20h1v1H2zM4 20h1v1H4zM6 20h1v1H6zM25 20h1v1H25zM27 20h1v1H27zM29 20h1v1H29zM2 21h1v1H2zM6 21h1v1H6zM25 21h1v1H25zM29 21h1v1H29zM2 22h1v1H2zM3 22h1v1H3zM4 22h1v1H4zM5 22h1v1H5zM26 22h1v1H26zM27 22h1v1H27zM28 22h1v1H28zM29 22h1v1H29zM5 23h1v1H5zM6 23h1v1H6zM25 23h1v1H25zM26 23h1v1H26zM6 24h1v1H6zM25 24h1v1H25zM3 25h1v1H3zM4 25h1v1H4zM6 25h1v1H6zM25 25h1v1H25zM27 25h1v1H27zM28 25h1v1H28zM3 26h1v1H3zM8 26h1v1H8zM11 26h1v1H11zM20 26h1v1H20zM23 26h1v1H23zM28 26h1v1H28zM2 27h1v1H2zM3 27h1v1H3zM5 27h1v1H5zM8 27h1v1H8zM9 27h1v1H9zM11 27h1v1H11zM20 27h1v1H20zM22 27h1v1H22zM23 27h1v1H23zM26 27h1v1H26zM28 27h1v1H28zM29 27h1v1H29zM3 28h1v1H3zM5 28h1v1H5zM7 28h1v1H7zM8 28h1v1H8zM23 28h1v1H23zM24 28h1v1H24zM25 28h1v1H25zM26 28h1v1H26zM28 28h1v1H28zM1 29h1v1H1zM4 29h1v1H4zM6 29h1v1H6zM8 29h1v1H8zM11 29h1v1H11zM20 29h1v1H20zM23 29h1v1H23zM25 29h1v1H25zM27 29h1v1H27zM30 29h1v1H30zM3 30h1v1H3zM4 30h1v1H4zM6 30h1v1H6zM9 30h1v1H9zM22 30h1v1H22zM24 30h1v1H24zM25 30h1v1H25zM26 30h1v1H26zM27 30h1v1H27zM28 30h1v1H28z"/><path fill="#b8f900" d="M3 20h1v1H3zM28 20h1v1H28z"/></svg>
