<svg xmlns="http://www.w3.org/2000/svg" viewBox="0 0 32 32" shape-rendering="crispEdges"><path fill="#03296b" d="M13 0h1v1H13zM14 0h1v1H14zM15 0h1v1H15zM16 0h1v1H16zM17 0h1v1H17zM18 0h1v1H18zM11 2h1v1H11zM20 2h1v1H20zM7 4h1v1H7zM9 4h1v1H9zM22 4h1v1H22zM24 4h1v1H24zM9 5h1v1H9zM22 5h1v1H22zM4 6h1v1H4zM8 6h1v1H8zM9 6h1v1H9zM22 6h1v1H22zM23 6h1v1H23zM27 6h1v1H27zM4 7h1v1H4zM10 7h1v1H10zM27 7h1v1H27zM3 8h1v1H3zM28 8h1v1H28zM6 10h1v1H6zM13 10h1v1H13zM18 10h1v1H18zM25 10h1v1H25zM1 11h1v1H1zM30 11h1v1H30zM2 12h1v1H2zM29 12h1v1H29zM3 13h1v1H3zM28 13h1v1H28zM4 14h1v1H4zM27 14h1v1H27zM4 15h1v1H4zM5 15h1v1H5zM26 15h1v1H26zM27 15h1v1H27zM0 16h1v1H0zM5 16h1v1H5zM6 16h1v1H6zM25 16h1v1H25zM26 16h1v1H26zM31 16h1v1H31zM0 17h1v1H0zM6 17h1v1H6zM25 17h1v1H25zM31 17h1v1H31zM0 19h1v1H0zM31 19h1v1H31zM0 20h1v1H0zM13 20h1v1H13zM15 20h1v1H15zM16 20h1v1H16zM18 20h1v1H18zM31 20h1v1H31zM1 21h1v1H1zM30 21h1v1H30zM5 25h1v1H5zM7 25h1v1H7zM24 25h1v1H24zM26 25h1v1H26zM0 26h1v1H0zM5 26h1v1H5zM6 26h1v1H6zM25 26h1v1H25zM26 26h1v1H26zM31 26h1v1H31zM2 29h1v1H2zM3 29h1v1H3zM4 29h1v1H4zM10 29h1v1H10zM21 29h1v1H21zM27 29h1v1H27zM28 29h1v1H28zM29 29h1v1H29zM11 30h1v1H11zM20 30h1v1H20z"/><path fill="#8fd8ff" d="M12 1h1v1H12zM19 1h1v1H19zM10 4h1v1H10zM12 4h1v1H12zM17 4h1v1H17zM18 4h1v1H18zM21 4h1v1H21zM12 5h1v1H12zM13 5h1v1H13zM16 5h1v1H16zM21 5h1v1H21zM5 6h1v1H5zM10 6h1v1H10zM12 6h1v1H12zM13 6h1v1H13zM14 6h1v1H14zM15 6h1v1H15zM16 6h1v1H16zM26 6h1v1H26zM6 7h1v1H6zM7 7h1v1H7zM13 7h1v1H13zM14 7h1v1H14zM15 7h1v1H15zM24 7h1v1H24zM25 7h1v1H25zM6 8h1v1H6zM7 8h1v1H7zM8 8h1v1H8zM23 8h1v1H23zM24 8h1v1H24zM25 8h1v1H25zM7 9h1v1H7zM11 9h1v1H11zM20 9h1v1H20zM24 9h1v1H24zM10 10h1v1H10zM11 10h1v1H11zM15 10h1v1H15zM16 10h1v1H16zM20 10h1v1H20zM21 10h1v1H21zM1 17h1v1H1zM2 17h1v1H2zM3 17h1v1H3zM4 17h1v1H4zM27 17h1v1H27zM28 17h1v1H28zM29 17h1v1H29zM30 17h1v1H30zM3 18h1v1H3zM4 18h1v1H4zM27 18h1v1H27zM28 18h1v1H28zM3 19h1v1H3zM4 19h1v1H4zM27 19h1v1H27zM28 19h1v1H28zM3 21h1v1H3zM28 21h1v1H28zM4 22h1v1H4zM15 22h1v1H15zM16 22h1v1H16zM27 22h1v1H27zM3 24h1v1H3zM28 24h1v1H28zM12 25h1v1H12zM13 25h1v1H13zM18 25h1v1H18zM19 25h1v1H19zM2 26h1v1H2zM29 26h1v1H29zM14 27h1v1H14zM15 27h1v1H15zM16 27h1v1H16zM17 27h1v1H17zM3 28h1v1H3zM9 28h1v1H9zM22 28h1v1H22zM28 28h1v1H28z"/><path fill="#ffffff" d="M13 1h1v1H13zM18 1h1v1H18zM12 2h1v1H12zM14 2h1v1H14zM15 2h1v1H15zM19 2h1v1H19zM10 3h1v1H10zM11 3h1v1H11zM13 3h1v1H13zM14 3h1v1H14zM15 3h1v1H15zM16 3h1v1H16zM20 3h1v1H20zM6 4h1v1H6zM13 4h1v1H13zM14 4h1v1H14zM15 4h1v1H15zM16 4h1v1H16zM25 4h1v1H25zM5 5h1v1H5zM6 5h1v1H6zM11 5h1v1H11zM14 5h1v1H14zM15 5h1v1H15zM17 5h1v1H17zM18 5h1v1H18zM25 5h1v1H25zM26 5h1v1H26zM6 6h1v1H6zM17 6h1v1H17zM18 6h1v1H18zM20 6h1v1H20zM25 6h1v1H25zM2 8h1v1H2zM9 8h1v1H9zM22 8h1v1H22zM29 8h1v1H29zM8 9h1v1H8zM9 9h1v1H9zM10 9h1v1H10zM21 9h1v1H21zM22 9h1v1H22zM23 9h1v1H23zM9 10h1v1H9zM12 10h1v1H12zM19 10h1v1H19zM22 10h1v1H22zM5 11h1v1H5zM6 11h1v1H6zM13 11h1v1H13zM18 11h1v1H18zM25 11h1v1H25zM26 11h1v1H26zM5 12h1v1H5zM6 12h1v1H6zM15 12h1v1H15zM16 12h1v1H16zM25 12h1v1H25zM26 12h1v1H26zM1 13h1v1H1zM9 13h1v1H9zM14 13h1v1H14zM17 13h1v1H17zM22 13h1v1H22zM30 13h1v1H30zM1 14h1v1H1zM8 14h1v1H8zM9 14h1v1H9zM11 14h1v1H11zM15 14h1v1H15zM16 14h1v1H16zM20 14h1v1H20zM22 14h1v1H22zM23 14h1v1H23zM30 14h1v1H30zM3 15h1v1H3zM8 15h1v1H8zM15 15h1v1H15zM16 15h1v1H16zM23 15h1v1H23zM28 15h1v1H28zM1 16h1v1H1zM3 16h1v1H3zM4 16h1v1H4zM11 16h1v1H11zM12 16h1v1H12zM19 16h1v1H19zM20 16h1v1H20zM27 16h1v1H27zM28 16h1v1H28zM30 16h1v1H30zM11 17h1v1H11zM20 17h1v1H20zM1 18h1v1H1zM11 18h1v1H11zM20 18h1v1H20zM30 18h1v1H30zM2 19h1v1H2zM5 19h1v1H5zM10 19h1v1H10zM11 19h1v1H11zM20 19h1v1H20zM21 19h1v1H21zM26 19h1v1H26zM29 19h1v1H29zM4 20h1v1H4zM5 20h1v1H5zM6 20h1v1H6zM10 20h1v1H10zM11 20h1v1H11zM20 20h1v1H20zM21 20h1v1H21zM25 20h1v1H25zM26 20h1v1H26zM27 20h1v1H27zM5 21h1v1H5zM11 21h1v1H11zM12 21h1v1H12zM19 21h1v1H19zM20 21h1v1H20zM26 21h1v1H26zM12 22h1v1H12zM13 22h1v1H13zM18 22h1v1H18zM19 22h1v1H19zM5 23h1v1H5zM11 23h1v1H11zM20 23h1v1H20zM26 23h1v1H26zM1 24h1v1H1zM13 24h1v1H13zM14 24h1v1H14zM17 24h1v1H17zM18 24h1v1H18zM30 24h1v1H30zM8 25h1v1H8zM23 25h1v1H23zM9 26h1v1H9zM11 26h1v1H11zM12 26h1v1H12zM19 26h1v1H19zM20 26h1v1H20zM22 26h1v1H22zM3 27h1v1H3zM5 27h1v1H5zM6 27h1v1H6zM8 27h1v1H8zM10 27h1v1H10zM11 27h1v1H11zM20 27h1v1H20zM21 27h1v1H21zM23 27h1v1H23zM25 27h1v1H25zM26 27h1v1H26zM28 27h1v1H28zM7 28h1v1H7zM13 28h1v1H13zM14 28h1v1H14zM17 28h1v1H17zM18 28h1v1H18zM24 28h1v1H24zM7 29h1v1H7zM13 29h1v1H13zM18 29h1v1H18zM24 29h1v1H24zM7 30h1v1H7zM24 30h1v1H24z"/><path fill="#bdebff" d="M14 1h1v1H14zM15 1h1v1H15zM16 1h1v1H16zM17 1h1v1H17zM13 2h1v1H13zM16 2h1v1H16zM17 2h1v1H17zM18 2h1v1H18zM12 3h1v1H12zM17 3h1v1H17zM18 3h1v1H18zM19 3h1v1H19zM11 4h1v1H11zM19 4h1v1H19zM10 5h1v1H10zM5 7h1v1H5zM12 7h1v1H12zM26 7h1v1H26zM4 10h1v1H4zM5 10h1v1H5zM26 10h1v1H26zM27 10h1v1H27zM4 11h1v1H4zM27 11h1v1H27zM2 14h1v1H2zM10 14h1v1H10zM21 14h1v1H21zM29 14h1v1H29zM1 15h1v1H1zM2 15h1v1H2zM29 15h1v1H29zM30 15h1v1H30zM2 16h1v1H2zM29 16h1v1H29zM5 17h1v1H5zM26 17h1v1H26zM2 18h1v1H2zM5 18h1v1H5zM26 18h1v1H26zM29 18h1v1H29zM1 19h1v1H1zM30 19h1v1H30zM1 20h1v1H1zM30 20h1v1H30zM2 21h1v1H2zM29 21h1v1H29zM2 25h1v1H2zM29 25h1v1H29zM1 26h1v1H1zM3 26h1v1H3zM4 26h1v1H4zM27 26h1v1H27zM28 26h1v1H28zM30 26h1v1H30zM9 30h1v1H9zM22 30h1v1H22z"/><path fill="#8bedfd" d="M5 3h1v1H5zM6 3h1v1H6zM25 3h1v1H25zM26 3h1v1H26zM5 4h1v1H5zM26 4h1v1H26zM19 6h1v1H19zM18 7h1v1H18zM19 7h1v1H19zM18 8h1v1H18zM14 14h1v1H14zM17 14h1v1H17zM14 15h1v1H14zM17 15h1v1H17zM15 16h1v1H15zM16 16h1v1H16zM15 29h1v1H15zM16 29h1v1H16zM8 30h1v1H8zM23 30h1v1H23z"/><path fill="#d7f4ff" d="M21 3h1v1H21zM13 8h1v1H13zM7 15h1v1H7zM24 15h1v1H24zM2 20h1v1H2zM3 20h1v1H3zM28 20h1v1H28zM29 20h1v1H29zM8 21h1v1H8zM23 21h1v1H23zM9 22h1v1H9zM22 22h1v1H22zM10 23h1v1H10zM21 23h1v1H21zM2 24h1v1H2zM12 24h1v1H12zM19 24h1v1H19zM29 24h1v1H29zM4 25h1v1H4zM10 25h1v1H10zM21 25h1v1H21zM27 25h1v1H27zM8 29h1v1H8zM23 29h1v1H23z"/><path fill="#0b6edb" d="M4 4h1v1H4zM27 4h1v1H27zM4 5h1v1H4zM27 5h1v1H27zM1 7h1v1H1zM2 7h1v1H2zM29 7h1v1H29zM30 7h1v1H30zM1 8h1v1H1zM30 8h1v1H30zM7 11h1v1H7zM24 11h1v1H24zM3 12h1v1H3zM14 12h1v1H14zM17 12h1v1H17zM28 12h1v1H28zM0 14h1v1H0zM5 14h1v1H5zM26 14h1v1H26zM31 14h1v1H31zM0 15h1v1H0zM6 15h1v1H6zM25 15h1v1H25zM31 15h1v1H31zM8 16h1v1H8zM23 16h1v1H23zM8 17h1v1H8zM10 17h1v1H10zM15 17h1v1H15zM16 17h1v1H16zM21 17h1v1H21zM23 17h1v1H23zM7 19h1v1H7zM24 19h1v1H24zM12 20h1v1H12zM19 20h1v1H19zM0 22h1v1H0zM1 22h1v1H1zM30 22h1v1H30zM31 22h1v1H31zM0 23h1v1H0zM31 23h1v1H31zM9 25h1v1H9zM22 25h1v1H22zM1 27h1v1H1zM9 27h1v1H9zM22 27h1v1H22zM30 27h1v1H30zM2 28h1v1H2zM4 28h1v1H4zM10 28h1v1H10zM21 28h1v1H21zM27 28h1v1H27zM29 28h1v1H29zM11 29h1v1H11zM20 29h1v1H20zM13 30h1v1H13zM18 30h1v1H18z"/><path fill="#f3fbff" d="M20 4h1v1H20zM20 5h1v1H20zM11 6h1v1H11zM7 16h1v1H7zM24 16h1v1H24zM15 18h1v1H15zM16 18h1v1H16zM7 20h1v1H7zM24 20h1v1H24zM7 21h1v1H7zM24 21h1v1H24zM8 22h1v1H8zM23 22h1v1H23zM9 23h1v1H9zM22 23h1v1H22zM3 25h1v1H3zM28 25h1v1H28zM7 26h1v1H7zM24 26h1v1H24zM6 29h1v1H6zM25 29h1v1H25z"/><path fill="#55c3ff" d="M7 5h1v1H7zM19 5h1v1H19zM24 5h1v1H24zM21 6h1v1H21zM8 7h1v1H8zM9 7h1v1H9zM11 7h1v1H11zM22 7h1v1H22zM23 7h1v1H23zM10 8h1v1H10zM21 8h1v1H21zM2 9h1v1H2zM3 9h1v1H3zM4 9h1v1H4zM12 9h1v1H12zM19 9h1v1H19zM27 9h1v1H27zM28 9h1v1H28zM29 9h1v1H29zM2 10h1v1H2zM3 10h1v1H3zM28 10h1v1H28zM29 10h1v1H29zM3 11h1v1H3zM10 11h1v1H10zM11 11h1v1H11zM12 11h1v1H12zM14 11h1v1H14zM17 11h1v1H17zM19 11h1v1H19zM20 11h1v1H20zM21 11h1v1H21zM28 11h1v1H28zM4 12h1v1H4zM7 12h1v1H7zM8 12h1v1H8zM12 12h1v1H12zM19 12h1v1H19zM23 12h1v1H23zM24 12h1v1H24zM27 12h1v1H27zM5 13h1v1H5zM6 13h1v1H6zM7 13h1v1H7zM8 13h1v1H8zM12 13h1v1H12zM15 13h1v1H15zM16 13h1v1H16zM19 13h1v1H19zM23 13h1v1H23zM24 13h1v1H24zM25 13h1v1H25zM26 13h1v1H26zM7 14h1v1H7zM13 14h1v1H13zM18 14h1v1H18zM24 14h1v1H24zM6 18h1v1H6zM25 18h1v1H25zM6 19h1v1H6zM15 19h1v1H15zM16 19h1v1H16zM25 19h1v1H25zM4 21h1v1H4zM6 21h1v1H6zM25 21h1v1H25zM27 21h1v1H27zM3 22h1v1H3zM5 22h1v1H5zM6 22h1v1H6zM7 22h1v1H7zM24 22h1v1H24zM25 22h1v1H25zM26 22h1v1H26zM28 22h1v1H28zM1 23h1v1H1zM2 23h1v1H2zM4 23h1v1H4zM6 23h1v1H6zM8 23h1v1H8zM15 23h1v1H15zM16 23h1v1H16zM23 23h1v1H23zM25 23h1v1H25zM27 23h1v1H27zM29 23h1v1H29zM30 23h1v1H30zM9 24h1v1H9zM10 24h1v1H10zM11 24h1v1H11zM20 24h1v1H20zM21 24h1v1H21zM22 24h1v1H22zM11 25h1v1H11zM20 25h1v1H20zM8 26h1v1H8zM15 26h1v1H15zM16 26h1v1H16zM23 26h1v1H23zM2 27h1v1H2zM4 27h1v1H4zM7 27h1v1H7zM24 27h1v1H24zM27 27h1v1H27zM29 27h1v1H29zM5 28h1v1H5zM6 28h1v1H6zM8 28h1v1H8zM15 28h1v1H15zM16 28h1v1H16zM23 28h1v1H23zM25 28h1v1H25zM26 28h1v1H26zM5 29h1v1H5zM9 29h1v1H9zM14 29h1v1H14zM17 29h1v1H17zM22 29h1v1H22zM26 29h1v1H26zM5 30h1v1H5zM10 30h1v1H10zM21 30h1v1H21zM26 30h1v1H26zM13 31h1v1H13zM14 31h1v1H14zM15 31h1v1H15zM16 31h1v1H16zM17 31h1v1H17zM18 31h1v1H18z"/><path fill="#0645a8" d="M8 5h1v1H8zM23 5h1v1H23zM21 7h1v1H21zM4 8h1v1H4zM5 8h1v1H5zM11 8h1v1H11zM14 8h1v1H14zM15 8h1v1H15zM16 8h1v1H16zM17 8h1v1H17zM20 8h1v1H20zM26 8h1v1H26zM27 8h1v1H27zM1 9h1v1H1zM6 9h1v1H6zM13 9h1v1H13zM15 9h1v1H15zM16 9h1v1H16zM18 9h1v1H18zM25 9h1v1H25zM30 9h1v1H30zM1 10h1v1H1zM7 10h1v1H7zM14 10h1v1H14zM17 10h1v1H17zM24 10h1v1H24zM30 10h1v1H30zM8 11h1v1H8zM9 11h1v1H9zM15 11h1v1H15zM16 11h1v1H16zM22 11h1v1H22zM23 11h1v1H23zM0 12h1v1H0zM1 12h1v1H1zM9 12h1v1H9zM10 12h1v1H10zM21 12h1v1H21zM22 12h1v1H22zM30 12h1v1H30zM31 12h1v1H31zM0 13h1v1H0zM2 13h1v1H2zM10 13h1v1H10zM11 13h1v1H11zM13 13h1v1H13zM18 13h1v1H18zM20 13h1v1H20zM21 13h1v1H21zM29 13h1v1H29zM31 13h1v1H31zM3 14h1v1H3zM12 14h1v1H12zM19 14h1v1H19zM28 14h1v1H28zM10 16h1v1H10zM21 16h1v1H21zM0 18h1v1H0zM7 18h1v1H7zM24 18h1v1H24zM31 18h1v1H31zM12 19h1v1H12zM19 19h1v1H19zM9 21h1v1H9zM22 21h1v1H22zM2 22h1v1H2zM10 22h1v1H10zM21 22h1v1H21zM29 22h1v1H29zM3 23h1v1H3zM7 23h1v1H7zM24 23h1v1H24zM28 23h1v1H28zM0 24h1v1H0zM4 24h1v1H4zM6 24h1v1H6zM7 24h1v1H7zM8 24h1v1H8zM23 24h1v1H23zM24 24h1v1H24zM25 24h1v1H25zM27 24h1v1H27zM31 24h1v1H31zM0 25h1v1H0zM15 25h1v1H15zM16 25h1v1H16zM31 25h1v1H31zM14 26h1v1H14zM17 26h1v1H17zM13 27h1v1H13zM18 27h1v1H18zM12 28h1v1H12zM19 28h1v1H19zM12 29h1v1H12zM19 29h1v1H19zM3 30h1v1H3zM4 30h1v1H4zM6 30h1v1H6zM25 30h1v1H25zM27 30h1v1H27zM28 30h1v1H28z"/><path fill="#1b9dff" d="M7 6h1v1H7zM24 6h1v1H24zM16 7h1v1H16zM17 7h1v1H17zM20 7h1v1H20zM12 8h1v1H12zM19 8h1v1H19zM14 9h1v1H14zM17 9h1v1H17zM8 10h1v1H8zM23 10h1v1H23zM2 11h1v1H2zM29 11h1v1H29zM11 12h1v1H11zM13 12h1v1H13zM18 12h1v1H18zM20 12h1v1H20zM4 13h1v1H4zM27 13h1v1H27zM6 14h1v1H6zM25 14h1v1H25zM13 15h1v1H13zM18 15h1v1H18zM14 16h1v1H14zM17 16h1v1H17zM7 17h1v1H7zM24 17h1v1H24zM8 18h1v1H8zM10 18h1v1H10zM21 18h1v1H21zM23 18h1v1H23zM8 19h1v1H8zM23 19h1v1H23zM8 20h1v1H8zM23 20h1v1H23zM13 21h1v1H13zM15 21h1v1H15zM16 21h1v1H16zM18 21h1v1H18zM5 24h1v1H5zM15 24h1v1H15zM16 24h1v1H16zM26 24h1v1H26zM6 25h1v1H6zM14 25h1v1H14zM17 25h1v1H17zM25 25h1v1H25zM10 26h1v1H10zM13 26h1v1H13zM18 26h1v1H18zM21 26h1v1H21zM12 27h1v1H12zM19 27h1v1H19zM11 28h1v1H11zM20 28h1v1H20zM12 30h1v1H12zM14 30h1v1H14zM15 30h1v1H15zM16 30h1v1H16zM17 30h1v1H17zM19 30h1v1H19z"/><path fill="#000000" d="M5 9h1v1H5zM26 9h1v1H26zM9 15h1v1H9zM10 15h1v1H10zM11 15h1v1H11zM12 15h1v1H12zM19 15h1v1H19zM20 15h1v1H20zM21 15h1v1H21zM22 15h1v1H22zM9 16h1v1H9zM13 16h1v1H13zM18 16h1v1H18zM22 16h1v1H22zM9 17h1v1H9zM12 17h1v1H12zM14 17h1v1H14zM17 17h1v1H17zM19 17h1v1H19zM22 17h1v1H22zM9 18h1v1H9zM12 18h1v1H12zM13 18h1v1H13zM14 18h1v1H14zM17 18h1v1H17zM18 18h1v1H18zM19 18h1v1H19zM22 18h1v1H22zM9 19h1v1H9zM13 19h1v1H13zM14 19h1v1H14zM17 19h1v1H17zM18 19h1v1H18zM22 19h1v1H22zM9 20h1v1H9zM14 20h1v1H14zM17 20h1v1H17zM22 20h1v1H22zM10 21h1v1H10zM14 21h1v1H14zM17 21h1v1H17zM21 21h1v1H21zM11 22h1v1H11zM14 22h1v1H14zM17 22h1v1H17zM20 22h1v1H20zM12 23h1v1H12zM13 23h1v1H13zM14 23h1v1H14zM17 23h1v1H17zM18 23h1v1H18zM19 23h1v1H19z"/><path fill="#fffcfe" d="M13 17h1v1H13zM18 17h1v1H18z"/><path fill="#d9fff5" d="M1 25h1v1H1zM30 25h1v1H30z"/></svg>
