<svg xmlns="http://www.w3.org/2000/svg" viewBox="0 0 32 32" shape-rendering="crispEdges"><path fill="#d1ac59" d="M12 1h1v1H12zM13 1h1v1H13zM18 1h1v1H18zM19 1h1v1H19zM9 3h1v1H9zM10 3h1v1H10zM21 3h1v1H21zM22 3h1v1H22zM8 4h1v1H8zM9 4h1v1H9zM22 4h1v1H22zM23 4h1v1H23zM8 5h1v1H8zM23 5h1v1H23zM13 9h1v1H13zM18 9h1v1H18zM13 10h1v1H13zM18 10h1v1H18zM8 18h1v1H8zM23 18h1v1H23zM8 19h1v1H8zM23 19h1v1H23zM8 20h1v1H8zM23 20h1v1H23zM8 21h1v1H8zM23 21h1v1H23zM5 22h1v1H5zM26 22h1v1H26zM8 23h1v1H8zM23 23h1v1H23zM9 24h1v1H9zM22 24h1v1H22z"/><path fill="#f1f1eb" d="M14 1h1v1H14zM17 1h1v1H17zM7 23h1v1H7zM24 23h1v1H24zM7 24h1v1H7zM24 24h1v1H24z"/><path fill="#f8f9f8" d="M15 1h1v1H15zM16 1h1v1H16z"/><path fill="#efe1be" d="M10 2h1v1H10zM11 2h1v1H11zM20 2h1v1H20zM21 2h1v1H21zM7 6h1v1H7zM24 6h1v1H24zM6 7h1v1H6zM15 7h1v1H15zM16 7h1v1H16zM25 7h1v1H25zM14 23h1v1H14zM17 23h1v1H17zM13 24h1v1H13zM18 24h1v1H18zM11 25h1v1H11zM12 25h1v1H12zM19 25h1v1H19zM20 25h1v1H20z"/><path fill="#956b2c" d="M12 2h1v1H12zM19 2h1v1H19zM11 3h1v1H11zM20 3h1v1H20zM9 5h1v1H9zM22 5h1v1H22zM8 6h1v1H8zM23 6h1v1H23zM8 8h1v1H8zM23 8h1v1H23zM6 9h1v1H6zM25 9h1v1H25zM13 11h1v1H13zM18 11h1v1H18zM15 12h1v1H15zM16 12h1v1H16zM6 16h1v1H6zM25 16h1v1H25zM5 17h1v1H5zM26 17h1v1H26zM5 18h1v1H5zM26 18h1v1H26zM5 19h1v1H5zM26 19h1v1H26zM5 20h1v1H5zM26 20h1v1H26zM6 22h1v1H6zM25 22h1v1H25zM13 26h1v1H13zM18 26h1v1H18z"/><path fill="#b58c44" d="M13 2h1v1H13zM14 2h1v1H14zM17 2h1v1H17zM18 2h1v1H18zM7 8h1v1H7zM24 8h1v1H24z"/><path fill="#dcc080" d="M15 2h1v1H15zM16 2h1v1H16zM7 5h1v1H7zM24 5h1v1H24zM6 6h1v1H6zM25 6h1v1H25zM7 7h1v1H7zM24 7h1v1H24zM5 8h1v1H5zM14 8h1v1H14zM17 8h1v1H17zM26 8h1v1H26zM11 11h1v1H11zM20 11h1v1H20zM12 12h1v1H12zM13 12h1v1H13zM14 12h1v1H14zM17 12h1v1H17zM18 12h1v1H18zM19 12h1v1H19zM8 22h1v1H8zM23 22h1v1H23zM8 24h1v1H8zM10 24h1v1H10zM21 24h1v1H21zM23 24h1v1H23z"/><path fill="#575f75" d="M12 4h1v1H12zM19 4h1v1H19zM1 16h1v1H1zM30 16h1v1H30zM1 17h1v1H1zM2 17h1v1H2zM29 17h1v1H29zM30 17h1v1H30zM1 18h1v1H1zM30 18h1v1H30zM1 21h1v1H1zM30 21h1v1H30zM1 22h1v1H1zM2 22h1v1H2zM29 22h1v1H29zM30 22h1v1H30zM2 23h1v1H2zM29 23h1v1H29zM6 26h1v1H6zM25 26h1v1H25z"/><path fill="#abb9cf" d="M13 4h1v1H13zM18 4h1v1H18zM12 9h1v1H12zM19 9h1v1H19z"/><path fill="#c4cfe0" d="M14 4h1v1H14zM17 4h1v1H17zM11 6h1v1H11zM12 6h1v1H12zM19 6h1v1H19zM20 6h1v1H20zM12 7h1v1H12zM19 7h1v1H19zM12 8h1v1H12zM19 8h1v1H19zM2 15h1v1H2zM29 15h1v1H29zM2 16h1v1H2zM3 16h1v1H3zM28 16h1v1H28zM29 16h1v1H29zM3 17h1v1H3zM4 17h1v1H4zM27 17h1v1H27zM28 17h1v1H28zM4 18h1v1H4zM27 18h1v1H27zM4 23h1v1H4zM27 23h1v1H27z"/><path fill="#fdfdfd" d="M15 4h1v1H15zM16 4h1v1H16zM13 5h1v1H13zM14 5h1v1H14zM15 5h1v1H15zM16 5h1v1H16zM17 5h1v1H17zM18 5h1v1H18zM13 6h1v1H13zM14 6h1v1H14zM15 6h1v1H15zM16 6h1v1H16zM17 6h1v1H17zM18 6h1v1H18zM13 7h1v1H13zM14 7h1v1H14zM17 7h1v1H17zM18 7h1v1H18zM2 8h1v1H2zM3 8h1v1H3zM13 8h1v1H13zM18 8h1v1H18zM28 8h1v1H28zM29 8h1v1H29zM3 9h1v1H3zM4 9h1v1H4zM15 9h1v1H15zM16 9h1v1H16zM27 9h1v1H27zM28 9h1v1H28zM4 10h1v1H4zM5 10h1v1H5zM6 10h1v1H6zM7 10h1v1H7zM8 10h1v1H8zM9 10h1v1H9zM10 10h1v1H10zM11 10h1v1H11zM12 10h1v1H12zM14 10h1v1H14zM15 10h1v1H15zM16 10h1v1H16zM17 10h1v1H17zM19 10h1v1H19zM20 10h1v1H20zM21 10h1v1H21zM22 10h1v1H22zM23 10h1v1H23zM24 10h1v1H24zM25 10h1v1H25zM26 10h1v1H26zM27 10h1v1H27zM1 11h1v1H1zM5 11h1v1H5zM6 11h1v1H6zM7 11h1v1H7zM8 11h1v1H8zM9 11h1v1H9zM10 11h1v1H10zM15 11h1v1H15zM16 11h1v1H16zM21 11h1v1H21zM22 11h1v1H22zM23 11h1v1H23zM24 11h1v1H24zM25 11h1v1H25zM26 11h1v1H26zM30 11h1v1H30zM1 12h1v1H1zM2 12h1v1H2zM6 12h1v1H6zM8 12h1v1H8zM9 12h1v1H9zM10 12h1v1H10zM11 12h1v1H11zM20 12h1v1H20zM21 12h1v1H21zM22 12h1v1H22zM23 12h1v1H23zM25 12h1v1H25zM29 12h1v1H29zM30 12h1v1H30zM1 13h1v1H1zM2 13h1v1H2zM3 13h1v1H3zM8 13h1v1H8zM10 13h1v1H10zM11 13h1v1H11zM12 13h1v1H12zM19 13h1v1H19zM20 13h1v1H20zM21 13h1v1H21zM23 13h1v1H23zM28 13h1v1H28zM29 13h1v1H29zM30 13h1v1H30zM2 14h1v1H2zM3 14h1v1H3zM4 14h1v1H4zM8 14h1v1H8zM11 14h1v1H11zM12 14h1v1H12zM13 14h1v1H13zM14 14h1v1H14zM17 14h1v1H17zM18 14h1v1H18zM19 14h1v1H19zM20 14h1v1H20zM23 14h1v1H23zM27 14h1v1H27zM28 14h1v1H28zM29 14h1v1H29zM3 15h1v1H3zM4 15h1v1H4zM7 15h1v1H7zM8 15h1v1H8zM13 15h1v1H13zM14 15h1v1H14zM15 15h1v1H15zM16 15h1v1H16zM17 15h1v1H17zM18 15h1v1H18zM23 15h1v1H23zM24 15h1v1H24zM27 15h1v1H27zM28 15h1v1H28zM4 16h1v1H4zM5 16h1v1H5zM8 16h1v1H8zM15 16h1v1H15zM16 16h1v1H16zM23 16h1v1H23zM26 16h1v1H26zM27 16h1v1H27zM7 17h1v1H7zM24 17h1v1H24zM6 18h1v1H6zM7 18h1v1H7zM24 18h1v1H24zM25 18h1v1H25zM1 19h1v1H1zM2 19h1v1H2zM6 19h1v1H6zM7 19h1v1H7zM24 19h1v1H24zM25 19h1v1H25zM29 19h1v1H29zM30 19h1v1H30zM1 20h1v1H1zM2 20h1v1H2zM3 20h1v1H3zM7 20h1v1H7zM24 20h1v1H24zM28 20h1v1H28zM29 20h1v1H29zM30 20h1v1H30zM2 21h1v1H2zM3 21h1v1H3zM4 21h1v1H4zM7 21h1v1H7zM24 21h1v1H24zM27 21h1v1H27zM28 21h1v1H28zM29 21h1v1H29zM3 22h1v1H3zM4 22h1v1H4zM27 22h1v1H27zM28 22h1v1H28zM15 24h1v1H15zM16 24h1v1H16zM14 25h1v1H14zM15 25h1v1H15zM16 25h1v1H16zM17 25h1v1H17zM15 26h1v1H15zM16 26h1v1H16z"/><path fill="#454b62" d="M11 5h1v1H11zM20 5h1v1H20zM10 7h1v1H10zM21 7h1v1H21zM9 8h1v1H9zM10 8h1v1H10zM21 8h1v1H21zM22 8h1v1H22zM10 9h1v1H10zM21 9h1v1H21zM9 14h1v1H9zM10 14h1v1H10zM21 14h1v1H21zM22 14h1v1H22zM9 15h1v1H9zM22 15h1v1H22zM9 16h1v1H9zM22 16h1v1H22zM9 17h1v1H9zM22 17h1v1H22zM9 18h1v1H9zM22 18h1v1H22zM9 19h1v1H9zM22 19h1v1H22zM9 20h1v1H9zM22 20h1v1H22zM9 21h1v1H9zM22 21h1v1H22z"/><path fill="#bec8d9" d="M12 5h1v1H12zM19 5h1v1H19zM15 8h1v1H15zM16 8h1v1H16zM14 9h1v1H14zM17 9h1v1H17zM6 14h1v1H6zM25 14h1v1H25zM6 17h1v1H6zM25 17h1v1H25zM6 20h1v1H6zM25 20h1v1H25zM6 21h1v1H6zM25 21h1v1H25zM7 22h1v1H7zM24 22h1v1H24zM9 23h1v1H9zM22 23h1v1H22z"/><path fill="#b4bed2" d="M11 7h1v1H11zM20 7h1v1H20zM13 27h1v1H13zM18 27h1v1H18zM14 28h1v1H14zM17 28h1v1H17z"/><path fill="#be9a54" d="M6 8h1v1H6zM25 8h1v1H25zM7 9h1v1H7zM24 9h1v1H24zM12 11h1v1H12zM14 11h1v1H14zM17 11h1v1H17zM19 11h1v1H19zM15 13h1v1H15zM16 13h1v1H16zM14 27h1v1H14zM17 27h1v1H17z"/><path fill="#a2aac0" d="M11 8h1v1H11zM20 8h1v1H20zM9 13h1v1H9zM22 13h1v1H22zM11 24h1v1H11zM12 24h1v1H12zM19 24h1v1H19zM20 24h1v1H20z"/><path fill="#636c86" d="M2 9h1v1H2zM29 9h1v1H29zM2 10h1v1H2zM3 10h1v1H3zM28 10h1v1H28zM29 10h1v1H29zM3 11h1v1H3zM4 11h1v1H4zM27 11h1v1H27zM28 11h1v1H28zM4 12h1v1H4zM5 12h1v1H5zM26 12h1v1H26zM27 12h1v1H27zM5 13h1v1H5zM6 13h1v1H6zM25 13h1v1H25zM26 13h1v1H26zM10 20h1v1H10zM21 20h1v1H21zM6 23h1v1H6zM25 23h1v1H25zM7 27h1v1H7zM24 27h1v1H24zM13 28h1v1H13zM18 28h1v1H18zM14 29h1v1H14zM17 29h1v1H17z"/><path fill="#3a3d4d" d="M8 9h1v1H8zM9 9h1v1H9zM22 9h1v1H22zM23 9h1v1H23zM5 23h1v1H5zM26 23h1v1H26zM5 24h1v1H5zM26 24h1v1H26zM9 25h1v1H9zM22 25h1v1H22zM7 26h1v1H7zM24 26h1v1H24zM10 27h1v1H10zM11 27h1v1H11zM12 27h1v1H12zM19 27h1v1H19zM20 27h1v1H20zM21 27h1v1H21zM9 28h1v1H9zM22 28h1v1H22z"/><path fill="#8b95af" d="M11 9h1v1H11zM20 9h1v1H20zM4 13h1v1H4zM27 13h1v1H27zM1 14h1v1H1zM30 14h1v1H30zM6 15h1v1H6zM25 15h1v1H25zM10 19h1v1H10zM21 19h1v1H21zM13 21h1v1H13zM18 21h1v1H18z"/><path fill="#717b97" d="M2 11h1v1H2zM29 11h1v1H29zM3 12h1v1H3zM28 12h1v1H28zM1 15h1v1H1zM5 15h1v1H5zM26 15h1v1H26zM30 15h1v1H30zM2 18h1v1H2zM3 18h1v1H3zM28 18h1v1H28zM29 18h1v1H29zM3 19h1v1H3zM4 19h1v1H4zM27 19h1v1H27zM28 19h1v1H28zM4 20h1v1H4zM27 20h1v1H27zM6 24h1v1H6zM25 24h1v1H25zM6 25h1v1H6zM25 25h1v1H25zM10 26h1v1H10zM11 26h1v1H11zM20 26h1v1H20zM21 26h1v1H21zM8 28h1v1H8zM23 28h1v1H23z"/><path fill="#a6b0c8" d="M7 12h1v1H7zM24 12h1v1H24zM7 13h1v1H7zM24 13h1v1H24z"/><path fill="#000000" d="M13 13h1v1H13zM14 13h1v1H14zM17 13h1v1H17zM18 13h1v1H18zM15 14h1v1H15zM16 14h1v1H16zM10 15h1v1H10zM11 15h1v1H11zM20 15h1v1H20zM21 15h1v1H21zM10 16h1v1H10zM11 16h1v1H11zM12 16h1v1H12zM13 16h1v1H13zM18 16h1v1H18zM19 16h1v1H19zM20 16h1v1H20zM21 16h1v1H21zM10 17h1v1H10zM13 17h1v1H13zM14 17h1v1H14zM15 17h1v1H15zM16 17h1v1H16zM17 17h1v1H17zM18 17h1v1H18zM21 17h1v1H21zM14 18h1v1H14zM15 18h1v1H15zM16 18h1v1H16zM17 18h1v1H17zM14 19h1v1H14zM15 19h1v1H15zM16 19h1v1H16zM17 19h1v1H17zM14 20h1v1H14zM15 20h1v1H15zM16 20h1v1H16zM17 20h1v1H17zM10 21h1v1H10zM14 21h1v1H14zM15 21h1v1H15zM16 21h1v1H16zM17 21h1v1H17zM21 21h1v1H21zM10 22h1v1H10zM11 22h1v1H11zM14 22h1v1H14zM15 22h1v1H15zM16 22h1v1H16zM17 22h1v1H17zM20 22h1v1H20zM21 22h1v1H21zM11 23h1v1H11zM12 23h1v1H12zM13 23h1v1H13zM18 23h1v1H18zM19 23h1v1H19zM20 23h1v1H20z"/><path fill="#99a5bd" d="M5 14h1v1H5zM26 14h1v1H26zM3 23h1v1H3zM28 23h1v1H28zM3 24h1v1H3zM4 24h1v1H4zM27 24h1v1H27zM28 24h1v1H28zM4 25h1v1H4zM27 25h1v1H27zM12 26h1v1H12zM19 26h1v1H19z"/><path fill="#a9b5cb" d="M7 14h1v1H7zM24 14h1v1H24zM12 15h1v1H12zM19 15h1v1H19zM7 16h1v1H7zM14 16h1v1H14zM17 16h1v1H17zM24 16h1v1H24zM8 17h1v1H8zM23 17h1v1H23zM10 18h1v1H10zM21 18h1v1H21zM15 29h1v1H15zM16 29h1v1H16z"/><path fill="#ffffff" d="M11 17h1v1H11zM12 17h1v1H12zM19 17h1v1H19zM20 17h1v1H20zM11 18h1v1H11zM12 18h1v1H12zM13 18h1v1H13zM18 18h1v1H18zM19 18h1v1H19zM20 18h1v1H20zM11 19h1v1H11zM12 19h1v1H12zM19 19h1v1H19zM20 19h1v1H20zM11 20h1v1H11zM12 20h1v1H12zM19 20h1v1H19zM20 20h1v1H20zM11 21h1v1H11zM12 21h1v1H12zM19 21h1v1H19zM20 21h1v1H20zM12 22h1v1H12zM13 22h1v1H13zM18 22h1v1H18zM19 22h1v1H19z"/><path fill="#090101" d="M13 19h1v1H13zM18 19h1v1H18zM13 20h1v1H13zM18 20h1v1H18z"/><path fill="#a18d6e" d="M5 21h1v1H5zM26 21h1v1H26z"/><path fill="#7e89a3" d="M9 22h1v1H9zM22 22h1v1H22z"/><path fill="#d6dee9" d="M10 23h1v1H10zM21 23h1v1H21zM7 25h1v1H7zM8 25h1v1H8zM23 25h1v1H23zM24 25h1v1H24zM8 26h1v1H8zM9 26h1v1H9zM22 26h1v1H22zM23 26h1v1H23zM8 27h1v1H8zM9 27h1v1H9zM22 27h1v1H22zM23 27h1v1H23zM15 28h1v1H15zM16 28h1v1H16z"/><path fill="#d5d2cf" d="M15 23h1v1H15zM16 23h1v1H16zM14 24h1v1H14zM17 24h1v1H17zM10 25h1v1H10zM13 25h1v1H13zM18 25h1v1H18zM21 25h1v1H21zM14 26h1v1H14zM17 26h1v1H17zM15 27h1v1H15zM16 27h1v1H16z"/></svg>
