<svg xmlns="http://www.w3.org/2000/svg" viewBox="0 0 32 32" shape-rendering="crispEdges"><path fill="#fcfcfa" d="M15 0h1v1H15zM16 0h1v1H16zM14 1h1v1H14zM15 1h1v1H15zM16 1h1v1H16zM12 3h1v1H12zM13 3h1v1H13zM18 3h1v1H18zM19 3h1v1H19zM12 4h1v1H12zM13 4h1v1H13zM18 4h1v1H18zM19 4h1v1H19zM12 6h1v1H12zM19 6h1v1H19zM12 7h1v1H12zM13 7h1v1H13zM18 7h1v1H18zM19 7h1v1H19zM13 8h1v1H13zM14 8h1v1H14zM15 8h1v1H15zM16 8h1v1H16zM17 8h1v1H17zM18 8h1v1H18zM13 9h1v1H13zM14 9h1v1H14zM15 9h1v1H15zM16 9h1v1H16zM17 9h1v1H17zM18 9h1v1H18zM7 10h1v1H7zM14 10h1v1H14zM17 10h1v1H17zM24 10h1v1H24zM13 11h1v1H13zM18 11h1v1H18zM8 12h1v1H8zM9 12h1v1H9zM10 12h1v1H10zM11 12h1v1H11zM12 12h1v1H12zM19 12h1v1H19zM20 12h1v1H20zM21 12h1v1H21zM22 12h1v1H22zM23 12h1v1H23zM7 13h1v1H7zM24 13h1v1H24zM11 14h1v1H11zM12 14h1v1H12zM13 14h1v1H13zM14 14h1v1H14zM17 14h1v1H17zM18 14h1v1H18zM19 14h1v1H19zM20 14h1v1H20zM9 15h1v1H9zM22 15h1v1H22zM7 16h1v1H7zM24 16h1v1H24zM6 17h1v1H6zM7 17h1v1H7zM8 17h1v1H8zM23 17h1v1H23zM24 17h1v1H24zM25 17h1v1H25zM6 18h1v1H6zM7 18h1v1H7zM8 18h1v1H8zM23 18h1v1H23zM24 18h1v1H24zM25 18h1v1H25zM6 19h1v1H6zM7 19h1v1H7zM8 19h1v1H8zM23 19h1v1H23zM24 19h1v1H24zM25 19h1v1H25zM8 20h1v1H8zM23 20h1v1H23zM8 21h1v1H8zM23 21h1v1H23zM9 22h1v1H9zM22 22h1v1H22zM10 23h1v1H10zM21 23h1v1H21zM12 27h1v1H12zM15 28h1v1H15zM16 28h1v1H16z"/><path fill="#92dcdc" d="M17 1h1v1H17zM16 2h1v1H16zM17 2h1v1H17zM16 3h1v1H16zM17 3h1v1H17zM16 4h1v1H16zM17 4h1v1H17zM13 5h1v1H13zM14 5h1v1H14zM15 5h1v1H15zM16 5h1v1H16zM17 5h1v1H17zM18 5h1v1H18zM13 6h1v1H13zM18 6h1v1H18zM8 23h1v1H8zM9 23h1v1H9zM22 23h1v1H22zM23 23h1v1H23zM9 24h1v1H9zM10 24h1v1H10zM21 24h1v1H21zM22 24h1v1H22z"/><path fill="#a9ded7" d="M8 2h1v1H8zM23 2h1v1H23zM8 3h1v1H8zM23 3h1v1H23zM6 6h1v1H6zM25 6h1v1H25zM6 7h1v1H6zM25 7h1v1H25z"/><path fill="#c4f2eb" d="M14 2h1v1H14zM15 2h1v1H15zM14 3h1v1H14zM15 3h1v1H15zM14 4h1v1H14zM15 4h1v1H15zM14 6h1v1H14zM17 6h1v1H17zM14 11h1v1H14zM17 11h1v1H17zM15 12h1v1H15zM16 12h1v1H16zM9 13h1v1H9zM10 13h1v1H10zM11 13h1v1H11zM12 13h1v1H12zM19 13h1v1H19zM20 13h1v1H20zM21 13h1v1H21zM22 13h1v1H22zM4 14h1v1H4zM8 14h1v1H8zM9 14h1v1H9zM22 14h1v1H22zM23 14h1v1H23zM27 14h1v1H27zM4 15h1v1H4zM5 15h1v1H5zM8 15h1v1H8zM23 15h1v1H23zM26 15h1v1H26zM27 15h1v1H27zM5 16h1v1H5zM8 16h1v1H8zM23 16h1v1H23zM26 16h1v1H26zM10 18h1v1H10zM21 18h1v1H21zM7 20h1v1H7zM24 20h1v1H24zM8 22h1v1H8zM23 22h1v1H23zM8 25h1v1H8zM9 25h1v1H9zM10 25h1v1H10zM21 25h1v1H21zM22 25h1v1H22zM23 25h1v1H23zM6 26h1v1H6zM9 26h1v1H9zM10 26h1v1H10zM21 26h1v1H21zM22 26h1v1H22zM25 26h1v1H25zM6 27h1v1H6zM7 27h1v1H7zM24 27h1v1H24zM25 27h1v1H25zM7 28h1v1H7zM8 28h1v1H8zM23 28h1v1H23zM24 28h1v1H24z"/><path fill="#d4f2ec" d="M9 3h1v1H9zM22 3h1v1H22zM9 4h1v1H9zM22 4h1v1H22zM7 7h1v1H7zM24 7h1v1H24zM7 8h1v1H7zM10 8h1v1H10zM21 8h1v1H21zM24 8h1v1H24zM9 9h1v1H9zM11 9h1v1H11zM20 9h1v1H20zM22 9h1v1H22zM10 10h1v1H10zM15 10h1v1H15zM16 10h1v1H16zM21 10h1v1H21zM4 17h1v1H4zM27 17h1v1H27zM5 18h1v1H5zM26 18h1v1H26z"/><path fill="#358e99" d="M8 4h1v1H8zM23 4h1v1H23zM9 6h1v1H9zM22 6h1v1H22zM14 7h1v1H14zM17 7h1v1H17zM6 8h1v1H6zM25 8h1v1H25zM10 9h1v1H10zM21 9h1v1H21zM26 10h1v1H26zM9 11h1v1H9zM22 11h1v1H22zM26 11h1v1H26zM14 12h1v1H14zM17 12h1v1H17zM6 14h1v1H6zM7 14h1v1H7zM24 14h1v1H24zM25 14h1v1H25zM3 17h1v1H3zM28 17h1v1H28zM4 19h1v1H4zM10 19h1v1H10zM21 19h1v1H21zM27 19h1v1H27zM5 20h1v1H5zM26 20h1v1H26zM13 21h1v1H13zM18 21h1v1H18zM6 24h1v1H6zM7 24h1v1H7zM24 24h1v1H24zM25 24h1v1H25zM7 25h1v1H7zM24 25h1v1H24zM8 26h1v1H8zM23 26h1v1H23zM9 28h1v1H9zM10 28h1v1H10zM21 28h1v1H21zM22 28h1v1H22zM10 29h1v1H10zM13 29h1v1H13z"/><path fill="#6cbdbc" d="M10 4h1v1H10zM21 4h1v1H21zM10 5h1v1H10zM21 5h1v1H21zM7 6h1v1H7zM10 6h1v1H10zM11 6h1v1H11zM20 6h1v1H20zM21 6h1v1H21zM24 6h1v1H24zM11 7h1v1H11zM20 7h1v1H20zM8 8h1v1H8zM23 8h1v1H23z"/><path fill="#52a9aa" d="M9 5h1v1H9zM22 5h1v1H22zM10 7h1v1H10zM21 7h1v1H21zM11 8h1v1H11zM20 8h1v1H20zM7 9h1v1H7zM8 9h1v1H8zM23 9h1v1H23zM24 9h1v1H24zM8 10h1v1H8zM9 10h1v1H9zM11 10h1v1H11zM20 10h1v1H20zM22 10h1v1H22zM23 10h1v1H23zM7 22h1v1H7zM24 22h1v1H24z"/><path fill="#489d9f" d="M12 5h1v1H12zM19 5h1v1H19zM3 14h1v1H3zM28 14h1v1H28zM3 15h1v1H3zM28 15h1v1H28zM3 16h1v1H3zM28 16h1v1H28zM4 18h1v1H4zM27 18h1v1H27zM5 19h1v1H5zM26 19h1v1H26zM7 23h1v1H7zM24 23h1v1H24z"/><path fill="#79d0d7" d="M15 6h1v1H15zM16 6h1v1H16zM8 24h1v1H8zM23 24h1v1H23zM11 25h1v1H11zM12 25h1v1H12zM13 25h1v1H13zM14 25h1v1H14zM17 25h1v1H17zM18 25h1v1H18zM19 25h1v1H19zM20 25h1v1H20zM5 26h1v1H5zM11 26h1v1H11zM12 26h1v1H12zM13 26h1v1H13zM18 26h1v1H18zM19 26h1v1H19zM20 26h1v1H20zM26 26h1v1H26zM5 27h1v1H5zM26 27h1v1H26zM6 29h1v1H6zM7 29h1v1H7zM8 29h1v1H8zM23 29h1v1H23zM24 29h1v1H24zM25 29h1v1H25z"/><path fill="#cfcec0" d="M15 7h1v1H15zM16 7h1v1H16zM6 12h1v1H6zM7 12h1v1H7zM24 12h1v1H24zM25 12h1v1H25zM11 24h1v1H11zM20 24h1v1H20z"/><path fill="#efefe5" d="M12 8h1v1H12zM19 8h1v1H19zM13 27h1v1H13zM14 27h1v1H14zM17 27h1v1H17zM13 28h1v1H13zM14 28h1v1H14zM17 28h1v1H17z"/><path fill="#286d73" d="M6 9h1v1H6zM25 9h1v1H25zM12 10h1v1H12zM19 10h1v1H19zM10 11h1v1H10zM11 11h1v1H11zM20 11h1v1H20zM21 11h1v1H21zM5 12h1v1H5zM26 12h1v1H26zM6 15h1v1H6zM25 15h1v1H25zM10 20h1v1H10zM21 20h1v1H21zM6 22h1v1H6zM25 22h1v1H25zM6 23h1v1H6zM25 23h1v1H25zM6 25h1v1H6zM25 25h1v1H25zM7 26h1v1H7zM24 26h1v1H24zM8 27h1v1H8zM9 27h1v1H9zM22 27h1v1H22zM23 27h1v1H23zM9 29h1v1H9zM22 29h1v1H22zM8 30h1v1H8zM9 30h1v1H9zM22 30h1v1H22zM23 30h1v1H23z"/><path fill="#c4bfa5" d="M12 9h1v1H12zM19 9h1v1H19zM5 10h1v1H5zM5 11h1v1H5zM6 11h1v1H6zM8 11h1v1H8zM12 11h1v1H12zM19 11h1v1H19zM23 11h1v1H23zM25 11h1v1H25zM13 12h1v1H13zM18 12h1v1H18zM6 13h1v1H6zM25 13h1v1H25zM10 14h1v1H10zM15 14h1v1H15zM16 14h1v1H16zM21 14h1v1H21zM7 15h1v1H7zM24 15h1v1H24zM6 16h1v1H6zM25 16h1v1H25zM6 20h1v1H6zM25 20h1v1H25zM1 22h1v1H1zM4 22h1v1H4zM27 22h1v1H27zM30 22h1v1H30zM15 26h1v1H15zM16 26h1v1H16zM18 27h1v1H18zM19 27h1v1H19zM18 28h1v1H18z"/><path fill="#b1ad96" d="M13 10h1v1H13zM18 10h1v1H18zM14 13h1v1H14zM17 13h1v1H17zM4 24h1v1H4zM5 24h1v1H5zM26 24h1v1H26zM27 24h1v1H27zM1 25h1v1H1zM2 25h1v1H2zM29 25h1v1H29zM30 25h1v1H30zM2 26h1v1H2zM4 26h1v1H4zM27 26h1v1H27zM29 26h1v1H29z"/><path fill="#edfaf9" d="M15 11h1v1H15zM16 11h1v1H16zM4 16h1v1H4zM27 16h1v1H27zM5 17h1v1H5zM26 17h1v1H26z"/><path fill="#aee8e3" d="M8 13h1v1H8zM13 13h1v1H13zM18 13h1v1H18zM23 13h1v1H23zM7 21h1v1H7zM24 21h1v1H24z"/><path fill="#dbd6bd" d="M15 13h1v1H15zM16 13h1v1H16zM2 21h1v1H2zM29 21h1v1H29zM2 22h1v1H2zM3 22h1v1H3zM28 22h1v1H28zM29 22h1v1H29zM3 23h1v1H3zM4 23h1v1H4zM27 23h1v1H27zM28 23h1v1H28zM3 24h1v1H3zM28 24h1v1H28zM3 25h1v1H3zM28 25h1v1H28zM3 26h1v1H3zM28 26h1v1H28zM3 27h1v1H3zM4 27h1v1H4zM15 27h1v1H15zM16 27h1v1H16zM27 27h1v1H27zM28 27h1v1H28zM4 28h1v1H4zM5 28h1v1H5zM6 28h1v1H6zM25 28h1v1H25zM26 28h1v1H26zM27 28h1v1H27zM14 29h1v1H14zM15 29h1v1H15zM16 29h1v1H16zM17 29h1v1H17zM13 30h1v1H13zM14 30h1v1H14zM17 30h1v1H17zM18 30h1v1H18z"/><path fill="#000000" d="M10 15h1v1H10zM11 15h1v1H11zM12 15h1v1H12zM13 15h1v1H13zM14 15h1v1H14zM15 15h1v1H15zM16 15h1v1H16zM17 15h1v1H17zM18 15h1v1H18zM19 15h1v1H19zM20 15h1v1H20zM21 15h1v1H21zM9 16h1v1H9zM10 16h1v1H10zM11 16h1v1H11zM12 16h1v1H12zM13 16h1v1H13zM14 16h1v1H14zM15 16h1v1H15zM16 16h1v1H16zM17 16h1v1H17zM18 16h1v1H18zM19 16h1v1H19zM20 16h1v1H20zM21 16h1v1H21zM22 16h1v1H22zM9 17h1v1H9zM10 17h1v1H10zM13 17h1v1H13zM14 17h1v1H14zM15 17h1v1H15zM16 17h1v1H16zM17 17h1v1H17zM18 17h1v1H18zM21 17h1v1H21zM22 17h1v1H22zM9 18h1v1H9zM14 18h1v1H14zM15 18h1v1H15zM16 18h1v1H16zM17 18h1v1H17zM22 18h1v1H22zM9 19h1v1H9zM14 19h1v1H14zM15 19h1v1H15zM16 19h1v1H16zM17 19h1v1H17zM22 19h1v1H22zM9 20h1v1H9zM14 20h1v1H14zM15 20h1v1H15zM16 20h1v1H16zM17 20h1v1H17zM22 20h1v1H22zM9 21h1v1H9zM10 21h1v1H10zM14 21h1v1H14zM15 21h1v1H15zM16 21h1v1H16zM17 21h1v1H17zM21 21h1v1H21zM22 21h1v1H22zM10 22h1v1H10zM11 22h1v1H11zM14 22h1v1H14zM15 22h1v1H15zM16 22h1v1H16zM17 22h1v1H17zM20 22h1v1H20zM21 22h1v1H21zM11 23h1v1H11zM12 23h1v1H12zM13 23h1v1H13zM14 23h1v1H14zM15 23h1v1H15zM16 23h1v1H16zM17 23h1v1H17zM18 23h1v1H18zM19 23h1v1H19zM20 23h1v1H20z"/><path fill="#ffffff" d="M11 17h1v1H11zM12 17h1v1H12zM19 17h1v1H19zM20 17h1v1H20zM11 18h1v1H11zM12 18h1v1H12zM13 18h1v1H13zM18 18h1v1H18zM19 18h1v1H19zM20 18h1v1H20zM11 19h1v1H11zM12 19h1v1H12zM19 19h1v1H19zM20 19h1v1H20zM11 20h1v1H11zM12 20h1v1H12zM19 20h1v1H19zM20 20h1v1H20zM11 21h1v1H11zM12 21h1v1H12zM19 21h1v1H19zM20 21h1v1H20zM12 22h1v1H12zM13 22h1v1H13zM18 22h1v1H18zM19 22h1v1H19z"/><path fill="#090101" d="M13 19h1v1H13zM18 19h1v1H18zM13 20h1v1H13zM18 20h1v1H18z"/><path fill="#1f5c60" d="M6 21h1v1H6zM25 21h1v1H25z"/><path fill="#ccddd4" d="M12 24h1v1H12zM13 24h1v1H13zM14 24h1v1H14zM15 24h1v1H15zM16 24h1v1H16zM17 24h1v1H17zM18 24h1v1H18zM19 24h1v1H19z"/><path fill="#2d7c84" d="M15 25h1v1H15zM16 25h1v1H16zM14 26h1v1H14zM17 26h1v1H17zM10 27h1v1H10zM11 27h1v1H11zM20 27h1v1H20zM21 27h1v1H21zM11 28h1v1H11zM12 28h1v1H12zM19 28h1v1H19zM20 28h1v1H20z"/><path fill="#234d4d" d="M11 29h1v1H11zM12 29h1v1H12zM18 29h1v1H18zM19 29h1v1H19zM20 29h1v1H20zM21 29h1v1H21zM10 30h1v1H10zM21 30h1v1H21z"/><path fill="#9a9a8d" d="M15 30h1v1H15zM16 30h1v1H16z"/></svg>
