<svg xmlns="http://www.w3.org/2000/svg" viewBox="0 0 32 32" shape-rendering="crispEdges"><path fill="#fffffd" d="M15 2h1v1H15zM16 2h1v1H16zM14 3h1v1H14zM15 3h1v1H15zM16 3h1v1H16zM17 3h1v1H17zM13 4h1v1H13zM14 4h1v1H14zM15 4h1v1H15zM16 4h1v1H16zM17 4h1v1H17zM18 4h1v1H18zM12 5h1v1H12zM13 5h1v1H13zM14 5h1v1H14zM17 5h1v1H17zM18 5h1v1H18zM19 5h1v1H19zM11 6h1v1H11zM12 6h1v1H12zM13 6h1v1H13zM18 6h1v1H18zM19 6h1v1H19zM20 6h1v1H20zM10 7h1v1H10zM11 7h1v1H11zM12 7h1v1H12zM19 7h1v1H19zM20 7h1v1H20zM21 7h1v1H21zM9 8h1v1H9zM22 8h1v1H22zM9 9h1v1H9zM10 9h1v1H10zM15 9h1v1H15zM16 9h1v1H16zM21 9h1v1H21zM22 9h1v1H22zM9 10h1v1H9zM14 10h1v1H14zM17 10h1v1H17zM22 10h1v1H22zM9 11h1v1H9zM13 11h1v1H13zM18 11h1v1H18zM22 11h1v1H22zM10 12h1v1H10zM11 12h1v1H11zM12 12h1v1H12zM13 12h1v1H13zM18 12h1v1H18zM19 12h1v1H19zM20 12h1v1H20zM21 12h1v1H21zM9 13h1v1H9zM12 13h1v1H12zM13 13h1v1H13zM14 13h1v1H14zM17 13h1v1H17zM18 13h1v1H18zM19 13h1v1H19zM22 13h1v1H22zM9 14h1v1H9zM10 14h1v1H10zM15 14h1v1H15zM16 14h1v1H16zM21 14h1v1H21zM22 14h1v1H22zM8 15h1v1H8zM9 15h1v1H9zM22 15h1v1H22zM23 15h1v1H23zM8 17h1v1H8zM23 17h1v1H23zM8 18h1v1H8zM23 18h1v1H23zM8 20h1v1H8zM23 20h1v1H23zM8 21h1v1H8zM23 21h1v1H23zM9 22h1v1H9zM22 22h1v1H22zM7 23h1v1H7zM8 23h1v1H8zM9 23h1v1H9zM10 23h1v1H10zM21 23h1v1H21zM22 23h1v1H22zM23 23h1v1H23zM24 23h1v1H24zM7 24h1v1H7zM8 24h1v1H8zM9 24h1v1H9zM12 24h1v1H12zM13 24h1v1H13zM18 24h1v1H18zM19 24h1v1H19zM22 24h1v1H22zM23 24h1v1H23zM24 24h1v1H24zM7 25h1v1H7zM8 25h1v1H8zM10 25h1v1H10zM11 25h1v1H11zM12 25h1v1H12zM19 25h1v1H19zM20 25h1v1H20zM21 25h1v1H21zM23 25h1v1H23zM24 25h1v1H24zM7 26h1v1H7zM10 26h1v1H10zM11 26h1v1H11zM13 26h1v1H13zM14 26h1v1H14zM17 26h1v1H17zM18 26h1v1H18zM20 26h1v1H20zM21 26h1v1H21zM24 26h1v1H24zM10 27h1v1H10zM14 27h1v1H14zM15 27h1v1H15zM16 27h1v1H16zM17 27h1v1H17zM21 27h1v1H21zM14 28h1v1H14zM15 28h1v1H15zM16 28h1v1H16zM17 28h1v1H17zM14 29h1v1H14zM17 29h1v1H17z"/><path fill="#494b6a" d="M15 5h1v1H15zM16 5h1v1H16zM4 20h1v1H4zM27 20h1v1H27z"/><path fill="#7f7ea3" d="M14 6h1v1H14zM17 6h1v1H17zM8 9h1v1H8zM23 9h1v1H23zM12 11h1v1H12zM19 11h1v1H19zM10 20h1v1H10zM21 20h1v1H21z"/><path fill="#25253d" d="M15 6h1v1H15zM16 6h1v1H16zM14 7h1v1H14zM15 7h1v1H15zM16 7h1v1H16zM17 7h1v1H17zM12 9h1v1H12zM19 9h1v1H19zM5 21h1v1H5zM26 21h1v1H26zM4 22h1v1H4zM27 22h1v1H27zM4 25h1v1H4zM27 25h1v1H27z"/><path fill="#8387ac" d="M13 7h1v1H13zM18 7h1v1H18zM8 10h1v1H8zM23 10h1v1H23zM8 11h1v1H8zM23 11h1v1H23zM4 17h1v1H4zM27 17h1v1H27zM7 18h1v1H7zM24 18h1v1H24z"/><path fill="#9ef5fc" d="M10 8h1v1H10zM11 8h1v1H11zM20 8h1v1H20zM21 8h1v1H21zM7 14h1v1H7zM8 14h1v1H8zM23 14h1v1H23zM24 14h1v1H24zM7 22h1v1H7zM8 22h1v1H8zM23 22h1v1H23zM24 22h1v1H24z"/><path fill="#9f95ca" d="M12 8h1v1H12zM19 8h1v1H19zM11 9h1v1H11zM20 9h1v1H20zM10 10h1v1H10zM21 10h1v1H21zM10 11h1v1H10zM11 11h1v1H11zM20 11h1v1H20zM21 11h1v1H21zM3 13h1v1H3zM28 13h1v1H28zM3 18h1v1H3zM4 18h1v1H4zM5 18h1v1H5zM26 18h1v1H26zM27 18h1v1H27zM28 18h1v1H28zM5 19h1v1H5zM26 19h1v1H26z"/><path fill="#1f1d33" d="M13 8h1v1H13zM14 8h1v1H14zM17 8h1v1H17zM18 8h1v1H18zM13 9h1v1H13zM18 9h1v1H18zM11 10h1v1H11zM12 10h1v1H12zM19 10h1v1H19zM20 10h1v1H20zM6 26h1v1H6zM25 26h1v1H25z"/><path fill="#372f5b" d="M15 8h1v1H15zM16 8h1v1H16zM14 9h1v1H14zM17 9h1v1H17zM13 10h1v1H13zM18 10h1v1H18z"/><path fill="#edecff" d="M4 9h1v1H4zM27 9h1v1H27zM7 10h1v1H7zM24 10h1v1H24zM7 11h1v1H7zM24 11h1v1H24zM7 12h1v1H7zM8 12h1v1H8zM9 12h1v1H9zM22 12h1v1H22zM23 12h1v1H23zM24 12h1v1H24zM6 13h1v1H6zM7 13h1v1H7zM8 13h1v1H8zM23 13h1v1H23zM24 13h1v1H24zM25 13h1v1H25zM6 14h1v1H6zM25 14h1v1H25zM6 15h1v1H6zM7 15h1v1H7zM24 15h1v1H24zM25 15h1v1H25zM6 16h1v1H6zM7 16h1v1H7zM24 16h1v1H24zM25 16h1v1H25zM6 17h1v1H6zM7 17h1v1H7zM24 17h1v1H24zM25 17h1v1H25zM5 23h1v1H5zM6 23h1v1H6zM25 23h1v1H25zM26 23h1v1H26zM4 24h1v1H4zM5 24h1v1H5zM6 24h1v1H6zM25 24h1v1H25zM26 24h1v1H26zM27 24h1v1H27zM6 25h1v1H6zM25 25h1v1H25z"/><path fill="#e493ed" d="M5 9h1v1H5zM26 9h1v1H26zM4 10h1v1H4zM27 10h1v1H27zM4 11h1v1H4zM27 11h1v1H27zM10 13h1v1H10zM11 13h1v1H11zM20 13h1v1H20zM21 13h1v1H21zM8 16h1v1H8zM9 16h1v1H9zM22 16h1v1H22zM23 16h1v1H23zM10 18h1v1H10zM21 18h1v1H21zM10 24h1v1H10zM11 24h1v1H11zM20 24h1v1H20zM21 24h1v1H21z"/><path fill="#dec1f2" d="M5 10h1v1H5zM26 10h1v1H26zM5 11h1v1H5zM26 11h1v1H26zM3 12h1v1H3zM4 12h1v1H4zM27 12h1v1H27zM28 12h1v1H28zM10 19h1v1H10zM21 19h1v1H21zM13 21h1v1H13zM18 21h1v1H18z"/><path fill="#6e6c90" d="M15 10h1v1H15zM16 10h1v1H16zM14 11h1v1H14zM17 11h1v1H17zM2 18h1v1H2zM29 18h1v1H29z"/><path fill="#c6ade8" d="M3 11h1v1H3zM28 11h1v1H28zM2 12h1v1H2zM29 12h1v1H29zM2 13h1v1H2zM29 13h1v1H29zM3 14h1v1H3zM28 14h1v1H28z"/><path fill="#dee9ee" d="M15 11h1v1H15z"/><path fill="#4e526e" d="M16 11h1v1H16zM15 12h1v1H15zM16 12h1v1H16zM12 14h1v1H12zM13 14h1v1H13zM14 14h1v1H14zM17 14h1v1H17zM18 14h1v1H18zM19 14h1v1H19zM5 22h1v1H5zM26 22h1v1H26zM4 23h1v1H4zM27 23h1v1H27zM12 27h1v1H12zM19 27h1v1H19zM12 28h1v1H12zM19 28h1v1H19z"/><path fill="#5c6582" d="M14 12h1v1H14zM17 12h1v1H17zM15 13h1v1H15zM16 13h1v1H16zM11 14h1v1H11zM20 14h1v1H20zM3 19h1v1H3zM4 19h1v1H4zM27 19h1v1H27zM28 19h1v1H28z"/><path fill="#57587b" d="M4 13h1v1H4zM5 13h1v1H5zM26 13h1v1H26zM27 13h1v1H27zM5 14h1v1H5zM26 14h1v1H26zM5 17h1v1H5zM26 17h1v1H26zM6 19h1v1H6zM25 19h1v1H25zM10 28h1v1H10zM21 28h1v1H21zM11 29h1v1H11zM20 29h1v1H20z"/><path fill="#6d7997" d="M4 14h1v1H4zM27 14h1v1H27zM5 15h1v1H5zM26 15h1v1H26zM5 16h1v1H5zM26 16h1v1H26z"/><path fill="#656887" d="M4 15h1v1H4zM27 15h1v1H27zM4 16h1v1H4zM27 16h1v1H27zM3 17h1v1H3zM28 17h1v1H28z"/><path fill="#4e5977" d="M10 15h1v1H10zM21 15h1v1H21zM5 20h1v1H5zM26 20h1v1H26z"/><path fill="#121212" d="M11 15h1v1H11zM12 15h1v1H12zM13 15h1v1H13zM14 15h1v1H14zM15 15h1v1H15zM16 15h1v1H16zM17 15h1v1H17zM18 15h1v1H18zM19 15h1v1H19zM20 15h1v1H20zM10 16h1v1H10zM11 16h1v1H11zM12 16h1v1H12zM13 16h1v1H13zM14 16h1v1H14zM15 16h1v1H15zM16 16h1v1H16zM17 16h1v1H17zM18 16h1v1H18zM19 16h1v1H19zM20 16h1v1H20zM21 16h1v1H21zM9 17h1v1H9zM10 17h1v1H10zM13 17h1v1H13zM14 17h1v1H14zM15 17h1v1H15zM16 17h1v1H16zM17 17h1v1H17zM18 17h1v1H18zM21 17h1v1H21zM22 17h1v1H22zM9 18h1v1H9zM14 18h1v1H14zM15 18h1v1H15zM16 18h1v1H16zM17 18h1v1H17zM22 18h1v1H22zM9 19h1v1H9zM14 19h1v1H14zM15 19h1v1H15zM16 19h1v1H16zM17 19h1v1H17zM22 19h1v1H22zM9 20h1v1H9zM14 20h1v1H14zM15 20h1v1H15zM16 20h1v1H16zM17 20h1v1H17zM22 20h1v1H22zM9 21h1v1H9zM10 21h1v1H10zM14 21h1v1H14zM15 21h1v1H15zM16 21h1v1H16zM17 21h1v1H17zM21 21h1v1H21zM22 21h1v1H22zM10 22h1v1H10zM11 22h1v1H11zM14 22h1v1H14zM15 22h1v1H15zM16 22h1v1H16zM17 22h1v1H17zM20 22h1v1H20zM21 22h1v1H21zM11 23h1v1H11zM12 23h1v1H12zM13 23h1v1H13zM14 23h1v1H14zM15 23h1v1H15zM16 23h1v1H16zM17 23h1v1H17zM18 23h1v1H18zM19 23h1v1H19zM20 23h1v1H20zM14 24h1v1H14zM15 24h1v1H15zM16 24h1v1H16zM17 24h1v1H17z"/><path fill="#ffffff" d="M11 17h1v1H11zM12 17h1v1H12zM19 17h1v1H19zM20 17h1v1H20zM11 18h1v1H11zM12 18h1v1H12zM13 18h1v1H13zM18 18h1v1H18zM19 18h1v1H19zM20 18h1v1H20zM11 19h1v1H11zM12 19h1v1H12zM19 19h1v1H19zM20 19h1v1H20zM11 20h1v1H11zM12 20h1v1H12zM19 20h1v1H19zM20 20h1v1H20zM11 21h1v1H11zM12 21h1v1H12zM19 21h1v1H19zM20 21h1v1H20zM12 22h1v1H12zM13 22h1v1H13zM18 22h1v1H18zM19 22h1v1H19z"/><path fill="#3a3758" d="M6 18h1v1H6zM25 18h1v1H25z"/><path fill="#a3a8cd" d="M7 19h1v1H7zM24 19h1v1H24zM15 26h1v1H15zM16 26h1v1H16z"/><path fill="#ced5e6" d="M8 19h1v1H8zM23 19h1v1H23zM7 20h1v1H7zM24 20h1v1H24zM7 21h1v1H7zM24 21h1v1H24z"/><path fill="#1b0303" d="M13 19h1v1H13zM18 19h1v1H18zM13 20h1v1H13zM18 20h1v1H18z"/><path fill="#39405a" d="M6 20h1v1H6zM25 20h1v1H25zM9 25h1v1H9zM22 25h1v1H22zM8 26h1v1H8zM12 26h1v1H12zM19 26h1v1H19zM23 26h1v1H23zM13 27h1v1H13zM18 27h1v1H18z"/><path fill="#312f4a" d="M4 21h1v1H4zM27 21h1v1H27zM3 22h1v1H3zM28 22h1v1H28zM2 23h1v1H2zM29 23h1v1H29zM5 25h1v1H5zM26 25h1v1H26z"/><path fill="#ecebfd" d="M6 21h1v1H6zM25 21h1v1H25zM6 22h1v1H6zM25 22h1v1H25z"/><path fill="#292a44" d="M3 23h1v1H3zM28 23h1v1H28zM9 26h1v1H9zM22 26h1v1H22zM9 27h1v1H9zM11 27h1v1H11zM20 27h1v1H20zM22 27h1v1H22zM11 28h1v1H11zM20 28h1v1H20z"/><path fill="#dad9ef" d="M13 25h1v1H13zM18 25h1v1H18z"/><path fill="#cfc8ec" d="M14 25h1v1H14zM17 25h1v1H17z"/><path fill="#f4f6f8" d="M15 25h1v1H15zM16 25h1v1H16z"/><path fill="#464367" d="M8 27h1v1H8zM23 27h1v1H23z"/></svg>
