<svg xmlns="http://www.w3.org/2000/svg" viewBox="0 0 32 32" shape-rendering="crispEdges"><path fill="#c2914e" d="M7 5h1v1H7zM24 5h1v1H24zM24 14h1v1H24zM6 24h1v1H6zM25 24h1v1H25z"/><path fill="#efd297" d="M8 5h1v1H8zM9 5h1v1H9zM10 5h1v1H10zM11 5h1v1H11zM12 5h1v1H12zM13 5h1v1H13zM14 5h1v1H14zM15 5h1v1H15zM16 5h1v1H16zM17 5h1v1H17zM18 5h1v1H18zM19 5h1v1H19zM20 5h1v1H20zM21 5h1v1H21zM22 5h1v1H22zM23 5h1v1H23zM6 6h1v1H6zM7 6h1v1H7zM8 6h1v1H8zM9 6h1v1H9zM10 6h1v1H10zM11 6h1v1H11zM12 6h1v1H12zM13 6h1v1H13zM14 6h1v1H14zM15 6h1v1H15zM16 6h1v1H16zM17 6h1v1H17zM18 6h1v1H18zM19 6h1v1H19zM20 6h1v1H20zM21 6h1v1H21zM22 6h1v1H22zM23 6h1v1H23zM24 6h1v1H24zM25 6h1v1H25zM9 7h1v1H9zM10 7h1v1H10zM11 7h1v1H11zM12 7h1v1H12zM13 7h1v1H13zM14 7h1v1H14zM15 7h1v1H15zM16 7h1v1H16zM17 7h1v1H17zM18 7h1v1H18zM19 7h1v1H19zM20 7h1v1H20zM21 7h1v1H21zM22 7h1v1H22zM9 10h1v1H9zM10 10h1v1H10zM21 10h1v1H21zM22 10h1v1H22zM10 11h1v1H10zM13 11h1v1H13zM14 11h1v1H14zM15 11h1v1H15zM16 11h1v1H16zM17 11h1v1H17zM18 11h1v1H18zM21 11h1v1H21zM10 12h1v1H10zM11 12h1v1H11zM12 12h1v1H12zM13 12h1v1H13zM18 12h1v1H18zM19 12h1v1H19zM20 12h1v1H20zM21 12h1v1H21zM8 13h1v1H8zM9 13h1v1H9zM10 13h1v1H10zM21 13h1v1H21zM22 13h1v1H22zM23 13h1v1H23zM8 14h1v1H8zM22 14h1v1H22zM7 15h1v1H7zM23 15h1v1H23zM7 25h1v1H7zM24 25h1v1H24zM7 26h1v1H7zM8 26h1v1H8zM9 26h1v1H9zM10 26h1v1H10zM11 26h1v1H11zM12 26h1v1H12zM13 26h1v1H13zM14 26h1v1H14zM15 26h1v1H15zM16 26h1v1H16zM17 26h1v1H17zM18 26h1v1H18zM19 26h1v1H19zM20 26h1v1H20zM21 26h1v1H21zM22 26h1v1H22zM23 26h1v1H23zM24 26h1v1H24zM10 27h1v1H10zM11 27h1v1H11zM12 27h1v1H12zM13 27h1v1H13zM14 27h1v1H14zM15 27h1v1H15zM16 27h1v1H16zM17 27h1v1H17zM18 27h1v1H18zM19 27h1v1H19zM20 27h1v1H20zM21 27h1v1H21z"/><path fill="#faeac8" d="M6 7h1v1H6zM7 7h1v1H7zM8 7h1v1H8zM23 7h1v1H23zM24 7h1v1H24zM25 7h1v1H25zM7 8h1v1H7zM8 8h1v1H8zM9 8h1v1H9zM10 8h1v1H10zM11 8h1v1H11zM12 8h1v1H12zM13 8h1v1H13zM14 8h1v1H14zM15 8h1v1H15zM16 8h1v1H16zM17 8h1v1H17zM18 8h1v1H18zM19 8h1v1H19zM20 8h1v1H20zM21 8h1v1H21zM22 8h1v1H22zM23 8h1v1H23zM24 8h1v1H24zM9 9h1v1H9zM10 9h1v1H10zM11 9h1v1H11zM12 9h1v1H12zM13 9h1v1H13zM14 9h1v1H14zM15 9h1v1H15zM16 9h1v1H16zM17 9h1v1H17zM18 9h1v1H18zM19 9h1v1H19zM20 9h1v1H20zM21 9h1v1H21zM22 9h1v1H22zM11 10h1v1H11zM12 10h1v1H12zM13 10h1v1H13zM14 10h1v1H14zM15 10h1v1H15zM16 10h1v1H16zM17 10h1v1H17zM18 10h1v1H18zM19 10h1v1H19zM20 10h1v1H20zM8 11h1v1H8zM9 11h1v1H9zM11 11h1v1H11zM12 11h1v1H12zM19 11h1v1H19zM20 11h1v1H20zM22 11h1v1H22zM23 11h1v1H23zM8 12h1v1H8zM9 12h1v1H9zM22 12h1v1H22zM23 12h1v1H23zM6 26h1v1H6zM25 26h1v1H25zM7 27h1v1H7zM8 27h1v1H8zM9 27h1v1H9zM22 27h1v1H22zM23 27h1v1H23zM24 27h1v1H24zM8 28h1v1H8zM9 28h1v1H9zM10 28h1v1H10zM11 28h1v1H11zM12 28h1v1H12zM13 28h1v1H13zM14 28h1v1H14zM15 28h1v1H15zM16 28h1v1H16zM17 28h1v1H17zM18 28h1v1H18zM19 28h1v1H19zM20 28h1v1H20zM21 28h1v1H21zM22 28h1v1H22zM23 28h1v1H23z"/><path fill="#622e24" d="M5 8h1v1H5zM6 8h1v1H6zM25 8h1v1H25zM26 8h1v1H26zM4 9h1v1H4zM7 9h1v1H7zM24 9h1v1H24zM27 9h1v1H27zM3 10h1v1H3zM28 10h1v1H28zM2 11h1v1H2zM4 11h1v1H4zM27 11h1v1H27zM29 11h1v1H29zM2 12h1v1H2zM4 12h1v1H4zM27 12h1v1H27zM29 12h1v1H29zM3 13h1v1H3zM28 13h1v1H28zM4 14h1v1H4zM7 14h1v1H7zM23 14h1v1H23zM27 14h1v1H27zM5 15h1v1H5zM6 15h1v1H6zM25 15h1v1H25zM26 15h1v1H26zM4 24h1v1H4zM5 24h1v1H5zM26 24h1v1H26zM27 24h1v1H27zM3 25h1v1H3zM6 25h1v1H6zM25 25h1v1H25zM28 25h1v1H28zM2 26h1v1H2zM29 26h1v1H29zM2 27h1v1H2zM3 27h1v1H3zM28 27h1v1H28zM29 27h1v1H29zM4 28h1v1H4zM5 28h1v1H5zM6 28h1v1H6zM25 28h1v1H25zM26 28h1v1H26zM27 28h1v1H27z"/><path fill="#fad624" d="M5 9h1v1H5zM26 9h1v1H26zM5 10h1v1H5zM26 10h1v1H26zM5 13h1v1H5zM26 13h1v1H26zM5 14h1v1H5zM26 14h1v1H26zM5 25h1v1H5zM26 25h1v1H26zM4 26h1v1H4zM27 26h1v1H27zM5 27h1v1H5zM26 27h1v1H26z"/><path fill="#cd671a" d="M6 9h1v1H6zM25 9h1v1H25zM6 10h1v1H6zM7 10h1v1H7zM24 10h1v1H24zM25 10h1v1H25zM5 11h1v1H5zM6 11h1v1H6zM25 11h1v1H25zM26 11h1v1H26zM5 12h1v1H5zM6 12h1v1H6zM25 12h1v1H25zM26 12h1v1H26zM6 13h1v1H6zM7 13h1v1H7zM24 13h1v1H24zM25 13h1v1H25zM6 14h1v1H6zM25 14h1v1H25zM5 26h1v1H5zM26 26h1v1H26zM6 27h1v1H6zM25 27h1v1H25z"/><path fill="#d2a568" d="M8 9h1v1H8zM23 9h1v1H23zM8 10h1v1H8zM23 10h1v1H23zM7 11h1v1H7zM24 11h1v1H24zM7 12h1v1H7zM14 12h1v1H14zM15 12h1v1H15zM16 12h1v1H16zM17 12h1v1H17zM24 12h1v1H24zM11 13h1v1H11zM12 13h1v1H12zM13 13h1v1H13zM16 13h1v1H16zM18 13h1v1H18zM19 13h1v1H19zM20 13h1v1H20zM9 14h1v1H9zM10 14h1v1H10zM11 14h1v1H11zM12 14h1v1H12zM13 14h1v1H13zM16 14h1v1H16zM18 14h1v1H18zM19 14h1v1H19zM20 14h1v1H20zM21 14h1v1H21zM9 15h1v1H9zM10 15h1v1H10zM11 15h1v1H11zM13 15h1v1H13zM18 15h1v1H18zM20 15h1v1H20zM21 15h1v1H21zM24 15h1v1H24zM7 16h1v1H7zM10 16h1v1H10zM13 16h1v1H13zM16 16h1v1H16zM18 16h1v1H18zM21 16h1v1H21zM22 16h1v1H22zM24 16h1v1H24zM7 17h1v1H7zM10 17h1v1H10zM11 17h1v1H11zM14 17h1v1H14zM15 17h1v1H15zM16 17h1v1H16zM17 17h1v1H17zM20 17h1v1H20zM21 17h1v1H21zM22 17h1v1H22zM23 17h1v1H23zM24 17h1v1H24zM7 18h1v1H7zM9 18h1v1H9zM10 18h1v1H10zM14 18h1v1H14zM21 18h1v1H21zM24 18h1v1H24zM7 19h1v1H7zM8 19h1v1H8zM9 19h1v1H9zM10 19h1v1H10zM16 19h1v1H16zM17 19h1v1H17zM21 19h1v1H21zM24 19h1v1H24zM7 20h1v1H7zM8 20h1v1H8zM10 20h1v1H10zM21 20h1v1H21zM22 20h1v1H22zM23 20h1v1H23zM24 20h1v1H24zM7 21h1v1H7zM10 21h1v1H10zM13 21h1v1H13zM16 21h1v1H16zM17 21h1v1H17zM18 21h1v1H18zM19 21h1v1H19zM20 21h1v1H20zM21 21h1v1H21zM22 21h1v1H22zM24 21h1v1H24zM7 22h1v1H7zM8 22h1v1H8zM9 22h1v1H9zM10 22h1v1H10zM11 22h1v1H11zM12 22h1v1H12zM13 22h1v1H13zM14 22h1v1H14zM15 22h1v1H15zM16 22h1v1H16zM17 22h1v1H17zM18 22h1v1H18zM21 22h1v1H21zM24 22h1v1H24zM7 23h1v1H7zM10 23h1v1H10zM12 23h1v1H12zM13 23h1v1H13zM18 23h1v1H18zM21 23h1v1H21zM23 23h1v1H23zM24 23h1v1H24zM7 24h1v1H7zM10 24h1v1H10zM13 24h1v1H13zM14 24h1v1H14zM17 24h1v1H17zM18 24h1v1H18zM20 24h1v1H20zM21 24h1v1H21zM23 24h1v1H23zM24 24h1v1H24zM8 25h1v1H8zM9 25h1v1H9zM10 25h1v1H10zM11 25h1v1H11zM12 25h1v1H12zM13 25h1v1H13zM14 25h1v1H14zM17 25h1v1H17zM18 25h1v1H18zM19 25h1v1H19zM20 25h1v1H20zM21 25h1v1H21zM22 25h1v1H22zM23 25h1v1H23z"/><path fill="#ea9a17" d="M4 10h1v1H4zM27 10h1v1H27zM3 11h1v1H3zM28 11h1v1H28zM3 12h1v1H3zM28 12h1v1H28zM4 13h1v1H4zM27 13h1v1H27zM4 25h1v1H4zM27 25h1v1H27zM3 26h1v1H3zM28 26h1v1H28zM4 27h1v1H4zM27 27h1v1H27z"/><path fill="#7d5a49" d="M14 13h1v1H14zM17 13h1v1H17zM14 14h1v1H14zM15 14h1v1H15zM17 14h1v1H17zM8 15h1v1H8zM14 15h1v1H14zM16 15h1v1H16zM17 15h1v1H17zM19 15h1v1H19zM22 15h1v1H22zM8 16h1v1H8zM11 16h1v1H11zM12 16h1v1H12zM14 16h1v1H14zM17 16h1v1H17zM20 16h1v1H20zM23 16h1v1H23zM9 17h1v1H9zM8 18h1v1H8zM15 18h1v1H15zM16 18h1v1H16zM22 18h1v1H22zM23 18h1v1H23zM14 19h1v1H14zM22 19h1v1H22zM9 20h1v1H9zM14 20h1v1H14zM15 20h1v1H15zM16 20h1v1H16zM8 21h1v1H8zM11 21h1v1H11zM12 21h1v1H12zM14 21h1v1H14zM23 21h1v1H23zM19 22h1v1H19zM22 22h1v1H22zM8 23h1v1H8zM9 23h1v1H9zM11 23h1v1H11zM14 23h1v1H14zM15 23h1v1H15zM16 23h1v1H16zM19 23h1v1H19zM20 23h1v1H20zM9 24h1v1H9zM12 24h1v1H12zM15 24h1v1H15zM19 24h1v1H19zM22 24h1v1H22zM15 25h1v1H15z"/><path fill="#9d7655" d="M15 13h1v1H15zM12 15h1v1H12zM15 15h1v1H15zM6 16h1v1H6zM9 16h1v1H9zM15 16h1v1H15zM19 16h1v1H19zM25 16h1v1H25zM6 17h1v1H6zM8 17h1v1H8zM25 17h1v1H25zM6 18h1v1H6zM17 18h1v1H17zM25 18h1v1H25zM6 19h1v1H6zM15 19h1v1H15zM23 19h1v1H23zM25 19h1v1H25zM6 20h1v1H6zM17 20h1v1H17zM25 20h1v1H25zM6 21h1v1H6zM9 21h1v1H9zM15 21h1v1H15zM25 21h1v1H25zM6 22h1v1H6zM20 22h1v1H20zM23 22h1v1H23zM25 22h1v1H25zM6 23h1v1H6zM17 23h1v1H17zM22 23h1v1H22zM25 23h1v1H25zM8 24h1v1H8zM11 24h1v1H11zM16 24h1v1H16zM16 25h1v1H16z"/><path fill="#ffffff" d="M12 17h1v1H12zM18 17h1v1H18zM11 18h1v1H11zM13 18h1v1H13zM19 18h1v1H19zM20 18h1v1H20zM11 19h1v1H11zM20 19h1v1H20zM11 20h1v1H11zM20 20h1v1H20z"/><path fill="#0e0e14" d="M13 17h1v1H13zM19 17h1v1H19zM12 18h1v1H12zM18 18h1v1H18zM12 19h1v1H12zM13 19h1v1H13zM18 19h1v1H18zM19 19h1v1H19zM12 20h1v1H12zM13 20h1v1H13zM18 20h1v1H18zM19 20h1v1H19z"/></svg>
