<svg xmlns="http://www.w3.org/2000/svg" viewBox="0 0 32 32" shape-rendering="crispEdges"><path fill="#2bc1fc" d="M7 5h1v1H7zM24 5h1v1H24z"/><path fill="#46dcff" d="M8 5h1v1H8zM9 5h1v1H9zM10 5h1v1H10zM11 5h1v1H11zM12 5h1v1H12zM13 5h1v1H13zM14 5h1v1H14zM15 5h1v1H15zM16 5h1v1H16zM17 5h1v1H17zM18 5h1v1H18zM19 5h1v1H19zM20 5h1v1H20zM21 5h1v1H21zM22 5h1v1H22zM23 5h1v1H23zM6 6h1v1H6zM7 6h1v1H7zM8 6h1v1H8zM9 6h1v1H9zM22 6h1v1H22zM23 6h1v1H23zM24 6h1v1H24zM25 6h1v1H25zM5 7h1v1H5zM6 7h1v1H6zM7 7h1v1H7zM8 7h1v1H8zM23 7h1v1H23zM24 7h1v1H24zM25 7h1v1H25zM26 7h1v1H26zM6 8h1v1H6zM7 8h1v1H7zM24 8h1v1H24zM25 8h1v1H25zM6 9h1v1H6zM7 9h1v1H7zM24 9h1v1H24zM25 9h1v1H25zM6 10h1v1H6zM7 10h1v1H7zM8 10h1v1H8zM23 10h1v1H23zM24 10h1v1H24zM25 10h1v1H25zM6 11h1v1H6zM7 11h1v1H7zM8 11h1v1H8zM9 11h1v1H9zM22 11h1v1H22zM23 11h1v1H23zM24 11h1v1H24zM25 11h1v1H25zM7 12h1v1H7zM8 12h1v1H8zM9 12h1v1H9zM10 12h1v1H10zM11 12h1v1H11zM12 12h1v1H12zM13 12h1v1H13zM14 12h1v1H14zM15 12h1v1H15zM16 12h1v1H16zM17 12h1v1H17zM18 12h1v1H18zM19 12h1v1H19zM20 12h1v1H20zM21 12h1v1H21zM22 12h1v1H22zM23 12h1v1H23zM24 12h1v1H24zM7 13h1v1H7zM10 13h1v1H10zM11 13h1v1H11zM20 13h1v1H20zM21 13h1v1H21zM24 13h1v1H24zM6 14h1v1H6zM9 14h1v1H9zM10 14h1v1H10zM21 14h1v1H21zM22 14h1v1H22zM25 14h1v1H25zM6 15h1v1H6zM9 15h1v1H9zM10 15h1v1H10zM11 15h1v1H11zM20 15h1v1H20zM21 15h1v1H21zM22 15h1v1H22zM25 15h1v1H25zM26 15h1v1H26zM5 16h1v1H5zM6 16h1v1H6zM8 16h1v1H8zM9 16h1v1H9zM22 16h1v1H22zM23 16h1v1H23zM24 16h1v1H24zM25 16h1v1H25zM26 16h1v1H26zM5 17h1v1H5zM6 17h1v1H6zM7 17h1v1H7zM8 17h1v1H8zM9 17h1v1H9zM22 17h1v1H22zM23 17h1v1H23zM26 17h1v1H26zM27 17h1v1H27zM4 18h1v1H4zM5 18h1v1H5zM9 18h1v1H9zM10 18h1v1H10zM21 18h1v1H21zM22 18h1v1H22zM26 18h1v1H26zM27 18h1v1H27zM4 19h1v1H4zM5 19h1v1H5zM25 19h1v1H25zM26 19h1v1H26zM5 20h1v1H5zM6 20h1v1H6zM12 21h1v1H12zM19 21h1v1H19zM11 22h1v1H11zM12 22h1v1H12zM19 22h1v1H19zM20 22h1v1H20zM23 22h1v1H23zM27 22h1v1H27zM4 23h1v1H4zM8 23h1v1H8zM11 23h1v1H11zM12 23h1v1H12zM13 23h1v1H13zM18 23h1v1H18zM19 23h1v1H19zM20 23h1v1H20zM10 24h1v1H10zM11 24h1v1H11zM20 24h1v1H20zM21 24h1v1H21zM22 24h1v1H22zM28 24h1v1H28zM3 25h1v1H3zM9 25h1v1H9zM10 25h1v1H10zM11 25h1v1H11zM20 25h1v1H20zM21 25h1v1H21zM11 26h1v1H11zM12 26h1v1H12zM19 26h1v1H19zM20 26h1v1H20z"/><path fill="#08c0ff" d="M10 6h1v1H10zM11 6h1v1H11zM12 6h1v1H12zM13 6h1v1H13zM14 6h1v1H14zM15 6h1v1H15zM16 6h1v1H16zM17 6h1v1H17zM18 6h1v1H18zM19 6h1v1H19zM20 6h1v1H20zM21 6h1v1H21zM4 7h1v1H4zM9 7h1v1H9zM10 7h1v1H10zM11 7h1v1H11zM12 7h1v1H12zM13 7h1v1H13zM14 7h1v1H14zM15 7h1v1H15zM16 7h1v1H16zM17 7h1v1H17zM18 7h1v1H18zM19 7h1v1H19zM20 7h1v1H20zM21 7h1v1H21zM22 7h1v1H22zM27 7h1v1H27zM3 8h1v1H3zM4 8h1v1H4zM5 8h1v1H5zM8 8h1v1H8zM9 8h1v1H9zM10 8h1v1H10zM11 8h1v1H11zM12 8h1v1H12zM13 8h1v1H13zM14 8h1v1H14zM15 8h1v1H15zM16 8h1v1H16zM17 8h1v1H17zM18 8h1v1H18zM19 8h1v1H19zM20 8h1v1H20zM21 8h1v1H21zM22 8h1v1H22zM23 8h1v1H23zM26 8h1v1H26zM27 8h1v1H27zM28 8h1v1H28zM2 9h1v1H2zM8 9h1v1H8zM9 9h1v1H9zM10 9h1v1H10zM11 9h1v1H11zM12 9h1v1H12zM13 9h1v1H13zM14 9h1v1H14zM15 9h1v1H15zM16 9h1v1H16zM17 9h1v1H17zM18 9h1v1H18zM19 9h1v1H19zM20 9h1v1H20zM21 9h1v1H21zM22 9h1v1H22zM23 9h1v1H23zM29 9h1v1H29zM2 10h1v1H2zM9 10h1v1H9zM10 10h1v1H10zM11 10h1v1H11zM12 10h1v1H12zM13 10h1v1H13zM14 10h1v1H14zM15 10h1v1H15zM16 10h1v1H16zM17 10h1v1H17zM18 10h1v1H18zM19 10h1v1H19zM20 10h1v1H20zM21 10h1v1H21zM22 10h1v1H22zM29 10h1v1H29zM2 11h1v1H2zM10 11h1v1H10zM11 11h1v1H11zM12 11h1v1H12zM13 11h1v1H13zM14 11h1v1H14zM15 11h1v1H15zM16 11h1v1H16zM17 11h1v1H17zM18 11h1v1H18zM19 11h1v1H19zM20 11h1v1H20zM21 11h1v1H21zM29 11h1v1H29zM3 12h1v1H3zM28 12h1v1H28zM4 13h1v1H4zM5 13h1v1H5zM26 13h1v1H26zM27 13h1v1H27zM14 17h1v1H14zM15 17h1v1H15zM16 17h1v1H16zM17 17h1v1H17zM8 18h1v1H8zM14 18h1v1H14zM15 18h1v1H15zM16 18h1v1H16zM17 18h1v1H17zM23 18h1v1H23zM8 19h1v1H8zM9 19h1v1H9zM10 19h1v1H10zM14 19h1v1H14zM15 19h1v1H15zM16 19h1v1H16zM17 19h1v1H17zM21 19h1v1H21zM22 19h1v1H22zM23 19h1v1H23zM7 20h1v1H7zM8 20h1v1H8zM9 20h1v1H9zM10 20h1v1H10zM14 20h1v1H14zM15 20h1v1H15zM16 20h1v1H16zM17 20h1v1H17zM21 20h1v1H21zM22 20h1v1H22zM23 20h1v1H23zM24 20h1v1H24zM25 20h1v1H25zM6 21h1v1H6zM7 21h1v1H7zM8 21h1v1H8zM9 21h1v1H9zM10 21h1v1H10zM11 21h1v1H11zM13 21h1v1H13zM14 21h1v1H14zM15 21h1v1H15zM16 21h1v1H16zM17 21h1v1H17zM18 21h1v1H18zM20 21h1v1H20zM21 21h1v1H21zM22 21h1v1H22zM23 21h1v1H23zM24 21h1v1H24zM25 21h1v1H25zM26 21h1v1H26zM5 22h1v1H5zM6 22h1v1H6zM7 22h1v1H7zM24 22h1v1H24zM25 22h1v1H25zM26 22h1v1H26zM5 23h1v1H5zM6 23h1v1H6zM7 23h1v1H7zM23 23h1v1H23zM24 23h1v1H24zM25 23h1v1H25zM26 23h1v1H26zM27 23h1v1H27zM4 24h1v1H4zM5 24h1v1H5zM6 24h1v1H6zM7 24h1v1H7zM8 24h1v1H8zM27 24h1v1H27zM8 25h1v1H8zM22 25h1v1H22zM28 25h1v1H28zM3 26h1v1H3zM9 26h1v1H9zM22 26h1v1H22zM28 26h1v1H28zM3 27h1v1H3zM9 27h1v1H9zM23 27h1v1H23zM27 27h1v1H27zM4 28h1v1H4zM8 28h1v1H8zM24 28h1v1H24zM25 28h1v1H25zM26 28h1v1H26zM5 29h1v1H5zM6 29h1v1H6zM7 29h1v1H7z"/><path fill="#ffffff" d="M3 9h1v1H3zM4 9h1v1H4zM27 9h1v1H27zM28 9h1v1H28zM3 10h1v1H3zM4 10h1v1H4zM27 10h1v1H27zM28 10h1v1H28zM6 12h1v1H6zM25 12h1v1H25zM8 13h1v1H8zM9 13h1v1H9zM12 13h1v1H12zM13 13h1v1H13zM14 13h1v1H14zM15 13h1v1H15zM16 13h1v1H16zM17 13h1v1H17zM18 13h1v1H18zM19 13h1v1H19zM22 13h1v1H22zM23 13h1v1H23zM10 16h1v1H10zM11 16h1v1H11zM20 16h1v1H20zM21 16h1v1H21zM10 17h1v1H10zM11 17h1v1H11zM12 17h1v1H12zM18 17h1v1H18zM20 17h1v1H20zM21 17h1v1H21zM24 17h1v1H24zM25 17h1v1H25zM6 18h1v1H6zM7 18h1v1H7zM11 18h1v1H11zM13 18h1v1H13zM19 18h1v1H19zM20 18h1v1H20zM24 18h1v1H24zM25 18h1v1H25zM6 19h1v1H6zM7 19h1v1H7zM11 19h1v1H11zM20 19h1v1H20zM11 20h1v1H11zM20 20h1v1H20zM12 24h1v1H12zM13 24h1v1H13zM18 24h1v1H18zM19 24h1v1H19zM23 24h1v1H23zM24 24h1v1H24zM4 25h1v1H4zM5 25h1v1H5zM12 25h1v1H12zM13 25h1v1H13zM18 25h1v1H18zM19 25h1v1H19zM23 25h1v1H23zM24 25h1v1H24zM26 25h1v1H26zM4 26h1v1H4zM5 26h1v1H5zM7 26h1v1H7z"/><path fill="#1c95f2" d="M5 9h1v1H5zM26 9h1v1H26zM5 10h1v1H5zM26 10h1v1H26zM24 19h1v1H24zM25 24h1v1H25zM26 24h1v1H26zM6 25h1v1H6zM7 25h1v1H7zM14 25h1v1H14zM15 25h1v1H15zM16 25h1v1H16zM17 25h1v1H17zM25 25h1v1H25zM27 25h1v1H27zM6 26h1v1H6zM8 26h1v1H8z"/><path fill="#1854d5" d="M3 11h1v1H3zM4 11h1v1H4zM5 11h1v1H5zM26 11h1v1H26zM27 11h1v1H27zM28 11h1v1H28zM4 12h1v1H4zM5 12h1v1H5zM26 12h1v1H26zM27 12h1v1H27zM7 14h1v1H7zM8 14h1v1H8zM11 14h1v1H11zM12 14h1v1H12zM13 14h1v1H13zM14 14h1v1H14zM15 14h1v1H15zM16 14h1v1H16zM17 14h1v1H17zM18 14h1v1H18zM19 14h1v1H19zM20 14h1v1H20zM23 14h1v1H23zM24 14h1v1H24zM7 15h1v1H7zM8 15h1v1H8zM12 15h1v1H12zM13 15h1v1H13zM14 15h1v1H14zM15 15h1v1H15zM16 15h1v1H16zM17 15h1v1H17zM18 15h1v1H18zM19 15h1v1H19zM23 15h1v1H23zM24 15h1v1H24zM7 16h1v1H7zM12 16h1v1H12zM13 16h1v1H13zM14 16h1v1H14zM15 16h1v1H15zM16 16h1v1H16zM17 16h1v1H17zM18 16h1v1H18zM19 16h1v1H19zM8 22h1v1H8zM9 22h1v1H9zM10 22h1v1H10zM13 22h1v1H13zM14 22h1v1H14zM15 22h1v1H15zM16 22h1v1H16zM17 22h1v1H17zM18 22h1v1H18zM21 22h1v1H21zM22 22h1v1H22zM9 23h1v1H9zM10 23h1v1H10zM14 23h1v1H14zM15 23h1v1H15zM16 23h1v1H16zM17 23h1v1H17zM21 23h1v1H21zM22 23h1v1H22zM9 24h1v1H9zM14 24h1v1H14zM15 24h1v1H15zM16 24h1v1H16zM17 24h1v1H17zM10 26h1v1H10zM13 26h1v1H13zM14 26h1v1H14zM15 26h1v1H15zM16 26h1v1H16zM17 26h1v1H17zM18 26h1v1H18zM21 26h1v1H21zM23 26h1v1H23zM24 26h1v1H24zM25 26h1v1H25zM26 26h1v1H26zM27 26h1v1H27zM4 27h1v1H4zM5 27h1v1H5zM6 27h1v1H6zM7 27h1v1H7zM8 27h1v1H8zM10 27h1v1H10zM11 27h1v1H11zM12 27h1v1H12zM13 27h1v1H13zM14 27h1v1H14zM17 27h1v1H17zM18 27h1v1H18zM19 27h1v1H19zM20 27h1v1H20zM21 27h1v1H21zM24 27h1v1H24zM25 27h1v1H25zM26 27h1v1H26zM5 28h1v1H5zM6 28h1v1H6zM7 28h1v1H7zM11 28h1v1H11zM12 28h1v1H12zM13 28h1v1H13zM17 28h1v1H17zM18 28h1v1H18zM19 28h1v1H19zM20 28h1v1H20zM21 28h1v1H21zM18 29h1v1H18zM19 29h1v1H19zM20 29h1v1H20z"/><path fill="#0b2d90" d="M6 13h1v1H6zM25 13h1v1H25z"/><path fill="#0e0e14" d="M13 17h1v1H13zM19 17h1v1H19zM12 18h1v1H12zM18 18h1v1H18zM12 19h1v1H12zM13 19h1v1H13zM18 19h1v1H18zM19 19h1v1H19zM12 20h1v1H12zM13 20h1v1H13zM18 20h1v1H18zM19 20h1v1H19z"/></svg>
